<svg version="1.1" viewBox="0.0 0.0 600.0 371.0" fill="none" stroke="none" stroke-linecap="square" stroke-miterlimit="10" width="600" height="371" xmlns:xlink="http://www.w3.org/1999/xlink" xmlns="http://www.w3.org/2000/svg"><path fill="#ffffff" d="M0 0L600.0 0L600.0 371.0L0 371.0L0 0Z" fill-rule="nonzero"/><path stroke="#333333" stroke-width="1.0" stroke-linecap="butt" d="M81.5 88.5L81.5 300.5" fill-rule="nonzero"/><path stroke="#cccccc" stroke-width="1.0" stroke-linecap="butt" d="M206.5 88.5L206.5 300.5" fill-rule="nonzero"/><path stroke="#cccccc" stroke-width="1.0" stroke-linecap="butt" d="M331.5 88.5L331.5 300.5" fill-rule="nonzero"/><path stroke="#cccccc" stroke-width="1.0" stroke-linecap="butt" d="M456.5 88.5L456.5 300.5" fill-rule="nonzero"/><path stroke="#cccccc" stroke-width="1.0" stroke-linecap="butt" d="M581.5 88.5L581.5 300.5" fill-rule="nonzero"/><path stroke="#cccccc" stroke-width="1.0" stroke-linecap="butt" d="M81.5 300.5L581.5 300.5" fill-rule="nonzero"/><path stroke="#cccccc" stroke-width="1.0" stroke-linecap="butt" d="M81.5 247.5L581.5 247.5" fill-rule="nonzero"/><path stroke="#cccccc" stroke-width="1.0" stroke-linecap="butt" d="M81.5 194.5L581.5 194.5" fill-rule="nonzero"/><path stroke="#cccccc" stroke-width="1.0" stroke-linecap="butt" d="M81.5 141.5L581.5 141.5" fill-rule="nonzero"/><path stroke="#333333" stroke-width="1.0" stroke-linecap="butt" d="M81.5 88.5L581.5 88.5" fill-rule="nonzero"/><clipPath id="id_0"><path d="M81.55 88.28333L581.45 88.28333L581.45 300.45L81.55 300.45L81.55 88.28333Z" clip-rule="nonzero"/></clipPath><path fill="#4285f4" fill-opacity="0.3019608" clip-path="url(#id_0)" d="M81.55 88.28333L82.0499 88.28367L82.5498 88.28434L83.29965 88.286095L84.42442 88.29043L86.11159 88.30074L88.642334 88.32479L92.43847 88.38017L97.43742 88.486595L102.43647 88.626495L107.435425 88.79988L112.434425 89.00676L117.43342 89.24711L122.43247 89.52095L127.43147 89.82827L132.43033 90.16908L137.42932 90.54337L142.42833 90.95114L147.42732 91.392395L152.42632 91.867134L157.42532 92.37534L162.42432 92.917046L167.42332 93.49222L172.42232 94.10089L177.42133 94.76895L182.42032 95.46761L187.41933 96.198265L192.41832 96.96169L197.41733 97.75832L202.41632 98.58848L207.41533 99.450775L212.41432 100.33933L217.41331 101.26183L222.41232 102.218285L227.41132 103.20862L232.41032 104.23291L237.40932 105.291145L242.40833 106.38332L247.40732 107.5094L252.40633 108.669365L257.40533 109.863335L262.40433 111.091194L267.40332 112.35295L272.4023 113.64865L277.40134 114.9783L282.40033 116.34184L287.39932 117.73928L292.39832 119.17066L297.3973 120.635994L302.39633 122.135216L307.39532 123.66833L312.39432 125.235344L317.3933 126.836296L322.39233 128.47115L327.39133 130.13994L332.39032 131.84258L337.3893 133.57916L342.38834 135.34964L347.38733 137.15402L352.38632 138.99228L357.3853 140.86444L362.3843 142.77039L367.38333 144.71065L372.38232 146.68433L377.38132 148.69196L382.3803 150.73354L387.37933 152.80905L392.37833 154.91852L397.37732 157.06194L402.3763 159.23877L407.37534 161.45007L412.37433 163.6948L417.37332 165.97346L422.3723 168.28607L427.3713 170.63264L432.37033 173.01315L437.36932 175.42708L442.36832 177.87549L447.3673 180.3573L452.36633 182.87306L457.36533 185.42278L462.36432 188.00644L467.3633 190.62352L472.36234 193.27454L477.36133 195.9595L482.36032 198.67842L487.3593 201.43129L492.3583 204.2181L497.35733 207.03831L502.35632 209.89249L507.35532 212.78061L512.3543 215.70215L517.35333 218.65816L522.3523 221.64758L527.3513 224.67043L532.35034 227.72775L537.3493 230.8185L542.3483 233.94318L547.34735 237.1018L552.3463 240.29439L557.34534 243.52039L562.3443 246.78032L567.3433 250.07368L572.34235 253.4015L577.3413 256.76276L581.45 259.54797L581.45 88.28333L577.3413 88.28333L572.34235 88.28333L567.3433 88.28333L562.3443 88.28333L557.34534 88.28333L552.3463 88.28333L547.34735 88.28333L542.3483 88.28333L537.3493 88.28333L532.35034 88.28333L527.3513 88.28333L522.3523 88.28333L517.35333 88.28333L512.3543 88.28333L507.35532 88.28333L502.35632 88.28333L497.35733 88.28333L492.3583 88.28333L487.3593 88.28333L482.36032 88.28333L477.36133 88.28333L472.36234 88.28333L467.3633 88.28333L462.36432 88.28333L457.36533 88.28333L452.36633 88.28333L447.3673 88.28333L442.36832 88.28333L437.36932 88.28333L432.37033 88.28333L427.3713 88.28333L422.3723 88.28333L417.37332 88.28333L412.37433 88.28333L407.37534 88.28333L402.3763 88.28333L397.37732 88.28333L392.37833 88.28333L387.37933 88.28333L382.3803 88.28333L377.38132 88.28333L372.38232 88.28333L367.38333 88.28333L362.3843 88.28333L357.3853 88.28333L352.38632 88.28333L347.38733 88.28333L342.38834 88.28333L337.3893 88.28333L332.39032 88.28333L327.39133 88.28333L322.39233 88.28333L317.3933 88.28333L312.39432 88.28333L307.39532 88.28333L302.39633 88.28333L297.3973 88.28333L292.39832 88.28333L287.39932 88.28333L282.40033 88.28333L277.40134 88.28333L272.4023 88.28333L267.40332 88.28333L262.40433 88.28333L257.40533 88.28333L252.40633 88.28333L247.40732 88.28333L242.40833 88.28333L237.40932 88.28333L232.41032 88.28333L227.41132 88.28333L222.41232 88.28333L217.41331 88.28333L212.41432 88.28333L207.41533 88.28333L202.41632 88.28333L197.41733 88.28333L192.41832 88.28333L187.41933 88.28333L182.42032 88.28333L177.42133 88.28333L172.42232 88.28333L167.42332 88.28333L162.42432 88.28333L157.42532 88.28333L152.42632 88.28333L147.42732 88.28333L142.42833 88.28333L137.42932 88.28333L132.43033 88.28333L127.43147 88.28333L122.43247 88.28333L117.43342 88.28333L112.434425 88.28333L107.435425 88.28333L102.43647 88.28333L97.43742 88.28333L92.43847 88.28333L88.642334 88.28333L86.11159 88.28333L84.42442 88.28333L83.29965 88.28333L82.5498 88.28333L82.0499 88.28333L81.55 88.28333Z" fill-rule="nonzero"/><path fill="#ea4335" fill-opacity="0.3019608" clip-path="url(#id_0)" d="M81.55 88.28333L82.0499 88.28367L82.5498 88.28434L83.29965 88.286095L84.42442 88.29043L86.11159 88.30074L88.642334 88.32479L92.43847 88.38017L97.43742 88.486595L102.43647 88.626495L107.435425 88.79988L112.434425 89.00676L117.43342 89.24711L122.43247 89.52095L127.43147 89.82827L132.43033 90.16908L137.42932 90.54337L142.42833 90.95114L147.42732 91.392395L152.42632 91.867134L157.42532 92.37534L162.42432 92.917046L167.42332 93.49222L172.42232 94.10089L172.42232 88.28333L167.42332 88.28333L162.42432 88.28333L157.42532 88.28333L152.42632 88.28333L147.42732 88.28333L142.42833 88.28333L137.42932 88.28333L132.43033 88.28333L127.43147 88.28333L122.43247 88.28333L117.43342 88.28333L112.434425 88.28333L107.435425 88.28333L102.43647 88.28333L97.43742 88.28333L92.43847 88.28333L88.642334 88.28333L86.11159 88.28333L84.42442 88.28333L83.29965 88.28333L82.5498 88.28333L82.0499 88.28333L81.55 88.28333Z" fill-rule="nonzero"/><path stroke="#4285f4" stroke-width="2.0" stroke-linecap="butt" clip-path="url(#id_0)" d="M81.55 88.28333L82.0499 88.28367L82.5498 88.28434L83.29965 88.286095L84.42442 88.29043L86.11159 88.30074L88.642334 88.32479L92.43847 88.38017L97.43742 88.486595L102.43647 88.626495L107.435425 88.79988L112.434425 89.00676L117.43342 89.24711L122.43247 89.52095L127.43147 89.82827L132.43033 90.16908L137.42932 90.54337L142.42833 90.95114L147.42732 91.392395L152.42632 91.867134L157.42532 92.37534L162.42432 92.917046L167.42332 93.49222L172.42232 94.10089L177.42133 94.76895L182.42032 95.46761L187.41933 96.198265L192.41832 96.96169L197.41733 97.75832L202.41632 98.58848L207.41533 99.450775L212.41432 100.33933L217.41331 101.26183L222.41232 102.218285L227.41132 103.20862L232.41032 104.23291L237.40932 105.291145L242.40833 106.38332L247.40732 107.5094L252.40633 108.669365L257.40533 109.863335L262.40433 111.091194L267.40332 112.35295L272.4023 113.64865L277.40134 114.9783L282.40033 116.34184L287.39932 117.73928L292.39832 119.17066L297.3973 120.635994L302.39633 122.135216L307.39532 123.66833L312.39432 125.235344L317.3933 126.836296L322.39233 128.47115L327.39133 130.13994L332.39032 131.84258L337.3893 133.57916L342.38834 135.34964L347.38733 137.15402L352.38632 138.99228L357.3853 140.86444L362.3843 142.77039L367.38333 144.71065L372.38232 146.68433L377.38132 148.69196L382.3803 150.73354L387.37933 152.80905L392.37833 154.91852L397.37732 157.06194L402.3763 159.23877L407.37534 161.45007L412.37433 163.6948L417.37332 165.97346L422.3723 168.28607L427.3713 170.63264L432.37033 173.01315L437.36932 175.42708L442.36832 177.87549L447.3673 180.3573L452.36633 182.87306L457.36533 185.42278L462.36432 188.00644L467.3633 190.62352L472.36234 193.27454L477.36133 195.9595L482.36032 198.67842L487.3593 201.43129L492.3583 204.2181L497.35733 207.03831L502.35632 209.89249L507.35532 212.78061L512.3543 215.70215L517.35333 218.65816L522.3523 221.64758L527.3513 224.67043L532.35034 227.72775L537.3493 230.8185L542.3483 233.94318L547.34735 237.1018L552.3463 240.29439L557.34534 243.52039L562.3443 246.78032L567.3433 250.07368L572.34235 253.4015L577.3413 256.76276L581.45 259.54797" fill-rule="nonzero"/><path stroke="#ea4335" stroke-width="2.0" stroke-linecap="butt" clip-path="url(#id_0)" d="M81.55 88.28333L82.0499 88.28367L82.5498 88.28434L83.29965 88.286095L84.42442 88.29043L86.11159 88.30074L88.642334 88.32479L92.43847 88.38017L97.43742 88.486595L102.43647 88.626495L107.435425 88.79988L112.434425 89.00676L117.43342 89.24711L122.43247 89.52095L127.43147 89.82827L132.43033 90.16908L137.42932 90.54337L142.42833 90.95114L147.42732 91.392395L152.42632 91.867134L157.42532 92.37534L162.42432 92.917046L167.42332 93.49222L172.42232 94.10089" fill-rule="nonzero"/><path fill="#000000" fill-opacity="0.0" clip-path="url(#id_0)" d="M84.55 88.28333C84.55 89.940186 83.206856 91.28333 81.55 91.28333C79.89314 91.28333 78.55 89.940186 78.55 88.28333C78.55 86.62648 79.89314 85.28333 81.55 85.28333C83.206856 85.28333 84.55 86.62648 84.55 88.28333Z" fill-rule="nonzero"/><path fill="#000000" fill-opacity="0.0" clip-path="url(#id_0)" d="M85.0499 88.28367C85.0499 89.94052 83.70676 91.28367 82.0499 91.28367C80.39304 91.28367 79.0499 89.94052 79.0499 88.28367C79.0499 86.626816 80.39304 85.28367 82.0499 85.28367C83.70676 85.28367 85.0499 86.626816 85.0499 88.28367Z" fill-rule="nonzero"/><path fill="#000000" fill-opacity="0.0" clip-path="url(#id_0)" d="M85.5498 88.28434C85.5498 89.94119 84.20666 91.28434 82.5498 91.28434C80.892944 91.28434 79.5498 89.94119 79.5498 88.28434C79.5498 86.62749 80.892944 85.28434 82.5498 85.28434C84.20666 85.28434 85.5498 86.62749 85.5498 88.28434Z" fill-rule="nonzero"/><path fill="#000000" fill-opacity="0.0" clip-path="url(#id_0)" d="M86.29965 88.286095C86.29965 89.94295 84.956505 91.286095 83.29965 91.286095C81.6428 91.286095 80.29965 89.94295 80.29965 88.286095C80.29965 86.62924 81.6428 85.286095 83.29965 85.286095C84.956505 85.286095 86.29965 86.62924 86.29965 88.286095Z" fill-rule="nonzero"/><path fill="#000000" fill-opacity="0.0" clip-path="url(#id_0)" d="M87.42442 88.29043C87.42442 89.94728 86.081276 91.29043 84.42442 91.29043C82.76757 91.29043 81.42442 89.94728 81.42442 88.29043C81.42442 86.633575 82.76757 85.29043 84.42442 85.29043C86.081276 85.29043 87.42442 86.633575 87.42442 88.29043Z" fill-rule="nonzero"/><path fill="#000000" fill-opacity="0.0" clip-path="url(#id_0)" d="M89.11159 88.30074C89.11159 89.957596 87.76844 91.30074 86.11159 91.30074C84.454735 91.30074 83.11159 89.957596 83.11159 88.30074C83.11159 86.64388 84.454735 85.30074 86.11159 85.30074C87.76844 85.30074 89.11159 86.64388 89.11159 88.30074Z" fill-rule="nonzero"/><path fill="#000000" fill-opacity="0.0" clip-path="url(#id_0)" d="M91.642334 88.32479C91.642334 89.98164 90.29919 91.32479 88.642334 91.32479C86.98547 91.32479 85.642334 89.98164 85.642334 88.32479C85.642334 86.66794 86.98547 85.32479 88.642334 85.32479C90.29919 85.32479 91.642334 86.66794 91.642334 88.32479Z" fill-rule="nonzero"/><path fill="#000000" fill-opacity="0.0" clip-path="url(#id_0)" d="M95.43847 88.38017C95.43847 90.037025 94.09533 91.38017 92.43847 91.38017C90.78162 91.38017 89.43847 90.037025 89.43847 88.38017C89.43847 86.72332 90.78162 85.38017 92.43847 85.38017C94.09533 85.38017 95.43847 86.72332 95.43847 88.38017Z" fill-rule="nonzero"/><path fill="#000000" fill-opacity="0.0" clip-path="url(#id_0)" d="M100.43742 88.486595C100.43742 90.14345 99.09428 91.486595 97.43742 91.486595C95.78057 91.486595 94.43742 90.14345 94.43742 88.486595C94.43742 86.82974 95.78057 85.486595 97.43742 85.486595C99.09428 85.486595 100.43742 86.82974 100.43742 88.486595Z" fill-rule="nonzero"/><path fill="#000000" fill-opacity="0.0" clip-path="url(#id_0)" d="M105.43647 88.626495C105.43647 90.28335 104.09332 91.626495 102.43647 91.626495C100.77962 91.626495 99.43647 90.28335 99.43647 88.626495C99.43647 86.96964 100.77962 85.626495 102.43647 85.626495C104.09332 85.626495 105.43647 86.96964 105.43647 88.626495Z" fill-rule="nonzero"/><path fill="#000000" fill-opacity="0.0" clip-path="url(#id_0)" d="M110.435425 88.79988C110.435425 90.45674 109.09228 91.79988 107.435425 91.79988C105.778564 91.79988 104.435425 90.45674 104.435425 88.79988C104.435425 87.14303 105.778564 85.79988 107.435425 85.79988C109.09228 85.79988 110.435425 87.14303 110.435425 88.79988Z" fill-rule="nonzero"/><path fill="#000000" fill-opacity="0.0" clip-path="url(#id_0)" d="M115.434425 89.00676C115.434425 90.66361 114.09128 92.00676 112.434425 92.00676C110.777565 92.00676 109.434425 90.66361 109.434425 89.00676C109.434425 87.34991 110.777565 86.00676 112.434425 86.00676C114.09128 86.00676 115.434425 87.34991 115.434425 89.00676Z" fill-rule="nonzero"/><path fill="#000000" fill-opacity="0.0" clip-path="url(#id_0)" d="M120.43342 89.24711C120.43342 90.90397 119.09028 92.24711 117.43342 92.24711C115.776566 92.24711 114.43342 90.90397 114.43342 89.24711C114.43342 87.590256 115.776566 86.24711 117.43342 86.24711C119.09028 86.24711 120.43342 87.590256 120.43342 89.24711Z" fill-rule="nonzero"/><path fill="#000000" fill-opacity="0.0" clip-path="url(#id_0)" d="M125.43247 89.52095C125.43247 91.1778 124.089325 92.52095 122.43247 92.52095C120.77562 92.52095 119.43247 91.1778 119.43247 89.52095C119.43247 87.8641 120.77562 86.52095 122.43247 86.52095C124.089325 86.52095 125.43247 87.8641 125.43247 89.52095Z" fill-rule="nonzero"/><path fill="#000000" fill-opacity="0.0" clip-path="url(#id_0)" d="M130.43147 89.82827C130.43147 91.48513 129.08833 92.82827 127.43147 92.82827C125.77462 92.82827 124.43147 91.48513 124.43147 89.82827C124.43147 88.17142 125.77462 86.82827 127.43147 86.82827C129.08833 86.82827 130.43147 88.17142 130.43147 89.82827Z" fill-rule="nonzero"/><path fill="#000000" fill-opacity="0.0" clip-path="url(#id_0)" d="M135.43033 90.16908C135.43033 91.825935 134.08717 93.16908 132.43033 93.16908C130.77347 93.16908 129.43033 91.825935 129.43033 90.16908C129.43033 88.51223 130.77347 87.16908 132.43033 87.16908C134.08717 87.16908 135.43033 88.51223 135.43033 90.16908Z" fill-rule="nonzero"/><path fill="#000000" fill-opacity="0.0" clip-path="url(#id_0)" d="M140.42932 90.54337C140.42932 92.200226 139.08618 93.54337 137.42932 93.54337C135.77246 93.54337 134.42932 92.200226 134.42932 90.54337C134.42932 88.88651 135.77246 87.54337 137.42932 87.54337C139.08618 87.54337 140.42932 88.88651 140.42932 90.54337Z" fill-rule="nonzero"/><path fill="#000000" fill-opacity="0.0" clip-path="url(#id_0)" d="M145.42833 90.95114C145.42833 92.607994 144.08517 93.95114 142.42833 93.95114C140.77147 93.95114 139.42833 92.607994 139.42833 90.95114C139.42833 89.29428 140.77147 87.95114 142.42833 87.95114C144.08517 87.95114 145.42833 89.29428 145.42833 90.95114Z" fill-rule="nonzero"/><path fill="#000000" fill-opacity="0.0" clip-path="url(#id_0)" d="M150.42732 91.392395C150.42732 93.04925 149.08418 94.392395 147.42732 94.392395C145.77046 94.392395 144.42732 93.04925 144.42732 91.392395C144.42732 89.735535 145.77046 88.392395 147.42732 88.392395C149.08418 88.392395 150.42732 89.735535 150.42732 91.392395Z" fill-rule="nonzero"/><path fill="#000000" fill-opacity="0.0" clip-path="url(#id_0)" d="M155.42632 91.867134C155.42632 93.52399 154.08318 94.867134 152.42632 94.867134C150.76947 94.867134 149.42632 93.52399 149.42632 91.867134C149.42632 90.21027 150.76947 88.867134 152.42632 88.867134C154.08318 88.867134 155.42632 90.21027 155.42632 91.867134Z" fill-rule="nonzero"/><path fill="#000000" fill-opacity="0.0" clip-path="url(#id_0)" d="M160.42532 92.37534C160.42532 94.032196 159.08217 95.37534 157.42532 95.37534C155.76846 95.37534 154.42532 94.032196 154.42532 92.37534C154.42532 90.71849 155.76846 89.37534 157.42532 89.37534C159.08217 89.37534 160.42532 90.71849 160.42532 92.37534Z" fill-rule="nonzero"/><path fill="#000000" fill-opacity="0.0" clip-path="url(#id_0)" d="M165.42432 92.917046C165.42432 94.5739 164.08118 95.917046 162.42432 95.917046C160.76747 95.917046 159.42432 94.5739 159.42432 92.917046C159.42432 91.260185 160.76747 89.917046 162.42432 89.917046C164.08118 89.917046 165.42432 91.260185 165.42432 92.917046Z" fill-rule="nonzero"/><path fill="#000000" fill-opacity="0.0" clip-path="url(#id_0)" d="M170.42332 93.49222C170.42332 95.14908 169.08017 96.49222 167.42332 96.49222C165.76646 96.49222 164.42332 95.14908 164.42332 93.49222C164.42332 91.835365 165.76646 90.49222 167.42332 90.49222C169.08017 90.49222 170.42332 91.835365 170.42332 93.49222Z" fill-rule="nonzero"/><path fill="#000000" fill-opacity="0.0" clip-path="url(#id_0)" d="M175.42232 94.10089C175.42232 95.757744 174.07918 97.10089 172.42232 97.10089C170.76547 97.10089 169.42232 95.757744 169.42232 94.10089C169.42232 92.44404 170.76547 91.10089 172.42232 91.10089C174.07918 91.10089 175.42232 92.44404 175.42232 94.10089Z" fill-rule="nonzero"/><path fill="#000000" fill-opacity="0.0" clip-path="url(#id_0)" d="M180.42133 94.76895C180.42133 96.425804 179.07817 97.76895 177.42133 97.76895C175.76447 97.76895 174.42133 96.425804 174.42133 94.76895C174.42133 93.1121 175.76447 91.76895 177.42133 91.76895C179.07817 91.76895 180.42133 93.1121 180.42133 94.76895Z" fill-rule="nonzero"/><path fill="#000000" fill-opacity="0.0" clip-path="url(#id_0)" d="M185.42032 95.46761C185.42032 97.124466 184.07718 98.46761 182.42032 98.46761C180.76347 98.46761 179.42032 97.124466 179.42032 95.46761C179.42032 93.81076 180.76347 92.46761 182.42032 92.46761C184.07718 92.46761 185.42032 93.81076 185.42032 95.46761Z" fill-rule="nonzero"/><path fill="#000000" fill-opacity="0.0" clip-path="url(#id_0)" d="M190.41933 96.198265C190.41933 97.85512 189.07617 99.198265 187.41933 99.198265C185.76247 99.198265 184.41933 97.85512 184.41933 96.198265C184.41933 94.54141 185.76247 93.198265 187.41933 93.198265C189.07617 93.198265 190.41933 94.54141 190.41933 96.198265Z" fill-rule="nonzero"/><path fill="#000000" fill-opacity="0.0" clip-path="url(#id_0)" d="M195.41832 96.96169C195.41832 98.618546 194.07518 99.96169 192.41832 99.96169C190.76147 99.96169 189.41832 98.618546 189.41832 96.96169C189.41832 95.30484 190.76147 93.96169 192.41832 93.96169C194.07518 93.96169 195.41832 95.30484 195.41832 96.96169Z" fill-rule="nonzero"/><path fill="#000000" fill-opacity="0.0" clip-path="url(#id_0)" d="M200.41733 97.75832C200.41733 99.41518 199.07417 100.75832 197.41733 100.75832C195.76047 100.75832 194.41733 99.41518 194.41733 97.75832C194.41733 96.10147 195.76047 94.75832 197.41733 94.75832C199.07417 94.75832 200.41733 96.10147 200.41733 97.75832Z" fill-rule="nonzero"/><path fill="#000000" fill-opacity="0.0" clip-path="url(#id_0)" d="M205.41632 98.58848C205.41632 100.24534 204.07318 101.58848 202.41632 101.58848C200.75946 101.58848 199.41632 100.24534 199.41632 98.58848C199.41632 96.931625 200.75946 95.58848 202.41632 95.58848C204.07318 95.58848 205.41632 96.931625 205.41632 98.58848Z" fill-rule="nonzero"/><path fill="#000000" fill-opacity="0.0" clip-path="url(#id_0)" d="M210.41533 99.450775C210.41533 101.107635 209.07217 102.450775 207.41533 102.450775C205.75847 102.450775 204.41533 101.107635 204.41533 99.450775C204.41533 97.79392 205.75847 96.450775 207.41533 96.450775C209.07217 96.450775 210.41533 97.79392 210.41533 99.450775Z" fill-rule="nonzero"/><path fill="#000000" fill-opacity="0.0" clip-path="url(#id_0)" d="M215.41432 100.33933C215.41432 101.996185 214.07118 103.33933 212.41432 103.33933C210.75746 103.33933 209.41432 101.996185 209.41432 100.33933C209.41432 98.68248 210.75746 97.33933 212.41432 97.33933C214.07118 97.33933 215.41432 98.68248 215.41432 100.33933Z" fill-rule="nonzero"/><path fill="#000000" fill-opacity="0.0" clip-path="url(#id_0)" d="M220.41331 101.26183C220.41331 102.918686 219.07018 104.26183 217.41331 104.26183C215.75647 104.26183 214.41331 102.918686 214.41331 101.26183C214.41331 99.60498 215.75647 98.26183 217.41331 98.26183C219.07018 98.26183 220.41331 99.60498 220.41331 101.26183Z" fill-rule="nonzero"/><path fill="#000000" fill-opacity="0.0" clip-path="url(#id_0)" d="M225.41232 102.218285C225.41232 103.87514 224.06918 105.218285 222.41232 105.218285C220.75546 105.218285 219.41232 103.87514 219.41232 102.218285C219.41232 100.561424 220.75546 99.218285 222.41232 99.218285C224.06918 99.218285 225.41232 100.561424 225.41232 102.218285Z" fill-rule="nonzero"/><path fill="#000000" fill-opacity="0.0" clip-path="url(#id_0)" d="M230.41132 103.20862C230.41132 104.86548 229.06818 106.20862 227.41132 106.20862C225.75447 106.20862 224.41132 104.86548 224.41132 103.20862C224.41132 101.551765 225.75447 100.20862 227.41132 100.20862C229.06818 100.20862 230.41132 101.551765 230.41132 103.20862Z" fill-rule="nonzero"/><path fill="#000000" fill-opacity="0.0" clip-path="url(#id_0)" d="M235.41032 104.23291C235.41032 105.88976 234.06717 107.23291 232.41032 107.23291C230.75346 107.23291 229.41032 105.88976 229.41032 104.23291C229.41032 102.57606 230.75346 101.23291 232.41032 101.23291C234.06717 101.23291 235.41032 102.57606 235.41032 104.23291Z" fill-rule="nonzero"/><path fill="#000000" fill-opacity="0.0" clip-path="url(#id_0)" d="M240.40932 105.291145C240.40932 106.948 239.06618 108.291145 237.40932 108.291145C235.75247 108.291145 234.40932 106.948 234.40932 105.291145C234.40932 103.63429 235.75247 102.291145 237.40932 102.291145C239.06618 102.291145 240.40932 103.63429 240.40932 105.291145Z" fill-rule="nonzero"/><path fill="#000000" fill-opacity="0.0" clip-path="url(#id_0)" d="M245.40833 106.38332C245.40833 108.04018 244.06517 109.38332 242.40833 109.38332C240.75146 109.38332 239.40833 108.04018 239.40833 106.38332C239.40833 104.72647 240.75146 103.38332 242.40833 103.38332C244.06517 103.38332 245.40833 104.72647 245.40833 106.38332Z" fill-rule="nonzero"/><path fill="#000000" fill-opacity="0.0" clip-path="url(#id_0)" d="M250.40732 107.5094C250.40732 109.16625 249.06418 110.5094 247.40732 110.5094C245.75047 110.5094 244.40732 109.16625 244.40732 107.5094C244.40732 105.85255 245.75047 104.5094 247.40732 104.5094C249.06418 104.5094 250.40732 105.85255 250.40732 107.5094Z" fill-rule="nonzero"/><path fill="#000000" fill-opacity="0.0" clip-path="url(#id_0)" d="M255.40633 108.669365C255.40633 110.326225 254.06317 111.669365 252.40633 111.669365C250.74947 111.669365 249.40633 110.326225 249.40633 108.669365C249.40633 107.01251 250.74947 105.669365 252.40633 105.669365C254.06317 105.669365 255.40633 107.01251 255.40633 108.669365Z" fill-rule="nonzero"/><path fill="#000000" fill-opacity="0.0" clip-path="url(#id_0)" d="M260.40533 109.863335C260.40533 111.52019 259.06216 112.863335 257.40533 112.863335C255.74847 112.863335 254.40532 111.52019 254.40532 109.863335C254.40532 108.20648 255.74847 106.863335 257.40533 106.863335C259.06216 106.863335 260.40533 108.20648 260.40533 109.863335Z" fill-rule="nonzero"/><path fill="#000000" fill-opacity="0.0" clip-path="url(#id_0)" d="M265.40433 111.091194C265.40433 112.748055 264.0612 114.091194 262.40433 114.091194C260.74747 114.091194 259.40433 112.748055 259.40433 111.091194C259.40433 109.43434 260.74747 108.091194 262.40433 108.091194C264.0612 108.091194 265.40433 109.43434 265.40433 111.091194Z" fill-rule="nonzero"/><path fill="#000000" fill-opacity="0.0" clip-path="url(#id_0)" d="M270.40332 112.35295C270.40332 114.0098 269.06018 115.35295 267.40332 115.35295C265.74646 115.35295 264.40332 114.0098 264.40332 112.35295C264.40332 110.6961 265.74646 109.35295 267.40332 109.35295C269.06018 109.35295 270.40332 110.6961 270.40332 112.35295Z" fill-rule="nonzero"/><path fill="#000000" fill-opacity="0.0" clip-path="url(#id_0)" d="M275.4023 113.64865C275.4023 115.30551 274.05917 116.64865 272.4023 116.64865C270.74545 116.64865 269.4023 115.30551 269.4023 113.64865C269.4023 111.9918 270.74545 110.64865 272.4023 110.64865C274.05917 110.64865 275.4023 111.9918 275.4023 113.64865Z" fill-rule="nonzero"/><path fill="#000000" fill-opacity="0.0" clip-path="url(#id_0)" d="M280.40134 114.9783C280.40134 116.635155 279.05817 117.9783 277.40134 117.9783C275.74448 117.9783 274.40134 116.635155 274.40134 114.9783C274.40134 113.32145 275.74448 111.9783 277.40134 111.9783C279.05817 111.9783 280.40134 113.32145 280.40134 114.9783Z" fill-rule="nonzero"/><path fill="#000000" fill-opacity="0.0" clip-path="url(#id_0)" d="M285.40033 116.34184C285.40033 117.998695 284.0572 119.34184 282.40033 119.34184C280.74347 119.34184 279.40033 117.998695 279.40033 116.34184C279.40033 114.68499 280.74347 113.34184 282.40033 113.34184C284.0572 113.34184 285.40033 114.68499 285.40033 116.34184Z" fill-rule="nonzero"/><path fill="#000000" fill-opacity="0.0" clip-path="url(#id_0)" d="M290.39932 117.73928C290.39932 119.39613 289.05618 120.73928 287.39932 120.73928C285.74246 120.73928 284.39932 119.39613 284.39932 117.73928C284.39932 116.08243 285.74246 114.73928 287.39932 114.73928C289.05618 114.73928 290.39932 116.08243 290.39932 117.73928Z" fill-rule="nonzero"/><path fill="#000000" fill-opacity="0.0" clip-path="url(#id_0)" d="M295.39832 119.17066C295.39832 120.827515 294.05518 122.17066 292.39832 122.17066C290.74146 122.17066 289.39832 120.827515 289.39832 119.17066C289.39832 117.51381 290.74146 116.17066 292.39832 116.17066C294.05518 116.17066 295.39832 117.51381 295.39832 119.17066Z" fill-rule="nonzero"/><path fill="#000000" fill-opacity="0.0" clip-path="url(#id_0)" d="M300.3973 120.635994C300.3973 122.29285 299.05417 123.635994 297.3973 123.635994C295.74048 123.635994 294.3973 122.29285 294.3973 120.635994C294.3973 118.97914 295.74048 117.635994 297.3973 117.635994C299.05417 117.635994 300.3973 118.97914 300.3973 120.635994Z" fill-rule="nonzero"/><path fill="#000000" fill-opacity="0.0" clip-path="url(#id_0)" d="M305.39633 122.135216C305.39633 123.79207 304.05316 125.135216 302.39633 125.135216C300.73947 125.135216 299.39633 123.79207 299.39633 122.135216C299.39633 120.47836 300.73947 119.135216 302.39633 119.135216C304.05316 119.135216 305.39633 120.47836 305.39633 122.135216Z" fill-rule="nonzero"/><path fill="#000000" fill-opacity="0.0" clip-path="url(#id_0)" d="M310.39532 123.66833C310.39532 125.32519 309.0522 126.66833 307.39532 126.66833C305.73846 126.66833 304.39532 125.32519 304.39532 123.66833C304.39532 122.011475 305.73846 120.66833 307.39532 120.66833C309.0522 120.66833 310.39532 122.011475 310.39532 123.66833Z" fill-rule="nonzero"/><path fill="#000000" fill-opacity="0.0" clip-path="url(#id_0)" d="M315.39432 125.235344C315.39432 126.8922 314.05118 128.23534 312.39432 128.23534C310.73746 128.23534 309.39432 126.8922 309.39432 125.235344C309.39432 123.57848 310.73746 122.235344 312.39432 122.235344C314.05118 122.235344 315.39432 123.57848 315.39432 125.235344Z" fill-rule="nonzero"/><path fill="#000000" fill-opacity="0.0" clip-path="url(#id_0)" d="M320.3933 126.836296C320.3933 128.49315 319.05017 129.8363 317.3933 129.8363C315.73648 129.8363 314.3933 128.49315 314.3933 126.836296C314.3933 125.17944 315.73648 123.836296 317.3933 123.836296C319.05017 123.836296 320.3933 125.17944 320.3933 126.836296Z" fill-rule="nonzero"/><path fill="#000000" fill-opacity="0.0" clip-path="url(#id_0)" d="M325.39233 128.47115C325.39233 130.128 324.04916 131.47115 322.39233 131.47115C320.73547 131.47115 319.39233 130.128 319.39233 128.47115C319.39233 126.81429 320.73547 125.471146 322.39233 125.471146C324.04916 125.471146 325.39233 126.81429 325.39233 128.47115Z" fill-rule="nonzero"/><path fill="#000000" fill-opacity="0.0" clip-path="url(#id_0)" d="M330.39133 130.13994C330.39133 131.7968 329.0482 133.13994 327.39133 133.13994C325.73447 133.13994 324.39133 131.7968 324.39133 130.13994C324.39133 128.4831 325.73447 127.139946 327.39133 127.139946C329.0482 127.139946 330.39133 128.4831 330.39133 130.13994Z" fill-rule="nonzero"/><path fill="#000000" fill-opacity="0.0" clip-path="url(#id_0)" d="M335.39032 131.84258C335.39032 133.49944 334.04718 134.84258 332.39032 134.84258C330.73346 134.84258 329.39032 133.49944 329.39032 131.84258C329.39032 130.18573 330.73346 128.84258 332.39032 128.84258C334.04718 128.84258 335.39032 130.18573 335.39032 131.84258Z" fill-rule="nonzero"/><path fill="#000000" fill-opacity="0.0" clip-path="url(#id_0)" d="M340.3893 133.57916C340.3893 135.23602 339.04617 136.57916 337.3893 136.57916C335.73245 136.57916 334.3893 135.23602 334.3893 133.57916C334.3893 131.92232 335.73245 130.57916 337.3893 130.57916C339.04617 130.57916 340.3893 131.92232 340.3893 133.57916Z" fill-rule="nonzero"/><path fill="#000000" fill-opacity="0.0" clip-path="url(#id_0)" d="M345.38834 135.34964C345.38834 137.0065 344.04517 138.34964 342.38834 138.34964C340.73148 138.34964 339.38834 137.0065 339.38834 135.34964C339.38834 133.6928 340.73148 132.34964 342.38834 132.34964C344.04517 132.34964 345.38834 133.6928 345.38834 135.34964Z" fill-rule="nonzero"/><path fill="#000000" fill-opacity="0.0" clip-path="url(#id_0)" d="M350.38733 137.15402C350.38733 138.81087 349.0442 140.15402 347.38733 140.15402C345.73047 140.15402 344.38733 138.81087 344.38733 137.15402C344.38733 135.49716 345.73047 134.15402 347.38733 134.15402C349.0442 134.15402 350.38733 135.49716 350.38733 137.15402Z" fill-rule="nonzero"/><path fill="#000000" fill-opacity="0.0" clip-path="url(#id_0)" d="M355.38632 138.99228C355.38632 140.64914 354.04318 141.99228 352.38632 141.99228C350.72946 141.99228 349.38632 140.64914 349.38632 138.99228C349.38632 137.33542 350.72946 135.99228 352.38632 135.99228C354.04318 135.99228 355.38632 137.33542 355.38632 138.99228Z" fill-rule="nonzero"/><path fill="#000000" fill-opacity="0.0" clip-path="url(#id_0)" d="M360.3853 140.86444C360.3853 142.52129 359.04218 143.86444 357.3853 143.86444C355.72845 143.86444 354.3853 142.52129 354.3853 140.86444C354.3853 139.20758 355.72845 137.86444 357.3853 137.86444C359.04218 137.86444 360.3853 139.20758 360.3853 140.86444Z" fill-rule="nonzero"/><path fill="#000000" fill-opacity="0.0" clip-path="url(#id_0)" d="M365.3843 142.77039C365.3843 144.42725 364.04117 145.77039 362.3843 145.77039C360.72748 145.77039 359.3843 144.42725 359.3843 142.77039C359.3843 141.11353 360.72748 139.77039 362.3843 139.77039C364.04117 139.77039 365.3843 141.11353 365.3843 142.77039Z" fill-rule="nonzero"/><path fill="#000000" fill-opacity="0.0" clip-path="url(#id_0)" d="M370.38333 144.71065C370.38333 146.36751 369.04016 147.71065 367.38333 147.71065C365.72647 147.71065 364.38333 146.36751 364.38333 144.71065C364.38333 143.0538 365.72647 141.71065 367.38333 141.71065C369.04016 141.71065 370.38333 143.0538 370.38333 144.71065Z" fill-rule="nonzero"/><path fill="#000000" fill-opacity="0.0" clip-path="url(#id_0)" d="M375.38232 146.68433C375.38232 148.34119 374.03918 149.68433 372.38232 149.68433C370.72546 149.68433 369.38232 148.34119 369.38232 146.68433C369.38232 145.02748 370.72546 143.68433 372.38232 143.68433C374.03918 143.68433 375.38232 145.02748 375.38232 146.68433Z" fill-rule="nonzero"/><path fill="#000000" fill-opacity="0.0" clip-path="url(#id_0)" d="M380.38132 148.69196C380.38132 150.34882 379.03818 151.69196 377.38132 151.69196C375.72446 151.69196 374.38132 150.34882 374.38132 148.69196C374.38132 147.0351 375.72446 145.69196 377.38132 145.69196C379.03818 145.69196 380.38132 147.0351 380.38132 148.69196Z" fill-rule="nonzero"/><path fill="#000000" fill-opacity="0.0" clip-path="url(#id_0)" d="M385.3803 150.73354C385.3803 152.39038 384.03717 153.73354 382.3803 153.73354C380.72348 153.73354 379.3803 152.39038 379.3803 150.73354C379.3803 149.07668 380.72348 147.73354 382.3803 147.73354C384.03717 147.73354 385.3803 149.07668 385.3803 150.73354Z" fill-rule="nonzero"/><path fill="#000000" fill-opacity="0.0" clip-path="url(#id_0)" d="M390.37933 152.80905C390.37933 154.46591 389.03616 155.80905 387.37933 155.80905C385.72247 155.80905 384.37933 154.46591 384.37933 152.80905C384.37933 151.15219 385.72247 149.80905 387.37933 149.80905C389.03616 149.80905 390.37933 151.15219 390.37933 152.80905Z" fill-rule="nonzero"/><path fill="#000000" fill-opacity="0.0" clip-path="url(#id_0)" d="M395.37833 154.91852C395.37833 156.57538 394.0352 157.91852 392.37833 157.91852C390.72147 157.91852 389.37833 156.57538 389.37833 154.91852C389.37833 153.26166 390.72147 151.91852 392.37833 151.91852C394.0352 151.91852 395.37833 153.26166 395.37833 154.91852Z" fill-rule="nonzero"/><path fill="#000000" fill-opacity="0.0" clip-path="url(#id_0)" d="M400.37732 157.06194C400.37732 158.71878 399.03418 160.06194 397.37732 160.06194C395.72046 160.06194 394.37732 158.71878 394.37732 157.06194C394.37732 155.40508 395.72046 154.06194 397.37732 154.06194C399.03418 154.06194 400.37732 155.40508 400.37732 157.06194Z" fill-rule="nonzero"/><path fill="#000000" fill-opacity="0.0" clip-path="url(#id_0)" d="M405.3763 159.23877C405.3763 160.89561 404.03317 162.23877 402.3763 162.23877C400.71948 162.23877 399.3763 160.89561 399.3763 159.23877C399.3763 157.58191 400.71948 156.23877 402.3763 156.23877C404.03317 156.23877 405.3763 157.58191 405.3763 159.23877Z" fill-rule="nonzero"/><path fill="#000000" fill-opacity="0.0" clip-path="url(#id_0)" d="M410.37534 161.45007C410.37534 163.10692 409.03217 164.45007 407.37534 164.45007C405.71848 164.45007 404.37534 163.10692 404.37534 161.45007C404.37534 159.79321 405.71848 158.45007 407.37534 158.45007C409.03217 158.45007 410.37534 159.79321 410.37534 161.45007Z" fill-rule="nonzero"/><path fill="#000000" fill-opacity="0.0" clip-path="url(#id_0)" d="M415.37433 163.6948C415.37433 165.35165 414.0312 166.6948 412.37433 166.6948C410.71747 166.6948 409.37433 165.35165 409.37433 163.6948C409.37433 162.03793 410.71747 160.6948 412.37433 160.6948C414.0312 160.6948 415.37433 162.03793 415.37433 163.6948Z" fill-rule="nonzero"/><path fill="#000000" fill-opacity="0.0" clip-path="url(#id_0)" d="M420.37332 165.97346C420.37332 167.63031 419.03018 168.97346 417.37332 168.97346C415.71646 168.97346 414.37332 167.63031 414.37332 165.97346C414.37332 164.3166 415.71646 162.97346 417.37332 162.97346C419.03018 162.97346 420.37332 164.3166 420.37332 165.97346Z" fill-rule="nonzero"/><path fill="#000000" fill-opacity="0.0" clip-path="url(#id_0)" d="M425.3723 168.28607C425.3723 169.94293 424.02917 171.28607 422.3723 171.28607C420.71545 171.28607 419.3723 169.94293 419.3723 168.28607C419.3723 166.62923 420.71545 165.28607 422.3723 165.28607C424.02917 165.28607 425.3723 166.62923 425.3723 168.28607Z" fill-rule="nonzero"/><path fill="#000000" fill-opacity="0.0" clip-path="url(#id_0)" d="M430.3713 170.63264C430.3713 172.28949 429.02817 173.63264 427.3713 173.63264C425.71448 173.63264 424.3713 172.28949 424.3713 170.63264C424.3713 168.97578 425.71448 167.63264 427.3713 167.63264C429.02817 167.63264 430.3713 168.97578 430.3713 170.63264Z" fill-rule="nonzero"/><path fill="#000000" fill-opacity="0.0" clip-path="url(#id_0)" d="M435.37033 173.01315C435.37033 174.67001 434.0272 176.01315 432.37033 176.01315C430.71347 176.01315 429.37033 174.67001 429.37033 173.01315C429.37033 171.3563 430.71347 170.01315 432.37033 170.01315C434.0272 170.01315 435.37033 171.3563 435.37033 173.01315Z" fill-rule="nonzero"/><path fill="#000000" fill-opacity="0.0" clip-path="url(#id_0)" d="M440.36932 175.42708C440.36932 177.08394 439.02618 178.42708 437.36932 178.42708C435.71246 178.42708 434.36932 177.08394 434.36932 175.42708C434.36932 173.77022 435.71246 172.42708 437.36932 172.42708C439.02618 172.42708 440.36932 173.77022 440.36932 175.42708Z" fill-rule="nonzero"/><path fill="#000000" fill-opacity="0.0" clip-path="url(#id_0)" d="M445.36832 177.87549C445.36832 179.53233 444.02518 180.87549 442.36832 180.87549C440.71146 180.87549 439.36832 179.53233 439.36832 177.87549C439.36832 176.21863 440.71146 174.87549 442.36832 174.87549C444.02518 174.87549 445.36832 176.21863 445.36832 177.87549Z" fill-rule="nonzero"/><path fill="#000000" fill-opacity="0.0" clip-path="url(#id_0)" d="M450.3673 180.3573C450.3673 182.01416 449.02417 183.3573 447.3673 183.3573C445.71048 183.3573 444.3673 182.01416 444.3673 180.3573C444.3673 178.70045 445.71048 177.3573 447.3673 177.3573C449.02417 177.3573 450.3673 178.70045 450.3673 180.3573Z" fill-rule="nonzero"/><path fill="#000000" fill-opacity="0.0" clip-path="url(#id_0)" d="M455.36633 182.87306C455.36633 184.52992 454.02316 185.87306 452.36633 185.87306C450.70947 185.87306 449.36633 184.52992 449.36633 182.87306C449.36633 181.21622 450.70947 179.87306 452.36633 179.87306C454.02316 179.87306 455.36633 181.21622 455.36633 182.87306Z" fill-rule="nonzero"/><path fill="#000000" fill-opacity="0.0" clip-path="url(#id_0)" d="M460.36533 185.42278C460.36533 187.07964 459.0222 188.42278 457.36533 188.42278C455.70847 188.42278 454.36533 187.07964 454.36533 185.42278C454.36533 183.76593 455.70847 182.42278 457.36533 182.42278C459.0222 182.42278 460.36533 183.76593 460.36533 185.42278Z" fill-rule="nonzero"/><path fill="#000000" fill-opacity="0.0" clip-path="url(#id_0)" d="M465.36432 188.00644C465.36432 189.6633 464.02118 191.00644 462.36432 191.00644C460.70746 191.00644 459.36432 189.6633 459.36432 188.00644C459.36432 186.34958 460.70746 185.00644 462.36432 185.00644C464.02118 185.00644 465.36432 186.34958 465.36432 188.00644Z" fill-rule="nonzero"/><path fill="#000000" fill-opacity="0.0" clip-path="url(#id_0)" d="M470.3633 190.62352C470.3633 192.28036 469.02017 193.62352 467.3633 193.62352C465.70648 193.62352 464.3633 192.28036 464.3633 190.62352C464.3633 188.96666 465.70648 187.62352 467.3633 187.62352C469.02017 187.62352 470.3633 188.96666 470.3633 190.62352Z" fill-rule="nonzero"/><path fill="#000000" fill-opacity="0.0" clip-path="url(#id_0)" d="M475.36234 193.27454C475.36234 194.9314 474.01917 196.27454 472.36234 196.27454C470.70547 196.27454 469.36234 194.9314 469.36234 193.27454C469.36234 191.61769 470.70547 190.27454 472.36234 190.27454C474.01917 190.27454 475.36234 191.61769 475.36234 193.27454Z" fill-rule="nonzero"/><path fill="#000000" fill-opacity="0.0" clip-path="url(#id_0)" d="M480.36133 195.9595C480.36133 197.61636 479.0182 198.9595 477.36133 198.9595C475.70447 198.9595 474.36133 197.61636 474.36133 195.9595C474.36133 194.30266 475.70447 192.9595 477.36133 192.9595C479.0182 192.9595 480.36133 194.30266 480.36133 195.9595Z" fill-rule="nonzero"/><path fill="#000000" fill-opacity="0.0" clip-path="url(#id_0)" d="M485.36032 198.67842C485.36032 200.33528 484.01718 201.67842 482.36032 201.67842C480.70346 201.67842 479.36032 200.33528 479.36032 198.67842C479.36032 197.02158 480.70346 195.67842 482.36032 195.67842C484.01718 195.67842 485.36032 197.02158 485.36032 198.67842Z" fill-rule="nonzero"/><path fill="#000000" fill-opacity="0.0" clip-path="url(#id_0)" d="M490.3593 201.43129C490.3593 203.08813 489.01617 204.43129 487.3593 204.43129C485.70245 204.43129 484.3593 203.08813 484.3593 201.43129C484.3593 199.77443 485.70245 198.43129 487.3593 198.43129C489.01617 198.43129 490.3593 199.77443 490.3593 201.43129Z" fill-rule="nonzero"/><path fill="#000000" fill-opacity="0.0" clip-path="url(#id_0)" d="M495.3583 204.2181C495.3583 205.87495 494.01517 207.2181 492.3583 207.2181C490.70148 207.2181 489.3583 205.87495 489.3583 204.2181C489.3583 202.56125 490.70148 201.2181 492.3583 201.2181C494.01517 201.2181 495.3583 202.56125 495.3583 204.2181Z" fill-rule="nonzero"/><path fill="#000000" fill-opacity="0.0" clip-path="url(#id_0)" d="M500.35733 207.03831C500.35733 208.69518 499.0142 210.03831 497.35733 210.03831C495.70047 210.03831 494.35733 208.69518 494.35733 207.03831C494.35733 205.38147 495.70047 204.03831 497.35733 204.03831C499.0142 204.03831 500.35733 205.38147 500.35733 207.03831Z" fill-rule="nonzero"/><path fill="#000000" fill-opacity="0.0" clip-path="url(#id_0)" d="M505.35632 209.89249C505.35632 211.54935 504.01318 212.89249 502.35632 212.89249C500.69946 212.89249 499.35632 211.54935 499.35632 209.89249C499.35632 208.23564 500.69946 206.89249 502.35632 206.89249C504.01318 206.89249 505.35632 208.23564 505.35632 209.89249Z" fill-rule="nonzero"/><path fill="#000000" fill-opacity="0.0" clip-path="url(#id_0)" d="M510.35532 212.78061C510.35532 214.43747 509.01218 215.78061 507.35532 215.78061C505.69846 215.78061 504.35532 214.43747 504.35532 212.78061C504.35532 211.12376 505.69846 209.78061 507.35532 209.78061C509.01218 209.78061 510.35532 211.12376 510.35532 212.78061Z" fill-rule="nonzero"/><path fill="#000000" fill-opacity="0.0" clip-path="url(#id_0)" d="M515.3543 215.70215C515.3543 217.359 514.01117 218.70215 512.3543 218.70215C510.69748 218.70215 509.3543 217.359 509.3543 215.70215C509.3543 214.04529 510.69748 212.70215 512.3543 212.70215C514.01117 212.70215 515.3543 214.04529 515.3543 215.70215Z" fill-rule="nonzero"/><path fill="#000000" fill-opacity="0.0" clip-path="url(#id_0)" d="M520.35333 218.65816C520.35333 220.31502 519.0102 221.65816 517.35333 221.65816C515.6965 221.65816 514.35333 220.31502 514.35333 218.65816C514.35333 217.0013 515.6965 215.65816 517.35333 215.65816C519.0102 215.65816 520.35333 217.0013 520.35333 218.65816Z" fill-rule="nonzero"/><path fill="#000000" fill-opacity="0.0" clip-path="url(#id_0)" d="M525.3523 221.64758C525.3523 223.30444 524.00916 224.64758 522.3523 224.64758C520.6955 224.64758 519.3523 223.30444 519.3523 221.64758C519.3523 219.99074 520.6955 218.64758 522.3523 218.64758C524.00916 218.64758 525.3523 219.99074 525.3523 221.64758Z" fill-rule="nonzero"/><path fill="#000000" fill-opacity="0.0" clip-path="url(#id_0)" d="M530.3513 224.67043C530.3513 226.32729 529.0082 227.67043 527.3513 227.67043C525.69446 227.67043 524.3513 226.32729 524.3513 224.67043C524.3513 223.01358 525.69446 221.67043 527.3513 221.67043C529.0082 221.67043 530.3513 223.01358 530.3513 224.67043Z" fill-rule="nonzero"/><path fill="#000000" fill-opacity="0.0" clip-path="url(#id_0)" d="M535.35034 227.72775C535.35034 229.38461 534.0072 230.72775 532.35034 230.72775C530.6935 230.72775 529.35034 229.38461 529.35034 227.72775C529.35034 226.07089 530.6935 224.72775 532.35034 224.72775C534.0072 224.72775 535.35034 226.07089 535.35034 227.72775Z" fill-rule="nonzero"/><path fill="#000000" fill-opacity="0.0" clip-path="url(#id_0)" d="M540.3493 230.8185C540.3493 232.47534 539.00616 233.8185 537.3493 233.8185C535.69244 233.8185 534.3493 232.47534 534.3493 230.8185C534.3493 229.16164 535.69244 227.8185 537.3493 227.8185C539.00616 227.8185 540.3493 229.16164 540.3493 230.8185Z" fill-rule="nonzero"/><path fill="#000000" fill-opacity="0.0" clip-path="url(#id_0)" d="M545.3483 233.94318C545.3483 235.60004 544.0052 236.94318 542.3483 236.94318C540.69147 236.94318 539.3483 235.60004 539.3483 233.94318C539.3483 232.28632 540.69147 230.94318 542.3483 230.94318C544.0052 230.94318 545.3483 232.28632 545.3483 233.94318Z" fill-rule="nonzero"/><path fill="#000000" fill-opacity="0.0" clip-path="url(#id_0)" d="M550.34735 237.1018C550.34735 238.75867 549.00415 240.1018 547.34735 240.1018C545.6905 240.1018 544.34735 238.75867 544.34735 237.1018C544.34735 235.44495 545.6905 234.1018 547.34735 234.1018C549.00415 234.1018 550.34735 235.44495 550.34735 237.1018Z" fill-rule="nonzero"/><path fill="#000000" fill-opacity="0.0" clip-path="url(#id_0)" d="M555.3463 240.29439C555.3463 241.95123 554.0032 243.29439 552.3463 243.29439C550.68945 243.29439 549.3463 241.95123 549.3463 240.29439C549.3463 238.63753 550.68945 237.29439 552.3463 237.29439C554.0032 237.29439 555.3463 238.63753 555.3463 240.29439Z" fill-rule="nonzero"/><path fill="#000000" fill-opacity="0.0" clip-path="url(#id_0)" d="M560.34534 243.52039C560.34534 245.17723 559.0022 246.52039 557.34534 246.52039C555.6885 246.52039 554.34534 245.17723 554.34534 243.52039C554.34534 241.86353 555.6885 240.52039 557.34534 240.52039C559.0022 240.52039 560.34534 241.86353 560.34534 243.52039Z" fill-rule="nonzero"/><path fill="#000000" fill-opacity="0.0" clip-path="url(#id_0)" d="M565.3443 246.78032C565.3443 248.43718 564.00116 249.78032 562.3443 249.78032C560.68744 249.78032 559.3443 248.43718 559.3443 246.78032C559.3443 245.12346 560.68744 243.78032 562.3443 243.78032C564.00116 243.78032 565.3443 245.12346 565.3443 246.78032Z" fill-rule="nonzero"/><path fill="#000000" fill-opacity="0.0" clip-path="url(#id_0)" d="M570.3433 250.07368C570.3433 251.73053 569.0002 253.07368 567.3433 253.07368C565.68646 253.07368 564.3433 251.73053 564.3433 250.07368C564.3433 248.41682 565.68646 247.07368 567.3433 247.07368C569.0002 247.07368 570.3433 248.41682 570.3433 250.07368Z" fill-rule="nonzero"/><path fill="#000000" fill-opacity="0.0" clip-path="url(#id_0)" d="M575.34235 253.4015C575.34235 255.05836 573.9992 256.40152 572.34235 256.40152C570.6855 256.40152 569.34235 255.05836 569.34235 253.4015C569.34235 251.74466 570.6855 250.4015 572.34235 250.4015C573.9992 250.4015 575.34235 251.74466 575.34235 253.4015Z" fill-rule="nonzero"/><path fill="#000000" fill-opacity="0.0" clip-path="url(#id_0)" d="M580.3413 256.76276C580.3413 258.41962 578.99817 259.76276 577.3413 259.76276C575.68445 259.76276 574.3413 258.41962 574.3413 256.76276C574.3413 255.10591 575.68445 253.76276 577.3413 253.76276C578.99817 253.76276 580.3413 255.10591 580.3413 256.76276Z" fill-rule="nonzero"/><path fill="#000000" fill-opacity="0.0" clip-path="url(#id_0)" d="M584.45 259.54797C584.45 261.20483 583.1069 262.54797 581.45 262.54797C579.79315 262.54797 578.45 261.20483 578.45 259.54797C578.45 257.8911 579.79315 256.54797 581.45 256.54797C583.1069 256.54797 584.45 257.8911 584.45 259.54797Z" fill-rule="nonzero"/><path fill="#000000" fill-opacity="0.0" clip-path="url(#id_0)" d="M84.55 88.28333C84.55 89.940186 83.206856 91.28333 81.55 91.28333C79.89314 91.28333 78.55 89.940186 78.55 88.28333C78.55 86.62648 79.89314 85.28333 81.55 85.28333C83.206856 85.28333 84.55 86.62648 84.55 88.28333Z" fill-rule="nonzero"/><path fill="#000000" fill-opacity="0.0" clip-path="url(#id_0)" d="M85.0499 88.28367C85.0499 89.94052 83.70676 91.28367 82.0499 91.28367C80.39304 91.28367 79.0499 89.94052 79.0499 88.28367C79.0499 86.626816 80.39304 85.28367 82.0499 85.28367C83.70676 85.28367 85.0499 86.626816 85.0499 88.28367Z" fill-rule="nonzero"/><path fill="#000000" fill-opacity="0.0" clip-path="url(#id_0)" d="M85.5498 88.28434C85.5498 89.94119 84.20666 91.28434 82.5498 91.28434C80.892944 91.28434 79.5498 89.94119 79.5498 88.28434C79.5498 86.62749 80.892944 85.28434 82.5498 85.28434C84.20666 85.28434 85.5498 86.62749 85.5498 88.28434Z" fill-rule="nonzero"/><path fill="#000000" fill-opacity="0.0" clip-path="url(#id_0)" d="M86.29965 88.286095C86.29965 89.94295 84.956505 91.286095 83.29965 91.286095C81.6428 91.286095 80.29965 89.94295 80.29965 88.286095C80.29965 86.62924 81.6428 85.286095 83.29965 85.286095C84.956505 85.286095 86.29965 86.62924 86.29965 88.286095Z" fill-rule="nonzero"/><path fill="#000000" fill-opacity="0.0" clip-path="url(#id_0)" d="M87.42442 88.29043C87.42442 89.94728 86.081276 91.29043 84.42442 91.29043C82.76757 91.29043 81.42442 89.94728 81.42442 88.29043C81.42442 86.633575 82.76757 85.29043 84.42442 85.29043C86.081276 85.29043 87.42442 86.633575 87.42442 88.29043Z" fill-rule="nonzero"/><path fill="#000000" fill-opacity="0.0" clip-path="url(#id_0)" d="M89.11159 88.30074C89.11159 89.957596 87.76844 91.30074 86.11159 91.30074C84.454735 91.30074 83.11159 89.957596 83.11159 88.30074C83.11159 86.64388 84.454735 85.30074 86.11159 85.30074C87.76844 85.30074 89.11159 86.64388 89.11159 88.30074Z" fill-rule="nonzero"/><path fill="#000000" fill-opacity="0.0" clip-path="url(#id_0)" d="M91.642334 88.32479C91.642334 89.98164 90.29919 91.32479 88.642334 91.32479C86.98547 91.32479 85.642334 89.98164 85.642334 88.32479C85.642334 86.66794 86.98547 85.32479 88.642334 85.32479C90.29919 85.32479 91.642334 86.66794 91.642334 88.32479Z" fill-rule="nonzero"/><path fill="#000000" fill-opacity="0.0" clip-path="url(#id_0)" d="M95.43847 88.38017C95.43847 90.037025 94.09533 91.38017 92.43847 91.38017C90.78162 91.38017 89.43847 90.037025 89.43847 88.38017C89.43847 86.72332 90.78162 85.38017 92.43847 85.38017C94.09533 85.38017 95.43847 86.72332 95.43847 88.38017Z" fill-rule="nonzero"/><path fill="#000000" fill-opacity="0.0" clip-path="url(#id_0)" d="M100.43742 88.486595C100.43742 90.14345 99.09428 91.486595 97.43742 91.486595C95.78057 91.486595 94.43742 90.14345 94.43742 88.486595C94.43742 86.82974 95.78057 85.486595 97.43742 85.486595C99.09428 85.486595 100.43742 86.82974 100.43742 88.486595Z" fill-rule="nonzero"/><path fill="#000000" fill-opacity="0.0" clip-path="url(#id_0)" d="M105.43647 88.626495C105.43647 90.28335 104.09332 91.626495 102.43647 91.626495C100.77962 91.626495 99.43647 90.28335 99.43647 88.626495C99.43647 86.96964 100.77962 85.626495 102.43647 85.626495C104.09332 85.626495 105.43647 86.96964 105.43647 88.626495Z" fill-rule="nonzero"/><path fill="#000000" fill-opacity="0.0" clip-path="url(#id_0)" d="M110.435425 88.79988C110.435425 90.45674 109.09228 91.79988 107.435425 91.79988C105.778564 91.79988 104.435425 90.45674 104.435425 88.79988C104.435425 87.14303 105.778564 85.79988 107.435425 85.79988C109.09228 85.79988 110.435425 87.14303 110.435425 88.79988Z" fill-rule="nonzero"/><path fill="#000000" fill-opacity="0.0" clip-path="url(#id_0)" d="M115.434425 89.00676C115.434425 90.66361 114.09128 92.00676 112.434425 92.00676C110.777565 92.00676 109.434425 90.66361 109.434425 89.00676C109.434425 87.34991 110.777565 86.00676 112.434425 86.00676C114.09128 86.00676 115.434425 87.34991 115.434425 89.00676Z" fill-rule="nonzero"/><path fill="#000000" fill-opacity="0.0" clip-path="url(#id_0)" d="M120.43342 89.24711C120.43342 90.90397 119.09028 92.24711 117.43342 92.24711C115.776566 92.24711 114.43342 90.90397 114.43342 89.24711C114.43342 87.590256 115.776566 86.24711 117.43342 86.24711C119.09028 86.24711 120.43342 87.590256 120.43342 89.24711Z" fill-rule="nonzero"/><path fill="#000000" fill-opacity="0.0" clip-path="url(#id_0)" d="M125.43247 89.52095C125.43247 91.1778 124.089325 92.52095 122.43247 92.52095C120.77562 92.52095 119.43247 91.1778 119.43247 89.52095C119.43247 87.8641 120.77562 86.52095 122.43247 86.52095C124.089325 86.52095 125.43247 87.8641 125.43247 89.52095Z" fill-rule="nonzero"/><path fill="#000000" fill-opacity="0.0" clip-path="url(#id_0)" d="M130.43147 89.82827C130.43147 91.48513 129.08833 92.82827 127.43147 92.82827C125.77462 92.82827 124.43147 91.48513 124.43147 89.82827C124.43147 88.17142 125.77462 86.82827 127.43147 86.82827C129.08833 86.82827 130.43147 88.17142 130.43147 89.82827Z" fill-rule="nonzero"/><path fill="#000000" fill-opacity="0.0" clip-path="url(#id_0)" d="M135.43033 90.16908C135.43033 91.825935 134.08717 93.16908 132.43033 93.16908C130.77347 93.16908 129.43033 91.825935 129.43033 90.16908C129.43033 88.51223 130.77347 87.16908 132.43033 87.16908C134.08717 87.16908 135.43033 88.51223 135.43033 90.16908Z" fill-rule="nonzero"/><path fill="#000000" fill-opacity="0.0" clip-path="url(#id_0)" d="M140.42932 90.54337C140.42932 92.200226 139.08618 93.54337 137.42932 93.54337C135.77246 93.54337 134.42932 92.200226 134.42932 90.54337C134.42932 88.88651 135.77246 87.54337 137.42932 87.54337C139.08618 87.54337 140.42932 88.88651 140.42932 90.54337Z" fill-rule="nonzero"/><path fill="#000000" fill-opacity="0.0" clip-path="url(#id_0)" d="M145.42833 90.95114C145.42833 92.607994 144.08517 93.95114 142.42833 93.95114C140.77147 93.95114 139.42833 92.607994 139.42833 90.95114C139.42833 89.29428 140.77147 87.95114 142.42833 87.95114C144.08517 87.95114 145.42833 89.29428 145.42833 90.95114Z" fill-rule="nonzero"/><path fill="#000000" fill-opacity="0.0" clip-path="url(#id_0)" d="M150.42732 91.392395C150.42732 93.04925 149.08418 94.392395 147.42732 94.392395C145.77046 94.392395 144.42732 93.04925 144.42732 91.392395C144.42732 89.735535 145.77046 88.392395 147.42732 88.392395C149.08418 88.392395 150.42732 89.735535 150.42732 91.392395Z" fill-rule="nonzero"/><path fill="#000000" fill-opacity="0.0" clip-path="url(#id_0)" d="M155.42632 91.867134C155.42632 93.52399 154.08318 94.867134 152.42632 94.867134C150.76947 94.867134 149.42632 93.52399 149.42632 91.867134C149.42632 90.21027 150.76947 88.867134 152.42632 88.867134C154.08318 88.867134 155.42632 90.21027 155.42632 91.867134Z" fill-rule="nonzero"/><path fill="#000000" fill-opacity="0.0" clip-path="url(#id_0)" d="M160.42532 92.37534C160.42532 94.032196 159.08217 95.37534 157.42532 95.37534C155.76846 95.37534 154.42532 94.032196 154.42532 92.37534C154.42532 90.71849 155.76846 89.37534 157.42532 89.37534C159.08217 89.37534 160.42532 90.71849 160.42532 92.37534Z" fill-rule="nonzero"/><path fill="#000000" fill-opacity="0.0" clip-path="url(#id_0)" d="M165.42432 92.917046C165.42432 94.5739 164.08118 95.917046 162.42432 95.917046C160.76747 95.917046 159.42432 94.5739 159.42432 92.917046C159.42432 91.260185 160.76747 89.917046 162.42432 89.917046C164.08118 89.917046 165.42432 91.260185 165.42432 92.917046Z" fill-rule="nonzero"/><path fill="#000000" fill-opacity="0.0" clip-path="url(#id_0)" d="M170.42332 93.49222C170.42332 95.14908 169.08017 96.49222 167.42332 96.49222C165.76646 96.49222 164.42332 95.14908 164.42332 93.49222C164.42332 91.835365 165.76646 90.49222 167.42332 90.49222C169.08017 90.49222 170.42332 91.835365 170.42332 93.49222Z" fill-rule="nonzero"/><path fill="#000000" fill-opacity="0.0" clip-path="url(#id_0)" d="M175.42232 94.10089C175.42232 95.757744 174.07918 97.10089 172.42232 97.10089C170.76547 97.10089 169.42232 95.757744 169.42232 94.10089C169.42232 92.44404 170.76547 91.10089 172.42232 91.10089C174.07918 91.10089 175.42232 92.44404 175.42232 94.10089Z" fill-rule="nonzero"/><path fill="#000000" d="M322.59375 348.5125L322.75 349.4344Q322.29688 349.52814 321.95312 349.52814Q321.375 349.52814 321.0625 349.35626Q320.75 349.16876 320.60938 348.8719Q320.48438 348.575 320.48438 347.6219L320.48438 344.04376L319.71875 344.04376L319.71875 343.23126L320.48438 343.23126L320.48438 341.6844L321.53125 341.0594L321.53125 343.23126L322.59375 343.23126L322.59375 344.04376L321.53125 344.04376L321.53125 347.6844Q321.53125 348.1375 321.57812 348.2625Q321.64062 348.3875 321.76562 348.46564Q321.89062 348.54376 322.125 348.54376Q322.3125 348.54376 322.59375 348.5125ZM323.29688 342.075L323.29688 340.85626L324.35938 340.85626L324.35938 342.075L323.29688 342.075ZM323.29688 349.45L323.29688 343.23126L324.35938 343.23126L324.35938 349.45L323.29688 349.45ZM326.29688 349.45L326.29688 343.23126L327.23438 343.23126L327.23438 344.10626Q327.53125 343.6375 328.01562 343.3719Q328.5 343.09064 329.125 343.09064Q329.8125 343.09064 330.25 343.3719Q330.70312 343.65314 330.875 344.16876Q331.625 343.09064 332.79688 343.09064Q333.73438 343.09064 334.21875 343.60626Q334.71875 344.10626 334.71875 345.1844L334.71875 349.45L333.67188 349.45L333.67188 345.52814Q333.67188 344.90314 333.5625 344.6219Q333.46875 344.34064 333.20312 344.16876Q332.9375 343.9969 332.5625 343.9969Q331.90625 343.9969 331.46875 344.4344Q331.04688 344.8719 331.04688 345.84064L331.04688 349.45L329.98438 349.45L329.98438 345.40314Q329.98438 344.7 329.71875 344.35626Q329.46875 343.9969 328.89062 343.9969Q328.4375 343.9969 328.0625 344.23126Q327.6875 344.46564 327.51562 344.91876Q327.34375 345.3719 327.34375 346.21564L327.34375 349.45L326.29688 349.45ZM341.54688 347.45L342.64062 347.575Q342.39062 348.52814 341.6875 349.0594Q340.98438 349.59064 339.90625 349.59064Q338.54688 349.59064 337.73438 348.7469Q336.9375 347.90314 336.9375 346.3875Q336.9375 344.825 337.75 343.96564Q338.5625 343.09064 339.84375 343.09064Q341.09375 343.09064 341.875 343.9344Q342.67188 344.77814 342.67188 346.325Q342.67188 346.41876 342.67188 346.60626L338.03125 346.60626Q338.09375 347.6375 338.60938 348.1844Q339.125 348.71564 339.90625 348.71564Q340.48438 348.71564 340.89062 348.41876Q341.3125 348.10626 341.54688 347.45ZM338.09375 345.7469L341.5625 345.7469Q341.5 344.95 341.17188 344.5594Q340.65625 343.95 339.85938 343.95Q339.125 343.95 338.625 344.4344Q338.14062 344.91876 338.09375 345.7469Z" fill-rule="nonzero"/><path fill="#000000" d="M26.784388 227.8198L26.690638 226.7573Q27.346888 226.67917 27.753138 226.39792Q28.159388 226.11667 28.425013 225.53854Q28.675013 224.9448 28.675013 224.21042Q28.675013 223.5698 28.487513 223.0698Q28.284388 222.5698 27.956263 222.33542Q27.612513 222.08542 27.221888 222.08542Q26.815638 222.08542 26.518763 222.3198Q26.206263 222.55417 26.003138 223.08542Q25.862513 223.4448 25.581263 224.6323Q25.300013 225.80417 25.050013 226.27292Q24.721888 226.89792 24.253138 227.1948Q23.768763 227.49167 23.175013 227.49167Q22.534388 227.49167 21.971888 227.1323Q21.393763 226.7573 21.112513 226.05417Q20.815638 225.33542 20.815638 224.47604Q20.815638 223.52292 21.128138 222.78854Q21.425013 222.05417 22.034388 221.66354Q22.628138 221.27292 23.378138 221.24167L23.456263 222.33542Q22.643763 222.42917 22.237513 222.9448Q21.815638 223.4448 21.815638 224.42917Q21.815638 225.46042 22.190638 225.92917Q22.565638 226.39792 23.096888 226.39792Q23.565638 226.39792 23.862513 226.0698Q24.159388 225.74167 24.471888 224.36667Q24.784388 222.97604 25.018763 222.46042Q25.378138 221.71042 25.909388 221.35104Q26.425013 220.99167 27.128138 220.99167Q27.815638 220.99167 28.425013 221.3823Q29.018763 221.77292 29.362513 222.5073Q29.690638 223.24167 29.690638 224.16354Q29.690638 225.33542 29.362513 226.1323Q29.018763 226.91354 28.331263 227.36667Q27.643763 227.80417 26.784388 227.8198ZM29.550013 215.89792L29.550013 216.9448L22.831263 216.9448Q23.190638 217.33542 23.565638 217.96042Q23.925013 218.5698 24.096888 219.05417L23.081263 219.05417Q22.659388 218.17917 22.081263 217.52292Q21.487513 216.85104 20.925013 216.5698L20.925013 215.89792L29.550013 215.89792ZM29.550013 208.89792L29.550013 209.9448L22.831263 209.9448Q23.190638 210.33542 23.565638 210.96042Q23.925013 211.5698 24.096888 212.05417L23.081263 212.05417Q22.659388 211.17917 22.081263 210.52292Q21.487513 209.85104 20.925013 209.5698L20.925013 208.89792L29.550013 208.89792ZM31.940638 202.55417L20.956263 202.55417L20.956263 200.22604L21.831263 200.22604L21.831263 201.49167L31.065638 201.49167L31.065638 200.22604L31.940638 200.22604L31.940638 202.55417ZM29.550013 199.47604L20.956263 199.47604L20.956263 197.7573L27.034388 195.72604Q27.893763 195.4448 28.315638 195.3198Q27.846888 195.17917 26.940638 194.86667L20.956263 192.80417L20.956263 191.27292L29.550013 191.27292L29.550013 192.36667L22.362513 192.36667L29.550013 194.86667L29.550013 195.89792L22.237513 198.3823L29.550013 198.3823L29.550013 199.47604ZM29.550013 190.4448L20.956263 190.4448L20.956263 187.1948Q20.956263 186.35104 21.034388 185.89792Q21.143763 185.2573 21.440638 184.83542Q21.737513 184.39792 22.268763 184.14792Q22.800013 183.8823 23.440638 183.8823Q24.534388 183.8823 25.300013 184.58542Q26.050013 185.27292 26.050013 187.10104L26.050013 189.30417L29.550013 189.30417L29.550013 190.4448ZM25.050013 189.30417L25.050013 187.08542Q25.050013 185.97604 24.643763 185.52292Q24.221888 185.05417 23.471888 185.05417Q22.940638 185.05417 22.565638 185.33542Q22.175013 185.60104 22.050013 186.03854Q21.971888 186.33542 21.971888 187.10104L21.971888 189.30417L25.050013 189.30417ZM28.784388 178.5073Q29.284388 179.10104 29.487513 179.64792Q29.690638 180.17917 29.690638 180.80417Q29.690638 181.83542 29.190638 182.3823Q28.690638 182.92917 27.909388 182.92917Q27.456263 182.92917 27.081263 182.72604Q26.690638 182.52292 26.471888 182.17917Q26.237513 181.83542 26.128138 181.41354Q26.034388 181.11667 25.956263 180.47604Q25.815638 179.21042 25.596888 178.60104Q25.378138 178.60104 25.331263 178.60104Q24.675013 178.60104 24.409388 178.89792Q24.065638 179.30417 24.065638 180.10104Q24.065638 180.83542 24.331263 181.1948Q24.581263 181.55417 25.237513 181.72604L25.096888 182.7573Q24.440638 182.61667 24.034388 182.28854Q23.628138 181.96042 23.409388 181.35104Q23.190638 180.74167 23.190638 179.9448Q23.190638 179.14792 23.378138 178.64792Q23.565638 178.14792 23.846888 177.91354Q24.128138 177.67917 24.565638 177.58542Q24.831263 177.53854 25.534388 177.53854L26.940638 177.53854Q28.409388 177.53854 28.800013 177.47604Q29.190638 177.39792 29.550013 177.1948L29.550013 178.30417Q29.221888 178.46042 28.784388 178.5073ZM26.425013 178.60104Q26.659388 179.17917 26.831263 180.3198Q26.925013 180.97604 27.050013 181.24167Q27.159388 181.5073 27.378138 181.66354Q27.596888 181.80417 27.878138 181.80417Q28.300013 181.80417 28.581263 181.49167Q28.862513 181.16354 28.862513 180.55417Q28.862513 179.9448 28.596888 179.47604Q28.331263 178.99167 27.862513 178.77292Q27.503138 178.60104 26.815638 178.60104L26.425013 178.60104ZM31.940638 173.80417L31.940638 176.1323L31.065638 176.1323L31.065638 174.86667L21.831263 174.86667L21.831263 176.1323L20.956263 176.1323L20.956263 173.80417L31.940638 173.80417Z" fill-rule="nonzero"/><path fill="#000000" d="M50.925 301.8719L50.925 300.8094L54.175 300.8094L54.175 301.8719L50.925 301.8719ZM58.425 304.45L58.425 302.3875L54.70625 302.3875L54.70625 301.41876L58.628124 295.85626L59.4875 295.85626L59.4875 301.41876L60.64375 301.41876L60.64375 302.3875L59.4875 302.3875L59.4875 304.45L58.425 304.45ZM58.425 301.41876L58.425 297.5594L55.7375 301.41876L58.425 301.41876ZM62.05 300.21564Q62.05 298.6844 62.3625 297.7625Q62.675 296.825 63.284374 296.325Q63.909374 295.825 64.84688 295.825Q65.53438 295.825 66.05 296.10626Q66.58125 296.3875 66.925 296.91876Q67.26875 297.4344 67.45625 298.1844Q67.64375 298.9344 67.64375 300.21564Q67.64375 301.73126 67.33125 302.65314Q67.03438 303.575 66.40938 304.09064Q65.8 304.59064 64.84688 304.59064Q63.6125 304.59064 62.89375 303.7Q62.05 302.6375 62.05 300.21564ZM63.128124 300.21564Q63.128124 302.325 63.628124 303.02814Q64.12813 303.73126 64.84688 303.73126Q65.58125 303.73126 66.06563 303.02814Q66.56563 302.325 66.56563 300.21564Q66.56563 298.09064 66.06563 297.40314Q65.58125 296.7 64.83125 296.7Q64.1125 296.7 63.675 297.3094Q63.128124 298.09064 63.128124 300.21564ZM69.05 300.21564Q69.05 298.6844 69.3625 297.7625Q69.675 296.825 70.28438 296.325Q70.90938 295.825 71.84688 295.825Q72.53438 295.825 73.05 296.10626Q73.58125 296.3875 73.925 296.91876Q74.26875 297.4344 74.45625 298.1844Q74.64375 298.9344 74.64375 300.21564Q74.64375 301.73126 74.33125 302.65314Q74.03438 303.575 73.40938 304.09064Q72.8 304.59064 71.84688 304.59064Q70.6125 304.59064 69.89375 303.7Q69.05 302.6375 69.05 300.21564ZM70.12813 300.21564Q70.12813 302.325 70.62813 303.02814Q71.12813 303.73126 71.84688 303.73126Q72.58125 303.73126 73.06563 303.02814Q73.56563 302.325 73.56563 300.21564Q73.56563 298.09064 73.06563 297.40314Q72.58125 296.7 71.83125 296.7Q71.1125 296.7 70.675 297.3094Q70.12813 298.09064 70.12813 300.21564Z" fill-rule="nonzero"/><path fill="#000000" d="M50.925 248.83022L50.925 247.76772L54.175 247.76772L54.175 248.83022L50.925 248.83022ZM55.05 249.14272L56.1125 249.00209Q56.284374 249.89272 56.721874 250.29897Q57.159374 250.68959 57.784374 250.68959Q58.534374 250.68959 59.05 250.17397Q59.565624 249.65834 59.565624 248.89272Q59.565624 248.17397 59.08125 247.70522Q58.6125 247.22084 57.878124 247.22084Q57.58125 247.22084 57.128124 247.34584L57.253124 246.40834Q57.3625 246.42397 57.425 246.42397Q58.096874 246.42397 58.628124 246.08022Q59.175 245.72084 59.175 244.98647Q59.175 244.40834 58.784374 244.03334Q58.39375 243.64272 57.76875 243.64272Q57.159374 243.64272 56.7375 244.03334Q56.33125 244.42397 56.221874 245.18959L55.159374 245.00209Q55.346874 243.95522 56.034374 243.37709Q56.721874 242.78334 57.7375 242.78334Q58.440624 242.78334 59.034374 243.09584Q59.628124 243.39272 59.940624 243.90834Q60.253124 244.42397 60.253124 245.01772Q60.253124 245.56459 59.95625 246.03334Q59.659374 246.48647 59.08125 246.75209Q59.83125 246.92397 60.253124 247.48647Q60.675 248.03334 60.675 248.87709Q60.675 250.00209 59.846874 250.78334Q59.034374 251.56459 57.784374 251.56459Q56.659374 251.56459 55.909374 250.89272Q55.159374 250.20522 55.05 249.14272ZM62.05 247.17397Q62.05 245.64272 62.3625 244.72084Q62.675 243.78334 63.284374 243.28334Q63.909374 242.78334 64.84688 242.78334Q65.53438 242.78334 66.05 243.06459Q66.58125 243.34584 66.925 243.87709Q67.26875 244.39272 67.45625 245.14272Q67.64375 245.89272 67.64375 247.17397Q67.64375 248.68959 67.33125 249.61147Q67.03438 250.53334 66.40938 251.04897Q65.8 251.54897 64.84688 251.54897Q63.6125 251.54897 62.89375 250.65834Q62.05 249.59584 62.05 247.17397ZM63.128124 247.17397Q63.128124 249.28334 63.628124 249.98647Q64.12813 250.68959 64.84688 250.68959Q65.58125 250.68959 66.06563 249.98647Q66.56563 249.28334 66.56563 247.17397Q66.56563 245.04897 66.06563 244.36147Q65.58125 243.65834 64.83125 243.65834Q64.1125 243.65834 63.675 244.26772Q63.128124 245.04897 63.128124 247.17397ZM69.05 247.17397Q69.05 245.64272 69.3625 244.72084Q69.675 243.78334 70.28438 243.28334Q70.90938 242.78334 71.84688 242.78334Q72.53438 242.78334 73.05 243.06459Q73.58125 243.34584 73.925 243.87709Q74.26875 244.39272 74.45625 245.14272Q74.64375 245.89272 74.64375 247.17397Q74.64375 248.68959 74.33125 249.61147Q74.03438 250.53334 73.40938 251.04897Q72.8 251.54897 71.84688 251.54897Q70.6125 251.54897 69.89375 250.65834Q69.05 249.59584 69.05 247.17397ZM70.12813 247.17397Q70.12813 249.28334 70.62813 249.98647Q71.12813 250.68959 71.84688 250.68959Q72.58125 250.68959 73.06563 249.98647Q73.56563 249.28334 73.56563 247.17397Q73.56563 245.04897 73.06563 244.36147Q72.58125 243.65834 71.83125 243.65834Q71.1125 243.65834 70.675 244.26772Q70.12813 245.04897 70.12813 247.17397Z" fill-rule="nonzero"/><path fill="#000000" d="M50.925 195.78854L50.925 194.72604L54.175 194.72604L54.175 195.78854L50.925 195.78854ZM60.596874 197.35104L60.596874 198.36667L54.909374 198.36667Q54.909374 197.99167 55.034374 197.6323Q55.253124 197.05417 55.721874 196.49167Q56.20625 195.92917 57.1125 195.1948Q58.51875 194.03854 59.003124 193.36667Q59.503124 192.6948 59.503124 192.10104Q59.503124 191.47604 59.05 191.05417Q58.596874 190.61667 57.878124 190.61667Q57.1125 190.61667 56.659374 191.0698Q56.20625 191.52292 56.190624 192.33542L55.1125 192.22604Q55.221874 191.0073 55.940624 190.3823Q56.675 189.74167 57.909374 189.74167Q59.14375 189.74167 59.8625 190.42917Q60.58125 191.11667 60.58125 192.1323Q60.58125 192.64792 60.3625 193.14792Q60.159374 193.6323 59.659374 194.1948Q59.175 194.74167 58.05 195.6948Q57.096874 196.49167 56.815624 196.78854Q56.55 197.0698 56.378124 197.35104L60.596874 197.35104ZM62.05 194.1323Q62.05 192.60104 62.3625 191.67917Q62.675 190.74167 63.284374 190.24167Q63.909374 189.74167 64.84688 189.74167Q65.53438 189.74167 66.05 190.02292Q66.58125 190.30417 66.925 190.83542Q67.26875 191.35104 67.45625 192.10104Q67.64375 192.85104 67.64375 194.1323Q67.64375 195.64792 67.33125 196.5698Q67.03438 197.49167 66.40938 198.0073Q65.8 198.5073 64.84688 198.5073Q63.6125 198.5073 62.89375 197.61667Q62.05 196.55417 62.05 194.1323ZM63.128124 194.1323Q63.128124 196.24167 63.628124 196.9448Q64.12813 197.64792 64.84688 197.64792Q65.58125 197.64792 66.06563 196.9448Q66.56563 196.24167 66.56563 194.1323Q66.56563 192.0073 66.06563 191.3198Q65.58125 190.61667 64.83125 190.61667Q64.1125 190.61667 63.675 191.22604Q63.128124 192.0073 63.128124 194.1323ZM69.05 194.1323Q69.05 192.60104 69.3625 191.67917Q69.675 190.74167 70.28438 190.24167Q70.90938 189.74167 71.84688 189.74167Q72.53438 189.74167 73.05 190.02292Q73.58125 190.30417 73.925 190.83542Q74.26875 191.35104 74.45625 192.10104Q74.64375 192.85104 74.64375 194.1323Q74.64375 195.64792 74.33125 196.5698Q74.03438 197.49167 73.40938 198.0073Q72.8 198.5073 71.84688 198.5073Q70.6125 198.5073 69.89375 197.61667Q69.05 196.55417 69.05 194.1323ZM70.12813 194.1323Q70.12813 196.24167 70.62813 196.9448Q71.12813 197.64792 71.84688 197.64792Q72.58125 197.64792 73.06563 196.9448Q73.56563 196.24167 73.56563 194.1323Q73.56563 192.0073 73.06563 191.3198Q72.58125 190.61667 71.83125 190.61667Q71.1125 190.61667 70.675 191.22604Q70.12813 192.0073 70.12813 194.1323Z" fill-rule="nonzero"/><path fill="#000000" d="M50.925 142.74687L50.925 141.68437L54.175 141.68437L54.175 142.74687L50.925 142.74687ZM59.01875 145.325L57.971874 145.325L57.971874 138.60625Q57.58125 138.96562 56.95625 139.34062Q56.346874 139.7 55.8625 139.87187L55.8625 138.85625Q56.7375 138.43437 57.39375 137.85625Q58.065624 137.2625 58.346874 136.7L59.01875 136.7L59.01875 145.325ZM62.05 141.09062Q62.05 139.55937 62.3625 138.6375Q62.675 137.7 63.284374 137.2Q63.909374 136.7 64.84688 136.7Q65.53438 136.7 66.05 136.98125Q66.58125 137.2625 66.925 137.79375Q67.26875 138.30937 67.45625 139.05937Q67.64375 139.80937 67.64375 141.09062Q67.64375 142.60625 67.33125 143.52812Q67.03438 144.45 66.40938 144.96562Q65.8 145.46562 64.84688 145.46562Q63.6125 145.46562 62.89375 144.575Q62.05 143.5125 62.05 141.09062ZM63.128124 141.09062Q63.128124 143.2 63.628124 143.90312Q64.12813 144.60625 64.84688 144.60625Q65.58125 144.60625 66.06563 143.90312Q66.56563 143.2 66.56563 141.09062Q66.56563 138.96562 66.06563 138.27812Q65.58125 137.575 64.83125 137.575Q64.1125 137.575 63.675 138.18437Q63.128124 138.96562 63.128124 141.09062ZM69.05 141.09062Q69.05 139.55937 69.3625 138.6375Q69.675 137.7 70.28438 137.2Q70.90938 136.7 71.84688 136.7Q72.53438 136.7 73.05 136.98125Q73.58125 137.2625 73.925 137.79375Q74.26875 138.30937 74.45625 139.05937Q74.64375 139.80937 74.64375 141.09062Q74.64375 142.60625 74.33125 143.52812Q74.03438 144.45 73.40938 144.96562Q72.8 145.46562 71.84688 145.46562Q70.6125 145.46562 69.89375 144.575Q69.05 143.5125 69.05 141.09062ZM70.12813 141.09062Q70.12813 143.2 70.62813 143.90312Q71.12813 144.60625 71.84688 144.60625Q72.58125 144.60625 73.06563 143.90312Q73.56563 143.2 73.56563 141.09062Q73.56563 138.96562 73.06563 138.27812Q72.58125 137.575 71.83125 137.575Q71.1125 137.575 70.675 138.18437Q70.12813 138.96562 70.12813 141.09062Z" fill-rule="nonzero"/><path fill="#000000" d="M69.05 88.04896Q69.05 86.51771 69.3625 85.59583Q69.675 84.65833 70.28438 84.15833Q70.90938 83.65833 71.84688 83.65833Q72.53438 83.65833 73.05 83.93958Q73.58125 84.22083 73.925 84.75208Q74.26875 85.26771 74.45625 86.01771Q74.64375 86.76771 74.64375 88.04896Q74.64375 89.56458 74.33125 90.48646Q74.03438 91.40833 73.40938 91.92396Q72.8 92.42396 71.84688 92.42396Q70.6125 92.42396 69.89375 91.53333Q69.05 90.47083 69.05 88.04896ZM70.12813 88.04896Q70.12813 90.15833 70.62813 90.86146Q71.12813 91.56458 71.84688 91.56458Q72.58125 91.56458 73.06563 90.86146Q73.56563 90.15833 73.56563 88.04896Q73.56563 85.92396 73.06563 85.23646Q72.58125 84.53333 71.83125 84.53333Q71.1125 84.53333 70.675 85.14271Q70.12813 85.92396 70.12813 88.04896Z" fill-rule="nonzero"/><path fill="#000000" d="M70.05 313.21564Q70.05 311.6844 70.3625 310.7625Q70.675 309.825 71.28438 309.325Q71.90938 308.825 72.84688 308.825Q73.53438 308.825 74.05 309.10626Q74.58125 309.3875 74.925 309.91876Q75.26875 310.4344 75.45625 311.1844Q75.64375 311.9344 75.64375 313.21564Q75.64375 314.73126 75.33125 315.65314Q75.03438 316.575 74.40938 317.09064Q73.8 317.59064 72.84688 317.59064Q71.6125 317.59064 70.89375 316.7Q70.05 315.6375 70.05 313.21564ZM71.12813 313.21564Q71.12813 315.325 71.62813 316.02814Q72.12813 316.73126 72.84688 316.73126Q73.58125 316.73126 74.06563 316.02814Q74.56563 315.325 74.56563 313.21564Q74.56563 311.09064 74.06563 310.40314Q73.58125 309.7 72.83125 309.7Q72.1125 309.7 71.675 310.3094Q71.12813 311.09064 71.12813 313.21564ZM77.64375 317.45L77.64375 316.2469L78.84688 316.2469L78.84688 317.45L77.64375 317.45ZM80.05 313.21564Q80.05 311.6844 80.3625 310.7625Q80.675 309.825 81.28438 309.325Q81.90938 308.825 82.84688 308.825Q83.53438 308.825 84.05 309.10626Q84.58125 309.3875 84.925 309.91876Q85.26875 310.4344 85.45625 311.1844Q85.64375 311.9344 85.64375 313.21564Q85.64375 314.73126 85.33125 315.65314Q85.03438 316.575 84.40938 317.09064Q83.8 317.59064 82.84688 317.59064Q81.6125 317.59064 80.89375 316.7Q80.05 315.6375 80.05 313.21564ZM81.12813 313.21564Q81.12813 315.325 81.62813 316.02814Q82.12813 316.73126 82.84688 316.73126Q83.58125 316.73126 84.06563 316.02814Q84.56563 315.325 84.56563 313.21564Q84.56563 311.09064 84.06563 310.40314Q83.58125 309.7 82.83125 309.7Q82.1125 309.7 81.675 310.3094Q81.12813 311.09064 81.12813 313.21564ZM87.05 313.21564Q87.05 311.6844 87.3625 310.7625Q87.675 309.825 88.28438 309.325Q88.90938 308.825 89.84688 308.825Q90.53438 308.825 91.05 309.10626Q91.58125 309.3875 91.925 309.91876Q92.26875 310.4344 92.45625 311.1844Q92.64375 311.9344 92.64375 313.21564Q92.64375 314.73126 92.33125 315.65314Q92.03438 316.575 91.40938 317.09064Q90.8 317.59064 89.84688 317.59064Q88.6125 317.59064 87.89375 316.7Q87.05 315.6375 87.05 313.21564ZM88.12813 313.21564Q88.12813 315.325 88.62813 316.02814Q89.12813 316.73126 89.84688 316.73126Q90.58125 316.73126 91.06563 316.02814Q91.56563 315.325 91.56563 313.21564Q91.56563 311.09064 91.06563 310.40314Q90.58125 309.7 89.83125 309.7Q89.1125 309.7 88.675 310.3094Q88.12813 311.09064 88.12813 313.21564Z" fill-rule="nonzero"/><path fill="#000000" d="M195.025 313.21564Q195.025 311.6844 195.3375 310.7625Q195.65 309.825 196.25937 309.325Q196.88437 308.825 197.82187 308.825Q198.50937 308.825 199.025 309.10626Q199.55624 309.3875 199.9 309.91876Q200.24374 310.4344 200.43124 311.1844Q200.61874 311.9344 200.61874 313.21564Q200.61874 314.73126 200.30624 315.65314Q200.00937 316.575 199.38437 317.09064Q198.775 317.59064 197.82187 317.59064Q196.5875 317.59064 195.86874 316.7Q195.025 315.6375 195.025 313.21564ZM196.10312 313.21564Q196.10312 315.325 196.60312 316.02814Q197.10312 316.73126 197.82187 316.73126Q198.55624 316.73126 199.04062 316.02814Q199.54062 315.325 199.54062 313.21564Q199.54062 311.09064 199.04062 310.40314Q198.55624 309.7 197.80624 309.7Q197.0875 309.7 196.65 310.3094Q196.10312 311.09064 196.10312 313.21564ZM202.61874 317.45L202.61874 316.2469L203.82187 316.2469L203.82187 317.45L202.61874 317.45ZM210.57187 316.4344L210.57187 317.45L204.88437 317.45Q204.88437 317.075 205.00937 316.71564Q205.22812 316.1375 205.69687 315.575Q206.18124 315.0125 207.0875 314.27814Q208.49374 313.1219 208.97812 312.45Q209.47812 311.77814 209.47812 311.1844Q209.47812 310.5594 209.025 310.1375Q208.57187 309.7 207.85312 309.7Q207.0875 309.7 206.63437 310.15314Q206.18124 310.60626 206.16562 311.41876L205.0875 311.3094Q205.19687 310.09064 205.91562 309.46564Q206.65 308.825 207.88437 308.825Q209.11874 308.825 209.8375 309.5125Q210.55624 310.2 210.55624 311.21564Q210.55624 311.73126 210.3375 312.23126Q210.13437 312.71564 209.63437 313.27814Q209.15 313.825 208.025 314.77814Q207.07187 315.575 206.79062 315.8719Q206.525 316.15314 206.35312 316.4344L210.57187 316.4344ZM212.025 315.2L213.13437 315.10626Q213.25937 315.91876 213.69687 316.325Q214.15 316.73126 214.79062 316.73126Q215.54062 316.73126 216.07187 316.15314Q216.60312 315.575 216.60312 314.6375Q216.60312 313.73126 216.0875 313.21564Q215.5875 312.6844 214.75937 312.6844Q214.25937 312.6844 213.8375 312.91876Q213.43124 313.15314 213.19687 313.5125L212.2125 313.3875L213.04062 308.98126L217.32187 308.98126L217.32187 309.98126L213.88437 309.98126L213.43124 312.29376Q214.19687 311.7469 215.04062 311.7469Q216.16562 311.7469 216.93124 312.52814Q217.7125 313.3094 217.7125 314.54376Q217.7125 315.7 217.04062 316.5594Q216.2125 317.59064 214.79062 317.59064Q213.61874 317.59064 212.86874 316.9344Q212.13437 316.27814 212.025 315.2Z" fill-rule="nonzero"/><path fill="#000000" d="M320.0 313.21564Q320.0 311.6844 320.3125 310.7625Q320.625 309.825 321.23438 309.325Q321.85938 308.825 322.79688 308.825Q323.48438 308.825 324.0 309.10626Q324.53125 309.3875 324.875 309.91876Q325.21875 310.4344 325.40625 311.1844Q325.59375 311.9344 325.59375 313.21564Q325.59375 314.73126 325.28125 315.65314Q324.98438 316.575 324.35938 317.09064Q323.75 317.59064 322.79688 317.59064Q321.5625 317.59064 320.84375 316.7Q320.0 315.6375 320.0 313.21564ZM321.07812 313.21564Q321.07812 315.325 321.57812 316.02814Q322.07812 316.73126 322.79688 316.73126Q323.53125 316.73126 324.01562 316.02814Q324.51562 315.325 324.51562 313.21564Q324.51562 311.09064 324.01562 310.40314Q323.53125 309.7 322.78125 309.7Q322.0625 309.7 321.625 310.3094Q321.07812 311.09064 321.07812 313.21564ZM327.59375 317.45L327.59375 316.2469L328.79688 316.2469L328.79688 317.45L327.59375 317.45ZM330.0 315.2L331.10938 315.10626Q331.23438 315.91876 331.67188 316.325Q332.125 316.73126 332.76562 316.73126Q333.51562 316.73126 334.04688 316.15314Q334.57812 315.575 334.57812 314.6375Q334.57812 313.73126 334.0625 313.21564Q333.5625 312.6844 332.73438 312.6844Q332.23438 312.6844 331.8125 312.91876Q331.40625 313.15314 331.17188 313.5125L330.1875 313.3875L331.01562 308.98126L335.29688 308.98126L335.29688 309.98126L331.85938 309.98126L331.40625 312.29376Q332.17188 311.7469 333.01562 311.7469Q334.14062 311.7469 334.90625 312.52814Q335.6875 313.3094 335.6875 314.54376Q335.6875 315.7 335.01562 316.5594Q334.1875 317.59064 332.76562 317.59064Q331.59375 317.59064 330.84375 316.9344Q330.10938 316.27814 330.0 315.2ZM337.0 313.21564Q337.0 311.6844 337.3125 310.7625Q337.625 309.825 338.23438 309.325Q338.85938 308.825 339.79688 308.825Q340.48438 308.825 341.0 309.10626Q341.53125 309.3875 341.875 309.91876Q342.21875 310.4344 342.40625 311.1844Q342.59375 311.9344 342.59375 313.21564Q342.59375 314.73126 342.28125 315.65314Q341.98438 316.575 341.35938 317.09064Q340.75 317.59064 339.79688 317.59064Q338.5625 317.59064 337.84375 316.7Q337.0 315.6375 337.0 313.21564ZM338.07812 313.21564Q338.07812 315.325 338.57812 316.02814Q339.07812 316.73126 339.79688 316.73126Q340.53125 316.73126 341.01562 316.02814Q341.51562 315.325 341.51562 313.21564Q341.51562 311.09064 341.01562 310.40314Q340.53125 309.7 339.78125 309.7Q339.0625 309.7 338.625 310.3094Q338.07812 311.09064 338.07812 313.21564Z" fill-rule="nonzero"/><path fill="#000000" d="M444.975 313.21564Q444.975 311.6844 445.2875 310.7625Q445.6 309.825 446.20938 309.325Q446.83438 308.825 447.77188 308.825Q448.45938 308.825 448.975 309.10626Q449.50626 309.3875 449.85 309.91876Q450.19376 310.4344 450.38126 311.1844Q450.56876 311.9344 450.56876 313.21564Q450.56876 314.73126 450.25626 315.65314Q449.95938 316.575 449.33438 317.09064Q448.725 317.59064 447.77188 317.59064Q446.5375 317.59064 445.81876 316.7Q444.975 315.6375 444.975 313.21564ZM446.05313 313.21564Q446.05313 315.325 446.55313 316.02814Q447.05313 316.73126 447.77188 316.73126Q448.50626 316.73126 448.99063 316.02814Q449.49063 315.325 449.49063 313.21564Q449.49063 311.09064 448.99063 310.40314Q448.50626 309.7 447.75626 309.7Q447.0375 309.7 446.6 310.3094Q446.05313 311.09064 446.05313 313.21564ZM452.56876 317.45L452.56876 316.2469L453.77188 316.2469L453.77188 317.45L452.56876 317.45ZM455.0375 309.98126L455.0375 308.96564L460.6 308.96564L460.6 309.79376Q459.7875 310.66876 458.975 312.1219Q458.17813 313.5594 457.74063 315.09064Q457.4125 316.16876 457.33438 317.45L456.24063 317.45Q456.25626 316.4344 456.63126 314.9969Q457.02188 313.5594 457.725 312.23126Q458.44376 310.90314 459.25626 309.98126L455.0375 309.98126ZM461.975 315.2L463.08438 315.10626Q463.20938 315.91876 463.64688 316.325Q464.1 316.73126 464.74063 316.73126Q465.49063 316.73126 466.02188 316.15314Q466.55313 315.575 466.55313 314.6375Q466.55313 313.73126 466.0375 313.21564Q465.5375 312.6844 464.70938 312.6844Q464.20938 312.6844 463.7875 312.91876Q463.38126 313.15314 463.14688 313.5125L462.1625 313.3875L462.99063 308.98126L467.27188 308.98126L467.27188 309.98126L463.83438 309.98126L463.38126 312.29376Q464.14688 311.7469 464.99063 311.7469Q466.11563 311.7469 466.88126 312.52814Q467.6625 313.3094 467.6625 314.54376Q467.6625 315.7 466.99063 316.5594Q466.1625 317.59064 464.74063 317.59064Q463.56876 317.59064 462.81876 316.9344Q462.08438 316.27814 461.975 315.2Z" fill-rule="nonzero"/><path fill="#000000" d="M573.91876 317.45L572.8719 317.45L572.8719 310.73126Q572.48126 311.09064 571.85626 311.46564Q571.2469 311.825 570.7625 311.9969L570.7625 310.98126Q571.6375 310.5594 572.29376 309.98126Q572.96564 309.3875 573.2469 308.825L573.91876 308.825L573.91876 317.45ZM577.54376 317.45L577.54376 316.2469L578.7469 316.2469L578.7469 317.45L577.54376 317.45ZM579.95 313.21564Q579.95 311.6844 580.2625 310.7625Q580.575 309.825 581.1844 309.325Q581.8094 308.825 582.7469 308.825Q583.4344 308.825 583.95 309.10626Q584.48126 309.3875 584.825 309.91876Q585.16876 310.4344 585.35626 311.1844Q585.54376 311.9344 585.54376 313.21564Q585.54376 314.73126 585.23126 315.65314Q584.9344 316.575 584.3094 317.09064Q583.7 317.59064 582.7469 317.59064Q581.5125 317.59064 580.79376 316.7Q579.95 315.6375 579.95 313.21564ZM581.02814 313.21564Q581.02814 315.325 581.52814 316.02814Q582.02814 316.73126 582.7469 316.73126Q583.48126 316.73126 583.96564 316.02814Q584.46564 315.325 584.46564 313.21564Q584.46564 311.09064 583.96564 310.40314Q583.48126 309.7 582.73126 309.7Q582.0125 309.7 581.575 310.3094Q581.02814 311.09064 581.02814 313.21564ZM586.95 313.21564Q586.95 311.6844 587.2625 310.7625Q587.575 309.825 588.1844 309.325Q588.8094 308.825 589.7469 308.825Q590.4344 308.825 590.95 309.10626Q591.48126 309.3875 591.825 309.91876Q592.16876 310.4344 592.35626 311.1844Q592.54376 311.9344 592.54376 313.21564Q592.54376 314.73126 592.23126 315.65314Q591.9344 316.575 591.3094 317.09064Q590.7 317.59064 589.7469 317.59064Q588.5125 317.59064 587.79376 316.7Q586.95 315.6375 586.95 313.21564ZM588.02814 313.21564Q588.02814 315.325 588.52814 316.02814Q589.02814 316.73126 589.7469 316.73126Q590.48126 316.73126 590.96564 316.02814Q591.46564 315.325 591.46564 313.21564Q591.46564 311.09064 590.96564 310.40314Q590.48126 309.7 589.73126 309.7Q589.0125 309.7 588.575 310.3094Q588.02814 311.09064 588.02814 313.21564Z" fill-rule="nonzero"/><path fill="#4285f4" d="M220.0 56.916668C220.0 56.364384 220.44771 55.916668 221.0 55.916668L231.0 55.916668C231.55229 55.916668 232.0 56.364384 232.0 56.916668L232.0 66.916664C232.0 67.46895 231.55229 67.916664 231.0 67.916664L221.0 67.916664C220.44771 67.916664 220.0 67.46895 220.0 66.916664Z" fill-rule="nonzero"/><path fill="#1a1a1a" d="M240.79688 68.30729L240.79688 59.697914L241.75 59.697914L241.75 60.49479Q242.09375 60.02604 242.51562 59.791664Q242.95312 59.55729 243.5625 59.55729Q244.35938 59.55729 244.96875 59.96354Q245.57812 60.36979 245.875 61.11979Q246.1875 61.86979 246.1875 62.760414Q246.1875 63.71354 245.84375 64.479164Q245.51562 65.24479 244.85938 65.65104Q244.20312 66.05729 243.48438 66.05729Q242.95312 66.05729 242.53125 65.83854Q242.10938 65.604164 241.84375 65.27604L241.84375 68.30729L240.79688 68.30729ZM241.75 62.83854Q241.75 64.041664 242.23438 64.61979Q242.71875 65.18229 243.40625 65.18229Q244.10938 65.18229 244.60938 64.58854Q245.10938 63.99479 245.10938 62.74479Q245.10938 61.55729 244.625 60.979164Q244.14062 60.385414 243.45312 60.385414Q242.78125 60.385414 242.26562 61.010414Q241.75 61.635414 241.75 62.83854ZM247.40625 62.80729Q247.40625 61.072914 248.35938 60.24479Q249.15625 59.55729 250.3125 59.55729Q251.59375 59.55729 252.40625 60.40104Q253.23438 61.229164 253.23438 62.71354Q253.23438 63.916664 252.875 64.604164Q252.51562 65.291664 251.8125 65.68229Q251.125 66.05729 250.3125 66.05729Q249.01562 66.05729 248.20312 65.229164Q247.40625 64.385414 247.40625 62.80729ZM248.48438 62.80729Q248.48438 63.99479 249.0 64.58854Q249.53125 65.18229 250.3125 65.18229Q251.10938 65.18229 251.625 64.58854Q252.14062 63.99479 252.14062 62.77604Q252.14062 61.61979 251.60938 61.02604Q251.09375 60.43229 250.3125 60.43229Q249.53125 60.43229 249.0 61.02604Q248.48438 61.604164 248.48438 62.80729ZM254.375 64.05729L255.40625 63.90104Q255.5 64.52604 255.89062 64.854164Q256.29688 65.18229 257.03125 65.18229Q257.75 65.18229 258.09375 64.90104Q258.45312 64.604164 258.45312 64.197914Q258.45312 63.83854 258.14062 63.635414Q257.92188 63.49479 257.0625 63.27604Q255.90625 62.979164 255.45312 62.77604Q255.01562 62.55729 254.78125 62.18229Q254.54688 61.80729 254.54688 61.33854Q254.54688 60.93229 254.73438 60.572914Q254.92188 60.21354 255.25 59.979164Q255.5 59.80729 255.92188 59.68229Q256.34375 59.55729 256.84375 59.55729Q257.5625 59.55729 258.10938 59.77604Q258.67188 59.979164 258.9375 60.33854Q259.20312 60.697914 259.29688 61.291664L258.26562 61.43229Q258.20312 60.96354 257.85938 60.697914Q257.53125 60.416664 256.90625 60.416664Q256.1875 60.416664 255.875 60.666664Q255.5625 60.90104 255.5625 61.229164Q255.5625 61.43229 255.6875 61.58854Q255.82812 61.760414 256.09375 61.86979Q256.25 61.93229 257.03125 62.135414Q258.15625 62.447914 258.59375 62.635414Q259.03125 62.822914 259.28125 63.18229Q259.53125 63.541664 259.53125 64.08854Q259.53125 64.61979 259.21875 65.08854Q258.92188 65.541664 258.34375 65.80729Q257.76562 66.05729 257.03125 66.05729Q255.8125 66.05729 255.17188 65.55729Q254.54688 65.041664 254.375 64.05729ZM264.09375 64.979164L264.25 65.90104Q263.79688 65.99479 263.45312 65.99479Q262.875 65.99479 262.5625 65.822914Q262.25 65.635414 262.10938 65.33854Q261.98438 65.041664 261.98438 64.08854L261.98438 60.510414L261.21875 60.510414L261.21875 59.697914L261.98438 59.697914L261.98438 58.15104L263.03125 57.52604L263.03125 59.697914L264.09375 59.697914L264.09375 60.510414L263.03125 60.510414L263.03125 64.15104Q263.03125 64.604164 263.07812 64.729164Q263.14062 64.854164 263.26562 64.93229Q263.39062 65.010414 263.625 65.010414Q263.8125 65.010414 264.09375 64.979164ZM264.375 63.33854L264.375 62.27604L267.625 62.27604L267.625 63.33854L264.375 63.33854ZM268.79688 68.30729L268.79688 59.697914L269.75 59.697914L269.75 60.49479Q270.09375 60.02604 270.51562 59.791664Q270.95312 59.55729 271.5625 59.55729Q272.35938 59.55729 272.96875 59.96354Q273.57812 60.36979 273.875 61.11979Q274.1875 61.86979 274.1875 62.760414Q274.1875 63.71354 273.84375 64.479164Q273.51562 65.24479 272.85938 65.65104Q272.20312 66.05729 271.48438 66.05729Q270.95312 66.05729 270.53125 65.83854Q270.10938 65.604164 269.84375 65.27604L269.84375 68.30729L268.79688 68.30729ZM269.75 62.83854Q269.75 64.041664 270.23438 64.61979Q270.71875 65.18229 271.40625 65.18229Q272.10938 65.18229 272.60938 64.58854Q273.10938 63.99479 273.10938 62.74479Q273.10938 61.55729 272.625 60.979164Q272.14062 60.385414 271.45312 60.385414Q270.78125 60.385414 270.26562 61.010414Q269.75 61.635414 269.75 62.83854ZM280.04688 63.916664L281.14062 64.041664Q280.89062 64.99479 280.1875 65.52604Q279.48438 66.05729 278.40625 66.05729Q277.04688 66.05729 276.23438 65.21354Q275.4375 64.36979 275.4375 62.854164Q275.4375 61.291664 276.25 60.43229Q277.0625 59.55729 278.34375 59.55729Q279.59375 59.55729 280.375 60.40104Q281.17188 61.24479 281.17188 62.791664Q281.17188 62.885414 281.17188 63.072914L276.53125 63.072914Q276.59375 64.104164 277.10938 64.65104Q277.625 65.18229 278.40625 65.18229Q278.98438 65.18229 279.39062 64.885414Q279.8125 64.572914 280.04688 63.916664ZM276.59375 62.21354L280.0625 62.21354Q280.0 61.416664 279.67188 61.02604Q279.15625 60.416664 278.35938 60.416664Q277.625 60.416664 277.125 60.90104Q276.64062 61.385414 276.59375 62.21354ZM286.85938 65.15104Q286.26562 65.65104 285.71875 65.854164Q285.1875 66.05729 284.5625 66.05729Q283.53125 66.05729 282.98438 65.55729Q282.4375 65.05729 282.4375 64.27604Q282.4375 63.822914 282.64062 63.447914Q282.84375 63.05729 283.1875 62.83854Q283.53125 62.604164 283.95312 62.49479Q284.25 62.40104 284.89062 62.322914Q286.15625 62.18229 286.76562 61.96354Q286.76562 61.74479 286.76562 61.697914Q286.76562 61.041664 286.46875 60.77604Q286.0625 60.43229 285.26562 60.43229Q284.53125 60.43229 284.17188 60.697914Q283.8125 60.947914 283.64062 61.604164L282.60938 61.46354Q282.75 60.80729 283.07812 60.40104Q283.40625 59.99479 284.01562 59.77604Q284.625 59.55729 285.42188 59.55729Q286.21875 59.55729 286.71875 59.74479Q287.21875 59.93229 287.45312 60.21354Q287.6875 60.49479 287.78125 60.93229Q287.82812 61.197914 287.82812 61.90104L287.82812 63.30729Q287.82812 64.77604 287.89062 65.166664Q287.96875 65.55729 288.17188 65.916664L287.0625 65.916664Q286.90625 65.58854 286.85938 65.15104ZM286.76562 62.791664Q286.1875 63.02604 285.04688 63.197914Q284.39062 63.291664 284.125 63.416664Q283.85938 63.52604 283.70312 63.74479Q283.5625 63.96354 283.5625 64.24479Q283.5625 64.666664 283.875 64.947914Q284.20312 65.229164 284.8125 65.229164Q285.42188 65.229164 285.89062 64.96354Q286.375 64.697914 286.59375 64.229164Q286.76562 63.86979 286.76562 63.18229L286.76562 62.791664ZM289.79688 65.916664L289.79688 57.322914L290.85938 57.322914L290.85938 62.229164L293.34375 59.697914L294.71875 59.697914L292.32812 61.99479L294.95312 65.916664L293.65625 65.916664L291.59375 62.729164L290.85938 63.447914L290.85938 65.916664L289.79688 65.916664Z" fill-rule="nonzero"/><path fill="#ea4335" d="M311.0 56.916668C311.0 56.364384 311.44772 55.916668 312.0 55.916668L322.0 55.916668C322.55228 55.916668 323.0 56.364384 323.0 56.916668L323.0 66.916664C323.0 67.46895 322.55228 67.916664 322.0 67.916664L312.0 67.916664C311.44772 67.916664 311.0 67.46895 311.0 66.916664Z" fill-rule="nonzero"/><path fill="#1a1a1a" d="M331.79688 68.30729L331.79688 59.697914L332.75 59.697914L332.75 60.49479Q333.09375 60.02604 333.51562 59.791664Q333.95312 59.55729 334.5625 59.55729Q335.35938 59.55729 335.96875 59.96354Q336.57812 60.36979 336.875 61.11979Q337.1875 61.86979 337.1875 62.760414Q337.1875 63.71354 336.84375 64.479164Q336.51562 65.24479 335.85938 65.65104Q335.20312 66.05729 334.48438 66.05729Q333.95312 66.05729 333.53125 65.83854Q333.10938 65.604164 332.84375 65.27604L332.84375 68.30729L331.79688 68.30729ZM332.75 62.83854Q332.75 64.041664 333.23438 64.61979Q333.71875 65.18229 334.40625 65.18229Q335.10938 65.18229 335.60938 64.58854Q336.10938 63.99479 336.10938 62.74479Q336.10938 61.55729 335.625 60.979164Q335.14062 60.385414 334.45312 60.385414Q333.78125 60.385414 333.26562 61.010414Q332.75 61.635414 332.75 62.83854ZM338.78125 65.916664L338.78125 59.697914L339.73438 59.697914L339.73438 60.635414Q340.09375 59.979164 340.39062 59.77604Q340.70312 59.55729 341.07812 59.55729Q341.60938 59.55729 342.15625 59.885414L341.79688 60.86979Q341.40625 60.635414 341.03125 60.635414Q340.67188 60.635414 340.39062 60.854164Q340.125 61.05729 340.01562 61.43229Q339.82812 61.99479 339.82812 62.65104L339.82812 65.916664L338.78125 65.916664ZM347.04688 63.916664L348.14062 64.041664Q347.89062 64.99479 347.1875 65.52604Q346.48438 66.05729 345.40625 66.05729Q344.04688 66.05729 343.23438 65.21354Q342.4375 64.36979 342.4375 62.854164Q342.4375 61.291664 343.25 60.43229Q344.0625 59.55729 345.34375 59.55729Q346.59375 59.55729 347.375 60.40104Q348.17188 61.24479 348.17188 62.791664Q348.17188 62.885414 348.17188 63.072914L343.53125 63.072914Q343.59375 64.104164 344.10938 64.65104Q344.625 65.18229 345.40625 65.18229Q345.98438 65.18229 346.39062 64.885414Q346.8125 64.572914 347.04688 63.916664ZM343.59375 62.21354L347.0625 62.21354Q347.0 61.416664 346.67188 61.02604Q346.15625 60.416664 345.35938 60.416664Q344.625 60.416664 344.125 60.90104Q343.64062 61.385414 343.59375 62.21354ZM349.375 63.33854L349.375 62.27604L352.625 62.27604L352.625 63.33854L349.375 63.33854ZM353.79688 68.30729L353.79688 59.697914L354.75 59.697914L354.75 60.49479Q355.09375 60.02604 355.51562 59.791664Q355.95312 59.55729 356.5625 59.55729Q357.35938 59.55729 357.96875 59.96354Q358.57812 60.36979 358.875 61.11979Q359.1875 61.86979 359.1875 62.760414Q359.1875 63.71354 358.84375 64.479164Q358.51562 65.24479 357.85938 65.65104Q357.20312 66.05729 356.48438 66.05729Q355.95312 66.05729 355.53125 65.83854Q355.10938 65.604164 354.84375 65.27604L354.84375 68.30729L353.79688 68.30729ZM354.75 62.83854Q354.75 64.041664 355.23438 64.61979Q355.71875 65.18229 356.40625 65.18229Q357.10938 65.18229 357.60938 64.58854Q358.10938 63.99479 358.10938 62.74479Q358.10938 61.55729 357.625 60.979164Q357.14062 60.385414 356.45312 60.385414Q355.78125 60.385414 355.26562 61.010414Q354.75 61.635414 354.75 62.83854ZM365.04688 63.916664L366.14062 64.041664Q365.89062 64.99479 365.1875 65.52604Q364.48438 66.05729 363.40625 66.05729Q362.04688 66.05729 361.23438 65.21354Q360.4375 64.36979 360.4375 62.854164Q360.4375 61.291664 361.25 60.43229Q362.0625 59.55729 363.34375 59.55729Q364.59375 59.55729 365.375 60.40104Q366.17188 61.24479 366.17188 62.791664Q366.17188 62.885414 366.17188 63.072914L361.53125 63.072914Q361.59375 64.104164 362.10938 64.65104Q362.625 65.18229 363.40625 65.18229Q363.98438 65.18229 364.39062 64.885414Q364.8125 64.572914 365.04688 63.916664ZM361.59375 62.21354L365.0625 62.21354Q365.0 61.416664 364.67188 61.02604Q364.15625 60.416664 363.35938 60.416664Q362.625 60.416664 362.125 60.90104Q361.64062 61.385414 361.59375 62.21354ZM371.85938 65.15104Q371.26562 65.65104 370.71875 65.854164Q370.1875 66.05729 369.5625 66.05729Q368.53125 66.05729 367.98438 65.55729Q367.4375 65.05729 367.4375 64.27604Q367.4375 63.822914 367.64062 63.447914Q367.84375 63.05729 368.1875 62.83854Q368.53125 62.604164 368.95312 62.49479Q369.25 62.40104 369.89062 62.322914Q371.15625 62.18229 371.76562 61.96354Q371.76562 61.74479 371.76562 61.697914Q371.76562 61.041664 371.46875 60.77604Q371.0625 60.43229 370.26562 60.43229Q369.53125 60.43229 369.17188 60.697914Q368.8125 60.947914 368.64062 61.604164L367.60938 61.46354Q367.75 60.80729 368.07812 60.40104Q368.40625 59.99479 369.01562 59.77604Q369.625 59.55729 370.42188 59.55729Q371.21875 59.55729 371.71875 59.74479Q372.21875 59.93229 372.45312 60.21354Q372.6875 60.49479 372.78125 60.93229Q372.82812 61.197914 372.82812 61.90104L372.82812 63.30729Q372.82812 64.77604 372.89062 65.166664Q372.96875 65.55729 373.17188 65.916664L372.0625 65.916664Q371.90625 65.58854 371.85938 65.15104ZM371.76562 62.791664Q371.1875 63.02604 370.04688 63.197914Q369.39062 63.291664 369.125 63.416664Q368.85938 63.52604 368.70312 63.74479Q368.5625 63.96354 368.5625 64.24479Q368.5625 64.666664 368.875 64.947914Q369.20312 65.229164 369.8125 65.229164Q370.42188 65.229164 370.89062 64.96354Q371.375 64.697914 371.59375 64.229164Q371.76562 63.86979 371.76562 63.18229L371.76562 62.791664ZM374.79688 65.916664L374.79688 57.322914L375.85938 57.322914L375.85938 62.229164L378.34375 59.697914L379.71875 59.697914L377.32812 61.99479L379.95312 65.916664L378.65625 65.916664L376.59375 62.729164L375.85938 63.447914L375.85938 65.916664L374.79688 65.916664Z" fill-rule="nonzero"/><path fill="#000000" d="M246.21875 32.89375L249.03125 32.6125Q249.29688 34.034374 250.0625 34.70625Q250.84375 35.3625 252.15625 35.3625Q253.5625 35.3625 254.26562 34.76875Q254.96875 34.175 254.96875 33.39375Q254.96875 32.878124 254.67188 32.534374Q254.375 32.175 253.64062 31.909374Q253.125 31.721874 251.32812 31.284374Q249.0 30.70625 248.0625 29.8625Q246.73438 28.675 246.73438 26.9875Q246.73438 25.89375 247.35938 24.940624Q247.98438 23.9875 249.14062 23.4875Q250.3125 22.9875 251.96875 22.9875Q254.65625 22.9875 256.01562 24.175Q257.39062 25.346874 257.45312 27.33125L254.5625 27.45625Q254.375 26.346874 253.76562 25.8625Q253.15625 25.378124 251.9375 25.378124Q250.67188 25.378124 249.96875 25.89375Q249.5 26.2375 249.5 26.784374Q249.5 27.3 249.9375 27.659374Q250.48438 28.1125 252.59375 28.6125Q254.70312 29.1125 255.70312 29.64375Q256.71875 30.175 257.28125 31.096874Q257.85938 32.01875 257.85938 33.378124Q257.85938 34.6125 257.17188 35.690624Q256.5 36.753124 255.25 37.284374Q254.0 37.8 252.125 37.8Q249.42188 37.8 247.95312 36.55Q246.5 35.3 246.21875 32.89375ZM266.375 37.55L263.625 37.55L263.625 27.20625Q262.125 28.6125 260.07812 29.284374L260.07812 26.8Q261.15625 26.440624 262.40625 25.471874Q263.67188 24.4875 264.14062 23.175L266.375 23.175L266.375 37.55ZM277.375 37.55L274.625 37.55L274.625 27.20625Q273.125 28.6125 271.07812 29.284374L271.07812 26.8Q272.15625 26.440624 273.40625 25.471874Q274.67188 24.4875 275.14062 23.175L277.375 23.175L277.375 37.55ZM290.78125 37.55L286.60938 27.175L289.48438 27.175L291.4375 32.471874L292.01562 34.2375Q292.23438 33.565624 292.29688 33.346874Q292.42188 32.909374 292.57812 32.471874L294.5625 27.175L297.375 27.175L293.26562 37.55L290.78125 37.55ZM297.96875 34.596874L300.71875 34.175Q300.90625 34.971874 301.4375 35.39375Q301.96875 35.8 302.9375 35.8Q304.0 35.8 304.54688 35.409374Q304.90625 35.14375 304.90625 34.675Q304.90625 34.3625 304.70312 34.159374Q304.5 33.971874 303.79688 33.8Q300.46875 33.065624 299.57812 32.45625Q298.34375 31.628124 298.34375 30.128124Q298.34375 28.784374 299.40625 27.8625Q300.48438 26.940624 302.71875 26.940624Q304.84375 26.940624 305.875 27.64375Q306.92188 28.33125 307.3125 29.690624L304.71875 30.159374Q304.54688 29.565624 304.07812 29.2375Q303.625 28.909374 302.76562 28.909374Q301.6875 28.909374 301.21875 29.221874Q300.90625 29.440624 300.90625 29.76875Q300.90625 30.065624 301.17188 30.26875Q301.54688 30.55 303.73438 31.05Q305.92188 31.55 306.79688 32.26875Q307.65625 33.003124 307.65625 34.3Q307.65625 35.7375 306.46875 36.76875Q305.28125 37.784374 302.9375 37.784374Q300.82812 37.784374 299.57812 36.925Q298.34375 36.065624 297.96875 34.596874ZM320.6875 27.175L320.6875 29.3625L318.8125 29.3625L318.8125 33.55Q318.8125 34.815624 318.85938 35.034374Q318.92188 35.2375 319.10938 35.378124Q319.3125 35.503124 319.57812 35.503124Q319.95312 35.503124 320.6875 35.2375L320.92188 37.378124Q319.95312 37.784374 318.75 37.784374Q318.0 37.784374 317.40625 37.534374Q316.8125 37.284374 316.53125 36.89375Q316.26562 36.4875 316.15625 35.815624Q316.0625 35.346874 316.0625 33.89375L316.0625 29.3625L314.79688 29.3625L314.79688 27.175L316.0625 27.175L316.0625 25.1125L318.8125 23.51875L318.8125 27.175L320.6875 27.175ZM322.9375 25.76875L322.9375 23.2375L325.6875 23.2375L325.6875 25.76875L322.9375 25.76875ZM322.9375 37.55L322.9375 27.175L325.6875 27.175L325.6875 37.55L322.9375 37.55ZM327.73438 27.175L330.26562 27.175L330.26562 28.596874Q331.625 26.940624 333.5 26.940624Q334.48438 26.940624 335.21875 27.3625Q335.95312 27.76875 336.42188 28.596874Q337.10938 27.76875 337.89062 27.3625Q338.6875 26.940624 339.59375 26.940624Q340.73438 26.940624 341.51562 27.409374Q342.3125 27.878124 342.70312 28.76875Q342.98438 29.440624 342.98438 30.925L342.98438 37.55L340.23438 37.55L340.23438 31.628124Q340.23438 30.08125 339.95312 29.628124Q339.57812 29.05 338.78125 29.05Q338.20312 29.05 337.6875 29.409374Q337.1875 29.753124 336.96875 30.425Q336.75 31.096874 336.75 32.565624L336.75 37.55L334.0 37.55L334.0 31.8625Q334.0 30.346874 333.84375 29.909374Q333.70312 29.471874 333.39062 29.26875Q333.09375 29.05 332.5625 29.05Q331.9375 29.05 331.42188 29.39375Q330.92188 29.721874 330.6875 30.378124Q330.46875 31.01875 330.46875 32.503124L330.46875 37.55L327.73438 37.55L327.73438 27.175ZM350.9375 34.253124L353.67188 34.70625Q353.15625 36.20625 352.01562 37.003124Q350.875 37.784374 349.17188 37.784374Q346.45312 37.784374 345.15625 36.01875Q344.14062 34.596874 344.14062 32.440624Q344.14062 29.8625 345.48438 28.409374Q346.82812 26.940624 348.89062 26.940624Q351.20312 26.940624 352.53125 28.471874Q353.875 30.003124 353.82812 33.159374L346.95312 33.159374Q346.98438 34.378124 347.60938 35.065624Q348.25 35.7375 349.1875 35.7375Q349.84375 35.7375 350.28125 35.39375Q350.71875 35.034374 350.9375 34.253124ZM351.09375 31.471874Q351.0625 30.284374 350.46875 29.675Q349.89062 29.05 349.0625 29.05Q348.15625 29.05 347.57812 29.690624Q346.98438 30.346874 347.0 31.471874L351.09375 31.471874Z" fill-rule="nonzero"/></svg>