<svg version="1.1" viewBox="0.0 0.0 600.0 371.0" fill="none" stroke="none" stroke-linecap="square" stroke-miterlimit="10" width="600" height="371" xmlns:xlink="http://www.w3.org/1999/xlink" xmlns="http://www.w3.org/2000/svg"><path fill="#ffffff" d="M0 0L600.0 0L600.0 371.0L0 371.0L0 0Z" fill-rule="nonzero"/><path stroke="#333333" stroke-width="1.0" stroke-linecap="butt" d="M88.5 88.5L88.5 300.5" fill-rule="nonzero"/><path stroke="#cccccc" stroke-width="1.0" stroke-linecap="butt" d="M211.5 88.5L211.5 300.5" fill-rule="nonzero"/><path stroke="#cccccc" stroke-width="1.0" stroke-linecap="butt" d="M335.5 88.5L335.5 300.5" fill-rule="nonzero"/><path stroke="#cccccc" stroke-width="1.0" stroke-linecap="butt" d="M458.5 88.5L458.5 300.5" fill-rule="nonzero"/><path stroke="#cccccc" stroke-width="1.0" stroke-linecap="butt" d="M581.5 88.5L581.5 300.5" fill-rule="nonzero"/><path stroke="#cccccc" stroke-width="1.0" stroke-linecap="butt" d="M88.5 300.5L581.5 300.5" fill-rule="nonzero"/><path stroke="#cccccc" stroke-width="1.0" stroke-linecap="butt" d="M88.5 247.5L581.5 247.5" fill-rule="nonzero"/><path stroke="#cccccc" stroke-width="1.0" stroke-linecap="butt" d="M88.5 194.5L581.5 194.5" fill-rule="nonzero"/><path stroke="#cccccc" stroke-width="1.0" stroke-linecap="butt" d="M88.5 141.5L581.5 141.5" fill-rule="nonzero"/><path stroke="#333333" stroke-width="1.0" stroke-linecap="butt" d="M88.5 88.5L581.5 88.5" fill-rule="nonzero"/><clipPath id="id_0"><path d="M88.55 88.28333L581.45 88.28333L581.45 300.45L88.55 300.45L88.55 88.28333Z" clip-rule="nonzero"/></clipPath><path fill="#4285f4" fill-opacity="0.3019608" clip-path="url(#id_0)" d="M88.55 88.28333L89.0429 89.098076L89.5358 89.91287L90.27515 91.13515L91.38418 92.96878L93.047714 95.71969L95.54302 99.84705L99.286 106.04052L104.21495 114.200874L109.144005 122.366104L114.07295 130.53622L119.00195 138.71132L123.930954 146.8913L128.86 155.07616L133.789 163.266L138.71785 171.46083L143.64685 179.66055L148.57585 187.86525L153.50485 196.07462L158.43385 204.2897L163.36285 212.50903L168.29185 220.73367L173.22086 228.96362L178.14986 237.19781L183.07886 245.4373L188.00786 253.6821L192.93686 241.68832L197.86586 229.70728L202.79486 217.74532L207.72386 205.79927L212.65285 193.8702L217.58185 181.95767L222.51085 170.9826L227.43985 170.9826L232.36885 170.9826L237.29785 170.9826L242.22685 170.9826L247.15585 170.9826L252.08485 170.9826L257.01385 170.9826L261.94284 170.9826L266.87186 170.9826L271.80084 170.9826L276.72986 170.9826L281.65884 170.9826L286.58786 170.9826L291.51685 170.9826L296.44586 170.9826L301.37485 170.9826L306.30386 170.9826L311.23285 170.9826L316.16187 170.9826L321.09085 170.9826L326.01987 170.9826L330.94885 170.9826L335.87787 170.9826L340.80685 170.9826L345.73584 170.9826L350.66486 170.9826L355.59384 170.9826L360.52286 170.9826L365.45184 170.9826L370.38086 170.9826L375.30984 170.9826L380.23886 170.9826L385.16785 170.9826L390.09686 170.9826L395.02585 170.9826L399.95486 170.9826L404.88385 170.9826L409.81287 170.9826L414.74185 170.9826L419.67087 170.9826L424.59985 170.9826L429.52887 170.9826L434.45786 170.9826L439.38684 170.9826L444.31586 170.9826L449.24484 170.9826L454.17386 170.9826L459.10284 170.9826L464.03186 170.9826L468.96085 170.9826L473.88986 170.9826L478.81885 170.9826L483.74786 170.9826L488.67685 170.9826L493.60587 170.9826L498.53485 170.9826L503.46387 170.9826L508.39285 170.9826L513.32184 170.9826L518.25085 170.9826L523.1799 170.9826L528.1088 170.9826L533.03784 170.9826L537.96686 170.9826L542.8959 170.9826L547.8248 170.9826L552.75385 170.9826L557.68286 170.9826L562.6119 170.9826L567.54083 170.9826L572.46985 170.9826L577.39886 170.9826L581.45 170.9826L581.45 88.28333L577.39886 88.28333L572.46985 88.28333L567.54083 88.28333L562.6119 88.28333L557.68286 88.28333L552.75385 88.28333L547.8248 88.28333L542.8959 88.28333L537.96686 88.28333L533.03784 88.28333L528.1088 88.28333L523.1799 88.28333L518.25085 88.28333L513.32184 88.28333L508.39285 88.28333L503.46387 88.28333L498.53485 88.28333L493.60587 88.28333L488.67685 88.28333L483.74786 88.28333L478.81885 88.28333L473.88986 88.28333L468.96085 88.28333L464.03186 88.28333L459.10284 88.28333L454.17386 88.28333L449.24484 88.28333L444.31586 88.28333L439.38684 88.28333L434.45786 88.28333L429.52887 88.28333L424.59985 88.28333L419.67087 88.28333L414.74185 88.28333L409.81287 88.28333L404.88385 88.28333L399.95486 88.28333L395.02585 88.28333L390.09686 88.28333L385.16785 88.28333L380.23886 88.28333L375.30984 88.28333L370.38086 88.28333L365.45184 88.28333L360.52286 88.28333L355.59384 88.28333L350.66486 88.28333L345.73584 88.28333L340.80685 88.28333L335.87787 88.28333L330.94885 88.28333L326.01987 88.28333L321.09085 88.28333L316.16187 88.28333L311.23285 88.28333L306.30386 88.28333L301.37485 88.28333L296.44586 88.28333L291.51685 88.28333L286.58786 88.28333L281.65884 88.28333L276.72986 88.28333L271.80084 88.28333L266.87186 88.28333L261.94284 88.28333L257.01385 88.28333L252.08485 88.28333L247.15585 88.28333L242.22685 88.28333L237.29785 88.28333L232.36885 88.28333L227.43985 88.28333L222.51085 88.28333L217.58185 88.28333L212.65285 88.28333L207.72386 88.28333L202.79486 88.28333L197.86586 88.28333L192.93686 88.28333L188.00786 88.28333L183.07886 88.28333L178.14986 88.28333L173.22086 88.28333L168.29185 88.28333L163.36285 88.28333L158.43385 88.28333L153.50485 88.28333L148.57585 88.28333L143.64685 88.28333L138.71785 88.28333L133.789 88.28333L128.86 88.28333L123.930954 88.28333L119.00195 88.28333L114.07295 88.28333L109.144005 88.28333L104.21495 88.28333L99.286 88.28333L95.54302 88.28333L93.047714 88.28333L91.38418 88.28333L90.27515 88.28333L89.5358 88.28333L89.0429 88.28333L88.55 88.28333Z" fill-rule="nonzero"/><path fill="#ea4335" fill-opacity="0.3019608" clip-path="url(#id_0)" d="M88.55 88.28333L89.0429 89.098076L89.5358 89.91287L90.27515 91.13515L91.38418 92.96878L93.047714 95.71969L95.54302 99.84705L99.286 106.04052L104.21495 114.200874L109.144005 122.366104L114.07295 130.53622L119.00195 138.71132L123.930954 146.8913L128.86 155.07616L133.789 163.266L138.71785 171.46083L143.64685 179.66055L148.57585 187.86525L153.50485 196.07462L158.43385 204.2897L163.36285 212.50903L168.29185 220.73367L173.22086 228.96362L178.14986 237.19781L183.07886 245.4373L188.00786 253.6821L188.00786 88.28333L183.07886 88.28333L178.14986 88.28333L173.22086 88.28333L168.29185 88.28333L163.36285 88.28333L158.43385 88.28333L153.50485 88.28333L148.57585 88.28333L143.64685 88.28333L138.71785 88.28333L133.789 88.28333L128.86 88.28333L123.930954 88.28333L119.00195 88.28333L114.07295 88.28333L109.144005 88.28333L104.21495 88.28333L99.286 88.28333L95.54302 88.28333L93.047714 88.28333L91.38418 88.28333L90.27515 88.28333L89.5358 88.28333L89.0429 88.28333L88.55 88.28333Z" fill-rule="nonzero"/><path stroke="#4285f4" stroke-width="2.0" stroke-linecap="butt" clip-path="url(#id_0)" d="M88.55 88.28333L89.0429 89.098076L89.5358 89.91287L90.27515 91.13515L91.38418 92.96878L93.047714 95.71969L95.54302 99.84705L99.286 106.04052L104.21495 114.200874L109.144005 122.366104L114.07295 130.53622L119.00195 138.71132L123.930954 146.8913L128.86 155.07616L133.789 163.266L138.71785 171.46083L143.64685 179.66055L148.57585 187.86525L153.50485 196.07462L158.43385 204.2897L163.36285 212.50903L168.29185 220.73367L173.22086 228.96362L178.14986 237.19781L183.07886 245.4373L188.00786 253.6821L192.93686 241.68832L197.86586 229.70728L202.79486 217.74532L207.72386 205.79927L212.65285 193.8702L217.58185 181.95767L222.51085 170.9826L227.43985 170.9826L232.36885 170.9826L237.29785 170.9826L242.22685 170.9826L247.15585 170.9826L252.08485 170.9826L257.01385 170.9826L261.94284 170.9826L266.87186 170.9826L271.80084 170.9826L276.72986 170.9826L281.65884 170.9826L286.58786 170.9826L291.51685 170.9826L296.44586 170.9826L301.37485 170.9826L306.30386 170.9826L311.23285 170.9826L316.16187 170.9826L321.09085 170.9826L326.01987 170.9826L330.94885 170.9826L335.87787 170.9826L340.80685 170.9826L345.73584 170.9826L350.66486 170.9826L355.59384 170.9826L360.52286 170.9826L365.45184 170.9826L370.38086 170.9826L375.30984 170.9826L380.23886 170.9826L385.16785 170.9826L390.09686 170.9826L395.02585 170.9826L399.95486 170.9826L404.88385 170.9826L409.81287 170.9826L414.74185 170.9826L419.67087 170.9826L424.59985 170.9826L429.52887 170.9826L434.45786 170.9826L439.38684 170.9826L444.31586 170.9826L449.24484 170.9826L454.17386 170.9826L459.10284 170.9826L464.03186 170.9826L468.96085 170.9826L473.88986 170.9826L478.81885 170.9826L483.74786 170.9826L488.67685 170.9826L493.60587 170.9826L498.53485 170.9826L503.46387 170.9826L508.39285 170.9826L513.32184 170.9826L518.25085 170.9826L523.1799 170.9826L528.1088 170.9826L533.03784 170.9826L537.96686 170.9826L542.8959 170.9826L547.8248 170.9826L552.75385 170.9826L557.68286 170.9826L562.6119 170.9826L567.54083 170.9826L572.46985 170.9826L577.39886 170.9826L581.45 170.9826" fill-rule="nonzero"/><path stroke="#ea4335" stroke-width="2.0" stroke-linecap="butt" clip-path="url(#id_0)" d="M88.55 88.28333L89.0429 89.098076L89.5358 89.91287L90.27515 91.13515L91.38418 92.96878L93.047714 95.71969L95.54302 99.84705L99.286 106.04052L104.21495 114.200874L109.144005 122.366104L114.07295 130.53622L119.00195 138.71132L123.930954 146.8913L128.86 155.07616L133.789 163.266L138.71785 171.46083L143.64685 179.66055L148.57585 187.86525L153.50485 196.07462L158.43385 204.2897L163.36285 212.50903L168.29185 220.73367L173.22086 228.96362L178.14986 237.19781L183.07886 245.4373L188.00786 253.6821" fill-rule="nonzero"/><path fill="#000000" fill-opacity="0.0" clip-path="url(#id_0)" d="M91.55 88.28333C91.55 89.940186 90.206856 91.28333 88.55 91.28333C86.89314 91.28333 85.55 89.940186 85.55 88.28333C85.55 86.62648 86.89314 85.28333 88.55 85.28333C90.206856 85.28333 91.55 86.62648 91.55 88.28333Z" fill-rule="nonzero"/><path fill="#000000" fill-opacity="0.0" clip-path="url(#id_0)" d="M92.0429 89.098076C92.0429 90.75493 90.69975 92.098076 89.0429 92.098076C87.38605 92.098076 86.0429 90.75493 86.0429 89.098076C86.0429 87.44122 87.38605 86.098076 89.0429 86.098076C90.69975 86.098076 92.0429 87.44122 92.0429 89.098076Z" fill-rule="nonzero"/><path fill="#000000" fill-opacity="0.0" clip-path="url(#id_0)" d="M92.5358 89.91287C92.5358 91.569725 91.19266 92.91287 89.5358 92.91287C87.878944 92.91287 86.5358 91.569725 86.5358 89.91287C86.5358 88.25601 87.878944 86.91287 89.5358 86.91287C91.19266 86.91287 92.5358 88.25601 92.5358 89.91287Z" fill-rule="nonzero"/><path fill="#000000" fill-opacity="0.0" clip-path="url(#id_0)" d="M93.27515 91.13515C93.27515 92.79201 91.93201 94.13515 90.27515 94.13515C88.61829 94.13515 87.27515 92.79201 87.27515 91.13515C87.27515 89.478294 88.61829 88.13515 90.27515 88.13515C91.93201 88.13515 93.27515 89.478294 93.27515 91.13515Z" fill-rule="nonzero"/><path fill="#000000" fill-opacity="0.0" clip-path="url(#id_0)" d="M94.38418 92.96878C94.38418 94.62563 93.04103 95.96878 91.38418 95.96878C89.72732 95.96878 88.38418 94.62563 88.38418 92.96878C88.38418 91.31193 89.72732 89.96878 91.38418 89.96878C93.04103 89.96878 94.38418 91.31193 94.38418 92.96878Z" fill-rule="nonzero"/><path fill="#000000" fill-opacity="0.0" clip-path="url(#id_0)" d="M96.047714 95.71969C96.047714 97.37654 94.70457 98.71969 93.047714 98.71969C91.39086 98.71969 90.047714 97.37654 90.047714 95.71969C90.047714 94.062836 91.39086 92.71969 93.047714 92.71969C94.70457 92.71969 96.047714 94.062836 96.047714 95.71969Z" fill-rule="nonzero"/><path fill="#000000" fill-opacity="0.0" clip-path="url(#id_0)" d="M98.54302 99.84705C98.54302 101.50391 97.199875 102.84705 95.54302 102.84705C93.88616 102.84705 92.54302 101.50391 92.54302 99.84705C92.54302 98.1902 93.88616 96.84705 95.54302 96.84705C97.199875 96.84705 98.54302 98.1902 98.54302 99.84705Z" fill-rule="nonzero"/><path fill="#000000" fill-opacity="0.0" clip-path="url(#id_0)" d="M102.286 106.04052C102.286 107.69737 100.942856 109.04052 99.286 109.04052C97.62915 109.04052 96.286 107.69737 96.286 106.04052C96.286 104.38366 97.62915 103.04052 99.286 103.04052C100.942856 103.04052 102.286 104.38366 102.286 106.04052Z" fill-rule="nonzero"/><path fill="#000000" fill-opacity="0.0" clip-path="url(#id_0)" d="M107.21495 114.200874C107.21495 115.85773 105.87181 117.200874 104.21495 117.200874C102.5581 117.200874 101.21495 115.85773 101.21495 114.200874C101.21495 112.544014 102.5581 111.200874 104.21495 111.200874C105.87181 111.200874 107.21495 112.544014 107.21495 114.200874Z" fill-rule="nonzero"/><path fill="#000000" fill-opacity="0.0" clip-path="url(#id_0)" d="M112.144005 122.366104C112.144005 124.02296 110.80086 125.366104 109.144005 125.366104C107.48715 125.366104 106.144005 124.02296 106.144005 122.366104C106.144005 120.70925 107.48715 119.366104 109.144005 119.366104C110.80086 119.366104 112.144005 120.70925 112.144005 122.366104Z" fill-rule="nonzero"/><path fill="#000000" fill-opacity="0.0" clip-path="url(#id_0)" d="M117.07295 130.53622C117.07295 132.19307 115.729805 133.53622 114.07295 133.53622C112.4161 133.53622 111.07295 132.19307 111.07295 130.53622C111.07295 128.87936 112.4161 127.53622 114.07295 127.53622C115.729805 127.53622 117.07295 128.87936 117.07295 130.53622Z" fill-rule="nonzero"/><path fill="#000000" fill-opacity="0.0" clip-path="url(#id_0)" d="M122.00195 138.71132C122.00195 140.36818 120.658806 141.71132 119.00195 141.71132C117.3451 141.71132 116.00195 140.36818 116.00195 138.71132C116.00195 137.05446 117.3451 135.71132 119.00195 135.71132C120.658806 135.71132 122.00195 137.05446 122.00195 138.71132Z" fill-rule="nonzero"/><path fill="#000000" fill-opacity="0.0" clip-path="url(#id_0)" d="M126.930954 146.8913C126.930954 148.54816 125.58781 149.8913 123.930954 149.8913C122.2741 149.8913 120.930954 148.54816 120.930954 146.8913C120.930954 145.23445 122.2741 143.8913 123.930954 143.8913C125.58781 143.8913 126.930954 145.23445 126.930954 146.8913Z" fill-rule="nonzero"/><path fill="#000000" fill-opacity="0.0" clip-path="url(#id_0)" d="M131.86 155.07616C131.86 156.73302 130.51686 158.07616 128.86 158.07616C127.20315 158.07616 125.86 156.73302 125.86 155.07616C125.86 153.41931 127.20315 152.07616 128.86 152.07616C130.51686 152.07616 131.86 153.41931 131.86 155.07616Z" fill-rule="nonzero"/><path fill="#000000" fill-opacity="0.0" clip-path="url(#id_0)" d="M136.789 163.266C136.789 164.92285 135.44586 166.266 133.789 166.266C132.13214 166.266 130.789 164.92285 130.789 163.266C130.789 161.60915 132.13214 160.266 133.789 160.266C135.44586 160.266 136.789 161.60915 136.789 163.266Z" fill-rule="nonzero"/><path fill="#000000" fill-opacity="0.0" clip-path="url(#id_0)" d="M141.71785 171.46083C141.71785 173.11769 140.37471 174.46083 138.71785 174.46083C137.061 174.46083 135.71785 173.11769 135.71785 171.46083C135.71785 169.80399 137.061 168.46083 138.71785 168.46083C140.37471 168.46083 141.71785 169.80399 141.71785 171.46083Z" fill-rule="nonzero"/><path fill="#000000" fill-opacity="0.0" clip-path="url(#id_0)" d="M146.64685 179.66055C146.64685 181.3174 145.30371 182.66055 143.64685 182.66055C141.99 182.66055 140.64685 181.3174 140.64685 179.66055C140.64685 178.0037 141.99 176.66055 143.64685 176.66055C145.30371 176.66055 146.64685 178.0037 146.64685 179.66055Z" fill-rule="nonzero"/><path fill="#000000" fill-opacity="0.0" clip-path="url(#id_0)" d="M151.57585 187.86525C151.57585 189.5221 150.23271 190.86525 148.57585 190.86525C146.919 190.86525 145.57585 189.5221 145.57585 187.86525C145.57585 186.20839 146.919 184.86525 148.57585 184.86525C150.23271 184.86525 151.57585 186.20839 151.57585 187.86525Z" fill-rule="nonzero"/><path fill="#000000" fill-opacity="0.0" clip-path="url(#id_0)" d="M156.50485 196.07462C156.50485 197.73146 155.16171 199.07462 153.50485 199.07462C151.848 199.07462 150.50485 197.73146 150.50485 196.07462C150.50485 194.41776 151.848 193.07462 153.50485 193.07462C155.16171 193.07462 156.50485 194.41776 156.50485 196.07462Z" fill-rule="nonzero"/><path fill="#000000" fill-opacity="0.0" clip-path="url(#id_0)" d="M161.43385 204.2897C161.43385 205.94655 160.09071 207.2897 158.43385 207.2897C156.77701 207.2897 155.43385 205.94655 155.43385 204.2897C155.43385 202.63284 156.77701 201.2897 158.43385 201.2897C160.09071 201.2897 161.43385 202.63284 161.43385 204.2897Z" fill-rule="nonzero"/><path fill="#000000" fill-opacity="0.0" clip-path="url(#id_0)" d="M166.36285 212.50903C166.36285 214.1659 165.01971 215.50903 163.36285 215.50903C161.706 215.50903 160.36285 214.1659 160.36285 212.50903C160.36285 210.85219 161.706 209.50903 163.36285 209.50903C165.01971 209.50903 166.36285 210.85219 166.36285 212.50903Z" fill-rule="nonzero"/><path fill="#000000" fill-opacity="0.0" clip-path="url(#id_0)" d="M171.29185 220.73367C171.29185 222.39053 169.94872 223.73367 168.29185 223.73367C166.635 223.73367 165.29185 222.39053 165.29185 220.73367C165.29185 219.07683 166.635 217.73367 168.29185 217.73367C169.94872 217.73367 171.29185 219.07683 171.29185 220.73367Z" fill-rule="nonzero"/><path fill="#000000" fill-opacity="0.0" clip-path="url(#id_0)" d="M176.22086 228.96362C176.22086 230.62048 174.87772 231.96362 173.22086 231.96362C171.564 231.96362 170.22086 230.62048 170.22086 228.96362C170.22086 227.30676 171.564 225.96362 173.22086 225.96362C174.87772 225.96362 176.22086 227.30676 176.22086 228.96362Z" fill-rule="nonzero"/><path fill="#000000" fill-opacity="0.0" clip-path="url(#id_0)" d="M181.14986 237.19781C181.14986 238.85466 179.8067 240.19781 178.14986 240.19781C176.493 240.19781 175.14986 238.85466 175.14986 237.19781C175.14986 235.54095 176.493 234.19781 178.14986 234.19781C179.8067 234.19781 181.14986 235.54095 181.14986 237.19781Z" fill-rule="nonzero"/><path fill="#000000" fill-opacity="0.0" clip-path="url(#id_0)" d="M186.07886 245.4373C186.07886 247.09416 184.7357 248.4373 183.07886 248.4373C181.422 248.4373 180.07886 247.09416 180.07886 245.4373C180.07886 243.78046 181.422 242.4373 183.07886 242.4373C184.7357 242.4373 186.07886 243.78046 186.07886 245.4373Z" fill-rule="nonzero"/><path fill="#000000" fill-opacity="0.0" clip-path="url(#id_0)" d="M191.00786 253.6821C191.00786 255.33896 189.6647 256.6821 188.00786 256.6821C186.351 256.6821 185.00786 255.33896 185.00786 253.6821C185.00786 252.02525 186.351 250.6821 188.00786 250.6821C189.6647 250.6821 191.00786 252.02525 191.00786 253.6821Z" fill-rule="nonzero"/><path fill="#000000" fill-opacity="0.0" clip-path="url(#id_0)" d="M195.93686 241.68832C195.93686 243.34517 194.5937 244.68832 192.93686 244.68832C191.28 244.68832 189.93686 243.34517 189.93686 241.68832C189.93686 240.03146 191.28 238.68832 192.93686 238.68832C194.5937 238.68832 195.93686 240.03146 195.93686 241.68832Z" fill-rule="nonzero"/><path fill="#000000" fill-opacity="0.0" clip-path="url(#id_0)" d="M200.86586 229.70728C200.86586 231.36412 199.5227 232.70728 197.86586 232.70728C196.209 232.70728 194.86586 231.36412 194.86586 229.70728C194.86586 228.05042 196.209 226.70728 197.86586 226.70728C199.5227 226.70728 200.86586 228.05042 200.86586 229.70728Z" fill-rule="nonzero"/><path fill="#000000" fill-opacity="0.0" clip-path="url(#id_0)" d="M205.79486 217.74532C205.79486 219.40216 204.4517 220.74532 202.79486 220.74532C201.138 220.74532 199.79486 219.40216 199.79486 217.74532C199.79486 216.08846 201.138 214.74532 202.79486 214.74532C204.4517 214.74532 205.79486 216.08846 205.79486 217.74532Z" fill-rule="nonzero"/><path fill="#000000" fill-opacity="0.0" clip-path="url(#id_0)" d="M210.72386 205.79927C210.72386 207.45612 209.3807 208.79927 207.72386 208.79927C206.067 208.79927 204.72386 207.45612 204.72386 205.79927C204.72386 204.14241 206.067 202.79927 207.72386 202.79927C209.3807 202.79927 210.72386 204.14241 210.72386 205.79927Z" fill-rule="nonzero"/><path fill="#000000" fill-opacity="0.0" clip-path="url(#id_0)" d="M215.65285 193.8702C215.65285 195.52705 214.30971 196.8702 212.65285 196.8702C210.996 196.8702 209.65285 195.52705 209.65285 193.8702C209.65285 192.21335 210.996 190.8702 212.65285 190.8702C214.30971 190.8702 215.65285 192.21335 215.65285 193.8702Z" fill-rule="nonzero"/><path fill="#000000" fill-opacity="0.0" clip-path="url(#id_0)" d="M220.58185 181.95767C220.58185 183.61453 219.23871 184.95767 217.58185 184.95767C215.925 184.95767 214.58185 183.61453 214.58185 181.95767C214.58185 180.30083 215.925 178.95767 217.58185 178.95767C219.23871 178.95767 220.58185 180.30083 220.58185 181.95767Z" fill-rule="nonzero"/><path fill="#000000" fill-opacity="0.0" clip-path="url(#id_0)" d="M225.51085 170.9826C225.51085 172.63947 224.16771 173.9826 222.51085 173.9826C220.854 173.9826 219.51085 172.63947 219.51085 170.9826C219.51085 169.32576 220.854 167.9826 222.51085 167.9826C224.16771 167.9826 225.51085 169.32576 225.51085 170.9826Z" fill-rule="nonzero"/><path fill="#000000" fill-opacity="0.0" clip-path="url(#id_0)" d="M230.43985 170.9826C230.43985 172.63947 229.09671 173.9826 227.43985 173.9826C225.783 173.9826 224.43985 172.63947 224.43985 170.9826C224.43985 169.32576 225.783 167.9826 227.43985 167.9826C229.09671 167.9826 230.43985 169.32576 230.43985 170.9826Z" fill-rule="nonzero"/><path fill="#000000" fill-opacity="0.0" clip-path="url(#id_0)" d="M235.36885 170.9826C235.36885 172.63947 234.02571 173.9826 232.36885 173.9826C230.712 173.9826 229.36885 172.63947 229.36885 170.9826C229.36885 169.32576 230.712 167.9826 232.36885 167.9826C234.02571 167.9826 235.36885 169.32576 235.36885 170.9826Z" fill-rule="nonzero"/><path fill="#000000" fill-opacity="0.0" clip-path="url(#id_0)" d="M240.29785 170.9826C240.29785 172.63947 238.95471 173.9826 237.29785 173.9826C235.641 173.9826 234.29785 172.63947 234.29785 170.9826C234.29785 169.32576 235.641 167.9826 237.29785 167.9826C238.95471 167.9826 240.29785 169.32576 240.29785 170.9826Z" fill-rule="nonzero"/><path fill="#000000" fill-opacity="0.0" clip-path="url(#id_0)" d="M245.22685 170.9826C245.22685 172.63947 243.88371 173.9826 242.22685 173.9826C240.57 173.9826 239.22685 172.63947 239.22685 170.9826C239.22685 169.32576 240.57 167.9826 242.22685 167.9826C243.88371 167.9826 245.22685 169.32576 245.22685 170.9826Z" fill-rule="nonzero"/><path fill="#000000" fill-opacity="0.0" clip-path="url(#id_0)" d="M250.15585 170.9826C250.15585 172.63947 248.81271 173.9826 247.15585 173.9826C245.49901 173.9826 244.15585 172.63947 244.15585 170.9826C244.15585 169.32576 245.49901 167.9826 247.15585 167.9826C248.81271 167.9826 250.15585 169.32576 250.15585 170.9826Z" fill-rule="nonzero"/><path fill="#000000" fill-opacity="0.0" clip-path="url(#id_0)" d="M255.08485 170.9826C255.08485 172.63947 253.74171 173.9826 252.08485 173.9826C250.428 173.9826 249.08485 172.63947 249.08485 170.9826C249.08485 169.32576 250.428 167.9826 252.08485 167.9826C253.74171 167.9826 255.08485 169.32576 255.08485 170.9826Z" fill-rule="nonzero"/><path fill="#000000" fill-opacity="0.0" clip-path="url(#id_0)" d="M260.01385 170.9826C260.01385 172.63947 258.67072 173.9826 257.01385 173.9826C255.357 173.9826 254.01385 172.63947 254.01385 170.9826C254.01385 169.32576 255.357 167.9826 257.01385 167.9826C258.67072 167.9826 260.01385 169.32576 260.01385 170.9826Z" fill-rule="nonzero"/><path fill="#000000" fill-opacity="0.0" clip-path="url(#id_0)" d="M264.94284 170.9826C264.94284 172.63947 263.5997 173.9826 261.94284 173.9826C260.286 173.9826 258.94284 172.63947 258.94284 170.9826C258.94284 169.32576 260.286 167.9826 261.94284 167.9826C263.5997 167.9826 264.94284 169.32576 264.94284 170.9826Z" fill-rule="nonzero"/><path fill="#000000" fill-opacity="0.0" clip-path="url(#id_0)" d="M269.87186 170.9826C269.87186 172.63947 268.52872 173.9826 266.87186 173.9826C265.215 173.9826 263.87186 172.63947 263.87186 170.9826C263.87186 169.32576 265.215 167.9826 266.87186 167.9826C268.52872 167.9826 269.87186 169.32576 269.87186 170.9826Z" fill-rule="nonzero"/><path fill="#000000" fill-opacity="0.0" clip-path="url(#id_0)" d="M274.80084 170.9826C274.80084 172.63947 273.4577 173.9826 271.80084 173.9826C270.144 173.9826 268.80084 172.63947 268.80084 170.9826C268.80084 169.32576 270.144 167.9826 271.80084 167.9826C273.4577 167.9826 274.80084 169.32576 274.80084 170.9826Z" fill-rule="nonzero"/><path fill="#000000" fill-opacity="0.0" clip-path="url(#id_0)" d="M279.72986 170.9826C279.72986 172.63947 278.38672 173.9826 276.72986 173.9826C275.073 173.9826 273.72986 172.63947 273.72986 170.9826C273.72986 169.32576 275.073 167.9826 276.72986 167.9826C278.38672 167.9826 279.72986 169.32576 279.72986 170.9826Z" fill-rule="nonzero"/><path fill="#000000" fill-opacity="0.0" clip-path="url(#id_0)" d="M284.65884 170.9826C284.65884 172.63947 283.3157 173.9826 281.65884 173.9826C280.002 173.9826 278.65884 172.63947 278.65884 170.9826C278.65884 169.32576 280.002 167.9826 281.65884 167.9826C283.3157 167.9826 284.65884 169.32576 284.65884 170.9826Z" fill-rule="nonzero"/><path fill="#000000" fill-opacity="0.0" clip-path="url(#id_0)" d="M289.58786 170.9826C289.58786 172.63947 288.24472 173.9826 286.58786 173.9826C284.931 173.9826 283.58786 172.63947 283.58786 170.9826C283.58786 169.32576 284.931 167.9826 286.58786 167.9826C288.24472 167.9826 289.58786 169.32576 289.58786 170.9826Z" fill-rule="nonzero"/><path fill="#000000" fill-opacity="0.0" clip-path="url(#id_0)" d="M294.51685 170.9826C294.51685 172.63947 293.1737 173.9826 291.51685 173.9826C289.86002 173.9826 288.51685 172.63947 288.51685 170.9826C288.51685 169.32576 289.86002 167.9826 291.51685 167.9826C293.1737 167.9826 294.51685 169.32576 294.51685 170.9826Z" fill-rule="nonzero"/><path fill="#000000" fill-opacity="0.0" clip-path="url(#id_0)" d="M299.44586 170.9826C299.44586 172.63947 298.10272 173.9826 296.44586 173.9826C294.789 173.9826 293.44586 172.63947 293.44586 170.9826C293.44586 169.32576 294.789 167.9826 296.44586 167.9826C298.10272 167.9826 299.44586 169.32576 299.44586 170.9826Z" fill-rule="nonzero"/><path fill="#000000" fill-opacity="0.0" clip-path="url(#id_0)" d="M304.37485 170.9826C304.37485 172.63947 303.0317 173.9826 301.37485 173.9826C299.718 173.9826 298.37485 172.63947 298.37485 170.9826C298.37485 169.32576 299.718 167.9826 301.37485 167.9826C303.0317 167.9826 304.37485 169.32576 304.37485 170.9826Z" fill-rule="nonzero"/><path fill="#000000" fill-opacity="0.0" clip-path="url(#id_0)" d="M309.30386 170.9826C309.30386 172.63947 307.96072 173.9826 306.30386 173.9826C304.647 173.9826 303.30386 172.63947 303.30386 170.9826C303.30386 169.32576 304.647 167.9826 306.30386 167.9826C307.96072 167.9826 309.30386 169.32576 309.30386 170.9826Z" fill-rule="nonzero"/><path fill="#000000" fill-opacity="0.0" clip-path="url(#id_0)" d="M314.23285 170.9826C314.23285 172.63947 312.8897 173.9826 311.23285 173.9826C309.576 173.9826 308.23285 172.63947 308.23285 170.9826C308.23285 169.32576 309.576 167.9826 311.23285 167.9826C312.8897 167.9826 314.23285 169.32576 314.23285 170.9826Z" fill-rule="nonzero"/><path fill="#000000" fill-opacity="0.0" clip-path="url(#id_0)" d="M319.16187 170.9826C319.16187 172.63947 317.8187 173.9826 316.16187 173.9826C314.505 173.9826 313.16187 172.63947 313.16187 170.9826C313.16187 169.32576 314.505 167.9826 316.16187 167.9826C317.8187 167.9826 319.16187 169.32576 319.16187 170.9826Z" fill-rule="nonzero"/><path fill="#000000" fill-opacity="0.0" clip-path="url(#id_0)" d="M324.09085 170.9826C324.09085 172.63947 322.7477 173.9826 321.09085 173.9826C319.434 173.9826 318.09085 172.63947 318.09085 170.9826C318.09085 169.32576 319.434 167.9826 321.09085 167.9826C322.7477 167.9826 324.09085 169.32576 324.09085 170.9826Z" fill-rule="nonzero"/><path fill="#000000" fill-opacity="0.0" clip-path="url(#id_0)" d="M329.01987 170.9826C329.01987 172.63947 327.6767 173.9826 326.01987 173.9826C324.363 173.9826 323.01987 172.63947 323.01987 170.9826C323.01987 169.32576 324.363 167.9826 326.01987 167.9826C327.6767 167.9826 329.01987 169.32576 329.01987 170.9826Z" fill-rule="nonzero"/><path fill="#000000" fill-opacity="0.0" clip-path="url(#id_0)" d="M333.94885 170.9826C333.94885 172.63947 332.6057 173.9826 330.94885 173.9826C329.292 173.9826 327.94885 172.63947 327.94885 170.9826C327.94885 169.32576 329.292 167.9826 330.94885 167.9826C332.6057 167.9826 333.94885 169.32576 333.94885 170.9826Z" fill-rule="nonzero"/><path fill="#000000" fill-opacity="0.0" clip-path="url(#id_0)" d="M338.87787 170.9826C338.87787 172.63947 337.5347 173.9826 335.87787 173.9826C334.221 173.9826 332.87787 172.63947 332.87787 170.9826C332.87787 169.32576 334.221 167.9826 335.87787 167.9826C337.5347 167.9826 338.87787 169.32576 338.87787 170.9826Z" fill-rule="nonzero"/><path fill="#000000" fill-opacity="0.0" clip-path="url(#id_0)" d="M343.80685 170.9826C343.80685 172.63947 342.4637 173.9826 340.80685 173.9826C339.15 173.9826 337.80685 172.63947 337.80685 170.9826C337.80685 169.32576 339.15 167.9826 340.80685 167.9826C342.4637 167.9826 343.80685 169.32576 343.80685 170.9826Z" fill-rule="nonzero"/><path fill="#000000" fill-opacity="0.0" clip-path="url(#id_0)" d="M348.73584 170.9826C348.73584 172.63947 347.3927 173.9826 345.73584 173.9826C344.079 173.9826 342.73584 172.63947 342.73584 170.9826C342.73584 169.32576 344.079 167.9826 345.73584 167.9826C347.3927 167.9826 348.73584 169.32576 348.73584 170.9826Z" fill-rule="nonzero"/><path fill="#000000" fill-opacity="0.0" clip-path="url(#id_0)" d="M353.66486 170.9826C353.66486 172.63947 352.32172 173.9826 350.66486 173.9826C349.008 173.9826 347.66486 172.63947 347.66486 170.9826C347.66486 169.32576 349.008 167.9826 350.66486 167.9826C352.32172 167.9826 353.66486 169.32576 353.66486 170.9826Z" fill-rule="nonzero"/><path fill="#000000" fill-opacity="0.0" clip-path="url(#id_0)" d="M358.59384 170.9826C358.59384 172.63947 357.2507 173.9826 355.59384 173.9826C353.937 173.9826 352.59384 172.63947 352.59384 170.9826C352.59384 169.32576 353.937 167.9826 355.59384 167.9826C357.2507 167.9826 358.59384 169.32576 358.59384 170.9826Z" fill-rule="nonzero"/><path fill="#000000" fill-opacity="0.0" clip-path="url(#id_0)" d="M363.52286 170.9826C363.52286 172.63947 362.17972 173.9826 360.52286 173.9826C358.866 173.9826 357.52286 172.63947 357.52286 170.9826C357.52286 169.32576 358.866 167.9826 360.52286 167.9826C362.17972 167.9826 363.52286 169.32576 363.52286 170.9826Z" fill-rule="nonzero"/><path fill="#000000" fill-opacity="0.0" clip-path="url(#id_0)" d="M368.45184 170.9826C368.45184 172.63947 367.1087 173.9826 365.45184 173.9826C363.795 173.9826 362.45184 172.63947 362.45184 170.9826C362.45184 169.32576 363.795 167.9826 365.45184 167.9826C367.1087 167.9826 368.45184 169.32576 368.45184 170.9826Z" fill-rule="nonzero"/><path fill="#000000" fill-opacity="0.0" clip-path="url(#id_0)" d="M373.38086 170.9826C373.38086 172.63947 372.03772 173.9826 370.38086 173.9826C368.724 173.9826 367.38086 172.63947 367.38086 170.9826C367.38086 169.32576 368.724 167.9826 370.38086 167.9826C372.03772 167.9826 373.38086 169.32576 373.38086 170.9826Z" fill-rule="nonzero"/><path fill="#000000" fill-opacity="0.0" clip-path="url(#id_0)" d="M378.30984 170.9826C378.30984 172.63947 376.9667 173.9826 375.30984 173.9826C373.653 173.9826 372.30984 172.63947 372.30984 170.9826C372.30984 169.32576 373.653 167.9826 375.30984 167.9826C376.9667 167.9826 378.30984 169.32576 378.30984 170.9826Z" fill-rule="nonzero"/><path fill="#000000" fill-opacity="0.0" clip-path="url(#id_0)" d="M383.23886 170.9826C383.23886 172.63947 381.89572 173.9826 380.23886 173.9826C378.582 173.9826 377.23886 172.63947 377.23886 170.9826C377.23886 169.32576 378.582 167.9826 380.23886 167.9826C381.89572 167.9826 383.23886 169.32576 383.23886 170.9826Z" fill-rule="nonzero"/><path fill="#000000" fill-opacity="0.0" clip-path="url(#id_0)" d="M388.16785 170.9826C388.16785 172.63947 386.8247 173.9826 385.16785 173.9826C383.511 173.9826 382.16785 172.63947 382.16785 170.9826C382.16785 169.32576 383.511 167.9826 385.16785 167.9826C386.8247 167.9826 388.16785 169.32576 388.16785 170.9826Z" fill-rule="nonzero"/><path fill="#000000" fill-opacity="0.0" clip-path="url(#id_0)" d="M393.09686 170.9826C393.09686 172.63947 391.75372 173.9826 390.09686 173.9826C388.44 173.9826 387.09686 172.63947 387.09686 170.9826C387.09686 169.32576 388.44 167.9826 390.09686 167.9826C391.75372 167.9826 393.09686 169.32576 393.09686 170.9826Z" fill-rule="nonzero"/><path fill="#000000" fill-opacity="0.0" clip-path="url(#id_0)" d="M398.02585 170.9826C398.02585 172.63947 396.6827 173.9826 395.02585 173.9826C393.369 173.9826 392.02585 172.63947 392.02585 170.9826C392.02585 169.32576 393.369 167.9826 395.02585 167.9826C396.6827 167.9826 398.02585 169.32576 398.02585 170.9826Z" fill-rule="nonzero"/><path fill="#000000" fill-opacity="0.0" clip-path="url(#id_0)" d="M402.95486 170.9826C402.95486 172.63947 401.6117 173.9826 399.95486 173.9826C398.298 173.9826 396.95486 172.63947 396.95486 170.9826C396.95486 169.32576 398.298 167.9826 399.95486 167.9826C401.6117 167.9826 402.95486 169.32576 402.95486 170.9826Z" fill-rule="nonzero"/><path fill="#000000" fill-opacity="0.0" clip-path="url(#id_0)" d="M407.88385 170.9826C407.88385 172.63947 406.5407 173.9826 404.88385 173.9826C403.227 173.9826 401.88385 172.63947 401.88385 170.9826C401.88385 169.32576 403.227 167.9826 404.88385 167.9826C406.5407 167.9826 407.88385 169.32576 407.88385 170.9826Z" fill-rule="nonzero"/><path fill="#000000" fill-opacity="0.0" clip-path="url(#id_0)" d="M412.81287 170.9826C412.81287 172.63947 411.4697 173.9826 409.81287 173.9826C408.156 173.9826 406.81287 172.63947 406.81287 170.9826C406.81287 169.32576 408.156 167.9826 409.81287 167.9826C411.4697 167.9826 412.81287 169.32576 412.81287 170.9826Z" fill-rule="nonzero"/><path fill="#000000" fill-opacity="0.0" clip-path="url(#id_0)" d="M417.74185 170.9826C417.74185 172.63947 416.3987 173.9826 414.74185 173.9826C413.085 173.9826 411.74185 172.63947 411.74185 170.9826C411.74185 169.32576 413.085 167.9826 414.74185 167.9826C416.3987 167.9826 417.74185 169.32576 417.74185 170.9826Z" fill-rule="nonzero"/><path fill="#000000" fill-opacity="0.0" clip-path="url(#id_0)" d="M422.67087 170.9826C422.67087 172.63947 421.3277 173.9826 419.67087 173.9826C418.014 173.9826 416.67087 172.63947 416.67087 170.9826C416.67087 169.32576 418.014 167.9826 419.67087 167.9826C421.3277 167.9826 422.67087 169.32576 422.67087 170.9826Z" fill-rule="nonzero"/><path fill="#000000" fill-opacity="0.0" clip-path="url(#id_0)" d="M427.59985 170.9826C427.59985 172.63947 426.2567 173.9826 424.59985 173.9826C422.943 173.9826 421.59985 172.63947 421.59985 170.9826C421.59985 169.32576 422.943 167.9826 424.59985 167.9826C426.2567 167.9826 427.59985 169.32576 427.59985 170.9826Z" fill-rule="nonzero"/><path fill="#000000" fill-opacity="0.0" clip-path="url(#id_0)" d="M432.52887 170.9826C432.52887 172.63947 431.1857 173.9826 429.52887 173.9826C427.872 173.9826 426.52887 172.63947 426.52887 170.9826C426.52887 169.32576 427.872 167.9826 429.52887 167.9826C431.1857 167.9826 432.52887 169.32576 432.52887 170.9826Z" fill-rule="nonzero"/><path fill="#000000" fill-opacity="0.0" clip-path="url(#id_0)" d="M437.45786 170.9826C437.45786 172.63947 436.11472 173.9826 434.45786 173.9826C432.801 173.9826 431.45786 172.63947 431.45786 170.9826C431.45786 169.32576 432.801 167.9826 434.45786 167.9826C436.11472 167.9826 437.45786 169.32576 437.45786 170.9826Z" fill-rule="nonzero"/><path fill="#000000" fill-opacity="0.0" clip-path="url(#id_0)" d="M442.38684 170.9826C442.38684 172.63947 441.0437 173.9826 439.38684 173.9826C437.73 173.9826 436.38684 172.63947 436.38684 170.9826C436.38684 169.32576 437.73 167.9826 439.38684 167.9826C441.0437 167.9826 442.38684 169.32576 442.38684 170.9826Z" fill-rule="nonzero"/><path fill="#000000" fill-opacity="0.0" clip-path="url(#id_0)" d="M447.31586 170.9826C447.31586 172.63947 445.97272 173.9826 444.31586 173.9826C442.659 173.9826 441.31586 172.63947 441.31586 170.9826C441.31586 169.32576 442.659 167.9826 444.31586 167.9826C445.97272 167.9826 447.31586 169.32576 447.31586 170.9826Z" fill-rule="nonzero"/><path fill="#000000" fill-opacity="0.0" clip-path="url(#id_0)" d="M452.24484 170.9826C452.24484 172.63947 450.9017 173.9826 449.24484 173.9826C447.588 173.9826 446.24484 172.63947 446.24484 170.9826C446.24484 169.32576 447.588 167.9826 449.24484 167.9826C450.9017 167.9826 452.24484 169.32576 452.24484 170.9826Z" fill-rule="nonzero"/><path fill="#000000" fill-opacity="0.0" clip-path="url(#id_0)" d="M457.17386 170.9826C457.17386 172.63947 455.83072 173.9826 454.17386 173.9826C452.517 173.9826 451.17386 172.63947 451.17386 170.9826C451.17386 169.32576 452.517 167.9826 454.17386 167.9826C455.83072 167.9826 457.17386 169.32576 457.17386 170.9826Z" fill-rule="nonzero"/><path fill="#000000" fill-opacity="0.0" clip-path="url(#id_0)" d="M462.10284 170.9826C462.10284 172.63947 460.7597 173.9826 459.10284 173.9826C457.446 173.9826 456.10284 172.63947 456.10284 170.9826C456.10284 169.32576 457.446 167.9826 459.10284 167.9826C460.7597 167.9826 462.10284 169.32576 462.10284 170.9826Z" fill-rule="nonzero"/><path fill="#000000" fill-opacity="0.0" clip-path="url(#id_0)" d="M467.03186 170.9826C467.03186 172.63947 465.68872 173.9826 464.03186 173.9826C462.375 173.9826 461.03186 172.63947 461.03186 170.9826C461.03186 169.32576 462.375 167.9826 464.03186 167.9826C465.68872 167.9826 467.03186 169.32576 467.03186 170.9826Z" fill-rule="nonzero"/><path fill="#000000" fill-opacity="0.0" clip-path="url(#id_0)" d="M471.96085 170.9826C471.96085 172.63947 470.6177 173.9826 468.96085 173.9826C467.304 173.9826 465.96085 172.63947 465.96085 170.9826C465.96085 169.32576 467.304 167.9826 468.96085 167.9826C470.6177 167.9826 471.96085 169.32576 471.96085 170.9826Z" fill-rule="nonzero"/><path fill="#000000" fill-opacity="0.0" clip-path="url(#id_0)" d="M476.88986 170.9826C476.88986 172.63947 475.54672 173.9826 473.88986 173.9826C472.233 173.9826 470.88986 172.63947 470.88986 170.9826C470.88986 169.32576 472.233 167.9826 473.88986 167.9826C475.54672 167.9826 476.88986 169.32576 476.88986 170.9826Z" fill-rule="nonzero"/><path fill="#000000" fill-opacity="0.0" clip-path="url(#id_0)" d="M481.81885 170.9826C481.81885 172.63947 480.4757 173.9826 478.81885 173.9826C477.162 173.9826 475.81885 172.63947 475.81885 170.9826C475.81885 169.32576 477.162 167.9826 478.81885 167.9826C480.4757 167.9826 481.81885 169.32576 481.81885 170.9826Z" fill-rule="nonzero"/><path fill="#000000" fill-opacity="0.0" clip-path="url(#id_0)" d="M486.74786 170.9826C486.74786 172.63947 485.40472 173.9826 483.74786 173.9826C482.091 173.9826 480.74786 172.63947 480.74786 170.9826C480.74786 169.32576 482.091 167.9826 483.74786 167.9826C485.40472 167.9826 486.74786 169.32576 486.74786 170.9826Z" fill-rule="nonzero"/><path fill="#000000" fill-opacity="0.0" clip-path="url(#id_0)" d="M491.67685 170.9826C491.67685 172.63947 490.3337 173.9826 488.67685 173.9826C487.02 173.9826 485.67685 172.63947 485.67685 170.9826C485.67685 169.32576 487.02 167.9826 488.67685 167.9826C490.3337 167.9826 491.67685 169.32576 491.67685 170.9826Z" fill-rule="nonzero"/><path fill="#000000" fill-opacity="0.0" clip-path="url(#id_0)" d="M496.60587 170.9826C496.60587 172.63947 495.2627 173.9826 493.60587 173.9826C491.949 173.9826 490.60587 172.63947 490.60587 170.9826C490.60587 169.32576 491.949 167.9826 493.60587 167.9826C495.2627 167.9826 496.60587 169.32576 496.60587 170.9826Z" fill-rule="nonzero"/><path fill="#000000" fill-opacity="0.0" clip-path="url(#id_0)" d="M501.53485 170.9826C501.53485 172.63947 500.1917 173.9826 498.53485 173.9826C496.878 173.9826 495.53485 172.63947 495.53485 170.9826C495.53485 169.32576 496.878 167.9826 498.53485 167.9826C500.1917 167.9826 501.53485 169.32576 501.53485 170.9826Z" fill-rule="nonzero"/><path fill="#000000" fill-opacity="0.0" clip-path="url(#id_0)" d="M506.46387 170.9826C506.46387 172.63947 505.1207 173.9826 503.46387 173.9826C501.807 173.9826 500.46387 172.63947 500.46387 170.9826C500.46387 169.32576 501.807 167.9826 503.46387 167.9826C505.1207 167.9826 506.46387 169.32576 506.46387 170.9826Z" fill-rule="nonzero"/><path fill="#000000" fill-opacity="0.0" clip-path="url(#id_0)" d="M511.39285 170.9826C511.39285 172.63947 510.0497 173.9826 508.39285 173.9826C506.736 173.9826 505.39285 172.63947 505.39285 170.9826C505.39285 169.32576 506.736 167.9826 508.39285 167.9826C510.0497 167.9826 511.39285 169.32576 511.39285 170.9826Z" fill-rule="nonzero"/><path fill="#000000" fill-opacity="0.0" clip-path="url(#id_0)" d="M516.32184 170.9826C516.32184 172.63947 514.9787 173.9826 513.32184 173.9826C511.665 173.9826 510.32187 172.63947 510.32187 170.9826C510.32187 169.32576 511.665 167.9826 513.32184 167.9826C514.9787 167.9826 516.32184 169.32576 516.32184 170.9826Z" fill-rule="nonzero"/><path fill="#000000" fill-opacity="0.0" clip-path="url(#id_0)" d="M521.25085 170.9826C521.25085 172.63947 519.9077 173.9826 518.25085 173.9826C516.594 173.9826 515.25085 172.63947 515.25085 170.9826C515.25085 169.32576 516.594 167.9826 518.25085 167.9826C519.9077 167.9826 521.25085 169.32576 521.25085 170.9826Z" fill-rule="nonzero"/><path fill="#000000" fill-opacity="0.0" clip-path="url(#id_0)" d="M526.1799 170.9826C526.1799 172.63947 524.83673 173.9826 523.1799 173.9826C521.523 173.9826 520.1799 172.63947 520.1799 170.9826C520.1799 169.32576 521.523 167.9826 523.1799 167.9826C524.83673 167.9826 526.1799 169.32576 526.1799 170.9826Z" fill-rule="nonzero"/><path fill="#000000" fill-opacity="0.0" clip-path="url(#id_0)" d="M531.1088 170.9826C531.1088 172.63947 529.7657 173.9826 528.1088 173.9826C526.452 173.9826 525.1088 172.63947 525.1088 170.9826C525.1088 169.32576 526.452 167.9826 528.1088 167.9826C529.7657 167.9826 531.1088 169.32576 531.1088 170.9826Z" fill-rule="nonzero"/><path fill="#000000" fill-opacity="0.0" clip-path="url(#id_0)" d="M536.03784 170.9826C536.03784 172.63947 534.6947 173.9826 533.03784 173.9826C531.381 173.9826 530.03784 172.63947 530.03784 170.9826C530.03784 169.32576 531.381 167.9826 533.03784 167.9826C534.6947 167.9826 536.03784 169.32576 536.03784 170.9826Z" fill-rule="nonzero"/><path fill="#000000" fill-opacity="0.0" clip-path="url(#id_0)" d="M540.96686 170.9826C540.96686 172.63947 539.6237 173.9826 537.96686 173.9826C536.31 173.9826 534.96686 172.63947 534.96686 170.9826C534.96686 169.32576 536.31 167.9826 537.96686 167.9826C539.6237 167.9826 540.96686 169.32576 540.96686 170.9826Z" fill-rule="nonzero"/><path fill="#000000" fill-opacity="0.0" clip-path="url(#id_0)" d="M545.8959 170.9826C545.8959 172.63947 544.55273 173.9826 542.8959 173.9826C541.239 173.9826 539.8959 172.63947 539.8959 170.9826C539.8959 169.32576 541.239 167.9826 542.8959 167.9826C544.55273 167.9826 545.8959 169.32576 545.8959 170.9826Z" fill-rule="nonzero"/><path fill="#000000" fill-opacity="0.0" clip-path="url(#id_0)" d="M550.8248 170.9826C550.8248 172.63947 549.4817 173.9826 547.8248 173.9826C546.168 173.9826 544.8248 172.63947 544.8248 170.9826C544.8248 169.32576 546.168 167.9826 547.8248 167.9826C549.4817 167.9826 550.8248 169.32576 550.8248 170.9826Z" fill-rule="nonzero"/><path fill="#000000" fill-opacity="0.0" clip-path="url(#id_0)" d="M555.75385 170.9826C555.75385 172.63947 554.4107 173.9826 552.75385 173.9826C551.097 173.9826 549.75385 172.63947 549.75385 170.9826C549.75385 169.32576 551.097 167.9826 552.75385 167.9826C554.4107 167.9826 555.75385 169.32576 555.75385 170.9826Z" fill-rule="nonzero"/><path fill="#000000" fill-opacity="0.0" clip-path="url(#id_0)" d="M560.68286 170.9826C560.68286 172.63947 559.3397 173.9826 557.68286 173.9826C556.026 173.9826 554.68286 172.63947 554.68286 170.9826C554.68286 169.32576 556.026 167.9826 557.68286 167.9826C559.3397 167.9826 560.68286 169.32576 560.68286 170.9826Z" fill-rule="nonzero"/><path fill="#000000" fill-opacity="0.0" clip-path="url(#id_0)" d="M565.6119 170.9826C565.6119 172.63947 564.26874 173.9826 562.6119 173.9826C560.955 173.9826 559.6119 172.63947 559.6119 170.9826C559.6119 169.32576 560.955 167.9826 562.6119 167.9826C564.26874 167.9826 565.6119 169.32576 565.6119 170.9826Z" fill-rule="nonzero"/><path fill="#000000" fill-opacity="0.0" clip-path="url(#id_0)" d="M570.54083 170.9826C570.54083 172.63947 569.1977 173.9826 567.54083 173.9826C565.884 173.9826 564.54083 172.63947 564.54083 170.9826C564.54083 169.32576 565.884 167.9826 567.54083 167.9826C569.1977 167.9826 570.54083 169.32576 570.54083 170.9826Z" fill-rule="nonzero"/><path fill="#000000" fill-opacity="0.0" clip-path="url(#id_0)" d="M575.46985 170.9826C575.46985 172.63947 574.1267 173.9826 572.46985 173.9826C570.813 173.9826 569.46985 172.63947 569.46985 170.9826C569.46985 169.32576 570.813 167.9826 572.46985 167.9826C574.1267 167.9826 575.46985 169.32576 575.46985 170.9826Z" fill-rule="nonzero"/><path fill="#000000" fill-opacity="0.0" clip-path="url(#id_0)" d="M580.39886 170.9826C580.39886 172.63947 579.0557 173.9826 577.39886 173.9826C575.742 173.9826 574.39886 172.63947 574.39886 170.9826C574.39886 169.32576 575.742 167.9826 577.39886 167.9826C579.0557 167.9826 580.39886 169.32576 580.39886 170.9826Z" fill-rule="nonzero"/><path fill="#000000" fill-opacity="0.0" clip-path="url(#id_0)" d="M584.45 170.9826C584.45 172.63947 583.1069 173.9826 581.45 173.9826C579.79315 173.9826 578.45 172.63947 578.45 170.9826C578.45 169.32576 579.79315 167.9826 581.45 167.9826C583.1069 167.9826 584.45 169.32576 584.45 170.9826Z" fill-rule="nonzero"/><path fill="#000000" fill-opacity="0.0" clip-path="url(#id_0)" d="M91.55 88.28333C91.55 89.940186 90.206856 91.28333 88.55 91.28333C86.89314 91.28333 85.55 89.940186 85.55 88.28333C85.55 86.62648 86.89314 85.28333 88.55 85.28333C90.206856 85.28333 91.55 86.62648 91.55 88.28333Z" fill-rule="nonzero"/><path fill="#000000" fill-opacity="0.0" clip-path="url(#id_0)" d="M92.0429 89.098076C92.0429 90.75493 90.69975 92.098076 89.0429 92.098076C87.38605 92.098076 86.0429 90.75493 86.0429 89.098076C86.0429 87.44122 87.38605 86.098076 89.0429 86.098076C90.69975 86.098076 92.0429 87.44122 92.0429 89.098076Z" fill-rule="nonzero"/><path fill="#000000" fill-opacity="0.0" clip-path="url(#id_0)" d="M92.5358 89.91287C92.5358 91.569725 91.19266 92.91287 89.5358 92.91287C87.878944 92.91287 86.5358 91.569725 86.5358 89.91287C86.5358 88.25601 87.878944 86.91287 89.5358 86.91287C91.19266 86.91287 92.5358 88.25601 92.5358 89.91287Z" fill-rule="nonzero"/><path fill="#000000" fill-opacity="0.0" clip-path="url(#id_0)" d="M93.27515 91.13515C93.27515 92.79201 91.93201 94.13515 90.27515 94.13515C88.61829 94.13515 87.27515 92.79201 87.27515 91.13515C87.27515 89.478294 88.61829 88.13515 90.27515 88.13515C91.93201 88.13515 93.27515 89.478294 93.27515 91.13515Z" fill-rule="nonzero"/><path fill="#000000" fill-opacity="0.0" clip-path="url(#id_0)" d="M94.38418 92.96878C94.38418 94.62563 93.04103 95.96878 91.38418 95.96878C89.72732 95.96878 88.38418 94.62563 88.38418 92.96878C88.38418 91.31193 89.72732 89.96878 91.38418 89.96878C93.04103 89.96878 94.38418 91.31193 94.38418 92.96878Z" fill-rule="nonzero"/><path fill="#000000" fill-opacity="0.0" clip-path="url(#id_0)" d="M96.047714 95.71969C96.047714 97.37654 94.70457 98.71969 93.047714 98.71969C91.39086 98.71969 90.047714 97.37654 90.047714 95.71969C90.047714 94.062836 91.39086 92.71969 93.047714 92.71969C94.70457 92.71969 96.047714 94.062836 96.047714 95.71969Z" fill-rule="nonzero"/><path fill="#000000" fill-opacity="0.0" clip-path="url(#id_0)" d="M98.54302 99.84705C98.54302 101.50391 97.199875 102.84705 95.54302 102.84705C93.88616 102.84705 92.54302 101.50391 92.54302 99.84705C92.54302 98.1902 93.88616 96.84705 95.54302 96.84705C97.199875 96.84705 98.54302 98.1902 98.54302 99.84705Z" fill-rule="nonzero"/><path fill="#000000" fill-opacity="0.0" clip-path="url(#id_0)" d="M102.286 106.04052C102.286 107.69737 100.942856 109.04052 99.286 109.04052C97.62915 109.04052 96.286 107.69737 96.286 106.04052C96.286 104.38366 97.62915 103.04052 99.286 103.04052C100.942856 103.04052 102.286 104.38366 102.286 106.04052Z" fill-rule="nonzero"/><path fill="#000000" fill-opacity="0.0" clip-path="url(#id_0)" d="M107.21495 114.200874C107.21495 115.85773 105.87181 117.200874 104.21495 117.200874C102.5581 117.200874 101.21495 115.85773 101.21495 114.200874C101.21495 112.544014 102.5581 111.200874 104.21495 111.200874C105.87181 111.200874 107.21495 112.544014 107.21495 114.200874Z" fill-rule="nonzero"/><path fill="#000000" fill-opacity="0.0" clip-path="url(#id_0)" d="M112.144005 122.366104C112.144005 124.02296 110.80086 125.366104 109.144005 125.366104C107.48715 125.366104 106.144005 124.02296 106.144005 122.366104C106.144005 120.70925 107.48715 119.366104 109.144005 119.366104C110.80086 119.366104 112.144005 120.70925 112.144005 122.366104Z" fill-rule="nonzero"/><path fill="#000000" fill-opacity="0.0" clip-path="url(#id_0)" d="M117.07295 130.53622C117.07295 132.19307 115.729805 133.53622 114.07295 133.53622C112.4161 133.53622 111.07295 132.19307 111.07295 130.53622C111.07295 128.87936 112.4161 127.53622 114.07295 127.53622C115.729805 127.53622 117.07295 128.87936 117.07295 130.53622Z" fill-rule="nonzero"/><path fill="#000000" fill-opacity="0.0" clip-path="url(#id_0)" d="M122.00195 138.71132C122.00195 140.36818 120.658806 141.71132 119.00195 141.71132C117.3451 141.71132 116.00195 140.36818 116.00195 138.71132C116.00195 137.05446 117.3451 135.71132 119.00195 135.71132C120.658806 135.71132 122.00195 137.05446 122.00195 138.71132Z" fill-rule="nonzero"/><path fill="#000000" fill-opacity="0.0" clip-path="url(#id_0)" d="M126.930954 146.8913C126.930954 148.54816 125.58781 149.8913 123.930954 149.8913C122.2741 149.8913 120.930954 148.54816 120.930954 146.8913C120.930954 145.23445 122.2741 143.8913 123.930954 143.8913C125.58781 143.8913 126.930954 145.23445 126.930954 146.8913Z" fill-rule="nonzero"/><path fill="#000000" fill-opacity="0.0" clip-path="url(#id_0)" d="M131.86 155.07616C131.86 156.73302 130.51686 158.07616 128.86 158.07616C127.20315 158.07616 125.86 156.73302 125.86 155.07616C125.86 153.41931 127.20315 152.07616 128.86 152.07616C130.51686 152.07616 131.86 153.41931 131.86 155.07616Z" fill-rule="nonzero"/><path fill="#000000" fill-opacity="0.0" clip-path="url(#id_0)" d="M136.789 163.266C136.789 164.92285 135.44586 166.266 133.789 166.266C132.13214 166.266 130.789 164.92285 130.789 163.266C130.789 161.60915 132.13214 160.266 133.789 160.266C135.44586 160.266 136.789 161.60915 136.789 163.266Z" fill-rule="nonzero"/><path fill="#000000" fill-opacity="0.0" clip-path="url(#id_0)" d="M141.71785 171.46083C141.71785 173.11769 140.37471 174.46083 138.71785 174.46083C137.061 174.46083 135.71785 173.11769 135.71785 171.46083C135.71785 169.80399 137.061 168.46083 138.71785 168.46083C140.37471 168.46083 141.71785 169.80399 141.71785 171.46083Z" fill-rule="nonzero"/><path fill="#000000" fill-opacity="0.0" clip-path="url(#id_0)" d="M146.64685 179.66055C146.64685 181.3174 145.30371 182.66055 143.64685 182.66055C141.99 182.66055 140.64685 181.3174 140.64685 179.66055C140.64685 178.0037 141.99 176.66055 143.64685 176.66055C145.30371 176.66055 146.64685 178.0037 146.64685 179.66055Z" fill-rule="nonzero"/><path fill="#000000" fill-opacity="0.0" clip-path="url(#id_0)" d="M151.57585 187.86525C151.57585 189.5221 150.23271 190.86525 148.57585 190.86525C146.919 190.86525 145.57585 189.5221 145.57585 187.86525C145.57585 186.20839 146.919 184.86525 148.57585 184.86525C150.23271 184.86525 151.57585 186.20839 151.57585 187.86525Z" fill-rule="nonzero"/><path fill="#000000" fill-opacity="0.0" clip-path="url(#id_0)" d="M156.50485 196.07462C156.50485 197.73146 155.16171 199.07462 153.50485 199.07462C151.848 199.07462 150.50485 197.73146 150.50485 196.07462C150.50485 194.41776 151.848 193.07462 153.50485 193.07462C155.16171 193.07462 156.50485 194.41776 156.50485 196.07462Z" fill-rule="nonzero"/><path fill="#000000" fill-opacity="0.0" clip-path="url(#id_0)" d="M161.43385 204.2897C161.43385 205.94655 160.09071 207.2897 158.43385 207.2897C156.77701 207.2897 155.43385 205.94655 155.43385 204.2897C155.43385 202.63284 156.77701 201.2897 158.43385 201.2897C160.09071 201.2897 161.43385 202.63284 161.43385 204.2897Z" fill-rule="nonzero"/><path fill="#000000" fill-opacity="0.0" clip-path="url(#id_0)" d="M166.36285 212.50903C166.36285 214.1659 165.01971 215.50903 163.36285 215.50903C161.706 215.50903 160.36285 214.1659 160.36285 212.50903C160.36285 210.85219 161.706 209.50903 163.36285 209.50903C165.01971 209.50903 166.36285 210.85219 166.36285 212.50903Z" fill-rule="nonzero"/><path fill="#000000" fill-opacity="0.0" clip-path="url(#id_0)" d="M171.29185 220.73367C171.29185 222.39053 169.94872 223.73367 168.29185 223.73367C166.635 223.73367 165.29185 222.39053 165.29185 220.73367C165.29185 219.07683 166.635 217.73367 168.29185 217.73367C169.94872 217.73367 171.29185 219.07683 171.29185 220.73367Z" fill-rule="nonzero"/><path fill="#000000" fill-opacity="0.0" clip-path="url(#id_0)" d="M176.22086 228.96362C176.22086 230.62048 174.87772 231.96362 173.22086 231.96362C171.564 231.96362 170.22086 230.62048 170.22086 228.96362C170.22086 227.30676 171.564 225.96362 173.22086 225.96362C174.87772 225.96362 176.22086 227.30676 176.22086 228.96362Z" fill-rule="nonzero"/><path fill="#000000" fill-opacity="0.0" clip-path="url(#id_0)" d="M181.14986 237.19781C181.14986 238.85466 179.8067 240.19781 178.14986 240.19781C176.493 240.19781 175.14986 238.85466 175.14986 237.19781C175.14986 235.54095 176.493 234.19781 178.14986 234.19781C179.8067 234.19781 181.14986 235.54095 181.14986 237.19781Z" fill-rule="nonzero"/><path fill="#000000" fill-opacity="0.0" clip-path="url(#id_0)" d="M186.07886 245.4373C186.07886 247.09416 184.7357 248.4373 183.07886 248.4373C181.422 248.4373 180.07886 247.09416 180.07886 245.4373C180.07886 243.78046 181.422 242.4373 183.07886 242.4373C184.7357 242.4373 186.07886 243.78046 186.07886 245.4373Z" fill-rule="nonzero"/><path fill="#000000" fill-opacity="0.0" clip-path="url(#id_0)" d="M191.00786 253.6821C191.00786 255.33896 189.6647 256.6821 188.00786 256.6821C186.351 256.6821 185.00786 255.33896 185.00786 253.6821C185.00786 252.02525 186.351 250.6821 188.00786 250.6821C189.6647 250.6821 191.00786 252.02525 191.00786 253.6821Z" fill-rule="nonzero"/><path fill="#000000" d="M324.10938 349.45L324.10938 341.8719L321.28125 341.8719L321.28125 340.85626L328.09375 340.85626L328.09375 341.8719L325.25 341.8719L325.25 349.45L324.10938 349.45ZM328.79688 342.075L328.79688 340.85626L329.85938 340.85626L329.85938 342.075L328.79688 342.075ZM328.79688 349.45L328.79688 343.23126L329.85938 343.23126L329.85938 349.45L328.79688 349.45ZM331.79688 349.45L331.79688 343.23126L332.73438 343.23126L332.73438 344.10626Q333.03125 343.6375 333.51562 343.3719Q334.0 343.09064 334.625 343.09064Q335.3125 343.09064 335.75 343.3719Q336.20312 343.65314 336.375 344.16876Q337.125 343.09064 338.29688 343.09064Q339.23438 343.09064 339.71875 343.60626Q340.21875 344.10626 340.21875 345.1844L340.21875 349.45L339.17188 349.45L339.17188 345.52814Q339.17188 344.90314 339.0625 344.6219Q338.96875 344.34064 338.70312 344.16876Q338.4375 343.9969 338.0625 343.9969Q337.40625 343.9969 336.96875 344.4344Q336.54688 344.8719 336.54688 345.84064L336.54688 349.45L335.48438 349.45L335.48438 345.40314Q335.48438 344.7 335.21875 344.35626Q334.96875 343.9969 334.39062 343.9969Q333.9375 343.9969 333.5625 344.23126Q333.1875 344.46564 333.01562 344.91876Q332.84375 345.3719 332.84375 346.21564L332.84375 349.45L331.79688 349.45ZM347.04688 347.45L348.14062 347.575Q347.89062 348.52814 347.1875 349.0594Q346.48438 349.59064 345.40625 349.59064Q344.04688 349.59064 343.23438 348.7469Q342.4375 347.90314 342.4375 346.3875Q342.4375 344.825 343.25 343.96564Q344.0625 343.09064 345.34375 343.09064Q346.59375 343.09064 347.375 343.9344Q348.17188 344.77814 348.17188 346.325Q348.17188 346.41876 348.17188 346.60626L343.53125 346.60626Q343.59375 347.6375 344.10938 348.1844Q344.625 348.71564 345.40625 348.71564Q345.98438 348.71564 346.39062 348.41876Q346.8125 348.10626 347.04688 347.45ZM343.59375 345.7469L347.0625 345.7469Q347.0 344.95 346.67188 344.5594Q346.15625 343.95 345.35938 343.95Q344.625 343.95 344.125 344.4344Q343.64062 344.91876 343.59375 345.7469Z" fill-rule="nonzero"/><path fill="#000000" d="M26.753138 229.42917L26.596888 227.74167Q27.440638 227.58542 27.846888 227.1323Q28.237513 226.66354 28.237513 225.86667Q28.237513 225.03854 27.893763 224.61667Q27.534388 224.17917 27.050013 224.17917Q26.753138 224.17917 26.534388 224.36667Q26.315638 224.53854 26.159388 224.99167Q26.050013 225.28854 25.784388 226.36667Q25.440638 227.77292 24.940638 228.33542Q24.221888 229.11667 23.206263 229.11667Q22.550013 229.11667 21.987513 228.7573Q21.409388 228.3823 21.112513 227.67917Q20.815638 226.97604 20.815638 225.99167Q20.815638 224.36667 21.534388 223.55417Q22.237513 222.74167 23.409388 222.6948L23.487513 224.42917Q22.831263 224.53854 22.550013 224.91354Q22.253138 225.27292 22.253138 226.0073Q22.253138 226.7573 22.565638 227.1948Q22.753138 227.46042 23.096888 227.46042Q23.393763 227.46042 23.612513 227.21042Q23.893763 226.8823 24.190638 225.61667Q24.487513 224.35104 24.815638 223.74167Q25.128138 223.1323 25.690638 222.78854Q26.237513 222.4448 27.050013 222.4448Q27.784388 222.4448 28.440638 222.86667Q29.081263 223.27292 29.393763 224.02292Q29.706263 224.77292 29.706263 225.8823Q29.706263 227.52292 28.956263 228.39792Q28.190638 229.2573 26.753138 229.42917ZM29.550013 217.14792L29.550013 218.78854L23.346888 218.78854Q24.190638 219.6948 24.596888 220.91354L23.096888 220.91354Q22.893763 220.27292 22.300013 219.52292Q21.706263 218.7573 20.925013 218.47604L20.925013 217.14792L29.550013 217.14792ZM29.550013 210.14792L29.550013 211.78854L23.346888 211.78854Q24.190638 212.6948 24.596888 213.91354L23.096888 213.91354Q22.893763 213.27292 22.300013 212.52292Q21.706263 211.7573 20.925013 211.47604L20.925013 210.14792L29.550013 210.14792ZM32.08126 201.27292L32.08126 202.39792Q30.721888 203.30417 29.268763 203.77292Q27.800013 204.24167 26.440638 204.24167Q24.737513 204.24167 23.237513 203.66354Q21.925013 203.14792 20.815638 202.3823L20.815638 201.2573Q22.581263 202.05417 23.831263 202.36667Q25.081263 202.66354 26.471888 202.66354Q27.440638 202.66354 28.456263 202.49167Q29.456263 202.30417 30.362513 201.99167Q30.956263 201.78854 32.08126 201.27292ZM29.550013 200.02292L20.956263 200.02292L20.956263 197.41354L26.815638 195.86667L20.956263 194.3198L20.956263 191.72604L29.550013 191.72604L29.550013 193.33542L22.784388 193.33542L29.550013 195.03854L29.550013 196.71042L22.784388 198.39792L29.550013 198.39792L29.550013 200.02292ZM29.550013 189.99167L20.956263 189.99167L20.956263 187.21042Q20.956263 185.6323 21.081263 185.14792Q21.284388 184.41354 21.940638 183.91354Q22.581263 183.41354 23.596888 183.41354Q24.393763 183.41354 24.940638 183.71042Q25.471888 183.99167 25.784388 184.42917Q26.081263 184.86667 26.190638 185.33542Q26.315638 185.9448 26.315638 187.1323L26.315638 188.2573L29.550013 188.2573L29.550013 189.99167ZM22.409388 188.2573L24.846888 188.2573L24.846888 187.30417Q24.846888 186.28854 24.721888 185.9448Q24.581263 185.58542 24.300013 185.39792Q24.003138 185.1948 23.628138 185.1948Q23.159388 185.1948 22.862513 185.47604Q22.550013 185.7573 22.471888 186.17917Q22.409388 186.47604 22.409388 187.41354L22.409388 188.2573ZM25.221888 180.77292L24.956263 182.27292Q24.050013 182.02292 23.628138 181.41354Q23.190638 180.78854 23.190638 179.5698Q23.190638 178.47604 23.456263 177.9448Q23.706263 177.39792 24.112513 177.17917Q24.503138 176.96042 25.581263 176.96042L27.503138 176.97604Q28.331263 176.97604 28.721888 176.89792Q29.096888 176.8198 29.550013 176.60104L29.550013 178.22604Q29.378138 178.28854 29.065638 178.3823Q28.909388 178.42917 28.862513 178.4448Q29.284388 178.86667 29.487513 179.35104Q29.690638 179.8198 29.690638 180.36667Q29.690638 181.33542 29.175013 181.89792Q28.643763 182.4448 27.846888 182.4448Q27.315638 182.4448 26.909388 182.1948Q26.503138 181.92917 26.284388 181.47604Q26.050013 181.02292 25.893763 180.16354Q25.675013 179.02292 25.487513 178.5698L25.331263 178.5698Q24.846888 178.5698 24.643763 178.80417Q24.440638 179.03854 24.440638 179.6948Q24.440638 180.1323 24.612513 180.3823Q24.784388 180.61667 25.221888 180.77292ZM26.565638 178.5698Q26.659388 178.8823 26.815638 179.5698Q26.956263 180.2573 27.096888 180.47604Q27.331263 180.78854 27.675013 180.78854Q28.018763 180.78854 28.284388 180.53854Q28.534388 180.27292 28.534388 179.8823Q28.534388 179.42917 28.237513 179.02292Q28.018763 178.72604 27.690638 178.6323Q27.487513 178.5698 26.893763 178.5698L26.565638 178.5698ZM32.08126 175.46042Q31.034388 174.97604 30.471888 174.77292Q29.925013 174.5698 29.206263 174.41354Q28.471888 174.24167 27.815638 174.16354Q27.159388 174.0698 26.471888 174.0698Q25.081263 174.0698 23.831263 174.36667Q22.581263 174.66354 20.815638 175.47604L20.815638 174.35104Q22.065638 173.47604 23.487513 172.99167Q24.893763 172.49167 26.346888 172.49167Q27.581263 172.49167 28.971888 172.8823Q30.550013 173.3198 32.08126 174.3198L32.08126 175.46042Z" fill-rule="nonzero"/><path fill="#000000" d="M50.925 301.8719L50.925 300.8094L54.175 300.8094L54.175 301.8719L50.925 301.8719ZM60.596874 303.4344L60.596874 304.45L54.909374 304.45Q54.909374 304.075 55.034374 303.71564Q55.253124 303.1375 55.721874 302.575Q56.20625 302.0125 57.1125 301.27814Q58.51875 300.1219 59.003124 299.45Q59.503124 298.77814 59.503124 298.1844Q59.503124 297.5594 59.05 297.1375Q58.596874 296.7 57.878124 296.7Q57.1125 296.7 56.659374 297.15314Q56.20625 297.60626 56.190624 298.41876L55.1125 298.3094Q55.221874 297.09064 55.940624 296.46564Q56.675 295.825 57.909374 295.825Q59.14375 295.825 59.8625 296.5125Q60.58125 297.2 60.58125 298.21564Q60.58125 298.73126 60.3625 299.23126Q60.159374 299.71564 59.659374 300.27814Q59.175 300.825 58.05 301.77814Q57.096874 302.575 56.815624 302.8719Q56.55 303.15314 56.378124 303.4344L60.596874 303.4344ZM62.05 300.21564Q62.05 298.6844 62.3625 297.7625Q62.675 296.825 63.284374 296.325Q63.909374 295.825 64.84688 295.825Q65.53438 295.825 66.05 296.10626Q66.58125 296.3875 66.925 296.91876Q67.26875 297.4344 67.45625 298.1844Q67.64375 298.9344 67.64375 300.21564Q67.64375 301.73126 67.33125 302.65314Q67.03438 303.575 66.40938 304.09064Q65.8 304.59064 64.84688 304.59064Q63.6125 304.59064 62.89375 303.7Q62.05 302.6375 62.05 300.21564ZM63.128124 300.21564Q63.128124 302.325 63.628124 303.02814Q64.12813 303.73126 64.84688 303.73126Q65.58125 303.73126 66.06563 303.02814Q66.56563 302.325 66.56563 300.21564Q66.56563 298.09064 66.06563 297.40314Q65.58125 296.7 64.83125 296.7Q64.1125 296.7 63.675 297.3094Q63.128124 298.09064 63.128124 300.21564ZM69.05 300.21564Q69.05 298.6844 69.3625 297.7625Q69.675 296.825 70.28438 296.325Q70.90938 295.825 71.84688 295.825Q72.53438 295.825 73.05 296.10626Q73.58125 296.3875 73.925 296.91876Q74.26875 297.4344 74.45625 298.1844Q74.64375 298.9344 74.64375 300.21564Q74.64375 301.73126 74.33125 302.65314Q74.03438 303.575 73.40938 304.09064Q72.8 304.59064 71.84688 304.59064Q70.6125 304.59064 69.89375 303.7Q69.05 302.6375 69.05 300.21564ZM70.12813 300.21564Q70.12813 302.325 70.62813 303.02814Q71.12813 303.73126 71.84688 303.73126Q72.58125 303.73126 73.06563 303.02814Q73.56563 302.325 73.56563 300.21564Q73.56563 298.09064 73.06563 297.40314Q72.58125 296.7 71.83125 296.7Q71.1125 296.7 70.675 297.3094Q70.12813 298.09064 70.12813 300.21564ZM76.05 300.21564Q76.05 298.6844 76.3625 297.7625Q76.675 296.825 77.28438 296.325Q77.90938 295.825 78.84688 295.825Q79.53438 295.825 80.05 296.10626Q80.58125 296.3875 80.925 296.91876Q81.26875 297.4344 81.45625 298.1844Q81.64375 298.9344 81.64375 300.21564Q81.64375 301.73126 81.33125 302.65314Q81.03438 303.575 80.40938 304.09064Q79.8 304.59064 78.84688 304.59064Q77.6125 304.59064 76.89375 303.7Q76.05 302.6375 76.05 300.21564ZM77.12813 300.21564Q77.12813 302.325 77.62813 303.02814Q78.12813 303.73126 78.84688 303.73126Q79.58125 303.73126 80.06563 303.02814Q80.56563 302.325 80.56563 300.21564Q80.56563 298.09064 80.06563 297.40314Q79.58125 296.7 78.83125 296.7Q78.1125 296.7 77.675 297.3094Q77.12813 298.09064 77.12813 300.21564Z" fill-rule="nonzero"/><path fill="#000000" d="M50.925 248.83022L50.925 247.76772L54.175 247.76772L54.175 248.83022L50.925 248.83022ZM59.01875 251.40834L57.971874 251.40834L57.971874 244.68959Q57.58125 245.04897 56.95625 245.42397Q56.346874 245.78334 55.8625 245.95522L55.8625 244.93959Q56.7375 244.51772 57.39375 243.93959Q58.065624 243.34584 58.346874 242.78334L59.01875 242.78334L59.01875 251.40834ZM62.05 249.15834L63.159374 249.06459Q63.284374 249.87709 63.721874 250.28334Q64.175 250.68959 64.81563 250.68959Q65.56563 250.68959 66.09688 250.11147Q66.62813 249.53334 66.62813 248.59584Q66.62813 247.68959 66.1125 247.17397Q65.6125 246.64272 64.78438 246.64272Q64.28438 246.64272 63.8625 246.87709Q63.45625 247.11147 63.221874 247.47084L62.2375 247.34584L63.065624 242.93959L67.34688 242.93959L67.34688 243.93959L63.909374 243.93959L63.45625 246.25209Q64.22188 245.70522 65.06563 245.70522Q66.19063 245.70522 66.95625 246.48647Q67.7375 247.26772 67.7375 248.50209Q67.7375 249.65834 67.06563 250.51772Q66.2375 251.54897 64.81563 251.54897Q63.64375 251.54897 62.89375 250.89272Q62.159374 250.23647 62.05 249.15834ZM69.05 247.17397Q69.05 245.64272 69.3625 244.72084Q69.675 243.78334 70.28438 243.28334Q70.90938 242.78334 71.84688 242.78334Q72.53438 242.78334 73.05 243.06459Q73.58125 243.34584 73.925 243.87709Q74.26875 244.39272 74.45625 245.14272Q74.64375 245.89272 74.64375 247.17397Q74.64375 248.68959 74.33125 249.61147Q74.03438 250.53334 73.40938 251.04897Q72.8 251.54897 71.84688 251.54897Q70.6125 251.54897 69.89375 250.65834Q69.05 249.59584 69.05 247.17397ZM70.12813 247.17397Q70.12813 249.28334 70.62813 249.98647Q71.12813 250.68959 71.84688 250.68959Q72.58125 250.68959 73.06563 249.98647Q73.56563 249.28334 73.56563 247.17397Q73.56563 245.04897 73.06563 244.36147Q72.58125 243.65834 71.83125 243.65834Q71.1125 243.65834 70.675 244.26772Q70.12813 245.04897 70.12813 247.17397ZM76.05 247.17397Q76.05 245.64272 76.3625 244.72084Q76.675 243.78334 77.28438 243.28334Q77.90938 242.78334 78.84688 242.78334Q79.53438 242.78334 80.05 243.06459Q80.58125 243.34584 80.925 243.87709Q81.26875 244.39272 81.45625 245.14272Q81.64375 245.89272 81.64375 247.17397Q81.64375 248.68959 81.33125 249.61147Q81.03438 250.53334 80.40938 251.04897Q79.8 251.54897 78.84688 251.54897Q77.6125 251.54897 76.89375 250.65834Q76.05 249.59584 76.05 247.17397ZM77.12813 247.17397Q77.12813 249.28334 77.62813 249.98647Q78.12813 250.68959 78.84688 250.68959Q79.58125 250.68959 80.06563 249.98647Q80.56563 249.28334 80.56563 247.17397Q80.56563 245.04897 80.06563 244.36147Q79.58125 243.65834 78.83125 243.65834Q78.1125 243.65834 77.675 244.26772Q77.12813 245.04897 77.12813 247.17397Z" fill-rule="nonzero"/><path fill="#000000" d="M50.925 195.78854L50.925 194.72604L54.175 194.72604L54.175 195.78854L50.925 195.78854ZM59.01875 198.36667L57.971874 198.36667L57.971874 191.64792Q57.58125 192.0073 56.95625 192.3823Q56.346874 192.74167 55.8625 192.91354L55.8625 191.89792Q56.7375 191.47604 57.39375 190.89792Q58.065624 190.30417 58.346874 189.74167L59.01875 189.74167L59.01875 198.36667ZM62.05 194.1323Q62.05 192.60104 62.3625 191.67917Q62.675 190.74167 63.284374 190.24167Q63.909374 189.74167 64.84688 189.74167Q65.53438 189.74167 66.05 190.02292Q66.58125 190.30417 66.925 190.83542Q67.26875 191.35104 67.45625 192.10104Q67.64375 192.85104 67.64375 194.1323Q67.64375 195.64792 67.33125 196.5698Q67.03438 197.49167 66.40938 198.0073Q65.8 198.5073 64.84688 198.5073Q63.6125 198.5073 62.89375 197.61667Q62.05 196.55417 62.05 194.1323ZM63.128124 194.1323Q63.128124 196.24167 63.628124 196.9448Q64.12813 197.64792 64.84688 197.64792Q65.58125 197.64792 66.06563 196.9448Q66.56563 196.24167 66.56563 194.1323Q66.56563 192.0073 66.06563 191.3198Q65.58125 190.61667 64.83125 190.61667Q64.1125 190.61667 63.675 191.22604Q63.128124 192.0073 63.128124 194.1323ZM69.05 194.1323Q69.05 192.60104 69.3625 191.67917Q69.675 190.74167 70.28438 190.24167Q70.90938 189.74167 71.84688 189.74167Q72.53438 189.74167 73.05 190.02292Q73.58125 190.30417 73.925 190.83542Q74.26875 191.35104 74.45625 192.10104Q74.64375 192.85104 74.64375 194.1323Q74.64375 195.64792 74.33125 196.5698Q74.03438 197.49167 73.40938 198.0073Q72.8 198.5073 71.84688 198.5073Q70.6125 198.5073 69.89375 197.61667Q69.05 196.55417 69.05 194.1323ZM70.12813 194.1323Q70.12813 196.24167 70.62813 196.9448Q71.12813 197.64792 71.84688 197.64792Q72.58125 197.64792 73.06563 196.9448Q73.56563 196.24167 73.56563 194.1323Q73.56563 192.0073 73.06563 191.3198Q72.58125 190.61667 71.83125 190.61667Q71.1125 190.61667 70.675 191.22604Q70.12813 192.0073 70.12813 194.1323ZM76.05 194.1323Q76.05 192.60104 76.3625 191.67917Q76.675 190.74167 77.28438 190.24167Q77.90938 189.74167 78.84688 189.74167Q79.53438 189.74167 80.05 190.02292Q80.58125 190.30417 80.925 190.83542Q81.26875 191.35104 81.45625 192.10104Q81.64375 192.85104 81.64375 194.1323Q81.64375 195.64792 81.33125 196.5698Q81.03438 197.49167 80.40938 198.0073Q79.8 198.5073 78.84688 198.5073Q77.6125 198.5073 76.89375 197.61667Q76.05 196.55417 76.05 194.1323ZM77.12813 194.1323Q77.12813 196.24167 77.62813 196.9448Q78.12813 197.64792 78.84688 197.64792Q79.58125 197.64792 80.06563 196.9448Q80.56563 196.24167 80.56563 194.1323Q80.56563 192.0073 80.06563 191.3198Q79.58125 190.61667 78.83125 190.61667Q78.1125 190.61667 77.675 191.22604Q77.12813 192.0073 77.12813 194.1323Z" fill-rule="nonzero"/><path fill="#000000" d="M57.925 142.74687L57.925 141.68437L61.175 141.68437L61.175 142.74687L57.925 142.74687ZM62.05 143.075L63.159374 142.98125Q63.284374 143.79375 63.721874 144.2Q64.175 144.60625 64.81563 144.60625Q65.56563 144.60625 66.09688 144.02812Q66.62813 143.45 66.62813 142.5125Q66.62813 141.60625 66.1125 141.09062Q65.6125 140.55937 64.78438 140.55937Q64.28438 140.55937 63.8625 140.79375Q63.45625 141.02812 63.221874 141.3875L62.2375 141.2625L63.065624 136.85625L67.34688 136.85625L67.34688 137.85625L63.909374 137.85625L63.45625 140.16875Q64.22188 139.62187 65.06563 139.62187Q66.19063 139.62187 66.95625 140.40312Q67.7375 141.18437 67.7375 142.41875Q67.7375 143.575 67.06563 144.43437Q66.2375 145.46562 64.81563 145.46562Q63.64375 145.46562 62.89375 144.80937Q62.159374 144.15312 62.05 143.075ZM69.05 141.09062Q69.05 139.55937 69.3625 138.6375Q69.675 137.7 70.28438 137.2Q70.90938 136.7 71.84688 136.7Q72.53438 136.7 73.05 136.98125Q73.58125 137.2625 73.925 137.79375Q74.26875 138.30937 74.45625 139.05937Q74.64375 139.80937 74.64375 141.09062Q74.64375 142.60625 74.33125 143.52812Q74.03438 144.45 73.40938 144.96562Q72.8 145.46562 71.84688 145.46562Q70.6125 145.46562 69.89375 144.575Q69.05 143.5125 69.05 141.09062ZM70.12813 141.09062Q70.12813 143.2 70.62813 143.90312Q71.12813 144.60625 71.84688 144.60625Q72.58125 144.60625 73.06563 143.90312Q73.56563 143.2 73.56563 141.09062Q73.56563 138.96562 73.06563 138.27812Q72.58125 137.575 71.83125 137.575Q71.1125 137.575 70.675 138.18437Q70.12813 138.96562 70.12813 141.09062ZM76.05 141.09062Q76.05 139.55937 76.3625 138.6375Q76.675 137.7 77.28438 137.2Q77.90938 136.7 78.84688 136.7Q79.53438 136.7 80.05 136.98125Q80.58125 137.2625 80.925 137.79375Q81.26875 138.30937 81.45625 139.05937Q81.64375 139.80937 81.64375 141.09062Q81.64375 142.60625 81.33125 143.52812Q81.03438 144.45 80.40938 144.96562Q79.8 145.46562 78.84688 145.46562Q77.6125 145.46562 76.89375 144.575Q76.05 143.5125 76.05 141.09062ZM77.12813 141.09062Q77.12813 143.2 77.62813 143.90312Q78.12813 144.60625 78.84688 144.60625Q79.58125 144.60625 80.06563 143.90312Q80.56563 143.2 80.56563 141.09062Q80.56563 138.96562 80.06563 138.27812Q79.58125 137.575 78.83125 137.575Q78.1125 137.575 77.675 138.18437Q77.12813 138.96562 77.12813 141.09062Z" fill-rule="nonzero"/><path fill="#000000" d="M76.05 88.04896Q76.05 86.51771 76.3625 85.59583Q76.675 84.65833 77.28438 84.15833Q77.90938 83.65833 78.84688 83.65833Q79.53438 83.65833 80.05 83.93958Q80.58125 84.22083 80.925 84.75208Q81.26875 85.26771 81.45625 86.01771Q81.64375 86.76771 81.64375 88.04896Q81.64375 89.56458 81.33125 90.48646Q81.03438 91.40833 80.40938 91.92396Q79.8 92.42396 78.84688 92.42396Q77.6125 92.42396 76.89375 91.53333Q76.05 90.47083 76.05 88.04896ZM77.12813 88.04896Q77.12813 90.15833 77.62813 90.86146Q78.12813 91.56458 78.84688 91.56458Q79.58125 91.56458 80.06563 90.86146Q80.56563 90.15833 80.56563 88.04896Q80.56563 85.92396 80.06563 85.23646Q79.58125 84.53333 78.83125 84.53333Q78.1125 84.53333 77.675 85.14271Q77.12813 85.92396 77.12813 88.04896Z" fill-rule="nonzero"/><path fill="#000000" d="M77.05 313.21564Q77.05 311.6844 77.3625 310.7625Q77.675 309.825 78.28438 309.325Q78.90938 308.825 79.84688 308.825Q80.53438 308.825 81.05 309.10626Q81.58125 309.3875 81.925 309.91876Q82.26875 310.4344 82.45625 311.1844Q82.64375 311.9344 82.64375 313.21564Q82.64375 314.73126 82.33125 315.65314Q82.03438 316.575 81.40938 317.09064Q80.8 317.59064 79.84688 317.59064Q78.6125 317.59064 77.89375 316.7Q77.05 315.6375 77.05 313.21564ZM78.12813 313.21564Q78.12813 315.325 78.62813 316.02814Q79.12813 316.73126 79.84688 316.73126Q80.58125 316.73126 81.06563 316.02814Q81.56563 315.325 81.56563 313.21564Q81.56563 311.09064 81.06563 310.40314Q80.58125 309.7 79.83125 309.7Q79.1125 309.7 78.675 310.3094Q78.12813 311.09064 78.12813 313.21564ZM84.64375 317.45L84.64375 316.2469L85.84688 316.2469L85.84688 317.45L84.64375 317.45ZM87.05 313.21564Q87.05 311.6844 87.3625 310.7625Q87.675 309.825 88.28438 309.325Q88.90938 308.825 89.84688 308.825Q90.53438 308.825 91.05 309.10626Q91.58125 309.3875 91.925 309.91876Q92.26875 310.4344 92.45625 311.1844Q92.64375 311.9344 92.64375 313.21564Q92.64375 314.73126 92.33125 315.65314Q92.03438 316.575 91.40938 317.09064Q90.8 317.59064 89.84688 317.59064Q88.6125 317.59064 87.89375 316.7Q87.05 315.6375 87.05 313.21564ZM88.12813 313.21564Q88.12813 315.325 88.62813 316.02814Q89.12813 316.73126 89.84688 316.73126Q90.58125 316.73126 91.06563 316.02814Q91.56563 315.325 91.56563 313.21564Q91.56563 311.09064 91.06563 310.40314Q90.58125 309.7 89.83125 309.7Q89.1125 309.7 88.675 310.3094Q88.12813 311.09064 88.12813 313.21564ZM94.05 313.21564Q94.05 311.6844 94.3625 310.7625Q94.675 309.825 95.28438 309.325Q95.90938 308.825 96.84688 308.825Q97.53438 308.825 98.05 309.10626Q98.58125 309.3875 98.925 309.91876Q99.26875 310.4344 99.45625 311.1844Q99.64375 311.9344 99.64375 313.21564Q99.64375 314.73126 99.33125 315.65314Q99.03438 316.575 98.40938 317.09064Q97.8 317.59064 96.84688 317.59064Q95.6125 317.59064 94.89375 316.7Q94.05 315.6375 94.05 313.21564ZM95.12813 313.21564Q95.12813 315.325 95.62813 316.02814Q96.12813 316.73126 96.84688 316.73126Q97.58125 316.73126 98.06563 316.02814Q98.56563 315.325 98.56563 313.21564Q98.56563 311.09064 98.06563 310.40314Q97.58125 309.7 96.83125 309.7Q96.1125 309.7 95.675 310.3094Q95.12813 311.09064 95.12813 313.21564Z" fill-rule="nonzero"/><path fill="#000000" d="M200.275 313.21564Q200.275 311.6844 200.5875 310.7625Q200.9 309.825 201.50937 309.325Q202.13437 308.825 203.07187 308.825Q203.75937 308.825 204.275 309.10626Q204.80624 309.3875 205.15 309.91876Q205.49374 310.4344 205.68124 311.1844Q205.86874 311.9344 205.86874 313.21564Q205.86874 314.73126 205.55624 315.65314Q205.25937 316.575 204.63437 317.09064Q204.025 317.59064 203.07187 317.59064Q201.8375 317.59064 201.11874 316.7Q200.275 315.6375 200.275 313.21564ZM201.35312 313.21564Q201.35312 315.325 201.85312 316.02814Q202.35312 316.73126 203.07187 316.73126Q203.80624 316.73126 204.29062 316.02814Q204.79062 315.325 204.79062 313.21564Q204.79062 311.09064 204.29062 310.40314Q203.80624 309.7 203.05624 309.7Q202.3375 309.7 201.9 310.3094Q201.35312 311.09064 201.35312 313.21564ZM207.86874 317.45L207.86874 316.2469L209.07187 316.2469L209.07187 317.45L207.86874 317.45ZM215.82187 316.4344L215.82187 317.45L210.13437 317.45Q210.13437 317.075 210.25937 316.71564Q210.47812 316.1375 210.94687 315.575Q211.43124 315.0125 212.3375 314.27814Q213.74374 313.1219 214.22812 312.45Q214.72812 311.77814 214.72812 311.1844Q214.72812 310.5594 214.275 310.1375Q213.82187 309.7 213.10312 309.7Q212.3375 309.7 211.88437 310.15314Q211.43124 310.60626 211.41562 311.41876L210.3375 311.3094Q210.44687 310.09064 211.16562 309.46564Q211.9 308.825 213.13437 308.825Q214.36874 308.825 215.0875 309.5125Q215.80624 310.2 215.80624 311.21564Q215.80624 311.73126 215.5875 312.23126Q215.38437 312.71564 214.88437 313.27814Q214.4 313.825 213.275 314.77814Q212.32187 315.575 212.04062 315.8719Q211.775 316.15314 211.60312 316.4344L215.82187 316.4344ZM217.275 315.2L218.38437 315.10626Q218.50937 315.91876 218.94687 316.325Q219.4 316.73126 220.04062 316.73126Q220.79062 316.73126 221.32187 316.15314Q221.85312 315.575 221.85312 314.6375Q221.85312 313.73126 221.3375 313.21564Q220.8375 312.6844 220.00937 312.6844Q219.50937 312.6844 219.0875 312.91876Q218.68124 313.15314 218.44687 313.5125L217.4625 313.3875L218.29062 308.98126L222.57187 308.98126L222.57187 309.98126L219.13437 309.98126L218.68124 312.29376Q219.44687 311.7469 220.29062 311.7469Q221.41562 311.7469 222.18124 312.52814Q222.9625 313.3094 222.9625 314.54376Q222.9625 315.7 222.29062 316.5594Q221.4625 317.59064 220.04062 317.59064Q218.86874 317.59064 218.11874 316.9344Q217.38437 316.27814 217.275 315.2Z" fill-rule="nonzero"/><path fill="#000000" d="M323.5 313.21564Q323.5 311.6844 323.8125 310.7625Q324.125 309.825 324.73438 309.325Q325.35938 308.825 326.29688 308.825Q326.98438 308.825 327.5 309.10626Q328.03125 309.3875 328.375 309.91876Q328.71875 310.4344 328.90625 311.1844Q329.09375 311.9344 329.09375 313.21564Q329.09375 314.73126 328.78125 315.65314Q328.48438 316.575 327.85938 317.09064Q327.25 317.59064 326.29688 317.59064Q325.0625 317.59064 324.34375 316.7Q323.5 315.6375 323.5 313.21564ZM324.57812 313.21564Q324.57812 315.325 325.07812 316.02814Q325.57812 316.73126 326.29688 316.73126Q327.03125 316.73126 327.51562 316.02814Q328.01562 315.325 328.01562 313.21564Q328.01562 311.09064 327.51562 310.40314Q327.03125 309.7 326.28125 309.7Q325.5625 309.7 325.125 310.3094Q324.57812 311.09064 324.57812 313.21564ZM331.09375 317.45L331.09375 316.2469L332.29688 316.2469L332.29688 317.45L331.09375 317.45ZM333.5 315.2L334.60938 315.10626Q334.73438 315.91876 335.17188 316.325Q335.625 316.73126 336.26562 316.73126Q337.01562 316.73126 337.54688 316.15314Q338.07812 315.575 338.07812 314.6375Q338.07812 313.73126 337.5625 313.21564Q337.0625 312.6844 336.23438 312.6844Q335.73438 312.6844 335.3125 312.91876Q334.90625 313.15314 334.67188 313.5125L333.6875 313.3875L334.51562 308.98126L338.79688 308.98126L338.79688 309.98126L335.35938 309.98126L334.90625 312.29376Q335.67188 311.7469 336.51562 311.7469Q337.64062 311.7469 338.40625 312.52814Q339.1875 313.3094 339.1875 314.54376Q339.1875 315.7 338.51562 316.5594Q337.6875 317.59064 336.26562 317.59064Q335.09375 317.59064 334.34375 316.9344Q333.60938 316.27814 333.5 315.2ZM340.5 313.21564Q340.5 311.6844 340.8125 310.7625Q341.125 309.825 341.73438 309.325Q342.35938 308.825 343.29688 308.825Q343.98438 308.825 344.5 309.10626Q345.03125 309.3875 345.375 309.91876Q345.71875 310.4344 345.90625 311.1844Q346.09375 311.9344 346.09375 313.21564Q346.09375 314.73126 345.78125 315.65314Q345.48438 316.575 344.85938 317.09064Q344.25 317.59064 343.29688 317.59064Q342.0625 317.59064 341.34375 316.7Q340.5 315.6375 340.5 313.21564ZM341.57812 313.21564Q341.57812 315.325 342.07812 316.02814Q342.57812 316.73126 343.29688 316.73126Q344.03125 316.73126 344.51562 316.02814Q345.01562 315.325 345.01562 313.21564Q345.01562 311.09064 344.51562 310.40314Q344.03125 309.7 343.28125 309.7Q342.5625 309.7 342.125 310.3094Q341.57812 311.09064 341.57812 313.21564Z" fill-rule="nonzero"/><path fill="#000000" d="M446.725 313.21564Q446.725 311.6844 447.0375 310.7625Q447.35 309.825 447.95938 309.325Q448.58438 308.825 449.52188 308.825Q450.20938 308.825 450.725 309.10626Q451.25626 309.3875 451.6 309.91876Q451.94376 310.4344 452.13126 311.1844Q452.31876 311.9344 452.31876 313.21564Q452.31876 314.73126 452.00626 315.65314Q451.70938 316.575 451.08438 317.09064Q450.475 317.59064 449.52188 317.59064Q448.2875 317.59064 447.56876 316.7Q446.725 315.6375 446.725 313.21564ZM447.80313 313.21564Q447.80313 315.325 448.30313 316.02814Q448.80313 316.73126 449.52188 316.73126Q450.25626 316.73126 450.74063 316.02814Q451.24063 315.325 451.24063 313.21564Q451.24063 311.09064 450.74063 310.40314Q450.25626 309.7 449.50626 309.7Q448.7875 309.7 448.35 310.3094Q447.80313 311.09064 447.80313 313.21564ZM454.31876 317.45L454.31876 316.2469L455.52188 316.2469L455.52188 317.45L454.31876 317.45ZM456.7875 309.98126L456.7875 308.96564L462.35 308.96564L462.35 309.79376Q461.5375 310.66876 460.725 312.1219Q459.92813 313.5594 459.49063 315.09064Q459.1625 316.16876 459.08438 317.45L457.99063 317.45Q458.00626 316.4344 458.38126 314.9969Q458.77188 313.5594 459.475 312.23126Q460.19376 310.90314 461.00626 309.98126L456.7875 309.98126ZM463.725 315.2L464.83438 315.10626Q464.95938 315.91876 465.39688 316.325Q465.85 316.73126 466.49063 316.73126Q467.24063 316.73126 467.77188 316.15314Q468.30313 315.575 468.30313 314.6375Q468.30313 313.73126 467.7875 313.21564Q467.2875 312.6844 466.45938 312.6844Q465.95938 312.6844 465.5375 312.91876Q465.13126 313.15314 464.89688 313.5125L463.9125 313.3875L464.74063 308.98126L469.02188 308.98126L469.02188 309.98126L465.58438 309.98126L465.13126 312.29376Q465.89688 311.7469 466.74063 311.7469Q467.86563 311.7469 468.63126 312.52814Q469.4125 313.3094 469.4125 314.54376Q469.4125 315.7 468.74063 316.5594Q467.9125 317.59064 466.49063 317.59064Q465.31876 317.59064 464.56876 316.9344Q463.83438 316.27814 463.725 315.2Z" fill-rule="nonzero"/><path fill="#000000" d="M573.91876 317.45L572.8719 317.45L572.8719 310.73126Q572.48126 311.09064 571.85626 311.46564Q571.2469 311.825 570.7625 311.9969L570.7625 310.98126Q571.6375 310.5594 572.29376 309.98126Q572.96564 309.3875 573.2469 308.825L573.91876 308.825L573.91876 317.45ZM577.54376 317.45L577.54376 316.2469L578.7469 316.2469L578.7469 317.45L577.54376 317.45ZM579.95 313.21564Q579.95 311.6844 580.2625 310.7625Q580.575 309.825 581.1844 309.325Q581.8094 308.825 582.7469 308.825Q583.4344 308.825 583.95 309.10626Q584.48126 309.3875 584.825 309.91876Q585.16876 310.4344 585.35626 311.1844Q585.54376 311.9344 585.54376 313.21564Q585.54376 314.73126 585.23126 315.65314Q584.9344 316.575 584.3094 317.09064Q583.7 317.59064 582.7469 317.59064Q581.5125 317.59064 580.79376 316.7Q579.95 315.6375 579.95 313.21564ZM581.02814 313.21564Q581.02814 315.325 581.52814 316.02814Q582.02814 316.73126 582.7469 316.73126Q583.48126 316.73126 583.96564 316.02814Q584.46564 315.325 584.46564 313.21564Q584.46564 311.09064 583.96564 310.40314Q583.48126 309.7 582.73126 309.7Q582.0125 309.7 581.575 310.3094Q581.02814 311.09064 581.02814 313.21564ZM586.95 313.21564Q586.95 311.6844 587.2625 310.7625Q587.575 309.825 588.1844 309.325Q588.8094 308.825 589.7469 308.825Q590.4344 308.825 590.95 309.10626Q591.48126 309.3875 591.825 309.91876Q592.16876 310.4344 592.35626 311.1844Q592.54376 311.9344 592.54376 313.21564Q592.54376 314.73126 592.23126 315.65314Q591.9344 316.575 591.3094 317.09064Q590.7 317.59064 589.7469 317.59064Q588.5125 317.59064 587.79376 316.7Q586.95 315.6375 586.95 313.21564ZM588.02814 313.21564Q588.02814 315.325 588.52814 316.02814Q589.02814 316.73126 589.7469 316.73126Q590.48126 316.73126 590.96564 316.02814Q591.46564 315.325 591.46564 313.21564Q591.46564 311.09064 590.96564 310.40314Q590.48126 309.7 589.73126 309.7Q589.0125 309.7 588.575 310.3094Q588.02814 311.09064 588.02814 313.21564Z" fill-rule="nonzero"/><path fill="#4285f4" d="M218.0 56.916668C218.0 56.364384 218.44771 55.916668 219.0 55.916668L229.0 55.916668C229.55229 55.916668 230.0 56.364384 230.0 56.916668L230.0 66.916664C230.0 67.46895 229.55229 67.916664 229.0 67.916664L219.0 67.916664C218.44771 67.916664 218.0 67.46895 218.0 66.916664Z" fill-rule="nonzero"/><path fill="#1a1a1a" d="M238.92188 65.916664L238.92188 57.322914L242.17188 57.322914Q243.01562 57.322914 243.46875 57.40104Q244.10938 57.510414 244.53125 57.80729Q244.96875 58.104164 245.21875 58.635414Q245.48438 59.166664 245.48438 59.80729Q245.48438 60.90104 244.78125 61.666664Q244.09375 62.416664 242.26562 62.416664L240.0625 62.416664L240.0625 65.916664L238.92188 65.916664ZM240.0625 61.416664L242.28125 61.416664Q243.39062 61.416664 243.84375 61.010414Q244.3125 60.58854 244.3125 59.83854Q244.3125 59.30729 244.03125 58.93229Q243.76562 58.541664 243.32812 58.416664Q243.03125 58.33854 242.26562 58.33854L240.0625 58.33854L240.0625 61.416664ZM246.40625 62.80729Q246.40625 61.072914 247.35938 60.24479Q248.15625 59.55729 249.3125 59.55729Q250.59375 59.55729 251.40625 60.40104Q252.23438 61.229164 252.23438 62.71354Q252.23438 63.916664 251.875 64.604164Q251.51562 65.291664 250.8125 65.68229Q250.125 66.05729 249.3125 66.05729Q248.01562 66.05729 247.20312 65.229164Q246.40625 64.385414 246.40625 62.80729ZM247.48438 62.80729Q247.48438 63.99479 248.0 64.58854Q248.53125 65.18229 249.3125 65.18229Q250.10938 65.18229 250.625 64.58854Q251.14062 63.99479 251.14062 62.77604Q251.14062 61.61979 250.60938 61.02604Q250.09375 60.43229 249.3125 60.43229Q248.53125 60.43229 248.0 61.02604Q247.48438 61.604164 247.48438 62.80729ZM253.375 64.05729L254.40625 63.90104Q254.5 64.52604 254.89062 64.854164Q255.29688 65.18229 256.03125 65.18229Q256.75 65.18229 257.09375 64.90104Q257.45312 64.604164 257.45312 64.197914Q257.45312 63.83854 257.14062 63.635414Q256.92188 63.49479 256.0625 63.27604Q254.90625 62.979164 254.45312 62.77604Q254.01562 62.55729 253.78125 62.18229Q253.54688 61.80729 253.54688 61.33854Q253.54688 60.93229 253.73438 60.572914Q253.92188 60.21354 254.25 59.979164Q254.5 59.80729 254.92188 59.68229Q255.34375 59.55729 255.84375 59.55729Q256.5625 59.55729 257.10938 59.77604Q257.67188 59.979164 257.9375 60.33854Q258.20312 60.697914 258.29688 61.291664L257.26562 61.43229Q257.20312 60.96354 256.85938 60.697914Q256.53125 60.416664 255.90625 60.416664Q255.1875 60.416664 254.875 60.666664Q254.5625 60.90104 254.5625 61.229164Q254.5625 61.43229 254.6875 61.58854Q254.82812 61.760414 255.09375 61.86979Q255.25 61.93229 256.03125 62.135414Q257.15625 62.447914 257.59375 62.635414Q258.03125 62.822914 258.28125 63.18229Q258.53125 63.541664 258.53125 64.08854Q258.53125 64.61979 258.21875 65.08854Q257.92188 65.541664 257.34375 65.80729Q256.76562 66.05729 256.03125 66.05729Q254.8125 66.05729 254.17188 65.55729Q253.54688 65.041664 253.375 64.05729ZM263.09375 64.979164L263.25 65.90104Q262.79688 65.99479 262.45312 65.99479Q261.875 65.99479 261.5625 65.822914Q261.25 65.635414 261.10938 65.33854Q260.98438 65.041664 260.98438 64.08854L260.98438 60.510414L260.21875 60.510414L260.21875 59.697914L260.98438 59.697914L260.98438 58.15104L262.03125 57.52604L262.03125 59.697914L263.09375 59.697914L263.09375 60.510414L262.03125 60.510414L262.03125 64.15104Q262.03125 64.604164 262.07812 64.729164Q262.14062 64.854164 262.26562 64.93229Q262.39062 65.010414 262.625 65.010414Q262.8125 65.010414 263.09375 64.979164ZM263.375 63.33854L263.375 62.27604L266.625 62.27604L266.625 63.33854L263.375 63.33854ZM267.92188 65.916664L267.92188 57.322914L271.17188 57.322914Q272.01562 57.322914 272.46875 57.40104Q273.10938 57.510414 273.53125 57.80729Q273.96875 58.104164 274.21875 58.635414Q274.48438 59.166664 274.48438 59.80729Q274.48438 60.90104 273.78125 61.666664Q273.09375 62.416664 271.26562 62.416664L269.0625 62.416664L269.0625 65.916664L267.92188 65.916664ZM269.0625 61.416664L271.28125 61.416664Q272.39062 61.416664 272.84375 61.010414Q273.3125 60.58854 273.3125 59.83854Q273.3125 59.30729 273.03125 58.93229Q272.76562 58.541664 272.32812 58.416664Q272.03125 58.33854 271.26562 58.33854L269.0625 58.33854L269.0625 61.416664ZM280.04688 63.916664L281.14062 64.041664Q280.89062 64.99479 280.1875 65.52604Q279.48438 66.05729 278.40625 66.05729Q277.04688 66.05729 276.23438 65.21354Q275.4375 64.36979 275.4375 62.854164Q275.4375 61.291664 276.25 60.43229Q277.0625 59.55729 278.34375 59.55729Q279.59375 59.55729 280.375 60.40104Q281.17188 61.24479 281.17188 62.791664Q281.17188 62.885414 281.17188 63.072914L276.53125 63.072914Q276.59375 64.104164 277.10938 64.65104Q277.625 65.18229 278.40625 65.18229Q278.98438 65.18229 279.39062 64.885414Q279.8125 64.572914 280.04688 63.916664ZM276.59375 62.21354L280.0625 62.21354Q280.0 61.416664 279.67188 61.02604Q279.15625 60.416664 278.35938 60.416664Q277.625 60.416664 277.125 60.90104Q276.64062 61.385414 276.59375 62.21354ZM286.85938 65.15104Q286.26562 65.65104 285.71875 65.854164Q285.1875 66.05729 284.5625 66.05729Q283.53125 66.05729 282.98438 65.55729Q282.4375 65.05729 282.4375 64.27604Q282.4375 63.822914 282.64062 63.447914Q282.84375 63.05729 283.1875 62.83854Q283.53125 62.604164 283.95312 62.49479Q284.25 62.40104 284.89062 62.322914Q286.15625 62.18229 286.76562 61.96354Q286.76562 61.74479 286.76562 61.697914Q286.76562 61.041664 286.46875 60.77604Q286.0625 60.43229 285.26562 60.43229Q284.53125 60.43229 284.17188 60.697914Q283.8125 60.947914 283.64062 61.604164L282.60938 61.46354Q282.75 60.80729 283.07812 60.40104Q283.40625 59.99479 284.01562 59.77604Q284.625 59.55729 285.42188 59.55729Q286.21875 59.55729 286.71875 59.74479Q287.21875 59.93229 287.45312 60.21354Q287.6875 60.49479 287.78125 60.93229Q287.82812 61.197914 287.82812 61.90104L287.82812 63.30729Q287.82812 64.77604 287.89062 65.166664Q287.96875 65.55729 288.17188 65.916664L287.0625 65.916664Q286.90625 65.58854 286.85938 65.15104ZM286.76562 62.791664Q286.1875 63.02604 285.04688 63.197914Q284.39062 63.291664 284.125 63.416664Q283.85938 63.52604 283.70312 63.74479Q283.5625 63.96354 283.5625 64.24479Q283.5625 64.666664 283.875 64.947914Q284.20312 65.229164 284.8125 65.229164Q285.42188 65.229164 285.89062 64.96354Q286.375 64.697914 286.59375 64.229164Q286.76562 63.86979 286.76562 63.18229L286.76562 62.791664ZM289.79688 65.916664L289.79688 57.322914L290.85938 57.322914L290.85938 62.229164L293.34375 59.697914L294.71875 59.697914L292.32812 61.99479L294.95312 65.916664L293.65625 65.916664L291.59375 62.729164L290.85938 63.447914L290.85938 65.916664L289.79688 65.916664Z" fill-rule="nonzero"/><path fill="#ea4335" d="M311.0 56.916668C311.0 56.364384 311.44772 55.916668 312.0 55.916668L322.0 55.916668C322.55228 55.916668 323.0 56.364384 323.0 56.916668L323.0 66.916664C323.0 67.46895 322.55228 67.916664 322.0 67.916664L312.0 67.916664C311.44772 67.916664 311.0 67.46895 311.0 66.916664Z" fill-rule="nonzero"/><path fill="#1a1a1a" d="M331.92188 65.916664L331.92188 57.322914L335.17188 57.322914Q336.01562 57.322914 336.46875 57.40104Q337.10938 57.510414 337.53125 57.80729Q337.96875 58.104164 338.21875 58.635414Q338.48438 59.166664 338.48438 59.80729Q338.48438 60.90104 337.78125 61.666664Q337.09375 62.416664 335.26562 62.416664L333.0625 62.416664L333.0625 65.916664L331.92188 65.916664ZM333.0625 61.416664L335.28125 61.416664Q336.39062 61.416664 336.84375 61.010414Q337.3125 60.58854 337.3125 59.83854Q337.3125 59.30729 337.03125 58.93229Q336.76562 58.541664 336.32812 58.416664Q336.03125 58.33854 335.26562 58.33854L333.0625 58.33854L333.0625 61.416664ZM339.78125 65.916664L339.78125 59.697914L340.73438 59.697914L340.73438 60.635414Q341.09375 59.979164 341.39062 59.77604Q341.70312 59.55729 342.07812 59.55729Q342.60938 59.55729 343.15625 59.885414L342.79688 60.86979Q342.40625 60.635414 342.03125 60.635414Q341.67188 60.635414 341.39062 60.854164Q341.125 61.05729 341.01562 61.43229Q340.82812 61.99479 340.82812 62.65104L340.82812 65.916664L339.78125 65.916664ZM348.04688 63.916664L349.14062 64.041664Q348.89062 64.99479 348.1875 65.52604Q347.48438 66.05729 346.40625 66.05729Q345.04688 66.05729 344.23438 65.21354Q343.4375 64.36979 343.4375 62.854164Q343.4375 61.291664 344.25 60.43229Q345.0625 59.55729 346.34375 59.55729Q347.59375 59.55729 348.375 60.40104Q349.17188 61.24479 349.17188 62.791664Q349.17188 62.885414 349.17188 63.072914L344.53125 63.072914Q344.59375 64.104164 345.10938 64.65104Q345.625 65.18229 346.40625 65.18229Q346.98438 65.18229 347.39062 64.885414Q347.8125 64.572914 348.04688 63.916664ZM344.59375 62.21354L348.0625 62.21354Q348.0 61.416664 347.67188 61.02604Q347.15625 60.416664 346.35938 60.416664Q345.625 60.416664 345.125 60.90104Q344.64062 61.385414 344.59375 62.21354ZM350.375 63.33854L350.375 62.27604L353.625 62.27604L353.625 63.33854L350.375 63.33854ZM354.92188 65.916664L354.92188 57.322914L358.17188 57.322914Q359.01562 57.322914 359.46875 57.40104Q360.10938 57.510414 360.53125 57.80729Q360.96875 58.104164 361.21875 58.635414Q361.48438 59.166664 361.48438 59.80729Q361.48438 60.90104 360.78125 61.666664Q360.09375 62.416664 358.26562 62.416664L356.0625 62.416664L356.0625 65.916664L354.92188 65.916664ZM356.0625 61.416664L358.28125 61.416664Q359.39062 61.416664 359.84375 61.010414Q360.3125 60.58854 360.3125 59.83854Q360.3125 59.30729 360.03125 58.93229Q359.76562 58.541664 359.32812 58.416664Q359.03125 58.33854 358.26562 58.33854L356.0625 58.33854L356.0625 61.416664ZM367.04688 63.916664L368.14062 64.041664Q367.89062 64.99479 367.1875 65.52604Q366.48438 66.05729 365.40625 66.05729Q364.04688 66.05729 363.23438 65.21354Q362.4375 64.36979 362.4375 62.854164Q362.4375 61.291664 363.25 60.43229Q364.0625 59.55729 365.34375 59.55729Q366.59375 59.55729 367.375 60.40104Q368.17188 61.24479 368.17188 62.791664Q368.17188 62.885414 368.17188 63.072914L363.53125 63.072914Q363.59375 64.104164 364.10938 64.65104Q364.625 65.18229 365.40625 65.18229Q365.98438 65.18229 366.39062 64.885414Q366.8125 64.572914 367.04688 63.916664ZM363.59375 62.21354L367.0625 62.21354Q367.0 61.416664 366.67188 61.02604Q366.15625 60.416664 365.35938 60.416664Q364.625 60.416664 364.125 60.90104Q363.64062 61.385414 363.59375 62.21354ZM373.85938 65.15104Q373.26562 65.65104 372.71875 65.854164Q372.1875 66.05729 371.5625 66.05729Q370.53125 66.05729 369.98438 65.55729Q369.4375 65.05729 369.4375 64.27604Q369.4375 63.822914 369.64062 63.447914Q369.84375 63.05729 370.1875 62.83854Q370.53125 62.604164 370.95312 62.49479Q371.25 62.40104 371.89062 62.322914Q373.15625 62.18229 373.76562 61.96354Q373.76562 61.74479 373.76562 61.697914Q373.76562 61.041664 373.46875 60.77604Q373.0625 60.43229 372.26562 60.43229Q371.53125 60.43229 371.17188 60.697914Q370.8125 60.947914 370.64062 61.604164L369.60938 61.46354Q369.75 60.80729 370.07812 60.40104Q370.40625 59.99479 371.01562 59.77604Q371.625 59.55729 372.42188 59.55729Q373.21875 59.55729 373.71875 59.74479Q374.21875 59.93229 374.45312 60.21354Q374.6875 60.49479 374.78125 60.93229Q374.82812 61.197914 374.82812 61.90104L374.82812 63.30729Q374.82812 64.77604 374.89062 65.166664Q374.96875 65.55729 375.17188 65.916664L374.0625 65.916664Q373.90625 65.58854 373.85938 65.15104ZM373.76562 62.791664Q373.1875 63.02604 372.04688 63.197914Q371.39062 63.291664 371.125 63.416664Q370.85938 63.52604 370.70312 63.74479Q370.5625 63.96354 370.5625 64.24479Q370.5625 64.666664 370.875 64.947914Q371.20312 65.229164 371.8125 65.229164Q372.42188 65.229164 372.89062 64.96354Q373.375 64.697914 373.59375 64.229164Q373.76562 63.86979 373.76562 63.18229L373.76562 62.791664ZM376.79688 65.916664L376.79688 57.322914L377.85938 57.322914L377.85938 62.229164L380.34375 59.697914L381.71875 59.697914L379.32812 61.99479L381.95312 65.916664L380.65625 65.916664L378.59375 62.729164L377.85938 63.447914L377.85938 65.916664L376.79688 65.916664Z" fill-rule="nonzero"/><path fill="#000000" d="M240.21875 32.89375L243.03125 32.6125Q243.29688 34.034374 244.0625 34.70625Q244.84375 35.3625 246.15625 35.3625Q247.5625 35.3625 248.26562 34.76875Q248.96875 34.175 248.96875 33.39375Q248.96875 32.878124 248.67188 32.534374Q248.375 32.175 247.64062 31.909374Q247.125 31.721874 245.32812 31.284374Q243.0 30.70625 242.0625 29.8625Q240.73438 28.675 240.73438 26.9875Q240.73438 25.89375 241.35938 24.940624Q241.98438 23.9875 243.14062 23.4875Q244.3125 22.9875 245.96875 22.9875Q248.65625 22.9875 250.01562 24.175Q251.39062 25.346874 251.45312 27.33125L248.5625 27.45625Q248.375 26.346874 247.76562 25.8625Q247.15625 25.378124 245.9375 25.378124Q244.67188 25.378124 243.96875 25.89375Q243.5 26.2375 243.5 26.784374Q243.5 27.3 243.9375 27.659374Q244.48438 28.1125 246.59375 28.6125Q248.70312 29.1125 249.70312 29.64375Q250.71875 30.175 251.28125 31.096874Q251.85938 32.01875 251.85938 33.378124Q251.85938 34.6125 251.17188 35.690624Q250.5 36.753124 249.25 37.284374Q248.0 37.8 246.125 37.8Q243.42188 37.8 241.95312 36.55Q240.5 35.3 240.21875 32.89375ZM260.375 37.55L257.625 37.55L257.625 27.20625Q256.125 28.6125 254.07812 29.284374L254.07812 26.8Q255.15625 26.440624 256.40625 25.471874Q257.67188 24.4875 258.14062 23.175L260.375 23.175L260.375 37.55ZM271.375 37.55L268.625 37.55L268.625 27.20625Q267.125 28.6125 265.07812 29.284374L265.07812 26.8Q266.15625 26.440624 267.40625 25.471874Q268.67188 24.4875 269.14062 23.175L271.375 23.175L271.375 37.55ZM290.78125 37.55L286.60938 27.175L289.48438 27.175L291.4375 32.471874L292.01562 34.2375Q292.23438 33.565624 292.29688 33.346874Q292.42188 32.909374 292.57812 32.471874L294.5625 27.175L297.375 27.175L293.26562 37.55L290.78125 37.55ZM297.96875 34.596874L300.71875 34.175Q300.90625 34.971874 301.4375 35.39375Q301.96875 35.8 302.9375 35.8Q304.0 35.8 304.54688 35.409374Q304.90625 35.14375 304.90625 34.675Q304.90625 34.3625 304.70312 34.159374Q304.5 33.971874 303.79688 33.8Q300.46875 33.065624 299.57812 32.45625Q298.34375 31.628124 298.34375 30.128124Q298.34375 28.784374 299.40625 27.8625Q300.48438 26.940624 302.71875 26.940624Q304.84375 26.940624 305.875 27.64375Q306.92188 28.33125 307.3125 29.690624L304.71875 30.159374Q304.54688 29.565624 304.07812 29.2375Q303.625 28.909374 302.76562 28.909374Q301.6875 28.909374 301.21875 29.221874Q300.90625 29.440624 300.90625 29.76875Q300.90625 30.065624 301.17188 30.26875Q301.54688 30.55 303.73438 31.05Q305.92188 31.55 306.79688 32.26875Q307.65625 33.003124 307.65625 34.3Q307.65625 35.7375 306.46875 36.76875Q305.28125 37.784374 302.9375 37.784374Q300.82812 37.784374 299.57812 36.925Q298.34375 36.065624 297.96875 34.596874ZM319.17188 37.55L319.17188 25.659374L314.9375 25.659374L314.9375 23.2375L326.3125 23.2375L326.3125 25.659374L322.0625 25.659374L322.0625 37.55L319.17188 37.55ZM328.9375 25.76875L328.9375 23.2375L331.6875 23.2375L331.6875 25.76875L328.9375 25.76875ZM328.9375 37.55L328.9375 27.175L331.6875 27.175L331.6875 37.55L328.9375 37.55ZM333.73438 27.175L336.26562 27.175L336.26562 28.596874Q337.625 26.940624 339.5 26.940624Q340.48438 26.940624 341.21875 27.3625Q341.95312 27.76875 342.42188 28.596874Q343.10938 27.76875 343.89062 27.3625Q344.6875 26.940624 345.59375 26.940624Q346.73438 26.940624 347.51562 27.409374Q348.3125 27.878124 348.70312 28.76875Q348.98438 29.440624 348.98438 30.925L348.98438 37.55L346.23438 37.55L346.23438 31.628124Q346.23438 30.08125 345.95312 29.628124Q345.57812 29.05 344.78125 29.05Q344.20312 29.05 343.6875 29.409374Q343.1875 29.753124 342.96875 30.425Q342.75 31.096874 342.75 32.565624L342.75 37.55L340.0 37.55L340.0 31.8625Q340.0 30.346874 339.84375 29.909374Q339.70312 29.471874 339.39062 29.26875Q339.09375 29.05 338.5625 29.05Q337.9375 29.05 337.42188 29.39375Q336.92188 29.721874 336.6875 30.378124Q336.46875 31.01875 336.46875 32.503124L336.46875 37.55L333.73438 37.55L333.73438 27.175ZM356.9375 34.253124L359.67188 34.70625Q359.15625 36.20625 358.01562 37.003124Q356.875 37.784374 355.17188 37.784374Q352.45312 37.784374 351.15625 36.01875Q350.14062 34.596874 350.14062 32.440624Q350.14062 29.8625 351.48438 28.409374Q352.82812 26.940624 354.89062 26.940624Q357.20312 26.940624 358.53125 28.471874Q359.875 30.003124 359.82812 33.159374L352.95312 33.159374Q352.98438 34.378124 353.60938 35.065624Q354.25 35.7375 355.1875 35.7375Q355.84375 35.7375 356.28125 35.39375Q356.71875 35.034374 356.9375 34.253124ZM357.09375 31.471874Q357.0625 30.284374 356.46875 29.675Q355.89062 29.05 355.0625 29.05Q354.15625 29.05 353.57812 29.690624Q352.98438 30.346874 353.0 31.471874L357.09375 31.471874Z" fill-rule="nonzero"/></svg>