<svg version="1.1" viewBox="0.0 0.0 600.0 371.0" fill="none" stroke="none" stroke-linecap="square" stroke-miterlimit="10" width="600" height="371" xmlns:xlink="http://www.w3.org/1999/xlink" xmlns="http://www.w3.org/2000/svg"><path fill="#ffffff" d="M0 0L600.0 0L600.0 371.0L0 371.0L0 0Z" fill-rule="nonzero"/><path stroke="#cccccc" stroke-width="1.0" stroke-linecap="butt" d="M178.5 61.5L178.5 300.5" fill-rule="nonzero"/><path stroke="#cccccc" stroke-width="1.0" stroke-linecap="butt" d="M279.5 61.5L279.5 300.5" fill-rule="nonzero"/><path stroke="#cccccc" stroke-width="1.0" stroke-linecap="butt" d="M380.5 61.5L380.5 300.5" fill-rule="nonzero"/><path stroke="#cccccc" stroke-width="1.0" stroke-linecap="butt" d="M481.5 61.5L481.5 300.5" fill-rule="nonzero"/><path stroke="#333333" stroke-width="1.0" stroke-linecap="butt" d="M77.5 300.5L581.5 300.5" fill-rule="nonzero"/><path stroke="#cccccc" stroke-width="1.0" stroke-linecap="butt" d="M77.5 240.5L581.5 240.5" fill-rule="nonzero"/><path stroke="#cccccc" stroke-width="1.0" stroke-linecap="butt" d="M77.5 181.5L581.5 181.5" fill-rule="nonzero"/><path stroke="#cccccc" stroke-width="1.0" stroke-linecap="butt" d="M77.5 121.5L581.5 121.5" fill-rule="nonzero"/><path stroke="#cccccc" stroke-width="1.0" stroke-linecap="butt" d="M77.5 61.5L581.5 61.5" fill-rule="nonzero"/><clipPath id="id_0"><path d="M77.55 61.916668L581.45 61.916668L581.45 300.45L77.55 300.45L77.55 61.916668Z" clip-rule="nonzero"/></clipPath><path fill="#34a853" fill-opacity="0.3019608" clip-path="url(#id_0)" d="M77.55 61.97958L96.02755 96.88863L114.50505 131.79768L132.9826 166.70674L151.45966 201.61551L169.93669 236.52426L188.41324 271.43286L204.62242 300.4476L209.66846 300.4475L214.71399 300.4475L219.7595 300.44754L224.80504 300.44754L229.85007 300.44754L234.89508 300.44754L239.94011 300.44754L244.98512 300.44754L250.02965 300.44754L255.07416 300.44754L260.11816 300.44754L265.1622 300.44754L270.2062 300.44754L275.2497 300.44754L280.2932 300.44754L285.33673 300.44757L290.37973 300.44757L295.42273 300.44757L300.46524 300.44757L305.50772 300.44757L310.5497 300.44757L315.5917 300.44757L320.6332 300.44757L325.67468 300.44757L330.7162 300.44757L335.75665 300.44757L340.79764 300.44757L345.83813 300.44757L350.8781 300.44757L355.91806 300.44757L360.95755 300.44757L365.997 300.44757L371.03598 300.44757L376.07443 300.44757L381.11288 300.44757L386.15085 300.44757L391.1888 300.44757L396.22626 300.44757L401.2637 300.44757L406.30014 300.44757L411.3366 300.44757L416.37305 300.44757L421.40897 300.44757L426.4444 300.44757L431.47934 300.44757L436.51425 300.44757L441.54868 300.44757L446.5826 300.44757L451.61652 300.44757L456.6494 300.44757L461.68234 300.44757L466.71524 300.44757L471.74713 300.44757L476.77905 300.44757L481.80994 300.44757L486.8413 300.44757L491.8717 300.44757L496.90158 300.4476L501.93146 300.4476L506.96085 300.4476L511.9892 300.4476L517.01807 300.4476L522.04596 300.4476L527.0733 300.4476L532.10016 300.4476L537.127 300.4476L542.15283 300.4476L547.17865 300.4476L552.20404 300.4476L557.22833 300.4476L562.2527 300.4476L567.2765 300.4476L572.2998 300.4476L577.32263 300.4476L581.45 300.4476L581.45 300.45L577.32263 300.45L572.2998 300.45L567.2765 300.45L562.2527 300.45L557.22833 300.45L552.20404 300.45L547.17865 300.45L542.15283 300.45L537.127 300.45L532.10016 300.45L527.0733 300.45L522.04596 300.45L517.01807 300.45L511.9892 300.45L506.96085 300.45L501.93146 300.45L496.90158 300.45L491.8717 300.45L486.8413 300.45L481.80994 300.45L476.77905 300.45L471.74713 300.45L466.71524 300.45L461.68234 300.45L456.6494 300.45L451.61652 300.45L446.5826 300.45L441.54868 300.45L436.51425 300.45L431.47934 300.45L426.4444 300.45L421.40897 300.45L416.37305 300.45L411.3366 300.45L406.30014 300.45L401.2637 300.45L396.22626 300.45L391.1888 300.45L386.15085 300.45L381.11288 300.45L376.07443 300.45L371.03598 300.45L365.997 300.45L360.95755 300.45L355.91806 300.45L350.8781 300.45L345.83813 300.45L340.79764 300.45L335.75665 300.45L330.7162 300.45L325.67468 300.45L320.6332 300.45L315.5917 300.45L310.5497 300.45L305.50772 300.45L300.46524 300.45L295.42273 300.45L290.37973 300.45L285.33673 300.45L280.2932 300.45L275.2497 300.45L270.2062 300.45L265.1622 300.45L260.11816 300.45L255.07416 300.45L250.02965 300.45L244.98512 300.45L239.94011 300.45L234.89508 300.45L229.85007 300.45L224.80504 300.45L219.7595 300.45L214.71399 300.45L209.66846 300.45L204.62242 300.45L188.41324 300.45L169.93669 300.45L151.45966 300.45L132.9826 300.45L114.50505 300.45L96.02755 300.45L77.55 300.45Z" fill-rule="nonzero"/><path stroke="#34a853" stroke-width="2.0" stroke-linecap="butt" clip-path="url(#id_0)" d="M77.55 61.97958L96.02755 96.88863L114.50505 131.79768L132.9826 166.70674L151.45966 201.61551L169.93669 236.52426L188.41324 271.43286L204.62242 300.4476L209.66846 300.4475L214.71399 300.4475L219.7595 300.44754L224.80504 300.44754L229.85007 300.44754L234.89508 300.44754L239.94011 300.44754L244.98512 300.44754L250.02965 300.44754L255.07416 300.44754L260.11816 300.44754L265.1622 300.44754L270.2062 300.44754L275.2497 300.44754L280.2932 300.44754L285.33673 300.44757L290.37973 300.44757L295.42273 300.44757L300.46524 300.44757L305.50772 300.44757L310.5497 300.44757L315.5917 300.44757L320.6332 300.44757L325.67468 300.44757L330.7162 300.44757L335.75665 300.44757L340.79764 300.44757L345.83813 300.44757L350.8781 300.44757L355.91806 300.44757L360.95755 300.44757L365.997 300.44757L371.03598 300.44757L376.07443 300.44757L381.11288 300.44757L386.15085 300.44757L391.1888 300.44757L396.22626 300.44757L401.2637 300.44757L406.30014 300.44757L411.3366 300.44757L416.37305 300.44757L421.40897 300.44757L426.4444 300.44757L431.47934 300.44757L436.51425 300.44757L441.54868 300.44757L446.5826 300.44757L451.61652 300.44757L456.6494 300.44757L461.68234 300.44757L466.71524 300.44757L471.74713 300.44757L476.77905 300.44757L481.80994 300.44757L486.8413 300.44757L491.8717 300.44757L496.90158 300.4476L501.93146 300.4476L506.96085 300.4476L511.9892 300.4476L517.01807 300.4476L522.04596 300.4476L527.0733 300.4476L532.10016 300.4476L537.127 300.4476L542.15283 300.4476L547.17865 300.4476L552.20404 300.4476L557.22833 300.4476L562.2527 300.4476L567.2765 300.4476L572.2998 300.4476L577.32263 300.4476L581.45 300.4476" fill-rule="nonzero"/><path fill="#000000" fill-opacity="0.0" clip-path="url(#id_0)" d="M80.55 61.97958C80.55 63.636433 79.206856 64.979576 77.55 64.979576C75.89314 64.979576 74.55 63.636433 74.55 61.97958C74.55 60.322727 75.89314 58.97958 77.55 58.97958C79.206856 58.97958 80.55 60.322727 80.55 61.97958Z" fill-rule="nonzero"/><path fill="#000000" fill-opacity="0.0" clip-path="url(#id_0)" d="M99.02755 96.88863C99.02755 98.54549 97.6844 99.88863 96.02755 99.88863C94.3707 99.88863 93.02755 98.54549 93.02755 96.88863C93.02755 95.23178 94.3707 93.88863 96.02755 93.88863C97.6844 93.88863 99.02755 95.23178 99.02755 96.88863Z" fill-rule="nonzero"/><path fill="#000000" fill-opacity="0.0" clip-path="url(#id_0)" d="M117.50505 131.79768C117.50505 133.45454 116.1619 134.79768 114.50505 134.79768C112.8482 134.79768 111.50505 133.45454 111.50505 131.79768C111.50505 130.14084 112.8482 128.79768 114.50505 128.79768C116.1619 128.79768 117.50505 130.14084 117.50505 131.79768Z" fill-rule="nonzero"/><path fill="#000000" fill-opacity="0.0" clip-path="url(#id_0)" d="M135.9826 166.70674C135.9826 168.3636 134.63947 169.70674 132.9826 169.70674C131.32574 169.70674 129.9826 168.3636 129.9826 166.70674C129.9826 165.0499 131.32574 163.70674 132.9826 163.70674C134.63947 163.70674 135.9826 165.0499 135.9826 166.70674Z" fill-rule="nonzero"/><path fill="#000000" fill-opacity="0.0" clip-path="url(#id_0)" d="M154.45966 201.61551C154.45966 203.27235 153.1165 204.61551 151.45966 204.61551C149.8028 204.61551 148.45966 203.27235 148.45966 201.61551C148.45966 199.95865 149.8028 198.61551 151.45966 198.61551C153.1165 198.61551 154.45966 199.95865 154.45966 201.61551Z" fill-rule="nonzero"/><path fill="#000000" fill-opacity="0.0" clip-path="url(#id_0)" d="M172.93669 236.52426C172.93669 238.1811 171.59355 239.52426 169.93669 239.52426C168.27985 239.52426 166.93669 238.1811 166.93669 236.52426C166.93669 234.8674 168.27985 233.52426 169.93669 233.52426C171.59355 233.52426 172.93669 234.8674 172.93669 236.52426Z" fill-rule="nonzero"/><path fill="#000000" fill-opacity="0.0" clip-path="url(#id_0)" d="M191.41324 271.43286C191.41324 273.08972 190.0701 274.43286 188.41324 274.43286C186.7564 274.43286 185.41324 273.08972 185.41324 271.43286C185.41324 269.776 186.7564 268.43286 188.41324 268.43286C190.0701 268.43286 191.41324 269.776 191.41324 271.43286Z" fill-rule="nonzero"/><path fill="#000000" fill-opacity="0.0" clip-path="url(#id_0)" d="M207.62242 300.4476C207.62242 302.10446 206.27928 303.4476 204.62242 303.4476C202.96558 303.4476 201.62242 302.10446 201.62242 300.4476C201.62242 298.79077 202.96558 297.4476 204.62242 297.4476C206.27928 297.4476 207.62242 298.79077 207.62242 300.4476Z" fill-rule="nonzero"/><path fill="#000000" fill-opacity="0.0" clip-path="url(#id_0)" d="M212.66846 300.4475C212.66846 302.10437 211.32532 303.4475 209.66846 303.4475C208.0116 303.4475 206.66846 302.10437 206.66846 300.4475C206.66846 298.79068 208.0116 297.4475 209.66846 297.4475C211.32532 297.4475 212.66846 298.79068 212.66846 300.4475Z" fill-rule="nonzero"/><path fill="#000000" fill-opacity="0.0" clip-path="url(#id_0)" d="M217.71399 300.4475C217.71399 302.10437 216.37083 303.4475 214.71399 303.4475C213.05713 303.4475 211.71399 302.10437 211.71399 300.4475C211.71399 298.79068 213.05713 297.4475 214.71399 297.4475C216.37083 297.4475 217.71399 298.79068 217.71399 300.4475Z" fill-rule="nonzero"/><path fill="#000000" fill-opacity="0.0" clip-path="url(#id_0)" d="M222.7595 300.44754C222.7595 302.10437 221.41637 303.44754 219.7595 303.44754C218.10266 303.44754 216.7595 302.10437 216.7595 300.44754C216.7595 298.79068 218.10266 297.44754 219.7595 297.44754C221.41637 297.44754 222.7595 298.79068 222.7595 300.44754Z" fill-rule="nonzero"/><path fill="#000000" fill-opacity="0.0" clip-path="url(#id_0)" d="M227.80504 300.44754C227.80504 302.10437 226.4619 303.44754 224.80504 303.44754C223.14818 303.44754 221.80504 302.10437 221.80504 300.44754C221.80504 298.79068 223.14818 297.44754 224.80504 297.44754C226.4619 297.44754 227.80504 298.79068 227.80504 300.44754Z" fill-rule="nonzero"/><path fill="#000000" fill-opacity="0.0" clip-path="url(#id_0)" d="M232.85007 300.44754C232.85007 302.1044 231.50691 303.44754 229.85007 303.44754C228.1932 303.44754 226.85007 302.1044 226.85007 300.44754C226.85007 298.79068 228.1932 297.44754 229.85007 297.44754C231.50691 297.44754 232.85007 298.79068 232.85007 300.44754Z" fill-rule="nonzero"/><path fill="#000000" fill-opacity="0.0" clip-path="url(#id_0)" d="M237.89508 300.44754C237.89508 302.1044 236.55194 303.44754 234.89508 303.44754C233.23822 303.44754 231.89508 302.1044 231.89508 300.44754C231.89508 298.79068 233.23822 297.44754 234.89508 297.44754C236.55194 297.44754 237.89508 298.79068 237.89508 300.44754Z" fill-rule="nonzero"/><path fill="#000000" fill-opacity="0.0" clip-path="url(#id_0)" d="M242.94011 300.44754C242.94011 302.1044 241.59695 303.44754 239.94011 303.44754C238.28325 303.44754 236.94011 302.1044 236.94011 300.44754C236.94011 298.79068 238.28325 297.44754 239.94011 297.44754C241.59695 297.44754 242.94011 298.79068 242.94011 300.44754Z" fill-rule="nonzero"/><path fill="#000000" fill-opacity="0.0" clip-path="url(#id_0)" d="M247.98512 300.44754C247.98512 302.1044 246.64198 303.44754 244.98512 303.44754C243.32828 303.44754 241.98512 302.1044 241.98512 300.44754C241.98512 298.79068 243.32828 297.44754 244.98512 297.44754C246.64198 297.44754 247.98512 298.79068 247.98512 300.44754Z" fill-rule="nonzero"/><path fill="#000000" fill-opacity="0.0" clip-path="url(#id_0)" d="M253.02965 300.44754C253.02965 302.1044 251.6865 303.44754 250.02965 303.44754C248.37279 303.44754 247.02965 302.1044 247.02965 300.44754C247.02965 298.79068 248.37279 297.44754 250.02965 297.44754C251.6865 297.44754 253.02965 298.79068 253.02965 300.44754Z" fill-rule="nonzero"/><path fill="#000000" fill-opacity="0.0" clip-path="url(#id_0)" d="M258.07416 300.44754C258.07416 302.1044 256.73102 303.44754 255.07416 303.44754C253.41731 303.44754 252.07416 302.1044 252.07416 300.44754C252.07416 298.79068 253.41731 297.44754 255.07416 297.44754C256.73102 297.44754 258.07416 298.79068 258.07416 300.44754Z" fill-rule="nonzero"/><path fill="#000000" fill-opacity="0.0" clip-path="url(#id_0)" d="M263.11816 300.44754C263.11816 302.1044 261.77502 303.44754 260.11816 303.44754C258.46133 303.44754 257.11816 302.1044 257.11816 300.44754C257.11816 298.79068 258.46133 297.44754 260.11816 297.44754C261.77502 297.44754 263.11816 298.79068 263.11816 300.44754Z" fill-rule="nonzero"/><path fill="#000000" fill-opacity="0.0" clip-path="url(#id_0)" d="M268.1622 300.44754C268.1622 302.1044 266.81903 303.44754 265.1622 303.44754C263.50534 303.44754 262.1622 302.1044 262.1622 300.44754C262.1622 298.79068 263.50534 297.44754 265.1622 297.44754C266.81903 297.44754 268.1622 298.79068 268.1622 300.44754Z" fill-rule="nonzero"/><path fill="#000000" fill-opacity="0.0" clip-path="url(#id_0)" d="M273.2062 300.44754C273.2062 302.1044 271.86307 303.44754 270.2062 303.44754C268.54935 303.44754 267.2062 302.1044 267.2062 300.44754C267.2062 298.7907 268.54935 297.44754 270.2062 297.44754C271.86307 297.44754 273.2062 298.7907 273.2062 300.44754Z" fill-rule="nonzero"/><path fill="#000000" fill-opacity="0.0" clip-path="url(#id_0)" d="M278.2497 300.44754C278.2497 302.1044 276.90656 303.44754 275.2497 303.44754C273.59286 303.44754 272.2497 302.1044 272.2497 300.44754C272.2497 298.7907 273.59286 297.44754 275.2497 297.44754C276.90656 297.44754 278.2497 298.7907 278.2497 300.44754Z" fill-rule="nonzero"/><path fill="#000000" fill-opacity="0.0" clip-path="url(#id_0)" d="M283.2932 300.44754C283.2932 302.1044 281.95007 303.44754 280.2932 303.44754C278.63635 303.44754 277.2932 302.1044 277.2932 300.44754C277.2932 298.7907 278.63635 297.44754 280.2932 297.44754C281.95007 297.44754 283.2932 298.7907 283.2932 300.44754Z" fill-rule="nonzero"/><path fill="#000000" fill-opacity="0.0" clip-path="url(#id_0)" d="M288.33673 300.44757C288.33673 302.1044 286.9936 303.44757 285.33673 303.44757C283.67987 303.44757 282.33673 302.1044 282.33673 300.44757C282.33673 298.7907 283.67987 297.44757 285.33673 297.44757C286.9936 297.44757 288.33673 298.7907 288.33673 300.44757Z" fill-rule="nonzero"/><path fill="#000000" fill-opacity="0.0" clip-path="url(#id_0)" d="M293.37973 300.44757C293.37973 302.1044 292.0366 303.44757 290.37973 303.44757C288.72287 303.44757 287.37973 302.1044 287.37973 300.44757C287.37973 298.7907 288.72287 297.44757 290.37973 297.44757C292.0366 297.44757 293.37973 298.7907 293.37973 300.44757Z" fill-rule="nonzero"/><path fill="#000000" fill-opacity="0.0" clip-path="url(#id_0)" d="M298.42273 300.44757C298.42273 302.1044 297.0796 303.44757 295.42273 303.44757C293.76587 303.44757 292.42273 302.1044 292.42273 300.44757C292.42273 298.7907 293.76587 297.44757 295.42273 297.44757C297.0796 297.44757 298.42273 298.7907 298.42273 300.44757Z" fill-rule="nonzero"/><path fill="#000000" fill-opacity="0.0" clip-path="url(#id_0)" d="M303.46524 300.44757C303.46524 302.1044 302.12207 303.44757 300.46524 303.44757C298.80838 303.44757 297.46524 302.1044 297.46524 300.44757C297.46524 298.7907 298.80838 297.44757 300.46524 297.44757C302.12207 297.44757 303.46524 298.7907 303.46524 300.44757Z" fill-rule="nonzero"/><path fill="#000000" fill-opacity="0.0" clip-path="url(#id_0)" d="M308.50772 300.44757C308.50772 302.1044 307.16458 303.44757 305.50772 303.44757C303.85086 303.44757 302.50772 302.1044 302.50772 300.44757C302.50772 298.7907 303.85086 297.44757 305.50772 297.44757C307.16458 297.44757 308.50772 298.7907 308.50772 300.44757Z" fill-rule="nonzero"/><path fill="#000000" fill-opacity="0.0" clip-path="url(#id_0)" d="M313.5497 300.44757C313.5497 302.10443 312.20657 303.44757 310.5497 303.44757C308.89285 303.44757 307.5497 302.10443 307.5497 300.44757C307.5497 298.7907 308.89285 297.44757 310.5497 297.44757C312.20657 297.44757 313.5497 298.7907 313.5497 300.44757Z" fill-rule="nonzero"/><path fill="#000000" fill-opacity="0.0" clip-path="url(#id_0)" d="M318.5917 300.44757C318.5917 302.10443 317.24857 303.44757 315.5917 303.44757C313.93484 303.44757 312.5917 302.10443 312.5917 300.44757C312.5917 298.7907 313.93484 297.44757 315.5917 297.44757C317.24857 297.44757 318.5917 298.7907 318.5917 300.44757Z" fill-rule="nonzero"/><path fill="#000000" fill-opacity="0.0" clip-path="url(#id_0)" d="M323.6332 300.44757C323.6332 302.10443 322.29007 303.44757 320.6332 303.44757C318.97635 303.44757 317.6332 302.10443 317.6332 300.44757C317.6332 298.7907 318.97635 297.44757 320.6332 297.44757C322.29007 297.44757 323.6332 298.7907 323.6332 300.44757Z" fill-rule="nonzero"/><path fill="#000000" fill-opacity="0.0" clip-path="url(#id_0)" d="M328.67468 300.44757C328.67468 302.10443 327.33154 303.44757 325.67468 303.44757C324.01785 303.44757 322.67468 302.10443 322.67468 300.44757C322.67468 298.7907 324.01785 297.44757 325.67468 297.44757C327.33154 297.44757 328.67468 298.7907 328.67468 300.44757Z" fill-rule="nonzero"/><path fill="#000000" fill-opacity="0.0" clip-path="url(#id_0)" d="M333.7162 300.44757C333.7162 302.10443 332.37305 303.44757 330.7162 303.44757C329.05933 303.44757 327.7162 302.10443 327.7162 300.44757C327.7162 298.7907 329.05933 297.44757 330.7162 297.44757C332.37305 297.44757 333.7162 298.7907 333.7162 300.44757Z" fill-rule="nonzero"/><path fill="#000000" fill-opacity="0.0" clip-path="url(#id_0)" d="M338.75665 300.44757C338.75665 302.10443 337.4135 303.44757 335.75665 303.44757C334.0998 303.44757 332.75665 302.10443 332.75665 300.44757C332.75665 298.7907 334.0998 297.44757 335.75665 297.44757C337.4135 297.44757 338.75665 298.7907 338.75665 300.44757Z" fill-rule="nonzero"/><path fill="#000000" fill-opacity="0.0" clip-path="url(#id_0)" d="M343.79764 300.44757C343.79764 302.10443 342.4545 303.44757 340.79764 303.44757C339.14078 303.44757 337.79764 302.10443 337.79764 300.44757C337.79764 298.7907 339.14078 297.44757 340.79764 297.44757C342.4545 297.44757 343.79764 298.7907 343.79764 300.44757Z" fill-rule="nonzero"/><path fill="#000000" fill-opacity="0.0" clip-path="url(#id_0)" d="M348.83813 300.44757C348.83813 302.10443 347.49496 303.44757 345.83813 303.44757C344.18127 303.44757 342.83813 302.10443 342.83813 300.44757C342.83813 298.7907 344.18127 297.44757 345.83813 297.44757C347.49496 297.44757 348.83813 298.7907 348.83813 300.44757Z" fill-rule="nonzero"/><path fill="#000000" fill-opacity="0.0" clip-path="url(#id_0)" d="M353.8781 300.44757C353.8781 302.10443 352.53494 303.44757 350.8781 303.44757C349.22125 303.44757 347.8781 302.10443 347.8781 300.44757C347.8781 298.7907 349.22125 297.44757 350.8781 297.44757C352.53494 297.44757 353.8781 298.7907 353.8781 300.44757Z" fill-rule="nonzero"/><path fill="#000000" fill-opacity="0.0" clip-path="url(#id_0)" d="M358.91806 300.44757C358.91806 302.10443 357.57492 303.44757 355.91806 303.44757C354.26123 303.44757 352.91806 302.10443 352.91806 300.44757C352.91806 298.7907 354.26123 297.44757 355.91806 297.44757C357.57492 297.44757 358.91806 298.7907 358.91806 300.44757Z" fill-rule="nonzero"/><path fill="#000000" fill-opacity="0.0" clip-path="url(#id_0)" d="M363.95755 300.44757C363.95755 302.10443 362.6144 303.44757 360.95755 303.44757C359.3007 303.44757 357.95755 302.10443 357.95755 300.44757C357.95755 298.7907 359.3007 297.44757 360.95755 297.44757C362.6144 297.44757 363.95755 298.7907 363.95755 300.44757Z" fill-rule="nonzero"/><path fill="#000000" fill-opacity="0.0" clip-path="url(#id_0)" d="M368.997 300.44757C368.997 302.10443 367.65387 303.44757 365.997 303.44757C364.34015 303.44757 362.997 302.10443 362.997 300.44757C362.997 298.7907 364.34015 297.44757 365.997 297.44757C367.65387 297.44757 368.997 298.7907 368.997 300.44757Z" fill-rule="nonzero"/><path fill="#000000" fill-opacity="0.0" clip-path="url(#id_0)" d="M374.03598 300.44757C374.03598 302.10443 372.69284 303.44757 371.03598 303.44757C369.37912 303.44757 368.03598 302.10443 368.03598 300.44757C368.03598 298.7907 369.37912 297.44757 371.03598 297.44757C372.69284 297.44757 374.03598 298.7907 374.03598 300.44757Z" fill-rule="nonzero"/><path fill="#000000" fill-opacity="0.0" clip-path="url(#id_0)" d="M379.07443 300.44757C379.07443 302.10443 377.7313 303.44757 376.07443 303.44757C374.41757 303.44757 373.07443 302.10443 373.07443 300.44757C373.07443 298.7907 374.41757 297.44757 376.07443 297.44757C377.7313 297.44757 379.07443 298.7907 379.07443 300.44757Z" fill-rule="nonzero"/><path fill="#000000" fill-opacity="0.0" clip-path="url(#id_0)" d="M384.11288 300.44757C384.11288 302.10443 382.76974 303.44757 381.11288 303.44757C379.45605 303.44757 378.11288 302.10443 378.11288 300.44757C378.11288 298.7907 379.45605 297.44757 381.11288 297.44757C382.76974 297.44757 384.11288 298.7907 384.11288 300.44757Z" fill-rule="nonzero"/><path fill="#000000" fill-opacity="0.0" clip-path="url(#id_0)" d="M389.15085 300.44757C389.15085 302.10443 387.8077 303.44757 386.15085 303.44757C384.494 303.44757 383.15085 302.10443 383.15085 300.44757C383.15085 298.7907 384.494 297.44757 386.15085 297.44757C387.8077 297.44757 389.15085 298.7907 389.15085 300.44757Z" fill-rule="nonzero"/><path fill="#000000" fill-opacity="0.0" clip-path="url(#id_0)" d="M394.1888 300.44757C394.1888 302.10443 392.84567 303.44757 391.1888 303.44757C389.53195 303.44757 388.1888 302.10443 388.1888 300.44757C388.1888 298.7907 389.53195 297.44757 391.1888 297.44757C392.84567 297.44757 394.1888 298.7907 394.1888 300.44757Z" fill-rule="nonzero"/><path fill="#000000" fill-opacity="0.0" clip-path="url(#id_0)" d="M399.22626 300.44757C399.22626 302.10443 397.88312 303.44757 396.22626 303.44757C394.5694 303.44757 393.22626 302.10443 393.22626 300.44757C393.22626 298.7907 394.5694 297.44757 396.22626 297.44757C397.88312 297.44757 399.22626 298.7907 399.22626 300.44757Z" fill-rule="nonzero"/><path fill="#000000" fill-opacity="0.0" clip-path="url(#id_0)" d="M404.2637 300.44757C404.2637 302.10443 402.92056 303.44757 401.2637 303.44757C399.60687 303.44757 398.2637 302.10443 398.2637 300.44757C398.2637 298.7907 399.60687 297.44757 401.2637 297.44757C402.92056 297.44757 404.2637 298.7907 404.2637 300.44757Z" fill-rule="nonzero"/><path fill="#000000" fill-opacity="0.0" clip-path="url(#id_0)" d="M409.30014 300.44757C409.30014 302.10443 407.957 303.44757 406.30014 303.44757C404.6433 303.44757 403.30014 302.10443 403.30014 300.44757C403.30014 298.7907 404.6433 297.44757 406.30014 297.44757C407.957 297.44757 409.30014 298.7907 409.30014 300.44757Z" fill-rule="nonzero"/><path fill="#000000" fill-opacity="0.0" clip-path="url(#id_0)" d="M414.3366 300.44757C414.3366 302.10443 412.99344 303.44757 411.3366 303.44757C409.67975 303.44757 408.3366 302.10443 408.3366 300.44757C408.3366 298.7907 409.67975 297.44757 411.3366 297.44757C412.99344 297.44757 414.3366 298.7907 414.3366 300.44757Z" fill-rule="nonzero"/><path fill="#000000" fill-opacity="0.0" clip-path="url(#id_0)" d="M419.37305 300.44757C419.37305 302.10443 418.02988 303.44757 416.37305 303.44757C414.7162 303.44757 413.37305 302.10443 413.37305 300.44757C413.37305 298.7907 414.7162 297.44757 416.37305 297.44757C418.02988 297.44757 419.37305 298.7907 419.37305 300.44757Z" fill-rule="nonzero"/><path fill="#000000" fill-opacity="0.0" clip-path="url(#id_0)" d="M424.40897 300.44757C424.40897 302.10443 423.06583 303.44757 421.40897 303.44757C419.7521 303.44757 418.40897 302.10443 418.40897 300.44757C418.40897 298.7907 419.7521 297.44757 421.40897 297.44757C423.06583 297.44757 424.40897 298.7907 424.40897 300.44757Z" fill-rule="nonzero"/><path fill="#000000" fill-opacity="0.0" clip-path="url(#id_0)" d="M429.4444 300.44757C429.4444 302.10443 428.10126 303.44757 426.4444 303.44757C424.78754 303.44757 423.4444 302.10443 423.4444 300.44757C423.4444 298.79074 424.78754 297.44757 426.4444 297.44757C428.10126 297.44757 429.4444 298.79074 429.4444 300.44757Z" fill-rule="nonzero"/><path fill="#000000" fill-opacity="0.0" clip-path="url(#id_0)" d="M434.47934 300.44757C434.47934 302.10443 433.1362 303.44757 431.47934 303.44757C429.82248 303.44757 428.47934 302.10443 428.47934 300.44757C428.47934 298.79074 429.82248 297.44757 431.47934 297.44757C433.1362 297.44757 434.47934 298.79074 434.47934 300.44757Z" fill-rule="nonzero"/><path fill="#000000" fill-opacity="0.0" clip-path="url(#id_0)" d="M439.51425 300.44757C439.51425 302.10443 438.1711 303.44757 436.51425 303.44757C434.8574 303.44757 433.51425 302.10443 433.51425 300.44757C433.51425 298.79074 434.8574 297.44757 436.51425 297.44757C438.1711 297.44757 439.51425 298.79074 439.51425 300.44757Z" fill-rule="nonzero"/><path fill="#000000" fill-opacity="0.0" clip-path="url(#id_0)" d="M444.54868 300.44757C444.54868 302.10443 443.20554 303.44757 441.54868 303.44757C439.8918 303.44757 438.54868 302.10443 438.54868 300.44757C438.54868 298.79074 439.8918 297.44757 441.54868 297.44757C443.20554 297.44757 444.54868 298.79074 444.54868 300.44757Z" fill-rule="nonzero"/><path fill="#000000" fill-opacity="0.0" clip-path="url(#id_0)" d="M449.5826 300.44757C449.5826 302.10443 448.23944 303.44757 446.5826 303.44757C444.92575 303.44757 443.5826 302.10443 443.5826 300.44757C443.5826 298.79074 444.92575 297.44757 446.5826 297.44757C448.23944 297.44757 449.5826 298.79074 449.5826 300.44757Z" fill-rule="nonzero"/><path fill="#000000" fill-opacity="0.0" clip-path="url(#id_0)" d="M454.61652 300.44757C454.61652 302.10443 453.27338 303.44757 451.61652 303.44757C449.95966 303.44757 448.61652 302.10443 448.61652 300.44757C448.61652 298.79074 449.95966 297.44757 451.61652 297.44757C453.27338 297.44757 454.61652 298.79074 454.61652 300.44757Z" fill-rule="nonzero"/><path fill="#000000" fill-opacity="0.0" clip-path="url(#id_0)" d="M459.6494 300.44757C459.6494 302.10443 458.30627 303.44757 456.6494 303.44757C454.99258 303.44757 453.6494 302.10443 453.6494 300.44757C453.6494 298.79074 454.99258 297.44757 456.6494 297.44757C458.30627 297.44757 459.6494 298.79074 459.6494 300.44757Z" fill-rule="nonzero"/><path fill="#000000" fill-opacity="0.0" clip-path="url(#id_0)" d="M464.68234 300.44757C464.68234 302.10443 463.33917 303.44757 461.68234 303.44757C460.02548 303.44757 458.68234 302.10443 458.68234 300.44757C458.68234 298.79074 460.02548 297.44757 461.68234 297.44757C463.33917 297.44757 464.68234 298.79074 464.68234 300.44757Z" fill-rule="nonzero"/><path fill="#000000" fill-opacity="0.0" clip-path="url(#id_0)" d="M469.71524 300.44757C469.71524 302.10443 468.3721 303.44757 466.71524 303.44757C465.05838 303.44757 463.71524 302.10443 463.71524 300.44757C463.71524 298.79074 465.05838 297.44757 466.71524 297.44757C468.3721 297.44757 469.71524 298.79074 469.71524 300.44757Z" fill-rule="nonzero"/><path fill="#000000" fill-opacity="0.0" clip-path="url(#id_0)" d="M474.74713 300.44757C474.74713 302.10443 473.404 303.44757 471.74713 303.44757C470.09027 303.44757 468.74713 302.10443 468.74713 300.44757C468.74713 298.79074 470.09027 297.44757 471.74713 297.44757C473.404 297.44757 474.74713 298.79074 474.74713 300.44757Z" fill-rule="nonzero"/><path fill="#000000" fill-opacity="0.0" clip-path="url(#id_0)" d="M479.77905 300.44757C479.77905 302.10443 478.43588 303.44757 476.77905 303.44757C475.1222 303.44757 473.77905 302.10443 473.77905 300.44757C473.77905 298.79074 475.1222 297.44757 476.77905 297.44757C478.43588 297.44757 479.77905 298.79074 479.77905 300.44757Z" fill-rule="nonzero"/><path fill="#000000" fill-opacity="0.0" clip-path="url(#id_0)" d="M484.80994 300.44757C484.80994 302.10443 483.4668 303.44757 481.80994 303.44757C480.15308 303.44757 478.80994 302.10443 478.80994 300.44757C478.80994 298.79074 480.15308 297.44757 481.80994 297.44757C483.4668 297.44757 484.80994 298.79074 484.80994 300.44757Z" fill-rule="nonzero"/><path fill="#000000" fill-opacity="0.0" clip-path="url(#id_0)" d="M489.8413 300.44757C489.8413 302.10443 488.49817 303.44757 486.8413 303.44757C485.18448 303.44757 483.8413 302.10443 483.8413 300.44757C483.8413 298.79074 485.18448 297.44757 486.8413 297.44757C488.49817 297.44757 489.8413 298.79074 489.8413 300.44757Z" fill-rule="nonzero"/><path fill="#000000" fill-opacity="0.0" clip-path="url(#id_0)" d="M494.8717 300.44757C494.8717 302.10443 493.52856 303.44757 491.8717 303.44757C490.21484 303.44757 488.8717 302.10443 488.8717 300.44757C488.8717 298.79074 490.21484 297.44757 491.8717 297.44757C493.52856 297.44757 494.8717 298.79074 494.8717 300.44757Z" fill-rule="nonzero"/><path fill="#000000" fill-opacity="0.0" clip-path="url(#id_0)" d="M499.90158 300.4476C499.90158 302.10443 498.55844 303.4476 496.90158 303.4476C495.24472 303.4476 493.90158 302.10443 493.90158 300.4476C493.90158 298.79074 495.24472 297.4476 496.90158 297.4476C498.55844 297.4476 499.90158 298.79074 499.90158 300.4476Z" fill-rule="nonzero"/><path fill="#000000" fill-opacity="0.0" clip-path="url(#id_0)" d="M504.93146 300.4476C504.93146 302.10443 503.58832 303.4476 501.93146 303.4476C500.2746 303.4476 498.93146 302.10443 498.93146 300.4476C498.93146 298.79074 500.2746 297.4476 501.93146 297.4476C503.58832 297.4476 504.93146 298.79074 504.93146 300.4476Z" fill-rule="nonzero"/><path fill="#000000" fill-opacity="0.0" clip-path="url(#id_0)" d="M509.96085 300.4476C509.96085 302.10443 508.6177 303.4476 506.96085 303.4476C505.304 303.4476 503.96085 302.10443 503.96085 300.4476C503.96085 298.79074 505.304 297.4476 506.96085 297.4476C508.6177 297.4476 509.96085 298.79074 509.96085 300.4476Z" fill-rule="nonzero"/><path fill="#000000" fill-opacity="0.0" clip-path="url(#id_0)" d="M514.9892 300.4476C514.9892 302.10443 513.64606 303.4476 511.9892 303.4476C510.33234 303.4476 508.9892 302.10443 508.9892 300.4476C508.9892 298.79074 510.33234 297.4476 511.9892 297.4476C513.64606 297.4476 514.9892 298.79074 514.9892 300.4476Z" fill-rule="nonzero"/><path fill="#000000" fill-opacity="0.0" clip-path="url(#id_0)" d="M520.01807 300.4476C520.01807 302.10443 518.6749 303.4476 517.01807 303.4476C515.3612 303.4476 514.01807 302.10443 514.01807 300.4476C514.01807 298.79074 515.3612 297.4476 517.01807 297.4476C518.6749 297.4476 520.01807 298.79074 520.01807 300.4476Z" fill-rule="nonzero"/><path fill="#000000" fill-opacity="0.0" clip-path="url(#id_0)" d="M525.04596 300.4476C525.04596 302.10443 523.7028 303.4476 522.04596 303.4476C520.3891 303.4476 519.04596 302.10443 519.04596 300.4476C519.04596 298.79074 520.3891 297.4476 522.04596 297.4476C523.7028 297.4476 525.04596 298.79074 525.04596 300.4476Z" fill-rule="nonzero"/><path fill="#000000" fill-opacity="0.0" clip-path="url(#id_0)" d="M530.0733 300.4476C530.0733 302.10443 528.73016 303.4476 527.0733 303.4476C525.41644 303.4476 524.0733 302.10443 524.0733 300.4476C524.0733 298.79074 525.41644 297.4476 527.0733 297.4476C528.73016 297.4476 530.0733 298.79074 530.0733 300.4476Z" fill-rule="nonzero"/><path fill="#000000" fill-opacity="0.0" clip-path="url(#id_0)" d="M535.10016 300.4476C535.10016 302.10443 533.757 303.4476 532.10016 303.4476C530.4433 303.4476 529.10016 302.10443 529.10016 300.4476C529.10016 298.79074 530.4433 297.4476 532.10016 297.4476C533.757 297.4476 535.10016 298.79074 535.10016 300.4476Z" fill-rule="nonzero"/><path fill="#000000" fill-opacity="0.0" clip-path="url(#id_0)" d="M540.127 300.4476C540.127 302.10443 538.7839 303.4476 537.127 303.4476C535.47015 303.4476 534.127 302.10443 534.127 300.4476C534.127 298.79074 535.47015 297.4476 537.127 297.4476C538.7839 297.4476 540.127 298.79074 540.127 300.4476Z" fill-rule="nonzero"/><path fill="#000000" fill-opacity="0.0" clip-path="url(#id_0)" d="M545.15283 300.4476C545.15283 302.10443 543.8097 303.4476 542.15283 303.4476C540.496 303.4476 539.15283 302.10443 539.15283 300.4476C539.15283 298.79074 540.496 297.4476 542.15283 297.4476C543.8097 297.4476 545.15283 298.79074 545.15283 300.4476Z" fill-rule="nonzero"/><path fill="#000000" fill-opacity="0.0" clip-path="url(#id_0)" d="M550.17865 300.4476C550.17865 302.10443 548.8355 303.4476 547.17865 303.4476C545.52185 303.4476 544.17865 302.10443 544.17865 300.4476C544.17865 298.79074 545.52185 297.4476 547.17865 297.4476C548.8355 297.4476 550.17865 298.79074 550.17865 300.4476Z" fill-rule="nonzero"/><path fill="#000000" fill-opacity="0.0" clip-path="url(#id_0)" d="M555.20404 300.4476C555.20404 302.10443 553.86084 303.4476 552.20404 303.4476C550.5472 303.4476 549.20404 302.10443 549.20404 300.4476C549.20404 298.79074 550.5472 297.4476 552.20404 297.4476C553.86084 297.4476 555.20404 298.79074 555.20404 300.4476Z" fill-rule="nonzero"/><path fill="#000000" fill-opacity="0.0" clip-path="url(#id_0)" d="M560.22833 300.4476C560.22833 302.10443 558.8852 303.4476 557.22833 303.4476C555.5715 303.4476 554.22833 302.10443 554.22833 300.4476C554.22833 298.79074 555.5715 297.4476 557.22833 297.4476C558.8852 297.4476 560.22833 298.79074 560.22833 300.4476Z" fill-rule="nonzero"/><path fill="#000000" fill-opacity="0.0" clip-path="url(#id_0)" d="M565.2527 300.4476C565.2527 302.10443 563.90955 303.4476 562.2527 303.4476C560.5958 303.4476 559.2527 302.10443 559.2527 300.4476C559.2527 298.79074 560.5958 297.4476 562.2527 297.4476C563.90955 297.4476 565.2527 298.79074 565.2527 300.4476Z" fill-rule="nonzero"/><path fill="#000000" fill-opacity="0.0" clip-path="url(#id_0)" d="M570.2765 300.4476C570.2765 302.10443 568.93335 303.4476 567.2765 303.4476C565.6196 303.4476 564.2765 302.10443 564.2765 300.4476C564.2765 298.79074 565.6196 297.4476 567.2765 297.4476C568.93335 297.4476 570.2765 298.79074 570.2765 300.4476Z" fill-rule="nonzero"/><path fill="#000000" fill-opacity="0.0" clip-path="url(#id_0)" d="M575.2998 300.4476C575.2998 302.10443 573.95667 303.4476 572.2998 303.4476C570.64294 303.4476 569.2998 302.10443 569.2998 300.4476C569.2998 298.79074 570.64294 297.4476 572.2998 297.4476C573.95667 297.4476 575.2998 298.79074 575.2998 300.4476Z" fill-rule="nonzero"/><path fill="#000000" fill-opacity="0.0" clip-path="url(#id_0)" d="M580.32263 300.4476C580.32263 302.10443 578.9795 303.4476 577.32263 303.4476C575.6658 303.4476 574.32263 302.10443 574.32263 300.4476C574.32263 298.79074 575.6658 297.4476 577.32263 297.4476C578.9795 297.4476 580.32263 298.79074 580.32263 300.4476Z" fill-rule="nonzero"/><path fill="#000000" fill-opacity="0.0" clip-path="url(#id_0)" d="M584.45 300.4476C584.45 302.10446 583.1069 303.4476 581.45 303.4476C579.79315 303.4476 578.45 302.10446 578.45 300.4476C578.45 298.79074 579.79315 297.4476 581.45 297.4476C583.1069 297.4476 584.45 298.79074 584.45 300.4476Z" fill-rule="nonzero"/><path fill="#000000" d="M308.875 349.45L308.875 348.52814Q308.14062 349.59064 306.89062 349.59064Q306.34375 349.59064 305.85938 349.3875Q305.39062 349.16876 305.15625 348.85626Q304.92188 348.52814 304.82812 348.0594Q304.76562 347.7625 304.76562 347.075L304.76562 343.23126L305.82812 343.23126L305.82812 346.6844Q305.82812 347.4969 305.89062 347.79376Q305.98438 348.2 306.29688 348.45Q306.625 348.6844 307.10938 348.6844Q307.57812 348.6844 307.98438 348.45Q308.40625 348.2 308.57812 347.77814Q308.76562 347.35626 308.76562 346.5594L308.76562 343.23126L309.8125 343.23126L309.8125 349.45L308.875 349.45ZM314.8125 351.84064L314.8125 340.85626L317.14062 340.85626L317.14062 341.73126L315.875 341.73126L315.875 350.96564L317.14062 350.96564L317.14062 351.84064L314.8125 351.84064ZM317.79688 342.075L317.79688 340.85626L318.85938 340.85626L318.85938 342.075L317.79688 342.075ZM317.79688 349.45L317.79688 343.23126L318.85938 343.23126L318.85938 349.45L317.79688 349.45ZM320.79688 349.45L320.79688 343.23126L321.73438 343.23126L321.73438 344.10626Q322.42188 343.09064 323.71875 343.09064Q324.28125 343.09064 324.75 343.29376Q325.23438 343.4969 325.46875 343.825Q325.70312 344.15314 325.79688 344.59064Q325.84375 344.8875 325.84375 345.6219L325.84375 349.45L324.79688 349.45L324.79688 345.66876Q324.79688 345.0125 324.67188 344.7Q324.54688 344.3875 324.23438 344.2Q323.92188 343.9969 323.5 343.9969Q322.82812 343.9969 322.32812 344.4344Q321.84375 344.85626 321.84375 346.04376L321.84375 349.45L320.79688 349.45ZM330.79688 349.45L330.79688 343.23126L331.73438 343.23126L331.73438 344.10626Q332.03125 343.6375 332.51562 343.3719Q333.0 343.09064 333.625 343.09064Q334.3125 343.09064 334.75 343.3719Q335.20312 343.65314 335.375 344.16876Q336.125 343.09064 337.29688 343.09064Q338.23438 343.09064 338.71875 343.60626Q339.21875 344.10626 339.21875 345.1844L339.21875 349.45L338.17188 349.45L338.17188 345.52814Q338.17188 344.90314 338.0625 344.6219Q337.96875 344.34064 337.70312 344.16876Q337.4375 343.9969 337.0625 343.9969Q336.40625 343.9969 335.96875 344.4344Q335.54688 344.8719 335.54688 345.84064L335.54688 349.45L334.48438 349.45L334.48438 345.40314Q334.48438 344.7 334.21875 344.35626Q333.96875 343.9969 333.39062 343.9969Q332.9375 343.9969 332.5625 344.23126Q332.1875 344.46564 332.01562 344.91876Q331.84375 345.3719 331.84375 346.21564L331.84375 349.45L330.79688 349.45ZM341.79688 349.45L341.79688 343.23126L342.73438 343.23126L342.73438 344.10626Q343.03125 343.6375 343.51562 343.3719Q344.0 343.09064 344.625 343.09064Q345.3125 343.09064 345.75 343.3719Q346.20312 343.65314 346.375 344.16876Q347.125 343.09064 348.29688 343.09064Q349.23438 343.09064 349.71875 343.60626Q350.21875 344.10626 350.21875 345.1844L350.21875 349.45L349.17188 349.45L349.17188 345.52814Q349.17188 344.90314 349.0625 344.6219Q348.96875 344.34064 348.70312 344.16876Q348.4375 343.9969 348.0625 343.9969Q347.40625 343.9969 346.96875 344.4344Q346.54688 344.8719 346.54688 345.84064L346.54688 349.45L345.48438 349.45L345.48438 345.40314Q345.48438 344.7 345.21875 344.35626Q344.96875 343.9969 344.39062 343.9969Q343.9375 343.9969 343.5625 344.23126Q343.1875 344.46564 343.01562 344.91876Q342.84375 345.3719 342.84375 346.21564L342.84375 349.45L341.79688 349.45ZM354.5625 351.84064L352.23438 351.84064L352.23438 350.96564L353.5 350.96564L353.5 341.73126L352.23438 341.73126L352.23438 340.85626L354.5625 340.85626L354.5625 351.84064Z" fill-rule="nonzero"/><path fill="#000000" d="M26.784388 214.63646L26.690638 213.57396Q27.346888 213.49583 27.753138 213.21458Q28.159388 212.93333 28.425013 212.35521Q28.675013 211.76146 28.675013 211.02708Q28.675013 210.38646 28.487513 209.88646Q28.284388 209.38646 27.956263 209.15208Q27.612513 208.90208 27.221888 208.90208Q26.815638 208.90208 26.518763 209.13646Q26.206263 209.37083 26.003138 209.90208Q25.862513 210.26146 25.581263 211.44896Q25.300013 212.62083 25.050013 213.08958Q24.721888 213.71458 24.253138 214.01146Q23.768763 214.30833 23.175013 214.30833Q22.534388 214.30833 21.971888 213.94896Q21.393763 213.57396 21.112513 212.87083Q20.815638 212.15208 20.815638 211.29271Q20.815638 210.33958 21.128138 209.60521Q21.425013 208.87083 22.034388 208.48021Q22.628138 208.08958 23.378138 208.05833L23.456263 209.15208Q22.643763 209.24583 22.237513 209.76146Q21.815638 210.26146 21.815638 211.24583Q21.815638 212.27708 22.190638 212.74583Q22.565638 213.21458 23.096888 213.21458Q23.565638 213.21458 23.862513 212.88646Q24.159388 212.55833 24.471888 211.18333Q24.784388 209.79271 25.018763 209.27708Q25.378138 208.52708 25.909388 208.16771Q26.425013 207.80833 27.128138 207.80833Q27.815638 207.80833 28.425013 208.19896Q29.018763 208.58958 29.362513 209.32396Q29.690638 210.05833 29.690638 210.98021Q29.690638 212.15208 29.362513 212.94896Q29.018763 213.73021 28.331263 214.18333Q27.643763 214.62083 26.784388 214.63646ZM29.550013 202.71458L29.550013 203.76146L22.831263 203.76146Q23.190638 204.15208 23.565638 204.77708Q23.925013 205.38646 24.096888 205.87083L23.081263 205.87083Q22.659388 204.99583 22.081263 204.33958Q21.487513 203.66771 20.925013 203.38646L20.925013 202.71458L29.550013 202.71458ZM28.534388 194.13646L29.550013 194.13646L29.550013 199.82396Q29.175013 199.82396 28.815638 199.69896Q28.237513 199.48021 27.675013 199.01146Q27.112513 198.52708 26.378138 197.62083Q25.221888 196.21458 24.550013 195.73021Q23.878138 195.23021 23.284388 195.23021Q22.659388 195.23021 22.237513 195.68333Q21.800013 196.13646 21.800013 196.85521Q21.800013 197.62083 22.253138 198.07396Q22.706263 198.52708 23.518763 198.54271L23.409388 199.62083Q22.190638 199.51146 21.565638 198.79271Q20.925013 198.05833 20.925013 196.82396Q20.925013 195.58958 21.612513 194.87083Q22.300013 194.15208 23.315638 194.15208Q23.831263 194.15208 24.331263 194.37083Q24.815638 194.57396 25.378138 195.07396Q25.925013 195.55833 26.878138 196.68333Q27.675013 197.63646 27.971888 197.91771Q28.253138 198.18333 28.534388 198.35521L28.534388 194.13646ZM31.940638 189.37083L20.956263 189.37083L20.956263 187.04271L21.831263 187.04271L21.831263 188.30833L31.065638 188.30833L31.065638 187.04271L31.940638 187.04271L31.940638 189.37083ZM29.550013 186.29271L20.956263 186.29271L20.956263 184.57396L27.034388 182.54271Q27.893763 182.26146 28.315638 182.13646Q27.846888 181.99583 26.940638 181.68333L20.956263 179.62083L20.956263 178.08958L29.550013 178.08958L29.550013 179.18333L22.362513 179.18333L29.550013 181.68333L29.550013 182.71458L22.237513 185.19896L29.550013 185.19896L29.550013 186.29271ZM29.550013 177.26146L20.956263 177.26146L20.956263 174.01146Q20.956263 173.16771 21.034388 172.71458Q21.143763 172.07396 21.440638 171.65208Q21.737513 171.21458 22.268763 170.96458Q22.800013 170.69896 23.440638 170.69896Q24.534388 170.69896 25.300013 171.40208Q26.050013 172.08958 26.050013 173.91771L26.050013 176.12083L29.550013 176.12083L29.550013 177.26146ZM25.050013 176.12083L25.050013 173.90208Q25.050013 172.79271 24.643763 172.33958Q24.221888 171.87083 23.471888 171.87083Q22.940638 171.87083 22.565638 172.15208Q22.175013 172.41771 22.050013 172.85521Q21.971888 173.15208 21.971888 173.91771L21.971888 176.12083L25.050013 176.12083ZM28.784388 165.32396Q29.284388 165.91771 29.487513 166.46458Q29.690638 166.99583 29.690638 167.62083Q29.690638 168.65208 29.190638 169.19896Q28.690638 169.74583 27.909388 169.74583Q27.456263 169.74583 27.081263 169.54271Q26.690638 169.33958 26.471888 168.99583Q26.237513 168.65208 26.128138 168.23021Q26.034388 167.93333 25.956263 167.29271Q25.815638 166.02708 25.596888 165.41771Q25.378138 165.41771 25.331263 165.41771Q24.675013 165.41771 24.409388 165.71458Q24.065638 166.12083 24.065638 166.91771Q24.065638 167.65208 24.331263 168.01146Q24.581263 168.37083 25.237513 168.54271L25.096888 169.57396Q24.440638 169.43333 24.034388 169.10521Q23.628138 168.77708 23.409388 168.16771Q23.190638 167.55833 23.190638 166.76146Q23.190638 165.96458 23.378138 165.46458Q23.565638 164.96458 23.846888 164.73021Q24.128138 164.49583 24.565638 164.40208Q24.831263 164.35521 25.534388 164.35521L26.940638 164.35521Q28.409388 164.35521 28.800013 164.29271Q29.190638 164.21458 29.550013 164.01146L29.550013 165.12083Q29.221888 165.27708 28.784388 165.32396ZM26.425013 165.41771Q26.659388 165.99583 26.831263 167.13646Q26.925013 167.79271 27.050013 168.05833Q27.159388 168.32396 27.378138 168.48021Q27.596888 168.62083 27.878138 168.62083Q28.300013 168.62083 28.581263 168.30833Q28.862513 167.98021 28.862513 167.37083Q28.862513 166.76146 28.596888 166.29271Q28.331263 165.80833 27.862513 165.58958Q27.503138 165.41771 26.815638 165.41771L26.425013 165.41771ZM31.940638 160.62083L31.940638 162.94896L31.065638 162.94896L31.065638 161.68333L21.831263 161.68333L21.831263 162.94896L20.956263 162.94896L20.956263 160.62083L31.940638 160.62083Z" fill-rule="nonzero"/><path fill="#000000" d="M65.05 300.21564Q65.05 298.6844 65.3625 297.7625Q65.675 296.825 66.28438 296.325Q66.90938 295.825 67.84688 295.825Q68.53438 295.825 69.05 296.10626Q69.58125 296.3875 69.925 296.91876Q70.26875 297.4344 70.45625 298.1844Q70.64375 298.9344 70.64375 300.21564Q70.64375 301.73126 70.33125 302.65314Q70.03438 303.575 69.40938 304.09064Q68.8 304.59064 67.84688 304.59064Q66.6125 304.59064 65.89375 303.7Q65.05 302.6375 65.05 300.21564ZM66.12813 300.21564Q66.12813 302.325 66.62813 303.02814Q67.12813 303.73126 67.84688 303.73126Q68.58125 303.73126 69.06563 303.02814Q69.56563 302.325 69.56563 300.21564Q69.56563 298.09064 69.06563 297.40314Q68.58125 296.7 67.83125 296.7Q67.1125 296.7 66.675 297.3094Q66.12813 298.09064 66.12813 300.21564Z" fill-rule="nonzero"/><path fill="#000000" d="M63.596874 243.80104L63.596874 244.81667L57.909374 244.81667Q57.909374 244.44167 58.034374 244.08229Q58.253124 243.50417 58.721874 242.94167Q59.20625 242.37917 60.1125 241.64479Q61.51875 240.48854 62.003124 239.81667Q62.503124 239.14479 62.503124 238.55104Q62.503124 237.92604 62.05 237.50417Q61.596874 237.06667 60.878124 237.06667Q60.1125 237.06667 59.659374 237.51979Q59.20625 237.97292 59.190624 238.78542L58.1125 238.67604Q58.221874 237.45729 58.940624 236.83229Q59.675 236.19167 60.909374 236.19167Q62.14375 236.19167 62.8625 236.87917Q63.58125 237.56667 63.58125 238.58229Q63.58125 239.09792 63.3625 239.59792Q63.159374 240.08229 62.659374 240.64479Q62.175 241.19167 61.05 242.14479Q60.096874 242.94167 59.815624 243.23854Q59.55 243.51979 59.378124 243.80104L63.596874 243.80104ZM65.05 240.58229Q65.05 239.05104 65.3625 238.12917Q65.675 237.19167 66.28438 236.69167Q66.90938 236.19167 67.84688 236.19167Q68.53438 236.19167 69.05 236.47292Q69.58125 236.75417 69.925 237.28542Q70.26875 237.80104 70.45625 238.55104Q70.64375 239.30104 70.64375 240.58229Q70.64375 242.09792 70.33125 243.01979Q70.03438 243.94167 69.40938 244.45729Q68.8 244.95729 67.84688 244.95729Q66.6125 244.95729 65.89375 244.06667Q65.05 243.00417 65.05 240.58229ZM66.12813 240.58229Q66.12813 242.69167 66.62813 243.39479Q67.12813 244.09792 67.84688 244.09792Q68.58125 244.09792 69.06563 243.39479Q69.56563 242.69167 69.56563 240.58229Q69.56563 238.45729 69.06563 237.76979Q68.58125 237.06667 67.83125 237.06667Q67.1125 237.06667 66.675 237.67604Q66.12813 238.45729 66.12813 240.58229Z" fill-rule="nonzero"/><path fill="#000000" d="M61.425 185.18333L61.425 183.12083L57.70625 183.12083L57.70625 182.15208L61.628124 176.58958L62.4875 176.58958L62.4875 182.15208L63.64375 182.15208L63.64375 183.12083L62.4875 183.12083L62.4875 185.18333L61.425 185.18333ZM61.425 182.15208L61.425 178.29271L58.7375 182.15208L61.425 182.15208ZM65.05 180.94896Q65.05 179.41771 65.3625 178.49583Q65.675 177.55833 66.28438 177.05833Q66.90938 176.55833 67.84688 176.55833Q68.53438 176.55833 69.05 176.83958Q69.58125 177.12083 69.925 177.65208Q70.26875 178.16771 70.45625 178.91771Q70.64375 179.66771 70.64375 180.94896Q70.64375 182.46458 70.33125 183.38646Q70.03438 184.30833 69.40938 184.82396Q68.8 185.32396 67.84688 185.32396Q66.6125 185.32396 65.89375 184.43333Q65.05 183.37083 65.05 180.94896ZM66.12813 180.94896Q66.12813 183.05833 66.62813 183.76146Q67.12813 184.46458 67.84688 184.46458Q68.58125 184.46458 69.06563 183.76146Q69.56563 183.05833 69.56563 180.94896Q69.56563 178.82396 69.06563 178.13646Q68.58125 177.43333 67.83125 177.43333Q67.1125 177.43333 66.675 178.04271Q66.12813 178.82396 66.12813 180.94896Z" fill-rule="nonzero"/><path fill="#000000" d="M63.51875 119.06563L62.471874 119.14375Q62.33125 118.51875 62.08125 118.2375Q61.64375 117.78438 61.01875 117.78438Q60.51875 117.78438 60.128124 118.06563Q59.64375 118.44063 59.346874 119.14375Q59.065624 119.83125 59.05 121.1125Q59.425 120.53438 59.971874 120.25313Q60.534374 119.97188 61.14375 119.97188Q62.190624 119.97188 62.925 120.75313Q63.675 121.53438 63.675 122.75313Q63.675 123.56563 63.315624 124.26875Q62.971874 124.95625 62.3625 125.33125Q61.753124 125.69063 60.9875 125.69063Q59.659374 125.69063 58.83125 124.72188Q58.003124 123.75313 58.003124 121.53438Q58.003124 119.03438 58.925 117.90938Q59.721874 116.925 61.08125 116.925Q62.096874 116.925 62.7375 117.50313Q63.39375 118.06563 63.51875 119.06563ZM59.221874 122.76875Q59.221874 123.31563 59.440624 123.81563Q59.675 124.3 60.08125 124.56563Q60.503124 124.83125 60.971874 124.83125Q61.628124 124.83125 62.1125 124.3Q62.596874 123.75313 62.596874 122.83125Q62.596874 121.94063 62.1125 121.425Q61.64375 120.90938 60.925 120.90938Q60.20625 120.90938 59.70625 121.425Q59.221874 121.94063 59.221874 122.76875ZM65.05 121.31563Q65.05 119.78438 65.3625 118.8625Q65.675 117.925 66.28438 117.425Q66.90938 116.925 67.84688 116.925Q68.53438 116.925 69.05 117.20625Q69.58125 117.4875 69.925 118.01875Q70.26875 118.53438 70.45625 119.28438Q70.64375 120.03438 70.64375 121.31563Q70.64375 122.83125 70.33125 123.75313Q70.03438 124.675 69.40938 125.19063Q68.8 125.69063 67.84688 125.69063Q66.6125 125.69063 65.89375 124.8Q65.05 123.7375 65.05 121.31563ZM66.12813 121.31563Q66.12813 123.425 66.62813 124.12813Q67.12813 124.83125 67.84688 124.83125Q68.58125 124.83125 69.06563 124.12813Q69.56563 123.425 69.56563 121.31563Q69.56563 119.19063 69.06563 118.50313Q68.58125 117.8 67.83125 117.8Q67.1125 117.8 66.675 118.40938Q66.12813 119.19063 66.12813 121.31563Z" fill-rule="nonzero"/><path fill="#000000" d="M59.675 61.260414Q59.01875 61.010414 58.690624 60.572914Q58.378124 60.11979 58.378124 59.510414Q58.378124 58.572914 59.05 57.93229Q59.7375 57.291664 60.846874 57.291664Q61.971874 57.291664 62.659374 57.947914Q63.346874 58.604164 63.346874 59.541664Q63.346874 60.135414 63.034374 60.572914Q62.721874 61.010414 62.08125 61.260414Q62.878124 61.510414 63.284374 62.08854Q63.690624 62.666664 63.690624 63.46354Q63.690624 64.55729 62.909374 65.30729Q62.14375 66.05729 60.8625 66.05729Q59.596874 66.05729 58.815624 65.30729Q58.034374 64.55729 58.034374 63.43229Q58.034374 62.58854 58.45625 62.02604Q58.89375 61.46354 59.675 61.260414ZM59.45625 59.46354Q59.45625 60.072914 59.846874 60.46354Q60.253124 60.854164 60.878124 60.854164Q61.4875 60.854164 61.878124 60.479164Q62.26875 60.08854 62.26875 59.52604Q62.26875 58.947914 61.8625 58.55729Q61.45625 58.15104 60.8625 58.15104Q60.253124 58.15104 59.846874 58.541664Q59.45625 58.93229 59.45625 59.46354ZM59.128124 63.43229Q59.128124 63.885414 59.33125 64.30729Q59.55 64.729164 59.971874 64.96354Q60.39375 65.197914 60.878124 65.197914Q61.628124 65.197914 62.1125 64.71354Q62.6125 64.229164 62.6125 63.479164Q62.6125 62.71354 62.1125 62.21354Q61.6125 61.71354 60.846874 61.71354Q60.096874 61.71354 59.6125 62.21354Q59.128124 62.697914 59.128124 63.43229ZM65.05 61.68229Q65.05 60.15104 65.3625 59.229164Q65.675 58.291664 66.28438 57.791664Q66.90938 57.291664 67.84688 57.291664Q68.53438 57.291664 69.05 57.572914Q69.58125 57.854164 69.925 58.385414Q70.26875 58.90104 70.45625 59.65104Q70.64375 60.40104 70.64375 61.68229Q70.64375 63.197914 70.33125 64.11979Q70.03438 65.041664 69.40938 65.55729Q68.8 66.05729 67.84688 66.05729Q66.6125 66.05729 65.89375 65.166664Q65.05 64.104164 65.05 61.68229ZM66.12813 61.68229Q66.12813 63.791664 66.62813 64.49479Q67.12813 65.197914 67.84688 65.197914Q68.58125 65.197914 69.06563 64.49479Q69.56563 63.791664 69.56563 61.68229Q69.56563 59.55729 69.06563 58.86979Q68.58125 58.166664 67.83125 58.166664Q67.1125 58.166664 66.675 58.77604Q66.12813 59.55729 66.12813 61.68229Z" fill-rule="nonzero"/><path fill="#000000" d="M159.54774 316.4344L159.54774 317.45L153.86024 317.45Q153.86024 317.075 153.98524 316.71564Q154.204 316.1375 154.67274 315.575Q155.15712 315.0125 156.06337 314.27814Q157.46962 313.1219 157.954 312.45Q158.454 311.77814 158.454 311.1844Q158.454 310.5594 158.00087 310.1375Q157.54774 309.7 156.829 309.7Q156.06337 309.7 155.61024 310.15314Q155.15712 310.60626 155.1415 311.41876L154.06337 311.3094Q154.17274 310.09064 154.8915 309.46564Q155.62587 308.825 156.86024 308.825Q158.09462 308.825 158.81337 309.5125Q159.53212 310.2 159.53212 311.21564Q159.53212 311.73126 159.31337 312.23126Q159.11024 312.71564 158.61024 313.27814Q158.12587 313.825 157.00087 314.77814Q156.04774 315.575 155.7665 315.8719Q155.50087 316.15314 155.329 316.4344L159.54774 316.4344ZM161.59462 317.45L161.59462 316.2469L162.79774 316.2469L162.79774 317.45L161.59462 317.45ZM164.00087 313.21564Q164.00087 311.6844 164.31337 310.7625Q164.62587 309.825 165.23524 309.325Q165.86024 308.825 166.79774 308.825Q167.48524 308.825 168.00087 309.10626Q168.53212 309.3875 168.87587 309.91876Q169.21962 310.4344 169.40712 311.1844Q169.59462 311.9344 169.59462 313.21564Q169.59462 314.73126 169.28212 315.65314Q168.98524 316.575 168.36024 317.09064Q167.75087 317.59064 166.79774 317.59064Q165.56337 317.59064 164.84462 316.7Q164.00087 315.6375 164.00087 313.21564ZM165.079 313.21564Q165.079 315.325 165.579 316.02814Q166.079 316.73126 166.79774 316.73126Q167.53212 316.73126 168.0165 316.02814Q168.5165 315.325 168.5165 313.21564Q168.5165 311.09064 168.0165 310.40314Q167.53212 309.7 166.78212 309.7Q166.06337 309.7 165.62587 310.3094Q165.079 311.09064 165.079 313.21564ZM171.00087 313.21564Q171.00087 311.6844 171.31337 310.7625Q171.62587 309.825 172.23524 309.325Q172.86024 308.825 173.79774 308.825Q174.48524 308.825 175.00087 309.10626Q175.53212 309.3875 175.87587 309.91876Q176.21962 310.4344 176.40712 311.1844Q176.59462 311.9344 176.59462 313.21564Q176.59462 314.73126 176.28212 315.65314Q175.98524 316.575 175.36024 317.09064Q174.75087 317.59064 173.79774 317.59064Q172.56337 317.59064 171.84462 316.7Q171.00087 315.6375 171.00087 313.21564ZM172.079 313.21564Q172.079 315.325 172.579 316.02814Q173.079 316.73126 173.79774 316.73126Q174.53212 316.73126 175.0165 316.02814Q175.5165 315.325 175.5165 313.21564Q175.5165 311.09064 175.0165 310.40314Q174.53212 309.7 173.78212 309.7Q173.06337 309.7 172.62587 310.3094Q172.079 311.09064 172.079 313.21564ZM178.454 317.45L178.454 308.85626L184.65712 308.85626L184.65712 309.8719L179.59462 309.8719L179.59462 312.4969L184.34462 312.4969L184.34462 313.5125L179.59462 313.5125L179.59462 316.4344L184.86024 316.4344L184.86024 317.45L178.454 317.45ZM185.87587 314.8719L185.87587 313.8094L189.12587 313.8094L189.12587 314.8719L185.87587 314.8719ZM190.00087 313.21564Q190.00087 311.6844 190.31337 310.7625Q190.62587 309.825 191.23524 309.325Q191.86024 308.825 192.79774 308.825Q193.48524 308.825 194.00087 309.10626Q194.53212 309.3875 194.87587 309.91876Q195.21962 310.4344 195.40712 311.1844Q195.59462 311.9344 195.59462 313.21564Q195.59462 314.73126 195.28212 315.65314Q194.98524 316.575 194.36024 317.09064Q193.75087 317.59064 192.79774 317.59064Q191.56337 317.59064 190.84462 316.7Q190.00087 315.6375 190.00087 313.21564ZM191.079 313.21564Q191.079 315.325 191.579 316.02814Q192.079 316.73126 192.79774 316.73126Q193.53212 316.73126 194.0165 316.02814Q194.5165 315.325 194.5165 313.21564Q194.5165 311.09064 194.0165 310.40314Q193.53212 309.7 192.78212 309.7Q192.06337 309.7 191.62587 310.3094Q191.079 311.09064 191.079 313.21564ZM202.54774 316.4344L202.54774 317.45L196.86024 317.45Q196.86024 317.075 196.98524 316.71564Q197.204 316.1375 197.67274 315.575Q198.15712 315.0125 199.06337 314.27814Q200.46962 313.1219 200.954 312.45Q201.454 311.77814 201.454 311.1844Q201.454 310.5594 201.00087 310.1375Q200.54774 309.7 199.829 309.7Q199.06337 309.7 198.61024 310.15314Q198.15712 310.60626 198.1415 311.41876L197.06337 311.3094Q197.17274 310.09064 197.8915 309.46564Q198.62587 308.825 199.86024 308.825Q201.09462 308.825 201.81337 309.5125Q202.53212 310.2 202.53212 311.21564Q202.53212 311.73126 202.31337 312.23126Q202.11024 312.71564 201.61024 313.27814Q201.12587 313.825 200.00087 314.77814Q199.04774 315.575 198.7665 315.8719Q198.50087 316.15314 198.329 316.4344L202.54774 316.4344Z" fill-rule="nonzero"/><path fill="#000000" d="M258.32678 317.45L258.32678 315.3875L254.60803 315.3875L254.60803 314.41876L258.5299 308.85626L259.38928 308.85626L259.38928 314.41876L260.54553 314.41876L260.54553 315.3875L259.38928 315.3875L259.38928 317.45L258.32678 317.45ZM258.32678 314.41876L258.32678 310.5594L255.63928 314.41876L258.32678 314.41876ZM262.54553 317.45L262.54553 316.2469L263.74866 316.2469L263.74866 317.45L262.54553 317.45ZM264.95178 313.21564Q264.95178 311.6844 265.26428 310.7625Q265.57678 309.825 266.18616 309.325Q266.81116 308.825 267.74866 308.825Q268.43616 308.825 268.95178 309.10626Q269.48303 309.3875 269.82678 309.91876Q270.17053 310.4344 270.35803 311.1844Q270.54553 311.9344 270.54553 313.21564Q270.54553 314.73126 270.23303 315.65314Q269.93616 316.575 269.31116 317.09064Q268.70178 317.59064 267.74866 317.59064Q266.51428 317.59064 265.79553 316.7Q264.95178 315.6375 264.95178 313.21564ZM266.0299 313.21564Q266.0299 315.325 266.5299 316.02814Q267.0299 316.73126 267.74866 316.73126Q268.48303 316.73126 268.9674 316.02814Q269.4674 315.325 269.4674 313.21564Q269.4674 311.09064 268.9674 310.40314Q268.48303 309.7 267.73303 309.7Q267.01428 309.7 266.57678 310.3094Q266.0299 311.09064 266.0299 313.21564ZM271.95178 313.21564Q271.95178 311.6844 272.26428 310.7625Q272.57678 309.825 273.18616 309.325Q273.81116 308.825 274.74866 308.825Q275.43616 308.825 275.95178 309.10626Q276.48303 309.3875 276.82678 309.91876Q277.17053 310.4344 277.35803 311.1844Q277.54553 311.9344 277.54553 313.21564Q277.54553 314.73126 277.23303 315.65314Q276.93616 316.575 276.31116 317.09064Q275.70178 317.59064 274.74866 317.59064Q273.51428 317.59064 272.79553 316.7Q271.95178 315.6375 271.95178 313.21564ZM273.0299 313.21564Q273.0299 315.325 273.5299 316.02814Q274.0299 316.73126 274.74866 316.73126Q275.48303 316.73126 275.9674 316.02814Q276.4674 315.325 276.4674 313.21564Q276.4674 311.09064 275.9674 310.40314Q275.48303 309.7 274.73303 309.7Q274.01428 309.7 273.57678 310.3094Q273.0299 311.09064 273.0299 313.21564ZM279.4049 317.45L279.4049 308.85626L285.60803 308.85626L285.60803 309.8719L280.54553 309.8719L280.54553 312.4969L285.29553 312.4969L285.29553 313.5125L280.54553 313.5125L280.54553 316.4344L285.81116 316.4344L285.81116 317.45L279.4049 317.45ZM286.82678 314.8719L286.82678 313.8094L290.07678 313.8094L290.07678 314.8719L286.82678 314.8719ZM290.95178 313.21564Q290.95178 311.6844 291.26428 310.7625Q291.57678 309.825 292.18616 309.325Q292.81116 308.825 293.74866 308.825Q294.43616 308.825 294.95178 309.10626Q295.48303 309.3875 295.82678 309.91876Q296.17053 310.4344 296.35803 311.1844Q296.54553 311.9344 296.54553 313.21564Q296.54553 314.73126 296.23303 315.65314Q295.93616 316.575 295.31116 317.09064Q294.70178 317.59064 293.74866 317.59064Q292.51428 317.59064 291.79553 316.7Q290.95178 315.6375 290.95178 313.21564ZM292.0299 313.21564Q292.0299 315.325 292.5299 316.02814Q293.0299 316.73126 293.74866 316.73126Q294.48303 316.73126 294.9674 316.02814Q295.4674 315.325 295.4674 313.21564Q295.4674 311.09064 294.9674 310.40314Q294.48303 309.7 293.73303 309.7Q293.01428 309.7 292.57678 310.3094Q292.0299 311.09064 292.0299 313.21564ZM303.49866 316.4344L303.49866 317.45L297.81116 317.45Q297.81116 317.075 297.93616 316.71564Q298.1549 316.1375 298.62366 315.575Q299.10803 315.0125 300.01428 314.27814Q301.42053 313.1219 301.9049 312.45Q302.4049 311.77814 302.4049 311.1844Q302.4049 310.5594 301.95178 310.1375Q301.49866 309.7 300.7799 309.7Q300.01428 309.7 299.56116 310.15314Q299.10803 310.60626 299.0924 311.41876L298.01428 311.3094Q298.12366 310.09064 298.8424 309.46564Q299.57678 308.825 300.81116 308.825Q302.04553 308.825 302.76428 309.5125Q303.48303 310.2 303.48303 311.21564Q303.48303 311.73126 303.26428 312.23126Q303.06116 312.71564 302.56116 313.27814Q302.07678 313.825 300.95178 314.77814Q299.99866 315.575 299.7174 315.8719Q299.45178 316.15314 299.2799 316.4344L303.49866 316.4344Z" fill-rule="nonzero"/><path fill="#000000" d="M361.37146 310.96564L360.3246 311.04376Q360.18396 310.41876 359.93396 310.1375Q359.49646 309.6844 358.87146 309.6844Q358.37146 309.6844 357.98083 309.96564Q357.49646 310.34064 357.1996 311.04376Q356.91833 311.73126 356.9027 313.0125Q357.2777 312.4344 357.8246 312.15314Q358.3871 311.8719 358.99646 311.8719Q360.04333 311.8719 360.7777 312.65314Q361.5277 313.4344 361.5277 314.65314Q361.5277 315.46564 361.16833 316.16876Q360.8246 316.85626 360.2152 317.23126Q359.60583 317.59064 358.8402 317.59064Q357.5121 317.59064 356.68396 316.6219Q355.85583 315.65314 355.85583 313.4344Q355.85583 310.9344 356.7777 309.8094Q357.5746 308.825 358.93396 308.825Q359.9496 308.825 360.5902 309.40314Q361.24646 309.96564 361.37146 310.96564ZM357.0746 314.66876Q357.0746 315.21564 357.29333 315.71564Q357.5277 316.2 357.93396 316.46564Q358.35583 316.73126 358.8246 316.73126Q359.48083 316.73126 359.9652 316.2Q360.4496 315.65314 360.4496 314.73126Q360.4496 313.84064 359.9652 313.325Q359.49646 312.8094 358.7777 312.8094Q358.05896 312.8094 357.55896 313.325Q357.0746 313.84064 357.0746 314.66876ZM363.49646 317.45L363.49646 316.2469L364.6996 316.2469L364.6996 317.45L363.49646 317.45ZM365.9027 313.21564Q365.9027 311.6844 366.2152 310.7625Q366.5277 309.825 367.1371 309.325Q367.7621 308.825 368.6996 308.825Q369.3871 308.825 369.9027 309.10626Q370.43396 309.3875 370.7777 309.91876Q371.12146 310.4344 371.30896 311.1844Q371.49646 311.9344 371.49646 313.21564Q371.49646 314.73126 371.18396 315.65314Q370.8871 316.575 370.2621 317.09064Q369.6527 317.59064 368.6996 317.59064Q367.4652 317.59064 366.74646 316.7Q365.9027 315.6375 365.9027 313.21564ZM366.98083 313.21564Q366.98083 315.325 367.48083 316.02814Q367.98083 316.73126 368.6996 316.73126Q369.43396 316.73126 369.91833 316.02814Q370.41833 315.325 370.41833 313.21564Q370.41833 311.09064 369.91833 310.40314Q369.43396 309.7 368.68396 309.7Q367.9652 309.7 367.5277 310.3094Q366.98083 311.09064 366.98083 313.21564ZM372.9027 313.21564Q372.9027 311.6844 373.2152 310.7625Q373.5277 309.825 374.1371 309.325Q374.7621 308.825 375.6996 308.825Q376.3871 308.825 376.9027 309.10626Q377.43396 309.3875 377.7777 309.91876Q378.12146 310.4344 378.30896 311.1844Q378.49646 311.9344 378.49646 313.21564Q378.49646 314.73126 378.18396 315.65314Q377.8871 316.575 377.2621 317.09064Q376.6527 317.59064 375.6996 317.59064Q374.4652 317.59064 373.74646 316.7Q372.9027 315.6375 372.9027 313.21564ZM373.98083 313.21564Q373.98083 315.325 374.48083 316.02814Q374.98083 316.73126 375.6996 316.73126Q376.43396 316.73126 376.91833 316.02814Q377.41833 315.325 377.41833 313.21564Q377.41833 311.09064 376.91833 310.40314Q376.43396 309.7 375.68396 309.7Q374.9652 309.7 374.5277 310.3094Q373.98083 311.09064 373.98083 313.21564ZM380.35583 317.45L380.35583 308.85626L386.55896 308.85626L386.55896 309.8719L381.49646 309.8719L381.49646 312.4969L386.24646 312.4969L386.24646 313.5125L381.49646 313.5125L381.49646 316.4344L386.7621 316.4344L386.7621 317.45L380.35583 317.45ZM387.7777 314.8719L387.7777 313.8094L391.0277 313.8094L391.0277 314.8719L387.7777 314.8719ZM391.9027 313.21564Q391.9027 311.6844 392.2152 310.7625Q392.5277 309.825 393.1371 309.325Q393.7621 308.825 394.6996 308.825Q395.3871 308.825 395.9027 309.10626Q396.43396 309.3875 396.7777 309.91876Q397.12146 310.4344 397.30896 311.1844Q397.49646 311.9344 397.49646 313.21564Q397.49646 314.73126 397.18396 315.65314Q396.8871 316.575 396.2621 317.09064Q395.6527 317.59064 394.6996 317.59064Q393.4652 317.59064 392.74646 316.7Q391.9027 315.6375 391.9027 313.21564ZM392.98083 313.21564Q392.98083 315.325 393.48083 316.02814Q393.98083 316.73126 394.6996 316.73126Q395.43396 316.73126 395.91833 316.02814Q396.41833 315.325 396.41833 313.21564Q396.41833 311.09064 395.91833 310.40314Q395.43396 309.7 394.68396 309.7Q393.9652 309.7 393.5277 310.3094Q392.98083 311.09064 392.98083 313.21564ZM404.4496 316.4344L404.4496 317.45L398.7621 317.45Q398.7621 317.075 398.8871 316.71564Q399.10583 316.1375 399.5746 315.575Q400.05896 315.0125 400.9652 314.27814Q402.37146 313.1219 402.85583 312.45Q403.35583 311.77814 403.35583 311.1844Q403.35583 310.5594 402.9027 310.1375Q402.4496 309.7 401.73083 309.7Q400.9652 309.7 400.5121 310.15314Q400.05896 310.60626 400.04333 311.41876L398.9652 311.3094Q399.0746 310.09064 399.79333 309.46564Q400.5277 308.825 401.7621 308.825Q402.99646 308.825 403.7152 309.5125Q404.43396 310.2 404.43396 311.21564Q404.43396 311.73126 404.2152 312.23126Q404.0121 312.71564 403.5121 313.27814Q403.0277 313.825 401.9027 314.77814Q400.9496 315.575 400.66833 315.8719Q400.4027 316.15314 400.23083 316.4344L404.4496 316.4344Z" fill-rule="nonzero"/><path fill="#000000" d="M458.47864 312.79376Q457.8224 312.54376 457.49426 312.10626Q457.18176 311.65314 457.18176 311.04376Q457.18176 310.10626 457.85364 309.46564Q458.54114 308.825 459.6505 308.825Q460.7755 308.825 461.463 309.48126Q462.1505 310.1375 462.1505 311.075Q462.1505 311.66876 461.838 312.10626Q461.5255 312.54376 460.8849 312.79376Q461.68176 313.04376 462.088 313.6219Q462.49426 314.2 462.49426 314.9969Q462.49426 316.09064 461.713 316.84064Q460.9474 317.59064 459.66614 317.59064Q458.4005 317.59064 457.61926 316.84064Q456.838 316.09064 456.838 314.96564Q456.838 314.1219 457.2599 313.5594Q457.6974 312.9969 458.47864 312.79376ZM458.2599 310.9969Q458.2599 311.60626 458.6505 311.9969Q459.05676 312.3875 459.68176 312.3875Q460.29114 312.3875 460.68176 312.0125Q461.0724 311.6219 461.0724 311.0594Q461.0724 310.48126 460.66614 310.09064Q460.2599 309.6844 459.66614 309.6844Q459.05676 309.6844 458.6505 310.075Q458.2599 310.46564 458.2599 310.9969ZM457.93176 314.96564Q457.93176 315.41876 458.1349 315.84064Q458.35364 316.2625 458.7755 316.4969Q459.1974 316.73126 459.68176 316.73126Q460.43176 316.73126 460.91614 316.2469Q461.41614 315.7625 461.41614 315.0125Q461.41614 314.2469 460.91614 313.7469Q460.41614 313.2469 459.6505 313.2469Q458.9005 313.2469 458.41614 313.7469Q457.93176 314.23126 457.93176 314.96564ZM464.4474 317.45L464.4474 316.2469L465.6505 316.2469L465.6505 317.45L464.4474 317.45ZM466.85364 313.21564Q466.85364 311.6844 467.16614 310.7625Q467.47864 309.825 468.088 309.325Q468.713 308.825 469.6505 308.825Q470.338 308.825 470.85364 309.10626Q471.3849 309.3875 471.72864 309.91876Q472.0724 310.4344 472.2599 311.1844Q472.4474 311.9344 472.4474 313.21564Q472.4474 314.73126 472.1349 315.65314Q471.838 316.575 471.213 317.09064Q470.60364 317.59064 469.6505 317.59064Q468.41614 317.59064 467.6974 316.7Q466.85364 315.6375 466.85364 313.21564ZM467.93176 313.21564Q467.93176 315.325 468.43176 316.02814Q468.93176 316.73126 469.6505 316.73126Q470.3849 316.73126 470.86926 316.02814Q471.36926 315.325 471.36926 313.21564Q471.36926 311.09064 470.86926 310.40314Q470.3849 309.7 469.6349 309.7Q468.91614 309.7 468.47864 310.3094Q467.93176 311.09064 467.93176 313.21564ZM473.85364 313.21564Q473.85364 311.6844 474.16614 310.7625Q474.47864 309.825 475.088 309.325Q475.713 308.825 476.6505 308.825Q477.338 308.825 477.85364 309.10626Q478.3849 309.3875 478.72864 309.91876Q479.0724 310.4344 479.2599 311.1844Q479.4474 311.9344 479.4474 313.21564Q479.4474 314.73126 479.1349 315.65314Q478.838 316.575 478.213 317.09064Q477.60364 317.59064 476.6505 317.59064Q475.41614 317.59064 474.6974 316.7Q473.85364 315.6375 473.85364 313.21564ZM474.93176 313.21564Q474.93176 315.325 475.43176 316.02814Q475.93176 316.73126 476.6505 316.73126Q477.3849 316.73126 477.86926 316.02814Q478.36926 315.325 478.36926 313.21564Q478.36926 311.09064 477.86926 310.40314Q477.3849 309.7 476.6349 309.7Q475.91614 309.7 475.47864 310.3094Q474.93176 311.09064 474.93176 313.21564ZM481.30676 317.45L481.30676 308.85626L487.5099 308.85626L487.5099 309.8719L482.4474 309.8719L482.4474 312.4969L487.1974 312.4969L487.1974 313.5125L482.4474 313.5125L482.4474 316.4344L487.713 316.4344L487.713 317.45L481.30676 317.45ZM488.72864 314.8719L488.72864 313.8094L491.97864 313.8094L491.97864 314.8719L488.72864 314.8719ZM492.85364 313.21564Q492.85364 311.6844 493.16614 310.7625Q493.47864 309.825 494.088 309.325Q494.713 308.825 495.6505 308.825Q496.338 308.825 496.85364 309.10626Q497.3849 309.3875 497.72864 309.91876Q498.0724 310.4344 498.2599 311.1844Q498.4474 311.9344 498.4474 313.21564Q498.4474 314.73126 498.1349 315.65314Q497.838 316.575 497.213 317.09064Q496.60364 317.59064 495.6505 317.59064Q494.41614 317.59064 493.6974 316.7Q492.85364 315.6375 492.85364 313.21564ZM493.93176 313.21564Q493.93176 315.325 494.43176 316.02814Q494.93176 316.73126 495.6505 316.73126Q496.3849 316.73126 496.86926 316.02814Q497.36926 315.325 497.36926 313.21564Q497.36926 311.09064 496.86926 310.40314Q496.3849 309.7 495.6349 309.7Q494.91614 309.7 494.47864 310.3094Q493.93176 311.09064 493.93176 313.21564ZM505.4005 316.4344L505.4005 317.45L499.713 317.45Q499.713 317.075 499.838 316.71564Q500.05676 316.1375 500.5255 315.575Q501.0099 315.0125 501.91614 314.27814Q503.3224 313.1219 503.80676 312.45Q504.30676 311.77814 504.30676 311.1844Q504.30676 310.5594 503.85364 310.1375Q503.4005 309.7 502.68176 309.7Q501.91614 309.7 501.463 310.15314Q501.0099 310.60626 500.99426 311.41876L499.91614 311.3094Q500.0255 310.09064 500.74426 309.46564Q501.47864 308.825 502.713 308.825Q503.9474 308.825 504.66614 309.5125Q505.3849 310.2 505.3849 311.21564Q505.3849 311.73126 505.16614 312.23126Q504.963 312.71564 504.463 313.27814Q503.97864 313.825 502.85364 314.77814Q501.9005 315.575 501.61926 315.8719Q501.35364 316.15314 501.18176 316.4344L505.4005 316.4344Z" fill-rule="nonzero"/><path fill="#000000" d="M216.21875 32.89375L219.03125 32.6125Q219.29688 34.034374 220.0625 34.70625Q220.84375 35.3625 222.15625 35.3625Q223.5625 35.3625 224.26562 34.76875Q224.96875 34.175 224.96875 33.39375Q224.96875 32.878124 224.67188 32.534374Q224.375 32.175 223.64062 31.909374Q223.125 31.721874 221.32812 31.284374Q219.0 30.70625 218.0625 29.8625Q216.73438 28.675 216.73438 26.9875Q216.73438 25.89375 217.35938 24.940624Q217.98438 23.9875 219.14062 23.4875Q220.3125 22.9875 221.96875 22.9875Q224.65625 22.9875 226.01562 24.175Q227.39062 25.346874 227.45312 27.33125L224.5625 27.45625Q224.375 26.346874 223.76562 25.8625Q223.15625 25.378124 221.9375 25.378124Q220.67188 25.378124 219.96875 25.89375Q219.5 26.2375 219.5 26.784374Q219.5 27.3 219.9375 27.659374Q220.48438 28.1125 222.59375 28.6125Q224.70312 29.1125 225.70312 29.64375Q226.71875 30.175 227.28125 31.096874Q227.85938 32.01875 227.85938 33.378124Q227.85938 34.6125 227.17188 35.690624Q226.5 36.753124 225.25 37.284374Q224.0 37.8 222.125 37.8Q219.42188 37.8 217.95312 36.55Q216.5 35.3 216.21875 32.89375ZM236.375 37.55L233.625 37.55L233.625 27.20625Q232.125 28.6125 230.07812 29.284374L230.07812 26.8Q231.15625 26.440624 232.40625 25.471874Q233.67188 24.4875 234.14062 23.175L236.375 23.175L236.375 37.55ZM249.625 35.003124L249.625 37.55L240.0 37.55Q240.15625 36.096874 240.9375 34.815624Q241.71875 33.51875 244.01562 31.378124Q245.875 29.64375 246.29688 29.034374Q246.85938 28.190624 246.85938 27.346874Q246.85938 26.440624 246.35938 25.95625Q245.875 25.45625 245.01562 25.45625Q244.15625 25.45625 243.64062 25.971874Q243.14062 26.4875 243.0625 27.690624L240.32812 27.409374Q240.5625 25.14375 241.84375 24.159374Q243.14062 23.175 245.07812 23.175Q247.20312 23.175 248.40625 24.315624Q249.625 25.45625 249.625 27.159374Q249.625 28.128124 249.26562 29.003124Q248.92188 29.878124 248.17188 30.83125Q247.67188 31.471874 246.375 32.659374Q245.07812 33.846874 244.73438 34.2375Q244.39062 34.628124 244.17188 35.003124L249.625 35.003124ZM260.78125 37.55L256.60938 27.175L259.48438 27.175L261.4375 32.471874L262.01562 34.2375Q262.23438 33.565624 262.29688 33.346874Q262.42188 32.909374 262.57812 32.471874L264.5625 27.175L267.375 27.175L263.26562 37.55L260.78125 37.55ZM267.96875 34.596874L270.71875 34.175Q270.90625 34.971874 271.4375 35.39375Q271.96875 35.8 272.9375 35.8Q274.0 35.8 274.54688 35.409374Q274.90625 35.14375 274.90625 34.675Q274.90625 34.3625 274.70312 34.159374Q274.5 33.971874 273.79688 33.8Q270.46875 33.065624 269.57812 32.45625Q268.34375 31.628124 268.34375 30.128124Q268.34375 28.784374 269.40625 27.8625Q270.48438 26.940624 272.71875 26.940624Q274.84375 26.940624 275.875 27.64375Q276.92188 28.33125 277.3125 29.690624L274.71875 30.159374Q274.54688 29.565624 274.07812 29.2375Q273.625 28.909374 272.76562 28.909374Q271.6875 28.909374 271.21875 29.221874Q270.90625 29.440624 270.90625 29.76875Q270.90625 30.065624 271.17188 30.26875Q271.54688 30.55 273.73438 31.05Q275.92188 31.55 276.79688 32.26875Q277.65625 33.003124 277.65625 34.3Q277.65625 35.7375 276.46875 36.76875Q275.28125 37.784374 272.9375 37.784374Q270.82812 37.784374 269.57812 36.925Q268.34375 36.065624 267.96875 34.596874ZM284.96875 34.596874L287.71875 34.175Q287.90625 34.971874 288.4375 35.39375Q288.96875 35.8 289.9375 35.8Q291.0 35.8 291.54688 35.409374Q291.90625 35.14375 291.90625 34.675Q291.90625 34.3625 291.70312 34.159374Q291.5 33.971874 290.79688 33.8Q287.46875 33.065624 286.57812 32.45625Q285.34375 31.628124 285.34375 30.128124Q285.34375 28.784374 286.40625 27.8625Q287.48438 26.940624 289.71875 26.940624Q291.84375 26.940624 292.875 27.64375Q293.92188 28.33125 294.3125 29.690624L291.71875 30.159374Q291.54688 29.565624 291.07812 29.2375Q290.625 28.909374 289.76562 28.909374Q288.6875 28.909374 288.21875 29.221874Q287.90625 29.440624 287.90625 29.76875Q287.90625 30.065624 288.17188 30.26875Q288.54688 30.55 290.73438 31.05Q292.92188 31.55 293.79688 32.26875Q294.65625 33.003124 294.65625 34.3Q294.65625 35.7375 293.46875 36.76875Q292.28125 37.784374 289.9375 37.784374Q287.82812 37.784374 286.57812 36.925Q285.34375 36.065624 284.96875 34.596874ZM302.9375 34.253124L305.67188 34.70625Q305.15625 36.20625 304.01562 37.003124Q302.875 37.784374 301.17188 37.784374Q298.45312 37.784374 297.15625 36.01875Q296.14062 34.596874 296.14062 32.440624Q296.14062 29.8625 297.48438 28.409374Q298.82812 26.940624 300.89062 26.940624Q303.20312 26.940624 304.53125 28.471874Q305.875 30.003124 305.82812 33.159374L298.95312 33.159374Q298.98438 34.378124 299.60938 35.065624Q300.25 35.7375 301.1875 35.7375Q301.84375 35.7375 302.28125 35.39375Q302.71875 35.034374 302.9375 34.253124ZM303.09375 31.471874Q303.0625 30.284374 302.46875 29.675Q301.89062 29.05 301.0625 29.05Q300.15625 29.05 299.57812 29.690624Q298.98438 30.346874 299.0 31.471874L303.09375 31.471874ZM307.85938 27.175L310.42188 27.175L310.42188 28.70625Q310.92188 27.925 311.76562 27.440624Q312.60938 26.940624 313.65625 26.940624Q315.45312 26.940624 316.70312 28.3625Q317.96875 29.76875 317.96875 32.3Q317.96875 34.909374 316.70312 36.346874Q315.4375 37.784374 313.625 37.784374Q312.76562 37.784374 312.0625 37.440624Q311.375 37.096874 310.60938 36.26875L310.60938 41.503124L307.85938 41.503124L307.85938 27.175ZM310.57812 32.190624Q310.57812 33.940624 311.26562 34.784374Q311.95312 35.6125 312.95312 35.6125Q313.90625 35.6125 314.54688 34.846874Q315.1875 34.065624 315.1875 32.33125Q315.1875 30.690624 314.53125 29.909374Q313.875 29.1125 312.90625 29.1125Q311.90625 29.1125 311.23438 29.89375Q310.57812 30.659374 310.57812 32.190624ZM321.98438 30.346874L319.5 29.89375Q319.92188 28.39375 320.9375 27.675Q321.96875 26.940624 323.98438 26.940624Q325.82812 26.940624 326.71875 27.378124Q327.625 27.815624 327.98438 28.4875Q328.35938 29.14375 328.35938 30.940624L328.32812 34.14375Q328.32812 35.503124 328.45312 36.159374Q328.59375 36.8 328.95312 37.55L326.23438 37.55Q326.125 37.26875 325.96875 36.7375Q325.90625 36.4875 325.875 36.409374Q325.17188 37.096874 324.35938 37.440624Q323.5625 37.784374 322.65625 37.784374Q321.0625 37.784374 320.14062 36.925Q319.21875 36.05 319.21875 34.721874Q319.21875 33.83125 319.625 33.14375Q320.04688 32.45625 320.79688 32.096874Q321.5625 31.721874 323.0 31.45625Q324.92188 31.096874 325.65625 30.784374L325.65625 30.503124Q325.65625 29.721874 325.26562 29.39375Q324.875 29.05 323.79688 29.05Q323.0625 29.05 322.64062 29.33125Q322.23438 29.6125 321.98438 30.346874ZM325.65625 32.565624Q325.125 32.7375 323.98438 32.9875Q322.84375 33.2375 322.5 33.471874Q321.95312 33.846874 321.95312 34.440624Q321.95312 35.003124 322.375 35.425Q322.8125 35.846874 323.48438 35.846874Q324.21875 35.846874 324.89062 35.3625Q325.39062 34.9875 325.54688 34.45625Q325.65625 34.096874 325.65625 33.1125L325.65625 32.565624ZM333.5625 37.55L330.8125 37.55L330.8125 27.175L333.375 27.175L333.375 28.659374Q334.01562 27.6125 334.53125 27.284374Q335.0625 26.940624 335.73438 26.940624Q336.67188 26.940624 337.53125 27.45625L336.6875 29.846874Q336.0 29.409374 335.40625 29.409374Q334.82812 29.409374 334.42188 29.721874Q334.01562 30.034374 333.78125 30.878124Q333.5625 31.70625 333.5625 34.346874L333.5625 37.55ZM340.98438 30.346874L338.5 29.89375Q338.92188 28.39375 339.9375 27.675Q340.96875 26.940624 342.98438 26.940624Q344.82812 26.940624 345.71875 27.378124Q346.625 27.815624 346.98438 28.4875Q347.35938 29.14375 347.35938 30.940624L347.32812 34.14375Q347.32812 35.503124 347.45312 36.159374Q347.59375 36.8 347.95312 37.55L345.23438 37.55Q345.125 37.26875 344.96875 36.7375Q344.90625 36.4875 344.875 36.409374Q344.17188 37.096874 343.35938 37.440624Q342.5625 37.784374 341.65625 37.784374Q340.0625 37.784374 339.14062 36.925Q338.21875 36.05 338.21875 34.721874Q338.21875 33.83125 338.625 33.14375Q339.04688 32.45625 339.79688 32.096874Q340.5625 31.721874 342.0 31.45625Q343.92188 31.096874 344.65625 30.784374L344.65625 30.503124Q344.65625 29.721874 344.26562 29.39375Q343.875 29.05 342.79688 29.05Q342.0625 29.05 341.64062 29.33125Q341.23438 29.6125 340.98438 30.346874ZM344.65625 32.565624Q344.125 32.7375 342.98438 32.9875Q341.84375 33.2375 341.5 33.471874Q340.95312 33.846874 340.95312 34.440624Q340.95312 35.003124 341.375 35.425Q341.8125 35.846874 342.48438 35.846874Q343.21875 35.846874 343.89062 35.3625Q344.39062 34.9875 344.54688 34.45625Q344.65625 34.096874 344.65625 33.1125L344.65625 32.565624ZM354.6875 27.175L354.6875 29.3625L352.8125 29.3625L352.8125 33.55Q352.8125 34.815624 352.85938 35.034374Q352.92188 35.2375 353.10938 35.378124Q353.3125 35.503124 353.57812 35.503124Q353.95312 35.503124 354.6875 35.2375L354.92188 37.378124Q353.95312 37.784374 352.75 37.784374Q352.0 37.784374 351.40625 37.534374Q350.8125 37.284374 350.53125 36.89375Q350.26562 36.4875 350.15625 35.815624Q350.0625 35.346874 350.0625 33.89375L350.0625 29.3625L348.79688 29.3625L348.79688 27.175L350.0625 27.175L350.0625 25.1125L352.8125 23.51875L352.8125 27.175L354.6875 27.175ZM356.9375 25.76875L356.9375 23.2375L359.6875 23.2375L359.6875 25.76875L356.9375 25.76875ZM356.9375 37.55L356.9375 27.175L359.6875 27.175L359.6875 37.55L356.9375 37.55ZM361.29688 32.221874Q361.29688 30.846874 361.96875 29.565624Q362.65625 28.284374 363.89062 27.6125Q365.125 26.940624 366.64062 26.940624Q369.0 26.940624 370.5 28.471874Q372.0 30.003124 372.0 32.33125Q372.0 34.690624 370.48438 36.2375Q368.96875 37.784374 366.65625 37.784374Q365.23438 37.784374 363.9375 37.14375Q362.65625 36.4875 361.96875 35.253124Q361.29688 34.003124 361.29688 32.221874ZM364.10938 32.3625Q364.10938 33.909374 364.84375 34.7375Q365.57812 35.55 366.65625 35.55Q367.73438 35.55 368.45312 34.7375Q369.1875 33.909374 369.1875 32.346874Q369.1875 30.815624 368.45312 30.003124Q367.73438 29.175 366.65625 29.175Q365.57812 29.175 364.84375 30.003124Q364.10938 30.815624 364.10938 32.3625ZM383.375 37.55L380.625 37.55L380.625 32.253124Q380.625 30.58125 380.45312 30.096874Q380.28125 29.596874 379.875 29.33125Q379.48438 29.05 378.92188 29.05Q378.21875 29.05 377.64062 29.440624Q377.07812 29.83125 376.85938 30.471874Q376.65625 31.1125 376.65625 32.846874L376.65625 37.55L373.92188 37.55L373.92188 27.175L376.46875 27.175L376.46875 28.70625Q377.82812 26.940624 379.89062 26.940624Q380.79688 26.940624 381.54688 27.26875Q382.29688 27.596874 382.67188 28.1125Q383.0625 28.6125 383.21875 29.26875Q383.375 29.909374 383.375 31.096874L383.375 37.55Z" fill-rule="nonzero"/></svg>