<svg version="1.1" viewBox="0.0 0.0 600.0 371.0" fill="none" stroke="none" stroke-linecap="square" stroke-miterlimit="10" width="600" height="371" xmlns:xlink="http://www.w3.org/1999/xlink" xmlns="http://www.w3.org/2000/svg"><path fill="#ffffff" d="M0 0L600.0 0L600.0 371.0L0 371.0L0 0Z" fill-rule="nonzero"/><path stroke="#cccccc" stroke-width="1.0" stroke-linecap="butt" d="M178.5 61.5L178.5 300.5" fill-rule="nonzero"/><path stroke="#cccccc" stroke-width="1.0" stroke-linecap="butt" d="M279.5 61.5L279.5 300.5" fill-rule="nonzero"/><path stroke="#cccccc" stroke-width="1.0" stroke-linecap="butt" d="M380.5 61.5L380.5 300.5" fill-rule="nonzero"/><path stroke="#cccccc" stroke-width="1.0" stroke-linecap="butt" d="M481.5 61.5L481.5 300.5" fill-rule="nonzero"/><path stroke="#333333" stroke-width="1.0" stroke-linecap="butt" d="M77.5 300.5L581.5 300.5" fill-rule="nonzero"/><path stroke="#cccccc" stroke-width="1.0" stroke-linecap="butt" d="M77.5 240.5L581.5 240.5" fill-rule="nonzero"/><path stroke="#cccccc" stroke-width="1.0" stroke-linecap="butt" d="M77.5 181.5L581.5 181.5" fill-rule="nonzero"/><path stroke="#cccccc" stroke-width="1.0" stroke-linecap="butt" d="M77.5 121.5L581.5 121.5" fill-rule="nonzero"/><path stroke="#cccccc" stroke-width="1.0" stroke-linecap="butt" d="M77.5 61.5L581.5 61.5" fill-rule="nonzero"/><clipPath id="id_0"><path d="M77.55 61.916668L581.45 61.916668L581.45 300.45L77.55 300.45L77.55 61.916668Z" clip-rule="nonzero"/></clipPath><path fill="#34a853" fill-opacity="0.3019608" clip-path="url(#id_0)" d="M77.55 61.97958L96.02755 96.88863L114.50505 131.79768L132.9826 166.70674L151.45966 201.61551L169.93669 236.52426L188.41324 271.43286L204.62242 300.4476L209.66846 300.4475L214.71399 300.4475L219.7595 300.44754L224.80504 300.44754L229.85007 300.44754L234.89508 300.44754L239.94011 300.44754L244.98512 300.44754L250.02965 300.44754L255.07416 300.44754L260.11816 300.44754L265.1622 300.44754L270.2062 300.44754L275.2497 300.44754L280.2932 300.44754L285.33673 300.44757L290.37973 300.44757L295.42273 300.44757L300.46524 300.44757L305.50772 300.44757L310.5497 300.44757L315.5917 300.44757L320.6332 300.44757L325.67468 300.44757L330.7162 300.44757L335.75665 300.44757L340.79764 300.44757L345.83813 300.44757L350.8781 300.44757L355.91806 300.44757L360.95755 300.44757L365.997 300.44757L371.03598 300.44757L376.07443 300.44757L381.11288 300.44757L386.15085 300.44757L391.1888 300.44757L396.22626 300.44757L401.2637 300.44757L406.30014 300.44757L411.3366 300.44757L416.37305 300.44757L421.40897 300.44757L426.4444 300.44757L431.47934 300.44757L436.51425 300.44757L441.54868 300.44757L446.5826 300.44757L451.61652 300.44757L456.6494 300.44757L461.68234 300.44757L466.71524 300.44757L471.74713 300.44757L476.77905 300.44757L481.80994 300.44757L486.8413 300.44757L491.8717 300.44757L496.90158 300.4476L501.93146 300.4476L506.96085 300.4476L511.9892 300.4476L517.01807 300.4476L522.04596 300.4476L527.0733 300.4476L532.10016 300.4476L537.127 300.4476L542.15283 300.4476L547.17865 300.4476L552.20404 300.4476L557.22833 300.4476L562.2527 300.4476L567.2765 300.4476L572.2998 300.4476L577.32263 300.4476L581.45 300.4476L581.45 300.45L577.32263 300.45L572.2998 300.45L567.2765 300.45L562.2527 300.45L557.22833 300.45L552.20404 300.45L547.17865 300.45L542.15283 300.45L537.127 300.45L532.10016 300.45L527.0733 300.45L522.04596 300.45L517.01807 300.45L511.9892 300.45L506.96085 300.45L501.93146 300.45L496.90158 300.45L491.8717 300.45L486.8413 300.45L481.80994 300.45L476.77905 300.45L471.74713 300.45L466.71524 300.45L461.68234 300.45L456.6494 300.45L451.61652 300.45L446.5826 300.45L441.54868 300.45L436.51425 300.45L431.47934 300.45L426.4444 300.45L421.40897 300.45L416.37305 300.45L411.3366 300.45L406.30014 300.45L401.2637 300.45L396.22626 300.45L391.1888 300.45L386.15085 300.45L381.11288 300.45L376.07443 300.45L371.03598 300.45L365.997 300.45L360.95755 300.45L355.91806 300.45L350.8781 300.45L345.83813 300.45L340.79764 300.45L335.75665 300.45L330.7162 300.45L325.67468 300.45L320.6332 300.45L315.5917 300.45L310.5497 300.45L305.50772 300.45L300.46524 300.45L295.42273 300.45L290.37973 300.45L285.33673 300.45L280.2932 300.45L275.2497 300.45L270.2062 300.45L265.1622 300.45L260.11816 300.45L255.07416 300.45L250.02965 300.45L244.98512 300.45L239.94011 300.45L234.89508 300.45L229.85007 300.45L224.80504 300.45L219.7595 300.45L214.71399 300.45L209.66846 300.45L204.62242 300.45L188.41324 300.45L169.93669 300.45L151.45966 300.45L132.9826 300.45L114.50505 300.45L96.02755 300.45L77.55 300.45Z" fill-rule="nonzero"/><path stroke="#34a853" stroke-width="2.0" stroke-linecap="butt" clip-path="url(#id_0)" d="M77.55 61.97958L96.02755 96.88863L114.50505 131.79768L132.9826 166.70674L151.45966 201.61551L169.93669 236.52426L188.41324 271.43286L204.62242 300.4476L209.66846 300.4475L214.71399 300.4475L219.7595 300.44754L224.80504 300.44754L229.85007 300.44754L234.89508 300.44754L239.94011 300.44754L244.98512 300.44754L250.02965 300.44754L255.07416 300.44754L260.11816 300.44754L265.1622 300.44754L270.2062 300.44754L275.2497 300.44754L280.2932 300.44754L285.33673 300.44757L290.37973 300.44757L295.42273 300.44757L300.46524 300.44757L305.50772 300.44757L310.5497 300.44757L315.5917 300.44757L320.6332 300.44757L325.67468 300.44757L330.7162 300.44757L335.75665 300.44757L340.79764 300.44757L345.83813 300.44757L350.8781 300.44757L355.91806 300.44757L360.95755 300.44757L365.997 300.44757L371.03598 300.44757L376.07443 300.44757L381.11288 300.44757L386.15085 300.44757L391.1888 300.44757L396.22626 300.44757L401.2637 300.44757L406.30014 300.44757L411.3366 300.44757L416.37305 300.44757L421.40897 300.44757L426.4444 300.44757L431.47934 300.44757L436.51425 300.44757L441.54868 300.44757L446.5826 300.44757L451.61652 300.44757L456.6494 300.44757L461.68234 300.44757L466.71524 300.44757L471.74713 300.44757L476.77905 300.44757L481.80994 300.44757L486.8413 300.44757L491.8717 300.44757L496.90158 300.4476L501.93146 300.4476L506.96085 300.4476L511.9892 300.4476L517.01807 300.4476L522.04596 300.4476L527.0733 300.4476L532.10016 300.4476L537.127 300.4476L542.15283 300.4476L547.17865 300.4476L552.20404 300.4476L557.22833 300.4476L562.2527 300.4476L567.2765 300.4476L572.2998 300.4476L577.32263 300.4476L581.45 300.4476" fill-rule="nonzero"/><path fill="#000000" fill-opacity="0.0" clip-path="url(#id_0)" d="M80.55 61.97958C80.55 63.636433 79.206856 64.979576 77.55 64.979576C75.89314 64.979576 74.55 63.636433 74.55 61.97958C74.55 60.322727 75.89314 58.97958 77.55 58.97958C79.206856 58.97958 80.55 60.322727 80.55 61.97958Z" fill-rule="nonzero"/><path fill="#000000" fill-opacity="0.0" clip-path="url(#id_0)" d="M99.02755 96.88863C99.02755 98.54549 97.6844 99.88863 96.02755 99.88863C94.3707 99.88863 93.02755 98.54549 93.02755 96.88863C93.02755 95.23178 94.3707 93.88863 96.02755 93.88863C97.6844 93.88863 99.02755 95.23178 99.02755 96.88863Z" fill-rule="nonzero"/><path fill="#000000" fill-opacity="0.0" clip-path="url(#id_0)" d="M117.50505 131.79768C117.50505 133.45454 116.1619 134.79768 114.50505 134.79768C112.8482 134.79768 111.50505 133.45454 111.50505 131.79768C111.50505 130.14084 112.8482 128.79768 114.50505 128.79768C116.1619 128.79768 117.50505 130.14084 117.50505 131.79768Z" fill-rule="nonzero"/><path fill="#000000" fill-opacity="0.0" clip-path="url(#id_0)" d="M135.9826 166.70674C135.9826 168.3636 134.63947 169.70674 132.9826 169.70674C131.32574 169.70674 129.9826 168.3636 129.9826 166.70674C129.9826 165.0499 131.32574 163.70674 132.9826 163.70674C134.63947 163.70674 135.9826 165.0499 135.9826 166.70674Z" fill-rule="nonzero"/><path fill="#000000" fill-opacity="0.0" clip-path="url(#id_0)" d="M154.45966 201.61551C154.45966 203.27235 153.1165 204.61551 151.45966 204.61551C149.8028 204.61551 148.45966 203.27235 148.45966 201.61551C148.45966 199.95865 149.8028 198.61551 151.45966 198.61551C153.1165 198.61551 154.45966 199.95865 154.45966 201.61551Z" fill-rule="nonzero"/><path fill="#000000" fill-opacity="0.0" clip-path="url(#id_0)" d="M172.93669 236.52426C172.93669 238.1811 171.59355 239.52426 169.93669 239.52426C168.27985 239.52426 166.93669 238.1811 166.93669 236.52426C166.93669 234.8674 168.27985 233.52426 169.93669 233.52426C171.59355 233.52426 172.93669 234.8674 172.93669 236.52426Z" fill-rule="nonzero"/><path fill="#000000" fill-opacity="0.0" clip-path="url(#id_0)" d="M191.41324 271.43286C191.41324 273.08972 190.0701 274.43286 188.41324 274.43286C186.7564 274.43286 185.41324 273.08972 185.41324 271.43286C185.41324 269.776 186.7564 268.43286 188.41324 268.43286C190.0701 268.43286 191.41324 269.776 191.41324 271.43286Z" fill-rule="nonzero"/><path fill="#000000" fill-opacity="0.0" clip-path="url(#id_0)" d="M207.62242 300.4476C207.62242 302.10446 206.27928 303.4476 204.62242 303.4476C202.96558 303.4476 201.62242 302.10446 201.62242 300.4476C201.62242 298.79077 202.96558 297.4476 204.62242 297.4476C206.27928 297.4476 207.62242 298.79077 207.62242 300.4476Z" fill-rule="nonzero"/><path fill="#000000" fill-opacity="0.0" clip-path="url(#id_0)" d="M212.66846 300.4475C212.66846 302.10437 211.32532 303.4475 209.66846 303.4475C208.0116 303.4475 206.66846 302.10437 206.66846 300.4475C206.66846 298.79068 208.0116 297.4475 209.66846 297.4475C211.32532 297.4475 212.66846 298.79068 212.66846 300.4475Z" fill-rule="nonzero"/><path fill="#000000" fill-opacity="0.0" clip-path="url(#id_0)" d="M217.71399 300.4475C217.71399 302.10437 216.37083 303.4475 214.71399 303.4475C213.05713 303.4475 211.71399 302.10437 211.71399 300.4475C211.71399 298.79068 213.05713 297.4475 214.71399 297.4475C216.37083 297.4475 217.71399 298.79068 217.71399 300.4475Z" fill-rule="nonzero"/><path fill="#000000" fill-opacity="0.0" clip-path="url(#id_0)" d="M222.7595 300.44754C222.7595 302.10437 221.41637 303.44754 219.7595 303.44754C218.10266 303.44754 216.7595 302.10437 216.7595 300.44754C216.7595 298.79068 218.10266 297.44754 219.7595 297.44754C221.41637 297.44754 222.7595 298.79068 222.7595 300.44754Z" fill-rule="nonzero"/><path fill="#000000" fill-opacity="0.0" clip-path="url(#id_0)" d="M227.80504 300.44754C227.80504 302.10437 226.4619 303.44754 224.80504 303.44754C223.14818 303.44754 221.80504 302.10437 221.80504 300.44754C221.80504 298.79068 223.14818 297.44754 224.80504 297.44754C226.4619 297.44754 227.80504 298.79068 227.80504 300.44754Z" fill-rule="nonzero"/><path fill="#000000" fill-opacity="0.0" clip-path="url(#id_0)" d="M232.85007 300.44754C232.85007 302.1044 231.50691 303.44754 229.85007 303.44754C228.1932 303.44754 226.85007 302.1044 226.85007 300.44754C226.85007 298.79068 228.1932 297.44754 229.85007 297.44754C231.50691 297.44754 232.85007 298.79068 232.85007 300.44754Z" fill-rule="nonzero"/><path fill="#000000" fill-opacity="0.0" clip-path="url(#id_0)" d="M237.89508 300.44754C237.89508 302.1044 236.55194 303.44754 234.89508 303.44754C233.23822 303.44754 231.89508 302.1044 231.89508 300.44754C231.89508 298.79068 233.23822 297.44754 234.89508 297.44754C236.55194 297.44754 237.89508 298.79068 237.89508 300.44754Z" fill-rule="nonzero"/><path fill="#000000" fill-opacity="0.0" clip-path="url(#id_0)" d="M242.94011 300.44754C242.94011 302.1044 241.59695 303.44754 239.94011 303.44754C238.28325 303.44754 236.94011 302.1044 236.94011 300.44754C236.94011 298.79068 238.28325 297.44754 239.94011 297.44754C241.59695 297.44754 242.94011 298.79068 242.94011 300.44754Z" fill-rule="nonzero"/><path fill="#000000" fill-opacity="0.0" clip-path="url(#id_0)" d="M247.98512 300.44754C247.98512 302.1044 246.64198 303.44754 244.98512 303.44754C243.32828 303.44754 241.98512 302.1044 241.98512 300.44754C241.98512 298.79068 243.32828 297.44754 244.98512 297.44754C246.64198 297.44754 247.98512 298.79068 247.98512 300.44754Z" fill-rule="nonzero"/><path fill="#000000" fill-opacity="0.0" clip-path="url(#id_0)" d="M253.02965 300.44754C253.02965 302.1044 251.6865 303.44754 250.02965 303.44754C248.37279 303.44754 247.02965 302.1044 247.02965 300.44754C247.02965 298.79068 248.37279 297.44754 250.02965 297.44754C251.6865 297.44754 253.02965 298.79068 253.02965 300.44754Z" fill-rule="nonzero"/><path fill="#000000" fill-opacity="0.0" clip-path="url(#id_0)" d="M258.07416 300.44754C258.07416 302.1044 256.73102 303.44754 255.07416 303.44754C253.41731 303.44754 252.07416 302.1044 252.07416 300.44754C252.07416 298.79068 253.41731 297.44754 255.07416 297.44754C256.73102 297.44754 258.07416 298.79068 258.07416 300.44754Z" fill-rule="nonzero"/><path fill="#000000" fill-opacity="0.0" clip-path="url(#id_0)" d="M263.11816 300.44754C263.11816 302.1044 261.77502 303.44754 260.11816 303.44754C258.46133 303.44754 257.11816 302.1044 257.11816 300.44754C257.11816 298.79068 258.46133 297.44754 260.11816 297.44754C261.77502 297.44754 263.11816 298.79068 263.11816 300.44754Z" fill-rule="nonzero"/><path fill="#000000" fill-opacity="0.0" clip-path="url(#id_0)" d="M268.1622 300.44754C268.1622 302.1044 266.81903 303.44754 265.1622 303.44754C263.50534 303.44754 262.1622 302.1044 262.1622 300.44754C262.1622 298.79068 263.50534 297.44754 265.1622 297.44754C266.81903 297.44754 268.1622 298.79068 268.1622 300.44754Z" fill-rule="nonzero"/><path fill="#000000" fill-opacity="0.0" clip-path="url(#id_0)" d="M273.2062 300.44754C273.2062 302.1044 271.86307 303.44754 270.2062 303.44754C268.54935 303.44754 267.2062 302.1044 267.2062 300.44754C267.2062 298.7907 268.54935 297.44754 270.2062 297.44754C271.86307 297.44754 273.2062 298.7907 273.2062 300.44754Z" fill-rule="nonzero"/><path fill="#000000" fill-opacity="0.0" clip-path="url(#id_0)" d="M278.2497 300.44754C278.2497 302.1044 276.90656 303.44754 275.2497 303.44754C273.59286 303.44754 272.2497 302.1044 272.2497 300.44754C272.2497 298.7907 273.59286 297.44754 275.2497 297.44754C276.90656 297.44754 278.2497 298.7907 278.2497 300.44754Z" fill-rule="nonzero"/><path fill="#000000" fill-opacity="0.0" clip-path="url(#id_0)" d="M283.2932 300.44754C283.2932 302.1044 281.95007 303.44754 280.2932 303.44754C278.63635 303.44754 277.2932 302.1044 277.2932 300.44754C277.2932 298.7907 278.63635 297.44754 280.2932 297.44754C281.95007 297.44754 283.2932 298.7907 283.2932 300.44754Z" fill-rule="nonzero"/><path fill="#000000" fill-opacity="0.0" clip-path="url(#id_0)" d="M288.33673 300.44757C288.33673 302.1044 286.9936 303.44757 285.33673 303.44757C283.67987 303.44757 282.33673 302.1044 282.33673 300.44757C282.33673 298.7907 283.67987 297.44757 285.33673 297.44757C286.9936 297.44757 288.33673 298.7907 288.33673 300.44757Z" fill-rule="nonzero"/><path fill="#000000" fill-opacity="0.0" clip-path="url(#id_0)" d="M293.37973 300.44757C293.37973 302.1044 292.0366 303.44757 290.37973 303.44757C288.72287 303.44757 287.37973 302.1044 287.37973 300.44757C287.37973 298.7907 288.72287 297.44757 290.37973 297.44757C292.0366 297.44757 293.37973 298.7907 293.37973 300.44757Z" fill-rule="nonzero"/><path fill="#000000" fill-opacity="0.0" clip-path="url(#id_0)" d="M298.42273 300.44757C298.42273 302.1044 297.0796 303.44757 295.42273 303.44757C293.76587 303.44757 292.42273 302.1044 292.42273 300.44757C292.42273 298.7907 293.76587 297.44757 295.42273 297.44757C297.0796 297.44757 298.42273 298.7907 298.42273 300.44757Z" fill-rule="nonzero"/><path fill="#000000" fill-opacity="0.0" clip-path="url(#id_0)" d="M303.46524 300.44757C303.46524 302.1044 302.12207 303.44757 300.46524 303.44757C298.80838 303.44757 297.46524 302.1044 297.46524 300.44757C297.46524 298.7907 298.80838 297.44757 300.46524 297.44757C302.12207 297.44757 303.46524 298.7907 303.46524 300.44757Z" fill-rule="nonzero"/><path fill="#000000" fill-opacity="0.0" clip-path="url(#id_0)" d="M308.50772 300.44757C308.50772 302.1044 307.16458 303.44757 305.50772 303.44757C303.85086 303.44757 302.50772 302.1044 302.50772 300.44757C302.50772 298.7907 303.85086 297.44757 305.50772 297.44757C307.16458 297.44757 308.50772 298.7907 308.50772 300.44757Z" fill-rule="nonzero"/><path fill="#000000" fill-opacity="0.0" clip-path="url(#id_0)" d="M313.5497 300.44757C313.5497 302.10443 312.20657 303.44757 310.5497 303.44757C308.89285 303.44757 307.5497 302.10443 307.5497 300.44757C307.5497 298.7907 308.89285 297.44757 310.5497 297.44757C312.20657 297.44757 313.5497 298.7907 313.5497 300.44757Z" fill-rule="nonzero"/><path fill="#000000" fill-opacity="0.0" clip-path="url(#id_0)" d="M318.5917 300.44757C318.5917 302.10443 317.24857 303.44757 315.5917 303.44757C313.93484 303.44757 312.5917 302.10443 312.5917 300.44757C312.5917 298.7907 313.93484 297.44757 315.5917 297.44757C317.24857 297.44757 318.5917 298.7907 318.5917 300.44757Z" fill-rule="nonzero"/><path fill="#000000" fill-opacity="0.0" clip-path="url(#id_0)" d="M323.6332 300.44757C323.6332 302.10443 322.29007 303.44757 320.6332 303.44757C318.97635 303.44757 317.6332 302.10443 317.6332 300.44757C317.6332 298.7907 318.97635 297.44757 320.6332 297.44757C322.29007 297.44757 323.6332 298.7907 323.6332 300.44757Z" fill-rule="nonzero"/><path fill="#000000" fill-opacity="0.0" clip-path="url(#id_0)" d="M328.67468 300.44757C328.67468 302.10443 327.33154 303.44757 325.67468 303.44757C324.01785 303.44757 322.67468 302.10443 322.67468 300.44757C322.67468 298.7907 324.01785 297.44757 325.67468 297.44757C327.33154 297.44757 328.67468 298.7907 328.67468 300.44757Z" fill-rule="nonzero"/><path fill="#000000" fill-opacity="0.0" clip-path="url(#id_0)" d="M333.7162 300.44757C333.7162 302.10443 332.37305 303.44757 330.7162 303.44757C329.05933 303.44757 327.7162 302.10443 327.7162 300.44757C327.7162 298.7907 329.05933 297.44757 330.7162 297.44757C332.37305 297.44757 333.7162 298.7907 333.7162 300.44757Z" fill-rule="nonzero"/><path fill="#000000" fill-opacity="0.0" clip-path="url(#id_0)" d="M338.75665 300.44757C338.75665 302.10443 337.4135 303.44757 335.75665 303.44757C334.0998 303.44757 332.75665 302.10443 332.75665 300.44757C332.75665 298.7907 334.0998 297.44757 335.75665 297.44757C337.4135 297.44757 338.75665 298.7907 338.75665 300.44757Z" fill-rule="nonzero"/><path fill="#000000" fill-opacity="0.0" clip-path="url(#id_0)" d="M343.79764 300.44757C343.79764 302.10443 342.4545 303.44757 340.79764 303.44757C339.14078 303.44757 337.79764 302.10443 337.79764 300.44757C337.79764 298.7907 339.14078 297.44757 340.79764 297.44757C342.4545 297.44757 343.79764 298.7907 343.79764 300.44757Z" fill-rule="nonzero"/><path fill="#000000" fill-opacity="0.0" clip-path="url(#id_0)" d="M348.83813 300.44757C348.83813 302.10443 347.49496 303.44757 345.83813 303.44757C344.18127 303.44757 342.83813 302.10443 342.83813 300.44757C342.83813 298.7907 344.18127 297.44757 345.83813 297.44757C347.49496 297.44757 348.83813 298.7907 348.83813 300.44757Z" fill-rule="nonzero"/><path fill="#000000" fill-opacity="0.0" clip-path="url(#id_0)" d="M353.8781 300.44757C353.8781 302.10443 352.53494 303.44757 350.8781 303.44757C349.22125 303.44757 347.8781 302.10443 347.8781 300.44757C347.8781 298.7907 349.22125 297.44757 350.8781 297.44757C352.53494 297.44757 353.8781 298.7907 353.8781 300.44757Z" fill-rule="nonzero"/><path fill="#000000" fill-opacity="0.0" clip-path="url(#id_0)" d="M358.91806 300.44757C358.91806 302.10443 357.57492 303.44757 355.91806 303.44757C354.26123 303.44757 352.91806 302.10443 352.91806 300.44757C352.91806 298.7907 354.26123 297.44757 355.91806 297.44757C357.57492 297.44757 358.91806 298.7907 358.91806 300.44757Z" fill-rule="nonzero"/><path fill="#000000" fill-opacity="0.0" clip-path="url(#id_0)" d="M363.95755 300.44757C363.95755 302.10443 362.6144 303.44757 360.95755 303.44757C359.3007 303.44757 357.95755 302.10443 357.95755 300.44757C357.95755 298.7907 359.3007 297.44757 360.95755 297.44757C362.6144 297.44757 363.95755 298.7907 363.95755 300.44757Z" fill-rule="nonzero"/><path fill="#000000" fill-opacity="0.0" clip-path="url(#id_0)" d="M368.997 300.44757C368.997 302.10443 367.65387 303.44757 365.997 303.44757C364.34015 303.44757 362.997 302.10443 362.997 300.44757C362.997 298.7907 364.34015 297.44757 365.997 297.44757C367.65387 297.44757 368.997 298.7907 368.997 300.44757Z" fill-rule="nonzero"/><path fill="#000000" fill-opacity="0.0" clip-path="url(#id_0)" d="M374.03598 300.44757C374.03598 302.10443 372.69284 303.44757 371.03598 303.44757C369.37912 303.44757 368.03598 302.10443 368.03598 300.44757C368.03598 298.7907 369.37912 297.44757 371.03598 297.44757C372.69284 297.44757 374.03598 298.7907 374.03598 300.44757Z" fill-rule="nonzero"/><path fill="#000000" fill-opacity="0.0" clip-path="url(#id_0)" d="M379.07443 300.44757C379.07443 302.10443 377.7313 303.44757 376.07443 303.44757C374.41757 303.44757 373.07443 302.10443 373.07443 300.44757C373.07443 298.7907 374.41757 297.44757 376.07443 297.44757C377.7313 297.44757 379.07443 298.7907 379.07443 300.44757Z" fill-rule="nonzero"/><path fill="#000000" fill-opacity="0.0" clip-path="url(#id_0)" d="M384.11288 300.44757C384.11288 302.10443 382.76974 303.44757 381.11288 303.44757C379.45605 303.44757 378.11288 302.10443 378.11288 300.44757C378.11288 298.7907 379.45605 297.44757 381.11288 297.44757C382.76974 297.44757 384.11288 298.7907 384.11288 300.44757Z" fill-rule="nonzero"/><path fill="#000000" fill-opacity="0.0" clip-path="url(#id_0)" d="M389.15085 300.44757C389.15085 302.10443 387.8077 303.44757 386.15085 303.44757C384.494 303.44757 383.15085 302.10443 383.15085 300.44757C383.15085 298.7907 384.494 297.44757 386.15085 297.44757C387.8077 297.44757 389.15085 298.7907 389.15085 300.44757Z" fill-rule="nonzero"/><path fill="#000000" fill-opacity="0.0" clip-path="url(#id_0)" d="M394.1888 300.44757C394.1888 302.10443 392.84567 303.44757 391.1888 303.44757C389.53195 303.44757 388.1888 302.10443 388.1888 300.44757C388.1888 298.7907 389.53195 297.44757 391.1888 297.44757C392.84567 297.44757 394.1888 298.7907 394.1888 300.44757Z" fill-rule="nonzero"/><path fill="#000000" fill-opacity="0.0" clip-path="url(#id_0)" d="M399.22626 300.44757C399.22626 302.10443 397.88312 303.44757 396.22626 303.44757C394.5694 303.44757 393.22626 302.10443 393.22626 300.44757C393.22626 298.7907 394.5694 297.44757 396.22626 297.44757C397.88312 297.44757 399.22626 298.7907 399.22626 300.44757Z" fill-rule="nonzero"/><path fill="#000000" fill-opacity="0.0" clip-path="url(#id_0)" d="M404.2637 300.44757C404.2637 302.10443 402.92056 303.44757 401.2637 303.44757C399.60687 303.44757 398.2637 302.10443 398.2637 300.44757C398.2637 298.7907 399.60687 297.44757 401.2637 297.44757C402.92056 297.44757 404.2637 298.7907 404.2637 300.44757Z" fill-rule="nonzero"/><path fill="#000000" fill-opacity="0.0" clip-path="url(#id_0)" d="M409.30014 300.44757C409.30014 302.10443 407.957 303.44757 406.30014 303.44757C404.6433 303.44757 403.30014 302.10443 403.30014 300.44757C403.30014 298.7907 404.6433 297.44757 406.30014 297.44757C407.957 297.44757 409.30014 298.7907 409.30014 300.44757Z" fill-rule="nonzero"/><path fill="#000000" fill-opacity="0.0" clip-path="url(#id_0)" d="M414.3366 300.44757C414.3366 302.10443 412.99344 303.44757 411.3366 303.44757C409.67975 303.44757 408.3366 302.10443 408.3366 300.44757C408.3366 298.7907 409.67975 297.44757 411.3366 297.44757C412.99344 297.44757 414.3366 298.7907 414.3366 300.44757Z" fill-rule="nonzero"/><path fill="#000000" fill-opacity="0.0" clip-path="url(#id_0)" d="M419.37305 300.44757C419.37305 302.10443 418.02988 303.44757 416.37305 303.44757C414.7162 303.44757 413.37305 302.10443 413.37305 300.44757C413.37305 298.7907 414.7162 297.44757 416.37305 297.44757C418.02988 297.44757 419.37305 298.7907 419.37305 300.44757Z" fill-rule="nonzero"/><path fill="#000000" fill-opacity="0.0" clip-path="url(#id_0)" d="M424.40897 300.44757C424.40897 302.10443 423.06583 303.44757 421.40897 303.44757C419.7521 303.44757 418.40897 302.10443 418.40897 300.44757C418.40897 298.7907 419.7521 297.44757 421.40897 297.44757C423.06583 297.44757 424.40897 298.7907 424.40897 300.44757Z" fill-rule="nonzero"/><path fill="#000000" fill-opacity="0.0" clip-path="url(#id_0)" d="M429.4444 300.44757C429.4444 302.10443 428.10126 303.44757 426.4444 303.44757C424.78754 303.44757 423.4444 302.10443 423.4444 300.44757C423.4444 298.79074 424.78754 297.44757 426.4444 297.44757C428.10126 297.44757 429.4444 298.79074 429.4444 300.44757Z" fill-rule="nonzero"/><path fill="#000000" fill-opacity="0.0" clip-path="url(#id_0)" d="M434.47934 300.44757C434.47934 302.10443 433.1362 303.44757 431.47934 303.44757C429.82248 303.44757 428.47934 302.10443 428.47934 300.44757C428.47934 298.79074 429.82248 297.44757 431.47934 297.44757C433.1362 297.44757 434.47934 298.79074 434.47934 300.44757Z" fill-rule="nonzero"/><path fill="#000000" fill-opacity="0.0" clip-path="url(#id_0)" d="M439.51425 300.44757C439.51425 302.10443 438.1711 303.44757 436.51425 303.44757C434.8574 303.44757 433.51425 302.10443 433.51425 300.44757C433.51425 298.79074 434.8574 297.44757 436.51425 297.44757C438.1711 297.44757 439.51425 298.79074 439.51425 300.44757Z" fill-rule="nonzero"/><path fill="#000000" fill-opacity="0.0" clip-path="url(#id_0)" d="M444.54868 300.44757C444.54868 302.10443 443.20554 303.44757 441.54868 303.44757C439.8918 303.44757 438.54868 302.10443 438.54868 300.44757C438.54868 298.79074 439.8918 297.44757 441.54868 297.44757C443.20554 297.44757 444.54868 298.79074 444.54868 300.44757Z" fill-rule="nonzero"/><path fill="#000000" fill-opacity="0.0" clip-path="url(#id_0)" d="M449.5826 300.44757C449.5826 302.10443 448.23944 303.44757 446.5826 303.44757C444.92575 303.44757 443.5826 302.10443 443.5826 300.44757C443.5826 298.79074 444.92575 297.44757 446.5826 297.44757C448.23944 297.44757 449.5826 298.79074 449.5826 300.44757Z" fill-rule="nonzero"/><path fill="#000000" fill-opacity="0.0" clip-path="url(#id_0)" d="M454.61652 300.44757C454.61652 302.10443 453.27338 303.44757 451.61652 303.44757C449.95966 303.44757 448.61652 302.10443 448.61652 300.44757C448.61652 298.79074 449.95966 297.44757 451.61652 297.44757C453.27338 297.44757 454.61652 298.79074 454.61652 300.44757Z" fill-rule="nonzero"/><path fill="#000000" fill-opacity="0.0" clip-path="url(#id_0)" d="M459.6494 300.44757C459.6494 302.10443 458.30627 303.44757 456.6494 303.44757C454.99258 303.44757 453.6494 302.10443 453.6494 300.44757C453.6494 298.79074 454.99258 297.44757 456.6494 297.44757C458.30627 297.44757 459.6494 298.79074 459.6494 300.44757Z" fill-rule="nonzero"/><path fill="#000000" fill-opacity="0.0" clip-path="url(#id_0)" d="M464.68234 300.44757C464.68234 302.10443 463.33917 303.44757 461.68234 303.44757C460.02548 303.44757 458.68234 302.10443 458.68234 300.44757C458.68234 298.79074 460.02548 297.44757 461.68234 297.44757C463.33917 297.44757 464.68234 298.79074 464.68234 300.44757Z" fill-rule="nonzero"/><path fill="#000000" fill-opacity="0.0" clip-path="url(#id_0)" d="M469.71524 300.44757C469.71524 302.10443 468.3721 303.44757 466.71524 303.44757C465.05838 303.44757 463.71524 302.10443 463.71524 300.44757C463.71524 298.79074 465.05838 297.44757 466.71524 297.44757C468.3721 297.44757 469.71524 298.79074 469.71524 300.44757Z" fill-rule="nonzero"/><path fill="#000000" fill-opacity="0.0" clip-path="url(#id_0)" d="M474.74713 300.44757C474.74713 302.10443 473.404 303.44757 471.74713 303.44757C470.09027 303.44757 468.74713 302.10443 468.74713 300.44757C468.74713 298.79074 470.09027 297.44757 471.74713 297.44757C473.404 297.44757 474.74713 298.79074 474.74713 300.44757Z" fill-rule="nonzero"/><path fill="#000000" fill-opacity="0.0" clip-path="url(#id_0)" d="M479.77905 300.44757C479.77905 302.10443 478.43588 303.44757 476.77905 303.44757C475.1222 303.44757 473.77905 302.10443 473.77905 300.44757C473.77905 298.79074 475.1222 297.44757 476.77905 297.44757C478.43588 297.44757 479.77905 298.79074 479.77905 300.44757Z" fill-rule="nonzero"/><path fill="#000000" fill-opacity="0.0" clip-path="url(#id_0)" d="M484.80994 300.44757C484.80994 302.10443 483.4668 303.44757 481.80994 303.44757C480.15308 303.44757 478.80994 302.10443 478.80994 300.44757C478.80994 298.79074 480.15308 297.44757 481.80994 297.44757C483.4668 297.44757 484.80994 298.79074 484.80994 300.44757Z" fill-rule="nonzero"/><path fill="#000000" fill-opacity="0.0" clip-path="url(#id_0)" d="M489.8413 300.44757C489.8413 302.10443 488.49817 303.44757 486.8413 303.44757C485.18448 303.44757 483.8413 302.10443 483.8413 300.44757C483.8413 298.79074 485.18448 297.44757 486.8413 297.44757C488.49817 297.44757 489.8413 298.79074 489.8413 300.44757Z" fill-rule="nonzero"/><path fill="#000000" fill-opacity="0.0" clip-path="url(#id_0)" d="M494.8717 300.44757C494.8717 302.10443 493.52856 303.44757 491.8717 303.44757C490.21484 303.44757 488.8717 302.10443 488.8717 300.44757C488.8717 298.79074 490.21484 297.44757 491.8717 297.44757C493.52856 297.44757 494.8717 298.79074 494.8717 300.44757Z" fill-rule="nonzero"/><path fill="#000000" fill-opacity="0.0" clip-path="url(#id_0)" d="M499.90158 300.4476C499.90158 302.10443 498.55844 303.4476 496.90158 303.4476C495.24472 303.4476 493.90158 302.10443 493.90158 300.4476C493.90158 298.79074 495.24472 297.4476 496.90158 297.4476C498.55844 297.4476 499.90158 298.79074 499.90158 300.4476Z" fill-rule="nonzero"/><path fill="#000000" fill-opacity="0.0" clip-path="url(#id_0)" d="M504.93146 300.4476C504.93146 302.10443 503.58832 303.4476 501.93146 303.4476C500.2746 303.4476 498.93146 302.10443 498.93146 300.4476C498.93146 298.79074 500.2746 297.4476 501.93146 297.4476C503.58832 297.4476 504.93146 298.79074 504.93146 300.4476Z" fill-rule="nonzero"/><path fill="#000000" fill-opacity="0.0" clip-path="url(#id_0)" d="M509.96085 300.4476C509.96085 302.10443 508.6177 303.4476 506.96085 303.4476C505.304 303.4476 503.96085 302.10443 503.96085 300.4476C503.96085 298.79074 505.304 297.4476 506.96085 297.4476C508.6177 297.4476 509.96085 298.79074 509.96085 300.4476Z" fill-rule="nonzero"/><path fill="#000000" fill-opacity="0.0" clip-path="url(#id_0)" d="M514.9892 300.4476C514.9892 302.10443 513.64606 303.4476 511.9892 303.4476C510.33234 303.4476 508.9892 302.10443 508.9892 300.4476C508.9892 298.79074 510.33234 297.4476 511.9892 297.4476C513.64606 297.4476 514.9892 298.79074 514.9892 300.4476Z" fill-rule="nonzero"/><path fill="#000000" fill-opacity="0.0" clip-path="url(#id_0)" d="M520.01807 300.4476C520.01807 302.10443 518.6749 303.4476 517.01807 303.4476C515.3612 303.4476 514.01807 302.10443 514.01807 300.4476C514.01807 298.79074 515.3612 297.4476 517.01807 297.4476C518.6749 297.4476 520.01807 298.79074 520.01807 300.4476Z" fill-rule="nonzero"/><path fill="#000000" fill-opacity="0.0" clip-path="url(#id_0)" d="M525.04596 300.4476C525.04596 302.10443 523.7028 303.4476 522.04596 303.4476C520.3891 303.4476 519.04596 302.10443 519.04596 300.4476C519.04596 298.79074 520.3891 297.4476 522.04596 297.4476C523.7028 297.4476 525.04596 298.79074 525.04596 300.4476Z" fill-rule="nonzero"/><path fill="#000000" fill-opacity="0.0" clip-path="url(#id_0)" d="M530.0733 300.4476C530.0733 302.10443 528.73016 303.4476 527.0733 303.4476C525.41644 303.4476 524.0733 302.10443 524.0733 300.4476C524.0733 298.79074 525.41644 297.4476 527.0733 297.4476C528.73016 297.4476 530.0733 298.79074 530.0733 300.4476Z" fill-rule="nonzero"/><path fill="#000000" fill-opacity="0.0" clip-path="url(#id_0)" d="M535.10016 300.4476C535.10016 302.10443 533.757 303.4476 532.10016 303.4476C530.4433 303.4476 529.10016 302.10443 529.10016 300.4476C529.10016 298.79074 530.4433 297.4476 532.10016 297.4476C533.757 297.4476 535.10016 298.79074 535.10016 300.4476Z" fill-rule="nonzero"/><path fill="#000000" fill-opacity="0.0" clip-path="url(#id_0)" d="M540.127 300.4476C540.127 302.10443 538.7839 303.4476 537.127 303.4476C535.47015 303.4476 534.127 302.10443 534.127 300.4476C534.127 298.79074 535.47015 297.4476 537.127 297.4476C538.7839 297.4476 540.127 298.79074 540.127 300.4476Z" fill-rule="nonzero"/><path fill="#000000" fill-opacity="0.0" clip-path="url(#id_0)" d="M545.15283 300.4476C545.15283 302.10443 543.8097 303.4476 542.15283 303.4476C540.496 303.4476 539.15283 302.10443 539.15283 300.4476C539.15283 298.79074 540.496 297.4476 542.15283 297.4476C543.8097 297.4476 545.15283 298.79074 545.15283 300.4476Z" fill-rule="nonzero"/><path fill="#000000" fill-opacity="0.0" clip-path="url(#id_0)" d="M550.17865 300.4476C550.17865 302.10443 548.8355 303.4476 547.17865 303.4476C545.52185 303.4476 544.17865 302.10443 544.17865 300.4476C544.17865 298.79074 545.52185 297.4476 547.17865 297.4476C548.8355 297.4476 550.17865 298.79074 550.17865 300.4476Z" fill-rule="nonzero"/><path fill="#000000" fill-opacity="0.0" clip-path="url(#id_0)" d="M555.20404 300.4476C555.20404 302.10443 553.86084 303.4476 552.20404 303.4476C550.5472 303.4476 549.20404 302.10443 549.20404 300.4476C549.20404 298.79074 550.5472 297.4476 552.20404 297.4476C553.86084 297.4476 555.20404 298.79074 555.20404 300.4476Z" fill-rule="nonzero"/><path fill="#000000" fill-opacity="0.0" clip-path="url(#id_0)" d="M560.22833 300.4476C560.22833 302.10443 558.8852 303.4476 557.22833 303.4476C555.5715 303.4476 554.22833 302.10443 554.22833 300.4476C554.22833 298.79074 555.5715 297.4476 557.22833 297.4476C558.8852 297.4476 560.22833 298.79074 560.22833 300.4476Z" fill-rule="nonzero"/><path fill="#000000" fill-opacity="0.0" clip-path="url(#id_0)" d="M565.2527 300.4476C565.2527 302.10443 563.90955 303.4476 562.2527 303.4476C560.5958 303.4476 559.2527 302.10443 559.2527 300.4476C559.2527 298.79074 560.5958 297.4476 562.2527 297.4476C563.90955 297.4476 565.2527 298.79074 565.2527 300.4476Z" fill-rule="nonzero"/><path fill="#000000" fill-opacity="0.0" clip-path="url(#id_0)" d="M570.2765 300.4476C570.2765 302.10443 568.93335 303.4476 567.2765 303.4476C565.6196 303.4476 564.2765 302.10443 564.2765 300.4476C564.2765 298.79074 565.6196 297.4476 567.2765 297.4476C568.93335 297.4476 570.2765 298.79074 570.2765 300.4476Z" fill-rule="nonzero"/><path fill="#000000" fill-opacity="0.0" clip-path="url(#id_0)" d="M575.2998 300.4476C575.2998 302.10443 573.95667 303.4476 572.2998 303.4476C570.64294 303.4476 569.2998 302.10443 569.2998 300.4476C569.2998 298.79074 570.64294 297.4476 572.2998 297.4476C573.95667 297.4476 575.2998 298.79074 575.2998 300.4476Z" fill-rule="nonzero"/><path fill="#000000" fill-opacity="0.0" clip-path="url(#id_0)" d="M580.32263 300.4476C580.32263 302.10443 578.9795 303.4476 577.32263 303.4476C575.6658 303.4476 574.32263 302.10443 574.32263 300.4476C574.32263 298.79074 575.6658 297.4476 577.32263 297.4476C578.9795 297.4476 580.32263 298.79074 580.32263 300.4476Z" fill-rule="nonzero"/><path fill="#000000" fill-opacity="0.0" clip-path="url(#id_0)" d="M584.45 300.4476C584.45 302.10446 583.1069 303.4476 581.45 303.4476C579.79315 303.4476 578.45 302.10446 578.45 300.4476C578.45 298.79074 579.79315 297.4476 581.45 297.4476C583.1069 297.4476 584.45 298.79074 584.45 300.4476Z" fill-rule="nonzero"/><path fill="#000000" d="M298.54688 347.45L299.64062 347.575Q299.39062 348.52814 298.6875 349.0594Q297.98438 349.59064 296.90625 349.59064Q295.54688 349.59064 294.73438 348.7469Q293.9375 347.90314 293.9375 346.3875Q293.9375 344.825 294.75 343.96564Q295.5625 343.09064 296.84375 343.09064Q298.09375 343.09064 298.875 343.9344Q299.67188 344.77814 299.67188 346.325Q299.67188 346.41876 299.67188 346.60626L295.03125 346.60626Q295.09375 347.6375 295.60938 348.1844Q296.125 348.71564 296.90625 348.71564Q297.48438 348.71564 297.89062 348.41876Q298.3125 348.10626 298.54688 347.45ZM295.09375 345.7469L298.5625 345.7469Q298.5 344.95 298.17188 344.5594Q297.65625 343.95 296.85938 343.95Q296.125 343.95 295.625 344.4344Q295.14062 344.91876 295.09375 345.7469ZM301.29688 351.84064L301.29688 343.23126L302.25 343.23126L302.25 344.02814Q302.59375 343.5594 303.01562 343.325Q303.45312 343.09064 304.0625 343.09064Q304.85938 343.09064 305.46875 343.4969Q306.07812 343.90314 306.375 344.65314Q306.6875 345.40314 306.6875 346.29376Q306.6875 347.2469 306.34375 348.0125Q306.01562 348.77814 305.35938 349.1844Q304.70312 349.59064 303.98438 349.59064Q303.45312 349.59064 303.03125 349.3719Q302.60938 349.1375 302.34375 348.8094L302.34375 351.84064L301.29688 351.84064ZM302.25 346.3719Q302.25 347.575 302.73438 348.15314Q303.21875 348.71564 303.90625 348.71564Q304.60938 348.71564 305.10938 348.1219Q305.60938 347.52814 305.60938 346.27814Q305.60938 345.09064 305.125 344.5125Q304.64062 343.91876 303.95312 343.91876Q303.28125 343.91876 302.76562 344.54376Q302.25 345.16876 302.25 346.3719ZM307.875 347.59064L308.90625 347.4344Q309.0 348.0594 309.39062 348.3875Q309.79688 348.71564 310.53125 348.71564Q311.25 348.71564 311.59375 348.4344Q311.95312 348.1375 311.95312 347.73126Q311.95312 347.3719 311.64062 347.16876Q311.42188 347.02814 310.5625 346.8094Q309.40625 346.5125 308.95312 346.3094Q308.51562 346.09064 308.28125 345.71564Q308.04688 345.34064 308.04688 344.8719Q308.04688 344.46564 308.23438 344.10626Q308.42188 343.7469 308.75 343.5125Q309.0 343.34064 309.42188 343.21564Q309.84375 343.09064 310.34375 343.09064Q311.0625 343.09064 311.60938 343.3094Q312.17188 343.5125 312.4375 343.8719Q312.70312 344.23126 312.79688 344.825L311.76562 344.96564Q311.70312 344.4969 311.35938 344.23126Q311.03125 343.95 310.40625 343.95Q309.6875 343.95 309.375 344.2Q309.0625 344.4344 309.0625 344.7625Q309.0625 344.96564 309.1875 345.1219Q309.32812 345.29376 309.59375 345.40314Q309.75 345.46564 310.53125 345.66876Q311.65625 345.98126 312.09375 346.16876Q312.53125 346.35626 312.78125 346.71564Q313.03125 347.075 313.03125 347.6219Q313.03125 348.15314 312.71875 348.6219Q312.42188 349.075 311.84375 349.34064Q311.26562 349.59064 310.53125 349.59064Q309.3125 349.59064 308.67188 349.09064Q308.04688 348.575 307.875 347.59064ZM319.35938 347.16876L320.39062 347.3094Q320.21875 348.3719 319.51562 348.98126Q318.8125 349.59064 317.79688 349.59064Q316.51562 349.59064 315.73438 348.7625Q314.96875 347.91876 314.96875 346.35626Q314.96875 345.35626 315.29688 344.60626Q315.64062 343.84064 316.3125 343.46564Q317.0 343.09064 317.8125 343.09064Q318.8125 343.09064 319.45312 343.60626Q320.10938 344.10626 320.29688 345.0594L319.26562 345.21564Q319.125 344.59064 318.75 344.27814Q318.375 343.95 317.84375 343.95Q317.04688 343.95 316.54688 344.52814Q316.04688 345.09064 316.04688 346.325Q316.04688 347.59064 316.53125 348.15314Q317.01562 348.71564 317.78125 348.71564Q318.40625 348.71564 318.8125 348.34064Q319.23438 347.96564 319.35938 347.16876ZM321.28125 349.45L321.28125 343.23126L322.23438 343.23126L322.23438 344.16876Q322.59375 343.5125 322.89062 343.3094Q323.20312 343.09064 323.57812 343.09064Q324.10938 343.09064 324.65625 343.41876L324.29688 344.40314Q323.90625 344.16876 323.53125 344.16876Q323.17188 344.16876 322.89062 344.3875Q322.625 344.59064 322.51562 344.96564Q322.32812 345.52814 322.32812 346.1844L322.32812 349.45L321.28125 349.45ZM324.3125 351.84064L324.3125 351.075L331.3125 351.075L331.3125 351.84064L324.3125 351.84064ZM335.96875 349.45L334.92188 349.45L334.92188 342.73126Q334.53125 343.09064 333.90625 343.46564Q333.29688 343.825 332.8125 343.9969L332.8125 342.98126Q333.6875 342.5594 334.34375 341.98126Q335.01562 341.3875 335.29688 340.825L335.96875 340.825L335.96875 349.45ZM344.54688 348.4344L344.54688 349.45L338.85938 349.45Q338.85938 349.075 338.98438 348.71564Q339.20312 348.1375 339.67188 347.575Q340.15625 347.0125 341.0625 346.27814Q342.46875 345.1219 342.95312 344.45Q343.45312 343.77814 343.45312 343.1844Q343.45312 342.5594 343.0 342.1375Q342.54688 341.7 341.82812 341.7Q341.0625 341.7 340.60938 342.15314Q340.15625 342.60626 340.14062 343.41876L339.0625 343.3094Q339.17188 342.09064 339.89062 341.46564Q340.625 340.825 341.85938 340.825Q343.09375 340.825 343.8125 341.5125Q344.53125 342.2 344.53125 343.21564Q344.53125 343.73126 344.3125 344.23126Q344.10938 344.71564 343.60938 345.27814Q343.125 345.825 342.0 346.77814Q341.04688 347.575 340.76562 347.8719Q340.5 348.15314 340.32812 348.4344L344.54688 348.4344ZM349.3125 351.84064L349.3125 340.85626L351.64062 340.85626L351.64062 341.73126L350.375 341.73126L350.375 350.96564L351.64062 350.96564L351.64062 351.84064L349.3125 351.84064ZM352.20312 342.91876Q352.20312 341.9969 352.65625 341.35626Q353.125 340.71564 354.0 340.71564Q354.8125 340.71564 355.34375 341.29376Q355.875 341.8719 355.875 342.98126Q355.875 344.075 355.32812 344.66876Q354.79688 345.2469 354.01562 345.2469Q353.23438 345.2469 352.71875 344.66876Q352.20312 344.09064 352.20312 342.91876ZM354.03125 341.4344Q353.64062 341.4344 353.375 341.77814Q353.125 342.1219 353.125 343.02814Q353.125 343.85626 353.375 344.2Q353.64062 344.52814 354.03125 344.52814Q354.4375 344.52814 354.6875 344.1844Q354.95312 343.84064 354.95312 342.95Q354.95312 342.10626 354.6875 341.77814Q354.42188 341.4344 354.03125 341.4344ZM354.03125 349.7625L358.73438 340.71564L359.59375 340.71564L354.90625 349.7625L354.03125 349.7625ZM357.75 347.4344Q357.75 346.5125 358.20312 345.8719Q358.67188 345.23126 359.5625 345.23126Q360.375 345.23126 360.90625 345.8094Q361.4375 346.3719 361.4375 347.4969Q361.4375 348.59064 360.89062 349.1844Q360.35938 349.7625 359.5625 349.7625Q358.79688 349.7625 358.26562 349.1844Q357.75 348.60626 357.75 347.4344ZM359.59375 345.95Q359.1875 345.95 358.92188 346.29376Q358.67188 346.6375 358.67188 347.54376Q358.67188 348.35626 358.9375 348.7Q359.20312 349.04376 359.59375 349.04376Q359.98438 349.04376 360.25 348.7Q360.51562 348.35626 360.51562 347.45Q360.51562 346.6219 360.25 346.29376Q359.98438 345.95 359.59375 345.95ZM365.0625 351.84064L362.73438 351.84064L362.73438 350.96564L364.0 350.96564L364.0 341.73126L362.73438 341.73126L362.73438 340.85626L365.0625 340.85626L365.0625 351.84064Z" fill-rule="nonzero"/><path fill="#000000" d="M26.784388 214.63646L26.690638 213.57396Q27.346888 213.49583 27.753138 213.21458Q28.159388 212.93333 28.425013 212.35521Q28.675013 211.76146 28.675013 211.02708Q28.675013 210.38646 28.487513 209.88646Q28.284388 209.38646 27.956263 209.15208Q27.612513 208.90208 27.221888 208.90208Q26.815638 208.90208 26.518763 209.13646Q26.206263 209.37083 26.003138 209.90208Q25.862513 210.26146 25.581263 211.44896Q25.300013 212.62083 25.050013 213.08958Q24.721888 213.71458 24.253138 214.01146Q23.768763 214.30833 23.175013 214.30833Q22.534388 214.30833 21.971888 213.94896Q21.393763 213.57396 21.112513 212.87083Q20.815638 212.15208 20.815638 211.29271Q20.815638 210.33958 21.128138 209.60521Q21.425013 208.87083 22.034388 208.48021Q22.628138 208.08958 23.378138 208.05833L23.456263 209.15208Q22.643763 209.24583 22.237513 209.76146Q21.815638 210.26146 21.815638 211.24583Q21.815638 212.27708 22.190638 212.74583Q22.565638 213.21458 23.096888 213.21458Q23.565638 213.21458 23.862513 212.88646Q24.159388 212.55833 24.471888 211.18333Q24.784388 209.79271 25.018763 209.27708Q25.378138 208.52708 25.909388 208.16771Q26.425013 207.80833 27.128138 207.80833Q27.815638 207.80833 28.425013 208.19896Q29.018763 208.58958 29.362513 209.32396Q29.690638 210.05833 29.690638 210.98021Q29.690638 212.15208 29.362513 212.94896Q29.018763 213.73021 28.331263 214.18333Q27.643763 214.62083 26.784388 214.63646ZM29.550013 202.71458L29.550013 203.76146L22.831263 203.76146Q23.190638 204.15208 23.565638 204.77708Q23.925013 205.38646 24.096888 205.87083L23.081263 205.87083Q22.659388 204.99583 22.081263 204.33958Q21.487513 203.66771 20.925013 203.38646L20.925013 202.71458L29.550013 202.71458ZM28.534388 194.13646L29.550013 194.13646L29.550013 199.82396Q29.175013 199.82396 28.815638 199.69896Q28.237513 199.48021 27.675013 199.01146Q27.112513 198.52708 26.378138 197.62083Q25.221888 196.21458 24.550013 195.73021Q23.878138 195.23021 23.284388 195.23021Q22.659388 195.23021 22.237513 195.68333Q21.800013 196.13646 21.800013 196.85521Q21.800013 197.62083 22.253138 198.07396Q22.706263 198.52708 23.518763 198.54271L23.409388 199.62083Q22.190638 199.51146 21.565638 198.79271Q20.925013 198.05833 20.925013 196.82396Q20.925013 195.58958 21.612513 194.87083Q22.300013 194.15208 23.315638 194.15208Q23.831263 194.15208 24.331263 194.37083Q24.815638 194.57396 25.378138 195.07396Q25.925013 195.55833 26.878138 196.68333Q27.675013 197.63646 27.971888 197.91771Q28.253138 198.18333 28.534388 198.35521L28.534388 194.13646ZM31.940638 189.37083L20.956263 189.37083L20.956263 187.04271L21.831263 187.04271L21.831263 188.30833L31.065638 188.30833L31.065638 187.04271L31.940638 187.04271L31.940638 189.37083ZM29.550013 186.29271L20.956263 186.29271L20.956263 184.57396L27.034388 182.54271Q27.893763 182.26146 28.315638 182.13646Q27.846888 181.99583 26.940638 181.68333L20.956263 179.62083L20.956263 178.08958L29.550013 178.08958L29.550013 179.18333L22.362513 179.18333L29.550013 181.68333L29.550013 182.71458L22.237513 185.19896L29.550013 185.19896L29.550013 186.29271ZM29.550013 177.26146L20.956263 177.26146L20.956263 174.01146Q20.956263 173.16771 21.034388 172.71458Q21.143763 172.07396 21.440638 171.65208Q21.737513 171.21458 22.268763 170.96458Q22.800013 170.69896 23.440638 170.69896Q24.534388 170.69896 25.300013 171.40208Q26.050013 172.08958 26.050013 173.91771L26.050013 176.12083L29.550013 176.12083L29.550013 177.26146ZM25.050013 176.12083L25.050013 173.90208Q25.050013 172.79271 24.643763 172.33958Q24.221888 171.87083 23.471888 171.87083Q22.940638 171.87083 22.565638 172.15208Q22.175013 172.41771 22.050013 172.85521Q21.971888 173.15208 21.971888 173.91771L21.971888 176.12083L25.050013 176.12083ZM28.784388 165.32396Q29.284388 165.91771 29.487513 166.46458Q29.690638 166.99583 29.690638 167.62083Q29.690638 168.65208 29.190638 169.19896Q28.690638 169.74583 27.909388 169.74583Q27.456263 169.74583 27.081263 169.54271Q26.690638 169.33958 26.471888 168.99583Q26.237513 168.65208 26.128138 168.23021Q26.034388 167.93333 25.956263 167.29271Q25.815638 166.02708 25.596888 165.41771Q25.378138 165.41771 25.331263 165.41771Q24.675013 165.41771 24.409388 165.71458Q24.065638 166.12083 24.065638 166.91771Q24.065638 167.65208 24.331263 168.01146Q24.581263 168.37083 25.237513 168.54271L25.096888 169.57396Q24.440638 169.43333 24.034388 169.10521Q23.628138 168.77708 23.409388 168.16771Q23.190638 167.55833 23.190638 166.76146Q23.190638 165.96458 23.378138 165.46458Q23.565638 164.96458 23.846888 164.73021Q24.128138 164.49583 24.565638 164.40208Q24.831263 164.35521 25.534388 164.35521L26.940638 164.35521Q28.409388 164.35521 28.800013 164.29271Q29.190638 164.21458 29.550013 164.01146L29.550013 165.12083Q29.221888 165.27708 28.784388 165.32396ZM26.425013 165.41771Q26.659388 165.99583 26.831263 167.13646Q26.925013 167.79271 27.050013 168.05833Q27.159388 168.32396 27.378138 168.48021Q27.596888 168.62083 27.878138 168.62083Q28.300013 168.62083 28.581263 168.30833Q28.862513 167.98021 28.862513 167.37083Q28.862513 166.76146 28.596888 166.29271Q28.331263 165.80833 27.862513 165.58958Q27.503138 165.41771 26.815638 165.41771L26.425013 165.41771ZM31.940638 160.62083L31.940638 162.94896L31.065638 162.94896L31.065638 161.68333L21.831263 161.68333L21.831263 162.94896L20.956263 162.94896L20.956263 160.62083L31.940638 160.62083Z" fill-rule="nonzero"/><path fill="#000000" d="M65.05 300.21564Q65.05 298.6844 65.3625 297.7625Q65.675 296.825 66.28438 296.325Q66.90938 295.825 67.84688 295.825Q68.53438 295.825 69.05 296.10626Q69.58125 296.3875 69.925 296.91876Q70.26875 297.4344 70.45625 298.1844Q70.64375 298.9344 70.64375 300.21564Q70.64375 301.73126 70.33125 302.65314Q70.03438 303.575 69.40938 304.09064Q68.8 304.59064 67.84688 304.59064Q66.6125 304.59064 65.89375 303.7Q65.05 302.6375 65.05 300.21564ZM66.12813 300.21564Q66.12813 302.325 66.62813 303.02814Q67.12813 303.73126 67.84688 303.73126Q68.58125 303.73126 69.06563 303.02814Q69.56563 302.325 69.56563 300.21564Q69.56563 298.09064 69.06563 297.40314Q68.58125 296.7 67.83125 296.7Q67.1125 296.7 66.675 297.3094Q66.12813 298.09064 66.12813 300.21564Z" fill-rule="nonzero"/><path fill="#000000" d="M63.596874 243.80104L63.596874 244.81667L57.909374 244.81667Q57.909374 244.44167 58.034374 244.08229Q58.253124 243.50417 58.721874 242.94167Q59.20625 242.37917 60.1125 241.64479Q61.51875 240.48854 62.003124 239.81667Q62.503124 239.14479 62.503124 238.55104Q62.503124 237.92604 62.05 237.50417Q61.596874 237.06667 60.878124 237.06667Q60.1125 237.06667 59.659374 237.51979Q59.20625 237.97292 59.190624 238.78542L58.1125 238.67604Q58.221874 237.45729 58.940624 236.83229Q59.675 236.19167 60.909374 236.19167Q62.14375 236.19167 62.8625 236.87917Q63.58125 237.56667 63.58125 238.58229Q63.58125 239.09792 63.3625 239.59792Q63.159374 240.08229 62.659374 240.64479Q62.175 241.19167 61.05 242.14479Q60.096874 242.94167 59.815624 243.23854Q59.55 243.51979 59.378124 243.80104L63.596874 243.80104ZM65.05 240.58229Q65.05 239.05104 65.3625 238.12917Q65.675 237.19167 66.28438 236.69167Q66.90938 236.19167 67.84688 236.19167Q68.53438 236.19167 69.05 236.47292Q69.58125 236.75417 69.925 237.28542Q70.26875 237.80104 70.45625 238.55104Q70.64375 239.30104 70.64375 240.58229Q70.64375 242.09792 70.33125 243.01979Q70.03438 243.94167 69.40938 244.45729Q68.8 244.95729 67.84688 244.95729Q66.6125 244.95729 65.89375 244.06667Q65.05 243.00417 65.05 240.58229ZM66.12813 240.58229Q66.12813 242.69167 66.62813 243.39479Q67.12813 244.09792 67.84688 244.09792Q68.58125 244.09792 69.06563 243.39479Q69.56563 242.69167 69.56563 240.58229Q69.56563 238.45729 69.06563 237.76979Q68.58125 237.06667 67.83125 237.06667Q67.1125 237.06667 66.675 237.67604Q66.12813 238.45729 66.12813 240.58229Z" fill-rule="nonzero"/><path fill="#000000" d="M61.425 185.18333L61.425 183.12083L57.70625 183.12083L57.70625 182.15208L61.628124 176.58958L62.4875 176.58958L62.4875 182.15208L63.64375 182.15208L63.64375 183.12083L62.4875 183.12083L62.4875 185.18333L61.425 185.18333ZM61.425 182.15208L61.425 178.29271L58.7375 182.15208L61.425 182.15208ZM65.05 180.94896Q65.05 179.41771 65.3625 178.49583Q65.675 177.55833 66.28438 177.05833Q66.90938 176.55833 67.84688 176.55833Q68.53438 176.55833 69.05 176.83958Q69.58125 177.12083 69.925 177.65208Q70.26875 178.16771 70.45625 178.91771Q70.64375 179.66771 70.64375 180.94896Q70.64375 182.46458 70.33125 183.38646Q70.03438 184.30833 69.40938 184.82396Q68.8 185.32396 67.84688 185.32396Q66.6125 185.32396 65.89375 184.43333Q65.05 183.37083 65.05 180.94896ZM66.12813 180.94896Q66.12813 183.05833 66.62813 183.76146Q67.12813 184.46458 67.84688 184.46458Q68.58125 184.46458 69.06563 183.76146Q69.56563 183.05833 69.56563 180.94896Q69.56563 178.82396 69.06563 178.13646Q68.58125 177.43333 67.83125 177.43333Q67.1125 177.43333 66.675 178.04271Q66.12813 178.82396 66.12813 180.94896Z" fill-rule="nonzero"/><path fill="#000000" d="M63.51875 119.06563L62.471874 119.14375Q62.33125 118.51875 62.08125 118.2375Q61.64375 117.78438 61.01875 117.78438Q60.51875 117.78438 60.128124 118.06563Q59.64375 118.44063 59.346874 119.14375Q59.065624 119.83125 59.05 121.1125Q59.425 120.53438 59.971874 120.25313Q60.534374 119.97188 61.14375 119.97188Q62.190624 119.97188 62.925 120.75313Q63.675 121.53438 63.675 122.75313Q63.675 123.56563 63.315624 124.26875Q62.971874 124.95625 62.3625 125.33125Q61.753124 125.69063 60.9875 125.69063Q59.659374 125.69063 58.83125 124.72188Q58.003124 123.75313 58.003124 121.53438Q58.003124 119.03438 58.925 117.90938Q59.721874 116.925 61.08125 116.925Q62.096874 116.925 62.7375 117.50313Q63.39375 118.06563 63.51875 119.06563ZM59.221874 122.76875Q59.221874 123.31563 59.440624 123.81563Q59.675 124.3 60.08125 124.56563Q60.503124 124.83125 60.971874 124.83125Q61.628124 124.83125 62.1125 124.3Q62.596874 123.75313 62.596874 122.83125Q62.596874 121.94063 62.1125 121.425Q61.64375 120.90938 60.925 120.90938Q60.20625 120.90938 59.70625 121.425Q59.221874 121.94063 59.221874 122.76875ZM65.05 121.31563Q65.05 119.78438 65.3625 118.8625Q65.675 117.925 66.28438 117.425Q66.90938 116.925 67.84688 116.925Q68.53438 116.925 69.05 117.20625Q69.58125 117.4875 69.925 118.01875Q70.26875 118.53438 70.45625 119.28438Q70.64375 120.03438 70.64375 121.31563Q70.64375 122.83125 70.33125 123.75313Q70.03438 124.675 69.40938 125.19063Q68.8 125.69063 67.84688 125.69063Q66.6125 125.69063 65.89375 124.8Q65.05 123.7375 65.05 121.31563ZM66.12813 121.31563Q66.12813 123.425 66.62813 124.12813Q67.12813 124.83125 67.84688 124.83125Q68.58125 124.83125 69.06563 124.12813Q69.56563 123.425 69.56563 121.31563Q69.56563 119.19063 69.06563 118.50313Q68.58125 117.8 67.83125 117.8Q67.1125 117.8 66.675 118.40938Q66.12813 119.19063 66.12813 121.31563Z" fill-rule="nonzero"/><path fill="#000000" d="M59.675 61.260414Q59.01875 61.010414 58.690624 60.572914Q58.378124 60.11979 58.378124 59.510414Q58.378124 58.572914 59.05 57.93229Q59.7375 57.291664 60.846874 57.291664Q61.971874 57.291664 62.659374 57.947914Q63.346874 58.604164 63.346874 59.541664Q63.346874 60.135414 63.034374 60.572914Q62.721874 61.010414 62.08125 61.260414Q62.878124 61.510414 63.284374 62.08854Q63.690624 62.666664 63.690624 63.46354Q63.690624 64.55729 62.909374 65.30729Q62.14375 66.05729 60.8625 66.05729Q59.596874 66.05729 58.815624 65.30729Q58.034374 64.55729 58.034374 63.43229Q58.034374 62.58854 58.45625 62.02604Q58.89375 61.46354 59.675 61.260414ZM59.45625 59.46354Q59.45625 60.072914 59.846874 60.46354Q60.253124 60.854164 60.878124 60.854164Q61.4875 60.854164 61.878124 60.479164Q62.26875 60.08854 62.26875 59.52604Q62.26875 58.947914 61.8625 58.55729Q61.45625 58.15104 60.8625 58.15104Q60.253124 58.15104 59.846874 58.541664Q59.45625 58.93229 59.45625 59.46354ZM59.128124 63.43229Q59.128124 63.885414 59.33125 64.30729Q59.55 64.729164 59.971874 64.96354Q60.39375 65.197914 60.878124 65.197914Q61.628124 65.197914 62.1125 64.71354Q62.6125 64.229164 62.6125 63.479164Q62.6125 62.71354 62.1125 62.21354Q61.6125 61.71354 60.846874 61.71354Q60.096874 61.71354 59.6125 62.21354Q59.128124 62.697914 59.128124 63.43229ZM65.05 61.68229Q65.05 60.15104 65.3625 59.229164Q65.675 58.291664 66.28438 57.791664Q66.90938 57.291664 67.84688 57.291664Q68.53438 57.291664 69.05 57.572914Q69.58125 57.854164 69.925 58.385414Q70.26875 58.90104 70.45625 59.65104Q70.64375 60.40104 70.64375 61.68229Q70.64375 63.197914 70.33125 64.11979Q70.03438 65.041664 69.40938 65.55729Q68.8 66.05729 67.84688 66.05729Q66.6125 66.05729 65.89375 65.166664Q65.05 64.104164 65.05 61.68229ZM66.12813 61.68229Q66.12813 63.791664 66.62813 64.49479Q67.12813 65.197914 67.84688 65.197914Q68.58125 65.197914 69.06563 64.49479Q69.56563 63.791664 69.56563 61.68229Q69.56563 59.55729 69.06563 58.86979Q68.58125 58.166664 67.83125 58.166664Q67.1125 58.166664 66.675 58.77604Q66.12813 59.55729 66.12813 61.68229Z" fill-rule="nonzero"/><path fill="#000000" d="M158.04774 316.4344L158.04774 317.45L152.36024 317.45Q152.36024 317.075 152.48524 316.71564Q152.704 316.1375 153.17274 315.575Q153.65712 315.0125 154.56337 314.27814Q155.96962 313.1219 156.454 312.45Q156.954 311.77814 156.954 311.1844Q156.954 310.5594 156.50087 310.1375Q156.04774 309.7 155.329 309.7Q154.56337 309.7 154.11024 310.15314Q153.65712 310.60626 153.6415 311.41876L152.56337 311.3094Q152.67274 310.09064 153.3915 309.46564Q154.12587 308.825 155.36024 308.825Q156.59462 308.825 157.31337 309.5125Q158.03212 310.2 158.03212 311.21564Q158.03212 311.73126 157.81337 312.23126Q157.61024 312.71564 157.11024 313.27814Q156.62587 313.825 155.50087 314.77814Q154.54774 315.575 154.2665 315.8719Q154.00087 316.15314 153.829 316.4344L158.04774 316.4344ZM160.09462 317.45L160.09462 316.2469L161.29774 316.2469L161.29774 317.45L160.09462 317.45ZM162.50087 313.21564Q162.50087 311.6844 162.81337 310.7625Q163.12587 309.825 163.73524 309.325Q164.36024 308.825 165.29774 308.825Q165.98524 308.825 166.50087 309.10626Q167.03212 309.3875 167.37587 309.91876Q167.71962 310.4344 167.90712 311.1844Q168.09462 311.9344 168.09462 313.21564Q168.09462 314.73126 167.78212 315.65314Q167.48524 316.575 166.86024 317.09064Q166.25087 317.59064 165.29774 317.59064Q164.06337 317.59064 163.34462 316.7Q162.50087 315.6375 162.50087 313.21564ZM163.579 313.21564Q163.579 315.325 164.079 316.02814Q164.579 316.73126 165.29774 316.73126Q166.03212 316.73126 166.5165 316.02814Q167.0165 315.325 167.0165 313.21564Q167.0165 311.09064 166.5165 310.40314Q166.03212 309.7 165.28212 309.7Q164.56337 309.7 164.12587 310.3094Q163.579 311.09064 163.579 313.21564ZM169.50087 313.21564Q169.50087 311.6844 169.81337 310.7625Q170.12587 309.825 170.73524 309.325Q171.36024 308.825 172.29774 308.825Q172.98524 308.825 173.50087 309.10626Q174.03212 309.3875 174.37587 309.91876Q174.71962 310.4344 174.90712 311.1844Q175.09462 311.9344 175.09462 313.21564Q175.09462 314.73126 174.78212 315.65314Q174.48524 316.575 173.86024 317.09064Q173.25087 317.59064 172.29774 317.59064Q171.06337 317.59064 170.34462 316.7Q169.50087 315.6375 169.50087 313.21564ZM170.579 313.21564Q170.579 315.325 171.079 316.02814Q171.579 316.73126 172.29774 316.73126Q173.03212 316.73126 173.5165 316.02814Q174.0165 315.325 174.0165 313.21564Q174.0165 311.09064 173.5165 310.40314Q173.03212 309.7 172.28212 309.7Q171.56337 309.7 171.12587 310.3094Q170.579 311.09064 170.579 313.21564ZM176.954 317.45L176.954 308.85626L183.15712 308.85626L183.15712 309.8719L178.09462 309.8719L178.09462 312.4969L182.84462 312.4969L182.84462 313.5125L178.09462 313.5125L178.09462 316.4344L183.36024 316.4344L183.36024 317.45L176.954 317.45ZM187.00087 316.0594L187.00087 313.7L184.67274 313.7L184.67274 312.71564L187.00087 312.71564L187.00087 310.3875L188.00087 310.3875L188.00087 312.71564L190.34462 312.71564L190.34462 313.7L188.00087 313.7L188.00087 316.0594L187.00087 316.0594ZM191.50087 313.21564Q191.50087 311.6844 191.81337 310.7625Q192.12587 309.825 192.73524 309.325Q193.36024 308.825 194.29774 308.825Q194.98524 308.825 195.50087 309.10626Q196.03212 309.3875 196.37587 309.91876Q196.71962 310.4344 196.90712 311.1844Q197.09462 311.9344 197.09462 313.21564Q197.09462 314.73126 196.78212 315.65314Q196.48524 316.575 195.86024 317.09064Q195.25087 317.59064 194.29774 317.59064Q193.06337 317.59064 192.34462 316.7Q191.50087 315.6375 191.50087 313.21564ZM192.579 313.21564Q192.579 315.325 193.079 316.02814Q193.579 316.73126 194.29774 316.73126Q195.03212 316.73126 195.5165 316.02814Q196.0165 315.325 196.0165 313.21564Q196.0165 311.09064 195.5165 310.40314Q195.03212 309.7 194.28212 309.7Q193.56337 309.7 193.12587 310.3094Q192.579 311.09064 192.579 313.21564ZM198.50087 313.21564Q198.50087 311.6844 198.81337 310.7625Q199.12587 309.825 199.73524 309.325Q200.36024 308.825 201.29774 308.825Q201.98524 308.825 202.50087 309.10626Q203.03212 309.3875 203.37587 309.91876Q203.71962 310.4344 203.90712 311.1844Q204.09462 311.9344 204.09462 313.21564Q204.09462 314.73126 203.78212 315.65314Q203.48524 316.575 202.86024 317.09064Q202.25087 317.59064 201.29774 317.59064Q200.06337 317.59064 199.34462 316.7Q198.50087 315.6375 198.50087 313.21564ZM199.579 313.21564Q199.579 315.325 200.079 316.02814Q200.579 316.73126 201.29774 316.73126Q202.03212 316.73126 202.5165 316.02814Q203.0165 315.325 203.0165 313.21564Q203.0165 311.09064 202.5165 310.40314Q202.03212 309.7 201.28212 309.7Q200.56337 309.7 200.12587 310.3094Q199.579 311.09064 199.579 313.21564Z" fill-rule="nonzero"/><path fill="#000000" d="M256.82678 317.45L256.82678 315.3875L253.10803 315.3875L253.10803 314.41876L257.0299 308.85626L257.88928 308.85626L257.88928 314.41876L259.04553 314.41876L259.04553 315.3875L257.88928 315.3875L257.88928 317.45L256.82678 317.45ZM256.82678 314.41876L256.82678 310.5594L254.13928 314.41876L256.82678 314.41876ZM261.04553 317.45L261.04553 316.2469L262.24866 316.2469L262.24866 317.45L261.04553 317.45ZM263.45178 313.21564Q263.45178 311.6844 263.76428 310.7625Q264.07678 309.825 264.68616 309.325Q265.31116 308.825 266.24866 308.825Q266.93616 308.825 267.45178 309.10626Q267.98303 309.3875 268.32678 309.91876Q268.67053 310.4344 268.85803 311.1844Q269.04553 311.9344 269.04553 313.21564Q269.04553 314.73126 268.73303 315.65314Q268.43616 316.575 267.81116 317.09064Q267.20178 317.59064 266.24866 317.59064Q265.01428 317.59064 264.29553 316.7Q263.45178 315.6375 263.45178 313.21564ZM264.5299 313.21564Q264.5299 315.325 265.0299 316.02814Q265.5299 316.73126 266.24866 316.73126Q266.98303 316.73126 267.4674 316.02814Q267.9674 315.325 267.9674 313.21564Q267.9674 311.09064 267.4674 310.40314Q266.98303 309.7 266.23303 309.7Q265.51428 309.7 265.07678 310.3094Q264.5299 311.09064 264.5299 313.21564ZM270.45178 313.21564Q270.45178 311.6844 270.76428 310.7625Q271.07678 309.825 271.68616 309.325Q272.31116 308.825 273.24866 308.825Q273.93616 308.825 274.45178 309.10626Q274.98303 309.3875 275.32678 309.91876Q275.67053 310.4344 275.85803 311.1844Q276.04553 311.9344 276.04553 313.21564Q276.04553 314.73126 275.73303 315.65314Q275.43616 316.575 274.81116 317.09064Q274.20178 317.59064 273.24866 317.59064Q272.01428 317.59064 271.29553 316.7Q270.45178 315.6375 270.45178 313.21564ZM271.5299 313.21564Q271.5299 315.325 272.0299 316.02814Q272.5299 316.73126 273.24866 316.73126Q273.98303 316.73126 274.4674 316.02814Q274.9674 315.325 274.9674 313.21564Q274.9674 311.09064 274.4674 310.40314Q273.98303 309.7 273.23303 309.7Q272.51428 309.7 272.07678 310.3094Q271.5299 311.09064 271.5299 313.21564ZM277.9049 317.45L277.9049 308.85626L284.10803 308.85626L284.10803 309.8719L279.04553 309.8719L279.04553 312.4969L283.79553 312.4969L283.79553 313.5125L279.04553 313.5125L279.04553 316.4344L284.31116 316.4344L284.31116 317.45L277.9049 317.45ZM287.95178 316.0594L287.95178 313.7L285.62366 313.7L285.62366 312.71564L287.95178 312.71564L287.95178 310.3875L288.95178 310.3875L288.95178 312.71564L291.29553 312.71564L291.29553 313.7L288.95178 313.7L288.95178 316.0594L287.95178 316.0594ZM292.45178 313.21564Q292.45178 311.6844 292.76428 310.7625Q293.07678 309.825 293.68616 309.325Q294.31116 308.825 295.24866 308.825Q295.93616 308.825 296.45178 309.10626Q296.98303 309.3875 297.32678 309.91876Q297.67053 310.4344 297.85803 311.1844Q298.04553 311.9344 298.04553 313.21564Q298.04553 314.73126 297.73303 315.65314Q297.43616 316.575 296.81116 317.09064Q296.20178 317.59064 295.24866 317.59064Q294.01428 317.59064 293.29553 316.7Q292.45178 315.6375 292.45178 313.21564ZM293.5299 313.21564Q293.5299 315.325 294.0299 316.02814Q294.5299 316.73126 295.24866 316.73126Q295.98303 316.73126 296.4674 316.02814Q296.9674 315.325 296.9674 313.21564Q296.9674 311.09064 296.4674 310.40314Q295.98303 309.7 295.23303 309.7Q294.51428 309.7 294.07678 310.3094Q293.5299 311.09064 293.5299 313.21564ZM299.45178 313.21564Q299.45178 311.6844 299.76428 310.7625Q300.07678 309.825 300.68616 309.325Q301.31116 308.825 302.24866 308.825Q302.93616 308.825 303.45178 309.10626Q303.98303 309.3875 304.32678 309.91876Q304.67053 310.4344 304.85803 311.1844Q305.04553 311.9344 305.04553 313.21564Q305.04553 314.73126 304.73303 315.65314Q304.43616 316.575 303.81116 317.09064Q303.20178 317.59064 302.24866 317.59064Q301.01428 317.59064 300.29553 316.7Q299.45178 315.6375 299.45178 313.21564ZM300.5299 313.21564Q300.5299 315.325 301.0299 316.02814Q301.5299 316.73126 302.24866 316.73126Q302.98303 316.73126 303.4674 316.02814Q303.9674 315.325 303.9674 313.21564Q303.9674 311.09064 303.4674 310.40314Q302.98303 309.7 302.23303 309.7Q301.51428 309.7 301.07678 310.3094Q300.5299 311.09064 300.5299 313.21564Z" fill-rule="nonzero"/><path fill="#000000" d="M359.87146 310.96564L358.8246 311.04376Q358.68396 310.41876 358.43396 310.1375Q357.99646 309.6844 357.37146 309.6844Q356.87146 309.6844 356.48083 309.96564Q355.99646 310.34064 355.6996 311.04376Q355.41833 311.73126 355.4027 313.0125Q355.7777 312.4344 356.3246 312.15314Q356.8871 311.8719 357.49646 311.8719Q358.54333 311.8719 359.2777 312.65314Q360.0277 313.4344 360.0277 314.65314Q360.0277 315.46564 359.66833 316.16876Q359.3246 316.85626 358.7152 317.23126Q358.10583 317.59064 357.3402 317.59064Q356.0121 317.59064 355.18396 316.6219Q354.35583 315.65314 354.35583 313.4344Q354.35583 310.9344 355.2777 309.8094Q356.0746 308.825 357.43396 308.825Q358.4496 308.825 359.0902 309.40314Q359.74646 309.96564 359.87146 310.96564ZM355.5746 314.66876Q355.5746 315.21564 355.79333 315.71564Q356.0277 316.2 356.43396 316.46564Q356.85583 316.73126 357.3246 316.73126Q357.98083 316.73126 358.4652 316.2Q358.9496 315.65314 358.9496 314.73126Q358.9496 313.84064 358.4652 313.325Q357.99646 312.8094 357.2777 312.8094Q356.55896 312.8094 356.05896 313.325Q355.5746 313.84064 355.5746 314.66876ZM361.99646 317.45L361.99646 316.2469L363.1996 316.2469L363.1996 317.45L361.99646 317.45ZM364.4027 313.21564Q364.4027 311.6844 364.7152 310.7625Q365.0277 309.825 365.6371 309.325Q366.2621 308.825 367.1996 308.825Q367.8871 308.825 368.4027 309.10626Q368.93396 309.3875 369.2777 309.91876Q369.62146 310.4344 369.80896 311.1844Q369.99646 311.9344 369.99646 313.21564Q369.99646 314.73126 369.68396 315.65314Q369.3871 316.575 368.7621 317.09064Q368.1527 317.59064 367.1996 317.59064Q365.9652 317.59064 365.24646 316.7Q364.4027 315.6375 364.4027 313.21564ZM365.48083 313.21564Q365.48083 315.325 365.98083 316.02814Q366.48083 316.73126 367.1996 316.73126Q367.93396 316.73126 368.41833 316.02814Q368.91833 315.325 368.91833 313.21564Q368.91833 311.09064 368.41833 310.40314Q367.93396 309.7 367.18396 309.7Q366.4652 309.7 366.0277 310.3094Q365.48083 311.09064 365.48083 313.21564ZM371.4027 313.21564Q371.4027 311.6844 371.7152 310.7625Q372.0277 309.825 372.6371 309.325Q373.2621 308.825 374.1996 308.825Q374.8871 308.825 375.4027 309.10626Q375.93396 309.3875 376.2777 309.91876Q376.62146 310.4344 376.80896 311.1844Q376.99646 311.9344 376.99646 313.21564Q376.99646 314.73126 376.68396 315.65314Q376.3871 316.575 375.7621 317.09064Q375.1527 317.59064 374.1996 317.59064Q372.9652 317.59064 372.24646 316.7Q371.4027 315.6375 371.4027 313.21564ZM372.48083 313.21564Q372.48083 315.325 372.98083 316.02814Q373.48083 316.73126 374.1996 316.73126Q374.93396 316.73126 375.41833 316.02814Q375.91833 315.325 375.91833 313.21564Q375.91833 311.09064 375.41833 310.40314Q374.93396 309.7 374.18396 309.7Q373.4652 309.7 373.0277 310.3094Q372.48083 311.09064 372.48083 313.21564ZM378.85583 317.45L378.85583 308.85626L385.05896 308.85626L385.05896 309.8719L379.99646 309.8719L379.99646 312.4969L384.74646 312.4969L384.74646 313.5125L379.99646 313.5125L379.99646 316.4344L385.2621 316.4344L385.2621 317.45L378.85583 317.45ZM388.9027 316.0594L388.9027 313.7L386.5746 313.7L386.5746 312.71564L388.9027 312.71564L388.9027 310.3875L389.9027 310.3875L389.9027 312.71564L392.24646 312.71564L392.24646 313.7L389.9027 313.7L389.9027 316.0594L388.9027 316.0594ZM393.4027 313.21564Q393.4027 311.6844 393.7152 310.7625Q394.0277 309.825 394.6371 309.325Q395.2621 308.825 396.1996 308.825Q396.8871 308.825 397.4027 309.10626Q397.93396 309.3875 398.2777 309.91876Q398.62146 310.4344 398.80896 311.1844Q398.99646 311.9344 398.99646 313.21564Q398.99646 314.73126 398.68396 315.65314Q398.3871 316.575 397.7621 317.09064Q397.1527 317.59064 396.1996 317.59064Q394.9652 317.59064 394.24646 316.7Q393.4027 315.6375 393.4027 313.21564ZM394.48083 313.21564Q394.48083 315.325 394.98083 316.02814Q395.48083 316.73126 396.1996 316.73126Q396.93396 316.73126 397.41833 316.02814Q397.91833 315.325 397.91833 313.21564Q397.91833 311.09064 397.41833 310.40314Q396.93396 309.7 396.18396 309.7Q395.4652 309.7 395.0277 310.3094Q394.48083 311.09064 394.48083 313.21564ZM400.4027 313.21564Q400.4027 311.6844 400.7152 310.7625Q401.0277 309.825 401.6371 309.325Q402.2621 308.825 403.1996 308.825Q403.8871 308.825 404.4027 309.10626Q404.93396 309.3875 405.2777 309.91876Q405.62146 310.4344 405.80896 311.1844Q405.99646 311.9344 405.99646 313.21564Q405.99646 314.73126 405.68396 315.65314Q405.3871 316.575 404.7621 317.09064Q404.1527 317.59064 403.1996 317.59064Q401.9652 317.59064 401.24646 316.7Q400.4027 315.6375 400.4027 313.21564ZM401.48083 313.21564Q401.48083 315.325 401.98083 316.02814Q402.48083 316.73126 403.1996 316.73126Q403.93396 316.73126 404.41833 316.02814Q404.91833 315.325 404.91833 313.21564Q404.91833 311.09064 404.41833 310.40314Q403.93396 309.7 403.18396 309.7Q402.4652 309.7 402.0277 310.3094Q401.48083 311.09064 401.48083 313.21564Z" fill-rule="nonzero"/><path fill="#000000" d="M456.97864 312.79376Q456.3224 312.54376 455.99426 312.10626Q455.68176 311.65314 455.68176 311.04376Q455.68176 310.10626 456.35364 309.46564Q457.04114 308.825 458.1505 308.825Q459.2755 308.825 459.963 309.48126Q460.6505 310.1375 460.6505 311.075Q460.6505 311.66876 460.338 312.10626Q460.0255 312.54376 459.3849 312.79376Q460.18176 313.04376 460.588 313.6219Q460.99426 314.2 460.99426 314.9969Q460.99426 316.09064 460.213 316.84064Q459.4474 317.59064 458.16614 317.59064Q456.9005 317.59064 456.11926 316.84064Q455.338 316.09064 455.338 314.96564Q455.338 314.1219 455.7599 313.5594Q456.1974 312.9969 456.97864 312.79376ZM456.7599 310.9969Q456.7599 311.60626 457.1505 311.9969Q457.55676 312.3875 458.18176 312.3875Q458.79114 312.3875 459.18176 312.0125Q459.5724 311.6219 459.5724 311.0594Q459.5724 310.48126 459.16614 310.09064Q458.7599 309.6844 458.16614 309.6844Q457.55676 309.6844 457.1505 310.075Q456.7599 310.46564 456.7599 310.9969ZM456.43176 314.96564Q456.43176 315.41876 456.6349 315.84064Q456.85364 316.2625 457.2755 316.4969Q457.6974 316.73126 458.18176 316.73126Q458.93176 316.73126 459.41614 316.2469Q459.91614 315.7625 459.91614 315.0125Q459.91614 314.2469 459.41614 313.7469Q458.91614 313.2469 458.1505 313.2469Q457.4005 313.2469 456.91614 313.7469Q456.43176 314.23126 456.43176 314.96564ZM462.9474 317.45L462.9474 316.2469L464.1505 316.2469L464.1505 317.45L462.9474 317.45ZM465.35364 313.21564Q465.35364 311.6844 465.66614 310.7625Q465.97864 309.825 466.588 309.325Q467.213 308.825 468.1505 308.825Q468.838 308.825 469.35364 309.10626Q469.8849 309.3875 470.22864 309.91876Q470.5724 310.4344 470.7599 311.1844Q470.9474 311.9344 470.9474 313.21564Q470.9474 314.73126 470.6349 315.65314Q470.338 316.575 469.713 317.09064Q469.10364 317.59064 468.1505 317.59064Q466.91614 317.59064 466.1974 316.7Q465.35364 315.6375 465.35364 313.21564ZM466.43176 313.21564Q466.43176 315.325 466.93176 316.02814Q467.43176 316.73126 468.1505 316.73126Q468.8849 316.73126 469.36926 316.02814Q469.86926 315.325 469.86926 313.21564Q469.86926 311.09064 469.36926 310.40314Q468.8849 309.7 468.1349 309.7Q467.41614 309.7 466.97864 310.3094Q466.43176 311.09064 466.43176 313.21564ZM472.35364 313.21564Q472.35364 311.6844 472.66614 310.7625Q472.97864 309.825 473.588 309.325Q474.213 308.825 475.1505 308.825Q475.838 308.825 476.35364 309.10626Q476.8849 309.3875 477.22864 309.91876Q477.5724 310.4344 477.7599 311.1844Q477.9474 311.9344 477.9474 313.21564Q477.9474 314.73126 477.6349 315.65314Q477.338 316.575 476.713 317.09064Q476.10364 317.59064 475.1505 317.59064Q473.91614 317.59064 473.1974 316.7Q472.35364 315.6375 472.35364 313.21564ZM473.43176 313.21564Q473.43176 315.325 473.93176 316.02814Q474.43176 316.73126 475.1505 316.73126Q475.8849 316.73126 476.36926 316.02814Q476.86926 315.325 476.86926 313.21564Q476.86926 311.09064 476.36926 310.40314Q475.8849 309.7 475.1349 309.7Q474.41614 309.7 473.97864 310.3094Q473.43176 311.09064 473.43176 313.21564ZM479.80676 317.45L479.80676 308.85626L486.0099 308.85626L486.0099 309.8719L480.9474 309.8719L480.9474 312.4969L485.6974 312.4969L485.6974 313.5125L480.9474 313.5125L480.9474 316.4344L486.213 316.4344L486.213 317.45L479.80676 317.45ZM489.85364 316.0594L489.85364 313.7L487.5255 313.7L487.5255 312.71564L489.85364 312.71564L489.85364 310.3875L490.85364 310.3875L490.85364 312.71564L493.1974 312.71564L493.1974 313.7L490.85364 313.7L490.85364 316.0594L489.85364 316.0594ZM494.35364 313.21564Q494.35364 311.6844 494.66614 310.7625Q494.97864 309.825 495.588 309.325Q496.213 308.825 497.1505 308.825Q497.838 308.825 498.35364 309.10626Q498.8849 309.3875 499.22864 309.91876Q499.5724 310.4344 499.7599 311.1844Q499.9474 311.9344 499.9474 313.21564Q499.9474 314.73126 499.6349 315.65314Q499.338 316.575 498.713 317.09064Q498.10364 317.59064 497.1505 317.59064Q495.91614 317.59064 495.1974 316.7Q494.35364 315.6375 494.35364 313.21564ZM495.43176 313.21564Q495.43176 315.325 495.93176 316.02814Q496.43176 316.73126 497.1505 316.73126Q497.8849 316.73126 498.36926 316.02814Q498.86926 315.325 498.86926 313.21564Q498.86926 311.09064 498.36926 310.40314Q497.8849 309.7 497.1349 309.7Q496.41614 309.7 495.97864 310.3094Q495.43176 311.09064 495.43176 313.21564ZM501.35364 313.21564Q501.35364 311.6844 501.66614 310.7625Q501.97864 309.825 502.588 309.325Q503.213 308.825 504.1505 308.825Q504.838 308.825 505.35364 309.10626Q505.8849 309.3875 506.22864 309.91876Q506.5724 310.4344 506.7599 311.1844Q506.9474 311.9344 506.9474 313.21564Q506.9474 314.73126 506.6349 315.65314Q506.338 316.575 505.713 317.09064Q505.10364 317.59064 504.1505 317.59064Q502.91614 317.59064 502.1974 316.7Q501.35364 315.6375 501.35364 313.21564ZM502.43176 313.21564Q502.43176 315.325 502.93176 316.02814Q503.43176 316.73126 504.1505 316.73126Q504.8849 316.73126 505.36926 316.02814Q505.86926 315.325 505.86926 313.21564Q505.86926 311.09064 505.36926 310.40314Q504.8849 309.7 504.1349 309.7Q503.41614 309.7 502.97864 310.3094Q502.43176 311.09064 502.43176 313.21564Z" fill-rule="nonzero"/><path fill="#000000" d="M223.21875 32.89375L226.03125 32.6125Q226.29688 34.034374 227.0625 34.70625Q227.84375 35.3625 229.15625 35.3625Q230.5625 35.3625 231.26562 34.76875Q231.96875 34.175 231.96875 33.39375Q231.96875 32.878124 231.67188 32.534374Q231.375 32.175 230.64062 31.909374Q230.125 31.721874 228.32812 31.284374Q226.0 30.70625 225.0625 29.8625Q223.73438 28.675 223.73438 26.9875Q223.73438 25.89375 224.35938 24.940624Q224.98438 23.9875 226.14062 23.4875Q227.3125 22.9875 228.96875 22.9875Q231.65625 22.9875 233.01562 24.175Q234.39062 25.346874 234.45312 27.33125L231.5625 27.45625Q231.375 26.346874 230.76562 25.8625Q230.15625 25.378124 228.9375 25.378124Q227.67188 25.378124 226.96875 25.89375Q226.5 26.2375 226.5 26.784374Q226.5 27.3 226.9375 27.659374Q227.48438 28.1125 229.59375 28.6125Q231.70312 29.1125 232.70312 29.64375Q233.71875 30.175 234.28125 31.096874Q234.85938 32.01875 234.85938 33.378124Q234.85938 34.6125 234.17188 35.690624Q233.5 36.753124 232.25 37.284374Q231.0 37.8 229.125 37.8Q226.42188 37.8 224.95312 36.55Q223.5 35.3 223.21875 32.89375ZM243.375 37.55L240.625 37.55L240.625 27.20625Q239.125 28.6125 237.07812 29.284374L237.07812 26.8Q238.15625 26.440624 239.40625 25.471874Q240.67188 24.4875 241.14062 23.175L243.375 23.175L243.375 37.55ZM256.625 35.003124L256.625 37.55L247.0 37.55Q247.15625 36.096874 247.9375 34.815624Q248.71875 33.51875 251.01562 31.378124Q252.875 29.64375 253.29688 29.034374Q253.85938 28.190624 253.85938 27.346874Q253.85938 26.440624 253.35938 25.95625Q252.875 25.45625 252.01562 25.45625Q251.15625 25.45625 250.64062 25.971874Q250.14062 26.4875 250.0625 27.690624L247.32812 27.409374Q247.5625 25.14375 248.84375 24.159374Q250.14062 23.175 252.07812 23.175Q254.20312 23.175 255.40625 24.315624Q256.625 25.45625 256.625 27.159374Q256.625 28.128124 256.26562 29.003124Q255.92188 29.878124 255.17188 30.83125Q254.67188 31.471874 253.375 32.659374Q252.07812 33.846874 251.73438 34.2375Q251.39062 34.628124 251.17188 35.003124L256.625 35.003124ZM267.78125 37.55L263.60938 27.175L266.48438 27.175L268.4375 32.471874L269.01562 34.2375Q269.23438 33.565624 269.29688 33.346874Q269.42188 32.909374 269.57812 32.471874L271.5625 27.175L274.375 27.175L270.26562 37.55L267.78125 37.55ZM274.96875 34.596874L277.71875 34.175Q277.90625 34.971874 278.4375 35.39375Q278.96875 35.8 279.9375 35.8Q281.0 35.8 281.54688 35.409374Q281.90625 35.14375 281.90625 34.675Q281.90625 34.3625 281.70312 34.159374Q281.5 33.971874 280.79688 33.8Q277.46875 33.065624 276.57812 32.45625Q275.34375 31.628124 275.34375 30.128124Q275.34375 28.784374 276.40625 27.8625Q277.48438 26.940624 279.71875 26.940624Q281.84375 26.940624 282.875 27.64375Q283.92188 28.33125 284.3125 29.690624L281.71875 30.159374Q281.54688 29.565624 281.07812 29.2375Q280.625 28.909374 279.76562 28.909374Q278.6875 28.909374 278.21875 29.221874Q277.90625 29.440624 277.90625 29.76875Q277.90625 30.065624 278.17188 30.26875Q278.54688 30.55 280.73438 31.05Q282.92188 31.55 283.79688 32.26875Q284.65625 33.003124 284.65625 34.3Q284.65625 35.7375 283.46875 36.76875Q282.28125 37.784374 279.9375 37.784374Q277.82812 37.784374 276.57812 36.925Q275.34375 36.065624 274.96875 34.596874ZM298.9375 34.253124L301.67188 34.70625Q301.15625 36.20625 300.01562 37.003124Q298.875 37.784374 297.17188 37.784374Q294.45312 37.784374 293.15625 36.01875Q292.14062 34.596874 292.14062 32.440624Q292.14062 29.8625 293.48438 28.409374Q294.82812 26.940624 296.89062 26.940624Q299.20312 26.940624 300.53125 28.471874Q301.875 30.003124 301.82812 33.159374L294.95312 33.159374Q294.98438 34.378124 295.60938 35.065624Q296.25 35.7375 297.1875 35.7375Q297.84375 35.7375 298.28125 35.39375Q298.71875 35.034374 298.9375 34.253124ZM299.09375 31.471874Q299.0625 30.284374 298.46875 29.675Q297.89062 29.05 297.0625 29.05Q296.15625 29.05 295.57812 29.690624Q294.98438 30.346874 295.0 31.471874L299.09375 31.471874ZM303.85938 27.175L306.42188 27.175L306.42188 28.70625Q306.92188 27.925 307.76562 27.440624Q308.60938 26.940624 309.65625 26.940624Q311.45312 26.940624 312.70312 28.3625Q313.96875 29.76875 313.96875 32.3Q313.96875 34.909374 312.70312 36.346874Q311.4375 37.784374 309.625 37.784374Q308.76562 37.784374 308.0625 37.440624Q307.375 37.096874 306.60938 36.26875L306.60938 41.503124L303.85938 41.503124L303.85938 27.175ZM306.57812 32.190624Q306.57812 33.940624 307.26562 34.784374Q307.95312 35.6125 308.95312 35.6125Q309.90625 35.6125 310.54688 34.846874Q311.1875 34.065624 311.1875 32.33125Q311.1875 30.690624 310.53125 29.909374Q309.875 29.1125 308.90625 29.1125Q307.90625 29.1125 307.23438 29.89375Q306.57812 30.659374 306.57812 32.190624ZM314.96875 34.596874L317.71875 34.175Q317.90625 34.971874 318.4375 35.39375Q318.96875 35.8 319.9375 35.8Q321.0 35.8 321.54688 35.409374Q321.90625 35.14375 321.90625 34.675Q321.90625 34.3625 321.70312 34.159374Q321.5 33.971874 320.79688 33.8Q317.46875 33.065624 316.57812 32.45625Q315.34375 31.628124 315.34375 30.128124Q315.34375 28.784374 316.40625 27.8625Q317.48438 26.940624 319.71875 26.940624Q321.84375 26.940624 322.875 27.64375Q323.92188 28.33125 324.3125 29.690624L321.71875 30.159374Q321.54688 29.565624 321.07812 29.2375Q320.625 28.909374 319.76562 28.909374Q318.6875 28.909374 318.21875 29.221874Q317.90625 29.440624 317.90625 29.76875Q317.90625 30.065624 318.17188 30.26875Q318.54688 30.55 320.73438 31.05Q322.92188 31.55 323.79688 32.26875Q324.65625 33.003124 324.65625 34.3Q324.65625 35.7375 323.46875 36.76875Q322.28125 37.784374 319.9375 37.784374Q317.82812 37.784374 316.57812 36.925Q315.34375 36.065624 314.96875 34.596874ZM335.98438 30.2375L333.28125 30.7375Q333.14062 29.925 332.65625 29.51875Q332.17188 29.096874 331.40625 29.096874Q330.375 29.096874 329.76562 29.815624Q329.15625 30.51875 329.15625 32.175Q329.15625 34.01875 329.76562 34.784374Q330.39062 35.55 331.4375 35.55Q332.21875 35.55 332.71875 35.1125Q333.21875 34.659374 333.42188 33.58125L336.10938 34.034374Q335.70312 35.89375 334.5 36.846874Q333.3125 37.784374 331.3125 37.784374Q329.03125 37.784374 327.67188 36.346874Q326.32812 34.909374 326.32812 32.378124Q326.32812 29.8 327.6875 28.378124Q329.04688 26.940624 331.35938 26.940624Q333.25 26.940624 334.35938 27.76875Q335.48438 28.58125 335.98438 30.2375ZM340.5625 37.55L337.8125 37.55L337.8125 27.175L340.375 27.175L340.375 28.659374Q341.01562 27.6125 341.53125 27.284374Q342.0625 26.940624 342.73438 26.940624Q343.67188 26.940624 344.53125 27.45625L343.6875 29.846874Q343.0 29.409374 342.40625 29.409374Q341.82812 29.409374 341.42188 29.721874Q341.01562 30.034374 340.78125 30.878124Q340.5625 31.70625 340.5625 34.346874L340.5625 37.55ZM344.3125 41.503124L344.3125 39.721874L355.71875 39.721874L355.71875 41.503124L344.3125 41.503124ZM363.375 37.55L360.625 37.55L360.625 27.20625Q359.125 28.6125 357.07812 29.284374L357.07812 26.8Q358.15625 26.440624 359.40625 25.471874Q360.67188 24.4875 361.14062 23.175L363.375 23.175L363.375 37.55ZM376.625 35.003124L376.625 37.55L367.0 37.55Q367.15625 36.096874 367.9375 34.815624Q368.71875 33.51875 371.01562 31.378124Q372.875 29.64375 373.29688 29.034374Q373.85938 28.190624 373.85938 27.346874Q373.85938 26.440624 373.35938 25.95625Q372.875 25.45625 372.01562 25.45625Q371.15625 25.45625 370.64062 25.971874Q370.14062 26.4875 370.0625 27.690624L367.32812 27.409374Q367.5625 25.14375 368.84375 24.159374Q370.14062 23.175 372.07812 23.175Q374.20312 23.175 375.40625 24.315624Q376.625 25.45625 376.625 27.159374Q376.625 28.128124 376.26562 29.003124Q375.92188 29.878124 375.17188 30.83125Q374.67188 31.471874 373.375 32.659374Q372.07812 33.846874 371.73438 34.2375Q371.39062 34.628124 371.17188 35.003124L376.625 35.003124Z" fill-rule="nonzero"/></svg>