<svg version="1.1" viewBox="0.0 0.0 600.0 371.0" fill="none" stroke="none" stroke-linecap="square" stroke-miterlimit="10" width="600" height="371" xmlns:xlink="http://www.w3.org/1999/xlink" xmlns="http://www.w3.org/2000/svg"><path fill="#ffffff" d="M0 0L600.0 0L600.0 371.0L0 371.0L0 0Z" fill-rule="nonzero"/><path stroke="#333333" stroke-width="1.0" stroke-linecap="butt" d="M77.5 88.5L77.5 300.5" fill-rule="nonzero"/><path stroke="#cccccc" stroke-width="1.0" stroke-linecap="butt" d="M203.5 88.5L203.5 300.5" fill-rule="nonzero"/><path stroke="#cccccc" stroke-width="1.0" stroke-linecap="butt" d="M329.5 88.5L329.5 300.5" fill-rule="nonzero"/><path stroke="#cccccc" stroke-width="1.0" stroke-linecap="butt" d="M455.5 88.5L455.5 300.5" fill-rule="nonzero"/><path stroke="#cccccc" stroke-width="1.0" stroke-linecap="butt" d="M581.5 88.5L581.5 300.5" fill-rule="nonzero"/><path stroke="#333333" stroke-width="1.0" stroke-linecap="butt" d="M77.5 300.5L581.5 300.5" fill-rule="nonzero"/><path stroke="#cccccc" stroke-width="1.0" stroke-linecap="butt" d="M77.5 247.5L581.5 247.5" fill-rule="nonzero"/><path stroke="#cccccc" stroke-width="1.0" stroke-linecap="butt" d="M77.5 194.5L581.5 194.5" fill-rule="nonzero"/><path stroke="#cccccc" stroke-width="1.0" stroke-linecap="butt" d="M77.5 141.5L581.5 141.5" fill-rule="nonzero"/><path stroke="#cccccc" stroke-width="1.0" stroke-linecap="butt" d="M77.5 88.5L581.5 88.5" fill-rule="nonzero"/><clipPath id="id_0"><path d="M77.55 88.28333L581.45 88.28333L581.45 300.45L77.55 300.45L77.55 88.28333Z" clip-rule="nonzero"/></clipPath><path fill="#4285f4" fill-opacity="0.3019608" clip-path="url(#id_0)" d="M77.55 300.45L78.0539 299.28308L78.5578 298.11618L79.31365 296.36578L80.447426 293.74023L82.14809 289.80188L84.69908 283.89438L88.5256 275.0331L93.564545 263.36407L98.6036 251.6949L103.64255 240.026L108.68155 228.35709L113.72054 216.68819L118.7596 205.01929L123.7986 193.35065L128.83745 181.68202L133.87645 170.01364L138.91545 158.34528L143.95445 146.67717L148.99344 135.00932L154.03244 123.34149L159.07144 111.673645L164.11044 100.00634L169.14944 88.339294L174.18845 119.38962L179.22745 150.43994L184.26645 181.49026L189.30545 212.54033L194.34445 243.5904L199.38345 274.64032L204.42244 300.44788L209.46144 300.44778L214.50044 300.44778L219.53944 300.4478L224.57845 300.4478L229.61745 300.4478L234.65645 300.4478L239.69545 300.4478L244.73445 300.4478L249.77345 300.4478L254.81244 300.4478L259.85144 300.4478L264.89044 300.4478L269.92944 300.4478L274.96844 300.4478L280.00745 300.4478L285.04645 300.4478L290.08545 300.4478L295.12445 300.4478L300.16345 300.4478L305.20245 300.44785L310.24146 300.44785L315.28046 300.44785L320.31946 300.44785L325.35846 300.44785L330.39746 300.44785L335.43643 300.44785L340.47543 300.44785L345.51443 300.44785L350.55344 300.44785L355.59244 300.44785L360.63144 300.44785L365.67044 300.44785L370.70944 300.44785L375.74844 300.44785L380.78745 300.44785L385.82645 300.44785L390.86545 300.44785L395.90445 300.44785L400.94345 300.44785L405.98245 300.44785L411.02145 300.44785L416.06046 300.44785L421.09946 300.44785L426.13846 300.44785L431.17746 300.44785L436.21643 300.44785L441.25543 300.44785L446.29443 300.44785L451.33344 300.44785L456.37244 300.44785L461.41144 300.44785L466.45044 300.44785L471.48944 300.44785L476.52844 300.44785L481.56744 300.44785L486.60645 300.44785L491.64545 300.44785L496.68445 300.44785L501.72345 300.44785L506.76245 300.44785L511.80145 300.44785L516.84045 300.44785L521.87946 300.44785L526.91846 300.44785L531.95746 300.44785L536.99646 300.44785L542.03546 300.44785L547.07446 300.44785L552.11346 300.44785L557.15247 300.44785L562.19147 300.44785L567.23047 300.44785L572.2695 300.44785L577.3085 300.44785L581.45 300.44788L581.45 300.45L577.3085 300.45L572.2695 300.45L567.23047 300.45L562.19147 300.45L557.15247 300.45L552.11346 300.45L547.07446 300.45L542.03546 300.45L536.99646 300.45L531.95746 300.45L526.91846 300.45L521.87946 300.45L516.84045 300.45L511.80145 300.45L506.76245 300.45L501.72345 300.45L496.68445 300.45L491.64545 300.45L486.60645 300.45L481.56744 300.45L476.52844 300.45L471.48944 300.45L466.45044 300.45L461.41144 300.45L456.37244 300.45L451.33344 300.45L446.29443 300.45L441.25543 300.45L436.21643 300.45L431.17746 300.45L426.13846 300.45L421.09946 300.45L416.06046 300.45L411.02145 300.45L405.98245 300.45L400.94345 300.45L395.90445 300.45L390.86545 300.45L385.82645 300.45L380.78745 300.45L375.74844 300.45L370.70944 300.45L365.67044 300.45L360.63144 300.45L355.59244 300.45L350.55344 300.45L345.51443 300.45L340.47543 300.45L335.43643 300.45L330.39746 300.45L325.35846 300.45L320.31946 300.45L315.28046 300.45L310.24146 300.45L305.20245 300.45L300.16345 300.45L295.12445 300.45L290.08545 300.45L285.04645 300.45L280.00745 300.45L274.96844 300.45L269.92944 300.45L264.89044 300.45L259.85144 300.45L254.81244 300.45L249.77345 300.45L244.73445 300.45L239.69545 300.45L234.65645 300.45L229.61745 300.45L224.57845 300.45L219.53944 300.45L214.50044 300.45L209.46144 300.45L204.42244 300.45L199.38345 300.45L194.34445 300.45L189.30545 300.45L184.26645 300.45L179.22745 300.45L174.18845 300.45L169.14944 300.45L164.11044 300.45L159.07144 300.45L154.03244 300.45L148.99344 300.45L143.95445 300.45L138.91545 300.45L133.87645 300.45L128.83745 300.45L123.7986 300.45L118.7596 300.45L113.72054 300.45L108.68155 300.45L103.64255 300.45L98.6036 300.45L93.564545 300.45L88.5256 300.45L84.69908 300.45L82.14809 300.45L80.447426 300.45L79.31365 300.45L78.5578 300.45L78.0539 300.45L77.55 300.45Z" fill-rule="nonzero"/><path fill="#ea4335" fill-opacity="0.3019608" clip-path="url(#id_0)" d="M77.55 300.45L78.0539 299.28308L78.5578 298.11618L79.31365 296.36578L80.447426 293.74023L82.14809 289.80188L84.69908 283.89438L88.5256 275.0331L93.564545 263.36407L98.6036 251.6949L103.64255 240.026L108.68155 228.35709L113.72054 216.68819L118.7596 205.01929L123.7986 193.35065L128.83745 181.68202L133.87645 170.01364L138.91545 158.34528L143.95445 146.67717L148.99344 135.00932L154.03244 123.34149L159.07144 111.673645L164.11044 100.00634L169.14944 88.339294L169.14944 300.45L164.11044 300.45L159.07144 300.45L154.03244 300.45L148.99344 300.45L143.95445 300.45L138.91545 300.45L133.87645 300.45L128.83745 300.45L123.7986 300.45L118.7596 300.45L113.72054 300.45L108.68155 300.45L103.64255 300.45L98.6036 300.45L93.564545 300.45L88.5256 300.45L84.69908 300.45L82.14809 300.45L80.447426 300.45L79.31365 300.45L78.5578 300.45L78.0539 300.45L77.55 300.45Z" fill-rule="nonzero"/><path stroke="#4285f4" stroke-width="2.0" stroke-linecap="butt" clip-path="url(#id_0)" d="M77.55 300.45L78.0539 299.28308L78.5578 298.11618L79.31365 296.36578L80.447426 293.74023L82.14809 289.80188L84.69908 283.89438L88.5256 275.0331L93.564545 263.36407L98.6036 251.6949L103.64255 240.026L108.68155 228.35709L113.72054 216.68819L118.7596 205.01929L123.7986 193.35065L128.83745 181.68202L133.87645 170.01364L138.91545 158.34528L143.95445 146.67717L148.99344 135.00932L154.03244 123.34149L159.07144 111.673645L164.11044 100.00634L169.14944 88.339294L174.18845 119.38962L179.22745 150.43994L184.26645 181.49026L189.30545 212.54033L194.34445 243.5904L199.38345 274.64032L204.42244 300.44788L209.46144 300.44778L214.50044 300.44778L219.53944 300.4478L224.57845 300.4478L229.61745 300.4478L234.65645 300.4478L239.69545 300.4478L244.73445 300.4478L249.77345 300.4478L254.81244 300.4478L259.85144 300.4478L264.89044 300.4478L269.92944 300.4478L274.96844 300.4478L280.00745 300.4478L285.04645 300.4478L290.08545 300.4478L295.12445 300.4478L300.16345 300.4478L305.20245 300.44785L310.24146 300.44785L315.28046 300.44785L320.31946 300.44785L325.35846 300.44785L330.39746 300.44785L335.43643 300.44785L340.47543 300.44785L345.51443 300.44785L350.55344 300.44785L355.59244 300.44785L360.63144 300.44785L365.67044 300.44785L370.70944 300.44785L375.74844 300.44785L380.78745 300.44785L385.82645 300.44785L390.86545 300.44785L395.90445 300.44785L400.94345 300.44785L405.98245 300.44785L411.02145 300.44785L416.06046 300.44785L421.09946 300.44785L426.13846 300.44785L431.17746 300.44785L436.21643 300.44785L441.25543 300.44785L446.29443 300.44785L451.33344 300.44785L456.37244 300.44785L461.41144 300.44785L466.45044 300.44785L471.48944 300.44785L476.52844 300.44785L481.56744 300.44785L486.60645 300.44785L491.64545 300.44785L496.68445 300.44785L501.72345 300.44785L506.76245 300.44785L511.80145 300.44785L516.84045 300.44785L521.87946 300.44785L526.91846 300.44785L531.95746 300.44785L536.99646 300.44785L542.03546 300.44785L547.07446 300.44785L552.11346 300.44785L557.15247 300.44785L562.19147 300.44785L567.23047 300.44785L572.2695 300.44785L577.3085 300.44785L581.45 300.44788" fill-rule="nonzero"/><path stroke="#ea4335" stroke-width="2.0" stroke-linecap="butt" clip-path="url(#id_0)" d="M77.55 300.45L78.0539 299.28308L78.5578 298.11618L79.31365 296.36578L80.447426 293.74023L82.14809 289.80188L84.69908 283.89438L88.5256 275.0331L93.564545 263.36407L98.6036 251.6949L103.64255 240.026L108.68155 228.35709L113.72054 216.68819L118.7596 205.01929L123.7986 193.35065L128.83745 181.68202L133.87645 170.01364L138.91545 158.34528L143.95445 146.67717L148.99344 135.00932L154.03244 123.34149L159.07144 111.673645L164.11044 100.00634L169.14944 88.339294" fill-rule="nonzero"/><path fill="#000000" fill-opacity="0.0" clip-path="url(#id_0)" d="M80.55 300.45C80.55 302.10684 79.206856 303.45 77.55 303.45C75.89314 303.45 74.55 302.10684 74.55 300.45C74.55 298.79315 75.89314 297.45 77.55 297.45C79.206856 297.45 80.55 298.79315 80.55 300.45Z" fill-rule="nonzero"/><path fill="#000000" fill-opacity="0.0" clip-path="url(#id_0)" d="M81.0539 299.28308C81.0539 300.93994 79.710754 302.28308 78.0539 302.28308C76.39705 302.28308 75.0539 300.93994 75.0539 299.28308C75.0539 297.62622 76.39705 296.28308 78.0539 296.28308C79.710754 296.28308 81.0539 297.62622 81.0539 299.28308Z" fill-rule="nonzero"/><path fill="#000000" fill-opacity="0.0" clip-path="url(#id_0)" d="M81.5578 298.11618C81.5578 299.773 80.21465 301.11618 78.5578 301.11618C76.90095 301.11618 75.5578 299.773 75.5578 298.11618C75.5578 296.45932 76.90095 295.11618 78.5578 295.11618C80.21465 295.11618 81.5578 296.45932 81.5578 298.11618Z" fill-rule="nonzero"/><path fill="#000000" fill-opacity="0.0" clip-path="url(#id_0)" d="M82.31365 296.36578C82.31365 298.02264 80.970505 299.36578 79.31365 299.36578C77.6568 299.36578 76.31365 298.02264 76.31365 296.36578C76.31365 294.70892 77.6568 293.36578 79.31365 293.36578C80.970505 293.36578 82.31365 294.70892 82.31365 296.36578Z" fill-rule="nonzero"/><path fill="#000000" fill-opacity="0.0" clip-path="url(#id_0)" d="M83.447426 293.74023C83.447426 295.3971 82.10428 296.74023 80.447426 296.74023C78.79057 296.74023 77.447426 295.3971 77.447426 293.74023C77.447426 292.08337 78.79057 290.74023 80.447426 290.74023C82.10428 290.74023 83.447426 292.08337 83.447426 293.74023Z" fill-rule="nonzero"/><path fill="#000000" fill-opacity="0.0" clip-path="url(#id_0)" d="M85.14809 289.80188C85.14809 291.45874 83.80494 292.80188 82.14809 292.80188C80.491234 292.80188 79.14809 291.45874 79.14809 289.80188C79.14809 288.14502 80.491234 286.80188 82.14809 286.80188C83.80494 286.80188 85.14809 288.14502 85.14809 289.80188Z" fill-rule="nonzero"/><path fill="#000000" fill-opacity="0.0" clip-path="url(#id_0)" d="M87.69908 283.89438C87.69908 285.55124 86.355934 286.89438 84.69908 286.89438C83.04223 286.89438 81.69908 285.55124 81.69908 283.89438C81.69908 282.23752 83.04223 280.89438 84.69908 280.89438C86.355934 280.89438 87.69908 282.23752 87.69908 283.89438Z" fill-rule="nonzero"/><path fill="#000000" fill-opacity="0.0" clip-path="url(#id_0)" d="M91.5256 275.0331C91.5256 276.68997 90.18245 278.0331 88.5256 278.0331C86.868744 278.0331 85.5256 276.68997 85.5256 275.0331C85.5256 273.37628 86.868744 272.0331 88.5256 272.0331C90.18245 272.0331 91.5256 273.37628 91.5256 275.0331Z" fill-rule="nonzero"/><path fill="#000000" fill-opacity="0.0" clip-path="url(#id_0)" d="M96.564545 263.36407C96.564545 265.0209 95.2214 266.36407 93.564545 266.36407C91.90769 266.36407 90.564545 265.0209 90.564545 263.36407C90.564545 261.7072 91.90769 260.36407 93.564545 260.36407C95.2214 260.36407 96.564545 261.7072 96.564545 263.36407Z" fill-rule="nonzero"/><path fill="#000000" fill-opacity="0.0" clip-path="url(#id_0)" d="M101.6036 251.6949C101.6036 253.35175 100.26045 254.6949 98.6036 254.6949C96.94674 254.6949 95.6036 253.35175 95.6036 251.6949C95.6036 250.03804 96.94674 248.6949 98.6036 248.6949C100.26045 248.6949 101.6036 250.03804 101.6036 251.6949Z" fill-rule="nonzero"/><path fill="#000000" fill-opacity="0.0" clip-path="url(#id_0)" d="M106.64255 240.026C106.64255 241.68285 105.2994 243.026 103.64255 243.026C101.985695 243.026 100.64255 241.68285 100.64255 240.026C100.64255 238.36914 101.985695 237.026 103.64255 237.026C105.2994 237.026 106.64255 238.36914 106.64255 240.026Z" fill-rule="nonzero"/><path fill="#000000" fill-opacity="0.0" clip-path="url(#id_0)" d="M111.68155 228.35709C111.68155 230.01395 110.3384 231.35709 108.68155 231.35709C107.02469 231.35709 105.68155 230.01395 105.68155 228.35709C105.68155 226.70024 107.02469 225.35709 108.68155 225.35709C110.3384 225.35709 111.68155 226.70024 111.68155 228.35709Z" fill-rule="nonzero"/><path fill="#000000" fill-opacity="0.0" clip-path="url(#id_0)" d="M116.72054 216.68819C116.72054 218.34505 115.3774 219.68819 113.72054 219.68819C112.06369 219.68819 110.72054 218.34505 110.72054 216.68819C110.72054 215.03134 112.06369 213.68819 113.72054 213.68819C115.3774 213.68819 116.72054 215.03134 116.72054 216.68819Z" fill-rule="nonzero"/><path fill="#000000" fill-opacity="0.0" clip-path="url(#id_0)" d="M121.7596 205.01929C121.7596 206.67615 120.41645 208.01929 118.7596 208.01929C117.102745 208.01929 115.7596 206.67615 115.7596 205.01929C115.7596 203.36244 117.102745 202.01929 118.7596 202.01929C120.41645 202.01929 121.7596 203.36244 121.7596 205.01929Z" fill-rule="nonzero"/><path fill="#000000" fill-opacity="0.0" clip-path="url(#id_0)" d="M126.7986 193.35065C126.7986 195.0075 125.45545 196.35065 123.7986 196.35065C122.14175 196.35065 120.7986 195.0075 120.7986 193.35065C120.7986 191.6938 122.14175 190.35065 123.7986 190.35065C125.45545 190.35065 126.7986 191.6938 126.7986 193.35065Z" fill-rule="nonzero"/><path fill="#000000" fill-opacity="0.0" clip-path="url(#id_0)" d="M131.83745 181.68202C131.83745 183.33887 130.4943 184.68202 128.83745 184.68202C127.180595 184.68202 125.83745 183.33887 125.83745 181.68202C125.83745 180.02516 127.180595 178.68202 128.83745 178.68202C130.4943 178.68202 131.83745 180.02516 131.83745 181.68202Z" fill-rule="nonzero"/><path fill="#000000" fill-opacity="0.0" clip-path="url(#id_0)" d="M136.87645 170.01364C136.87645 171.6705 135.5333 173.01364 133.87645 173.01364C132.21959 173.01364 130.87645 171.6705 130.87645 170.01364C130.87645 168.3568 132.21959 167.01364 133.87645 167.01364C135.5333 167.01364 136.87645 168.3568 136.87645 170.01364Z" fill-rule="nonzero"/><path fill="#000000" fill-opacity="0.0" clip-path="url(#id_0)" d="M141.91545 158.34528C141.91545 160.00214 140.5723 161.34528 138.91545 161.34528C137.25859 161.34528 135.91545 160.00214 135.91545 158.34528C135.91545 156.68842 137.25859 155.34528 138.91545 155.34528C140.5723 155.34528 141.91545 156.68842 141.91545 158.34528Z" fill-rule="nonzero"/><path fill="#000000" fill-opacity="0.0" clip-path="url(#id_0)" d="M146.95445 146.67717C146.95445 148.33403 145.6113 149.67717 143.95445 149.67717C142.29759 149.67717 140.95445 148.33403 140.95445 146.67717C140.95445 145.02031 142.29759 143.67717 143.95445 143.67717C145.6113 143.67717 146.95445 145.02031 146.95445 146.67717Z" fill-rule="nonzero"/><path fill="#000000" fill-opacity="0.0" clip-path="url(#id_0)" d="M151.99344 135.00932C151.99344 136.66618 150.6503 138.00932 148.99344 138.00932C147.3366 138.00932 145.99344 136.66618 145.99344 135.00932C145.99344 133.35248 147.3366 132.00932 148.99344 132.00932C150.6503 132.00932 151.99344 133.35248 151.99344 135.00932Z" fill-rule="nonzero"/><path fill="#000000" fill-opacity="0.0" clip-path="url(#id_0)" d="M157.03244 123.34149C157.03244 124.998344 155.6893 126.34149 154.03244 126.34149C152.3756 126.34149 151.03244 124.998344 151.03244 123.34149C151.03244 121.68463 152.3756 120.34149 154.03244 120.34149C155.6893 120.34149 157.03244 121.68463 157.03244 123.34149Z" fill-rule="nonzero"/><path fill="#000000" fill-opacity="0.0" clip-path="url(#id_0)" d="M162.07144 111.673645C162.07144 113.330505 160.7283 114.673645 159.07144 114.673645C157.4146 114.673645 156.07144 113.330505 156.07144 111.673645C156.07144 110.01679 157.4146 108.673645 159.07144 108.673645C160.7283 108.673645 162.07144 110.01679 162.07144 111.673645Z" fill-rule="nonzero"/><path fill="#000000" fill-opacity="0.0" clip-path="url(#id_0)" d="M167.11044 100.00634C167.11044 101.66319 165.7673 103.00634 164.11044 103.00634C162.4536 103.00634 161.11044 101.66319 161.11044 100.00634C161.11044 98.34948 162.4536 97.00634 164.11044 97.00634C165.7673 97.00634 167.11044 98.34948 167.11044 100.00634Z" fill-rule="nonzero"/><path fill="#000000" fill-opacity="0.0" clip-path="url(#id_0)" d="M172.14944 88.339294C172.14944 89.99615 170.8063 91.339294 169.14944 91.339294C167.49258 91.339294 166.14944 89.99615 166.14944 88.339294C166.14944 86.68244 167.49258 85.339294 169.14944 85.339294C170.8063 85.339294 172.14944 86.68244 172.14944 88.339294Z" fill-rule="nonzero"/><path fill="#000000" fill-opacity="0.0" clip-path="url(#id_0)" d="M177.18845 119.38962C177.18845 121.04647 175.8453 122.38962 174.18845 122.38962C172.53159 122.38962 171.18845 121.04647 171.18845 119.38962C171.18845 117.732765 172.53159 116.38962 174.18845 116.38962C175.8453 116.38962 177.18845 117.732765 177.18845 119.38962Z" fill-rule="nonzero"/><path fill="#000000" fill-opacity="0.0" clip-path="url(#id_0)" d="M182.22745 150.43994C182.22745 152.0968 180.8843 153.43994 179.22745 153.43994C177.57059 153.43994 176.22745 152.0968 176.22745 150.43994C176.22745 148.7831 177.57059 147.43994 179.22745 147.43994C180.8843 147.43994 182.22745 148.7831 182.22745 150.43994Z" fill-rule="nonzero"/><path fill="#000000" fill-opacity="0.0" clip-path="url(#id_0)" d="M187.26645 181.49026C187.26645 183.14713 185.9233 184.49026 184.26645 184.49026C182.60959 184.49026 181.26645 183.14713 181.26645 181.49026C181.26645 179.83342 182.60959 178.49026 184.26645 178.49026C185.9233 178.49026 187.26645 179.83342 187.26645 181.49026Z" fill-rule="nonzero"/><path fill="#000000" fill-opacity="0.0" clip-path="url(#id_0)" d="M192.30545 212.54033C192.30545 214.19719 190.9623 215.54033 189.30545 215.54033C187.64859 215.54033 186.30545 214.19719 186.30545 212.54033C186.30545 210.88348 187.64859 209.54033 189.30545 209.54033C190.9623 209.54033 192.30545 210.88348 192.30545 212.54033Z" fill-rule="nonzero"/><path fill="#000000" fill-opacity="0.0" clip-path="url(#id_0)" d="M197.34445 243.5904C197.34445 245.24725 196.0013 246.5904 194.34445 246.5904C192.68759 246.5904 191.34445 245.24725 191.34445 243.5904C191.34445 241.93353 192.68759 240.5904 194.34445 240.5904C196.0013 240.5904 197.34445 241.93353 197.34445 243.5904Z" fill-rule="nonzero"/><path fill="#000000" fill-opacity="0.0" clip-path="url(#id_0)" d="M202.38345 274.64032C202.38345 276.29718 201.0403 277.64032 199.38345 277.64032C197.7266 277.64032 196.38345 276.29718 196.38345 274.64032C196.38345 272.98346 197.7266 271.64032 199.38345 271.64032C201.0403 271.64032 202.38345 272.98346 202.38345 274.64032Z" fill-rule="nonzero"/><path fill="#000000" fill-opacity="0.0" clip-path="url(#id_0)" d="M207.42244 300.44788C207.42244 302.10474 206.0793 303.44788 204.42244 303.44788C202.7656 303.44788 201.42244 302.10474 201.42244 300.44788C201.42244 298.79102 202.7656 297.44788 204.42244 297.44788C206.0793 297.44788 207.42244 298.79102 207.42244 300.44788Z" fill-rule="nonzero"/><path fill="#000000" fill-opacity="0.0" clip-path="url(#id_0)" d="M212.46144 300.44778C212.46144 302.10464 211.1183 303.44778 209.46144 303.44778C207.8046 303.44778 206.46144 302.10464 206.46144 300.44778C206.46144 298.79095 207.8046 297.44778 209.46144 297.44778C211.1183 297.44778 212.46144 298.79095 212.46144 300.44778Z" fill-rule="nonzero"/><path fill="#000000" fill-opacity="0.0" clip-path="url(#id_0)" d="M217.50044 300.44778C217.50044 302.10464 216.1573 303.44778 214.50044 303.44778C212.8436 303.44778 211.50044 302.10464 211.50044 300.44778C211.50044 298.79095 212.8436 297.44778 214.50044 297.44778C216.1573 297.44778 217.50044 298.79095 217.50044 300.44778Z" fill-rule="nonzero"/><path fill="#000000" fill-opacity="0.0" clip-path="url(#id_0)" d="M222.53944 300.4478C222.53944 302.10464 221.1963 303.4478 219.53944 303.4478C217.8826 303.4478 216.53944 302.10464 216.53944 300.4478C216.53944 298.79095 217.8826 297.4478 219.53944 297.4478C221.1963 297.4478 222.53944 298.79095 222.53944 300.4478Z" fill-rule="nonzero"/><path fill="#000000" fill-opacity="0.0" clip-path="url(#id_0)" d="M227.57845 300.4478C227.57845 302.10464 226.2353 303.4478 224.57845 303.4478C222.92159 303.4478 221.57845 302.10464 221.57845 300.4478C221.57845 298.79095 222.92159 297.4478 224.57845 297.4478C226.2353 297.4478 227.57845 298.79095 227.57845 300.4478Z" fill-rule="nonzero"/><path fill="#000000" fill-opacity="0.0" clip-path="url(#id_0)" d="M232.61745 300.4478C232.61745 302.10468 231.2743 303.4478 229.61745 303.4478C227.96059 303.4478 226.61745 302.10468 226.61745 300.4478C226.61745 298.79095 227.96059 297.4478 229.61745 297.4478C231.2743 297.4478 232.61745 298.79095 232.61745 300.4478Z" fill-rule="nonzero"/><path fill="#000000" fill-opacity="0.0" clip-path="url(#id_0)" d="M237.65645 300.4478C237.65645 302.10468 236.3133 303.4478 234.65645 303.4478C232.99959 303.4478 231.65645 302.10468 231.65645 300.4478C231.65645 298.79095 232.99959 297.4478 234.65645 297.4478C236.3133 297.4478 237.65645 298.79095 237.65645 300.4478Z" fill-rule="nonzero"/><path fill="#000000" fill-opacity="0.0" clip-path="url(#id_0)" d="M242.69545 300.4478C242.69545 302.10468 241.3523 303.4478 239.69545 303.4478C238.03859 303.4478 236.69545 302.10468 236.69545 300.4478C236.69545 298.79095 238.03859 297.4478 239.69545 297.4478C241.3523 297.4478 242.69545 298.79095 242.69545 300.4478Z" fill-rule="nonzero"/><path fill="#000000" fill-opacity="0.0" clip-path="url(#id_0)" d="M247.73445 300.4478C247.73445 302.10468 246.3913 303.4478 244.73445 303.4478C243.07759 303.4478 241.73445 302.10468 241.73445 300.4478C241.73445 298.79095 243.07759 297.4478 244.73445 297.4478C246.3913 297.4478 247.73445 298.79095 247.73445 300.4478Z" fill-rule="nonzero"/><path fill="#000000" fill-opacity="0.0" clip-path="url(#id_0)" d="M252.77345 300.4478C252.77345 302.10468 251.4303 303.4478 249.77345 303.4478C248.1166 303.4478 246.77345 302.10468 246.77345 300.4478C246.77345 298.79095 248.1166 297.4478 249.77345 297.4478C251.4303 297.4478 252.77345 298.79095 252.77345 300.4478Z" fill-rule="nonzero"/><path fill="#000000" fill-opacity="0.0" clip-path="url(#id_0)" d="M257.81244 300.4478C257.81244 302.10468 256.4693 303.4478 254.81244 303.4478C253.1556 303.4478 251.81244 302.10468 251.81244 300.4478C251.81244 298.79095 253.1556 297.4478 254.81244 297.4478C256.4693 297.4478 257.81244 298.79095 257.81244 300.4478Z" fill-rule="nonzero"/><path fill="#000000" fill-opacity="0.0" clip-path="url(#id_0)" d="M262.85144 300.4478C262.85144 302.10468 261.5083 303.4478 259.85144 303.4478C258.19458 303.4478 256.85144 302.10468 256.85144 300.4478C256.85144 298.79095 258.19458 297.4478 259.85144 297.4478C261.5083 297.4478 262.85144 298.79095 262.85144 300.4478Z" fill-rule="nonzero"/><path fill="#000000" fill-opacity="0.0" clip-path="url(#id_0)" d="M267.89044 300.4478C267.89044 302.10468 266.5473 303.4478 264.89044 303.4478C263.23358 303.4478 261.89044 302.10468 261.89044 300.4478C261.89044 298.79095 263.23358 297.4478 264.89044 297.4478C266.5473 297.4478 267.89044 298.79095 267.89044 300.4478Z" fill-rule="nonzero"/><path fill="#000000" fill-opacity="0.0" clip-path="url(#id_0)" d="M272.92944 300.4478C272.92944 302.10468 271.5863 303.4478 269.92944 303.4478C268.27258 303.4478 266.92944 302.10468 266.92944 300.4478C266.92944 298.79095 268.27258 297.4478 269.92944 297.4478C271.5863 297.4478 272.92944 298.79095 272.92944 300.4478Z" fill-rule="nonzero"/><path fill="#000000" fill-opacity="0.0" clip-path="url(#id_0)" d="M277.96844 300.4478C277.96844 302.10468 276.6253 303.4478 274.96844 303.4478C273.31158 303.4478 271.96844 302.10468 271.96844 300.4478C271.96844 298.79095 273.31158 297.4478 274.96844 297.4478C276.6253 297.4478 277.96844 298.79095 277.96844 300.4478Z" fill-rule="nonzero"/><path fill="#000000" fill-opacity="0.0" clip-path="url(#id_0)" d="M283.00745 300.4478C283.00745 302.10468 281.6643 303.4478 280.00745 303.4478C278.3506 303.4478 277.00745 302.10468 277.00745 300.4478C277.00745 298.791 278.3506 297.4478 280.00745 297.4478C281.6643 297.4478 283.00745 298.791 283.00745 300.4478Z" fill-rule="nonzero"/><path fill="#000000" fill-opacity="0.0" clip-path="url(#id_0)" d="M288.04645 300.4478C288.04645 302.10468 286.7033 303.4478 285.04645 303.4478C283.3896 303.4478 282.04645 302.10468 282.04645 300.4478C282.04645 298.791 283.3896 297.4478 285.04645 297.4478C286.7033 297.4478 288.04645 298.791 288.04645 300.4478Z" fill-rule="nonzero"/><path fill="#000000" fill-opacity="0.0" clip-path="url(#id_0)" d="M293.08545 300.4478C293.08545 302.10468 291.7423 303.4478 290.08545 303.4478C288.4286 303.4478 287.08545 302.10468 287.08545 300.4478C287.08545 298.791 288.4286 297.4478 290.08545 297.4478C291.7423 297.4478 293.08545 298.791 293.08545 300.4478Z" fill-rule="nonzero"/><path fill="#000000" fill-opacity="0.0" clip-path="url(#id_0)" d="M298.12445 300.4478C298.12445 302.10468 296.7813 303.4478 295.12445 303.4478C293.4676 303.4478 292.12445 302.10468 292.12445 300.4478C292.12445 298.791 293.4676 297.4478 295.12445 297.4478C296.7813 297.4478 298.12445 298.791 298.12445 300.4478Z" fill-rule="nonzero"/><path fill="#000000" fill-opacity="0.0" clip-path="url(#id_0)" d="M303.16345 300.4478C303.16345 302.10468 301.8203 303.4478 300.16345 303.4478C298.5066 303.4478 297.16345 302.10468 297.16345 300.4478C297.16345 298.791 298.5066 297.4478 300.16345 297.4478C301.8203 297.4478 303.16345 298.791 303.16345 300.4478Z" fill-rule="nonzero"/><path fill="#000000" fill-opacity="0.0" clip-path="url(#id_0)" d="M308.20245 300.44785C308.20245 302.10468 306.8593 303.44785 305.20245 303.44785C303.5456 303.44785 302.20245 302.10468 302.20245 300.44785C302.20245 298.791 303.5456 297.44785 305.20245 297.44785C306.8593 297.44785 308.20245 298.791 308.20245 300.44785Z" fill-rule="nonzero"/><path fill="#000000" fill-opacity="0.0" clip-path="url(#id_0)" d="M313.24146 300.44785C313.24146 302.10468 311.8983 303.44785 310.24146 303.44785C308.5846 303.44785 307.24146 302.10468 307.24146 300.44785C307.24146 298.791 308.5846 297.44785 310.24146 297.44785C311.8983 297.44785 313.24146 298.791 313.24146 300.44785Z" fill-rule="nonzero"/><path fill="#000000" fill-opacity="0.0" clip-path="url(#id_0)" d="M318.28046 300.44785C318.28046 302.10468 316.9373 303.44785 315.28046 303.44785C313.6236 303.44785 312.28046 302.10468 312.28046 300.44785C312.28046 298.791 313.6236 297.44785 315.28046 297.44785C316.9373 297.44785 318.28046 298.791 318.28046 300.44785Z" fill-rule="nonzero"/><path fill="#000000" fill-opacity="0.0" clip-path="url(#id_0)" d="M323.31946 300.44785C323.31946 302.10468 321.9763 303.44785 320.31946 303.44785C318.6626 303.44785 317.31946 302.10468 317.31946 300.44785C317.31946 298.791 318.6626 297.44785 320.31946 297.44785C321.9763 297.44785 323.31946 298.791 323.31946 300.44785Z" fill-rule="nonzero"/><path fill="#000000" fill-opacity="0.0" clip-path="url(#id_0)" d="M328.35846 300.44785C328.35846 302.10468 327.0153 303.44785 325.35846 303.44785C323.7016 303.44785 322.35846 302.10468 322.35846 300.44785C322.35846 298.791 323.7016 297.44785 325.35846 297.44785C327.0153 297.44785 328.35846 298.791 328.35846 300.44785Z" fill-rule="nonzero"/><path fill="#000000" fill-opacity="0.0" clip-path="url(#id_0)" d="M333.39746 300.44785C333.39746 302.10468 332.0543 303.44785 330.39746 303.44785C328.7406 303.44785 327.39746 302.10468 327.39746 300.44785C327.39746 298.791 328.7406 297.44785 330.39746 297.44785C332.0543 297.44785 333.39746 298.791 333.39746 300.44785Z" fill-rule="nonzero"/><path fill="#000000" fill-opacity="0.0" clip-path="url(#id_0)" d="M338.43643 300.44785C338.43643 302.1047 337.0933 303.44785 335.43643 303.44785C333.7796 303.44785 332.43643 302.1047 332.43643 300.44785C332.43643 298.791 333.7796 297.44785 335.43643 297.44785C337.0933 297.44785 338.43643 298.791 338.43643 300.44785Z" fill-rule="nonzero"/><path fill="#000000" fill-opacity="0.0" clip-path="url(#id_0)" d="M343.47543 300.44785C343.47543 302.1047 342.1323 303.44785 340.47543 303.44785C338.8186 303.44785 337.47543 302.1047 337.47543 300.44785C337.47543 298.791 338.8186 297.44785 340.47543 297.44785C342.1323 297.44785 343.47543 298.791 343.47543 300.44785Z" fill-rule="nonzero"/><path fill="#000000" fill-opacity="0.0" clip-path="url(#id_0)" d="M348.51443 300.44785C348.51443 302.1047 347.1713 303.44785 345.51443 303.44785C343.8576 303.44785 342.51443 302.1047 342.51443 300.44785C342.51443 298.791 343.8576 297.44785 345.51443 297.44785C347.1713 297.44785 348.51443 298.791 348.51443 300.44785Z" fill-rule="nonzero"/><path fill="#000000" fill-opacity="0.0" clip-path="url(#id_0)" d="M353.55344 300.44785C353.55344 302.1047 352.2103 303.44785 350.55344 303.44785C348.8966 303.44785 347.55344 302.1047 347.55344 300.44785C347.55344 298.791 348.8966 297.44785 350.55344 297.44785C352.2103 297.44785 353.55344 298.791 353.55344 300.44785Z" fill-rule="nonzero"/><path fill="#000000" fill-opacity="0.0" clip-path="url(#id_0)" d="M358.59244 300.44785C358.59244 302.1047 357.2493 303.44785 355.59244 303.44785C353.93558 303.44785 352.59244 302.1047 352.59244 300.44785C352.59244 298.791 353.93558 297.44785 355.59244 297.44785C357.2493 297.44785 358.59244 298.791 358.59244 300.44785Z" fill-rule="nonzero"/><path fill="#000000" fill-opacity="0.0" clip-path="url(#id_0)" d="M363.63144 300.44785C363.63144 302.1047 362.2883 303.44785 360.63144 303.44785C358.97458 303.44785 357.63144 302.1047 357.63144 300.44785C357.63144 298.791 358.97458 297.44785 360.63144 297.44785C362.2883 297.44785 363.63144 298.791 363.63144 300.44785Z" fill-rule="nonzero"/><path fill="#000000" fill-opacity="0.0" clip-path="url(#id_0)" d="M368.67044 300.44785C368.67044 302.1047 367.3273 303.44785 365.67044 303.44785C364.01358 303.44785 362.67044 302.1047 362.67044 300.44785C362.67044 298.791 364.01358 297.44785 365.67044 297.44785C367.3273 297.44785 368.67044 298.791 368.67044 300.44785Z" fill-rule="nonzero"/><path fill="#000000" fill-opacity="0.0" clip-path="url(#id_0)" d="M373.70944 300.44785C373.70944 302.1047 372.3663 303.44785 370.70944 303.44785C369.05258 303.44785 367.70944 302.1047 367.70944 300.44785C367.70944 298.791 369.05258 297.44785 370.70944 297.44785C372.3663 297.44785 373.70944 298.791 373.70944 300.44785Z" fill-rule="nonzero"/><path fill="#000000" fill-opacity="0.0" clip-path="url(#id_0)" d="M378.74844 300.44785C378.74844 302.1047 377.4053 303.44785 375.74844 303.44785C374.09158 303.44785 372.74844 302.1047 372.74844 300.44785C372.74844 298.791 374.09158 297.44785 375.74844 297.44785C377.4053 297.44785 378.74844 298.791 378.74844 300.44785Z" fill-rule="nonzero"/><path fill="#000000" fill-opacity="0.0" clip-path="url(#id_0)" d="M383.78745 300.44785C383.78745 302.1047 382.4443 303.44785 380.78745 303.44785C379.13058 303.44785 377.78745 302.1047 377.78745 300.44785C377.78745 298.791 379.13058 297.44785 380.78745 297.44785C382.4443 297.44785 383.78745 298.791 383.78745 300.44785Z" fill-rule="nonzero"/><path fill="#000000" fill-opacity="0.0" clip-path="url(#id_0)" d="M388.82645 300.44785C388.82645 302.1047 387.4833 303.44785 385.82645 303.44785C384.1696 303.44785 382.82645 302.1047 382.82645 300.44785C382.82645 298.791 384.1696 297.44785 385.82645 297.44785C387.4833 297.44785 388.82645 298.791 388.82645 300.44785Z" fill-rule="nonzero"/><path fill="#000000" fill-opacity="0.0" clip-path="url(#id_0)" d="M393.86545 300.44785C393.86545 302.1047 392.5223 303.44785 390.86545 303.44785C389.2086 303.44785 387.86545 302.1047 387.86545 300.44785C387.86545 298.791 389.2086 297.44785 390.86545 297.44785C392.5223 297.44785 393.86545 298.791 393.86545 300.44785Z" fill-rule="nonzero"/><path fill="#000000" fill-opacity="0.0" clip-path="url(#id_0)" d="M398.90445 300.44785C398.90445 302.1047 397.5613 303.44785 395.90445 303.44785C394.2476 303.44785 392.90445 302.1047 392.90445 300.44785C392.90445 298.791 394.2476 297.44785 395.90445 297.44785C397.5613 297.44785 398.90445 298.791 398.90445 300.44785Z" fill-rule="nonzero"/><path fill="#000000" fill-opacity="0.0" clip-path="url(#id_0)" d="M403.94345 300.44785C403.94345 302.1047 402.6003 303.44785 400.94345 303.44785C399.2866 303.44785 397.94345 302.1047 397.94345 300.44785C397.94345 298.791 399.2866 297.44785 400.94345 297.44785C402.6003 297.44785 403.94345 298.791 403.94345 300.44785Z" fill-rule="nonzero"/><path fill="#000000" fill-opacity="0.0" clip-path="url(#id_0)" d="M408.98245 300.44785C408.98245 302.1047 407.6393 303.44785 405.98245 303.44785C404.3256 303.44785 402.98245 302.1047 402.98245 300.44785C402.98245 298.791 404.3256 297.44785 405.98245 297.44785C407.6393 297.44785 408.98245 298.791 408.98245 300.44785Z" fill-rule="nonzero"/><path fill="#000000" fill-opacity="0.0" clip-path="url(#id_0)" d="M414.02145 300.44785C414.02145 302.1047 412.6783 303.44785 411.02145 303.44785C409.3646 303.44785 408.02145 302.1047 408.02145 300.44785C408.02145 298.791 409.3646 297.44785 411.02145 297.44785C412.6783 297.44785 414.02145 298.791 414.02145 300.44785Z" fill-rule="nonzero"/><path fill="#000000" fill-opacity="0.0" clip-path="url(#id_0)" d="M419.06046 300.44785C419.06046 302.1047 417.7173 303.44785 416.06046 303.44785C414.4036 303.44785 413.06046 302.1047 413.06046 300.44785C413.06046 298.791 414.4036 297.44785 416.06046 297.44785C417.7173 297.44785 419.06046 298.791 419.06046 300.44785Z" fill-rule="nonzero"/><path fill="#000000" fill-opacity="0.0" clip-path="url(#id_0)" d="M424.09946 300.44785C424.09946 302.1047 422.7563 303.44785 421.09946 303.44785C419.4426 303.44785 418.09946 302.1047 418.09946 300.44785C418.09946 298.791 419.4426 297.44785 421.09946 297.44785C422.7563 297.44785 424.09946 298.791 424.09946 300.44785Z" fill-rule="nonzero"/><path fill="#000000" fill-opacity="0.0" clip-path="url(#id_0)" d="M429.13846 300.44785C429.13846 302.1047 427.7953 303.44785 426.13846 303.44785C424.4816 303.44785 423.13846 302.1047 423.13846 300.44785C423.13846 298.791 424.4816 297.44785 426.13846 297.44785C427.7953 297.44785 429.13846 298.791 429.13846 300.44785Z" fill-rule="nonzero"/><path fill="#000000" fill-opacity="0.0" clip-path="url(#id_0)" d="M434.17746 300.44785C434.17746 302.1047 432.8343 303.44785 431.17746 303.44785C429.5206 303.44785 428.17746 302.1047 428.17746 300.44785C428.17746 298.791 429.5206 297.44785 431.17746 297.44785C432.8343 297.44785 434.17746 298.791 434.17746 300.44785Z" fill-rule="nonzero"/><path fill="#000000" fill-opacity="0.0" clip-path="url(#id_0)" d="M439.21643 300.44785C439.21643 302.1047 437.8733 303.44785 436.21643 303.44785C434.5596 303.44785 433.21643 302.1047 433.21643 300.44785C433.21643 298.791 434.5596 297.44785 436.21643 297.44785C437.8733 297.44785 439.21643 298.791 439.21643 300.44785Z" fill-rule="nonzero"/><path fill="#000000" fill-opacity="0.0" clip-path="url(#id_0)" d="M444.25543 300.44785C444.25543 302.1047 442.9123 303.44785 441.25543 303.44785C439.5986 303.44785 438.25543 302.1047 438.25543 300.44785C438.25543 298.791 439.5986 297.44785 441.25543 297.44785C442.9123 297.44785 444.25543 298.791 444.25543 300.44785Z" fill-rule="nonzero"/><path fill="#000000" fill-opacity="0.0" clip-path="url(#id_0)" d="M449.29443 300.44785C449.29443 302.1047 447.9513 303.44785 446.29443 303.44785C444.6376 303.44785 443.29443 302.1047 443.29443 300.44785C443.29443 298.791 444.6376 297.44785 446.29443 297.44785C447.9513 297.44785 449.29443 298.791 449.29443 300.44785Z" fill-rule="nonzero"/><path fill="#000000" fill-opacity="0.0" clip-path="url(#id_0)" d="M454.33344 300.44785C454.33344 302.1047 452.9903 303.44785 451.33344 303.44785C449.6766 303.44785 448.33344 302.1047 448.33344 300.44785C448.33344 298.791 449.6766 297.44785 451.33344 297.44785C452.9903 297.44785 454.33344 298.791 454.33344 300.44785Z" fill-rule="nonzero"/><path fill="#000000" fill-opacity="0.0" clip-path="url(#id_0)" d="M459.37244 300.44785C459.37244 302.1047 458.0293 303.44785 456.37244 303.44785C454.7156 303.44785 453.37244 302.1047 453.37244 300.44785C453.37244 298.791 454.7156 297.44785 456.37244 297.44785C458.0293 297.44785 459.37244 298.791 459.37244 300.44785Z" fill-rule="nonzero"/><path fill="#000000" fill-opacity="0.0" clip-path="url(#id_0)" d="M464.41144 300.44785C464.41144 302.1047 463.0683 303.44785 461.41144 303.44785C459.75458 303.44785 458.41144 302.1047 458.41144 300.44785C458.41144 298.791 459.75458 297.44785 461.41144 297.44785C463.0683 297.44785 464.41144 298.791 464.41144 300.44785Z" fill-rule="nonzero"/><path fill="#000000" fill-opacity="0.0" clip-path="url(#id_0)" d="M469.45044 300.44785C469.45044 302.1047 468.1073 303.44785 466.45044 303.44785C464.79358 303.44785 463.45044 302.1047 463.45044 300.44785C463.45044 298.791 464.79358 297.44785 466.45044 297.44785C468.1073 297.44785 469.45044 298.791 469.45044 300.44785Z" fill-rule="nonzero"/><path fill="#000000" fill-opacity="0.0" clip-path="url(#id_0)" d="M474.48944 300.44785C474.48944 302.1047 473.1463 303.44785 471.48944 303.44785C469.83258 303.44785 468.48944 302.1047 468.48944 300.44785C468.48944 298.791 469.83258 297.44785 471.48944 297.44785C473.1463 297.44785 474.48944 298.791 474.48944 300.44785Z" fill-rule="nonzero"/><path fill="#000000" fill-opacity="0.0" clip-path="url(#id_0)" d="M479.52844 300.44785C479.52844 302.1047 478.1853 303.44785 476.52844 303.44785C474.87158 303.44785 473.52844 302.1047 473.52844 300.44785C473.52844 298.791 474.87158 297.44785 476.52844 297.44785C478.1853 297.44785 479.52844 298.791 479.52844 300.44785Z" fill-rule="nonzero"/><path fill="#000000" fill-opacity="0.0" clip-path="url(#id_0)" d="M484.56744 300.44785C484.56744 302.1047 483.2243 303.44785 481.56744 303.44785C479.91058 303.44785 478.56744 302.1047 478.56744 300.44785C478.56744 298.791 479.91058 297.44785 481.56744 297.44785C483.2243 297.44785 484.56744 298.791 484.56744 300.44785Z" fill-rule="nonzero"/><path fill="#000000" fill-opacity="0.0" clip-path="url(#id_0)" d="M489.60645 300.44785C489.60645 302.1047 488.2633 303.44785 486.60645 303.44785C484.9496 303.44785 483.60645 302.1047 483.60645 300.44785C483.60645 298.791 484.9496 297.44785 486.60645 297.44785C488.2633 297.44785 489.60645 298.791 489.60645 300.44785Z" fill-rule="nonzero"/><path fill="#000000" fill-opacity="0.0" clip-path="url(#id_0)" d="M494.64545 300.44785C494.64545 302.1047 493.3023 303.44785 491.64545 303.44785C489.9886 303.44785 488.64545 302.1047 488.64545 300.44785C488.64545 298.791 489.9886 297.44785 491.64545 297.44785C493.3023 297.44785 494.64545 298.791 494.64545 300.44785Z" fill-rule="nonzero"/><path fill="#000000" fill-opacity="0.0" clip-path="url(#id_0)" d="M499.68445 300.44785C499.68445 302.1047 498.3413 303.44785 496.68445 303.44785C495.0276 303.44785 493.68445 302.1047 493.68445 300.44785C493.68445 298.791 495.0276 297.44785 496.68445 297.44785C498.3413 297.44785 499.68445 298.791 499.68445 300.44785Z" fill-rule="nonzero"/><path fill="#000000" fill-opacity="0.0" clip-path="url(#id_0)" d="M504.72345 300.44785C504.72345 302.1047 503.3803 303.44785 501.72345 303.44785C500.0666 303.44785 498.72345 302.1047 498.72345 300.44785C498.72345 298.791 500.0666 297.44785 501.72345 297.44785C503.3803 297.44785 504.72345 298.791 504.72345 300.44785Z" fill-rule="nonzero"/><path fill="#000000" fill-opacity="0.0" clip-path="url(#id_0)" d="M509.76245 300.44785C509.76245 302.1047 508.4193 303.44785 506.76245 303.44785C505.1056 303.44785 503.76245 302.1047 503.76245 300.44785C503.76245 298.791 505.1056 297.44785 506.76245 297.44785C508.4193 297.44785 509.76245 298.791 509.76245 300.44785Z" fill-rule="nonzero"/><path fill="#000000" fill-opacity="0.0" clip-path="url(#id_0)" d="M514.80145 300.44785C514.80145 302.1047 513.4583 303.44785 511.80145 303.44785C510.1446 303.44785 508.80145 302.1047 508.80145 300.44785C508.80145 298.791 510.1446 297.44785 511.80145 297.44785C513.4583 297.44785 514.80145 298.791 514.80145 300.44785Z" fill-rule="nonzero"/><path fill="#000000" fill-opacity="0.0" clip-path="url(#id_0)" d="M519.84045 300.44785C519.84045 302.1047 518.4973 303.44785 516.84045 303.44785C515.1836 303.44785 513.84045 302.1047 513.84045 300.44785C513.84045 298.791 515.1836 297.44785 516.84045 297.44785C518.4973 297.44785 519.84045 298.791 519.84045 300.44785Z" fill-rule="nonzero"/><path fill="#000000" fill-opacity="0.0" clip-path="url(#id_0)" d="M524.87946 300.44785C524.87946 302.1047 523.5363 303.44785 521.87946 303.44785C520.2226 303.44785 518.87946 302.1047 518.87946 300.44785C518.87946 298.79102 520.2226 297.44785 521.87946 297.44785C523.5363 297.44785 524.87946 298.79102 524.87946 300.44785Z" fill-rule="nonzero"/><path fill="#000000" fill-opacity="0.0" clip-path="url(#id_0)" d="M529.91846 300.44785C529.91846 302.1047 528.5753 303.44785 526.91846 303.44785C525.2616 303.44785 523.91846 302.1047 523.91846 300.44785C523.91846 298.79102 525.2616 297.44785 526.91846 297.44785C528.5753 297.44785 529.91846 298.79102 529.91846 300.44785Z" fill-rule="nonzero"/><path fill="#000000" fill-opacity="0.0" clip-path="url(#id_0)" d="M534.95746 300.44785C534.95746 302.1047 533.6143 303.44785 531.95746 303.44785C530.3006 303.44785 528.95746 302.1047 528.95746 300.44785C528.95746 298.79102 530.3006 297.44785 531.95746 297.44785C533.6143 297.44785 534.95746 298.79102 534.95746 300.44785Z" fill-rule="nonzero"/><path fill="#000000" fill-opacity="0.0" clip-path="url(#id_0)" d="M539.99646 300.44785C539.99646 302.1047 538.6533 303.44785 536.99646 303.44785C535.3396 303.44785 533.99646 302.1047 533.99646 300.44785C533.99646 298.79102 535.3396 297.44785 536.99646 297.44785C538.6533 297.44785 539.99646 298.79102 539.99646 300.44785Z" fill-rule="nonzero"/><path fill="#000000" fill-opacity="0.0" clip-path="url(#id_0)" d="M545.03546 300.44785C545.03546 302.1047 543.6923 303.44785 542.03546 303.44785C540.3786 303.44785 539.03546 302.1047 539.03546 300.44785C539.03546 298.79102 540.3786 297.44785 542.03546 297.44785C543.6923 297.44785 545.03546 298.79102 545.03546 300.44785Z" fill-rule="nonzero"/><path fill="#000000" fill-opacity="0.0" clip-path="url(#id_0)" d="M550.07446 300.44785C550.07446 302.1047 548.7313 303.44785 547.07446 303.44785C545.4176 303.44785 544.07446 302.1047 544.07446 300.44785C544.07446 298.79102 545.4176 297.44785 547.07446 297.44785C548.7313 297.44785 550.07446 298.79102 550.07446 300.44785Z" fill-rule="nonzero"/><path fill="#000000" fill-opacity="0.0" clip-path="url(#id_0)" d="M555.11346 300.44785C555.11346 302.1047 553.7703 303.44785 552.11346 303.44785C550.4566 303.44785 549.11346 302.1047 549.11346 300.44785C549.11346 298.79102 550.4566 297.44785 552.11346 297.44785C553.7703 297.44785 555.11346 298.79102 555.11346 300.44785Z" fill-rule="nonzero"/><path fill="#000000" fill-opacity="0.0" clip-path="url(#id_0)" d="M560.15247 300.44785C560.15247 302.1047 558.8093 303.44785 557.15247 303.44785C555.4956 303.44785 554.15247 302.1047 554.15247 300.44785C554.15247 298.79102 555.4956 297.44785 557.15247 297.44785C558.8093 297.44785 560.15247 298.79102 560.15247 300.44785Z" fill-rule="nonzero"/><path fill="#000000" fill-opacity="0.0" clip-path="url(#id_0)" d="M565.19147 300.44785C565.19147 302.1047 563.8483 303.44785 562.19147 303.44785C560.5346 303.44785 559.19147 302.1047 559.19147 300.44785C559.19147 298.79102 560.5346 297.44785 562.19147 297.44785C563.8483 297.44785 565.19147 298.79102 565.19147 300.44785Z" fill-rule="nonzero"/><path fill="#000000" fill-opacity="0.0" clip-path="url(#id_0)" d="M570.23047 300.44785C570.23047 302.1047 568.8873 303.44785 567.23047 303.44785C565.5736 303.44785 564.23047 302.1047 564.23047 300.44785C564.23047 298.79102 565.5736 297.44785 567.23047 297.44785C568.8873 297.44785 570.23047 298.79102 570.23047 300.44785Z" fill-rule="nonzero"/><path fill="#000000" fill-opacity="0.0" clip-path="url(#id_0)" d="M575.2695 300.44785C575.2695 302.1047 573.92633 303.44785 572.2695 303.44785C570.6126 303.44785 569.2695 302.1047 569.2695 300.44785C569.2695 298.79102 570.6126 297.44785 572.2695 297.44785C573.92633 297.44785 575.2695 298.79102 575.2695 300.44785Z" fill-rule="nonzero"/><path fill="#000000" fill-opacity="0.0" clip-path="url(#id_0)" d="M580.3085 300.44785C580.3085 302.1047 578.9653 303.44785 577.3085 303.44785C575.6516 303.44785 574.3085 302.1047 574.3085 300.44785C574.3085 298.79102 575.6516 297.44785 577.3085 297.44785C578.9653 297.44785 580.3085 298.79102 580.3085 300.44785Z" fill-rule="nonzero"/><path fill="#000000" fill-opacity="0.0" clip-path="url(#id_0)" d="M584.45 300.44788C584.45 302.1047 583.1069 303.44788 581.45 303.44788C579.79315 303.44788 578.45 302.1047 578.45 300.44788C578.45 298.79102 579.79315 297.44788 581.45 297.44788C583.1069 297.44788 584.45 298.79102 584.45 300.44788Z" fill-rule="nonzero"/><path fill="#000000" fill-opacity="0.0" clip-path="url(#id_0)" d="M80.55 300.45C80.55 302.10684 79.206856 303.45 77.55 303.45C75.89314 303.45 74.55 302.10684 74.55 300.45C74.55 298.79315 75.89314 297.45 77.55 297.45C79.206856 297.45 80.55 298.79315 80.55 300.45Z" fill-rule="nonzero"/><path fill="#000000" fill-opacity="0.0" clip-path="url(#id_0)" d="M81.0539 299.28308C81.0539 300.93994 79.710754 302.28308 78.0539 302.28308C76.39705 302.28308 75.0539 300.93994 75.0539 299.28308C75.0539 297.62622 76.39705 296.28308 78.0539 296.28308C79.710754 296.28308 81.0539 297.62622 81.0539 299.28308Z" fill-rule="nonzero"/><path fill="#000000" fill-opacity="0.0" clip-path="url(#id_0)" d="M81.5578 298.11618C81.5578 299.773 80.21465 301.11618 78.5578 301.11618C76.90095 301.11618 75.5578 299.773 75.5578 298.11618C75.5578 296.45932 76.90095 295.11618 78.5578 295.11618C80.21465 295.11618 81.5578 296.45932 81.5578 298.11618Z" fill-rule="nonzero"/><path fill="#000000" fill-opacity="0.0" clip-path="url(#id_0)" d="M82.31365 296.36578C82.31365 298.02264 80.970505 299.36578 79.31365 299.36578C77.6568 299.36578 76.31365 298.02264 76.31365 296.36578C76.31365 294.70892 77.6568 293.36578 79.31365 293.36578C80.970505 293.36578 82.31365 294.70892 82.31365 296.36578Z" fill-rule="nonzero"/><path fill="#000000" fill-opacity="0.0" clip-path="url(#id_0)" d="M83.447426 293.74023C83.447426 295.3971 82.10428 296.74023 80.447426 296.74023C78.79057 296.74023 77.447426 295.3971 77.447426 293.74023C77.447426 292.08337 78.79057 290.74023 80.447426 290.74023C82.10428 290.74023 83.447426 292.08337 83.447426 293.74023Z" fill-rule="nonzero"/><path fill="#000000" fill-opacity="0.0" clip-path="url(#id_0)" d="M85.14809 289.80188C85.14809 291.45874 83.80494 292.80188 82.14809 292.80188C80.491234 292.80188 79.14809 291.45874 79.14809 289.80188C79.14809 288.14502 80.491234 286.80188 82.14809 286.80188C83.80494 286.80188 85.14809 288.14502 85.14809 289.80188Z" fill-rule="nonzero"/><path fill="#000000" fill-opacity="0.0" clip-path="url(#id_0)" d="M87.69908 283.89438C87.69908 285.55124 86.355934 286.89438 84.69908 286.89438C83.04223 286.89438 81.69908 285.55124 81.69908 283.89438C81.69908 282.23752 83.04223 280.89438 84.69908 280.89438C86.355934 280.89438 87.69908 282.23752 87.69908 283.89438Z" fill-rule="nonzero"/><path fill="#000000" fill-opacity="0.0" clip-path="url(#id_0)" d="M91.5256 275.0331C91.5256 276.68997 90.18245 278.0331 88.5256 278.0331C86.868744 278.0331 85.5256 276.68997 85.5256 275.0331C85.5256 273.37628 86.868744 272.0331 88.5256 272.0331C90.18245 272.0331 91.5256 273.37628 91.5256 275.0331Z" fill-rule="nonzero"/><path fill="#000000" fill-opacity="0.0" clip-path="url(#id_0)" d="M96.564545 263.36407C96.564545 265.0209 95.2214 266.36407 93.564545 266.36407C91.90769 266.36407 90.564545 265.0209 90.564545 263.36407C90.564545 261.7072 91.90769 260.36407 93.564545 260.36407C95.2214 260.36407 96.564545 261.7072 96.564545 263.36407Z" fill-rule="nonzero"/><path fill="#000000" fill-opacity="0.0" clip-path="url(#id_0)" d="M101.6036 251.6949C101.6036 253.35175 100.26045 254.6949 98.6036 254.6949C96.94674 254.6949 95.6036 253.35175 95.6036 251.6949C95.6036 250.03804 96.94674 248.6949 98.6036 248.6949C100.26045 248.6949 101.6036 250.03804 101.6036 251.6949Z" fill-rule="nonzero"/><path fill="#000000" fill-opacity="0.0" clip-path="url(#id_0)" d="M106.64255 240.026C106.64255 241.68285 105.2994 243.026 103.64255 243.026C101.985695 243.026 100.64255 241.68285 100.64255 240.026C100.64255 238.36914 101.985695 237.026 103.64255 237.026C105.2994 237.026 106.64255 238.36914 106.64255 240.026Z" fill-rule="nonzero"/><path fill="#000000" fill-opacity="0.0" clip-path="url(#id_0)" d="M111.68155 228.35709C111.68155 230.01395 110.3384 231.35709 108.68155 231.35709C107.02469 231.35709 105.68155 230.01395 105.68155 228.35709C105.68155 226.70024 107.02469 225.35709 108.68155 225.35709C110.3384 225.35709 111.68155 226.70024 111.68155 228.35709Z" fill-rule="nonzero"/><path fill="#000000" fill-opacity="0.0" clip-path="url(#id_0)" d="M116.72054 216.68819C116.72054 218.34505 115.3774 219.68819 113.72054 219.68819C112.06369 219.68819 110.72054 218.34505 110.72054 216.68819C110.72054 215.03134 112.06369 213.68819 113.72054 213.68819C115.3774 213.68819 116.72054 215.03134 116.72054 216.68819Z" fill-rule="nonzero"/><path fill="#000000" fill-opacity="0.0" clip-path="url(#id_0)" d="M121.7596 205.01929C121.7596 206.67615 120.41645 208.01929 118.7596 208.01929C117.102745 208.01929 115.7596 206.67615 115.7596 205.01929C115.7596 203.36244 117.102745 202.01929 118.7596 202.01929C120.41645 202.01929 121.7596 203.36244 121.7596 205.01929Z" fill-rule="nonzero"/><path fill="#000000" fill-opacity="0.0" clip-path="url(#id_0)" d="M126.7986 193.35065C126.7986 195.0075 125.45545 196.35065 123.7986 196.35065C122.14175 196.35065 120.7986 195.0075 120.7986 193.35065C120.7986 191.6938 122.14175 190.35065 123.7986 190.35065C125.45545 190.35065 126.7986 191.6938 126.7986 193.35065Z" fill-rule="nonzero"/><path fill="#000000" fill-opacity="0.0" clip-path="url(#id_0)" d="M131.83745 181.68202C131.83745 183.33887 130.4943 184.68202 128.83745 184.68202C127.180595 184.68202 125.83745 183.33887 125.83745 181.68202C125.83745 180.02516 127.180595 178.68202 128.83745 178.68202C130.4943 178.68202 131.83745 180.02516 131.83745 181.68202Z" fill-rule="nonzero"/><path fill="#000000" fill-opacity="0.0" clip-path="url(#id_0)" d="M136.87645 170.01364C136.87645 171.6705 135.5333 173.01364 133.87645 173.01364C132.21959 173.01364 130.87645 171.6705 130.87645 170.01364C130.87645 168.3568 132.21959 167.01364 133.87645 167.01364C135.5333 167.01364 136.87645 168.3568 136.87645 170.01364Z" fill-rule="nonzero"/><path fill="#000000" fill-opacity="0.0" clip-path="url(#id_0)" d="M141.91545 158.34528C141.91545 160.00214 140.5723 161.34528 138.91545 161.34528C137.25859 161.34528 135.91545 160.00214 135.91545 158.34528C135.91545 156.68842 137.25859 155.34528 138.91545 155.34528C140.5723 155.34528 141.91545 156.68842 141.91545 158.34528Z" fill-rule="nonzero"/><path fill="#000000" fill-opacity="0.0" clip-path="url(#id_0)" d="M146.95445 146.67717C146.95445 148.33403 145.6113 149.67717 143.95445 149.67717C142.29759 149.67717 140.95445 148.33403 140.95445 146.67717C140.95445 145.02031 142.29759 143.67717 143.95445 143.67717C145.6113 143.67717 146.95445 145.02031 146.95445 146.67717Z" fill-rule="nonzero"/><path fill="#000000" fill-opacity="0.0" clip-path="url(#id_0)" d="M151.99344 135.00932C151.99344 136.66618 150.6503 138.00932 148.99344 138.00932C147.3366 138.00932 145.99344 136.66618 145.99344 135.00932C145.99344 133.35248 147.3366 132.00932 148.99344 132.00932C150.6503 132.00932 151.99344 133.35248 151.99344 135.00932Z" fill-rule="nonzero"/><path fill="#000000" fill-opacity="0.0" clip-path="url(#id_0)" d="M157.03244 123.34149C157.03244 124.998344 155.6893 126.34149 154.03244 126.34149C152.3756 126.34149 151.03244 124.998344 151.03244 123.34149C151.03244 121.68463 152.3756 120.34149 154.03244 120.34149C155.6893 120.34149 157.03244 121.68463 157.03244 123.34149Z" fill-rule="nonzero"/><path fill="#000000" fill-opacity="0.0" clip-path="url(#id_0)" d="M162.07144 111.673645C162.07144 113.330505 160.7283 114.673645 159.07144 114.673645C157.4146 114.673645 156.07144 113.330505 156.07144 111.673645C156.07144 110.01679 157.4146 108.673645 159.07144 108.673645C160.7283 108.673645 162.07144 110.01679 162.07144 111.673645Z" fill-rule="nonzero"/><path fill="#000000" fill-opacity="0.0" clip-path="url(#id_0)" d="M167.11044 100.00634C167.11044 101.66319 165.7673 103.00634 164.11044 103.00634C162.4536 103.00634 161.11044 101.66319 161.11044 100.00634C161.11044 98.34948 162.4536 97.00634 164.11044 97.00634C165.7673 97.00634 167.11044 98.34948 167.11044 100.00634Z" fill-rule="nonzero"/><path fill="#000000" fill-opacity="0.0" clip-path="url(#id_0)" d="M172.14944 88.339294C172.14944 89.99615 170.8063 91.339294 169.14944 91.339294C167.49258 91.339294 166.14944 89.99615 166.14944 88.339294C166.14944 86.68244 167.49258 85.339294 169.14944 85.339294C170.8063 85.339294 172.14944 86.68244 172.14944 88.339294Z" fill-rule="nonzero"/><path fill="#000000" d="M320.59375 348.5125L320.75 349.4344Q320.29688 349.52814 319.95312 349.52814Q319.375 349.52814 319.0625 349.35626Q318.75 349.16876 318.60938 348.8719Q318.48438 348.575 318.48438 347.6219L318.48438 344.04376L317.71875 344.04376L317.71875 343.23126L318.48438 343.23126L318.48438 341.6844L319.53125 341.0594L319.53125 343.23126L320.59375 343.23126L320.59375 344.04376L319.53125 344.04376L319.53125 347.6844Q319.53125 348.1375 319.57812 348.2625Q319.64062 348.3875 319.76562 348.46564Q319.89062 348.54376 320.125 348.54376Q320.3125 348.54376 320.59375 348.5125ZM321.29688 342.075L321.29688 340.85626L322.35938 340.85626L322.35938 342.075L321.29688 342.075ZM321.29688 349.45L321.29688 343.23126L322.35938 343.23126L322.35938 349.45L321.29688 349.45ZM324.29688 349.45L324.29688 343.23126L325.23438 343.23126L325.23438 344.10626Q325.53125 343.6375 326.01562 343.3719Q326.5 343.09064 327.125 343.09064Q327.8125 343.09064 328.25 343.3719Q328.70312 343.65314 328.875 344.16876Q329.625 343.09064 330.79688 343.09064Q331.73438 343.09064 332.21875 343.60626Q332.71875 344.10626 332.71875 345.1844L332.71875 349.45L331.67188 349.45L331.67188 345.52814Q331.67188 344.90314 331.5625 344.6219Q331.46875 344.34064 331.20312 344.16876Q330.9375 343.9969 330.5625 343.9969Q329.90625 343.9969 329.46875 344.4344Q329.04688 344.8719 329.04688 345.84064L329.04688 349.45L327.98438 349.45L327.98438 345.40314Q327.98438 344.7 327.71875 344.35626Q327.46875 343.9969 326.89062 343.9969Q326.4375 343.9969 326.0625 344.23126Q325.6875 344.46564 325.51562 344.91876Q325.34375 345.3719 325.34375 346.21564L325.34375 349.45L324.29688 349.45ZM339.54688 347.45L340.64062 347.575Q340.39062 348.52814 339.6875 349.0594Q338.98438 349.59064 337.90625 349.59064Q336.54688 349.59064 335.73438 348.7469Q334.9375 347.90314 334.9375 346.3875Q334.9375 344.825 335.75 343.96564Q336.5625 343.09064 337.84375 343.09064Q339.09375 343.09064 339.875 343.9344Q340.67188 344.77814 340.67188 346.325Q340.67188 346.41876 340.67188 346.60626L336.03125 346.60626Q336.09375 347.6375 336.60938 348.1844Q337.125 348.71564 337.90625 348.71564Q338.48438 348.71564 338.89062 348.41876Q339.3125 348.10626 339.54688 347.45ZM336.09375 345.7469L339.5625 345.7469Q339.5 344.95 339.17188 344.5594Q338.65625 343.95 337.85938 343.95Q337.125 343.95 336.625 344.4344Q336.14062 344.91876 336.09375 345.7469Z" fill-rule="nonzero"/><path fill="#000000" d="M26.784388 227.8198L26.690638 226.7573Q27.346888 226.67917 27.753138 226.39792Q28.159388 226.11667 28.425013 225.53854Q28.675013 224.9448 28.675013 224.21042Q28.675013 223.5698 28.487513 223.0698Q28.284388 222.5698 27.956263 222.33542Q27.612513 222.08542 27.221888 222.08542Q26.815638 222.08542 26.518763 222.3198Q26.206263 222.55417 26.003138 223.08542Q25.862513 223.4448 25.581263 224.6323Q25.300013 225.80417 25.050013 226.27292Q24.721888 226.89792 24.253138 227.1948Q23.768763 227.49167 23.175013 227.49167Q22.534388 227.49167 21.971888 227.1323Q21.393763 226.7573 21.112513 226.05417Q20.815638 225.33542 20.815638 224.47604Q20.815638 223.52292 21.128138 222.78854Q21.425013 222.05417 22.034388 221.66354Q22.628138 221.27292 23.378138 221.24167L23.456263 222.33542Q22.643763 222.42917 22.237513 222.9448Q21.815638 223.4448 21.815638 224.42917Q21.815638 225.46042 22.190638 225.92917Q22.565638 226.39792 23.096888 226.39792Q23.565638 226.39792 23.862513 226.0698Q24.159388 225.74167 24.471888 224.36667Q24.784388 222.97604 25.018763 222.46042Q25.378138 221.71042 25.909388 221.35104Q26.425013 220.99167 27.128138 220.99167Q27.815638 220.99167 28.425013 221.3823Q29.018763 221.77292 29.362513 222.5073Q29.690638 223.24167 29.690638 224.16354Q29.690638 225.33542 29.362513 226.1323Q29.018763 226.91354 28.331263 227.36667Q27.643763 227.80417 26.784388 227.8198ZM29.550013 215.89792L29.550013 216.9448L22.831263 216.9448Q23.190638 217.33542 23.565638 217.96042Q23.925013 218.5698 24.096888 219.05417L23.081263 219.05417Q22.659388 218.17917 22.081263 217.52292Q21.487513 216.85104 20.925013 216.5698L20.925013 215.89792L29.550013 215.89792ZM28.534388 207.3198L29.550013 207.3198L29.550013 213.0073Q29.175013 213.0073 28.815638 212.8823Q28.237513 212.66354 27.675013 212.1948Q27.112513 211.71042 26.378138 210.80417Q25.221888 209.39792 24.550013 208.91354Q23.878138 208.41354 23.284388 208.41354Q22.659388 208.41354 22.237513 208.86667Q21.800013 209.3198 21.800013 210.03854Q21.800013 210.80417 22.253138 211.2573Q22.706263 211.71042 23.518763 211.72604L23.409388 212.80417Q22.190638 212.6948 21.565638 211.97604Q20.925013 211.24167 20.925013 210.0073Q20.925013 208.77292 21.612513 208.05417Q22.300013 207.33542 23.315638 207.33542Q23.831263 207.33542 24.331263 207.55417Q24.815638 207.7573 25.378138 208.2573Q25.925013 208.74167 26.878138 209.86667Q27.675013 210.8198 27.971888 211.10104Q28.253138 211.36667 28.534388 211.53854L28.534388 207.3198ZM31.940638 202.55417L20.956263 202.55417L20.956263 200.22604L21.831263 200.22604L21.831263 201.49167L31.065638 201.49167L31.065638 200.22604L31.940638 200.22604L31.940638 202.55417ZM29.550013 199.47604L20.956263 199.47604L20.956263 197.7573L27.034388 195.72604Q27.893763 195.4448 28.315638 195.3198Q27.846888 195.17917 26.940638 194.86667L20.956263 192.80417L20.956263 191.27292L29.550013 191.27292L29.550013 192.36667L22.362513 192.36667L29.550013 194.86667L29.550013 195.89792L22.237513 198.3823L29.550013 198.3823L29.550013 199.47604ZM29.550013 190.4448L20.956263 190.4448L20.956263 187.1948Q20.956263 186.35104 21.034388 185.89792Q21.143763 185.2573 21.440638 184.83542Q21.737513 184.39792 22.268763 184.14792Q22.800013 183.8823 23.440638 183.8823Q24.534388 183.8823 25.300013 184.58542Q26.050013 185.27292 26.050013 187.10104L26.050013 189.30417L29.550013 189.30417L29.550013 190.4448ZM25.050013 189.30417L25.050013 187.08542Q25.050013 185.97604 24.643763 185.52292Q24.221888 185.05417 23.471888 185.05417Q22.940638 185.05417 22.565638 185.33542Q22.175013 185.60104 22.050013 186.03854Q21.971888 186.33542 21.971888 187.10104L21.971888 189.30417L25.050013 189.30417ZM28.784388 178.5073Q29.284388 179.10104 29.487513 179.64792Q29.690638 180.17917 29.690638 180.80417Q29.690638 181.83542 29.190638 182.3823Q28.690638 182.92917 27.909388 182.92917Q27.456263 182.92917 27.081263 182.72604Q26.690638 182.52292 26.471888 182.17917Q26.237513 181.83542 26.128138 181.41354Q26.034388 181.11667 25.956263 180.47604Q25.815638 179.21042 25.596888 178.60104Q25.378138 178.60104 25.331263 178.60104Q24.675013 178.60104 24.409388 178.89792Q24.065638 179.30417 24.065638 180.10104Q24.065638 180.83542 24.331263 181.1948Q24.581263 181.55417 25.237513 181.72604L25.096888 182.7573Q24.440638 182.61667 24.034388 182.28854Q23.628138 181.96042 23.409388 181.35104Q23.190638 180.74167 23.190638 179.9448Q23.190638 179.14792 23.378138 178.64792Q23.565638 178.14792 23.846888 177.91354Q24.128138 177.67917 24.565638 177.58542Q24.831263 177.53854 25.534388 177.53854L26.940638 177.53854Q28.409388 177.53854 28.800013 177.47604Q29.190638 177.39792 29.550013 177.1948L29.550013 178.30417Q29.221888 178.46042 28.784388 178.5073ZM26.425013 178.60104Q26.659388 179.17917 26.831263 180.3198Q26.925013 180.97604 27.050013 181.24167Q27.159388 181.5073 27.378138 181.66354Q27.596888 181.80417 27.878138 181.80417Q28.300013 181.80417 28.581263 181.49167Q28.862513 181.16354 28.862513 180.55417Q28.862513 179.9448 28.596888 179.47604Q28.331263 178.99167 27.862513 178.77292Q27.503138 178.60104 26.815638 178.60104L26.425013 178.60104ZM31.940638 173.80417L31.940638 176.1323L31.065638 176.1323L31.065638 174.86667L21.831263 174.86667L21.831263 176.1323L20.956263 176.1323L20.956263 173.80417L31.940638 173.80417Z" fill-rule="nonzero"/><path fill="#000000" d="M65.05 300.21564Q65.05 298.6844 65.3625 297.7625Q65.675 296.825 66.28438 296.325Q66.90938 295.825 67.84688 295.825Q68.53438 295.825 69.05 296.10626Q69.58125 296.3875 69.925 296.91876Q70.26875 297.4344 70.45625 298.1844Q70.64375 298.9344 70.64375 300.21564Q70.64375 301.73126 70.33125 302.65314Q70.03438 303.575 69.40938 304.09064Q68.8 304.59064 67.84688 304.59064Q66.6125 304.59064 65.89375 303.7Q65.05 302.6375 65.05 300.21564ZM66.12813 300.21564Q66.12813 302.325 66.62813 303.02814Q67.12813 303.73126 67.84688 303.73126Q68.58125 303.73126 69.06563 303.02814Q69.56563 302.325 69.56563 300.21564Q69.56563 298.09064 69.06563 297.40314Q68.58125 296.7 67.83125 296.7Q67.1125 296.7 66.675 297.3094Q66.12813 298.09064 66.12813 300.21564Z" fill-rule="nonzero"/><path fill="#000000" d="M63.596874 250.39272L63.596874 251.40834L57.909374 251.40834Q57.909374 251.03334 58.034374 250.67397Q58.253124 250.09584 58.721874 249.53334Q59.20625 248.97084 60.1125 248.23647Q61.51875 247.08022 62.003124 246.40834Q62.503124 245.73647 62.503124 245.14272Q62.503124 244.51772 62.05 244.09584Q61.596874 243.65834 60.878124 243.65834Q60.1125 243.65834 59.659374 244.11147Q59.20625 244.56459 59.190624 245.37709L58.1125 245.26772Q58.221874 244.04897 58.940624 243.42397Q59.675 242.78334 60.909374 242.78334Q62.14375 242.78334 62.8625 243.47084Q63.58125 244.15834 63.58125 245.17397Q63.58125 245.68959 63.3625 246.18959Q63.159374 246.67397 62.659374 247.23647Q62.175 247.78334 61.05 248.73647Q60.096874 249.53334 59.815624 249.83022Q59.55 250.11147 59.378124 250.39272L63.596874 250.39272ZM65.05 247.17397Q65.05 245.64272 65.3625 244.72084Q65.675 243.78334 66.28438 243.28334Q66.90938 242.78334 67.84688 242.78334Q68.53438 242.78334 69.05 243.06459Q69.58125 243.34584 69.925 243.87709Q70.26875 244.39272 70.45625 245.14272Q70.64375 245.89272 70.64375 247.17397Q70.64375 248.68959 70.33125 249.61147Q70.03438 250.53334 69.40938 251.04897Q68.8 251.54897 67.84688 251.54897Q66.6125 251.54897 65.89375 250.65834Q65.05 249.59584 65.05 247.17397ZM66.12813 247.17397Q66.12813 249.28334 66.62813 249.98647Q67.12813 250.68959 67.84688 250.68959Q68.58125 250.68959 69.06563 249.98647Q69.56563 249.28334 69.56563 247.17397Q69.56563 245.04897 69.06563 244.36147Q68.58125 243.65834 67.83125 243.65834Q67.1125 243.65834 66.675 244.26772Q66.12813 245.04897 66.12813 247.17397Z" fill-rule="nonzero"/><path fill="#000000" d="M61.425 198.36667L61.425 196.30417L57.70625 196.30417L57.70625 195.33542L61.628124 189.77292L62.4875 189.77292L62.4875 195.33542L63.64375 195.33542L63.64375 196.30417L62.4875 196.30417L62.4875 198.36667L61.425 198.36667ZM61.425 195.33542L61.425 191.47604L58.7375 195.33542L61.425 195.33542ZM65.05 194.1323Q65.05 192.60104 65.3625 191.67917Q65.675 190.74167 66.28438 190.24167Q66.90938 189.74167 67.84688 189.74167Q68.53438 189.74167 69.05 190.02292Q69.58125 190.30417 69.925 190.83542Q70.26875 191.35104 70.45625 192.10104Q70.64375 192.85104 70.64375 194.1323Q70.64375 195.64792 70.33125 196.5698Q70.03438 197.49167 69.40938 198.0073Q68.8 198.5073 67.84688 198.5073Q66.6125 198.5073 65.89375 197.61667Q65.05 196.55417 65.05 194.1323ZM66.12813 194.1323Q66.12813 196.24167 66.62813 196.9448Q67.12813 197.64792 67.84688 197.64792Q68.58125 197.64792 69.06563 196.9448Q69.56563 196.24167 69.56563 194.1323Q69.56563 192.0073 69.06563 191.3198Q68.58125 190.61667 67.83125 190.61667Q67.1125 190.61667 66.675 191.22604Q66.12813 192.0073 66.12813 194.1323Z" fill-rule="nonzero"/><path fill="#000000" d="M63.51875 138.84062L62.471874 138.91875Q62.33125 138.29375 62.08125 138.0125Q61.64375 137.55937 61.01875 137.55937Q60.51875 137.55937 60.128124 137.84062Q59.64375 138.21562 59.346874 138.91875Q59.065624 139.60625 59.05 140.8875Q59.425 140.30937 59.971874 140.02812Q60.534374 139.74687 61.14375 139.74687Q62.190624 139.74687 62.925 140.52812Q63.675 141.30937 63.675 142.52812Q63.675 143.34062 63.315624 144.04375Q62.971874 144.73125 62.3625 145.10625Q61.753124 145.46562 60.9875 145.46562Q59.659374 145.46562 58.83125 144.49687Q58.003124 143.52812 58.003124 141.30937Q58.003124 138.80937 58.925 137.68437Q59.721874 136.7 61.08125 136.7Q62.096874 136.7 62.7375 137.27812Q63.39375 137.84062 63.51875 138.84062ZM59.221874 142.54375Q59.221874 143.09062 59.440624 143.59062Q59.675 144.075 60.08125 144.34062Q60.503124 144.60625 60.971874 144.60625Q61.628124 144.60625 62.1125 144.075Q62.596874 143.52812 62.596874 142.60625Q62.596874 141.71562 62.1125 141.2Q61.64375 140.68437 60.925 140.68437Q60.20625 140.68437 59.70625 141.2Q59.221874 141.71562 59.221874 142.54375ZM65.05 141.09062Q65.05 139.55937 65.3625 138.6375Q65.675 137.7 66.28438 137.2Q66.90938 136.7 67.84688 136.7Q68.53438 136.7 69.05 136.98125Q69.58125 137.2625 69.925 137.79375Q70.26875 138.30937 70.45625 139.05937Q70.64375 139.80937 70.64375 141.09062Q70.64375 142.60625 70.33125 143.52812Q70.03438 144.45 69.40938 144.96562Q68.8 145.46562 67.84688 145.46562Q66.6125 145.46562 65.89375 144.575Q65.05 143.5125 65.05 141.09062ZM66.12813 141.09062Q66.12813 143.2 66.62813 143.90312Q67.12813 144.60625 67.84688 144.60625Q68.58125 144.60625 69.06563 143.90312Q69.56563 143.2 69.56563 141.09062Q69.56563 138.96562 69.06563 138.27812Q68.58125 137.575 67.83125 137.575Q67.1125 137.575 66.675 138.18437Q66.12813 138.96562 66.12813 141.09062Z" fill-rule="nonzero"/><path fill="#000000" d="M59.675 87.62708Q59.01875 87.37708 58.690624 86.93958Q58.378124 86.48646 58.378124 85.87708Q58.378124 84.93958 59.05 84.29896Q59.7375 83.65833 60.846874 83.65833Q61.971874 83.65833 62.659374 84.31458Q63.346874 84.97083 63.346874 85.90833Q63.346874 86.50208 63.034374 86.93958Q62.721874 87.37708 62.08125 87.62708Q62.878124 87.87708 63.284374 88.45521Q63.690624 89.03333 63.690624 89.83021Q63.690624 90.92396 62.909374 91.67396Q62.14375 92.42396 60.8625 92.42396Q59.596874 92.42396 58.815624 91.67396Q58.034374 90.92396 58.034374 89.79896Q58.034374 88.95521 58.45625 88.39271Q58.89375 87.83021 59.675 87.62708ZM59.45625 85.83021Q59.45625 86.43958 59.846874 86.83021Q60.253124 87.22083 60.878124 87.22083Q61.4875 87.22083 61.878124 86.84583Q62.26875 86.45521 62.26875 85.89271Q62.26875 85.31458 61.8625 84.92396Q61.45625 84.51771 60.8625 84.51771Q60.253124 84.51771 59.846874 84.90833Q59.45625 85.29896 59.45625 85.83021ZM59.128124 89.79896Q59.128124 90.25208 59.33125 90.67396Q59.55 91.09583 59.971874 91.33021Q60.39375 91.56458 60.878124 91.56458Q61.628124 91.56458 62.1125 91.08021Q62.6125 90.59583 62.6125 89.84583Q62.6125 89.08021 62.1125 88.58021Q61.6125 88.08021 60.846874 88.08021Q60.096874 88.08021 59.6125 88.58021Q59.128124 89.06458 59.128124 89.79896ZM65.05 88.04896Q65.05 86.51771 65.3625 85.59583Q65.675 84.65833 66.28438 84.15833Q66.90938 83.65833 67.84688 83.65833Q68.53438 83.65833 69.05 83.93958Q69.58125 84.22083 69.925 84.75208Q70.26875 85.26771 70.45625 86.01771Q70.64375 86.76771 70.64375 88.04896Q70.64375 89.56458 70.33125 90.48646Q70.03438 91.40833 69.40938 91.92396Q68.8 92.42396 67.84688 92.42396Q66.6125 92.42396 65.89375 91.53333Q65.05 90.47083 65.05 88.04896ZM66.12813 88.04896Q66.12813 90.15833 66.62813 90.86146Q67.12813 91.56458 67.84688 91.56458Q68.58125 91.56458 69.06563 90.86146Q69.56563 90.15833 69.56563 88.04896Q69.56563 85.92396 69.06563 85.23646Q68.58125 84.53333 67.83125 84.53333Q67.1125 84.53333 66.675 85.14271Q66.12813 85.92396 66.12813 88.04896Z" fill-rule="nonzero"/><path fill="#000000" d="M66.05 313.21564Q66.05 311.6844 66.3625 310.7625Q66.675 309.825 67.28438 309.325Q67.90938 308.825 68.84688 308.825Q69.53438 308.825 70.05 309.10626Q70.58125 309.3875 70.925 309.91876Q71.26875 310.4344 71.45625 311.1844Q71.64375 311.9344 71.64375 313.21564Q71.64375 314.73126 71.33125 315.65314Q71.03438 316.575 70.40938 317.09064Q69.8 317.59064 68.84688 317.59064Q67.6125 317.59064 66.89375 316.7Q66.05 315.6375 66.05 313.21564ZM67.12813 313.21564Q67.12813 315.325 67.62813 316.02814Q68.12813 316.73126 68.84688 316.73126Q69.58125 316.73126 70.06563 316.02814Q70.56563 315.325 70.56563 313.21564Q70.56563 311.09064 70.06563 310.40314Q69.58125 309.7 68.83125 309.7Q68.1125 309.7 67.675 310.3094Q67.12813 311.09064 67.12813 313.21564ZM73.64375 317.45L73.64375 316.2469L74.84688 316.2469L74.84688 317.45L73.64375 317.45ZM76.05 313.21564Q76.05 311.6844 76.3625 310.7625Q76.675 309.825 77.28438 309.325Q77.90938 308.825 78.84688 308.825Q79.53438 308.825 80.05 309.10626Q80.58125 309.3875 80.925 309.91876Q81.26875 310.4344 81.45625 311.1844Q81.64375 311.9344 81.64375 313.21564Q81.64375 314.73126 81.33125 315.65314Q81.03438 316.575 80.40938 317.09064Q79.8 317.59064 78.84688 317.59064Q77.6125 317.59064 76.89375 316.7Q76.05 315.6375 76.05 313.21564ZM77.12813 313.21564Q77.12813 315.325 77.62813 316.02814Q78.12813 316.73126 78.84688 316.73126Q79.58125 316.73126 80.06563 316.02814Q80.56563 315.325 80.56563 313.21564Q80.56563 311.09064 80.06563 310.40314Q79.58125 309.7 78.83125 309.7Q78.1125 309.7 77.675 310.3094Q77.12813 311.09064 77.12813 313.21564ZM83.05 313.21564Q83.05 311.6844 83.3625 310.7625Q83.675 309.825 84.28438 309.325Q84.90938 308.825 85.84688 308.825Q86.53438 308.825 87.05 309.10626Q87.58125 309.3875 87.925 309.91876Q88.26875 310.4344 88.45625 311.1844Q88.64375 311.9344 88.64375 313.21564Q88.64375 314.73126 88.33125 315.65314Q88.03438 316.575 87.40938 317.09064Q86.8 317.59064 85.84688 317.59064Q84.6125 317.59064 83.89375 316.7Q83.05 315.6375 83.05 313.21564ZM84.12813 313.21564Q84.12813 315.325 84.62813 316.02814Q85.12813 316.73126 85.84688 316.73126Q86.58125 316.73126 87.06563 316.02814Q87.56563 315.325 87.56563 313.21564Q87.56563 311.09064 87.06563 310.40314Q86.58125 309.7 85.83125 309.7Q85.1125 309.7 84.675 310.3094Q84.12813 311.09064 84.12813 313.21564Z" fill-rule="nonzero"/><path fill="#000000" d="M192.025 313.21564Q192.025 311.6844 192.3375 310.7625Q192.65 309.825 193.25937 309.325Q193.88437 308.825 194.82187 308.825Q195.50937 308.825 196.025 309.10626Q196.55624 309.3875 196.9 309.91876Q197.24374 310.4344 197.43124 311.1844Q197.61874 311.9344 197.61874 313.21564Q197.61874 314.73126 197.30624 315.65314Q197.00937 316.575 196.38437 317.09064Q195.775 317.59064 194.82187 317.59064Q193.5875 317.59064 192.86874 316.7Q192.025 315.6375 192.025 313.21564ZM193.10312 313.21564Q193.10312 315.325 193.60312 316.02814Q194.10312 316.73126 194.82187 316.73126Q195.55624 316.73126 196.04062 316.02814Q196.54062 315.325 196.54062 313.21564Q196.54062 311.09064 196.04062 310.40314Q195.55624 309.7 194.80624 309.7Q194.0875 309.7 193.65 310.3094Q193.10312 311.09064 193.10312 313.21564ZM199.61874 317.45L199.61874 316.2469L200.82187 316.2469L200.82187 317.45L199.61874 317.45ZM207.57187 316.4344L207.57187 317.45L201.88437 317.45Q201.88437 317.075 202.00937 316.71564Q202.22812 316.1375 202.69687 315.575Q203.18124 315.0125 204.0875 314.27814Q205.49374 313.1219 205.97812 312.45Q206.47812 311.77814 206.47812 311.1844Q206.47812 310.5594 206.025 310.1375Q205.57187 309.7 204.85312 309.7Q204.0875 309.7 203.63437 310.15314Q203.18124 310.60626 203.16562 311.41876L202.0875 311.3094Q202.19687 310.09064 202.91562 309.46564Q203.65 308.825 204.88437 308.825Q206.11874 308.825 206.8375 309.5125Q207.55624 310.2 207.55624 311.21564Q207.55624 311.73126 207.3375 312.23126Q207.13437 312.71564 206.63437 313.27814Q206.15 313.825 205.025 314.77814Q204.07187 315.575 203.79062 315.8719Q203.525 316.15314 203.35312 316.4344L207.57187 316.4344ZM209.025 315.2L210.13437 315.10626Q210.25937 315.91876 210.69687 316.325Q211.15 316.73126 211.79062 316.73126Q212.54062 316.73126 213.07187 316.15314Q213.60312 315.575 213.60312 314.6375Q213.60312 313.73126 213.0875 313.21564Q212.5875 312.6844 211.75937 312.6844Q211.25937 312.6844 210.8375 312.91876Q210.43124 313.15314 210.19687 313.5125L209.2125 313.3875L210.04062 308.98126L214.32187 308.98126L214.32187 309.98126L210.88437 309.98126L210.43124 312.29376Q211.19687 311.7469 212.04062 311.7469Q213.16562 311.7469 213.93124 312.52814Q214.7125 313.3094 214.7125 314.54376Q214.7125 315.7 214.04062 316.5594Q213.2125 317.59064 211.79062 317.59064Q210.61874 317.59064 209.86874 316.9344Q209.13437 316.27814 209.025 315.2Z" fill-rule="nonzero"/><path fill="#000000" d="M318.0 313.21564Q318.0 311.6844 318.3125 310.7625Q318.625 309.825 319.23438 309.325Q319.85938 308.825 320.79688 308.825Q321.48438 308.825 322.0 309.10626Q322.53125 309.3875 322.875 309.91876Q323.21875 310.4344 323.40625 311.1844Q323.59375 311.9344 323.59375 313.21564Q323.59375 314.73126 323.28125 315.65314Q322.98438 316.575 322.35938 317.09064Q321.75 317.59064 320.79688 317.59064Q319.5625 317.59064 318.84375 316.7Q318.0 315.6375 318.0 313.21564ZM319.07812 313.21564Q319.07812 315.325 319.57812 316.02814Q320.07812 316.73126 320.79688 316.73126Q321.53125 316.73126 322.01562 316.02814Q322.51562 315.325 322.51562 313.21564Q322.51562 311.09064 322.01562 310.40314Q321.53125 309.7 320.78125 309.7Q320.0625 309.7 319.625 310.3094Q319.07812 311.09064 319.07812 313.21564ZM325.59375 317.45L325.59375 316.2469L326.79688 316.2469L326.79688 317.45L325.59375 317.45ZM328.0 315.2L329.10938 315.10626Q329.23438 315.91876 329.67188 316.325Q330.125 316.73126 330.76562 316.73126Q331.51562 316.73126 332.04688 316.15314Q332.57812 315.575 332.57812 314.6375Q332.57812 313.73126 332.0625 313.21564Q331.5625 312.6844 330.73438 312.6844Q330.23438 312.6844 329.8125 312.91876Q329.40625 313.15314 329.17188 313.5125L328.1875 313.3875L329.01562 308.98126L333.29688 308.98126L333.29688 309.98126L329.85938 309.98126L329.40625 312.29376Q330.17188 311.7469 331.01562 311.7469Q332.14062 311.7469 332.90625 312.52814Q333.6875 313.3094 333.6875 314.54376Q333.6875 315.7 333.01562 316.5594Q332.1875 317.59064 330.76562 317.59064Q329.59375 317.59064 328.84375 316.9344Q328.10938 316.27814 328.0 315.2ZM335.0 313.21564Q335.0 311.6844 335.3125 310.7625Q335.625 309.825 336.23438 309.325Q336.85938 308.825 337.79688 308.825Q338.48438 308.825 339.0 309.10626Q339.53125 309.3875 339.875 309.91876Q340.21875 310.4344 340.40625 311.1844Q340.59375 311.9344 340.59375 313.21564Q340.59375 314.73126 340.28125 315.65314Q339.98438 316.575 339.35938 317.09064Q338.75 317.59064 337.79688 317.59064Q336.5625 317.59064 335.84375 316.7Q335.0 315.6375 335.0 313.21564ZM336.07812 313.21564Q336.07812 315.325 336.57812 316.02814Q337.07812 316.73126 337.79688 316.73126Q338.53125 316.73126 339.01562 316.02814Q339.51562 315.325 339.51562 313.21564Q339.51562 311.09064 339.01562 310.40314Q338.53125 309.7 337.78125 309.7Q337.0625 309.7 336.625 310.3094Q336.07812 311.09064 336.07812 313.21564Z" fill-rule="nonzero"/><path fill="#000000" d="M443.975 313.21564Q443.975 311.6844 444.2875 310.7625Q444.6 309.825 445.20938 309.325Q445.83438 308.825 446.77188 308.825Q447.45938 308.825 447.975 309.10626Q448.50626 309.3875 448.85 309.91876Q449.19376 310.4344 449.38126 311.1844Q449.56876 311.9344 449.56876 313.21564Q449.56876 314.73126 449.25626 315.65314Q448.95938 316.575 448.33438 317.09064Q447.725 317.59064 446.77188 317.59064Q445.5375 317.59064 444.81876 316.7Q443.975 315.6375 443.975 313.21564ZM445.05313 313.21564Q445.05313 315.325 445.55313 316.02814Q446.05313 316.73126 446.77188 316.73126Q447.50626 316.73126 447.99063 316.02814Q448.49063 315.325 448.49063 313.21564Q448.49063 311.09064 447.99063 310.40314Q447.50626 309.7 446.75626 309.7Q446.0375 309.7 445.6 310.3094Q445.05313 311.09064 445.05313 313.21564ZM451.56876 317.45L451.56876 316.2469L452.77188 316.2469L452.77188 317.45L451.56876 317.45ZM454.0375 309.98126L454.0375 308.96564L459.6 308.96564L459.6 309.79376Q458.7875 310.66876 457.975 312.1219Q457.17813 313.5594 456.74063 315.09064Q456.4125 316.16876 456.33438 317.45L455.24063 317.45Q455.25626 316.4344 455.63126 314.9969Q456.02188 313.5594 456.725 312.23126Q457.44376 310.90314 458.25626 309.98126L454.0375 309.98126ZM460.975 315.2L462.08438 315.10626Q462.20938 315.91876 462.64688 316.325Q463.1 316.73126 463.74063 316.73126Q464.49063 316.73126 465.02188 316.15314Q465.55313 315.575 465.55313 314.6375Q465.55313 313.73126 465.0375 313.21564Q464.5375 312.6844 463.70938 312.6844Q463.20938 312.6844 462.7875 312.91876Q462.38126 313.15314 462.14688 313.5125L461.1625 313.3875L461.99063 308.98126L466.27188 308.98126L466.27188 309.98126L462.83438 309.98126L462.38126 312.29376Q463.14688 311.7469 463.99063 311.7469Q465.11563 311.7469 465.88126 312.52814Q466.6625 313.3094 466.6625 314.54376Q466.6625 315.7 465.99063 316.5594Q465.1625 317.59064 463.74063 317.59064Q462.56876 317.59064 461.81876 316.9344Q461.08438 316.27814 460.975 315.2Z" fill-rule="nonzero"/><path fill="#000000" d="M573.91876 317.45L572.8719 317.45L572.8719 310.73126Q572.48126 311.09064 571.85626 311.46564Q571.2469 311.825 570.7625 311.9969L570.7625 310.98126Q571.6375 310.5594 572.29376 309.98126Q572.96564 309.3875 573.2469 308.825L573.91876 308.825L573.91876 317.45ZM577.54376 317.45L577.54376 316.2469L578.7469 316.2469L578.7469 317.45L577.54376 317.45ZM579.95 313.21564Q579.95 311.6844 580.2625 310.7625Q580.575 309.825 581.1844 309.325Q581.8094 308.825 582.7469 308.825Q583.4344 308.825 583.95 309.10626Q584.48126 309.3875 584.825 309.91876Q585.16876 310.4344 585.35626 311.1844Q585.54376 311.9344 585.54376 313.21564Q585.54376 314.73126 585.23126 315.65314Q584.9344 316.575 584.3094 317.09064Q583.7 317.59064 582.7469 317.59064Q581.5125 317.59064 580.79376 316.7Q579.95 315.6375 579.95 313.21564ZM581.02814 313.21564Q581.02814 315.325 581.52814 316.02814Q582.02814 316.73126 582.7469 316.73126Q583.48126 316.73126 583.96564 316.02814Q584.46564 315.325 584.46564 313.21564Q584.46564 311.09064 583.96564 310.40314Q583.48126 309.7 582.73126 309.7Q582.0125 309.7 581.575 310.3094Q581.02814 311.09064 581.02814 313.21564ZM586.95 313.21564Q586.95 311.6844 587.2625 310.7625Q587.575 309.825 588.1844 309.325Q588.8094 308.825 589.7469 308.825Q590.4344 308.825 590.95 309.10626Q591.48126 309.3875 591.825 309.91876Q592.16876 310.4344 592.35626 311.1844Q592.54376 311.9344 592.54376 313.21564Q592.54376 314.73126 592.23126 315.65314Q591.9344 316.575 591.3094 317.09064Q590.7 317.59064 589.7469 317.59064Q588.5125 317.59064 587.79376 316.7Q586.95 315.6375 586.95 313.21564ZM588.02814 313.21564Q588.02814 315.325 588.52814 316.02814Q589.02814 316.73126 589.7469 316.73126Q590.48126 316.73126 590.96564 316.02814Q591.46564 315.325 591.46564 313.21564Q591.46564 311.09064 590.96564 310.40314Q590.48126 309.7 589.73126 309.7Q589.0125 309.7 588.575 310.3094Q588.02814 311.09064 588.02814 313.21564Z" fill-rule="nonzero"/><path fill="#4285f4" d="M220.0 56.916668C220.0 56.364384 220.44771 55.916668 221.0 55.916668L231.0 55.916668C231.55229 55.916668 232.0 56.364384 232.0 56.916668L232.0 66.916664C232.0 67.46895 231.55229 67.916664 231.0 67.916664L221.0 67.916664C220.44771 67.916664 220.0 67.46895 220.0 66.916664Z" fill-rule="nonzero"/><path fill="#1a1a1a" d="M240.79688 68.30729L240.79688 59.697914L241.75 59.697914L241.75 60.49479Q242.09375 60.02604 242.51562 59.791664Q242.95312 59.55729 243.5625 59.55729Q244.35938 59.55729 244.96875 59.96354Q245.57812 60.36979 245.875 61.11979Q246.1875 61.86979 246.1875 62.760414Q246.1875 63.71354 245.84375 64.479164Q245.51562 65.24479 244.85938 65.65104Q244.20312 66.05729 243.48438 66.05729Q242.95312 66.05729 242.53125 65.83854Q242.10938 65.604164 241.84375 65.27604L241.84375 68.30729L240.79688 68.30729ZM241.75 62.83854Q241.75 64.041664 242.23438 64.61979Q242.71875 65.18229 243.40625 65.18229Q244.10938 65.18229 244.60938 64.58854Q245.10938 63.99479 245.10938 62.74479Q245.10938 61.55729 244.625 60.979164Q244.14062 60.385414 243.45312 60.385414Q242.78125 60.385414 242.26562 61.010414Q241.75 61.635414 241.75 62.83854ZM247.40625 62.80729Q247.40625 61.072914 248.35938 60.24479Q249.15625 59.55729 250.3125 59.55729Q251.59375 59.55729 252.40625 60.40104Q253.23438 61.229164 253.23438 62.71354Q253.23438 63.916664 252.875 64.604164Q252.51562 65.291664 251.8125 65.68229Q251.125 66.05729 250.3125 66.05729Q249.01562 66.05729 248.20312 65.229164Q247.40625 64.385414 247.40625 62.80729ZM248.48438 62.80729Q248.48438 63.99479 249.0 64.58854Q249.53125 65.18229 250.3125 65.18229Q251.10938 65.18229 251.625 64.58854Q252.14062 63.99479 252.14062 62.77604Q252.14062 61.61979 251.60938 61.02604Q251.09375 60.43229 250.3125 60.43229Q249.53125 60.43229 249.0 61.02604Q248.48438 61.604164 248.48438 62.80729ZM254.375 64.05729L255.40625 63.90104Q255.5 64.52604 255.89062 64.854164Q256.29688 65.18229 257.03125 65.18229Q257.75 65.18229 258.09375 64.90104Q258.45312 64.604164 258.45312 64.197914Q258.45312 63.83854 258.14062 63.635414Q257.92188 63.49479 257.0625 63.27604Q255.90625 62.979164 255.45312 62.77604Q255.01562 62.55729 254.78125 62.18229Q254.54688 61.80729 254.54688 61.33854Q254.54688 60.93229 254.73438 60.572914Q254.92188 60.21354 255.25 59.979164Q255.5 59.80729 255.92188 59.68229Q256.34375 59.55729 256.84375 59.55729Q257.5625 59.55729 258.10938 59.77604Q258.67188 59.979164 258.9375 60.33854Q259.20312 60.697914 259.29688 61.291664L258.26562 61.43229Q258.20312 60.96354 257.85938 60.697914Q257.53125 60.416664 256.90625 60.416664Q256.1875 60.416664 255.875 60.666664Q255.5625 60.90104 255.5625 61.229164Q255.5625 61.43229 255.6875 61.58854Q255.82812 61.760414 256.09375 61.86979Q256.25 61.93229 257.03125 62.135414Q258.15625 62.447914 258.59375 62.635414Q259.03125 62.822914 259.28125 63.18229Q259.53125 63.541664 259.53125 64.08854Q259.53125 64.61979 259.21875 65.08854Q258.92188 65.541664 258.34375 65.80729Q257.76562 66.05729 257.03125 66.05729Q255.8125 66.05729 255.17188 65.55729Q254.54688 65.041664 254.375 64.05729ZM264.09375 64.979164L264.25 65.90104Q263.79688 65.99479 263.45312 65.99479Q262.875 65.99479 262.5625 65.822914Q262.25 65.635414 262.10938 65.33854Q261.98438 65.041664 261.98438 64.08854L261.98438 60.510414L261.21875 60.510414L261.21875 59.697914L261.98438 59.697914L261.98438 58.15104L263.03125 57.52604L263.03125 59.697914L264.09375 59.697914L264.09375 60.510414L263.03125 60.510414L263.03125 64.15104Q263.03125 64.604164 263.07812 64.729164Q263.14062 64.854164 263.26562 64.93229Q263.39062 65.010414 263.625 65.010414Q263.8125 65.010414 264.09375 64.979164ZM264.375 63.33854L264.375 62.27604L267.625 62.27604L267.625 63.33854L264.375 63.33854ZM268.79688 68.30729L268.79688 59.697914L269.75 59.697914L269.75 60.49479Q270.09375 60.02604 270.51562 59.791664Q270.95312 59.55729 271.5625 59.55729Q272.35938 59.55729 272.96875 59.96354Q273.57812 60.36979 273.875 61.11979Q274.1875 61.86979 274.1875 62.760414Q274.1875 63.71354 273.84375 64.479164Q273.51562 65.24479 272.85938 65.65104Q272.20312 66.05729 271.48438 66.05729Q270.95312 66.05729 270.53125 65.83854Q270.10938 65.604164 269.84375 65.27604L269.84375 68.30729L268.79688 68.30729ZM269.75 62.83854Q269.75 64.041664 270.23438 64.61979Q270.71875 65.18229 271.40625 65.18229Q272.10938 65.18229 272.60938 64.58854Q273.10938 63.99479 273.10938 62.74479Q273.10938 61.55729 272.625 60.979164Q272.14062 60.385414 271.45312 60.385414Q270.78125 60.385414 270.26562 61.010414Q269.75 61.635414 269.75 62.83854ZM280.04688 63.916664L281.14062 64.041664Q280.89062 64.99479 280.1875 65.52604Q279.48438 66.05729 278.40625 66.05729Q277.04688 66.05729 276.23438 65.21354Q275.4375 64.36979 275.4375 62.854164Q275.4375 61.291664 276.25 60.43229Q277.0625 59.55729 278.34375 59.55729Q279.59375 59.55729 280.375 60.40104Q281.17188 61.24479 281.17188 62.791664Q281.17188 62.885414 281.17188 63.072914L276.53125 63.072914Q276.59375 64.104164 277.10938 64.65104Q277.625 65.18229 278.40625 65.18229Q278.98438 65.18229 279.39062 64.885414Q279.8125 64.572914 280.04688 63.916664ZM276.59375 62.21354L280.0625 62.21354Q280.0 61.416664 279.67188 61.02604Q279.15625 60.416664 278.35938 60.416664Q277.625 60.416664 277.125 60.90104Q276.64062 61.385414 276.59375 62.21354ZM286.85938 65.15104Q286.26562 65.65104 285.71875 65.854164Q285.1875 66.05729 284.5625 66.05729Q283.53125 66.05729 282.98438 65.55729Q282.4375 65.05729 282.4375 64.27604Q282.4375 63.822914 282.64062 63.447914Q282.84375 63.05729 283.1875 62.83854Q283.53125 62.604164 283.95312 62.49479Q284.25 62.40104 284.89062 62.322914Q286.15625 62.18229 286.76562 61.96354Q286.76562 61.74479 286.76562 61.697914Q286.76562 61.041664 286.46875 60.77604Q286.0625 60.43229 285.26562 60.43229Q284.53125 60.43229 284.17188 60.697914Q283.8125 60.947914 283.64062 61.604164L282.60938 61.46354Q282.75 60.80729 283.07812 60.40104Q283.40625 59.99479 284.01562 59.77604Q284.625 59.55729 285.42188 59.55729Q286.21875 59.55729 286.71875 59.74479Q287.21875 59.93229 287.45312 60.21354Q287.6875 60.49479 287.78125 60.93229Q287.82812 61.197914 287.82812 61.90104L287.82812 63.30729Q287.82812 64.77604 287.89062 65.166664Q287.96875 65.55729 288.17188 65.916664L287.0625 65.916664Q286.90625 65.58854 286.85938 65.15104ZM286.76562 62.791664Q286.1875 63.02604 285.04688 63.197914Q284.39062 63.291664 284.125 63.416664Q283.85938 63.52604 283.70312 63.74479Q283.5625 63.96354 283.5625 64.24479Q283.5625 64.666664 283.875 64.947914Q284.20312 65.229164 284.8125 65.229164Q285.42188 65.229164 285.89062 64.96354Q286.375 64.697914 286.59375 64.229164Q286.76562 63.86979 286.76562 63.18229L286.76562 62.791664ZM289.79688 65.916664L289.79688 57.322914L290.85938 57.322914L290.85938 62.229164L293.34375 59.697914L294.71875 59.697914L292.32812 61.99479L294.95312 65.916664L293.65625 65.916664L291.59375 62.729164L290.85938 63.447914L290.85938 65.916664L289.79688 65.916664Z" fill-rule="nonzero"/><path fill="#ea4335" d="M311.0 56.916668C311.0 56.364384 311.44772 55.916668 312.0 55.916668L322.0 55.916668C322.55228 55.916668 323.0 56.364384 323.0 56.916668L323.0 66.916664C323.0 67.46895 322.55228 67.916664 322.0 67.916664L312.0 67.916664C311.44772 67.916664 311.0 67.46895 311.0 66.916664Z" fill-rule="nonzero"/><path fill="#1a1a1a" d="M331.79688 68.30729L331.79688 59.697914L332.75 59.697914L332.75 60.49479Q333.09375 60.02604 333.51562 59.791664Q333.95312 59.55729 334.5625 59.55729Q335.35938 59.55729 335.96875 59.96354Q336.57812 60.36979 336.875 61.11979Q337.1875 61.86979 337.1875 62.760414Q337.1875 63.71354 336.84375 64.479164Q336.51562 65.24479 335.85938 65.65104Q335.20312 66.05729 334.48438 66.05729Q333.95312 66.05729 333.53125 65.83854Q333.10938 65.604164 332.84375 65.27604L332.84375 68.30729L331.79688 68.30729ZM332.75 62.83854Q332.75 64.041664 333.23438 64.61979Q333.71875 65.18229 334.40625 65.18229Q335.10938 65.18229 335.60938 64.58854Q336.10938 63.99479 336.10938 62.74479Q336.10938 61.55729 335.625 60.979164Q335.14062 60.385414 334.45312 60.385414Q333.78125 60.385414 333.26562 61.010414Q332.75 61.635414 332.75 62.83854ZM338.78125 65.916664L338.78125 59.697914L339.73438 59.697914L339.73438 60.635414Q340.09375 59.979164 340.39062 59.77604Q340.70312 59.55729 341.07812 59.55729Q341.60938 59.55729 342.15625 59.885414L341.79688 60.86979Q341.40625 60.635414 341.03125 60.635414Q340.67188 60.635414 340.39062 60.854164Q340.125 61.05729 340.01562 61.43229Q339.82812 61.99479 339.82812 62.65104L339.82812 65.916664L338.78125 65.916664ZM347.04688 63.916664L348.14062 64.041664Q347.89062 64.99479 347.1875 65.52604Q346.48438 66.05729 345.40625 66.05729Q344.04688 66.05729 343.23438 65.21354Q342.4375 64.36979 342.4375 62.854164Q342.4375 61.291664 343.25 60.43229Q344.0625 59.55729 345.34375 59.55729Q346.59375 59.55729 347.375 60.40104Q348.17188 61.24479 348.17188 62.791664Q348.17188 62.885414 348.17188 63.072914L343.53125 63.072914Q343.59375 64.104164 344.10938 64.65104Q344.625 65.18229 345.40625 65.18229Q345.98438 65.18229 346.39062 64.885414Q346.8125 64.572914 347.04688 63.916664ZM343.59375 62.21354L347.0625 62.21354Q347.0 61.416664 346.67188 61.02604Q346.15625 60.416664 345.35938 60.416664Q344.625 60.416664 344.125 60.90104Q343.64062 61.385414 343.59375 62.21354ZM349.375 63.33854L349.375 62.27604L352.625 62.27604L352.625 63.33854L349.375 63.33854ZM353.79688 68.30729L353.79688 59.697914L354.75 59.697914L354.75 60.49479Q355.09375 60.02604 355.51562 59.791664Q355.95312 59.55729 356.5625 59.55729Q357.35938 59.55729 357.96875 59.96354Q358.57812 60.36979 358.875 61.11979Q359.1875 61.86979 359.1875 62.760414Q359.1875 63.71354 358.84375 64.479164Q358.51562 65.24479 357.85938 65.65104Q357.20312 66.05729 356.48438 66.05729Q355.95312 66.05729 355.53125 65.83854Q355.10938 65.604164 354.84375 65.27604L354.84375 68.30729L353.79688 68.30729ZM354.75 62.83854Q354.75 64.041664 355.23438 64.61979Q355.71875 65.18229 356.40625 65.18229Q357.10938 65.18229 357.60938 64.58854Q358.10938 63.99479 358.10938 62.74479Q358.10938 61.55729 357.625 60.979164Q357.14062 60.385414 356.45312 60.385414Q355.78125 60.385414 355.26562 61.010414Q354.75 61.635414 354.75 62.83854ZM365.04688 63.916664L366.14062 64.041664Q365.89062 64.99479 365.1875 65.52604Q364.48438 66.05729 363.40625 66.05729Q362.04688 66.05729 361.23438 65.21354Q360.4375 64.36979 360.4375 62.854164Q360.4375 61.291664 361.25 60.43229Q362.0625 59.55729 363.34375 59.55729Q364.59375 59.55729 365.375 60.40104Q366.17188 61.24479 366.17188 62.791664Q366.17188 62.885414 366.17188 63.072914L361.53125 63.072914Q361.59375 64.104164 362.10938 64.65104Q362.625 65.18229 363.40625 65.18229Q363.98438 65.18229 364.39062 64.885414Q364.8125 64.572914 365.04688 63.916664ZM361.59375 62.21354L365.0625 62.21354Q365.0 61.416664 364.67188 61.02604Q364.15625 60.416664 363.35938 60.416664Q362.625 60.416664 362.125 60.90104Q361.64062 61.385414 361.59375 62.21354ZM371.85938 65.15104Q371.26562 65.65104 370.71875 65.854164Q370.1875 66.05729 369.5625 66.05729Q368.53125 66.05729 367.98438 65.55729Q367.4375 65.05729 367.4375 64.27604Q367.4375 63.822914 367.64062 63.447914Q367.84375 63.05729 368.1875 62.83854Q368.53125 62.604164 368.95312 62.49479Q369.25 62.40104 369.89062 62.322914Q371.15625 62.18229 371.76562 61.96354Q371.76562 61.74479 371.76562 61.697914Q371.76562 61.041664 371.46875 60.77604Q371.0625 60.43229 370.26562 60.43229Q369.53125 60.43229 369.17188 60.697914Q368.8125 60.947914 368.64062 61.604164L367.60938 61.46354Q367.75 60.80729 368.07812 60.40104Q368.40625 59.99479 369.01562 59.77604Q369.625 59.55729 370.42188 59.55729Q371.21875 59.55729 371.71875 59.74479Q372.21875 59.93229 372.45312 60.21354Q372.6875 60.49479 372.78125 60.93229Q372.82812 61.197914 372.82812 61.90104L372.82812 63.30729Q372.82812 64.77604 372.89062 65.166664Q372.96875 65.55729 373.17188 65.916664L372.0625 65.916664Q371.90625 65.58854 371.85938 65.15104ZM371.76562 62.791664Q371.1875 63.02604 370.04688 63.197914Q369.39062 63.291664 369.125 63.416664Q368.85938 63.52604 368.70312 63.74479Q368.5625 63.96354 368.5625 64.24479Q368.5625 64.666664 368.875 64.947914Q369.20312 65.229164 369.8125 65.229164Q370.42188 65.229164 370.89062 64.96354Q371.375 64.697914 371.59375 64.229164Q371.76562 63.86979 371.76562 63.18229L371.76562 62.791664ZM374.79688 65.916664L374.79688 57.322914L375.85938 57.322914L375.85938 62.229164L378.34375 59.697914L379.71875 59.697914L377.32812 61.99479L379.95312 65.916664L378.65625 65.916664L376.59375 62.729164L375.85938 63.447914L375.85938 65.916664L374.79688 65.916664Z" fill-rule="nonzero"/><path fill="#000000" d="M246.21875 32.89375L249.03125 32.6125Q249.29688 34.034374 250.0625 34.70625Q250.84375 35.3625 252.15625 35.3625Q253.5625 35.3625 254.26562 34.76875Q254.96875 34.175 254.96875 33.39375Q254.96875 32.878124 254.67188 32.534374Q254.375 32.175 253.64062 31.909374Q253.125 31.721874 251.32812 31.284374Q249.0 30.70625 248.0625 29.8625Q246.73438 28.675 246.73438 26.9875Q246.73438 25.89375 247.35938 24.940624Q247.98438 23.9875 249.14062 23.4875Q250.3125 22.9875 251.96875 22.9875Q254.65625 22.9875 256.01562 24.175Q257.39062 25.346874 257.45312 27.33125L254.5625 27.45625Q254.375 26.346874 253.76562 25.8625Q253.15625 25.378124 251.9375 25.378124Q250.67188 25.378124 249.96875 25.89375Q249.5 26.2375 249.5 26.784374Q249.5 27.3 249.9375 27.659374Q250.48438 28.1125 252.59375 28.6125Q254.70312 29.1125 255.70312 29.64375Q256.71875 30.175 257.28125 31.096874Q257.85938 32.01875 257.85938 33.378124Q257.85938 34.6125 257.17188 35.690624Q256.5 36.753124 255.25 37.284374Q254.0 37.8 252.125 37.8Q249.42188 37.8 247.95312 36.55Q246.5 35.3 246.21875 32.89375ZM266.375 37.55L263.625 37.55L263.625 27.20625Q262.125 28.6125 260.07812 29.284374L260.07812 26.8Q261.15625 26.440624 262.40625 25.471874Q263.67188 24.4875 264.14062 23.175L266.375 23.175L266.375 37.55ZM279.625 35.003124L279.625 37.55L270.0 37.55Q270.15625 36.096874 270.9375 34.815624Q271.71875 33.51875 274.01562 31.378124Q275.875 29.64375 276.29688 29.034374Q276.85938 28.190624 276.85938 27.346874Q276.85938 26.440624 276.35938 25.95625Q275.875 25.45625 275.01562 25.45625Q274.15625 25.45625 273.64062 25.971874Q273.14062 26.4875 273.0625 27.690624L270.32812 27.409374Q270.5625 25.14375 271.84375 24.159374Q273.14062 23.175 275.07812 23.175Q277.20312 23.175 278.40625 24.315624Q279.625 25.45625 279.625 27.159374Q279.625 28.128124 279.26562 29.003124Q278.92188 29.878124 278.17188 30.83125Q277.67188 31.471874 276.375 32.659374Q275.07812 33.846874 274.73438 34.2375Q274.39062 34.628124 274.17188 35.003124L279.625 35.003124ZM290.78125 37.55L286.60938 27.175L289.48438 27.175L291.4375 32.471874L292.01562 34.2375Q292.23438 33.565624 292.29688 33.346874Q292.42188 32.909374 292.57812 32.471874L294.5625 27.175L297.375 27.175L293.26562 37.55L290.78125 37.55ZM297.96875 34.596874L300.71875 34.175Q300.90625 34.971874 301.4375 35.39375Q301.96875 35.8 302.9375 35.8Q304.0 35.8 304.54688 35.409374Q304.90625 35.14375 304.90625 34.675Q304.90625 34.3625 304.70312 34.159374Q304.5 33.971874 303.79688 33.8Q300.46875 33.065624 299.57812 32.45625Q298.34375 31.628124 298.34375 30.128124Q298.34375 28.784374 299.40625 27.8625Q300.48438 26.940624 302.71875 26.940624Q304.84375 26.940624 305.875 27.64375Q306.92188 28.33125 307.3125 29.690624L304.71875 30.159374Q304.54688 29.565624 304.07812 29.2375Q303.625 28.909374 302.76562 28.909374Q301.6875 28.909374 301.21875 29.221874Q300.90625 29.440624 300.90625 29.76875Q300.90625 30.065624 301.17188 30.26875Q301.54688 30.55 303.73438 31.05Q305.92188 31.55 306.79688 32.26875Q307.65625 33.003124 307.65625 34.3Q307.65625 35.7375 306.46875 36.76875Q305.28125 37.784374 302.9375 37.784374Q300.82812 37.784374 299.57812 36.925Q298.34375 36.065624 297.96875 34.596874ZM320.6875 27.175L320.6875 29.3625L318.8125 29.3625L318.8125 33.55Q318.8125 34.815624 318.85938 35.034374Q318.92188 35.2375 319.10938 35.378124Q319.3125 35.503124 319.57812 35.503124Q319.95312 35.503124 320.6875 35.2375L320.92188 37.378124Q319.95312 37.784374 318.75 37.784374Q318.0 37.784374 317.40625 37.534374Q316.8125 37.284374 316.53125 36.89375Q316.26562 36.4875 316.15625 35.815624Q316.0625 35.346874 316.0625 33.89375L316.0625 29.3625L314.79688 29.3625L314.79688 27.175L316.0625 27.175L316.0625 25.1125L318.8125 23.51875L318.8125 27.175L320.6875 27.175ZM322.9375 25.76875L322.9375 23.2375L325.6875 23.2375L325.6875 25.76875L322.9375 25.76875ZM322.9375 37.55L322.9375 27.175L325.6875 27.175L325.6875 37.55L322.9375 37.55ZM327.73438 27.175L330.26562 27.175L330.26562 28.596874Q331.625 26.940624 333.5 26.940624Q334.48438 26.940624 335.21875 27.3625Q335.95312 27.76875 336.42188 28.596874Q337.10938 27.76875 337.89062 27.3625Q338.6875 26.940624 339.59375 26.940624Q340.73438 26.940624 341.51562 27.409374Q342.3125 27.878124 342.70312 28.76875Q342.98438 29.440624 342.98438 30.925L342.98438 37.55L340.23438 37.55L340.23438 31.628124Q340.23438 30.08125 339.95312 29.628124Q339.57812 29.05 338.78125 29.05Q338.20312 29.05 337.6875 29.409374Q337.1875 29.753124 336.96875 30.425Q336.75 31.096874 336.75 32.565624L336.75 37.55L334.0 37.55L334.0 31.8625Q334.0 30.346874 333.84375 29.909374Q333.70312 29.471874 333.39062 29.26875Q333.09375 29.05 332.5625 29.05Q331.9375 29.05 331.42188 29.39375Q330.92188 29.721874 330.6875 30.378124Q330.46875 31.01875 330.46875 32.503124L330.46875 37.55L327.73438 37.55L327.73438 27.175ZM350.9375 34.253124L353.67188 34.70625Q353.15625 36.20625 352.01562 37.003124Q350.875 37.784374 349.17188 37.784374Q346.45312 37.784374 345.15625 36.01875Q344.14062 34.596874 344.14062 32.440624Q344.14062 29.8625 345.48438 28.409374Q346.82812 26.940624 348.89062 26.940624Q351.20312 26.940624 352.53125 28.471874Q353.875 30.003124 353.82812 33.159374L346.95312 33.159374Q346.98438 34.378124 347.60938 35.065624Q348.25 35.7375 349.1875 35.7375Q349.84375 35.7375 350.28125 35.39375Q350.71875 35.034374 350.9375 34.253124ZM351.09375 31.471874Q351.0625 30.284374 350.46875 29.675Q349.89062 29.05 349.0625 29.05Q348.15625 29.05 347.57812 29.690624Q346.98438 30.346874 347.0 31.471874L351.09375 31.471874Z" fill-rule="nonzero"/></svg>