<svg version="1.1" viewBox="0.0 0.0 600.0 371.0" fill="none" stroke="none" stroke-linecap="square" stroke-miterlimit="10" width="600" height="371" xmlns:xlink="http://www.w3.org/1999/xlink" xmlns="http://www.w3.org/2000/svg"><path fill="#ffffff" d="M0 0L600.0 0L600.0 371.0L0 371.0L0 0Z" fill-rule="nonzero"/><path stroke="#333333" stroke-width="1.0" stroke-linecap="butt" d="M77.5 61.5L77.5 300.5" fill-rule="nonzero"/><path stroke="#cccccc" stroke-width="1.0" stroke-linecap="butt" d="M178.5 61.5L178.5 300.5" fill-rule="nonzero"/><path stroke="#cccccc" stroke-width="1.0" stroke-linecap="butt" d="M279.5 61.5L279.5 300.5" fill-rule="nonzero"/><path stroke="#cccccc" stroke-width="1.0" stroke-linecap="butt" d="M380.5 61.5L380.5 300.5" fill-rule="nonzero"/><path stroke="#cccccc" stroke-width="1.0" stroke-linecap="butt" d="M480.5 61.5L480.5 300.5" fill-rule="nonzero"/><path stroke="#333333" stroke-width="1.0" stroke-linecap="butt" d="M77.5 300.5L581.5 300.5" fill-rule="nonzero"/><path stroke="#cccccc" stroke-width="1.0" stroke-linecap="butt" d="M77.5 240.5L581.5 240.5" fill-rule="nonzero"/><path stroke="#cccccc" stroke-width="1.0" stroke-linecap="butt" d="M77.5 181.5L581.5 181.5" fill-rule="nonzero"/><path stroke="#cccccc" stroke-width="1.0" stroke-linecap="butt" d="M77.5 121.5L581.5 121.5" fill-rule="nonzero"/><path stroke="#cccccc" stroke-width="1.0" stroke-linecap="butt" d="M77.5 61.5L581.5 61.5" fill-rule="nonzero"/><clipPath id="id_0"><path d="M77.55 61.916668L581.45 61.916668L581.45 300.45L77.55 300.45L77.55 61.916668Z" clip-rule="nonzero"/></clipPath><path fill="#34a853" fill-opacity="0.3019608" clip-path="url(#id_0)" d="M77.55 181.20927L77.55 174.6499L77.55 168.09053L77.55 161.53146L77.55 154.97209L77.55 148.41273L77.55 141.85365L77.55 135.29459L77.55 128.73552L77.55 122.176445L77.55 115.61738L77.55 109.058304L77.55 102.499535L77.55 95.94047L77.55 89.38169L77.55 82.82292L77.55 76.264145L77.55 69.70567L77.5501 63.1472L95.53671 79.99332L113.52332 96.83944L131.50984 113.685555L149.49635 130.53168L167.48276 147.37779L185.46887 164.2239L203.45569 181.07002L221.4415 197.91585L239.42729 214.76167L257.41412 231.60779L275.3999 248.45361L293.3857 265.29944L311.3705 282.14505L329.35632 298.9907L335.5156 300.44763L340.55472 300.44757L345.59488 300.44757L350.634 300.44757L355.67313 300.44757L360.71225 300.44757L365.7514 300.44757L370.79053 300.44757L375.82965 300.4476L380.86777 300.4476L385.90692 300.4476L390.94504 300.4476L395.98416 300.4476L401.02228 300.4476L406.06143 300.4476L411.09955 300.4476L416.13766 300.4476L421.17578 300.4476L426.2139 300.4476L431.25204 300.4476L436.29016 300.4476L441.32828 300.4476L446.3654 300.4476L451.4035 300.4476L456.44064 300.4476L461.47876 300.4476L466.51587 300.4476L471.55298 300.4476L476.5901 300.4476L481.62723 300.4476L486.66434 300.4476L491.70145 300.4476L496.73856 300.4476L501.77466 300.4476L506.81177 300.4476L511.84787 300.4476L516.884 300.4476L521.9211 300.4476L526.9572 300.4476L531.9923 300.4476L537.02844 300.4476L542.0645 300.4476L547.10065 300.4476L552.13574 300.4476L557.17084 300.4476L562.2069 300.4476L567.242 300.4476L572.2771 300.4476L577.31226 300.4476L581.45 300.4476L581.45 300.45L577.31226 300.45L572.2771 300.45L567.242 300.45L562.2069 300.45L557.17084 300.45L552.13574 300.45L547.10065 300.45L542.0645 300.45L537.02844 300.45L531.9923 300.45L526.9572 300.45L521.9211 300.45L516.884 300.45L511.84787 300.45L506.81177 300.45L501.77466 300.45L496.73856 300.45L491.70145 300.45L486.66434 300.45L481.62723 300.45L476.5901 300.45L471.55298 300.45L466.51587 300.45L461.47876 300.45L456.44064 300.45L451.4035 300.45L446.3654 300.45L441.32828 300.45L436.29016 300.45L431.25204 300.45L426.2139 300.45L421.17578 300.45L416.13766 300.45L411.09955 300.45L406.06143 300.45L401.02228 300.45L395.98416 300.45L390.94504 300.45L385.90692 300.45L380.86777 300.45L375.82965 300.45L370.79053 300.45L365.7514 300.45L360.71225 300.45L355.67313 300.45L350.634 300.45L345.59488 300.45L340.55472 300.45L335.5156 300.45L329.35632 300.45L311.3705 300.45L293.3857 300.45L275.3999 300.45L257.41412 300.45L239.42729 300.45L221.4415 300.45L203.45569 300.45L185.46887 300.45L167.48276 300.45L149.49635 300.45L131.50984 300.45L113.52332 300.45L95.53671 300.45L77.5501 300.45L77.55 300.45L77.55 300.45L77.55 300.45L77.55 300.45L77.55 300.45L77.55 300.45L77.55 300.45L77.55 300.45L77.55 300.45L77.55 300.45L77.55 300.45L77.55 300.45L77.55 300.45L77.55 300.45L77.55 300.45L77.55 300.45L77.55 300.45L77.55 300.45Z" fill-rule="nonzero"/><path stroke="#34a853" stroke-width="2.0" stroke-linecap="butt" clip-path="url(#id_0)" d="M77.55 181.20927L77.55 174.6499L77.55 168.09053L77.55 161.53146L77.55 154.97209L77.55 148.41273L77.55 141.85365L77.55 135.29459L77.55 128.73552L77.55 122.176445L77.55 115.61738L77.55 109.058304L77.55 102.499535L77.55 95.94047L77.55 89.38169L77.55 82.82292L77.55 76.264145L77.55 69.70567L77.5501 63.1472L95.53671 79.99332L113.52332 96.83944L131.50984 113.685555L149.49635 130.53168L167.48276 147.37779L185.46887 164.2239L203.45569 181.07002L221.4415 197.91585L239.42729 214.76167L257.41412 231.60779L275.3999 248.45361L293.3857 265.29944L311.3705 282.14505L329.35632 298.9907L335.5156 300.44763L340.55472 300.44757L345.59488 300.44757L350.634 300.44757L355.67313 300.44757L360.71225 300.44757L365.7514 300.44757L370.79053 300.44757L375.82965 300.4476L380.86777 300.4476L385.90692 300.4476L390.94504 300.4476L395.98416 300.4476L401.02228 300.4476L406.06143 300.4476L411.09955 300.4476L416.13766 300.4476L421.17578 300.4476L426.2139 300.4476L431.25204 300.4476L436.29016 300.4476L441.32828 300.4476L446.3654 300.4476L451.4035 300.4476L456.44064 300.4476L461.47876 300.4476L466.51587 300.4476L471.55298 300.4476L476.5901 300.4476L481.62723 300.4476L486.66434 300.4476L491.70145 300.4476L496.73856 300.4476L501.77466 300.4476L506.81177 300.4476L511.84787 300.4476L516.884 300.4476L521.9211 300.4476L526.9572 300.4476L531.9923 300.4476L537.02844 300.4476L542.0645 300.4476L547.10065 300.4476L552.13574 300.4476L557.17084 300.4476L562.2069 300.4476L567.242 300.4476L572.2771 300.4476L577.31226 300.4476L581.45 300.4476" fill-rule="nonzero"/><path fill="#000000" fill-opacity="0.0" clip-path="url(#id_0)" d="M80.55 181.20927C80.55 182.86613 79.206856 184.20927 77.55 184.20927C75.89314 184.20927 74.55 182.86613 74.55 181.20927C74.55 179.55241 75.89314 178.20927 77.55 178.20927C79.206856 178.20927 80.55 179.55241 80.55 181.20927Z" fill-rule="nonzero"/><path fill="#000000" fill-opacity="0.0" clip-path="url(#id_0)" d="M80.55 174.6499C80.55 176.30676 79.206856 177.6499 77.55 177.6499C75.89314 177.6499 74.55 176.30676 74.55 174.6499C74.55 172.99306 75.89314 171.6499 77.55 171.6499C79.206856 171.6499 80.55 172.99306 80.55 174.6499Z" fill-rule="nonzero"/><path fill="#000000" fill-opacity="0.0" clip-path="url(#id_0)" d="M80.55 168.09053C80.55 169.74739 79.206856 171.09053 77.55 171.09053C75.89314 171.09053 74.55 169.74739 74.55 168.09053C74.55 166.43369 75.89314 165.09053 77.55 165.09053C79.206856 165.09053 80.55 166.43369 80.55 168.09053Z" fill-rule="nonzero"/><path fill="#000000" fill-opacity="0.0" clip-path="url(#id_0)" d="M80.55 161.53146C80.55 163.18832 79.206856 164.53146 77.55 164.53146C75.89314 164.53146 74.55 163.18832 74.55 161.53146C74.55 159.87462 75.89314 158.53146 77.55 158.53146C79.206856 158.53146 80.55 159.87462 80.55 161.53146Z" fill-rule="nonzero"/><path fill="#000000" fill-opacity="0.0" clip-path="url(#id_0)" d="M80.55 154.97209C80.55 156.62895 79.206856 157.97209 77.55 157.97209C75.89314 157.97209 74.55 156.62895 74.55 154.97209C74.55 153.31525 75.89314 151.97209 77.55 151.97209C79.206856 151.97209 80.55 153.31525 80.55 154.97209Z" fill-rule="nonzero"/><path fill="#000000" fill-opacity="0.0" clip-path="url(#id_0)" d="M80.55 148.41273C80.55 150.06958 79.206856 151.41273 77.55 151.41273C75.89314 151.41273 74.55 150.06958 74.55 148.41273C74.55 146.75587 75.89314 145.41273 77.55 145.41273C79.206856 145.41273 80.55 146.75587 80.55 148.41273Z" fill-rule="nonzero"/><path fill="#000000" fill-opacity="0.0" clip-path="url(#id_0)" d="M80.55 141.85365C80.55 143.51051 79.206856 144.85365 77.55 144.85365C75.89314 144.85365 74.55 143.51051 74.55 141.85365C74.55 140.19681 75.89314 138.85365 77.55 138.85365C79.206856 138.85365 80.55 140.19681 80.55 141.85365Z" fill-rule="nonzero"/><path fill="#000000" fill-opacity="0.0" clip-path="url(#id_0)" d="M80.55 135.29459C80.55 136.95145 79.206856 138.29459 77.55 138.29459C75.89314 138.29459 74.55 136.95145 74.55 135.29459C74.55 133.63774 75.89314 132.29459 77.55 132.29459C79.206856 132.29459 80.55 133.63774 80.55 135.29459Z" fill-rule="nonzero"/><path fill="#000000" fill-opacity="0.0" clip-path="url(#id_0)" d="M80.55 128.73552C80.55 130.39238 79.206856 131.73552 77.55 131.73552C75.89314 131.73552 74.55 130.39238 74.55 128.73552C74.55 127.07867 75.89314 125.73552 77.55 125.73552C79.206856 125.73552 80.55 127.07867 80.55 128.73552Z" fill-rule="nonzero"/><path fill="#000000" fill-opacity="0.0" clip-path="url(#id_0)" d="M80.55 122.176445C80.55 123.833305 79.206856 125.176445 77.55 125.176445C75.89314 125.176445 74.55 123.833305 74.55 122.176445C74.55 120.51959 75.89314 119.176445 77.55 119.176445C79.206856 119.176445 80.55 120.51959 80.55 122.176445Z" fill-rule="nonzero"/><path fill="#000000" fill-opacity="0.0" clip-path="url(#id_0)" d="M80.55 115.61738C80.55 117.27423 79.206856 118.61738 77.55 118.61738C75.89314 118.61738 74.55 117.27423 74.55 115.61738C74.55 113.960526 75.89314 112.61738 77.55 112.61738C79.206856 112.61738 80.55 113.960526 80.55 115.61738Z" fill-rule="nonzero"/><path fill="#000000" fill-opacity="0.0" clip-path="url(#id_0)" d="M80.55 109.058304C80.55 110.715164 79.206856 112.058304 77.55 112.058304C75.89314 112.058304 74.55 110.715164 74.55 109.058304C74.55 107.40145 75.89314 106.058304 77.55 106.058304C79.206856 106.058304 80.55 107.40145 80.55 109.058304Z" fill-rule="nonzero"/><path fill="#000000" fill-opacity="0.0" clip-path="url(#id_0)" d="M80.55 102.499535C80.55 104.15639 79.206856 105.499535 77.55 105.499535C75.89314 105.499535 74.55 104.15639 74.55 102.499535C74.55 100.84268 75.89314 99.499535 77.55 99.499535C79.206856 99.499535 80.55 100.84268 80.55 102.499535Z" fill-rule="nonzero"/><path fill="#000000" fill-opacity="0.0" clip-path="url(#id_0)" d="M80.55 95.94047C80.55 97.59732 79.206856 98.94047 77.55 98.94047C75.89314 98.94047 74.55 97.59732 74.55 95.94047C74.55 94.28361 75.89314 92.94047 77.55 92.94047C79.206856 92.94047 80.55 94.28361 80.55 95.94047Z" fill-rule="nonzero"/><path fill="#000000" fill-opacity="0.0" clip-path="url(#id_0)" d="M80.55 89.38169C80.55 91.03854 79.206856 92.38169 77.55 92.38169C75.89314 92.38169 74.55 91.03854 74.55 89.38169C74.55 87.72484 75.89314 86.38169 77.55 86.38169C79.206856 86.38169 80.55 87.72484 80.55 89.38169Z" fill-rule="nonzero"/><path fill="#000000" fill-opacity="0.0" clip-path="url(#id_0)" d="M80.55 82.82292C80.55 84.479774 79.206856 85.82292 77.55 85.82292C75.89314 85.82292 74.55 84.479774 74.55 82.82292C74.55 81.16607 75.89314 79.82292 77.55 79.82292C79.206856 79.82292 80.55 81.16607 80.55 82.82292Z" fill-rule="nonzero"/><path fill="#000000" fill-opacity="0.0" clip-path="url(#id_0)" d="M80.55 76.264145C80.55 77.921005 79.206856 79.264145 77.55 79.264145C75.89314 79.264145 74.55 77.921005 74.55 76.264145C74.55 74.60729 75.89314 73.264145 77.55 73.264145C79.206856 73.264145 80.55 74.60729 80.55 76.264145Z" fill-rule="nonzero"/><path fill="#000000" fill-opacity="0.0" clip-path="url(#id_0)" d="M80.55 69.70567C80.55 71.362526 79.206856 72.70567 77.55 72.70567C75.89314 72.70567 74.55 71.362526 74.55 69.70567C74.55 68.04882 75.89314 66.70567 77.55 66.70567C79.206856 66.70567 80.55 68.04882 80.55 69.70567Z" fill-rule="nonzero"/><path fill="#000000" fill-opacity="0.0" clip-path="url(#id_0)" d="M80.5501 63.1472C80.5501 64.804054 79.206955 66.1472 77.5501 66.1472C75.89325 66.1472 74.5501 64.804054 74.5501 63.1472C74.5501 61.490345 75.89325 60.1472 77.5501 60.1472C79.206955 60.1472 80.5501 61.490345 80.5501 63.1472Z" fill-rule="nonzero"/><path fill="#000000" fill-opacity="0.0" clip-path="url(#id_0)" d="M98.53671 79.99332C98.53671 81.65018 97.193565 82.99332 95.53671 82.99332C93.87986 82.99332 92.53671 81.65018 92.53671 79.99332C92.53671 78.336464 93.87986 76.99332 95.53671 76.99332C97.193565 76.99332 98.53671 78.336464 98.53671 79.99332Z" fill-rule="nonzero"/><path fill="#000000" fill-opacity="0.0" clip-path="url(#id_0)" d="M116.52332 96.83944C116.52332 98.49629 115.18018 99.83944 113.52332 99.83944C111.86647 99.83944 110.52332 98.49629 110.52332 96.83944C110.52332 95.18259 111.86647 93.83944 113.52332 93.83944C115.18018 93.83944 116.52332 95.18259 116.52332 96.83944Z" fill-rule="nonzero"/><path fill="#000000" fill-opacity="0.0" clip-path="url(#id_0)" d="M134.50984 113.685555C134.50984 115.34241 133.16669 116.685555 131.50984 116.685555C129.85298 116.685555 128.50984 115.34241 128.50984 113.685555C128.50984 112.0287 129.85298 110.685555 131.50984 110.685555C133.16669 110.685555 134.50984 112.0287 134.50984 113.685555Z" fill-rule="nonzero"/><path fill="#000000" fill-opacity="0.0" clip-path="url(#id_0)" d="M152.49635 130.53168C152.49635 132.18852 151.1532 133.53168 149.49635 133.53168C147.8395 133.53168 146.49635 132.18852 146.49635 130.53168C146.49635 128.87482 147.8395 127.53168 149.49635 127.53168C151.1532 127.53168 152.49635 128.87482 152.49635 130.53168Z" fill-rule="nonzero"/><path fill="#000000" fill-opacity="0.0" clip-path="url(#id_0)" d="M170.48276 147.37779C170.48276 149.03465 169.13962 150.37779 167.48276 150.37779C165.82591 150.37779 164.48276 149.03465 164.48276 147.37779C164.48276 145.72093 165.82591 144.37779 167.48276 144.37779C169.13962 144.37779 170.48276 145.72093 170.48276 147.37779Z" fill-rule="nonzero"/><path fill="#000000" fill-opacity="0.0" clip-path="url(#id_0)" d="M188.46887 164.2239C188.46887 165.88077 187.12572 167.2239 185.46887 167.2239C183.81201 167.2239 182.46887 165.88077 182.46887 164.2239C182.46887 162.56706 183.81201 161.2239 185.46887 161.2239C187.12572 161.2239 188.46887 162.56706 188.46887 164.2239Z" fill-rule="nonzero"/><path fill="#000000" fill-opacity="0.0" clip-path="url(#id_0)" d="M206.45569 181.07002C206.45569 182.72688 205.11253 184.07002 203.45569 184.07002C201.79883 184.07002 200.45569 182.72688 200.45569 181.07002C200.45569 179.41318 201.79883 178.07002 203.45569 178.07002C205.11253 178.07002 206.45569 179.41318 206.45569 181.07002Z" fill-rule="nonzero"/><path fill="#000000" fill-opacity="0.0" clip-path="url(#id_0)" d="M224.4415 197.91585C224.4415 199.57271 223.09834 200.91585 221.4415 200.91585C219.78464 200.91585 218.4415 199.57271 218.4415 197.91585C218.4415 196.259 219.78464 194.91585 221.4415 194.91585C223.09834 194.91585 224.4415 196.259 224.4415 197.91585Z" fill-rule="nonzero"/><path fill="#000000" fill-opacity="0.0" clip-path="url(#id_0)" d="M242.42729 214.76167C242.42729 216.41852 241.08415 217.76167 239.42729 217.76167C237.77045 217.76167 236.42729 216.41852 236.42729 214.76167C236.42729 213.10481 237.77045 211.76167 239.42729 211.76167C241.08415 211.76167 242.42729 213.10481 242.42729 214.76167Z" fill-rule="nonzero"/><path fill="#000000" fill-opacity="0.0" clip-path="url(#id_0)" d="M260.41412 231.60779C260.41412 233.26465 259.07095 234.60779 257.41412 234.60779C255.75726 234.60779 254.41411 233.26465 254.41411 231.60779C254.41411 229.95093 255.75726 228.60779 257.41412 228.60779C259.07095 228.60779 260.41412 229.95093 260.41412 231.60779Z" fill-rule="nonzero"/><path fill="#000000" fill-opacity="0.0" clip-path="url(#id_0)" d="M278.3999 248.45361C278.3999 250.11046 277.05676 251.45361 275.3999 251.45361C273.74307 251.45361 272.3999 250.11046 272.3999 248.45361C272.3999 246.79675 273.74307 245.45361 275.3999 245.45361C277.05676 245.45361 278.3999 246.79675 278.3999 248.45361Z" fill-rule="nonzero"/><path fill="#000000" fill-opacity="0.0" clip-path="url(#id_0)" d="M296.3857 265.29944C296.3857 266.9563 295.04257 268.29944 293.3857 268.29944C291.72888 268.29944 290.3857 266.9563 290.3857 265.29944C290.3857 263.64258 291.72888 262.29944 293.3857 262.29944C295.04257 262.29944 296.3857 263.64258 296.3857 265.29944Z" fill-rule="nonzero"/><path fill="#000000" fill-opacity="0.0" clip-path="url(#id_0)" d="M314.3705 282.14505C314.3705 283.8019 313.02737 285.14505 311.3705 285.14505C309.71365 285.14505 308.3705 283.8019 308.3705 282.14505C308.3705 280.4882 309.71365 279.14505 311.3705 279.14505C313.02737 279.14505 314.3705 280.4882 314.3705 282.14505Z" fill-rule="nonzero"/><path fill="#000000" fill-opacity="0.0" clip-path="url(#id_0)" d="M332.35632 298.9907C332.35632 300.64755 331.01318 301.9907 329.35632 301.9907C327.69946 301.9907 326.35632 300.64755 326.35632 298.9907C326.35632 297.33383 327.69946 295.9907 329.35632 295.9907C331.01318 295.9907 332.35632 297.33383 332.35632 298.9907Z" fill-rule="nonzero"/><path fill="#000000" fill-opacity="0.0" clip-path="url(#id_0)" d="M338.5156 300.44763C338.5156 302.1045 337.17245 303.44763 335.5156 303.44763C333.85873 303.44763 332.5156 302.1045 332.5156 300.44763C332.5156 298.79077 333.85873 297.44763 335.5156 297.44763C337.17245 297.44763 338.5156 298.79077 338.5156 300.44763Z" fill-rule="nonzero"/><path fill="#000000" fill-opacity="0.0" clip-path="url(#id_0)" d="M343.55472 300.44757C343.55472 302.10443 342.21158 303.44757 340.55472 303.44757C338.8979 303.44757 337.55472 302.10443 337.55472 300.44757C337.55472 298.79074 338.8979 297.44757 340.55472 297.44757C342.21158 297.44757 343.55472 298.79074 343.55472 300.44757Z" fill-rule="nonzero"/><path fill="#000000" fill-opacity="0.0" clip-path="url(#id_0)" d="M348.59488 300.44757C348.59488 302.10443 347.25174 303.44757 345.59488 303.44757C343.93802 303.44757 342.59488 302.10443 342.59488 300.44757C342.59488 298.79074 343.93802 297.44757 345.59488 297.44757C347.25174 297.44757 348.59488 298.79074 348.59488 300.44757Z" fill-rule="nonzero"/><path fill="#000000" fill-opacity="0.0" clip-path="url(#id_0)" d="M353.634 300.44757C353.634 302.10443 352.29086 303.44757 350.634 303.44757C348.97714 303.44757 347.634 302.10443 347.634 300.44757C347.634 298.79074 348.97714 297.44757 350.634 297.44757C352.29086 297.44757 353.634 298.79074 353.634 300.44757Z" fill-rule="nonzero"/><path fill="#000000" fill-opacity="0.0" clip-path="url(#id_0)" d="M358.67313 300.44757C358.67313 302.10443 357.33 303.44757 355.67313 303.44757C354.01627 303.44757 352.67313 302.10443 352.67313 300.44757C352.67313 298.79074 354.01627 297.44757 355.67313 297.44757C357.33 297.44757 358.67313 298.79074 358.67313 300.44757Z" fill-rule="nonzero"/><path fill="#000000" fill-opacity="0.0" clip-path="url(#id_0)" d="M363.71225 300.44757C363.71225 302.10443 362.3691 303.44757 360.71225 303.44757C359.05542 303.44757 357.71225 302.10443 357.71225 300.44757C357.71225 298.79074 359.05542 297.44757 360.71225 297.44757C362.3691 297.44757 363.71225 298.79074 363.71225 300.44757Z" fill-rule="nonzero"/><path fill="#000000" fill-opacity="0.0" clip-path="url(#id_0)" d="M368.7514 300.44757C368.7514 302.10443 367.40826 303.44757 365.7514 303.44757C364.09454 303.44757 362.7514 302.10443 362.7514 300.44757C362.7514 298.79074 364.09454 297.44757 365.7514 297.44757C367.40826 297.44757 368.7514 298.79074 368.7514 300.44757Z" fill-rule="nonzero"/><path fill="#000000" fill-opacity="0.0" clip-path="url(#id_0)" d="M373.79053 300.44757C373.79053 302.10443 372.4474 303.44757 370.79053 303.44757C369.13367 303.44757 367.79053 302.10443 367.79053 300.44757C367.79053 298.79074 369.13367 297.44757 370.79053 297.44757C372.4474 297.44757 373.79053 298.79074 373.79053 300.44757Z" fill-rule="nonzero"/><path fill="#000000" fill-opacity="0.0" clip-path="url(#id_0)" d="M378.82965 300.4476C378.82965 302.10443 377.4865 303.4476 375.82965 303.4476C374.1728 303.4476 372.82965 302.10443 372.82965 300.4476C372.82965 298.79074 374.1728 297.4476 375.82965 297.4476C377.4865 297.4476 378.82965 298.79074 378.82965 300.4476Z" fill-rule="nonzero"/><path fill="#000000" fill-opacity="0.0" clip-path="url(#id_0)" d="M383.86777 300.4476C383.86777 302.10443 382.52463 303.4476 380.86777 303.4476C379.21094 303.4476 377.86777 302.10443 377.86777 300.4476C377.86777 298.79074 379.21094 297.4476 380.86777 297.4476C382.52463 297.4476 383.86777 298.79074 383.86777 300.4476Z" fill-rule="nonzero"/><path fill="#000000" fill-opacity="0.0" clip-path="url(#id_0)" d="M388.90692 300.4476C388.90692 302.10443 387.56375 303.4476 385.90692 303.4476C384.25006 303.4476 382.90692 302.10443 382.90692 300.4476C382.90692 298.79074 384.25006 297.4476 385.90692 297.4476C387.56375 297.4476 388.90692 298.79074 388.90692 300.4476Z" fill-rule="nonzero"/><path fill="#000000" fill-opacity="0.0" clip-path="url(#id_0)" d="M393.94504 300.4476C393.94504 302.10443 392.6019 303.4476 390.94504 303.4476C389.28818 303.4476 387.94504 302.10443 387.94504 300.4476C387.94504 298.79074 389.28818 297.4476 390.94504 297.4476C392.6019 297.4476 393.94504 298.79074 393.94504 300.4476Z" fill-rule="nonzero"/><path fill="#000000" fill-opacity="0.0" clip-path="url(#id_0)" d="M398.98416 300.4476C398.98416 302.10443 397.64102 303.4476 395.98416 303.4476C394.3273 303.4476 392.98416 302.10443 392.98416 300.4476C392.98416 298.79074 394.3273 297.4476 395.98416 297.4476C397.64102 297.4476 398.98416 298.79074 398.98416 300.4476Z" fill-rule="nonzero"/><path fill="#000000" fill-opacity="0.0" clip-path="url(#id_0)" d="M404.02228 300.4476C404.02228 302.10443 402.67914 303.4476 401.02228 303.4476C399.36545 303.4476 398.02228 302.10443 398.02228 300.4476C398.02228 298.79074 399.36545 297.4476 401.02228 297.4476C402.67914 297.4476 404.02228 298.79074 404.02228 300.4476Z" fill-rule="nonzero"/><path fill="#000000" fill-opacity="0.0" clip-path="url(#id_0)" d="M409.06143 300.4476C409.06143 302.10443 407.71826 303.4476 406.06143 303.4476C404.40457 303.4476 403.06143 302.10443 403.06143 300.4476C403.06143 298.79074 404.40457 297.4476 406.06143 297.4476C407.71826 297.4476 409.06143 298.79074 409.06143 300.4476Z" fill-rule="nonzero"/><path fill="#000000" fill-opacity="0.0" clip-path="url(#id_0)" d="M414.09955 300.4476C414.09955 302.10443 412.7564 303.4476 411.09955 303.4476C409.4427 303.4476 408.09955 302.10443 408.09955 300.4476C408.09955 298.79074 409.4427 297.4476 411.09955 297.4476C412.7564 297.4476 414.09955 298.79074 414.09955 300.4476Z" fill-rule="nonzero"/><path fill="#000000" fill-opacity="0.0" clip-path="url(#id_0)" d="M419.13766 300.4476C419.13766 302.10443 417.79453 303.4476 416.13766 303.4476C414.4808 303.4476 413.13766 302.10443 413.13766 300.4476C413.13766 298.79074 414.4808 297.4476 416.13766 297.4476C417.79453 297.4476 419.13766 298.79074 419.13766 300.4476Z" fill-rule="nonzero"/><path fill="#000000" fill-opacity="0.0" clip-path="url(#id_0)" d="M424.17578 300.4476C424.17578 302.10443 422.83264 303.4476 421.17578 303.4476C419.51892 303.4476 418.17578 302.10443 418.17578 300.4476C418.17578 298.79074 419.51892 297.4476 421.17578 297.4476C422.83264 297.4476 424.17578 298.79074 424.17578 300.4476Z" fill-rule="nonzero"/><path fill="#000000" fill-opacity="0.0" clip-path="url(#id_0)" d="M429.2139 300.4476C429.2139 302.10446 427.87076 303.4476 426.2139 303.4476C424.55707 303.4476 423.2139 302.10446 423.2139 300.4476C423.2139 298.79074 424.55707 297.4476 426.2139 297.4476C427.87076 297.4476 429.2139 298.79074 429.2139 300.4476Z" fill-rule="nonzero"/><path fill="#000000" fill-opacity="0.0" clip-path="url(#id_0)" d="M434.25204 300.4476C434.25204 302.10446 432.90887 303.4476 431.25204 303.4476C429.59518 303.4476 428.25204 302.10446 428.25204 300.4476C428.25204 298.79074 429.59518 297.4476 431.25204 297.4476C432.90887 297.4476 434.25204 298.79074 434.25204 300.4476Z" fill-rule="nonzero"/><path fill="#000000" fill-opacity="0.0" clip-path="url(#id_0)" d="M439.29016 300.4476C439.29016 302.10446 437.94702 303.4476 436.29016 303.4476C434.6333 303.4476 433.29016 302.10446 433.29016 300.4476C433.29016 298.79074 434.6333 297.4476 436.29016 297.4476C437.94702 297.4476 439.29016 298.79074 439.29016 300.4476Z" fill-rule="nonzero"/><path fill="#000000" fill-opacity="0.0" clip-path="url(#id_0)" d="M444.32828 300.4476C444.32828 302.10446 442.98514 303.4476 441.32828 303.4476C439.67142 303.4476 438.32828 302.10446 438.32828 300.4476C438.32828 298.79074 439.67142 297.4476 441.32828 297.4476C442.98514 297.4476 444.32828 298.79074 444.32828 300.4476Z" fill-rule="nonzero"/><path fill="#000000" fill-opacity="0.0" clip-path="url(#id_0)" d="M449.3654 300.4476C449.3654 302.10446 448.02225 303.4476 446.3654 303.4476C444.70853 303.4476 443.3654 302.10446 443.3654 300.4476C443.3654 298.79074 444.70853 297.4476 446.3654 297.4476C448.02225 297.4476 449.3654 298.79074 449.3654 300.4476Z" fill-rule="nonzero"/><path fill="#000000" fill-opacity="0.0" clip-path="url(#id_0)" d="M454.4035 300.4476C454.4035 302.10446 453.06036 303.4476 451.4035 303.4476C449.74667 303.4476 448.4035 302.10446 448.4035 300.4476C448.4035 298.79074 449.74667 297.4476 451.4035 297.4476C453.06036 297.4476 454.4035 298.79074 454.4035 300.4476Z" fill-rule="nonzero"/><path fill="#000000" fill-opacity="0.0" clip-path="url(#id_0)" d="M459.44064 300.4476C459.44064 302.10446 458.09747 303.4476 456.44064 303.4476C454.78378 303.4476 453.44064 302.10446 453.44064 300.4476C453.44064 298.79074 454.78378 297.4476 456.44064 297.4476C458.09747 297.4476 459.44064 298.79074 459.44064 300.4476Z" fill-rule="nonzero"/><path fill="#000000" fill-opacity="0.0" clip-path="url(#id_0)" d="M464.47876 300.4476C464.47876 302.10446 463.13562 303.4476 461.47876 303.4476C459.8219 303.4476 458.47876 302.10446 458.47876 300.4476C458.47876 298.79074 459.8219 297.4476 461.47876 297.4476C463.13562 297.4476 464.47876 298.79074 464.47876 300.4476Z" fill-rule="nonzero"/><path fill="#000000" fill-opacity="0.0" clip-path="url(#id_0)" d="M469.51587 300.4476C469.51587 302.10446 468.17273 303.4476 466.51587 303.4476C464.859 303.4476 463.51587 302.10446 463.51587 300.4476C463.51587 298.79074 464.859 297.4476 466.51587 297.4476C468.17273 297.4476 469.51587 298.79074 469.51587 300.4476Z" fill-rule="nonzero"/><path fill="#000000" fill-opacity="0.0" clip-path="url(#id_0)" d="M474.55298 300.4476C474.55298 302.10446 473.20984 303.4476 471.55298 303.4476C469.89612 303.4476 468.55298 302.10446 468.55298 300.4476C468.55298 298.79074 469.89612 297.4476 471.55298 297.4476C473.20984 297.4476 474.55298 298.79074 474.55298 300.4476Z" fill-rule="nonzero"/><path fill="#000000" fill-opacity="0.0" clip-path="url(#id_0)" d="M479.5901 300.4476C479.5901 302.10446 478.24695 303.4476 476.5901 303.4476C474.93326 303.4476 473.5901 302.10446 473.5901 300.4476C473.5901 298.79074 474.93326 297.4476 476.5901 297.4476C478.24695 297.4476 479.5901 298.79074 479.5901 300.4476Z" fill-rule="nonzero"/><path fill="#000000" fill-opacity="0.0" clip-path="url(#id_0)" d="M484.62723 300.4476C484.62723 302.10446 483.28406 303.4476 481.62723 303.4476C479.97037 303.4476 478.62723 302.10446 478.62723 300.4476C478.62723 298.79074 479.97037 297.4476 481.62723 297.4476C483.28406 297.4476 484.62723 298.79074 484.62723 300.4476Z" fill-rule="nonzero"/><path fill="#000000" fill-opacity="0.0" clip-path="url(#id_0)" d="M489.66434 300.4476C489.66434 302.10446 488.32117 303.4476 486.66434 303.4476C485.00748 303.4476 483.66434 302.10446 483.66434 300.4476C483.66434 298.79074 485.00748 297.4476 486.66434 297.4476C488.32117 297.4476 489.66434 298.79074 489.66434 300.4476Z" fill-rule="nonzero"/><path fill="#000000" fill-opacity="0.0" clip-path="url(#id_0)" d="M494.70145 300.4476C494.70145 302.10446 493.3583 303.4476 491.70145 303.4476C490.0446 303.4476 488.70145 302.10446 488.70145 300.4476C488.70145 298.79074 490.0446 297.4476 491.70145 297.4476C493.3583 297.4476 494.70145 298.79074 494.70145 300.4476Z" fill-rule="nonzero"/><path fill="#000000" fill-opacity="0.0" clip-path="url(#id_0)" d="M499.73856 300.4476C499.73856 302.10446 498.39542 303.4476 496.73856 303.4476C495.0817 303.4476 493.73856 302.10446 493.73856 300.4476C493.73856 298.79074 495.0817 297.4476 496.73856 297.4476C498.39542 297.4476 499.73856 298.79074 499.73856 300.4476Z" fill-rule="nonzero"/><path fill="#000000" fill-opacity="0.0" clip-path="url(#id_0)" d="M504.77466 300.4476C504.77466 302.10446 503.43152 303.4476 501.77466 303.4476C500.1178 303.4476 498.77466 302.10446 498.77466 300.4476C498.77466 298.79074 500.1178 297.4476 501.77466 297.4476C503.43152 297.4476 504.77466 298.79074 504.77466 300.4476Z" fill-rule="nonzero"/><path fill="#000000" fill-opacity="0.0" clip-path="url(#id_0)" d="M509.81177 300.4476C509.81177 302.10446 508.46863 303.4476 506.81177 303.4476C505.15494 303.4476 503.81177 302.10446 503.81177 300.4476C503.81177 298.79074 505.15494 297.4476 506.81177 297.4476C508.46863 297.4476 509.81177 298.79074 509.81177 300.4476Z" fill-rule="nonzero"/><path fill="#000000" fill-opacity="0.0" clip-path="url(#id_0)" d="M514.8479 300.4476C514.8479 302.10446 513.50476 303.4476 511.84787 303.4476C510.19104 303.4476 508.84787 302.10446 508.84787 300.4476C508.84787 298.79074 510.19104 297.4476 511.84787 297.4476C513.50476 297.4476 514.8479 298.79074 514.8479 300.4476Z" fill-rule="nonzero"/><path fill="#000000" fill-opacity="0.0" clip-path="url(#id_0)" d="M519.884 300.4476C519.884 302.10446 518.54083 303.4476 516.884 303.4476C515.2271 303.4476 513.884 302.10446 513.884 300.4476C513.884 298.79074 515.2271 297.4476 516.884 297.4476C518.54083 297.4476 519.884 298.79074 519.884 300.4476Z" fill-rule="nonzero"/><path fill="#000000" fill-opacity="0.0" clip-path="url(#id_0)" d="M524.9211 300.4476C524.9211 302.10446 523.57794 303.4476 521.9211 303.4476C520.2642 303.4476 518.9211 302.10446 518.9211 300.4476C518.9211 298.79074 520.2642 297.4476 521.9211 297.4476C523.57794 297.4476 524.9211 298.79074 524.9211 300.4476Z" fill-rule="nonzero"/><path fill="#000000" fill-opacity="0.0" clip-path="url(#id_0)" d="M529.9572 300.4476C529.9572 302.10446 528.6141 303.4476 526.9572 303.4476C525.30035 303.4476 523.9572 302.10446 523.9572 300.4476C523.9572 298.79074 525.30035 297.4476 526.9572 297.4476C528.6141 297.4476 529.9572 298.79074 529.9572 300.4476Z" fill-rule="nonzero"/><path fill="#000000" fill-opacity="0.0" clip-path="url(#id_0)" d="M534.9923 300.4476C534.9923 302.10446 533.6492 303.4476 531.9923 303.4476C530.33545 303.4476 528.9923 302.10446 528.9923 300.4476C528.9923 298.79074 530.33545 297.4476 531.9923 297.4476C533.6492 297.4476 534.9923 298.79074 534.9923 300.4476Z" fill-rule="nonzero"/><path fill="#000000" fill-opacity="0.0" clip-path="url(#id_0)" d="M540.02844 300.4476C540.02844 302.10446 538.68524 303.4476 537.02844 303.4476C535.3716 303.4476 534.02844 302.10446 534.02844 300.4476C534.02844 298.79074 535.3716 297.4476 537.02844 297.4476C538.68524 297.4476 540.02844 298.79074 540.02844 300.4476Z" fill-rule="nonzero"/><path fill="#000000" fill-opacity="0.0" clip-path="url(#id_0)" d="M545.0645 300.4476C545.0645 302.10446 543.7214 303.4476 542.0645 303.4476C540.40765 303.4476 539.0645 302.10446 539.0645 300.4476C539.0645 298.79074 540.40765 297.4476 542.0645 297.4476C543.7214 297.4476 545.0645 298.79074 545.0645 300.4476Z" fill-rule="nonzero"/><path fill="#000000" fill-opacity="0.0" clip-path="url(#id_0)" d="M550.10065 300.4476C550.10065 302.10446 548.7575 303.4476 547.10065 303.4476C545.4438 303.4476 544.10065 302.10446 544.10065 300.4476C544.10065 298.79074 545.4438 297.4476 547.10065 297.4476C548.7575 297.4476 550.10065 298.79074 550.10065 300.4476Z" fill-rule="nonzero"/><path fill="#000000" fill-opacity="0.0" clip-path="url(#id_0)" d="M555.13574 300.4476C555.13574 302.10446 553.7926 303.4476 552.13574 303.4476C550.4789 303.4476 549.13574 302.10446 549.13574 300.4476C549.13574 298.79074 550.4789 297.4476 552.13574 297.4476C553.7926 297.4476 555.13574 298.79074 555.13574 300.4476Z" fill-rule="nonzero"/><path fill="#000000" fill-opacity="0.0" clip-path="url(#id_0)" d="M560.17084 300.4476C560.17084 302.10446 558.8277 303.4476 557.17084 303.4476C555.514 303.4476 554.17084 302.10446 554.17084 300.4476C554.17084 298.79074 555.514 297.4476 557.17084 297.4476C558.8277 297.4476 560.17084 298.79074 560.17084 300.4476Z" fill-rule="nonzero"/><path fill="#000000" fill-opacity="0.0" clip-path="url(#id_0)" d="M565.2069 300.4476C565.2069 302.10446 563.8638 303.4476 562.2069 303.4476C560.55005 303.4476 559.2069 302.10446 559.2069 300.4476C559.2069 298.79074 560.55005 297.4476 562.2069 297.4476C563.8638 297.4476 565.2069 298.79074 565.2069 300.4476Z" fill-rule="nonzero"/><path fill="#000000" fill-opacity="0.0" clip-path="url(#id_0)" d="M570.242 300.4476C570.242 302.10446 568.89886 303.4476 567.242 303.4476C565.5852 303.4476 564.242 302.10446 564.242 300.4476C564.242 298.79074 565.5852 297.4476 567.242 297.4476C568.89886 297.4476 570.242 298.79074 570.242 300.4476Z" fill-rule="nonzero"/><path fill="#000000" fill-opacity="0.0" clip-path="url(#id_0)" d="M575.2771 300.4476C575.2771 302.10446 573.93396 303.4476 572.2771 303.4476C570.6203 303.4476 569.2771 302.10446 569.2771 300.4476C569.2771 298.79074 570.6203 297.4476 572.2771 297.4476C573.93396 297.4476 575.2771 298.79074 575.2771 300.4476Z" fill-rule="nonzero"/><path fill="#000000" fill-opacity="0.0" clip-path="url(#id_0)" d="M580.31226 300.4476C580.31226 302.10446 578.96906 303.4476 577.31226 303.4476C575.6554 303.4476 574.31226 302.10446 574.31226 300.4476C574.31226 298.79074 575.6554 297.4476 577.31226 297.4476C578.96906 297.4476 580.31226 298.79074 580.31226 300.4476Z" fill-rule="nonzero"/><path fill="#000000" fill-opacity="0.0" clip-path="url(#id_0)" d="M584.45 300.4476C584.45 302.10446 583.1069 303.4476 581.45 303.4476C579.79315 303.4476 578.45 302.10446 578.45 300.4476C578.45 298.79074 579.79315 297.4476 581.45 297.4476C583.1069 297.4476 584.45 298.79074 584.45 300.4476Z" fill-rule="nonzero"/><path fill="#000000" d="M308.875 349.45L308.875 348.52814Q308.14062 349.59064 306.89062 349.59064Q306.34375 349.59064 305.85938 349.3875Q305.39062 349.16876 305.15625 348.85626Q304.92188 348.52814 304.82812 348.0594Q304.76562 347.7625 304.76562 347.075L304.76562 343.23126L305.82812 343.23126L305.82812 346.6844Q305.82812 347.4969 305.89062 347.79376Q305.98438 348.2 306.29688 348.45Q306.625 348.6844 307.10938 348.6844Q307.57812 348.6844 307.98438 348.45Q308.40625 348.2 308.57812 347.77814Q308.76562 347.35626 308.76562 346.5594L308.76562 343.23126L309.8125 343.23126L309.8125 349.45L308.875 349.45ZM314.8125 351.84064L314.8125 340.85626L317.14062 340.85626L317.14062 341.73126L315.875 341.73126L315.875 350.96564L317.14062 350.96564L317.14062 351.84064L314.8125 351.84064ZM317.79688 342.075L317.79688 340.85626L318.85938 340.85626L318.85938 342.075L317.79688 342.075ZM317.79688 349.45L317.79688 343.23126L318.85938 343.23126L318.85938 349.45L317.79688 349.45ZM320.79688 349.45L320.79688 343.23126L321.73438 343.23126L321.73438 344.10626Q322.42188 343.09064 323.71875 343.09064Q324.28125 343.09064 324.75 343.29376Q325.23438 343.4969 325.46875 343.825Q325.70312 344.15314 325.79688 344.59064Q325.84375 344.8875 325.84375 345.6219L325.84375 349.45L324.79688 349.45L324.79688 345.66876Q324.79688 345.0125 324.67188 344.7Q324.54688 344.3875 324.23438 344.2Q323.92188 343.9969 323.5 343.9969Q322.82812 343.9969 322.32812 344.4344Q321.84375 344.85626 321.84375 346.04376L321.84375 349.45L320.79688 349.45ZM330.79688 349.45L330.79688 343.23126L331.73438 343.23126L331.73438 344.10626Q332.03125 343.6375 332.51562 343.3719Q333.0 343.09064 333.625 343.09064Q334.3125 343.09064 334.75 343.3719Q335.20312 343.65314 335.375 344.16876Q336.125 343.09064 337.29688 343.09064Q338.23438 343.09064 338.71875 343.60626Q339.21875 344.10626 339.21875 345.1844L339.21875 349.45L338.17188 349.45L338.17188 345.52814Q338.17188 344.90314 338.0625 344.6219Q337.96875 344.34064 337.70312 344.16876Q337.4375 343.9969 337.0625 343.9969Q336.40625 343.9969 335.96875 344.4344Q335.54688 344.8719 335.54688 345.84064L335.54688 349.45L334.48438 349.45L334.48438 345.40314Q334.48438 344.7 334.21875 344.35626Q333.96875 343.9969 333.39062 343.9969Q332.9375 343.9969 332.5625 344.23126Q332.1875 344.46564 332.01562 344.91876Q331.84375 345.3719 331.84375 346.21564L331.84375 349.45L330.79688 349.45ZM341.79688 349.45L341.79688 343.23126L342.73438 343.23126L342.73438 344.10626Q343.03125 343.6375 343.51562 343.3719Q344.0 343.09064 344.625 343.09064Q345.3125 343.09064 345.75 343.3719Q346.20312 343.65314 346.375 344.16876Q347.125 343.09064 348.29688 343.09064Q349.23438 343.09064 349.71875 343.60626Q350.21875 344.10626 350.21875 345.1844L350.21875 349.45L349.17188 349.45L349.17188 345.52814Q349.17188 344.90314 349.0625 344.6219Q348.96875 344.34064 348.70312 344.16876Q348.4375 343.9969 348.0625 343.9969Q347.40625 343.9969 346.96875 344.4344Q346.54688 344.8719 346.54688 345.84064L346.54688 349.45L345.48438 349.45L345.48438 345.40314Q345.48438 344.7 345.21875 344.35626Q344.96875 343.9969 344.39062 343.9969Q343.9375 343.9969 343.5625 344.23126Q343.1875 344.46564 343.01562 344.91876Q342.84375 345.3719 342.84375 346.21564L342.84375 349.45L341.79688 349.45ZM354.5625 351.84064L352.23438 351.84064L352.23438 350.96564L353.5 350.96564L353.5 341.73126L352.23438 341.73126L352.23438 340.85626L354.5625 340.85626L354.5625 351.84064Z" fill-rule="nonzero"/><path fill="#000000" d="M26.784388 214.63646L26.690638 213.57396Q27.346888 213.49583 27.753138 213.21458Q28.159388 212.93333 28.425013 212.35521Q28.675013 211.76146 28.675013 211.02708Q28.675013 210.38646 28.487513 209.88646Q28.284388 209.38646 27.956263 209.15208Q27.612513 208.90208 27.221888 208.90208Q26.815638 208.90208 26.518763 209.13646Q26.206263 209.37083 26.003138 209.90208Q25.862513 210.26146 25.581263 211.44896Q25.300013 212.62083 25.050013 213.08958Q24.721888 213.71458 24.253138 214.01146Q23.768763 214.30833 23.175013 214.30833Q22.534388 214.30833 21.971888 213.94896Q21.393763 213.57396 21.112513 212.87083Q20.815638 212.15208 20.815638 211.29271Q20.815638 210.33958 21.128138 209.60521Q21.425013 208.87083 22.034388 208.48021Q22.628138 208.08958 23.378138 208.05833L23.456263 209.15208Q22.643763 209.24583 22.237513 209.76146Q21.815638 210.26146 21.815638 211.24583Q21.815638 212.27708 22.190638 212.74583Q22.565638 213.21458 23.096888 213.21458Q23.565638 213.21458 23.862513 212.88646Q24.159388 212.55833 24.471888 211.18333Q24.784388 209.79271 25.018763 209.27708Q25.378138 208.52708 25.909388 208.16771Q26.425013 207.80833 27.128138 207.80833Q27.815638 207.80833 28.425013 208.19896Q29.018763 208.58958 29.362513 209.32396Q29.690638 210.05833 29.690638 210.98021Q29.690638 212.15208 29.362513 212.94896Q29.018763 213.73021 28.331263 214.18333Q27.643763 214.62083 26.784388 214.63646ZM29.550013 202.71458L29.550013 203.76146L22.831263 203.76146Q23.190638 204.15208 23.565638 204.77708Q23.925013 205.38646 24.096888 205.87083L23.081263 205.87083Q22.659388 204.99583 22.081263 204.33958Q21.487513 203.66771 20.925013 203.38646L20.925013 202.71458L29.550013 202.71458ZM27.284388 199.68333L27.143763 198.62083Q28.034388 198.44896 28.440638 198.01146Q28.831263 197.57396 28.831263 196.94896Q28.831263 196.19896 28.315638 195.68333Q27.800013 195.16771 27.034388 195.16771Q26.315638 195.16771 25.846888 195.65208Q25.362513 196.12083 25.362513 196.85521Q25.362513 197.15208 25.487513 197.60521L24.550013 197.48021Q24.565638 197.37083 24.565638 197.30833Q24.565638 196.63646 24.221888 196.10521Q23.862513 195.55833 23.128138 195.55833Q22.550013 195.55833 22.175013 195.94896Q21.784388 196.33958 21.784388 196.96458Q21.784388 197.57396 22.175013 197.99583Q22.565638 198.40208 23.331263 198.51146L23.143763 199.57396Q22.096888 199.38646 21.518763 198.69896Q20.925013 198.01146 20.925013 196.99583Q20.925013 196.29271 21.237513 195.69896Q21.534388 195.10521 22.050013 194.79271Q22.565638 194.48021 23.159388 194.48021Q23.706263 194.48021 24.175013 194.77708Q24.628138 195.07396 24.893763 195.65208Q25.065638 194.90208 25.628138 194.48021Q26.175013 194.05833 27.018763 194.05833Q28.143763 194.05833 28.925013 194.88646Q29.706263 195.69896 29.706263 196.94896Q29.706263 198.07396 29.034388 198.82396Q28.346888 199.57396 27.284388 199.68333ZM31.940638 189.37083L20.956263 189.37083L20.956263 187.04271L21.831263 187.04271L21.831263 188.30833L31.065638 188.30833L31.065638 187.04271L31.940638 187.04271L31.940638 189.37083ZM29.550013 186.29271L20.956263 186.29271L20.956263 184.57396L27.034388 182.54271Q27.893763 182.26146 28.315638 182.13646Q27.846888 181.99583 26.940638 181.68333L20.956263 179.62083L20.956263 178.08958L29.550013 178.08958L29.550013 179.18333L22.362513 179.18333L29.550013 181.68333L29.550013 182.71458L22.237513 185.19896L29.550013 185.19896L29.550013 186.29271ZM29.550013 177.26146L20.956263 177.26146L20.956263 174.01146Q20.956263 173.16771 21.034388 172.71458Q21.143763 172.07396 21.440638 171.65208Q21.737513 171.21458 22.268763 170.96458Q22.800013 170.69896 23.440638 170.69896Q24.534388 170.69896 25.300013 171.40208Q26.050013 172.08958 26.050013 173.91771L26.050013 176.12083L29.550013 176.12083L29.550013 177.26146ZM25.050013 176.12083L25.050013 173.90208Q25.050013 172.79271 24.643763 172.33958Q24.221888 171.87083 23.471888 171.87083Q22.940638 171.87083 22.565638 172.15208Q22.175013 172.41771 22.050013 172.85521Q21.971888 173.15208 21.971888 173.91771L21.971888 176.12083L25.050013 176.12083ZM28.784388 165.32396Q29.284388 165.91771 29.487513 166.46458Q29.690638 166.99583 29.690638 167.62083Q29.690638 168.65208 29.190638 169.19896Q28.690638 169.74583 27.909388 169.74583Q27.456263 169.74583 27.081263 169.54271Q26.690638 169.33958 26.471888 168.99583Q26.237513 168.65208 26.128138 168.23021Q26.034388 167.93333 25.956263 167.29271Q25.815638 166.02708 25.596888 165.41771Q25.378138 165.41771 25.331263 165.41771Q24.675013 165.41771 24.409388 165.71458Q24.065638 166.12083 24.065638 166.91771Q24.065638 167.65208 24.331263 168.01146Q24.581263 168.37083 25.237513 168.54271L25.096888 169.57396Q24.440638 169.43333 24.034388 169.10521Q23.628138 168.77708 23.409388 168.16771Q23.190638 167.55833 23.190638 166.76146Q23.190638 165.96458 23.378138 165.46458Q23.565638 164.96458 23.846888 164.73021Q24.128138 164.49583 24.565638 164.40208Q24.831263 164.35521 25.534388 164.35521L26.940638 164.35521Q28.409388 164.35521 28.800013 164.29271Q29.190638 164.21458 29.550013 164.01146L29.550013 165.12083Q29.221888 165.27708 28.784388 165.32396ZM26.425013 165.41771Q26.659388 165.99583 26.831263 167.13646Q26.925013 167.79271 27.050013 168.05833Q27.159388 168.32396 27.378138 168.48021Q27.596888 168.62083 27.878138 168.62083Q28.300013 168.62083 28.581263 168.30833Q28.862513 167.98021 28.862513 167.37083Q28.862513 166.76146 28.596888 166.29271Q28.331263 165.80833 27.862513 165.58958Q27.503138 165.41771 26.815638 165.41771L26.425013 165.41771ZM31.940638 160.62083L31.940638 162.94896L31.065638 162.94896L31.065638 161.68333L21.831263 161.68333L21.831263 162.94896L20.956263 162.94896L20.956263 160.62083L31.940638 160.62083Z" fill-rule="nonzero"/><path fill="#000000" d="M65.05 300.21564Q65.05 298.6844 65.3625 297.7625Q65.675 296.825 66.28438 296.325Q66.90938 295.825 67.84688 295.825Q68.53438 295.825 69.05 296.10626Q69.58125 296.3875 69.925 296.91876Q70.26875 297.4344 70.45625 298.1844Q70.64375 298.9344 70.64375 300.21564Q70.64375 301.73126 70.33125 302.65314Q70.03438 303.575 69.40938 304.09064Q68.8 304.59064 67.84688 304.59064Q66.6125 304.59064 65.89375 303.7Q65.05 302.6375 65.05 300.21564ZM66.12813 300.21564Q66.12813 302.325 66.62813 303.02814Q67.12813 303.73126 67.84688 303.73126Q68.58125 303.73126 69.06563 303.02814Q69.56563 302.325 69.56563 300.21564Q69.56563 298.09064 69.06563 297.40314Q68.58125 296.7 67.83125 296.7Q67.1125 296.7 66.675 297.3094Q66.12813 298.09064 66.12813 300.21564Z" fill-rule="nonzero"/><path fill="#000000" d="M63.596874 243.80104L63.596874 244.81667L57.909374 244.81667Q57.909374 244.44167 58.034374 244.08229Q58.253124 243.50417 58.721874 242.94167Q59.20625 242.37917 60.1125 241.64479Q61.51875 240.48854 62.003124 239.81667Q62.503124 239.14479 62.503124 238.55104Q62.503124 237.92604 62.05 237.50417Q61.596874 237.06667 60.878124 237.06667Q60.1125 237.06667 59.659374 237.51979Q59.20625 237.97292 59.190624 238.78542L58.1125 238.67604Q58.221874 237.45729 58.940624 236.83229Q59.675 236.19167 60.909374 236.19167Q62.14375 236.19167 62.8625 236.87917Q63.58125 237.56667 63.58125 238.58229Q63.58125 239.09792 63.3625 239.59792Q63.159374 240.08229 62.659374 240.64479Q62.175 241.19167 61.05 242.14479Q60.096874 242.94167 59.815624 243.23854Q59.55 243.51979 59.378124 243.80104L63.596874 243.80104ZM65.05 240.58229Q65.05 239.05104 65.3625 238.12917Q65.675 237.19167 66.28438 236.69167Q66.90938 236.19167 67.84688 236.19167Q68.53438 236.19167 69.05 236.47292Q69.58125 236.75417 69.925 237.28542Q70.26875 237.80104 70.45625 238.55104Q70.64375 239.30104 70.64375 240.58229Q70.64375 242.09792 70.33125 243.01979Q70.03438 243.94167 69.40938 244.45729Q68.8 244.95729 67.84688 244.95729Q66.6125 244.95729 65.89375 244.06667Q65.05 243.00417 65.05 240.58229ZM66.12813 240.58229Q66.12813 242.69167 66.62813 243.39479Q67.12813 244.09792 67.84688 244.09792Q68.58125 244.09792 69.06563 243.39479Q69.56563 242.69167 69.56563 240.58229Q69.56563 238.45729 69.06563 237.76979Q68.58125 237.06667 67.83125 237.06667Q67.1125 237.06667 66.675 237.67604Q66.12813 238.45729 66.12813 240.58229Z" fill-rule="nonzero"/><path fill="#000000" d="M61.425 185.18333L61.425 183.12083L57.70625 183.12083L57.70625 182.15208L61.628124 176.58958L62.4875 176.58958L62.4875 182.15208L63.64375 182.15208L63.64375 183.12083L62.4875 183.12083L62.4875 185.18333L61.425 185.18333ZM61.425 182.15208L61.425 178.29271L58.7375 182.15208L61.425 182.15208ZM65.05 180.94896Q65.05 179.41771 65.3625 178.49583Q65.675 177.55833 66.28438 177.05833Q66.90938 176.55833 67.84688 176.55833Q68.53438 176.55833 69.05 176.83958Q69.58125 177.12083 69.925 177.65208Q70.26875 178.16771 70.45625 178.91771Q70.64375 179.66771 70.64375 180.94896Q70.64375 182.46458 70.33125 183.38646Q70.03438 184.30833 69.40938 184.82396Q68.8 185.32396 67.84688 185.32396Q66.6125 185.32396 65.89375 184.43333Q65.05 183.37083 65.05 180.94896ZM66.12813 180.94896Q66.12813 183.05833 66.62813 183.76146Q67.12813 184.46458 67.84688 184.46458Q68.58125 184.46458 69.06563 183.76146Q69.56563 183.05833 69.56563 180.94896Q69.56563 178.82396 69.06563 178.13646Q68.58125 177.43333 67.83125 177.43333Q67.1125 177.43333 66.675 178.04271Q66.12813 178.82396 66.12813 180.94896Z" fill-rule="nonzero"/><path fill="#000000" d="M63.51875 119.06563L62.471874 119.14375Q62.33125 118.51875 62.08125 118.2375Q61.64375 117.78438 61.01875 117.78438Q60.51875 117.78438 60.128124 118.06563Q59.64375 118.44063 59.346874 119.14375Q59.065624 119.83125 59.05 121.1125Q59.425 120.53438 59.971874 120.25313Q60.534374 119.97188 61.14375 119.97188Q62.190624 119.97188 62.925 120.75313Q63.675 121.53438 63.675 122.75313Q63.675 123.56563 63.315624 124.26875Q62.971874 124.95625 62.3625 125.33125Q61.753124 125.69063 60.9875 125.69063Q59.659374 125.69063 58.83125 124.72188Q58.003124 123.75313 58.003124 121.53438Q58.003124 119.03438 58.925 117.90938Q59.721874 116.925 61.08125 116.925Q62.096874 116.925 62.7375 117.50313Q63.39375 118.06563 63.51875 119.06563ZM59.221874 122.76875Q59.221874 123.31563 59.440624 123.81563Q59.675 124.3 60.08125 124.56563Q60.503124 124.83125 60.971874 124.83125Q61.628124 124.83125 62.1125 124.3Q62.596874 123.75313 62.596874 122.83125Q62.596874 121.94063 62.1125 121.425Q61.64375 120.90938 60.925 120.90938Q60.20625 120.90938 59.70625 121.425Q59.221874 121.94063 59.221874 122.76875ZM65.05 121.31563Q65.05 119.78438 65.3625 118.8625Q65.675 117.925 66.28438 117.425Q66.90938 116.925 67.84688 116.925Q68.53438 116.925 69.05 117.20625Q69.58125 117.4875 69.925 118.01875Q70.26875 118.53438 70.45625 119.28438Q70.64375 120.03438 70.64375 121.31563Q70.64375 122.83125 70.33125 123.75313Q70.03438 124.675 69.40938 125.19063Q68.8 125.69063 67.84688 125.69063Q66.6125 125.69063 65.89375 124.8Q65.05 123.7375 65.05 121.31563ZM66.12813 121.31563Q66.12813 123.425 66.62813 124.12813Q67.12813 124.83125 67.84688 124.83125Q68.58125 124.83125 69.06563 124.12813Q69.56563 123.425 69.56563 121.31563Q69.56563 119.19063 69.06563 118.50313Q68.58125 117.8 67.83125 117.8Q67.1125 117.8 66.675 118.40938Q66.12813 119.19063 66.12813 121.31563Z" fill-rule="nonzero"/><path fill="#000000" d="M59.675 61.260414Q59.01875 61.010414 58.690624 60.572914Q58.378124 60.11979 58.378124 59.510414Q58.378124 58.572914 59.05 57.93229Q59.7375 57.291664 60.846874 57.291664Q61.971874 57.291664 62.659374 57.947914Q63.346874 58.604164 63.346874 59.541664Q63.346874 60.135414 63.034374 60.572914Q62.721874 61.010414 62.08125 61.260414Q62.878124 61.510414 63.284374 62.08854Q63.690624 62.666664 63.690624 63.46354Q63.690624 64.55729 62.909374 65.30729Q62.14375 66.05729 60.8625 66.05729Q59.596874 66.05729 58.815624 65.30729Q58.034374 64.55729 58.034374 63.43229Q58.034374 62.58854 58.45625 62.02604Q58.89375 61.46354 59.675 61.260414ZM59.45625 59.46354Q59.45625 60.072914 59.846874 60.46354Q60.253124 60.854164 60.878124 60.854164Q61.4875 60.854164 61.878124 60.479164Q62.26875 60.08854 62.26875 59.52604Q62.26875 58.947914 61.8625 58.55729Q61.45625 58.15104 60.8625 58.15104Q60.253124 58.15104 59.846874 58.541664Q59.45625 58.93229 59.45625 59.46354ZM59.128124 63.43229Q59.128124 63.885414 59.33125 64.30729Q59.55 64.729164 59.971874 64.96354Q60.39375 65.197914 60.878124 65.197914Q61.628124 65.197914 62.1125 64.71354Q62.6125 64.229164 62.6125 63.479164Q62.6125 62.71354 62.1125 62.21354Q61.6125 61.71354 60.846874 61.71354Q60.096874 61.71354 59.6125 62.21354Q59.128124 62.697914 59.128124 63.43229ZM65.05 61.68229Q65.05 60.15104 65.3625 59.229164Q65.675 58.291664 66.28438 57.791664Q66.90938 57.291664 67.84688 57.291664Q68.53438 57.291664 69.05 57.572914Q69.58125 57.854164 69.925 58.385414Q70.26875 58.90104 70.45625 59.65104Q70.64375 60.40104 70.64375 61.68229Q70.64375 63.197914 70.33125 64.11979Q70.03438 65.041664 69.40938 65.55729Q68.8 66.05729 67.84688 66.05729Q66.6125 66.05729 65.89375 65.166664Q65.05 64.104164 65.05 61.68229ZM66.12813 61.68229Q66.12813 63.791664 66.62813 64.49479Q67.12813 65.197914 67.84688 65.197914Q68.58125 65.197914 69.06563 64.49479Q69.56563 63.791664 69.56563 61.68229Q69.56563 59.55729 69.06563 58.86979Q68.58125 58.166664 67.83125 58.166664Q67.1125 58.166664 66.675 58.77604Q66.12813 59.55729 66.12813 61.68229Z" fill-rule="nonzero"/><path fill="#000000" d="M51.55 313.21564Q51.55 311.6844 51.8625 310.7625Q52.175 309.825 52.784374 309.325Q53.409374 308.825 54.346874 308.825Q55.034374 308.825 55.55 309.10626Q56.08125 309.3875 56.425 309.91876Q56.76875 310.4344 56.95625 311.1844Q57.14375 311.9344 57.14375 313.21564Q57.14375 314.73126 56.83125 315.65314Q56.534374 316.575 55.909374 317.09064Q55.3 317.59064 54.346874 317.59064Q53.1125 317.59064 52.39375 316.7Q51.55 315.6375 51.55 313.21564ZM52.628124 313.21564Q52.628124 315.325 53.128124 316.02814Q53.628124 316.73126 54.346874 316.73126Q55.08125 316.73126 55.565624 316.02814Q56.065624 315.325 56.065624 313.21564Q56.065624 311.09064 55.565624 310.40314Q55.08125 309.7 54.33125 309.7Q53.6125 309.7 53.175 310.3094Q52.628124 311.09064 52.628124 313.21564ZM59.14375 317.45L59.14375 316.2469L60.346874 316.2469L60.346874 317.45L59.14375 317.45ZM61.55 313.21564Q61.55 311.6844 61.8625 310.7625Q62.175 309.825 62.784374 309.325Q63.409374 308.825 64.34688 308.825Q65.03438 308.825 65.55 309.10626Q66.08125 309.3875 66.425 309.91876Q66.76875 310.4344 66.95625 311.1844Q67.14375 311.9344 67.14375 313.21564Q67.14375 314.73126 66.83125 315.65314Q66.53438 316.575 65.90938 317.09064Q65.3 317.59064 64.34688 317.59064Q63.1125 317.59064 62.39375 316.7Q61.55 315.6375 61.55 313.21564ZM62.628124 313.21564Q62.628124 315.325 63.128124 316.02814Q63.628124 316.73126 64.34688 316.73126Q65.08125 316.73126 65.56563 316.02814Q66.06563 315.325 66.06563 313.21564Q66.06563 311.09064 65.56563 310.40314Q65.08125 309.7 64.33125 309.7Q63.6125 309.7 63.175 310.3094Q62.628124 311.09064 62.628124 313.21564ZM68.55 313.21564Q68.55 311.6844 68.8625 310.7625Q69.175 309.825 69.78438 309.325Q70.40938 308.825 71.34688 308.825Q72.03438 308.825 72.55 309.10626Q73.08125 309.3875 73.425 309.91876Q73.76875 310.4344 73.95625 311.1844Q74.14375 311.9344 74.14375 313.21564Q74.14375 314.73126 73.83125 315.65314Q73.53438 316.575 72.90938 317.09064Q72.3 317.59064 71.34688 317.59064Q70.1125 317.59064 69.39375 316.7Q68.55 315.6375 68.55 313.21564ZM69.62813 313.21564Q69.62813 315.325 70.12813 316.02814Q70.62813 316.73126 71.34688 316.73126Q72.08125 316.73126 72.56563 316.02814Q73.06563 315.325 73.06563 313.21564Q73.06563 311.09064 72.56563 310.40314Q72.08125 309.7 71.33125 309.7Q70.6125 309.7 70.175 310.3094Q69.62813 311.09064 69.62813 313.21564ZM76.00313 317.45L76.00313 308.85626L82.20625 308.85626L82.20625 309.8719L77.14375 309.8719L77.14375 312.4969L81.89375 312.4969L81.89375 313.5125L77.14375 313.5125L77.14375 316.4344L82.40938 316.4344L82.40938 317.45L76.00313 317.45ZM86.05 316.0594L86.05 313.7L83.72188 313.7L83.72188 312.71564L86.05 312.71564L86.05 310.3875L87.05 310.3875L87.05 312.71564L89.39375 312.71564L89.39375 313.7L87.05 313.7L87.05 316.0594L86.05 316.0594ZM90.55 313.21564Q90.55 311.6844 90.8625 310.7625Q91.175 309.825 91.78438 309.325Q92.40938 308.825 93.34688 308.825Q94.03438 308.825 94.55 309.10626Q95.08125 309.3875 95.425 309.91876Q95.76875 310.4344 95.95625 311.1844Q96.14375 311.9344 96.14375 313.21564Q96.14375 314.73126 95.83125 315.65314Q95.53438 316.575 94.90938 317.09064Q94.3 317.59064 93.34688 317.59064Q92.1125 317.59064 91.39375 316.7Q90.55 315.6375 90.55 313.21564ZM91.62813 313.21564Q91.62813 315.325 92.12813 316.02814Q92.62813 316.73126 93.34688 316.73126Q94.08125 316.73126 94.56563 316.02814Q95.06563 315.325 95.06563 313.21564Q95.06563 311.09064 94.56563 310.40314Q94.08125 309.7 93.33125 309.7Q92.6125 309.7 92.175 310.3094Q91.62813 311.09064 91.62813 313.21564ZM97.55 313.21564Q97.55 311.6844 97.8625 310.7625Q98.175 309.825 98.78438 309.325Q99.40938 308.825 100.34688 308.825Q101.03438 308.825 101.55 309.10626Q102.08125 309.3875 102.425 309.91876Q102.76875 310.4344 102.95625 311.1844Q103.14375 311.9344 103.14375 313.21564Q103.14375 314.73126 102.83125 315.65314Q102.53438 316.575 101.90938 317.09064Q101.3 317.59064 100.34688 317.59064Q99.1125 317.59064 98.39375 316.7Q97.55 315.6375 97.55 313.21564ZM98.62813 313.21564Q98.62813 315.325 99.12813 316.02814Q99.62813 316.73126 100.34688 316.73126Q101.08125 316.73126 101.56563 316.02814Q102.06563 315.325 102.06563 313.21564Q102.06563 311.09064 101.56563 310.40314Q101.08125 309.7 100.33125 309.7Q99.6125 309.7 99.175 310.3094Q98.62813 311.09064 98.62813 313.21564Z" fill-rule="nonzero"/><path fill="#000000" d="M157.8417 317.45L156.79483 317.45L156.79483 310.73126Q156.4042 311.09064 155.7792 311.46564Q155.16983 311.825 154.68546 311.9969L154.68546 310.98126Q155.56046 310.5594 156.2167 309.98126Q156.88858 309.3875 157.16983 308.825L157.8417 308.825L157.8417 317.45ZM161.4667 317.45L161.4667 316.2469L162.66983 316.2469L162.66983 317.45L161.4667 317.45ZM163.87296 313.21564Q163.87296 311.6844 164.18546 310.7625Q164.49796 309.825 165.10733 309.325Q165.73233 308.825 166.66983 308.825Q167.35733 308.825 167.87296 309.10626Q168.4042 309.3875 168.74796 309.91876Q169.0917 310.4344 169.2792 311.1844Q169.4667 311.9344 169.4667 313.21564Q169.4667 314.73126 169.1542 315.65314Q168.85733 316.575 168.23233 317.09064Q167.62296 317.59064 166.66983 317.59064Q165.43546 317.59064 164.7167 316.7Q163.87296 315.6375 163.87296 313.21564ZM164.95108 313.21564Q164.95108 315.325 165.45108 316.02814Q165.95108 316.73126 166.66983 316.73126Q167.4042 316.73126 167.88858 316.02814Q168.38858 315.325 168.38858 313.21564Q168.38858 311.09064 167.88858 310.40314Q167.4042 309.7 166.6542 309.7Q165.93546 309.7 165.49796 310.3094Q164.95108 311.09064 164.95108 313.21564ZM170.87296 313.21564Q170.87296 311.6844 171.18546 310.7625Q171.49796 309.825 172.10733 309.325Q172.73233 308.825 173.66983 308.825Q174.35733 308.825 174.87296 309.10626Q175.4042 309.3875 175.74796 309.91876Q176.0917 310.4344 176.2792 311.1844Q176.4667 311.9344 176.4667 313.21564Q176.4667 314.73126 176.1542 315.65314Q175.85733 316.575 175.23233 317.09064Q174.62296 317.59064 173.66983 317.59064Q172.43546 317.59064 171.7167 316.7Q170.87296 315.6375 170.87296 313.21564ZM171.95108 313.21564Q171.95108 315.325 172.45108 316.02814Q172.95108 316.73126 173.66983 316.73126Q174.4042 316.73126 174.88858 316.02814Q175.38858 315.325 175.38858 313.21564Q175.38858 311.09064 174.88858 310.40314Q174.4042 309.7 173.6542 309.7Q172.93546 309.7 172.49796 310.3094Q171.95108 311.09064 171.95108 313.21564ZM178.32608 317.45L178.32608 308.85626L184.5292 308.85626L184.5292 309.8719L179.4667 309.8719L179.4667 312.4969L184.2167 312.4969L184.2167 313.5125L179.4667 313.5125L179.4667 316.4344L184.73233 316.4344L184.73233 317.45L178.32608 317.45ZM185.74796 314.8719L185.74796 313.8094L188.99796 313.8094L188.99796 314.8719L185.74796 314.8719ZM189.87296 313.21564Q189.87296 311.6844 190.18546 310.7625Q190.49796 309.825 191.10733 309.325Q191.73233 308.825 192.66983 308.825Q193.35733 308.825 193.87296 309.10626Q194.4042 309.3875 194.74796 309.91876Q195.0917 310.4344 195.2792 311.1844Q195.4667 311.9344 195.4667 313.21564Q195.4667 314.73126 195.1542 315.65314Q194.85733 316.575 194.23233 317.09064Q193.62296 317.59064 192.66983 317.59064Q191.43546 317.59064 190.7167 316.7Q189.87296 315.6375 189.87296 313.21564ZM190.95108 313.21564Q190.95108 315.325 191.45108 316.02814Q191.95108 316.73126 192.66983 316.73126Q193.4042 316.73126 193.88858 316.02814Q194.38858 315.325 194.38858 313.21564Q194.38858 311.09064 193.88858 310.40314Q193.4042 309.7 192.6542 309.7Q191.93546 309.7 191.49796 310.3094Q190.95108 311.09064 190.95108 313.21564ZM202.41983 316.4344L202.41983 317.45L196.73233 317.45Q196.73233 317.075 196.85733 316.71564Q197.07608 316.1375 197.54483 315.575Q198.0292 315.0125 198.93546 314.27814Q200.3417 313.1219 200.82608 312.45Q201.32608 311.77814 201.32608 311.1844Q201.32608 310.5594 200.87296 310.1375Q200.41983 309.7 199.70108 309.7Q198.93546 309.7 198.48233 310.15314Q198.0292 310.60626 198.01358 311.41876L196.93546 311.3094Q197.04483 310.09064 197.76358 309.46564Q198.49796 308.825 199.73233 308.825Q200.9667 308.825 201.68546 309.5125Q202.4042 310.2 202.4042 311.21564Q202.4042 311.73126 202.18546 312.23126Q201.98233 312.71564 201.48233 313.27814Q200.99796 313.825 199.87296 314.77814Q198.91983 315.575 198.63858 315.8719Q198.37296 316.15314 198.20108 316.4344L202.41983 316.4344Z" fill-rule="nonzero"/><path fill="#000000" d="M260.2428 316.4344L260.2428 317.45L254.55528 317.45Q254.55528 317.075 254.68028 316.71564Q254.89903 316.1375 255.36778 315.575Q255.85216 315.0125 256.75842 314.27814Q258.16467 313.1219 258.64905 312.45Q259.14905 311.77814 259.14905 311.1844Q259.14905 310.5594 258.69592 310.1375Q258.2428 309.7 257.52405 309.7Q256.75842 309.7 256.3053 310.15314Q255.85216 310.60626 255.83653 311.41876L254.7584 311.3094Q254.86778 310.09064 255.58653 309.46564Q256.32092 308.825 257.5553 308.825Q258.78967 308.825 259.50842 309.5125Q260.22717 310.2 260.22717 311.21564Q260.22717 311.73126 260.00842 312.23126Q259.8053 312.71564 259.3053 313.27814Q258.82092 313.825 257.69592 314.77814Q256.7428 315.575 256.46155 315.8719Q256.19592 316.15314 256.02405 316.4344L260.2428 316.4344ZM262.28967 317.45L262.28967 316.2469L263.4928 316.2469L263.4928 317.45L262.28967 317.45ZM264.69592 313.21564Q264.69592 311.6844 265.00842 310.7625Q265.32092 309.825 265.9303 309.325Q266.5553 308.825 267.4928 308.825Q268.1803 308.825 268.69592 309.10626Q269.22717 309.3875 269.57092 309.91876Q269.91467 310.4344 270.10217 311.1844Q270.28967 311.9344 270.28967 313.21564Q270.28967 314.73126 269.97717 315.65314Q269.6803 316.575 269.0553 317.09064Q268.44592 317.59064 267.4928 317.59064Q266.25842 317.59064 265.53967 316.7Q264.69592 315.6375 264.69592 313.21564ZM265.77405 313.21564Q265.77405 315.325 266.27405 316.02814Q266.77405 316.73126 267.4928 316.73126Q268.22717 316.73126 268.71155 316.02814Q269.21155 315.325 269.21155 313.21564Q269.21155 311.09064 268.71155 310.40314Q268.22717 309.7 267.47717 309.7Q266.75842 309.7 266.32092 310.3094Q265.77405 311.09064 265.77405 313.21564ZM271.69592 313.21564Q271.69592 311.6844 272.00842 310.7625Q272.32092 309.825 272.9303 309.325Q273.5553 308.825 274.4928 308.825Q275.1803 308.825 275.69592 309.10626Q276.22717 309.3875 276.57092 309.91876Q276.91467 310.4344 277.10217 311.1844Q277.28967 311.9344 277.28967 313.21564Q277.28967 314.73126 276.97717 315.65314Q276.6803 316.575 276.0553 317.09064Q275.44592 317.59064 274.4928 317.59064Q273.25842 317.59064 272.53967 316.7Q271.69592 315.6375 271.69592 313.21564ZM272.77405 313.21564Q272.77405 315.325 273.27405 316.02814Q273.77405 316.73126 274.4928 316.73126Q275.22717 316.73126 275.71155 316.02814Q276.21155 315.325 276.21155 313.21564Q276.21155 311.09064 275.71155 310.40314Q275.22717 309.7 274.47717 309.7Q273.75842 309.7 273.32092 310.3094Q272.77405 311.09064 272.77405 313.21564ZM279.14905 317.45L279.14905 308.85626L285.35217 308.85626L285.35217 309.8719L280.28967 309.8719L280.28967 312.4969L285.03967 312.4969L285.03967 313.5125L280.28967 313.5125L280.28967 316.4344L285.5553 316.4344L285.5553 317.45L279.14905 317.45ZM286.57092 314.8719L286.57092 313.8094L289.82092 313.8094L289.82092 314.8719L286.57092 314.8719ZM290.69592 313.21564Q290.69592 311.6844 291.00842 310.7625Q291.32092 309.825 291.9303 309.325Q292.5553 308.825 293.4928 308.825Q294.1803 308.825 294.69592 309.10626Q295.22717 309.3875 295.57092 309.91876Q295.91467 310.4344 296.10217 311.1844Q296.28967 311.9344 296.28967 313.21564Q296.28967 314.73126 295.97717 315.65314Q295.6803 316.575 295.0553 317.09064Q294.44592 317.59064 293.4928 317.59064Q292.25842 317.59064 291.53967 316.7Q290.69592 315.6375 290.69592 313.21564ZM291.77405 313.21564Q291.77405 315.325 292.27405 316.02814Q292.77405 316.73126 293.4928 316.73126Q294.22717 316.73126 294.71155 316.02814Q295.21155 315.325 295.21155 313.21564Q295.21155 311.09064 294.71155 310.40314Q294.22717 309.7 293.47717 309.7Q292.75842 309.7 292.32092 310.3094Q291.77405 311.09064 291.77405 313.21564ZM303.2428 316.4344L303.2428 317.45L297.5553 317.45Q297.5553 317.075 297.6803 316.71564Q297.89905 316.1375 298.3678 315.575Q298.85217 315.0125 299.75842 314.27814Q301.16467 313.1219 301.64905 312.45Q302.14905 311.77814 302.14905 311.1844Q302.14905 310.5594 301.69592 310.1375Q301.2428 309.7 300.52405 309.7Q299.75842 309.7 299.3053 310.15314Q298.85217 310.60626 298.83655 311.41876L297.75842 311.3094Q297.8678 310.09064 298.58655 309.46564Q299.32092 308.825 300.5553 308.825Q301.78967 308.825 302.50842 309.5125Q303.22717 310.2 303.22717 311.21564Q303.22717 311.73126 303.00842 312.23126Q302.8053 312.71564 302.3053 313.27814Q301.82092 313.825 300.69592 314.77814Q299.7428 315.575 299.46155 315.8719Q299.19592 316.15314 299.02405 316.4344L303.2428 316.4344Z" fill-rule="nonzero"/><path fill="#000000" d="M355.51886 315.1844L356.58136 315.04376Q356.75323 315.9344 357.19073 316.34064Q357.62823 316.73126 358.25323 316.73126Q359.00323 316.73126 359.51886 316.21564Q360.0345 315.7 360.0345 314.9344Q360.0345 314.21564 359.5501 313.7469Q359.08136 313.2625 358.347 313.2625Q358.0501 313.2625 357.597 313.3875L357.722 312.45Q357.83136 312.46564 357.89386 312.46564Q358.56573 312.46564 359.097 312.1219Q359.64386 311.7625 359.64386 311.02814Q359.64386 310.45 359.25323 310.075Q358.8626 309.6844 358.2376 309.6844Q357.62823 309.6844 357.20636 310.075Q356.8001 310.46564 356.69073 311.23126L355.62823 311.04376Q355.81573 309.9969 356.50323 309.41876Q357.19073 308.825 358.20636 308.825Q358.9095 308.825 359.50323 309.1375Q360.097 309.4344 360.4095 309.95Q360.722 310.46564 360.722 311.0594Q360.722 311.60626 360.4251 312.075Q360.12823 312.52814 359.5501 312.79376Q360.3001 312.96564 360.722 313.52814Q361.14386 314.075 361.14386 314.91876Q361.14386 316.04376 360.31573 316.825Q359.50323 317.60626 358.25323 317.60626Q357.12823 317.60626 356.37823 316.9344Q355.62823 316.2469 355.51886 315.1844ZM363.1126 317.45L363.1126 316.2469L364.31573 316.2469L364.31573 317.45L363.1126 317.45ZM365.51886 313.21564Q365.51886 311.6844 365.83136 310.7625Q366.14386 309.825 366.75323 309.325Q367.37823 308.825 368.31573 308.825Q369.00323 308.825 369.51886 309.10626Q370.0501 309.3875 370.39386 309.91876Q370.7376 310.4344 370.9251 311.1844Q371.1126 311.9344 371.1126 313.21564Q371.1126 314.73126 370.8001 315.65314Q370.50323 316.575 369.87823 317.09064Q369.26886 317.59064 368.31573 317.59064Q367.08136 317.59064 366.3626 316.7Q365.51886 315.6375 365.51886 313.21564ZM366.597 313.21564Q366.597 315.325 367.097 316.02814Q367.597 316.73126 368.31573 316.73126Q369.0501 316.73126 369.5345 316.02814Q370.0345 315.325 370.0345 313.21564Q370.0345 311.09064 369.5345 310.40314Q369.0501 309.7 368.3001 309.7Q367.58136 309.7 367.14386 310.3094Q366.597 311.09064 366.597 313.21564ZM372.51886 313.21564Q372.51886 311.6844 372.83136 310.7625Q373.14386 309.825 373.75323 309.325Q374.37823 308.825 375.31573 308.825Q376.00323 308.825 376.51886 309.10626Q377.0501 309.3875 377.39386 309.91876Q377.7376 310.4344 377.9251 311.1844Q378.1126 311.9344 378.1126 313.21564Q378.1126 314.73126 377.8001 315.65314Q377.50323 316.575 376.87823 317.09064Q376.26886 317.59064 375.31573 317.59064Q374.08136 317.59064 373.3626 316.7Q372.51886 315.6375 372.51886 313.21564ZM373.597 313.21564Q373.597 315.325 374.097 316.02814Q374.597 316.73126 375.31573 316.73126Q376.0501 316.73126 376.5345 316.02814Q377.0345 315.325 377.0345 313.21564Q377.0345 311.09064 376.5345 310.40314Q376.0501 309.7 375.3001 309.7Q374.58136 309.7 374.14386 310.3094Q373.597 311.09064 373.597 313.21564ZM379.972 317.45L379.972 308.85626L386.1751 308.85626L386.1751 309.8719L381.1126 309.8719L381.1126 312.4969L385.8626 312.4969L385.8626 313.5125L381.1126 313.5125L381.1126 316.4344L386.37823 316.4344L386.37823 317.45L379.972 317.45ZM387.39386 314.8719L387.39386 313.8094L390.64386 313.8094L390.64386 314.8719L387.39386 314.8719ZM391.51886 313.21564Q391.51886 311.6844 391.83136 310.7625Q392.14386 309.825 392.75323 309.325Q393.37823 308.825 394.31573 308.825Q395.00323 308.825 395.51886 309.10626Q396.0501 309.3875 396.39386 309.91876Q396.7376 310.4344 396.9251 311.1844Q397.1126 311.9344 397.1126 313.21564Q397.1126 314.73126 396.8001 315.65314Q396.50323 316.575 395.87823 317.09064Q395.26886 317.59064 394.31573 317.59064Q393.08136 317.59064 392.3626 316.7Q391.51886 315.6375 391.51886 313.21564ZM392.597 313.21564Q392.597 315.325 393.097 316.02814Q393.597 316.73126 394.31573 316.73126Q395.0501 316.73126 395.5345 316.02814Q396.0345 315.325 396.0345 313.21564Q396.0345 311.09064 395.5345 310.40314Q395.0501 309.7 394.3001 309.7Q393.58136 309.7 393.14386 310.3094Q392.597 311.09064 392.597 313.21564ZM404.06573 316.4344L404.06573 317.45L398.37823 317.45Q398.37823 317.075 398.50323 316.71564Q398.722 316.1375 399.19073 315.575Q399.6751 315.0125 400.58136 314.27814Q401.9876 313.1219 402.472 312.45Q402.972 311.77814 402.972 311.1844Q402.972 310.5594 402.51886 310.1375Q402.06573 309.7 401.347 309.7Q400.58136 309.7 400.12823 310.15314Q399.6751 310.60626 399.6595 311.41876L398.58136 311.3094Q398.69073 310.09064 399.4095 309.46564Q400.14386 308.825 401.37823 308.825Q402.6126 308.825 403.33136 309.5125Q404.0501 310.2 404.0501 311.21564Q404.0501 311.73126 403.83136 312.23126Q403.62823 312.71564 403.12823 313.27814Q402.64386 313.825 401.51886 314.77814Q400.56573 315.575 400.2845 315.8719Q400.01886 316.15314 399.847 316.4344L404.06573 316.4344Z" fill-rule="nonzero"/><path fill="#000000" d="M459.7168 317.45L459.7168 315.3875L455.99805 315.3875L455.99805 314.41876L459.91992 308.85626L460.7793 308.85626L460.7793 314.41876L461.93555 314.41876L461.93555 315.3875L460.7793 315.3875L460.7793 317.45L459.7168 317.45ZM459.7168 314.41876L459.7168 310.5594L457.0293 314.41876L459.7168 314.41876ZM463.93555 317.45L463.93555 316.2469L465.13867 316.2469L465.13867 317.45L463.93555 317.45ZM466.3418 313.21564Q466.3418 311.6844 466.6543 310.7625Q466.9668 309.825 467.57617 309.325Q468.20117 308.825 469.13867 308.825Q469.82617 308.825 470.3418 309.10626Q470.87305 309.3875 471.2168 309.91876Q471.56055 310.4344 471.74805 311.1844Q471.93555 311.9344 471.93555 313.21564Q471.93555 314.73126 471.62305 315.65314Q471.32617 316.575 470.70117 317.09064Q470.0918 317.59064 469.13867 317.59064Q467.9043 317.59064 467.18555 316.7Q466.3418 315.6375 466.3418 313.21564ZM467.41992 313.21564Q467.41992 315.325 467.91992 316.02814Q468.41992 316.73126 469.13867 316.73126Q469.87305 316.73126 470.35742 316.02814Q470.85742 315.325 470.85742 313.21564Q470.85742 311.09064 470.35742 310.40314Q469.87305 309.7 469.12305 309.7Q468.4043 309.7 467.9668 310.3094Q467.41992 311.09064 467.41992 313.21564ZM473.3418 313.21564Q473.3418 311.6844 473.6543 310.7625Q473.9668 309.825 474.57617 309.325Q475.20117 308.825 476.13867 308.825Q476.82617 308.825 477.3418 309.10626Q477.87305 309.3875 478.2168 309.91876Q478.56055 310.4344 478.74805 311.1844Q478.93555 311.9344 478.93555 313.21564Q478.93555 314.73126 478.62305 315.65314Q478.32617 316.575 477.70117 317.09064Q477.0918 317.59064 476.13867 317.59064Q474.9043 317.59064 474.18555 316.7Q473.3418 315.6375 473.3418 313.21564ZM474.41992 313.21564Q474.41992 315.325 474.91992 316.02814Q475.41992 316.73126 476.13867 316.73126Q476.87305 316.73126 477.35742 316.02814Q477.85742 315.325 477.85742 313.21564Q477.85742 311.09064 477.35742 310.40314Q476.87305 309.7 476.12305 309.7Q475.4043 309.7 474.9668 310.3094Q474.41992 311.09064 474.41992 313.21564ZM480.79492 317.45L480.79492 308.85626L486.99805 308.85626L486.99805 309.8719L481.93555 309.8719L481.93555 312.4969L486.68555 312.4969L486.68555 313.5125L481.93555 313.5125L481.93555 316.4344L487.20117 316.4344L487.20117 317.45L480.79492 317.45ZM488.2168 314.8719L488.2168 313.8094L491.4668 313.8094L491.4668 314.8719L488.2168 314.8719ZM492.3418 313.21564Q492.3418 311.6844 492.6543 310.7625Q492.9668 309.825 493.57617 309.325Q494.20117 308.825 495.13867 308.825Q495.82617 308.825 496.3418 309.10626Q496.87305 309.3875 497.2168 309.91876Q497.56055 310.4344 497.74805 311.1844Q497.93555 311.9344 497.93555 313.21564Q497.93555 314.73126 497.62305 315.65314Q497.32617 316.575 496.70117 317.09064Q496.0918 317.59064 495.13867 317.59064Q493.9043 317.59064 493.18555 316.7Q492.3418 315.6375 492.3418 313.21564ZM493.41992 313.21564Q493.41992 315.325 493.91992 316.02814Q494.41992 316.73126 495.13867 316.73126Q495.87305 316.73126 496.35742 316.02814Q496.85742 315.325 496.85742 313.21564Q496.85742 311.09064 496.35742 310.40314Q495.87305 309.7 495.12305 309.7Q494.4043 309.7 493.9668 310.3094Q493.41992 311.09064 493.41992 313.21564ZM504.88867 316.4344L504.88867 317.45L499.20117 317.45Q499.20117 317.075 499.32617 316.71564Q499.54492 316.1375 500.01367 315.575Q500.49805 315.0125 501.4043 314.27814Q502.81055 313.1219 503.29492 312.45Q503.79492 311.77814 503.79492 311.1844Q503.79492 310.5594 503.3418 310.1375Q502.88867 309.7 502.16992 309.7Q501.4043 309.7 500.95117 310.15314Q500.49805 310.60626 500.48242 311.41876L499.4043 311.3094Q499.51367 310.09064 500.23242 309.46564Q500.9668 308.825 502.20117 308.825Q503.43555 308.825 504.1543 309.5125Q504.87305 310.2 504.87305 311.21564Q504.87305 311.73126 504.6543 312.23126Q504.45117 312.71564 503.95117 313.27814Q503.4668 313.825 502.3418 314.77814Q501.38867 315.575 501.10742 315.8719Q500.8418 316.15314 500.66992 316.4344L504.88867 316.4344Z" fill-rule="nonzero"/><path fill="#000000" d="M216.21875 32.89375L219.03125 32.6125Q219.29688 34.034374 220.0625 34.70625Q220.84375 35.3625 222.15625 35.3625Q223.5625 35.3625 224.26562 34.76875Q224.96875 34.175 224.96875 33.39375Q224.96875 32.878124 224.67188 32.534374Q224.375 32.175 223.64062 31.909374Q223.125 31.721874 221.32812 31.284374Q219.0 30.70625 218.0625 29.8625Q216.73438 28.675 216.73438 26.9875Q216.73438 25.89375 217.35938 24.940624Q217.98438 23.9875 219.14062 23.4875Q220.3125 22.9875 221.96875 22.9875Q224.65625 22.9875 226.01562 24.175Q227.39062 25.346874 227.45312 27.33125L224.5625 27.45625Q224.375 26.346874 223.76562 25.8625Q223.15625 25.378124 221.9375 25.378124Q220.67188 25.378124 219.96875 25.89375Q219.5 26.2375 219.5 26.784374Q219.5 27.3 219.9375 27.659374Q220.48438 28.1125 222.59375 28.6125Q224.70312 29.1125 225.70312 29.64375Q226.71875 30.175 227.28125 31.096874Q227.85938 32.01875 227.85938 33.378124Q227.85938 34.6125 227.17188 35.690624Q226.5 36.753124 225.25 37.284374Q224.0 37.8 222.125 37.8Q219.42188 37.8 217.95312 36.55Q216.5 35.3 216.21875 32.89375ZM236.375 37.55L233.625 37.55L233.625 27.20625Q232.125 28.6125 230.07812 29.284374L230.07812 26.8Q231.15625 26.440624 232.40625 25.471874Q233.67188 24.4875 234.14062 23.175L236.375 23.175L236.375 37.55ZM240.25 33.753124L242.90625 33.425Q243.03125 34.440624 243.59375 34.9875Q244.15625 35.51875 244.9375 35.51875Q245.79688 35.51875 246.375 34.878124Q246.95312 34.221874 246.95312 33.128124Q246.95312 32.096874 246.39062 31.503124Q245.84375 30.89375 245.03125 30.89375Q244.51562 30.89375 243.78125 31.096874L244.07812 28.8625Q245.1875 28.89375 245.76562 28.378124Q246.35938 27.8625 246.35938 27.01875Q246.35938 26.284374 245.92188 25.8625Q245.5 25.425 244.79688 25.425Q244.09375 25.425 243.59375 25.925Q243.09375 26.409374 242.98438 27.346874L240.45312 26.909374Q240.71875 25.6125 241.25 24.846874Q241.78125 24.065624 242.73438 23.628124Q243.6875 23.175 244.875 23.175Q246.89062 23.175 248.10938 24.45625Q249.125 25.51875 249.125 26.846874Q249.125 28.7375 247.0625 29.846874Q248.29688 30.1125 249.03125 31.034374Q249.76562 31.95625 249.76562 33.253124Q249.76562 35.14375 248.39062 36.471874Q247.01562 37.8 244.95312 37.8Q243.01562 37.8 241.73438 36.675Q240.45312 35.55 240.25 33.753124ZM260.78125 37.55L256.60938 27.175L259.48438 27.175L261.4375 32.471874L262.01562 34.2375Q262.23438 33.565624 262.29688 33.346874Q262.42188 32.909374 262.57812 32.471874L264.5625 27.175L267.375 27.175L263.26562 37.55L260.78125 37.55ZM267.96875 34.596874L270.71875 34.175Q270.90625 34.971874 271.4375 35.39375Q271.96875 35.8 272.9375 35.8Q274.0 35.8 274.54688 35.409374Q274.90625 35.14375 274.90625 34.675Q274.90625 34.3625 274.70312 34.159374Q274.5 33.971874 273.79688 33.8Q270.46875 33.065624 269.57812 32.45625Q268.34375 31.628124 268.34375 30.128124Q268.34375 28.784374 269.40625 27.8625Q270.48438 26.940624 272.71875 26.940624Q274.84375 26.940624 275.875 27.64375Q276.92188 28.33125 277.3125 29.690624L274.71875 30.159374Q274.54688 29.565624 274.07812 29.2375Q273.625 28.909374 272.76562 28.909374Q271.6875 28.909374 271.21875 29.221874Q270.90625 29.440624 270.90625 29.76875Q270.90625 30.065624 271.17188 30.26875Q271.54688 30.55 273.73438 31.05Q275.92188 31.55 276.79688 32.26875Q277.65625 33.003124 277.65625 34.3Q277.65625 35.7375 276.46875 36.76875Q275.28125 37.784374 272.9375 37.784374Q270.82812 37.784374 269.57812 36.925Q268.34375 36.065624 267.96875 34.596874ZM284.96875 34.596874L287.71875 34.175Q287.90625 34.971874 288.4375 35.39375Q288.96875 35.8 289.9375 35.8Q291.0 35.8 291.54688 35.409374Q291.90625 35.14375 291.90625 34.675Q291.90625 34.3625 291.70312 34.159374Q291.5 33.971874 290.79688 33.8Q287.46875 33.065624 286.57812 32.45625Q285.34375 31.628124 285.34375 30.128124Q285.34375 28.784374 286.40625 27.8625Q287.48438 26.940624 289.71875 26.940624Q291.84375 26.940624 292.875 27.64375Q293.92188 28.33125 294.3125 29.690624L291.71875 30.159374Q291.54688 29.565624 291.07812 29.2375Q290.625 28.909374 289.76562 28.909374Q288.6875 28.909374 288.21875 29.221874Q287.90625 29.440624 287.90625 29.76875Q287.90625 30.065624 288.17188 30.26875Q288.54688 30.55 290.73438 31.05Q292.92188 31.55 293.79688 32.26875Q294.65625 33.003124 294.65625 34.3Q294.65625 35.7375 293.46875 36.76875Q292.28125 37.784374 289.9375 37.784374Q287.82812 37.784374 286.57812 36.925Q285.34375 36.065624 284.96875 34.596874ZM302.9375 34.253124L305.67188 34.70625Q305.15625 36.20625 304.01562 37.003124Q302.875 37.784374 301.17188 37.784374Q298.45312 37.784374 297.15625 36.01875Q296.14062 34.596874 296.14062 32.440624Q296.14062 29.8625 297.48438 28.409374Q298.82812 26.940624 300.89062 26.940624Q303.20312 26.940624 304.53125 28.471874Q305.875 30.003124 305.82812 33.159374L298.95312 33.159374Q298.98438 34.378124 299.60938 35.065624Q300.25 35.7375 301.1875 35.7375Q301.84375 35.7375 302.28125 35.39375Q302.71875 35.034374 302.9375 34.253124ZM303.09375 31.471874Q303.0625 30.284374 302.46875 29.675Q301.89062 29.05 301.0625 29.05Q300.15625 29.05 299.57812 29.690624Q298.98438 30.346874 299.0 31.471874L303.09375 31.471874ZM307.85938 27.175L310.42188 27.175L310.42188 28.70625Q310.92188 27.925 311.76562 27.440624Q312.60938 26.940624 313.65625 26.940624Q315.45312 26.940624 316.70312 28.3625Q317.96875 29.76875 317.96875 32.3Q317.96875 34.909374 316.70312 36.346874Q315.4375 37.784374 313.625 37.784374Q312.76562 37.784374 312.0625 37.440624Q311.375 37.096874 310.60938 36.26875L310.60938 41.503124L307.85938 41.503124L307.85938 27.175ZM310.57812 32.190624Q310.57812 33.940624 311.26562 34.784374Q311.95312 35.6125 312.95312 35.6125Q313.90625 35.6125 314.54688 34.846874Q315.1875 34.065624 315.1875 32.33125Q315.1875 30.690624 314.53125 29.909374Q313.875 29.1125 312.90625 29.1125Q311.90625 29.1125 311.23438 29.89375Q310.57812 30.659374 310.57812 32.190624ZM321.98438 30.346874L319.5 29.89375Q319.92188 28.39375 320.9375 27.675Q321.96875 26.940624 323.98438 26.940624Q325.82812 26.940624 326.71875 27.378124Q327.625 27.815624 327.98438 28.4875Q328.35938 29.14375 328.35938 30.940624L328.32812 34.14375Q328.32812 35.503124 328.45312 36.159374Q328.59375 36.8 328.95312 37.55L326.23438 37.55Q326.125 37.26875 325.96875 36.7375Q325.90625 36.4875 325.875 36.409374Q325.17188 37.096874 324.35938 37.440624Q323.5625 37.784374 322.65625 37.784374Q321.0625 37.784374 320.14062 36.925Q319.21875 36.05 319.21875 34.721874Q319.21875 33.83125 319.625 33.14375Q320.04688 32.45625 320.79688 32.096874Q321.5625 31.721874 323.0 31.45625Q324.92188 31.096874 325.65625 30.784374L325.65625 30.503124Q325.65625 29.721874 325.26562 29.39375Q324.875 29.05 323.79688 29.05Q323.0625 29.05 322.64062 29.33125Q322.23438 29.6125 321.98438 30.346874ZM325.65625 32.565624Q325.125 32.7375 323.98438 32.9875Q322.84375 33.2375 322.5 33.471874Q321.95312 33.846874 321.95312 34.440624Q321.95312 35.003124 322.375 35.425Q322.8125 35.846874 323.48438 35.846874Q324.21875 35.846874 324.89062 35.3625Q325.39062 34.9875 325.54688 34.45625Q325.65625 34.096874 325.65625 33.1125L325.65625 32.565624ZM333.5625 37.55L330.8125 37.55L330.8125 27.175L333.375 27.175L333.375 28.659374Q334.01562 27.6125 334.53125 27.284374Q335.0625 26.940624 335.73438 26.940624Q336.67188 26.940624 337.53125 27.45625L336.6875 29.846874Q336.0 29.409374 335.40625 29.409374Q334.82812 29.409374 334.42188 29.721874Q334.01562 30.034374 333.78125 30.878124Q333.5625 31.70625 333.5625 34.346874L333.5625 37.55ZM340.98438 30.346874L338.5 29.89375Q338.92188 28.39375 339.9375 27.675Q340.96875 26.940624 342.98438 26.940624Q344.82812 26.940624 345.71875 27.378124Q346.625 27.815624 346.98438 28.4875Q347.35938 29.14375 347.35938 30.940624L347.32812 34.14375Q347.32812 35.503124 347.45312 36.159374Q347.59375 36.8 347.95312 37.55L345.23438 37.55Q345.125 37.26875 344.96875 36.7375Q344.90625 36.4875 344.875 36.409374Q344.17188 37.096874 343.35938 37.440624Q342.5625 37.784374 341.65625 37.784374Q340.0625 37.784374 339.14062 36.925Q338.21875 36.05 338.21875 34.721874Q338.21875 33.83125 338.625 33.14375Q339.04688 32.45625 339.79688 32.096874Q340.5625 31.721874 342.0 31.45625Q343.92188 31.096874 344.65625 30.784374L344.65625 30.503124Q344.65625 29.721874 344.26562 29.39375Q343.875 29.05 342.79688 29.05Q342.0625 29.05 341.64062 29.33125Q341.23438 29.6125 340.98438 30.346874ZM344.65625 32.565624Q344.125 32.7375 342.98438 32.9875Q341.84375 33.2375 341.5 33.471874Q340.95312 33.846874 340.95312 34.440624Q340.95312 35.003124 341.375 35.425Q341.8125 35.846874 342.48438 35.846874Q343.21875 35.846874 343.89062 35.3625Q344.39062 34.9875 344.54688 34.45625Q344.65625 34.096874 344.65625 33.1125L344.65625 32.565624ZM354.6875 27.175L354.6875 29.3625L352.8125 29.3625L352.8125 33.55Q352.8125 34.815624 352.85938 35.034374Q352.92188 35.2375 353.10938 35.378124Q353.3125 35.503124 353.57812 35.503124Q353.95312 35.503124 354.6875 35.2375L354.92188 37.378124Q353.95312 37.784374 352.75 37.784374Q352.0 37.784374 351.40625 37.534374Q350.8125 37.284374 350.53125 36.89375Q350.26562 36.4875 350.15625 35.815624Q350.0625 35.346874 350.0625 33.89375L350.0625 29.3625L348.79688 29.3625L348.79688 27.175L350.0625 27.175L350.0625 25.1125L352.8125 23.51875L352.8125 27.175L354.6875 27.175ZM356.9375 25.76875L356.9375 23.2375L359.6875 23.2375L359.6875 25.76875L356.9375 25.76875ZM356.9375 37.55L356.9375 27.175L359.6875 27.175L359.6875 37.55L356.9375 37.55ZM361.29688 32.221874Q361.29688 30.846874 361.96875 29.565624Q362.65625 28.284374 363.89062 27.6125Q365.125 26.940624 366.64062 26.940624Q369.0 26.940624 370.5 28.471874Q372.0 30.003124 372.0 32.33125Q372.0 34.690624 370.48438 36.2375Q368.96875 37.784374 366.65625 37.784374Q365.23438 37.784374 363.9375 37.14375Q362.65625 36.4875 361.96875 35.253124Q361.29688 34.003124 361.29688 32.221874ZM364.10938 32.3625Q364.10938 33.909374 364.84375 34.7375Q365.57812 35.55 366.65625 35.55Q367.73438 35.55 368.45312 34.7375Q369.1875 33.909374 369.1875 32.346874Q369.1875 30.815624 368.45312 30.003124Q367.73438 29.175 366.65625 29.175Q365.57812 29.175 364.84375 30.003124Q364.10938 30.815624 364.10938 32.3625ZM383.375 37.55L380.625 37.55L380.625 32.253124Q380.625 30.58125 380.45312 30.096874Q380.28125 29.596874 379.875 29.33125Q379.48438 29.05 378.92188 29.05Q378.21875 29.05 377.64062 29.440624Q377.07812 29.83125 376.85938 30.471874Q376.65625 31.1125 376.65625 32.846874L376.65625 37.55L373.92188 37.55L373.92188 27.175L376.46875 27.175L376.46875 28.70625Q377.82812 26.940624 379.89062 26.940624Q380.79688 26.940624 381.54688 27.26875Q382.29688 27.596874 382.67188 28.1125Q383.0625 28.6125 383.21875 29.26875Q383.375 29.909374 383.375 31.096874L383.375 37.55Z" fill-rule="nonzero"/></svg>
