<svg version="1.1" viewBox="0.0 0.0 600.0 371.0" fill="none" stroke="none" stroke-linecap="square" stroke-miterlimit="10" width="600" height="371" xmlns:xlink="http://www.w3.org/1999/xlink" xmlns="http://www.w3.org/2000/svg"><path fill="#ffffff" d="M0 0L600.0 0L600.0 371.0L0 371.0L0 0Z" fill-rule="nonzero"/><path stroke="#333333" stroke-width="1.0" stroke-linecap="butt" d="M77.5 61.5L77.5 300.5" fill-rule="nonzero"/><path stroke="#cccccc" stroke-width="1.0" stroke-linecap="butt" d="M178.5 61.5L178.5 300.5" fill-rule="nonzero"/><path stroke="#cccccc" stroke-width="1.0" stroke-linecap="butt" d="M279.5 61.5L279.5 300.5" fill-rule="nonzero"/><path stroke="#cccccc" stroke-width="1.0" stroke-linecap="butt" d="M380.5 61.5L380.5 300.5" fill-rule="nonzero"/><path stroke="#cccccc" stroke-width="1.0" stroke-linecap="butt" d="M480.5 61.5L480.5 300.5" fill-rule="nonzero"/><path stroke="#333333" stroke-width="1.0" stroke-linecap="butt" d="M77.5 300.5L581.5 300.5" fill-rule="nonzero"/><path stroke="#cccccc" stroke-width="1.0" stroke-linecap="butt" d="M77.5 240.5L581.5 240.5" fill-rule="nonzero"/><path stroke="#cccccc" stroke-width="1.0" stroke-linecap="butt" d="M77.5 181.5L581.5 181.5" fill-rule="nonzero"/><path stroke="#cccccc" stroke-width="1.0" stroke-linecap="butt" d="M77.5 121.5L581.5 121.5" fill-rule="nonzero"/><path stroke="#cccccc" stroke-width="1.0" stroke-linecap="butt" d="M77.5 61.5L581.5 61.5" fill-rule="nonzero"/><clipPath id="id_0"><path d="M77.55 61.916668L581.45 61.916668L581.45 300.45L77.55 300.45L77.55 61.916668Z" clip-rule="nonzero"/></clipPath><path fill="#34a853" fill-opacity="0.3019608" clip-path="url(#id_0)" d="M77.55 181.20927L77.55 174.6499L77.55 168.09053L77.55 161.53146L77.55 154.97209L77.55 148.41273L77.55 141.85365L77.55 135.29459L77.55 128.73552L77.55 122.176445L77.55 115.61738L77.55 109.058304L77.55 102.499535L77.55 95.94047L77.55 89.38169L77.55 82.82292L77.55 76.264145L77.55 69.70567L77.5501 63.1472L95.53671 79.99332L113.52332 96.83944L131.50984 113.685555L149.49635 130.53168L167.48276 147.37779L185.46887 164.2239L203.45569 181.07002L221.4415 197.91585L239.42729 214.76167L257.41412 231.60779L275.3999 248.45361L293.3857 265.29944L311.3705 282.14505L329.35632 298.9907L335.5156 300.44763L340.55472 300.44757L345.59488 300.44757L350.634 300.44757L355.67313 300.44757L360.71225 300.44757L365.7514 300.44757L370.79053 300.44757L375.82965 300.4476L380.86777 300.4476L385.90692 300.4476L390.94504 300.4476L395.98416 300.4476L401.02228 300.4476L406.06143 300.4476L411.09955 300.4476L416.13766 300.4476L421.17578 300.4476L426.2139 300.4476L431.25204 300.4476L436.29016 300.4476L441.32828 300.4476L446.3654 300.4476L451.4035 300.4476L456.44064 300.4476L461.47876 300.4476L466.51587 300.4476L471.55298 300.4476L476.5901 300.4476L481.62723 300.4476L486.66434 300.4476L491.70145 300.4476L496.73856 300.4476L501.77466 300.4476L506.81177 300.4476L511.84787 300.4476L516.884 300.4476L521.9211 300.4476L526.9572 300.4476L531.9923 300.4476L537.02844 300.4476L542.0645 300.4476L547.10065 300.4476L552.13574 300.4476L557.17084 300.4476L562.2069 300.4476L567.242 300.4476L572.2771 300.4476L577.31226 300.4476L581.45 300.4476L581.45 300.45L577.31226 300.45L572.2771 300.45L567.242 300.45L562.2069 300.45L557.17084 300.45L552.13574 300.45L547.10065 300.45L542.0645 300.45L537.02844 300.45L531.9923 300.45L526.9572 300.45L521.9211 300.45L516.884 300.45L511.84787 300.45L506.81177 300.45L501.77466 300.45L496.73856 300.45L491.70145 300.45L486.66434 300.45L481.62723 300.45L476.5901 300.45L471.55298 300.45L466.51587 300.45L461.47876 300.45L456.44064 300.45L451.4035 300.45L446.3654 300.45L441.32828 300.45L436.29016 300.45L431.25204 300.45L426.2139 300.45L421.17578 300.45L416.13766 300.45L411.09955 300.45L406.06143 300.45L401.02228 300.45L395.98416 300.45L390.94504 300.45L385.90692 300.45L380.86777 300.45L375.82965 300.45L370.79053 300.45L365.7514 300.45L360.71225 300.45L355.67313 300.45L350.634 300.45L345.59488 300.45L340.55472 300.45L335.5156 300.45L329.35632 300.45L311.3705 300.45L293.3857 300.45L275.3999 300.45L257.41412 300.45L239.42729 300.45L221.4415 300.45L203.45569 300.45L185.46887 300.45L167.48276 300.45L149.49635 300.45L131.50984 300.45L113.52332 300.45L95.53671 300.45L77.5501 300.45L77.55 300.45L77.55 300.45L77.55 300.45L77.55 300.45L77.55 300.45L77.55 300.45L77.55 300.45L77.55 300.45L77.55 300.45L77.55 300.45L77.55 300.45L77.55 300.45L77.55 300.45L77.55 300.45L77.55 300.45L77.55 300.45L77.55 300.45L77.55 300.45Z" fill-rule="nonzero"/><path stroke="#34a853" stroke-width="2.0" stroke-linecap="butt" clip-path="url(#id_0)" d="M77.55 181.20927L77.55 174.6499L77.55 168.09053L77.55 161.53146L77.55 154.97209L77.55 148.41273L77.55 141.85365L77.55 135.29459L77.55 128.73552L77.55 122.176445L77.55 115.61738L77.55 109.058304L77.55 102.499535L77.55 95.94047L77.55 89.38169L77.55 82.82292L77.55 76.264145L77.55 69.70567L77.5501 63.1472L95.53671 79.99332L113.52332 96.83944L131.50984 113.685555L149.49635 130.53168L167.48276 147.37779L185.46887 164.2239L203.45569 181.07002L221.4415 197.91585L239.42729 214.76167L257.41412 231.60779L275.3999 248.45361L293.3857 265.29944L311.3705 282.14505L329.35632 298.9907L335.5156 300.44763L340.55472 300.44757L345.59488 300.44757L350.634 300.44757L355.67313 300.44757L360.71225 300.44757L365.7514 300.44757L370.79053 300.44757L375.82965 300.4476L380.86777 300.4476L385.90692 300.4476L390.94504 300.4476L395.98416 300.4476L401.02228 300.4476L406.06143 300.4476L411.09955 300.4476L416.13766 300.4476L421.17578 300.4476L426.2139 300.4476L431.25204 300.4476L436.29016 300.4476L441.32828 300.4476L446.3654 300.4476L451.4035 300.4476L456.44064 300.4476L461.47876 300.4476L466.51587 300.4476L471.55298 300.4476L476.5901 300.4476L481.62723 300.4476L486.66434 300.4476L491.70145 300.4476L496.73856 300.4476L501.77466 300.4476L506.81177 300.4476L511.84787 300.4476L516.884 300.4476L521.9211 300.4476L526.9572 300.4476L531.9923 300.4476L537.02844 300.4476L542.0645 300.4476L547.10065 300.4476L552.13574 300.4476L557.17084 300.4476L562.2069 300.4476L567.242 300.4476L572.2771 300.4476L577.31226 300.4476L581.45 300.4476" fill-rule="nonzero"/><path fill="#000000" fill-opacity="0.0" clip-path="url(#id_0)" d="M80.55 181.20927C80.55 182.86613 79.206856 184.20927 77.55 184.20927C75.89314 184.20927 74.55 182.86613 74.55 181.20927C74.55 179.55241 75.89314 178.20927 77.55 178.20927C79.206856 178.20927 80.55 179.55241 80.55 181.20927Z" fill-rule="nonzero"/><path fill="#000000" fill-opacity="0.0" clip-path="url(#id_0)" d="M80.55 174.6499C80.55 176.30676 79.206856 177.6499 77.55 177.6499C75.89314 177.6499 74.55 176.30676 74.55 174.6499C74.55 172.99306 75.89314 171.6499 77.55 171.6499C79.206856 171.6499 80.55 172.99306 80.55 174.6499Z" fill-rule="nonzero"/><path fill="#000000" fill-opacity="0.0" clip-path="url(#id_0)" d="M80.55 168.09053C80.55 169.74739 79.206856 171.09053 77.55 171.09053C75.89314 171.09053 74.55 169.74739 74.55 168.09053C74.55 166.43369 75.89314 165.09053 77.55 165.09053C79.206856 165.09053 80.55 166.43369 80.55 168.09053Z" fill-rule="nonzero"/><path fill="#000000" fill-opacity="0.0" clip-path="url(#id_0)" d="M80.55 161.53146C80.55 163.18832 79.206856 164.53146 77.55 164.53146C75.89314 164.53146 74.55 163.18832 74.55 161.53146C74.55 159.87462 75.89314 158.53146 77.55 158.53146C79.206856 158.53146 80.55 159.87462 80.55 161.53146Z" fill-rule="nonzero"/><path fill="#000000" fill-opacity="0.0" clip-path="url(#id_0)" d="M80.55 154.97209C80.55 156.62895 79.206856 157.97209 77.55 157.97209C75.89314 157.97209 74.55 156.62895 74.55 154.97209C74.55 153.31525 75.89314 151.97209 77.55 151.97209C79.206856 151.97209 80.55 153.31525 80.55 154.97209Z" fill-rule="nonzero"/><path fill="#000000" fill-opacity="0.0" clip-path="url(#id_0)" d="M80.55 148.41273C80.55 150.06958 79.206856 151.41273 77.55 151.41273C75.89314 151.41273 74.55 150.06958 74.55 148.41273C74.55 146.75587 75.89314 145.41273 77.55 145.41273C79.206856 145.41273 80.55 146.75587 80.55 148.41273Z" fill-rule="nonzero"/><path fill="#000000" fill-opacity="0.0" clip-path="url(#id_0)" d="M80.55 141.85365C80.55 143.51051 79.206856 144.85365 77.55 144.85365C75.89314 144.85365 74.55 143.51051 74.55 141.85365C74.55 140.19681 75.89314 138.85365 77.55 138.85365C79.206856 138.85365 80.55 140.19681 80.55 141.85365Z" fill-rule="nonzero"/><path fill="#000000" fill-opacity="0.0" clip-path="url(#id_0)" d="M80.55 135.29459C80.55 136.95145 79.206856 138.29459 77.55 138.29459C75.89314 138.29459 74.55 136.95145 74.55 135.29459C74.55 133.63774 75.89314 132.29459 77.55 132.29459C79.206856 132.29459 80.55 133.63774 80.55 135.29459Z" fill-rule="nonzero"/><path fill="#000000" fill-opacity="0.0" clip-path="url(#id_0)" d="M80.55 128.73552C80.55 130.39238 79.206856 131.73552 77.55 131.73552C75.89314 131.73552 74.55 130.39238 74.55 128.73552C74.55 127.07867 75.89314 125.73552 77.55 125.73552C79.206856 125.73552 80.55 127.07867 80.55 128.73552Z" fill-rule="nonzero"/><path fill="#000000" fill-opacity="0.0" clip-path="url(#id_0)" d="M80.55 122.176445C80.55 123.833305 79.206856 125.176445 77.55 125.176445C75.89314 125.176445 74.55 123.833305 74.55 122.176445C74.55 120.51959 75.89314 119.176445 77.55 119.176445C79.206856 119.176445 80.55 120.51959 80.55 122.176445Z" fill-rule="nonzero"/><path fill="#000000" fill-opacity="0.0" clip-path="url(#id_0)" d="M80.55 115.61738C80.55 117.27423 79.206856 118.61738 77.55 118.61738C75.89314 118.61738 74.55 117.27423 74.55 115.61738C74.55 113.960526 75.89314 112.61738 77.55 112.61738C79.206856 112.61738 80.55 113.960526 80.55 115.61738Z" fill-rule="nonzero"/><path fill="#000000" fill-opacity="0.0" clip-path="url(#id_0)" d="M80.55 109.058304C80.55 110.715164 79.206856 112.058304 77.55 112.058304C75.89314 112.058304 74.55 110.715164 74.55 109.058304C74.55 107.40145 75.89314 106.058304 77.55 106.058304C79.206856 106.058304 80.55 107.40145 80.55 109.058304Z" fill-rule="nonzero"/><path fill="#000000" fill-opacity="0.0" clip-path="url(#id_0)" d="M80.55 102.499535C80.55 104.15639 79.206856 105.499535 77.55 105.499535C75.89314 105.499535 74.55 104.15639 74.55 102.499535C74.55 100.84268 75.89314 99.499535 77.55 99.499535C79.206856 99.499535 80.55 100.84268 80.55 102.499535Z" fill-rule="nonzero"/><path fill="#000000" fill-opacity="0.0" clip-path="url(#id_0)" d="M80.55 95.94047C80.55 97.59732 79.206856 98.94047 77.55 98.94047C75.89314 98.94047 74.55 97.59732 74.55 95.94047C74.55 94.28361 75.89314 92.94047 77.55 92.94047C79.206856 92.94047 80.55 94.28361 80.55 95.94047Z" fill-rule="nonzero"/><path fill="#000000" fill-opacity="0.0" clip-path="url(#id_0)" d="M80.55 89.38169C80.55 91.03854 79.206856 92.38169 77.55 92.38169C75.89314 92.38169 74.55 91.03854 74.55 89.38169C74.55 87.72484 75.89314 86.38169 77.55 86.38169C79.206856 86.38169 80.55 87.72484 80.55 89.38169Z" fill-rule="nonzero"/><path fill="#000000" fill-opacity="0.0" clip-path="url(#id_0)" d="M80.55 82.82292C80.55 84.479774 79.206856 85.82292 77.55 85.82292C75.89314 85.82292 74.55 84.479774 74.55 82.82292C74.55 81.16607 75.89314 79.82292 77.55 79.82292C79.206856 79.82292 80.55 81.16607 80.55 82.82292Z" fill-rule="nonzero"/><path fill="#000000" fill-opacity="0.0" clip-path="url(#id_0)" d="M80.55 76.264145C80.55 77.921005 79.206856 79.264145 77.55 79.264145C75.89314 79.264145 74.55 77.921005 74.55 76.264145C74.55 74.60729 75.89314 73.264145 77.55 73.264145C79.206856 73.264145 80.55 74.60729 80.55 76.264145Z" fill-rule="nonzero"/><path fill="#000000" fill-opacity="0.0" clip-path="url(#id_0)" d="M80.55 69.70567C80.55 71.362526 79.206856 72.70567 77.55 72.70567C75.89314 72.70567 74.55 71.362526 74.55 69.70567C74.55 68.04882 75.89314 66.70567 77.55 66.70567C79.206856 66.70567 80.55 68.04882 80.55 69.70567Z" fill-rule="nonzero"/><path fill="#000000" fill-opacity="0.0" clip-path="url(#id_0)" d="M80.5501 63.1472C80.5501 64.804054 79.206955 66.1472 77.5501 66.1472C75.89325 66.1472 74.5501 64.804054 74.5501 63.1472C74.5501 61.490345 75.89325 60.1472 77.5501 60.1472C79.206955 60.1472 80.5501 61.490345 80.5501 63.1472Z" fill-rule="nonzero"/><path fill="#000000" fill-opacity="0.0" clip-path="url(#id_0)" d="M98.53671 79.99332C98.53671 81.65018 97.193565 82.99332 95.53671 82.99332C93.87986 82.99332 92.53671 81.65018 92.53671 79.99332C92.53671 78.336464 93.87986 76.99332 95.53671 76.99332C97.193565 76.99332 98.53671 78.336464 98.53671 79.99332Z" fill-rule="nonzero"/><path fill="#000000" fill-opacity="0.0" clip-path="url(#id_0)" d="M116.52332 96.83944C116.52332 98.49629 115.18018 99.83944 113.52332 99.83944C111.86647 99.83944 110.52332 98.49629 110.52332 96.83944C110.52332 95.18259 111.86647 93.83944 113.52332 93.83944C115.18018 93.83944 116.52332 95.18259 116.52332 96.83944Z" fill-rule="nonzero"/><path fill="#000000" fill-opacity="0.0" clip-path="url(#id_0)" d="M134.50984 113.685555C134.50984 115.34241 133.16669 116.685555 131.50984 116.685555C129.85298 116.685555 128.50984 115.34241 128.50984 113.685555C128.50984 112.0287 129.85298 110.685555 131.50984 110.685555C133.16669 110.685555 134.50984 112.0287 134.50984 113.685555Z" fill-rule="nonzero"/><path fill="#000000" fill-opacity="0.0" clip-path="url(#id_0)" d="M152.49635 130.53168C152.49635 132.18852 151.1532 133.53168 149.49635 133.53168C147.8395 133.53168 146.49635 132.18852 146.49635 130.53168C146.49635 128.87482 147.8395 127.53168 149.49635 127.53168C151.1532 127.53168 152.49635 128.87482 152.49635 130.53168Z" fill-rule="nonzero"/><path fill="#000000" fill-opacity="0.0" clip-path="url(#id_0)" d="M170.48276 147.37779C170.48276 149.03465 169.13962 150.37779 167.48276 150.37779C165.82591 150.37779 164.48276 149.03465 164.48276 147.37779C164.48276 145.72093 165.82591 144.37779 167.48276 144.37779C169.13962 144.37779 170.48276 145.72093 170.48276 147.37779Z" fill-rule="nonzero"/><path fill="#000000" fill-opacity="0.0" clip-path="url(#id_0)" d="M188.46887 164.2239C188.46887 165.88077 187.12572 167.2239 185.46887 167.2239C183.81201 167.2239 182.46887 165.88077 182.46887 164.2239C182.46887 162.56706 183.81201 161.2239 185.46887 161.2239C187.12572 161.2239 188.46887 162.56706 188.46887 164.2239Z" fill-rule="nonzero"/><path fill="#000000" fill-opacity="0.0" clip-path="url(#id_0)" d="M206.45569 181.07002C206.45569 182.72688 205.11253 184.07002 203.45569 184.07002C201.79883 184.07002 200.45569 182.72688 200.45569 181.07002C200.45569 179.41318 201.79883 178.07002 203.45569 178.07002C205.11253 178.07002 206.45569 179.41318 206.45569 181.07002Z" fill-rule="nonzero"/><path fill="#000000" fill-opacity="0.0" clip-path="url(#id_0)" d="M224.4415 197.91585C224.4415 199.57271 223.09834 200.91585 221.4415 200.91585C219.78464 200.91585 218.4415 199.57271 218.4415 197.91585C218.4415 196.259 219.78464 194.91585 221.4415 194.91585C223.09834 194.91585 224.4415 196.259 224.4415 197.91585Z" fill-rule="nonzero"/><path fill="#000000" fill-opacity="0.0" clip-path="url(#id_0)" d="M242.42729 214.76167C242.42729 216.41852 241.08415 217.76167 239.42729 217.76167C237.77045 217.76167 236.42729 216.41852 236.42729 214.76167C236.42729 213.10481 237.77045 211.76167 239.42729 211.76167C241.08415 211.76167 242.42729 213.10481 242.42729 214.76167Z" fill-rule="nonzero"/><path fill="#000000" fill-opacity="0.0" clip-path="url(#id_0)" d="M260.41412 231.60779C260.41412 233.26465 259.07095 234.60779 257.41412 234.60779C255.75726 234.60779 254.41411 233.26465 254.41411 231.60779C254.41411 229.95093 255.75726 228.60779 257.41412 228.60779C259.07095 228.60779 260.41412 229.95093 260.41412 231.60779Z" fill-rule="nonzero"/><path fill="#000000" fill-opacity="0.0" clip-path="url(#id_0)" d="M278.3999 248.45361C278.3999 250.11046 277.05676 251.45361 275.3999 251.45361C273.74307 251.45361 272.3999 250.11046 272.3999 248.45361C272.3999 246.79675 273.74307 245.45361 275.3999 245.45361C277.05676 245.45361 278.3999 246.79675 278.3999 248.45361Z" fill-rule="nonzero"/><path fill="#000000" fill-opacity="0.0" clip-path="url(#id_0)" d="M296.3857 265.29944C296.3857 266.9563 295.04257 268.29944 293.3857 268.29944C291.72888 268.29944 290.3857 266.9563 290.3857 265.29944C290.3857 263.64258 291.72888 262.29944 293.3857 262.29944C295.04257 262.29944 296.3857 263.64258 296.3857 265.29944Z" fill-rule="nonzero"/><path fill="#000000" fill-opacity="0.0" clip-path="url(#id_0)" d="M314.3705 282.14505C314.3705 283.8019 313.02737 285.14505 311.3705 285.14505C309.71365 285.14505 308.3705 283.8019 308.3705 282.14505C308.3705 280.4882 309.71365 279.14505 311.3705 279.14505C313.02737 279.14505 314.3705 280.4882 314.3705 282.14505Z" fill-rule="nonzero"/><path fill="#000000" fill-opacity="0.0" clip-path="url(#id_0)" d="M332.35632 298.9907C332.35632 300.64755 331.01318 301.9907 329.35632 301.9907C327.69946 301.9907 326.35632 300.64755 326.35632 298.9907C326.35632 297.33383 327.69946 295.9907 329.35632 295.9907C331.01318 295.9907 332.35632 297.33383 332.35632 298.9907Z" fill-rule="nonzero"/><path fill="#000000" fill-opacity="0.0" clip-path="url(#id_0)" d="M338.5156 300.44763C338.5156 302.1045 337.17245 303.44763 335.5156 303.44763C333.85873 303.44763 332.5156 302.1045 332.5156 300.44763C332.5156 298.79077 333.85873 297.44763 335.5156 297.44763C337.17245 297.44763 338.5156 298.79077 338.5156 300.44763Z" fill-rule="nonzero"/><path fill="#000000" fill-opacity="0.0" clip-path="url(#id_0)" d="M343.55472 300.44757C343.55472 302.10443 342.21158 303.44757 340.55472 303.44757C338.8979 303.44757 337.55472 302.10443 337.55472 300.44757C337.55472 298.79074 338.8979 297.44757 340.55472 297.44757C342.21158 297.44757 343.55472 298.79074 343.55472 300.44757Z" fill-rule="nonzero"/><path fill="#000000" fill-opacity="0.0" clip-path="url(#id_0)" d="M348.59488 300.44757C348.59488 302.10443 347.25174 303.44757 345.59488 303.44757C343.93802 303.44757 342.59488 302.10443 342.59488 300.44757C342.59488 298.79074 343.93802 297.44757 345.59488 297.44757C347.25174 297.44757 348.59488 298.79074 348.59488 300.44757Z" fill-rule="nonzero"/><path fill="#000000" fill-opacity="0.0" clip-path="url(#id_0)" d="M353.634 300.44757C353.634 302.10443 352.29086 303.44757 350.634 303.44757C348.97714 303.44757 347.634 302.10443 347.634 300.44757C347.634 298.79074 348.97714 297.44757 350.634 297.44757C352.29086 297.44757 353.634 298.79074 353.634 300.44757Z" fill-rule="nonzero"/><path fill="#000000" fill-opacity="0.0" clip-path="url(#id_0)" d="M358.67313 300.44757C358.67313 302.10443 357.33 303.44757 355.67313 303.44757C354.01627 303.44757 352.67313 302.10443 352.67313 300.44757C352.67313 298.79074 354.01627 297.44757 355.67313 297.44757C357.33 297.44757 358.67313 298.79074 358.67313 300.44757Z" fill-rule="nonzero"/><path fill="#000000" fill-opacity="0.0" clip-path="url(#id_0)" d="M363.71225 300.44757C363.71225 302.10443 362.3691 303.44757 360.71225 303.44757C359.05542 303.44757 357.71225 302.10443 357.71225 300.44757C357.71225 298.79074 359.05542 297.44757 360.71225 297.44757C362.3691 297.44757 363.71225 298.79074 363.71225 300.44757Z" fill-rule="nonzero"/><path fill="#000000" fill-opacity="0.0" clip-path="url(#id_0)" d="M368.7514 300.44757C368.7514 302.10443 367.40826 303.44757 365.7514 303.44757C364.09454 303.44757 362.7514 302.10443 362.7514 300.44757C362.7514 298.79074 364.09454 297.44757 365.7514 297.44757C367.40826 297.44757 368.7514 298.79074 368.7514 300.44757Z" fill-rule="nonzero"/><path fill="#000000" fill-opacity="0.0" clip-path="url(#id_0)" d="M373.79053 300.44757C373.79053 302.10443 372.4474 303.44757 370.79053 303.44757C369.13367 303.44757 367.79053 302.10443 367.79053 300.44757C367.79053 298.79074 369.13367 297.44757 370.79053 297.44757C372.4474 297.44757 373.79053 298.79074 373.79053 300.44757Z" fill-rule="nonzero"/><path fill="#000000" fill-opacity="0.0" clip-path="url(#id_0)" d="M378.82965 300.4476C378.82965 302.10443 377.4865 303.4476 375.82965 303.4476C374.1728 303.4476 372.82965 302.10443 372.82965 300.4476C372.82965 298.79074 374.1728 297.4476 375.82965 297.4476C377.4865 297.4476 378.82965 298.79074 378.82965 300.4476Z" fill-rule="nonzero"/><path fill="#000000" fill-opacity="0.0" clip-path="url(#id_0)" d="M383.86777 300.4476C383.86777 302.10443 382.52463 303.4476 380.86777 303.4476C379.21094 303.4476 377.86777 302.10443 377.86777 300.4476C377.86777 298.79074 379.21094 297.4476 380.86777 297.4476C382.52463 297.4476 383.86777 298.79074 383.86777 300.4476Z" fill-rule="nonzero"/><path fill="#000000" fill-opacity="0.0" clip-path="url(#id_0)" d="M388.90692 300.4476C388.90692 302.10443 387.56375 303.4476 385.90692 303.4476C384.25006 303.4476 382.90692 302.10443 382.90692 300.4476C382.90692 298.79074 384.25006 297.4476 385.90692 297.4476C387.56375 297.4476 388.90692 298.79074 388.90692 300.4476Z" fill-rule="nonzero"/><path fill="#000000" fill-opacity="0.0" clip-path="url(#id_0)" d="M393.94504 300.4476C393.94504 302.10443 392.6019 303.4476 390.94504 303.4476C389.28818 303.4476 387.94504 302.10443 387.94504 300.4476C387.94504 298.79074 389.28818 297.4476 390.94504 297.4476C392.6019 297.4476 393.94504 298.79074 393.94504 300.4476Z" fill-rule="nonzero"/><path fill="#000000" fill-opacity="0.0" clip-path="url(#id_0)" d="M398.98416 300.4476C398.98416 302.10443 397.64102 303.4476 395.98416 303.4476C394.3273 303.4476 392.98416 302.10443 392.98416 300.4476C392.98416 298.79074 394.3273 297.4476 395.98416 297.4476C397.64102 297.4476 398.98416 298.79074 398.98416 300.4476Z" fill-rule="nonzero"/><path fill="#000000" fill-opacity="0.0" clip-path="url(#id_0)" d="M404.02228 300.4476C404.02228 302.10443 402.67914 303.4476 401.02228 303.4476C399.36545 303.4476 398.02228 302.10443 398.02228 300.4476C398.02228 298.79074 399.36545 297.4476 401.02228 297.4476C402.67914 297.4476 404.02228 298.79074 404.02228 300.4476Z" fill-rule="nonzero"/><path fill="#000000" fill-opacity="0.0" clip-path="url(#id_0)" d="M409.06143 300.4476C409.06143 302.10443 407.71826 303.4476 406.06143 303.4476C404.40457 303.4476 403.06143 302.10443 403.06143 300.4476C403.06143 298.79074 404.40457 297.4476 406.06143 297.4476C407.71826 297.4476 409.06143 298.79074 409.06143 300.4476Z" fill-rule="nonzero"/><path fill="#000000" fill-opacity="0.0" clip-path="url(#id_0)" d="M414.09955 300.4476C414.09955 302.10443 412.7564 303.4476 411.09955 303.4476C409.4427 303.4476 408.09955 302.10443 408.09955 300.4476C408.09955 298.79074 409.4427 297.4476 411.09955 297.4476C412.7564 297.4476 414.09955 298.79074 414.09955 300.4476Z" fill-rule="nonzero"/><path fill="#000000" fill-opacity="0.0" clip-path="url(#id_0)" d="M419.13766 300.4476C419.13766 302.10443 417.79453 303.4476 416.13766 303.4476C414.4808 303.4476 413.13766 302.10443 413.13766 300.4476C413.13766 298.79074 414.4808 297.4476 416.13766 297.4476C417.79453 297.4476 419.13766 298.79074 419.13766 300.4476Z" fill-rule="nonzero"/><path fill="#000000" fill-opacity="0.0" clip-path="url(#id_0)" d="M424.17578 300.4476C424.17578 302.10443 422.83264 303.4476 421.17578 303.4476C419.51892 303.4476 418.17578 302.10443 418.17578 300.4476C418.17578 298.79074 419.51892 297.4476 421.17578 297.4476C422.83264 297.4476 424.17578 298.79074 424.17578 300.4476Z" fill-rule="nonzero"/><path fill="#000000" fill-opacity="0.0" clip-path="url(#id_0)" d="M429.2139 300.4476C429.2139 302.10446 427.87076 303.4476 426.2139 303.4476C424.55707 303.4476 423.2139 302.10446 423.2139 300.4476C423.2139 298.79074 424.55707 297.4476 426.2139 297.4476C427.87076 297.4476 429.2139 298.79074 429.2139 300.4476Z" fill-rule="nonzero"/><path fill="#000000" fill-opacity="0.0" clip-path="url(#id_0)" d="M434.25204 300.4476C434.25204 302.10446 432.90887 303.4476 431.25204 303.4476C429.59518 303.4476 428.25204 302.10446 428.25204 300.4476C428.25204 298.79074 429.59518 297.4476 431.25204 297.4476C432.90887 297.4476 434.25204 298.79074 434.25204 300.4476Z" fill-rule="nonzero"/><path fill="#000000" fill-opacity="0.0" clip-path="url(#id_0)" d="M439.29016 300.4476C439.29016 302.10446 437.94702 303.4476 436.29016 303.4476C434.6333 303.4476 433.29016 302.10446 433.29016 300.4476C433.29016 298.79074 434.6333 297.4476 436.29016 297.4476C437.94702 297.4476 439.29016 298.79074 439.29016 300.4476Z" fill-rule="nonzero"/><path fill="#000000" fill-opacity="0.0" clip-path="url(#id_0)" d="M444.32828 300.4476C444.32828 302.10446 442.98514 303.4476 441.32828 303.4476C439.67142 303.4476 438.32828 302.10446 438.32828 300.4476C438.32828 298.79074 439.67142 297.4476 441.32828 297.4476C442.98514 297.4476 444.32828 298.79074 444.32828 300.4476Z" fill-rule="nonzero"/><path fill="#000000" fill-opacity="0.0" clip-path="url(#id_0)" d="M449.3654 300.4476C449.3654 302.10446 448.02225 303.4476 446.3654 303.4476C444.70853 303.4476 443.3654 302.10446 443.3654 300.4476C443.3654 298.79074 444.70853 297.4476 446.3654 297.4476C448.02225 297.4476 449.3654 298.79074 449.3654 300.4476Z" fill-rule="nonzero"/><path fill="#000000" fill-opacity="0.0" clip-path="url(#id_0)" d="M454.4035 300.4476C454.4035 302.10446 453.06036 303.4476 451.4035 303.4476C449.74667 303.4476 448.4035 302.10446 448.4035 300.4476C448.4035 298.79074 449.74667 297.4476 451.4035 297.4476C453.06036 297.4476 454.4035 298.79074 454.4035 300.4476Z" fill-rule="nonzero"/><path fill="#000000" fill-opacity="0.0" clip-path="url(#id_0)" d="M459.44064 300.4476C459.44064 302.10446 458.09747 303.4476 456.44064 303.4476C454.78378 303.4476 453.44064 302.10446 453.44064 300.4476C453.44064 298.79074 454.78378 297.4476 456.44064 297.4476C458.09747 297.4476 459.44064 298.79074 459.44064 300.4476Z" fill-rule="nonzero"/><path fill="#000000" fill-opacity="0.0" clip-path="url(#id_0)" d="M464.47876 300.4476C464.47876 302.10446 463.13562 303.4476 461.47876 303.4476C459.8219 303.4476 458.47876 302.10446 458.47876 300.4476C458.47876 298.79074 459.8219 297.4476 461.47876 297.4476C463.13562 297.4476 464.47876 298.79074 464.47876 300.4476Z" fill-rule="nonzero"/><path fill="#000000" fill-opacity="0.0" clip-path="url(#id_0)" d="M469.51587 300.4476C469.51587 302.10446 468.17273 303.4476 466.51587 303.4476C464.859 303.4476 463.51587 302.10446 463.51587 300.4476C463.51587 298.79074 464.859 297.4476 466.51587 297.4476C468.17273 297.4476 469.51587 298.79074 469.51587 300.4476Z" fill-rule="nonzero"/><path fill="#000000" fill-opacity="0.0" clip-path="url(#id_0)" d="M474.55298 300.4476C474.55298 302.10446 473.20984 303.4476 471.55298 303.4476C469.89612 303.4476 468.55298 302.10446 468.55298 300.4476C468.55298 298.79074 469.89612 297.4476 471.55298 297.4476C473.20984 297.4476 474.55298 298.79074 474.55298 300.4476Z" fill-rule="nonzero"/><path fill="#000000" fill-opacity="0.0" clip-path="url(#id_0)" d="M479.5901 300.4476C479.5901 302.10446 478.24695 303.4476 476.5901 303.4476C474.93326 303.4476 473.5901 302.10446 473.5901 300.4476C473.5901 298.79074 474.93326 297.4476 476.5901 297.4476C478.24695 297.4476 479.5901 298.79074 479.5901 300.4476Z" fill-rule="nonzero"/><path fill="#000000" fill-opacity="0.0" clip-path="url(#id_0)" d="M484.62723 300.4476C484.62723 302.10446 483.28406 303.4476 481.62723 303.4476C479.97037 303.4476 478.62723 302.10446 478.62723 300.4476C478.62723 298.79074 479.97037 297.4476 481.62723 297.4476C483.28406 297.4476 484.62723 298.79074 484.62723 300.4476Z" fill-rule="nonzero"/><path fill="#000000" fill-opacity="0.0" clip-path="url(#id_0)" d="M489.66434 300.4476C489.66434 302.10446 488.32117 303.4476 486.66434 303.4476C485.00748 303.4476 483.66434 302.10446 483.66434 300.4476C483.66434 298.79074 485.00748 297.4476 486.66434 297.4476C488.32117 297.4476 489.66434 298.79074 489.66434 300.4476Z" fill-rule="nonzero"/><path fill="#000000" fill-opacity="0.0" clip-path="url(#id_0)" d="M494.70145 300.4476C494.70145 302.10446 493.3583 303.4476 491.70145 303.4476C490.0446 303.4476 488.70145 302.10446 488.70145 300.4476C488.70145 298.79074 490.0446 297.4476 491.70145 297.4476C493.3583 297.4476 494.70145 298.79074 494.70145 300.4476Z" fill-rule="nonzero"/><path fill="#000000" fill-opacity="0.0" clip-path="url(#id_0)" d="M499.73856 300.4476C499.73856 302.10446 498.39542 303.4476 496.73856 303.4476C495.0817 303.4476 493.73856 302.10446 493.73856 300.4476C493.73856 298.79074 495.0817 297.4476 496.73856 297.4476C498.39542 297.4476 499.73856 298.79074 499.73856 300.4476Z" fill-rule="nonzero"/><path fill="#000000" fill-opacity="0.0" clip-path="url(#id_0)" d="M504.77466 300.4476C504.77466 302.10446 503.43152 303.4476 501.77466 303.4476C500.1178 303.4476 498.77466 302.10446 498.77466 300.4476C498.77466 298.79074 500.1178 297.4476 501.77466 297.4476C503.43152 297.4476 504.77466 298.79074 504.77466 300.4476Z" fill-rule="nonzero"/><path fill="#000000" fill-opacity="0.0" clip-path="url(#id_0)" d="M509.81177 300.4476C509.81177 302.10446 508.46863 303.4476 506.81177 303.4476C505.15494 303.4476 503.81177 302.10446 503.81177 300.4476C503.81177 298.79074 505.15494 297.4476 506.81177 297.4476C508.46863 297.4476 509.81177 298.79074 509.81177 300.4476Z" fill-rule="nonzero"/><path fill="#000000" fill-opacity="0.0" clip-path="url(#id_0)" d="M514.8479 300.4476C514.8479 302.10446 513.50476 303.4476 511.84787 303.4476C510.19104 303.4476 508.84787 302.10446 508.84787 300.4476C508.84787 298.79074 510.19104 297.4476 511.84787 297.4476C513.50476 297.4476 514.8479 298.79074 514.8479 300.4476Z" fill-rule="nonzero"/><path fill="#000000" fill-opacity="0.0" clip-path="url(#id_0)" d="M519.884 300.4476C519.884 302.10446 518.54083 303.4476 516.884 303.4476C515.2271 303.4476 513.884 302.10446 513.884 300.4476C513.884 298.79074 515.2271 297.4476 516.884 297.4476C518.54083 297.4476 519.884 298.79074 519.884 300.4476Z" fill-rule="nonzero"/><path fill="#000000" fill-opacity="0.0" clip-path="url(#id_0)" d="M524.9211 300.4476C524.9211 302.10446 523.57794 303.4476 521.9211 303.4476C520.2642 303.4476 518.9211 302.10446 518.9211 300.4476C518.9211 298.79074 520.2642 297.4476 521.9211 297.4476C523.57794 297.4476 524.9211 298.79074 524.9211 300.4476Z" fill-rule="nonzero"/><path fill="#000000" fill-opacity="0.0" clip-path="url(#id_0)" d="M529.9572 300.4476C529.9572 302.10446 528.6141 303.4476 526.9572 303.4476C525.30035 303.4476 523.9572 302.10446 523.9572 300.4476C523.9572 298.79074 525.30035 297.4476 526.9572 297.4476C528.6141 297.4476 529.9572 298.79074 529.9572 300.4476Z" fill-rule="nonzero"/><path fill="#000000" fill-opacity="0.0" clip-path="url(#id_0)" d="M534.9923 300.4476C534.9923 302.10446 533.6492 303.4476 531.9923 303.4476C530.33545 303.4476 528.9923 302.10446 528.9923 300.4476C528.9923 298.79074 530.33545 297.4476 531.9923 297.4476C533.6492 297.4476 534.9923 298.79074 534.9923 300.4476Z" fill-rule="nonzero"/><path fill="#000000" fill-opacity="0.0" clip-path="url(#id_0)" d="M540.02844 300.4476C540.02844 302.10446 538.68524 303.4476 537.02844 303.4476C535.3716 303.4476 534.02844 302.10446 534.02844 300.4476C534.02844 298.79074 535.3716 297.4476 537.02844 297.4476C538.68524 297.4476 540.02844 298.79074 540.02844 300.4476Z" fill-rule="nonzero"/><path fill="#000000" fill-opacity="0.0" clip-path="url(#id_0)" d="M545.0645 300.4476C545.0645 302.10446 543.7214 303.4476 542.0645 303.4476C540.40765 303.4476 539.0645 302.10446 539.0645 300.4476C539.0645 298.79074 540.40765 297.4476 542.0645 297.4476C543.7214 297.4476 545.0645 298.79074 545.0645 300.4476Z" fill-rule="nonzero"/><path fill="#000000" fill-opacity="0.0" clip-path="url(#id_0)" d="M550.10065 300.4476C550.10065 302.10446 548.7575 303.4476 547.10065 303.4476C545.4438 303.4476 544.10065 302.10446 544.10065 300.4476C544.10065 298.79074 545.4438 297.4476 547.10065 297.4476C548.7575 297.4476 550.10065 298.79074 550.10065 300.4476Z" fill-rule="nonzero"/><path fill="#000000" fill-opacity="0.0" clip-path="url(#id_0)" d="M555.13574 300.4476C555.13574 302.10446 553.7926 303.4476 552.13574 303.4476C550.4789 303.4476 549.13574 302.10446 549.13574 300.4476C549.13574 298.79074 550.4789 297.4476 552.13574 297.4476C553.7926 297.4476 555.13574 298.79074 555.13574 300.4476Z" fill-rule="nonzero"/><path fill="#000000" fill-opacity="0.0" clip-path="url(#id_0)" d="M560.17084 300.4476C560.17084 302.10446 558.8277 303.4476 557.17084 303.4476C555.514 303.4476 554.17084 302.10446 554.17084 300.4476C554.17084 298.79074 555.514 297.4476 557.17084 297.4476C558.8277 297.4476 560.17084 298.79074 560.17084 300.4476Z" fill-rule="nonzero"/><path fill="#000000" fill-opacity="0.0" clip-path="url(#id_0)" d="M565.2069 300.4476C565.2069 302.10446 563.8638 303.4476 562.2069 303.4476C560.55005 303.4476 559.2069 302.10446 559.2069 300.4476C559.2069 298.79074 560.55005 297.4476 562.2069 297.4476C563.8638 297.4476 565.2069 298.79074 565.2069 300.4476Z" fill-rule="nonzero"/><path fill="#000000" fill-opacity="0.0" clip-path="url(#id_0)" d="M570.242 300.4476C570.242 302.10446 568.89886 303.4476 567.242 303.4476C565.5852 303.4476 564.242 302.10446 564.242 300.4476C564.242 298.79074 565.5852 297.4476 567.242 297.4476C568.89886 297.4476 570.242 298.79074 570.242 300.4476Z" fill-rule="nonzero"/><path fill="#000000" fill-opacity="0.0" clip-path="url(#id_0)" d="M575.2771 300.4476C575.2771 302.10446 573.93396 303.4476 572.2771 303.4476C570.6203 303.4476 569.2771 302.10446 569.2771 300.4476C569.2771 298.79074 570.6203 297.4476 572.2771 297.4476C573.93396 297.4476 575.2771 298.79074 575.2771 300.4476Z" fill-rule="nonzero"/><path fill="#000000" fill-opacity="0.0" clip-path="url(#id_0)" d="M580.31226 300.4476C580.31226 302.10446 578.96906 303.4476 577.31226 303.4476C575.6554 303.4476 574.31226 302.10446 574.31226 300.4476C574.31226 298.79074 575.6554 297.4476 577.31226 297.4476C578.96906 297.4476 580.31226 298.79074 580.31226 300.4476Z" fill-rule="nonzero"/><path fill="#000000" fill-opacity="0.0" clip-path="url(#id_0)" d="M584.45 300.4476C584.45 302.10446 583.1069 303.4476 581.45 303.4476C579.79315 303.4476 578.45 302.10446 578.45 300.4476C578.45 298.79074 579.79315 297.4476 581.45 297.4476C583.1069 297.4476 584.45 298.79074 584.45 300.4476Z" fill-rule="nonzero"/><path fill="#000000" d="M298.54688 347.45L299.64062 347.575Q299.39062 348.52814 298.6875 349.0594Q297.98438 349.59064 296.90625 349.59064Q295.54688 349.59064 294.73438 348.7469Q293.9375 347.90314 293.9375 346.3875Q293.9375 344.825 294.75 343.96564Q295.5625 343.09064 296.84375 343.09064Q298.09375 343.09064 298.875 343.9344Q299.67188 344.77814 299.67188 346.325Q299.67188 346.41876 299.67188 346.60626L295.03125 346.60626Q295.09375 347.6375 295.60938 348.1844Q296.125 348.71564 296.90625 348.71564Q297.48438 348.71564 297.89062 348.41876Q298.3125 348.10626 298.54688 347.45ZM295.09375 345.7469L298.5625 345.7469Q298.5 344.95 298.17188 344.5594Q297.65625 343.95 296.85938 343.95Q296.125 343.95 295.625 344.4344Q295.14062 344.91876 295.09375 345.7469ZM301.29688 351.84064L301.29688 343.23126L302.25 343.23126L302.25 344.02814Q302.59375 343.5594 303.01562 343.325Q303.45312 343.09064 304.0625 343.09064Q304.85938 343.09064 305.46875 343.4969Q306.07812 343.90314 306.375 344.65314Q306.6875 345.40314 306.6875 346.29376Q306.6875 347.2469 306.34375 348.0125Q306.01562 348.77814 305.35938 349.1844Q304.70312 349.59064 303.98438 349.59064Q303.45312 349.59064 303.03125 349.3719Q302.60938 349.1375 302.34375 348.8094L302.34375 351.84064L301.29688 351.84064ZM302.25 346.3719Q302.25 347.575 302.73438 348.15314Q303.21875 348.71564 303.90625 348.71564Q304.60938 348.71564 305.10938 348.1219Q305.60938 347.52814 305.60938 346.27814Q305.60938 345.09064 305.125 344.5125Q304.64062 343.91876 303.95312 343.91876Q303.28125 343.91876 302.76562 344.54376Q302.25 345.16876 302.25 346.3719ZM307.875 347.59064L308.90625 347.4344Q309.0 348.0594 309.39062 348.3875Q309.79688 348.71564 310.53125 348.71564Q311.25 348.71564 311.59375 348.4344Q311.95312 348.1375 311.95312 347.73126Q311.95312 347.3719 311.64062 347.16876Q311.42188 347.02814 310.5625 346.8094Q309.40625 346.5125 308.95312 346.3094Q308.51562 346.09064 308.28125 345.71564Q308.04688 345.34064 308.04688 344.8719Q308.04688 344.46564 308.23438 344.10626Q308.42188 343.7469 308.75 343.5125Q309.0 343.34064 309.42188 343.21564Q309.84375 343.09064 310.34375 343.09064Q311.0625 343.09064 311.60938 343.3094Q312.17188 343.5125 312.4375 343.8719Q312.70312 344.23126 312.79688 344.825L311.76562 344.96564Q311.70312 344.4969 311.35938 344.23126Q311.03125 343.95 310.40625 343.95Q309.6875 343.95 309.375 344.2Q309.0625 344.4344 309.0625 344.7625Q309.0625 344.96564 309.1875 345.1219Q309.32812 345.29376 309.59375 345.40314Q309.75 345.46564 310.53125 345.66876Q311.65625 345.98126 312.09375 346.16876Q312.53125 346.35626 312.78125 346.71564Q313.03125 347.075 313.03125 347.6219Q313.03125 348.15314 312.71875 348.6219Q312.42188 349.075 311.84375 349.34064Q311.26562 349.59064 310.53125 349.59064Q309.3125 349.59064 308.67188 349.09064Q308.04688 348.575 307.875 347.59064ZM319.35938 347.16876L320.39062 347.3094Q320.21875 348.3719 319.51562 348.98126Q318.8125 349.59064 317.79688 349.59064Q316.51562 349.59064 315.73438 348.7625Q314.96875 347.91876 314.96875 346.35626Q314.96875 345.35626 315.29688 344.60626Q315.64062 343.84064 316.3125 343.46564Q317.0 343.09064 317.8125 343.09064Q318.8125 343.09064 319.45312 343.60626Q320.10938 344.10626 320.29688 345.0594L319.26562 345.21564Q319.125 344.59064 318.75 344.27814Q318.375 343.95 317.84375 343.95Q317.04688 343.95 316.54688 344.52814Q316.04688 345.09064 316.04688 346.325Q316.04688 347.59064 316.53125 348.15314Q317.01562 348.71564 317.78125 348.71564Q318.40625 348.71564 318.8125 348.34064Q319.23438 347.96564 319.35938 347.16876ZM321.28125 349.45L321.28125 343.23126L322.23438 343.23126L322.23438 344.16876Q322.59375 343.5125 322.89062 343.3094Q323.20312 343.09064 323.57812 343.09064Q324.10938 343.09064 324.65625 343.41876L324.29688 344.40314Q323.90625 344.16876 323.53125 344.16876Q323.17188 344.16876 322.89062 344.3875Q322.625 344.59064 322.51562 344.96564Q322.32812 345.52814 322.32812 346.1844L322.32812 349.45L321.28125 349.45ZM324.3125 351.84064L324.3125 351.075L331.3125 351.075L331.3125 351.84064L324.3125 351.84064ZM335.96875 349.45L334.92188 349.45L334.92188 342.73126Q334.53125 343.09064 333.90625 343.46564Q333.29688 343.825 332.8125 343.9969L332.8125 342.98126Q333.6875 342.5594 334.34375 341.98126Q335.01562 341.3875 335.29688 340.825L335.96875 340.825L335.96875 349.45ZM339.0 347.1844L340.0625 347.04376Q340.23438 347.9344 340.67188 348.34064Q341.10938 348.73126 341.73438 348.73126Q342.48438 348.73126 343.0 348.21564Q343.51562 347.7 343.51562 346.9344Q343.51562 346.21564 343.03125 345.7469Q342.5625 345.2625 341.82812 345.2625Q341.53125 345.2625 341.07812 345.3875L341.20312 344.45Q341.3125 344.46564 341.375 344.46564Q342.04688 344.46564 342.57812 344.1219Q343.125 343.7625 343.125 343.02814Q343.125 342.45 342.73438 342.075Q342.34375 341.6844 341.71875 341.6844Q341.10938 341.6844 340.6875 342.075Q340.28125 342.46564 340.17188 343.23126L339.10938 343.04376Q339.29688 341.9969 339.98438 341.41876Q340.67188 340.825 341.6875 340.825Q342.39062 340.825 342.98438 341.1375Q343.57812 341.4344 343.89062 341.95Q344.20312 342.46564 344.20312 343.0594Q344.20312 343.60626 343.90625 344.075Q343.60938 344.52814 343.03125 344.79376Q343.78125 344.96564 344.20312 345.52814Q344.625 346.075 344.625 346.91876Q344.625 348.04376 343.79688 348.825Q342.98438 349.60626 341.73438 349.60626Q340.60938 349.60626 339.85938 348.9344Q339.10938 348.2469 339.0 347.1844ZM349.3125 351.84064L349.3125 340.85626L351.64062 340.85626L351.64062 341.73126L350.375 341.73126L350.375 350.96564L351.64062 350.96564L351.64062 351.84064L349.3125 351.84064ZM352.20312 342.91876Q352.20312 341.9969 352.65625 341.35626Q353.125 340.71564 354.0 340.71564Q354.8125 340.71564 355.34375 341.29376Q355.875 341.8719 355.875 342.98126Q355.875 344.075 355.32812 344.66876Q354.79688 345.2469 354.01562 345.2469Q353.23438 345.2469 352.71875 344.66876Q352.20312 344.09064 352.20312 342.91876ZM354.03125 341.4344Q353.64062 341.4344 353.375 341.77814Q353.125 342.1219 353.125 343.02814Q353.125 343.85626 353.375 344.2Q353.64062 344.52814 354.03125 344.52814Q354.4375 344.52814 354.6875 344.1844Q354.95312 343.84064 354.95312 342.95Q354.95312 342.10626 354.6875 341.77814Q354.42188 341.4344 354.03125 341.4344ZM354.03125 349.7625L358.73438 340.71564L359.59375 340.71564L354.90625 349.7625L354.03125 349.7625ZM357.75 347.4344Q357.75 346.5125 358.20312 345.8719Q358.67188 345.23126 359.5625 345.23126Q360.375 345.23126 360.90625 345.8094Q361.4375 346.3719 361.4375 347.4969Q361.4375 348.59064 360.89062 349.1844Q360.35938 349.7625 359.5625 349.7625Q358.79688 349.7625 358.26562 349.1844Q357.75 348.60626 357.75 347.4344ZM359.59375 345.95Q359.1875 345.95 358.92188 346.29376Q358.67188 346.6375 358.67188 347.54376Q358.67188 348.35626 358.9375 348.7Q359.20312 349.04376 359.59375 349.04376Q359.98438 349.04376 360.25 348.7Q360.51562 348.35626 360.51562 347.45Q360.51562 346.6219 360.25 346.29376Q359.98438 345.95 359.59375 345.95ZM365.0625 351.84064L362.73438 351.84064L362.73438 350.96564L364.0 350.96564L364.0 341.73126L362.73438 341.73126L362.73438 340.85626L365.0625 340.85626L365.0625 351.84064Z" fill-rule="nonzero"/><path fill="#000000" d="M26.784388 214.63646L26.690638 213.57396Q27.346888 213.49583 27.753138 213.21458Q28.159388 212.93333 28.425013 212.35521Q28.675013 211.76146 28.675013 211.02708Q28.675013 210.38646 28.487513 209.88646Q28.284388 209.38646 27.956263 209.15208Q27.612513 208.90208 27.221888 208.90208Q26.815638 208.90208 26.518763 209.13646Q26.206263 209.37083 26.003138 209.90208Q25.862513 210.26146 25.581263 211.44896Q25.300013 212.62083 25.050013 213.08958Q24.721888 213.71458 24.253138 214.01146Q23.768763 214.30833 23.175013 214.30833Q22.534388 214.30833 21.971888 213.94896Q21.393763 213.57396 21.112513 212.87083Q20.815638 212.15208 20.815638 211.29271Q20.815638 210.33958 21.128138 209.60521Q21.425013 208.87083 22.034388 208.48021Q22.628138 208.08958 23.378138 208.05833L23.456263 209.15208Q22.643763 209.24583 22.237513 209.76146Q21.815638 210.26146 21.815638 211.24583Q21.815638 212.27708 22.190638 212.74583Q22.565638 213.21458 23.096888 213.21458Q23.565638 213.21458 23.862513 212.88646Q24.159388 212.55833 24.471888 211.18333Q24.784388 209.79271 25.018763 209.27708Q25.378138 208.52708 25.909388 208.16771Q26.425013 207.80833 27.128138 207.80833Q27.815638 207.80833 28.425013 208.19896Q29.018763 208.58958 29.362513 209.32396Q29.690638 210.05833 29.690638 210.98021Q29.690638 212.15208 29.362513 212.94896Q29.018763 213.73021 28.331263 214.18333Q27.643763 214.62083 26.784388 214.63646ZM29.550013 202.71458L29.550013 203.76146L22.831263 203.76146Q23.190638 204.15208 23.565638 204.77708Q23.925013 205.38646 24.096888 205.87083L23.081263 205.87083Q22.659388 204.99583 22.081263 204.33958Q21.487513 203.66771 20.925013 203.38646L20.925013 202.71458L29.550013 202.71458ZM27.284388 199.68333L27.143763 198.62083Q28.034388 198.44896 28.440638 198.01146Q28.831263 197.57396 28.831263 196.94896Q28.831263 196.19896 28.315638 195.68333Q27.800013 195.16771 27.034388 195.16771Q26.315638 195.16771 25.846888 195.65208Q25.362513 196.12083 25.362513 196.85521Q25.362513 197.15208 25.487513 197.60521L24.550013 197.48021Q24.565638 197.37083 24.565638 197.30833Q24.565638 196.63646 24.221888 196.10521Q23.862513 195.55833 23.128138 195.55833Q22.550013 195.55833 22.175013 195.94896Q21.784388 196.33958 21.784388 196.96458Q21.784388 197.57396 22.175013 197.99583Q22.565638 198.40208 23.331263 198.51146L23.143763 199.57396Q22.096888 199.38646 21.518763 198.69896Q20.925013 198.01146 20.925013 196.99583Q20.925013 196.29271 21.237513 195.69896Q21.534388 195.10521 22.050013 194.79271Q22.565638 194.48021 23.159388 194.48021Q23.706263 194.48021 24.175013 194.77708Q24.628138 195.07396 24.893763 195.65208Q25.065638 194.90208 25.628138 194.48021Q26.175013 194.05833 27.018763 194.05833Q28.143763 194.05833 28.925013 194.88646Q29.706263 195.69896 29.706263 196.94896Q29.706263 198.07396 29.034388 198.82396Q28.346888 199.57396 27.284388 199.68333ZM31.940638 189.37083L20.956263 189.37083L20.956263 187.04271L21.831263 187.04271L21.831263 188.30833L31.065638 188.30833L31.065638 187.04271L31.940638 187.04271L31.940638 189.37083ZM29.550013 186.29271L20.956263 186.29271L20.956263 184.57396L27.034388 182.54271Q27.893763 182.26146 28.315638 182.13646Q27.846888 181.99583 26.940638 181.68333L20.956263 179.62083L20.956263 178.08958L29.550013 178.08958L29.550013 179.18333L22.362513 179.18333L29.550013 181.68333L29.550013 182.71458L22.237513 185.19896L29.550013 185.19896L29.550013 186.29271ZM29.550013 177.26146L20.956263 177.26146L20.956263 174.01146Q20.956263 173.16771 21.034388 172.71458Q21.143763 172.07396 21.440638 171.65208Q21.737513 171.21458 22.268763 170.96458Q22.800013 170.69896 23.440638 170.69896Q24.534388 170.69896 25.300013 171.40208Q26.050013 172.08958 26.050013 173.91771L26.050013 176.12083L29.550013 176.12083L29.550013 177.26146ZM25.050013 176.12083L25.050013 173.90208Q25.050013 172.79271 24.643763 172.33958Q24.221888 171.87083 23.471888 171.87083Q22.940638 171.87083 22.565638 172.15208Q22.175013 172.41771 22.050013 172.85521Q21.971888 173.15208 21.971888 173.91771L21.971888 176.12083L25.050013 176.12083ZM28.784388 165.32396Q29.284388 165.91771 29.487513 166.46458Q29.690638 166.99583 29.690638 167.62083Q29.690638 168.65208 29.190638 169.19896Q28.690638 169.74583 27.909388 169.74583Q27.456263 169.74583 27.081263 169.54271Q26.690638 169.33958 26.471888 168.99583Q26.237513 168.65208 26.128138 168.23021Q26.034388 167.93333 25.956263 167.29271Q25.815638 166.02708 25.596888 165.41771Q25.378138 165.41771 25.331263 165.41771Q24.675013 165.41771 24.409388 165.71458Q24.065638 166.12083 24.065638 166.91771Q24.065638 167.65208 24.331263 168.01146Q24.581263 168.37083 25.237513 168.54271L25.096888 169.57396Q24.440638 169.43333 24.034388 169.10521Q23.628138 168.77708 23.409388 168.16771Q23.190638 167.55833 23.190638 166.76146Q23.190638 165.96458 23.378138 165.46458Q23.565638 164.96458 23.846888 164.73021Q24.128138 164.49583 24.565638 164.40208Q24.831263 164.35521 25.534388 164.35521L26.940638 164.35521Q28.409388 164.35521 28.800013 164.29271Q29.190638 164.21458 29.550013 164.01146L29.550013 165.12083Q29.221888 165.27708 28.784388 165.32396ZM26.425013 165.41771Q26.659388 165.99583 26.831263 167.13646Q26.925013 167.79271 27.050013 168.05833Q27.159388 168.32396 27.378138 168.48021Q27.596888 168.62083 27.878138 168.62083Q28.300013 168.62083 28.581263 168.30833Q28.862513 167.98021 28.862513 167.37083Q28.862513 166.76146 28.596888 166.29271Q28.331263 165.80833 27.862513 165.58958Q27.503138 165.41771 26.815638 165.41771L26.425013 165.41771ZM31.940638 160.62083L31.940638 162.94896L31.065638 162.94896L31.065638 161.68333L21.831263 161.68333L21.831263 162.94896L20.956263 162.94896L20.956263 160.62083L31.940638 160.62083Z" fill-rule="nonzero"/><path fill="#000000" d="M65.05 300.21564Q65.05 298.6844 65.3625 297.7625Q65.675 296.825 66.28438 296.325Q66.90938 295.825 67.84688 295.825Q68.53438 295.825 69.05 296.10626Q69.58125 296.3875 69.925 296.91876Q70.26875 297.4344 70.45625 298.1844Q70.64375 298.9344 70.64375 300.21564Q70.64375 301.73126 70.33125 302.65314Q70.03438 303.575 69.40938 304.09064Q68.8 304.59064 67.84688 304.59064Q66.6125 304.59064 65.89375 303.7Q65.05 302.6375 65.05 300.21564ZM66.12813 300.21564Q66.12813 302.325 66.62813 303.02814Q67.12813 303.73126 67.84688 303.73126Q68.58125 303.73126 69.06563 303.02814Q69.56563 302.325 69.56563 300.21564Q69.56563 298.09064 69.06563 297.40314Q68.58125 296.7 67.83125 296.7Q67.1125 296.7 66.675 297.3094Q66.12813 298.09064 66.12813 300.21564Z" fill-rule="nonzero"/><path fill="#000000" d="M63.596874 243.80104L63.596874 244.81667L57.909374 244.81667Q57.909374 244.44167 58.034374 244.08229Q58.253124 243.50417 58.721874 242.94167Q59.20625 242.37917 60.1125 241.64479Q61.51875 240.48854 62.003124 239.81667Q62.503124 239.14479 62.503124 238.55104Q62.503124 237.92604 62.05 237.50417Q61.596874 237.06667 60.878124 237.06667Q60.1125 237.06667 59.659374 237.51979Q59.20625 237.97292 59.190624 238.78542L58.1125 238.67604Q58.221874 237.45729 58.940624 236.83229Q59.675 236.19167 60.909374 236.19167Q62.14375 236.19167 62.8625 236.87917Q63.58125 237.56667 63.58125 238.58229Q63.58125 239.09792 63.3625 239.59792Q63.159374 240.08229 62.659374 240.64479Q62.175 241.19167 61.05 242.14479Q60.096874 242.94167 59.815624 243.23854Q59.55 243.51979 59.378124 243.80104L63.596874 243.80104ZM65.05 240.58229Q65.05 239.05104 65.3625 238.12917Q65.675 237.19167 66.28438 236.69167Q66.90938 236.19167 67.84688 236.19167Q68.53438 236.19167 69.05 236.47292Q69.58125 236.75417 69.925 237.28542Q70.26875 237.80104 70.45625 238.55104Q70.64375 239.30104 70.64375 240.58229Q70.64375 242.09792 70.33125 243.01979Q70.03438 243.94167 69.40938 244.45729Q68.8 244.95729 67.84688 244.95729Q66.6125 244.95729 65.89375 244.06667Q65.05 243.00417 65.05 240.58229ZM66.12813 240.58229Q66.12813 242.69167 66.62813 243.39479Q67.12813 244.09792 67.84688 244.09792Q68.58125 244.09792 69.06563 243.39479Q69.56563 242.69167 69.56563 240.58229Q69.56563 238.45729 69.06563 237.76979Q68.58125 237.06667 67.83125 237.06667Q67.1125 237.06667 66.675 237.67604Q66.12813 238.45729 66.12813 240.58229Z" fill-rule="nonzero"/><path fill="#000000" d="M61.425 185.18333L61.425 183.12083L57.70625 183.12083L57.70625 182.15208L61.628124 176.58958L62.4875 176.58958L62.4875 182.15208L63.64375 182.15208L63.64375 183.12083L62.4875 183.12083L62.4875 185.18333L61.425 185.18333ZM61.425 182.15208L61.425 178.29271L58.7375 182.15208L61.425 182.15208ZM65.05 180.94896Q65.05 179.41771 65.3625 178.49583Q65.675 177.55833 66.28438 177.05833Q66.90938 176.55833 67.84688 176.55833Q68.53438 176.55833 69.05 176.83958Q69.58125 177.12083 69.925 177.65208Q70.26875 178.16771 70.45625 178.91771Q70.64375 179.66771 70.64375 180.94896Q70.64375 182.46458 70.33125 183.38646Q70.03438 184.30833 69.40938 184.82396Q68.8 185.32396 67.84688 185.32396Q66.6125 185.32396 65.89375 184.43333Q65.05 183.37083 65.05 180.94896ZM66.12813 180.94896Q66.12813 183.05833 66.62813 183.76146Q67.12813 184.46458 67.84688 184.46458Q68.58125 184.46458 69.06563 183.76146Q69.56563 183.05833 69.56563 180.94896Q69.56563 178.82396 69.06563 178.13646Q68.58125 177.43333 67.83125 177.43333Q67.1125 177.43333 66.675 178.04271Q66.12813 178.82396 66.12813 180.94896Z" fill-rule="nonzero"/><path fill="#000000" d="M63.51875 119.06563L62.471874 119.14375Q62.33125 118.51875 62.08125 118.2375Q61.64375 117.78438 61.01875 117.78438Q60.51875 117.78438 60.128124 118.06563Q59.64375 118.44063 59.346874 119.14375Q59.065624 119.83125 59.05 121.1125Q59.425 120.53438 59.971874 120.25313Q60.534374 119.97188 61.14375 119.97188Q62.190624 119.97188 62.925 120.75313Q63.675 121.53438 63.675 122.75313Q63.675 123.56563 63.315624 124.26875Q62.971874 124.95625 62.3625 125.33125Q61.753124 125.69063 60.9875 125.69063Q59.659374 125.69063 58.83125 124.72188Q58.003124 123.75313 58.003124 121.53438Q58.003124 119.03438 58.925 117.90938Q59.721874 116.925 61.08125 116.925Q62.096874 116.925 62.7375 117.50313Q63.39375 118.06563 63.51875 119.06563ZM59.221874 122.76875Q59.221874 123.31563 59.440624 123.81563Q59.675 124.3 60.08125 124.56563Q60.503124 124.83125 60.971874 124.83125Q61.628124 124.83125 62.1125 124.3Q62.596874 123.75313 62.596874 122.83125Q62.596874 121.94063 62.1125 121.425Q61.64375 120.90938 60.925 120.90938Q60.20625 120.90938 59.70625 121.425Q59.221874 121.94063 59.221874 122.76875ZM65.05 121.31563Q65.05 119.78438 65.3625 118.8625Q65.675 117.925 66.28438 117.425Q66.90938 116.925 67.84688 116.925Q68.53438 116.925 69.05 117.20625Q69.58125 117.4875 69.925 118.01875Q70.26875 118.53438 70.45625 119.28438Q70.64375 120.03438 70.64375 121.31563Q70.64375 122.83125 70.33125 123.75313Q70.03438 124.675 69.40938 125.19063Q68.8 125.69063 67.84688 125.69063Q66.6125 125.69063 65.89375 124.8Q65.05 123.7375 65.05 121.31563ZM66.12813 121.31563Q66.12813 123.425 66.62813 124.12813Q67.12813 124.83125 67.84688 124.83125Q68.58125 124.83125 69.06563 124.12813Q69.56563 123.425 69.56563 121.31563Q69.56563 119.19063 69.06563 118.50313Q68.58125 117.8 67.83125 117.8Q67.1125 117.8 66.675 118.40938Q66.12813 119.19063 66.12813 121.31563Z" fill-rule="nonzero"/><path fill="#000000" d="M59.675 61.260414Q59.01875 61.010414 58.690624 60.572914Q58.378124 60.11979 58.378124 59.510414Q58.378124 58.572914 59.05 57.93229Q59.7375 57.291664 60.846874 57.291664Q61.971874 57.291664 62.659374 57.947914Q63.346874 58.604164 63.346874 59.541664Q63.346874 60.135414 63.034374 60.572914Q62.721874 61.010414 62.08125 61.260414Q62.878124 61.510414 63.284374 62.08854Q63.690624 62.666664 63.690624 63.46354Q63.690624 64.55729 62.909374 65.30729Q62.14375 66.05729 60.8625 66.05729Q59.596874 66.05729 58.815624 65.30729Q58.034374 64.55729 58.034374 63.43229Q58.034374 62.58854 58.45625 62.02604Q58.89375 61.46354 59.675 61.260414ZM59.45625 59.46354Q59.45625 60.072914 59.846874 60.46354Q60.253124 60.854164 60.878124 60.854164Q61.4875 60.854164 61.878124 60.479164Q62.26875 60.08854 62.26875 59.52604Q62.26875 58.947914 61.8625 58.55729Q61.45625 58.15104 60.8625 58.15104Q60.253124 58.15104 59.846874 58.541664Q59.45625 58.93229 59.45625 59.46354ZM59.128124 63.43229Q59.128124 63.885414 59.33125 64.30729Q59.55 64.729164 59.971874 64.96354Q60.39375 65.197914 60.878124 65.197914Q61.628124 65.197914 62.1125 64.71354Q62.6125 64.229164 62.6125 63.479164Q62.6125 62.71354 62.1125 62.21354Q61.6125 61.71354 60.846874 61.71354Q60.096874 61.71354 59.6125 62.21354Q59.128124 62.697914 59.128124 63.43229ZM65.05 61.68229Q65.05 60.15104 65.3625 59.229164Q65.675 58.291664 66.28438 57.791664Q66.90938 57.291664 67.84688 57.291664Q68.53438 57.291664 69.05 57.572914Q69.58125 57.854164 69.925 58.385414Q70.26875 58.90104 70.45625 59.65104Q70.64375 60.40104 70.64375 61.68229Q70.64375 63.197914 70.33125 64.11979Q70.03438 65.041664 69.40938 65.55729Q68.8 66.05729 67.84688 66.05729Q66.6125 66.05729 65.89375 65.166664Q65.05 64.104164 65.05 61.68229ZM66.12813 61.68229Q66.12813 63.791664 66.62813 64.49479Q67.12813 65.197914 67.84688 65.197914Q68.58125 65.197914 69.06563 64.49479Q69.56563 63.791664 69.56563 61.68229Q69.56563 59.55729 69.06563 58.86979Q68.58125 58.166664 67.83125 58.166664Q67.1125 58.166664 66.675 58.77604Q66.12813 59.55729 66.12813 61.68229Z" fill-rule="nonzero"/><path fill="#000000" d="M51.55 313.21564Q51.55 311.6844 51.8625 310.7625Q52.175 309.825 52.784374 309.325Q53.409374 308.825 54.346874 308.825Q55.034374 308.825 55.55 309.10626Q56.08125 309.3875 56.425 309.91876Q56.76875 310.4344 56.95625 311.1844Q57.14375 311.9344 57.14375 313.21564Q57.14375 314.73126 56.83125 315.65314Q56.534374 316.575 55.909374 317.09064Q55.3 317.59064 54.346874 317.59064Q53.1125 317.59064 52.39375 316.7Q51.55 315.6375 51.55 313.21564ZM52.628124 313.21564Q52.628124 315.325 53.128124 316.02814Q53.628124 316.73126 54.346874 316.73126Q55.08125 316.73126 55.565624 316.02814Q56.065624 315.325 56.065624 313.21564Q56.065624 311.09064 55.565624 310.40314Q55.08125 309.7 54.33125 309.7Q53.6125 309.7 53.175 310.3094Q52.628124 311.09064 52.628124 313.21564ZM59.14375 317.45L59.14375 316.2469L60.346874 316.2469L60.346874 317.45L59.14375 317.45ZM61.55 313.21564Q61.55 311.6844 61.8625 310.7625Q62.175 309.825 62.784374 309.325Q63.409374 308.825 64.34688 308.825Q65.03438 308.825 65.55 309.10626Q66.08125 309.3875 66.425 309.91876Q66.76875 310.4344 66.95625 311.1844Q67.14375 311.9344 67.14375 313.21564Q67.14375 314.73126 66.83125 315.65314Q66.53438 316.575 65.90938 317.09064Q65.3 317.59064 64.34688 317.59064Q63.1125 317.59064 62.39375 316.7Q61.55 315.6375 61.55 313.21564ZM62.628124 313.21564Q62.628124 315.325 63.128124 316.02814Q63.628124 316.73126 64.34688 316.73126Q65.08125 316.73126 65.56563 316.02814Q66.06563 315.325 66.06563 313.21564Q66.06563 311.09064 65.56563 310.40314Q65.08125 309.7 64.33125 309.7Q63.6125 309.7 63.175 310.3094Q62.628124 311.09064 62.628124 313.21564ZM68.55 313.21564Q68.55 311.6844 68.8625 310.7625Q69.175 309.825 69.78438 309.325Q70.40938 308.825 71.34688 308.825Q72.03438 308.825 72.55 309.10626Q73.08125 309.3875 73.425 309.91876Q73.76875 310.4344 73.95625 311.1844Q74.14375 311.9344 74.14375 313.21564Q74.14375 314.73126 73.83125 315.65314Q73.53438 316.575 72.90938 317.09064Q72.3 317.59064 71.34688 317.59064Q70.1125 317.59064 69.39375 316.7Q68.55 315.6375 68.55 313.21564ZM69.62813 313.21564Q69.62813 315.325 70.12813 316.02814Q70.62813 316.73126 71.34688 316.73126Q72.08125 316.73126 72.56563 316.02814Q73.06563 315.325 73.06563 313.21564Q73.06563 311.09064 72.56563 310.40314Q72.08125 309.7 71.33125 309.7Q70.6125 309.7 70.175 310.3094Q69.62813 311.09064 69.62813 313.21564ZM76.00313 317.45L76.00313 308.85626L82.20625 308.85626L82.20625 309.8719L77.14375 309.8719L77.14375 312.4969L81.89375 312.4969L81.89375 313.5125L77.14375 313.5125L77.14375 316.4344L82.40938 316.4344L82.40938 317.45L76.00313 317.45ZM86.05 316.0594L86.05 313.7L83.72188 313.7L83.72188 312.71564L86.05 312.71564L86.05 310.3875L87.05 310.3875L87.05 312.71564L89.39375 312.71564L89.39375 313.7L87.05 313.7L87.05 316.0594L86.05 316.0594ZM90.55 313.21564Q90.55 311.6844 90.8625 310.7625Q91.175 309.825 91.78438 309.325Q92.40938 308.825 93.34688 308.825Q94.03438 308.825 94.55 309.10626Q95.08125 309.3875 95.425 309.91876Q95.76875 310.4344 95.95625 311.1844Q96.14375 311.9344 96.14375 313.21564Q96.14375 314.73126 95.83125 315.65314Q95.53438 316.575 94.90938 317.09064Q94.3 317.59064 93.34688 317.59064Q92.1125 317.59064 91.39375 316.7Q90.55 315.6375 90.55 313.21564ZM91.62813 313.21564Q91.62813 315.325 92.12813 316.02814Q92.62813 316.73126 93.34688 316.73126Q94.08125 316.73126 94.56563 316.02814Q95.06563 315.325 95.06563 313.21564Q95.06563 311.09064 94.56563 310.40314Q94.08125 309.7 93.33125 309.7Q92.6125 309.7 92.175 310.3094Q91.62813 311.09064 91.62813 313.21564ZM97.55 313.21564Q97.55 311.6844 97.8625 310.7625Q98.175 309.825 98.78438 309.325Q99.40938 308.825 100.34688 308.825Q101.03438 308.825 101.55 309.10626Q102.08125 309.3875 102.425 309.91876Q102.76875 310.4344 102.95625 311.1844Q103.14375 311.9344 103.14375 313.21564Q103.14375 314.73126 102.83125 315.65314Q102.53438 316.575 101.90938 317.09064Q101.3 317.59064 100.34688 317.59064Q99.1125 317.59064 98.39375 316.7Q97.55 315.6375 97.55 313.21564ZM98.62813 313.21564Q98.62813 315.325 99.12813 316.02814Q99.62813 316.73126 100.34688 316.73126Q101.08125 316.73126 101.56563 316.02814Q102.06563 315.325 102.06563 313.21564Q102.06563 311.09064 101.56563 310.40314Q101.08125 309.7 100.33125 309.7Q99.6125 309.7 99.175 310.3094Q98.62813 311.09064 98.62813 313.21564Z" fill-rule="nonzero"/><path fill="#000000" d="M156.3417 317.45L155.29483 317.45L155.29483 310.73126Q154.9042 311.09064 154.2792 311.46564Q153.66983 311.825 153.18546 311.9969L153.18546 310.98126Q154.06046 310.5594 154.7167 309.98126Q155.38858 309.3875 155.66983 308.825L156.3417 308.825L156.3417 317.45ZM159.9667 317.45L159.9667 316.2469L161.16983 316.2469L161.16983 317.45L159.9667 317.45ZM162.37296 313.21564Q162.37296 311.6844 162.68546 310.7625Q162.99796 309.825 163.60733 309.325Q164.23233 308.825 165.16983 308.825Q165.85733 308.825 166.37296 309.10626Q166.9042 309.3875 167.24796 309.91876Q167.5917 310.4344 167.7792 311.1844Q167.9667 311.9344 167.9667 313.21564Q167.9667 314.73126 167.6542 315.65314Q167.35733 316.575 166.73233 317.09064Q166.12296 317.59064 165.16983 317.59064Q163.93546 317.59064 163.2167 316.7Q162.37296 315.6375 162.37296 313.21564ZM163.45108 313.21564Q163.45108 315.325 163.95108 316.02814Q164.45108 316.73126 165.16983 316.73126Q165.9042 316.73126 166.38858 316.02814Q166.88858 315.325 166.88858 313.21564Q166.88858 311.09064 166.38858 310.40314Q165.9042 309.7 165.1542 309.7Q164.43546 309.7 163.99796 310.3094Q163.45108 311.09064 163.45108 313.21564ZM169.37296 313.21564Q169.37296 311.6844 169.68546 310.7625Q169.99796 309.825 170.60733 309.325Q171.23233 308.825 172.16983 308.825Q172.85733 308.825 173.37296 309.10626Q173.9042 309.3875 174.24796 309.91876Q174.5917 310.4344 174.7792 311.1844Q174.9667 311.9344 174.9667 313.21564Q174.9667 314.73126 174.6542 315.65314Q174.35733 316.575 173.73233 317.09064Q173.12296 317.59064 172.16983 317.59064Q170.93546 317.59064 170.2167 316.7Q169.37296 315.6375 169.37296 313.21564ZM170.45108 313.21564Q170.45108 315.325 170.95108 316.02814Q171.45108 316.73126 172.16983 316.73126Q172.9042 316.73126 173.38858 316.02814Q173.88858 315.325 173.88858 313.21564Q173.88858 311.09064 173.38858 310.40314Q172.9042 309.7 172.1542 309.7Q171.43546 309.7 170.99796 310.3094Q170.45108 311.09064 170.45108 313.21564ZM176.82608 317.45L176.82608 308.85626L183.0292 308.85626L183.0292 309.8719L177.9667 309.8719L177.9667 312.4969L182.7167 312.4969L182.7167 313.5125L177.9667 313.5125L177.9667 316.4344L183.23233 316.4344L183.23233 317.45L176.82608 317.45ZM186.87296 316.0594L186.87296 313.7L184.54483 313.7L184.54483 312.71564L186.87296 312.71564L186.87296 310.3875L187.87296 310.3875L187.87296 312.71564L190.2167 312.71564L190.2167 313.7L187.87296 313.7L187.87296 316.0594L186.87296 316.0594ZM191.37296 313.21564Q191.37296 311.6844 191.68546 310.7625Q191.99796 309.825 192.60733 309.325Q193.23233 308.825 194.16983 308.825Q194.85733 308.825 195.37296 309.10626Q195.9042 309.3875 196.24796 309.91876Q196.5917 310.4344 196.7792 311.1844Q196.9667 311.9344 196.9667 313.21564Q196.9667 314.73126 196.6542 315.65314Q196.35733 316.575 195.73233 317.09064Q195.12296 317.59064 194.16983 317.59064Q192.93546 317.59064 192.2167 316.7Q191.37296 315.6375 191.37296 313.21564ZM192.45108 313.21564Q192.45108 315.325 192.95108 316.02814Q193.45108 316.73126 194.16983 316.73126Q194.9042 316.73126 195.38858 316.02814Q195.88858 315.325 195.88858 313.21564Q195.88858 311.09064 195.38858 310.40314Q194.9042 309.7 194.1542 309.7Q193.43546 309.7 192.99796 310.3094Q192.45108 311.09064 192.45108 313.21564ZM198.37296 313.21564Q198.37296 311.6844 198.68546 310.7625Q198.99796 309.825 199.60733 309.325Q200.23233 308.825 201.16983 308.825Q201.85733 308.825 202.37296 309.10626Q202.9042 309.3875 203.24796 309.91876Q203.5917 310.4344 203.7792 311.1844Q203.9667 311.9344 203.9667 313.21564Q203.9667 314.73126 203.6542 315.65314Q203.35733 316.575 202.73233 317.09064Q202.12296 317.59064 201.16983 317.59064Q199.93546 317.59064 199.2167 316.7Q198.37296 315.6375 198.37296 313.21564ZM199.45108 313.21564Q199.45108 315.325 199.95108 316.02814Q200.45108 316.73126 201.16983 316.73126Q201.9042 316.73126 202.38858 316.02814Q202.88858 315.325 202.88858 313.21564Q202.88858 311.09064 202.38858 310.40314Q201.9042 309.7 201.1542 309.7Q200.43546 309.7 199.99796 310.3094Q199.45108 311.09064 199.45108 313.21564Z" fill-rule="nonzero"/><path fill="#000000" d="M258.7428 316.4344L258.7428 317.45L253.05528 317.45Q253.05528 317.075 253.18028 316.71564Q253.39903 316.1375 253.86778 315.575Q254.35216 315.0125 255.2584 314.27814Q256.66467 313.1219 257.14905 312.45Q257.64905 311.77814 257.64905 311.1844Q257.64905 310.5594 257.19592 310.1375Q256.7428 309.7 256.02405 309.7Q255.2584 309.7 254.80528 310.15314Q254.35216 310.60626 254.33653 311.41876L253.2584 311.3094Q253.36778 310.09064 254.08653 309.46564Q254.8209 308.825 256.0553 308.825Q257.28967 308.825 258.00842 309.5125Q258.72717 310.2 258.72717 311.21564Q258.72717 311.73126 258.50842 312.23126Q258.3053 312.71564 257.8053 313.27814Q257.32092 313.825 256.19592 314.77814Q255.24278 315.575 254.96153 315.8719Q254.6959 316.15314 254.52403 316.4344L258.7428 316.4344ZM260.78967 317.45L260.78967 316.2469L261.9928 316.2469L261.9928 317.45L260.78967 317.45ZM263.19592 313.21564Q263.19592 311.6844 263.50842 310.7625Q263.82092 309.825 264.4303 309.325Q265.0553 308.825 265.9928 308.825Q266.6803 308.825 267.19592 309.10626Q267.72717 309.3875 268.07092 309.91876Q268.41467 310.4344 268.60217 311.1844Q268.78967 311.9344 268.78967 313.21564Q268.78967 314.73126 268.47717 315.65314Q268.1803 316.575 267.5553 317.09064Q266.94592 317.59064 265.9928 317.59064Q264.75842 317.59064 264.03967 316.7Q263.19592 315.6375 263.19592 313.21564ZM264.27405 313.21564Q264.27405 315.325 264.77405 316.02814Q265.27405 316.73126 265.9928 316.73126Q266.72717 316.73126 267.21155 316.02814Q267.71155 315.325 267.71155 313.21564Q267.71155 311.09064 267.21155 310.40314Q266.72717 309.7 265.97717 309.7Q265.25842 309.7 264.82092 310.3094Q264.27405 311.09064 264.27405 313.21564ZM270.19592 313.21564Q270.19592 311.6844 270.50842 310.7625Q270.82092 309.825 271.4303 309.325Q272.0553 308.825 272.9928 308.825Q273.6803 308.825 274.19592 309.10626Q274.72717 309.3875 275.07092 309.91876Q275.41467 310.4344 275.60217 311.1844Q275.78967 311.9344 275.78967 313.21564Q275.78967 314.73126 275.47717 315.65314Q275.1803 316.575 274.5553 317.09064Q273.94592 317.59064 272.9928 317.59064Q271.75842 317.59064 271.03967 316.7Q270.19592 315.6375 270.19592 313.21564ZM271.27405 313.21564Q271.27405 315.325 271.77405 316.02814Q272.27405 316.73126 272.9928 316.73126Q273.72717 316.73126 274.21155 316.02814Q274.71155 315.325 274.71155 313.21564Q274.71155 311.09064 274.21155 310.40314Q273.72717 309.7 272.97717 309.7Q272.25842 309.7 271.82092 310.3094Q271.27405 311.09064 271.27405 313.21564ZM277.64905 317.45L277.64905 308.85626L283.85217 308.85626L283.85217 309.8719L278.78967 309.8719L278.78967 312.4969L283.53967 312.4969L283.53967 313.5125L278.78967 313.5125L278.78967 316.4344L284.0553 316.4344L284.0553 317.45L277.64905 317.45ZM287.69592 316.0594L287.69592 313.7L285.3678 313.7L285.3678 312.71564L287.69592 312.71564L287.69592 310.3875L288.69592 310.3875L288.69592 312.71564L291.03967 312.71564L291.03967 313.7L288.69592 313.7L288.69592 316.0594L287.69592 316.0594ZM292.19592 313.21564Q292.19592 311.6844 292.50842 310.7625Q292.82092 309.825 293.4303 309.325Q294.0553 308.825 294.9928 308.825Q295.6803 308.825 296.19592 309.10626Q296.72717 309.3875 297.07092 309.91876Q297.41467 310.4344 297.60217 311.1844Q297.78967 311.9344 297.78967 313.21564Q297.78967 314.73126 297.47717 315.65314Q297.1803 316.575 296.5553 317.09064Q295.94592 317.59064 294.9928 317.59064Q293.75842 317.59064 293.03967 316.7Q292.19592 315.6375 292.19592 313.21564ZM293.27405 313.21564Q293.27405 315.325 293.77405 316.02814Q294.27405 316.73126 294.9928 316.73126Q295.72717 316.73126 296.21155 316.02814Q296.71155 315.325 296.71155 313.21564Q296.71155 311.09064 296.21155 310.40314Q295.72717 309.7 294.97717 309.7Q294.25842 309.7 293.82092 310.3094Q293.27405 311.09064 293.27405 313.21564ZM299.19592 313.21564Q299.19592 311.6844 299.50842 310.7625Q299.82092 309.825 300.4303 309.325Q301.0553 308.825 301.9928 308.825Q302.6803 308.825 303.19592 309.10626Q303.72717 309.3875 304.07092 309.91876Q304.41467 310.4344 304.60217 311.1844Q304.78967 311.9344 304.78967 313.21564Q304.78967 314.73126 304.47717 315.65314Q304.1803 316.575 303.5553 317.09064Q302.94592 317.59064 301.9928 317.59064Q300.75842 317.59064 300.03967 316.7Q299.19592 315.6375 299.19592 313.21564ZM300.27405 313.21564Q300.27405 315.325 300.77405 316.02814Q301.27405 316.73126 301.9928 316.73126Q302.72717 316.73126 303.21155 316.02814Q303.71155 315.325 303.71155 313.21564Q303.71155 311.09064 303.21155 310.40314Q302.72717 309.7 301.97717 309.7Q301.25842 309.7 300.82092 310.3094Q300.27405 311.09064 300.27405 313.21564Z" fill-rule="nonzero"/><path fill="#000000" d="M354.01886 315.1844L355.08136 315.04376Q355.25323 315.9344 355.69073 316.34064Q356.12823 316.73126 356.75323 316.73126Q357.50323 316.73126 358.01886 316.21564Q358.5345 315.7 358.5345 314.9344Q358.5345 314.21564 358.0501 313.7469Q357.58136 313.2625 356.847 313.2625Q356.5501 313.2625 356.097 313.3875L356.222 312.45Q356.33136 312.46564 356.39386 312.46564Q357.06573 312.46564 357.597 312.1219Q358.14386 311.7625 358.14386 311.02814Q358.14386 310.45 357.75323 310.075Q357.3626 309.6844 356.7376 309.6844Q356.12823 309.6844 355.70636 310.075Q355.3001 310.46564 355.19073 311.23126L354.12823 311.04376Q354.31573 309.9969 355.00323 309.41876Q355.69073 308.825 356.70636 308.825Q357.4095 308.825 358.00323 309.1375Q358.597 309.4344 358.9095 309.95Q359.222 310.46564 359.222 311.0594Q359.222 311.60626 358.9251 312.075Q358.62823 312.52814 358.0501 312.79376Q358.8001 312.96564 359.222 313.52814Q359.64386 314.075 359.64386 314.91876Q359.64386 316.04376 358.81573 316.825Q358.00323 317.60626 356.75323 317.60626Q355.62823 317.60626 354.87823 316.9344Q354.12823 316.2469 354.01886 315.1844ZM361.6126 317.45L361.6126 316.2469L362.81573 316.2469L362.81573 317.45L361.6126 317.45ZM364.01886 313.21564Q364.01886 311.6844 364.33136 310.7625Q364.64386 309.825 365.25323 309.325Q365.87823 308.825 366.81573 308.825Q367.50323 308.825 368.01886 309.10626Q368.5501 309.3875 368.89386 309.91876Q369.2376 310.4344 369.4251 311.1844Q369.6126 311.9344 369.6126 313.21564Q369.6126 314.73126 369.3001 315.65314Q369.00323 316.575 368.37823 317.09064Q367.76886 317.59064 366.81573 317.59064Q365.58136 317.59064 364.8626 316.7Q364.01886 315.6375 364.01886 313.21564ZM365.097 313.21564Q365.097 315.325 365.597 316.02814Q366.097 316.73126 366.81573 316.73126Q367.5501 316.73126 368.0345 316.02814Q368.5345 315.325 368.5345 313.21564Q368.5345 311.09064 368.0345 310.40314Q367.5501 309.7 366.8001 309.7Q366.08136 309.7 365.64386 310.3094Q365.097 311.09064 365.097 313.21564ZM371.01886 313.21564Q371.01886 311.6844 371.33136 310.7625Q371.64386 309.825 372.25323 309.325Q372.87823 308.825 373.81573 308.825Q374.50323 308.825 375.01886 309.10626Q375.5501 309.3875 375.89386 309.91876Q376.2376 310.4344 376.4251 311.1844Q376.6126 311.9344 376.6126 313.21564Q376.6126 314.73126 376.3001 315.65314Q376.00323 316.575 375.37823 317.09064Q374.76886 317.59064 373.81573 317.59064Q372.58136 317.59064 371.8626 316.7Q371.01886 315.6375 371.01886 313.21564ZM372.097 313.21564Q372.097 315.325 372.597 316.02814Q373.097 316.73126 373.81573 316.73126Q374.5501 316.73126 375.0345 316.02814Q375.5345 315.325 375.5345 313.21564Q375.5345 311.09064 375.0345 310.40314Q374.5501 309.7 373.8001 309.7Q373.08136 309.7 372.64386 310.3094Q372.097 311.09064 372.097 313.21564ZM378.472 317.45L378.472 308.85626L384.6751 308.85626L384.6751 309.8719L379.6126 309.8719L379.6126 312.4969L384.3626 312.4969L384.3626 313.5125L379.6126 313.5125L379.6126 316.4344L384.87823 316.4344L384.87823 317.45L378.472 317.45ZM388.51886 316.0594L388.51886 313.7L386.19073 313.7L386.19073 312.71564L388.51886 312.71564L388.51886 310.3875L389.51886 310.3875L389.51886 312.71564L391.8626 312.71564L391.8626 313.7L389.51886 313.7L389.51886 316.0594L388.51886 316.0594ZM393.01886 313.21564Q393.01886 311.6844 393.33136 310.7625Q393.64386 309.825 394.25323 309.325Q394.87823 308.825 395.81573 308.825Q396.50323 308.825 397.01886 309.10626Q397.5501 309.3875 397.89386 309.91876Q398.2376 310.4344 398.4251 311.1844Q398.6126 311.9344 398.6126 313.21564Q398.6126 314.73126 398.3001 315.65314Q398.00323 316.575 397.37823 317.09064Q396.76886 317.59064 395.81573 317.59064Q394.58136 317.59064 393.8626 316.7Q393.01886 315.6375 393.01886 313.21564ZM394.097 313.21564Q394.097 315.325 394.597 316.02814Q395.097 316.73126 395.81573 316.73126Q396.5501 316.73126 397.0345 316.02814Q397.5345 315.325 397.5345 313.21564Q397.5345 311.09064 397.0345 310.40314Q396.5501 309.7 395.8001 309.7Q395.08136 309.7 394.64386 310.3094Q394.097 311.09064 394.097 313.21564ZM400.01886 313.21564Q400.01886 311.6844 400.33136 310.7625Q400.64386 309.825 401.25323 309.325Q401.87823 308.825 402.81573 308.825Q403.50323 308.825 404.01886 309.10626Q404.5501 309.3875 404.89386 309.91876Q405.2376 310.4344 405.4251 311.1844Q405.6126 311.9344 405.6126 313.21564Q405.6126 314.73126 405.3001 315.65314Q405.00323 316.575 404.37823 317.09064Q403.76886 317.59064 402.81573 317.59064Q401.58136 317.59064 400.8626 316.7Q400.01886 315.6375 400.01886 313.21564ZM401.097 313.21564Q401.097 315.325 401.597 316.02814Q402.097 316.73126 402.81573 316.73126Q403.5501 316.73126 404.0345 316.02814Q404.5345 315.325 404.5345 313.21564Q404.5345 311.09064 404.0345 310.40314Q403.5501 309.7 402.8001 309.7Q402.08136 309.7 401.64386 310.3094Q401.097 311.09064 401.097 313.21564Z" fill-rule="nonzero"/><path fill="#000000" d="M458.2168 317.45L458.2168 315.3875L454.49805 315.3875L454.49805 314.41876L458.41992 308.85626L459.2793 308.85626L459.2793 314.41876L460.43555 314.41876L460.43555 315.3875L459.2793 315.3875L459.2793 317.45L458.2168 317.45ZM458.2168 314.41876L458.2168 310.5594L455.5293 314.41876L458.2168 314.41876ZM462.43555 317.45L462.43555 316.2469L463.63867 316.2469L463.63867 317.45L462.43555 317.45ZM464.8418 313.21564Q464.8418 311.6844 465.1543 310.7625Q465.4668 309.825 466.07617 309.325Q466.70117 308.825 467.63867 308.825Q468.32617 308.825 468.8418 309.10626Q469.37305 309.3875 469.7168 309.91876Q470.06055 310.4344 470.24805 311.1844Q470.43555 311.9344 470.43555 313.21564Q470.43555 314.73126 470.12305 315.65314Q469.82617 316.575 469.20117 317.09064Q468.5918 317.59064 467.63867 317.59064Q466.4043 317.59064 465.68555 316.7Q464.8418 315.6375 464.8418 313.21564ZM465.91992 313.21564Q465.91992 315.325 466.41992 316.02814Q466.91992 316.73126 467.63867 316.73126Q468.37305 316.73126 468.85742 316.02814Q469.35742 315.325 469.35742 313.21564Q469.35742 311.09064 468.85742 310.40314Q468.37305 309.7 467.62305 309.7Q466.9043 309.7 466.4668 310.3094Q465.91992 311.09064 465.91992 313.21564ZM471.8418 313.21564Q471.8418 311.6844 472.1543 310.7625Q472.4668 309.825 473.07617 309.325Q473.70117 308.825 474.63867 308.825Q475.32617 308.825 475.8418 309.10626Q476.37305 309.3875 476.7168 309.91876Q477.06055 310.4344 477.24805 311.1844Q477.43555 311.9344 477.43555 313.21564Q477.43555 314.73126 477.12305 315.65314Q476.82617 316.575 476.20117 317.09064Q475.5918 317.59064 474.63867 317.59064Q473.4043 317.59064 472.68555 316.7Q471.8418 315.6375 471.8418 313.21564ZM472.91992 313.21564Q472.91992 315.325 473.41992 316.02814Q473.91992 316.73126 474.63867 316.73126Q475.37305 316.73126 475.85742 316.02814Q476.35742 315.325 476.35742 313.21564Q476.35742 311.09064 475.85742 310.40314Q475.37305 309.7 474.62305 309.7Q473.9043 309.7 473.4668 310.3094Q472.91992 311.09064 472.91992 313.21564ZM479.29492 317.45L479.29492 308.85626L485.49805 308.85626L485.49805 309.8719L480.43555 309.8719L480.43555 312.4969L485.18555 312.4969L485.18555 313.5125L480.43555 313.5125L480.43555 316.4344L485.70117 316.4344L485.70117 317.45L479.29492 317.45ZM489.3418 316.0594L489.3418 313.7L487.01367 313.7L487.01367 312.71564L489.3418 312.71564L489.3418 310.3875L490.3418 310.3875L490.3418 312.71564L492.68555 312.71564L492.68555 313.7L490.3418 313.7L490.3418 316.0594L489.3418 316.0594ZM493.8418 313.21564Q493.8418 311.6844 494.1543 310.7625Q494.4668 309.825 495.07617 309.325Q495.70117 308.825 496.63867 308.825Q497.32617 308.825 497.8418 309.10626Q498.37305 309.3875 498.7168 309.91876Q499.06055 310.4344 499.24805 311.1844Q499.43555 311.9344 499.43555 313.21564Q499.43555 314.73126 499.12305 315.65314Q498.82617 316.575 498.20117 317.09064Q497.5918 317.59064 496.63867 317.59064Q495.4043 317.59064 494.68555 316.7Q493.8418 315.6375 493.8418 313.21564ZM494.91992 313.21564Q494.91992 315.325 495.41992 316.02814Q495.91992 316.73126 496.63867 316.73126Q497.37305 316.73126 497.85742 316.02814Q498.35742 315.325 498.35742 313.21564Q498.35742 311.09064 497.85742 310.40314Q497.37305 309.7 496.62305 309.7Q495.9043 309.7 495.4668 310.3094Q494.91992 311.09064 494.91992 313.21564ZM500.8418 313.21564Q500.8418 311.6844 501.1543 310.7625Q501.4668 309.825 502.07617 309.325Q502.70117 308.825 503.63867 308.825Q504.32617 308.825 504.8418 309.10626Q505.37305 309.3875 505.7168 309.91876Q506.06055 310.4344 506.24805 311.1844Q506.43555 311.9344 506.43555 313.21564Q506.43555 314.73126 506.12305 315.65314Q505.82617 316.575 505.20117 317.09064Q504.5918 317.59064 503.63867 317.59064Q502.4043 317.59064 501.68555 316.7Q500.8418 315.6375 500.8418 313.21564ZM501.91992 313.21564Q501.91992 315.325 502.41992 316.02814Q502.91992 316.73126 503.63867 316.73126Q504.37305 316.73126 504.85742 316.02814Q505.35742 315.325 505.35742 313.21564Q505.35742 311.09064 504.85742 310.40314Q504.37305 309.7 503.62305 309.7Q502.9043 309.7 502.4668 310.3094Q501.91992 311.09064 501.91992 313.21564Z" fill-rule="nonzero"/><path fill="#000000" d="M223.21875 32.89375L226.03125 32.6125Q226.29688 34.034374 227.0625 34.70625Q227.84375 35.3625 229.15625 35.3625Q230.5625 35.3625 231.26562 34.76875Q231.96875 34.175 231.96875 33.39375Q231.96875 32.878124 231.67188 32.534374Q231.375 32.175 230.64062 31.909374Q230.125 31.721874 228.32812 31.284374Q226.0 30.70625 225.0625 29.8625Q223.73438 28.675 223.73438 26.9875Q223.73438 25.89375 224.35938 24.940624Q224.98438 23.9875 226.14062 23.4875Q227.3125 22.9875 228.96875 22.9875Q231.65625 22.9875 233.01562 24.175Q234.39062 25.346874 234.45312 27.33125L231.5625 27.45625Q231.375 26.346874 230.76562 25.8625Q230.15625 25.378124 228.9375 25.378124Q227.67188 25.378124 226.96875 25.89375Q226.5 26.2375 226.5 26.784374Q226.5 27.3 226.9375 27.659374Q227.48438 28.1125 229.59375 28.6125Q231.70312 29.1125 232.70312 29.64375Q233.71875 30.175 234.28125 31.096874Q234.85938 32.01875 234.85938 33.378124Q234.85938 34.6125 234.17188 35.690624Q233.5 36.753124 232.25 37.284374Q231.0 37.8 229.125 37.8Q226.42188 37.8 224.95312 36.55Q223.5 35.3 223.21875 32.89375ZM243.375 37.55L240.625 37.55L240.625 27.20625Q239.125 28.6125 237.07812 29.284374L237.07812 26.8Q238.15625 26.440624 239.40625 25.471874Q240.67188 24.4875 241.14062 23.175L243.375 23.175L243.375 37.55ZM247.25 33.753124L249.90625 33.425Q250.03125 34.440624 250.59375 34.9875Q251.15625 35.51875 251.9375 35.51875Q252.79688 35.51875 253.375 34.878124Q253.95312 34.221874 253.95312 33.128124Q253.95312 32.096874 253.39062 31.503124Q252.84375 30.89375 252.03125 30.89375Q251.51562 30.89375 250.78125 31.096874L251.07812 28.8625Q252.1875 28.89375 252.76562 28.378124Q253.35938 27.8625 253.35938 27.01875Q253.35938 26.284374 252.92188 25.8625Q252.5 25.425 251.79688 25.425Q251.09375 25.425 250.59375 25.925Q250.09375 26.409374 249.98438 27.346874L247.45312 26.909374Q247.71875 25.6125 248.25 24.846874Q248.78125 24.065624 249.73438 23.628124Q250.6875 23.175 251.875 23.175Q253.89062 23.175 255.10938 24.45625Q256.125 25.51875 256.125 26.846874Q256.125 28.7375 254.0625 29.846874Q255.29688 30.1125 256.03125 31.034374Q256.76562 31.95625 256.76562 33.253124Q256.76562 35.14375 255.39062 36.471874Q254.01562 37.8 251.95312 37.8Q250.01562 37.8 248.73438 36.675Q247.45312 35.55 247.25 33.753124ZM267.78125 37.55L263.60938 27.175L266.48438 27.175L268.4375 32.471874L269.01562 34.2375Q269.23438 33.565624 269.29688 33.346874Q269.42188 32.909374 269.57812 32.471874L271.5625 27.175L274.375 27.175L270.26562 37.55L267.78125 37.55ZM274.96875 34.596874L277.71875 34.175Q277.90625 34.971874 278.4375 35.39375Q278.96875 35.8 279.9375 35.8Q281.0 35.8 281.54688 35.409374Q281.90625 35.14375 281.90625 34.675Q281.90625 34.3625 281.70312 34.159374Q281.5 33.971874 280.79688 33.8Q277.46875 33.065624 276.57812 32.45625Q275.34375 31.628124 275.34375 30.128124Q275.34375 28.784374 276.40625 27.8625Q277.48438 26.940624 279.71875 26.940624Q281.84375 26.940624 282.875 27.64375Q283.92188 28.33125 284.3125 29.690624L281.71875 30.159374Q281.54688 29.565624 281.07812 29.2375Q280.625 28.909374 279.76562 28.909374Q278.6875 28.909374 278.21875 29.221874Q277.90625 29.440624 277.90625 29.76875Q277.90625 30.065624 278.17188 30.26875Q278.54688 30.55 280.73438 31.05Q282.92188 31.55 283.79688 32.26875Q284.65625 33.003124 284.65625 34.3Q284.65625 35.7375 283.46875 36.76875Q282.28125 37.784374 279.9375 37.784374Q277.82812 37.784374 276.57812 36.925Q275.34375 36.065624 274.96875 34.596874ZM298.9375 34.253124L301.67188 34.70625Q301.15625 36.20625 300.01562 37.003124Q298.875 37.784374 297.17188 37.784374Q294.45312 37.784374 293.15625 36.01875Q292.14062 34.596874 292.14062 32.440624Q292.14062 29.8625 293.48438 28.409374Q294.82812 26.940624 296.89062 26.940624Q299.20312 26.940624 300.53125 28.471874Q301.875 30.003124 301.82812 33.159374L294.95312 33.159374Q294.98438 34.378124 295.60938 35.065624Q296.25 35.7375 297.1875 35.7375Q297.84375 35.7375 298.28125 35.39375Q298.71875 35.034374 298.9375 34.253124ZM299.09375 31.471874Q299.0625 30.284374 298.46875 29.675Q297.89062 29.05 297.0625 29.05Q296.15625 29.05 295.57812 29.690624Q294.98438 30.346874 295.0 31.471874L299.09375 31.471874ZM303.85938 27.175L306.42188 27.175L306.42188 28.70625Q306.92188 27.925 307.76562 27.440624Q308.60938 26.940624 309.65625 26.940624Q311.45312 26.940624 312.70312 28.3625Q313.96875 29.76875 313.96875 32.3Q313.96875 34.909374 312.70312 36.346874Q311.4375 37.784374 309.625 37.784374Q308.76562 37.784374 308.0625 37.440624Q307.375 37.096874 306.60938 36.26875L306.60938 41.503124L303.85938 41.503124L303.85938 27.175ZM306.57812 32.190624Q306.57812 33.940624 307.26562 34.784374Q307.95312 35.6125 308.95312 35.6125Q309.90625 35.6125 310.54688 34.846874Q311.1875 34.065624 311.1875 32.33125Q311.1875 30.690624 310.53125 29.909374Q309.875 29.1125 308.90625 29.1125Q307.90625 29.1125 307.23438 29.89375Q306.57812 30.659374 306.57812 32.190624ZM314.96875 34.596874L317.71875 34.175Q317.90625 34.971874 318.4375 35.39375Q318.96875 35.8 319.9375 35.8Q321.0 35.8 321.54688 35.409374Q321.90625 35.14375 321.90625 34.675Q321.90625 34.3625 321.70312 34.159374Q321.5 33.971874 320.79688 33.8Q317.46875 33.065624 316.57812 32.45625Q315.34375 31.628124 315.34375 30.128124Q315.34375 28.784374 316.40625 27.8625Q317.48438 26.940624 319.71875 26.940624Q321.84375 26.940624 322.875 27.64375Q323.92188 28.33125 324.3125 29.690624L321.71875 30.159374Q321.54688 29.565624 321.07812 29.2375Q320.625 28.909374 319.76562 28.909374Q318.6875 28.909374 318.21875 29.221874Q317.90625 29.440624 317.90625 29.76875Q317.90625 30.065624 318.17188 30.26875Q318.54688 30.55 320.73438 31.05Q322.92188 31.55 323.79688 32.26875Q324.65625 33.003124 324.65625 34.3Q324.65625 35.7375 323.46875 36.76875Q322.28125 37.784374 319.9375 37.784374Q317.82812 37.784374 316.57812 36.925Q315.34375 36.065624 314.96875 34.596874ZM335.98438 30.2375L333.28125 30.7375Q333.14062 29.925 332.65625 29.51875Q332.17188 29.096874 331.40625 29.096874Q330.375 29.096874 329.76562 29.815624Q329.15625 30.51875 329.15625 32.175Q329.15625 34.01875 329.76562 34.784374Q330.39062 35.55 331.4375 35.55Q332.21875 35.55 332.71875 35.1125Q333.21875 34.659374 333.42188 33.58125L336.10938 34.034374Q335.70312 35.89375 334.5 36.846874Q333.3125 37.784374 331.3125 37.784374Q329.03125 37.784374 327.67188 36.346874Q326.32812 34.909374 326.32812 32.378124Q326.32812 29.8 327.6875 28.378124Q329.04688 26.940624 331.35938 26.940624Q333.25 26.940624 334.35938 27.76875Q335.48438 28.58125 335.98438 30.2375ZM340.5625 37.55L337.8125 37.55L337.8125 27.175L340.375 27.175L340.375 28.659374Q341.01562 27.6125 341.53125 27.284374Q342.0625 26.940624 342.73438 26.940624Q343.67188 26.940624 344.53125 27.45625L343.6875 29.846874Q343.0 29.409374 342.40625 29.409374Q341.82812 29.409374 341.42188 29.721874Q341.01562 30.034374 340.78125 30.878124Q340.5625 31.70625 340.5625 34.346874L340.5625 37.55ZM344.3125 41.503124L344.3125 39.721874L355.71875 39.721874L355.71875 41.503124L344.3125 41.503124ZM363.375 37.55L360.625 37.55L360.625 27.20625Q359.125 28.6125 357.07812 29.284374L357.07812 26.8Q358.15625 26.440624 359.40625 25.471874Q360.67188 24.4875 361.14062 23.175L363.375 23.175L363.375 37.55ZM367.25 33.753124L369.90625 33.425Q370.03125 34.440624 370.59375 34.9875Q371.15625 35.51875 371.9375 35.51875Q372.79688 35.51875 373.375 34.878124Q373.95312 34.221874 373.95312 33.128124Q373.95312 32.096874 373.39062 31.503124Q372.84375 30.89375 372.03125 30.89375Q371.51562 30.89375 370.78125 31.096874L371.07812 28.8625Q372.1875 28.89375 372.76562 28.378124Q373.35938 27.8625 373.35938 27.01875Q373.35938 26.284374 372.92188 25.8625Q372.5 25.425 371.79688 25.425Q371.09375 25.425 370.59375 25.925Q370.09375 26.409374 369.98438 27.346874L367.45312 26.909374Q367.71875 25.6125 368.25 24.846874Q368.78125 24.065624 369.73438 23.628124Q370.6875 23.175 371.875 23.175Q373.89062 23.175 375.10938 24.45625Q376.125 25.51875 376.125 26.846874Q376.125 28.7375 374.0625 29.846874Q375.29688 30.1125 376.03125 31.034374Q376.76562 31.95625 376.76562 33.253124Q376.76562 35.14375 375.39062 36.471874Q374.01562 37.8 371.95312 37.8Q370.01562 37.8 368.73438 36.675Q367.45312 35.55 367.25 33.753124Z" fill-rule="nonzero"/></svg>
