<svg version="1.1" viewBox="0.0 0.0 600.0 371.0" fill="none" stroke="none" stroke-linecap="square" stroke-miterlimit="10" width="600" height="371" xmlns:xlink="http://www.w3.org/1999/xlink" xmlns="http://www.w3.org/2000/svg"><path fill="#ffffff" d="M0 0L600.0 0L600.0 371.0L0 371.0L0 0Z" fill-rule="nonzero"/><path stroke="#333333" stroke-width="1.0" stroke-linecap="butt" d="M77.5 88.5L77.5 300.5" fill-rule="nonzero"/><path stroke="#cccccc" stroke-width="1.0" stroke-linecap="butt" d="M203.5 88.5L203.5 300.5" fill-rule="nonzero"/><path stroke="#cccccc" stroke-width="1.0" stroke-linecap="butt" d="M329.5 88.5L329.5 300.5" fill-rule="nonzero"/><path stroke="#cccccc" stroke-width="1.0" stroke-linecap="butt" d="M455.5 88.5L455.5 300.5" fill-rule="nonzero"/><path stroke="#cccccc" stroke-width="1.0" stroke-linecap="butt" d="M581.5 88.5L581.5 300.5" fill-rule="nonzero"/><path stroke="#333333" stroke-width="1.0" stroke-linecap="butt" d="M77.5 300.5L581.5 300.5" fill-rule="nonzero"/><path stroke="#cccccc" stroke-width="1.0" stroke-linecap="butt" d="M77.5 258.5L581.5 258.5" fill-rule="nonzero"/><path stroke="#cccccc" stroke-width="1.0" stroke-linecap="butt" d="M77.5 215.5L581.5 215.5" fill-rule="nonzero"/><path stroke="#cccccc" stroke-width="1.0" stroke-linecap="butt" d="M77.5 173.5L581.5 173.5" fill-rule="nonzero"/><path stroke="#cccccc" stroke-width="1.0" stroke-linecap="butt" d="M77.5 130.5L581.5 130.5" fill-rule="nonzero"/><path stroke="#cccccc" stroke-width="1.0" stroke-linecap="butt" d="M77.5 88.5L581.5 88.5" fill-rule="nonzero"/><clipPath id="id_0"><path d="M77.55 88.28333L581.45 88.28333L581.45 300.45L77.55 300.45L77.55 88.28333Z" clip-rule="nonzero"/></clipPath><path fill="#4285f4" fill-opacity="0.2" clip-path="url(#id_0)" d="M77.55 300.45L78.0539 296.58032L78.5578 292.7111L79.31365 286.9081L80.447426 278.20563L82.14809 265.15628L84.69908 245.5922L88.5256 216.2682L93.564545 177.69292L98.6036 139.16386L103.64255 100.68108L108.68155 103.70276L113.72054 106.732925L118.7596 109.76096L123.7986 112.785614L128.83745 115.80941L133.87645 118.83236L138.91545 121.85446L143.95445 124.87572L148.99344 127.8957L154.03244 130.91525L159.07144 133.93353L164.11044 136.9514L169.14944 139.96799L174.18845 142.98372L179.22745 145.99861L184.26645 149.01222L189.30545 152.02542L194.34445 155.03734L199.38345 158.04883L204.42244 161.05905L209.46144 164.06842L214.50044 167.07693L219.53944 170.08461L224.57845 173.09145L229.61745 176.09741L234.65645 179.10213L239.69545 182.1064L244.73445 185.1094L249.77345 188.11157L254.81244 191.1133L259.85144 194.11377L264.89044 197.11337L269.92944 200.11214L274.96844 203.11006L280.00745 206.10669L285.04645 209.10292L290.08545 212.09828L295.12445 215.09238L300.16345 218.08604L305.20245 221.07845L310.24146 224.07L315.28046 227.06113L320.31946 230.05098L325.35846 233.03998L330.39746 236.02814L335.43643 239.01544L340.47543 242.0019L345.51443 244.98752L350.55344 247.97227L355.59244 250.95618L360.63144 253.93883L365.67044 256.92105L370.70944 259.9023L375.74844 262.88272L380.78745 265.8622L385.82645 268.84082L390.86545 271.8186L395.90445 274.79553L400.94345 277.77158L405.98245 280.74677L411.02145 283.72107L416.06046 286.69455L421.09946 289.66718L426.13846 292.63895L431.17746 295.6099L436.21643 298.57993L441.25543 300.448L446.29443 300.44797L451.33344 300.44797L456.37244 300.44797L461.41144 300.44797L466.45044 300.44797L471.48944 300.44797L476.52844 300.44797L481.56744 300.44797L486.60645 300.44797L491.64545 300.44797L496.68445 300.44797L501.72345 300.44797L506.76245 300.44797L511.80145 300.44797L516.84045 300.44797L521.87946 300.44797L526.91846 300.44797L531.95746 300.44797L536.99646 300.44797L542.03546 300.44797L547.07446 300.44797L552.11346 300.44797L557.15247 300.44797L562.19147 300.44797L567.23047 300.44797L572.2695 300.448L577.3085 300.448L581.45 300.448L581.45 300.45L577.3085 300.45L572.2695 300.45L567.23047 300.45L562.19147 300.45L557.15247 300.45L552.11346 300.45L547.07446 300.45L542.03546 300.45L536.99646 300.45L531.95746 300.45L526.91846 300.45L521.87946 300.45L516.84045 300.45L511.80145 300.45L506.76245 300.45L501.72345 300.45L496.68445 300.45L491.64545 300.45L486.60645 300.45L481.56744 300.45L476.52844 300.45L471.48944 300.45L466.45044 300.45L461.41144 300.45L456.37244 300.45L451.33344 300.45L446.29443 300.45L441.25543 300.45L436.21643 300.45L431.17746 300.45L426.13846 300.45L421.09946 300.45L416.06046 300.45L411.02145 300.45L405.98245 300.45L400.94345 300.45L395.90445 300.45L390.86545 300.45L385.82645 300.45L380.78745 300.45L375.74844 300.45L370.70944 300.45L365.67044 300.45L360.63144 300.45L355.59244 300.45L350.55344 300.45L345.51443 300.45L340.47543 300.45L335.43643 300.45L330.39746 300.45L325.35846 300.45L320.31946 300.45L315.28046 300.45L310.24146 300.45L305.20245 300.45L300.16345 300.45L295.12445 300.45L290.08545 300.45L285.04645 300.45L280.00745 300.45L274.96844 300.45L269.92944 300.45L264.89044 300.45L259.85144 300.45L254.81244 300.45L249.77345 300.45L244.73445 300.45L239.69545 300.45L234.65645 300.45L229.61745 300.45L224.57845 300.45L219.53944 300.45L214.50044 300.45L209.46144 300.45L204.42244 300.45L199.38345 300.45L194.34445 300.45L189.30545 300.45L184.26645 300.45L179.22745 300.45L174.18845 300.45L169.14944 300.45L164.11044 300.45L159.07144 300.45L154.03244 300.45L148.99344 300.45L143.95445 300.45L138.91545 300.45L133.87645 300.45L128.83745 300.45L123.7986 300.45L118.7596 300.45L113.72054 300.45L108.68155 300.45L103.64255 300.45L98.6036 300.45L93.564545 300.45L88.5256 300.45L84.69908 300.45L82.14809 300.45L80.447426 300.45L79.31365 300.45L78.5578 300.45L78.0539 300.45L77.55 300.45Z" fill-rule="nonzero"/><path fill="#ea4335" fill-opacity="0.3019608" clip-path="url(#id_0)" d="M77.55 300.45L78.0539 296.58032L78.5578 292.7111L79.31365 286.9081L80.447426 278.20563L82.14809 265.15628L84.69908 245.5922L88.5256 216.2682L93.564545 177.69292L98.6036 139.16386L103.64255 100.68108L103.64255 300.45L98.6036 300.45L93.564545 300.45L88.5256 300.45L84.69908 300.45L82.14809 300.45L80.447426 300.45L79.31365 300.45L78.5578 300.45L78.0539 300.45L77.55 300.45Z" fill-rule="nonzero"/><path stroke="#4285f4" stroke-width="2.0" stroke-linecap="butt" clip-path="url(#id_0)" d="M77.55 300.45L78.0539 296.58032L78.5578 292.7111L79.31365 286.9081L80.447426 278.20563L82.14809 265.15628L84.69908 245.5922L88.5256 216.2682L93.564545 177.69292L98.6036 139.16386L103.64255 100.68108L108.68155 103.70276L113.72054 106.732925L118.7596 109.76096L123.7986 112.785614L128.83745 115.80941L133.87645 118.83236L138.91545 121.85446L143.95445 124.87572L148.99344 127.8957L154.03244 130.91525L159.07144 133.93353L164.11044 136.9514L169.14944 139.96799L174.18845 142.98372L179.22745 145.99861L184.26645 149.01222L189.30545 152.02542L194.34445 155.03734L199.38345 158.04883L204.42244 161.05905L209.46144 164.06842L214.50044 167.07693L219.53944 170.08461L224.57845 173.09145L229.61745 176.09741L234.65645 179.10213L239.69545 182.1064L244.73445 185.1094L249.77345 188.11157L254.81244 191.1133L259.85144 194.11377L264.89044 197.11337L269.92944 200.11214L274.96844 203.11006L280.00745 206.10669L285.04645 209.10292L290.08545 212.09828L295.12445 215.09238L300.16345 218.08604L305.20245 221.07845L310.24146 224.07L315.28046 227.06113L320.31946 230.05098L325.35846 233.03998L330.39746 236.02814L335.43643 239.01544L340.47543 242.0019L345.51443 244.98752L350.55344 247.97227L355.59244 250.95618L360.63144 253.93883L365.67044 256.92105L370.70944 259.9023L375.74844 262.88272L380.78745 265.8622L385.82645 268.84082L390.86545 271.8186L395.90445 274.79553L400.94345 277.77158L405.98245 280.74677L411.02145 283.72107L416.06046 286.69455L421.09946 289.66718L426.13846 292.63895L431.17746 295.6099L436.21643 298.57993L441.25543 300.448L446.29443 300.44797L451.33344 300.44797L456.37244 300.44797L461.41144 300.44797L466.45044 300.44797L471.48944 300.44797L476.52844 300.44797L481.56744 300.44797L486.60645 300.44797L491.64545 300.44797L496.68445 300.44797L501.72345 300.44797L506.76245 300.44797L511.80145 300.44797L516.84045 300.44797L521.87946 300.44797L526.91846 300.44797L531.95746 300.44797L536.99646 300.44797L542.03546 300.44797L547.07446 300.44797L552.11346 300.44797L557.15247 300.44797L562.19147 300.44797L567.23047 300.44797L572.2695 300.448L577.3085 300.448L581.45 300.448" fill-rule="nonzero"/><path stroke="#ea4335" stroke-width="2.0" stroke-linecap="butt" clip-path="url(#id_0)" d="M77.55 300.45L78.0539 296.58032L78.5578 292.7111L79.31365 286.9081L80.447426 278.20563L82.14809 265.15628L84.69908 245.5922L88.5256 216.2682L93.564545 177.69292L98.6036 139.16386L103.64255 100.68108" fill-rule="nonzero"/><path fill="#000000" fill-opacity="0.0" clip-path="url(#id_0)" d="M80.55 300.45C80.55 302.10684 79.206856 303.45 77.55 303.45C75.89314 303.45 74.55 302.10684 74.55 300.45C74.55 298.79315 75.89314 297.45 77.55 297.45C79.206856 297.45 80.55 298.79315 80.55 300.45Z" fill-rule="nonzero"/><path fill="#000000" fill-opacity="0.0" clip-path="url(#id_0)" d="M81.0539 296.58032C81.0539 298.23718 79.710754 299.58032 78.0539 299.58032C76.39705 299.58032 75.0539 298.23718 75.0539 296.58032C75.0539 294.92346 76.39705 293.58032 78.0539 293.58032C79.710754 293.58032 81.0539 294.92346 81.0539 296.58032Z" fill-rule="nonzero"/><path fill="#000000" fill-opacity="0.0" clip-path="url(#id_0)" d="M81.5578 292.7111C81.5578 294.36795 80.21465 295.7111 78.5578 295.7111C76.90095 295.7111 75.5578 294.36795 75.5578 292.7111C75.5578 291.05423 76.90095 289.7111 78.5578 289.7111C80.21465 289.7111 81.5578 291.05423 81.5578 292.7111Z" fill-rule="nonzero"/><path fill="#000000" fill-opacity="0.0" clip-path="url(#id_0)" d="M82.31365 286.9081C82.31365 288.56497 80.970505 289.9081 79.31365 289.9081C77.6568 289.9081 76.31365 288.56497 76.31365 286.9081C76.31365 285.25128 77.6568 283.9081 79.31365 283.9081C80.970505 283.9081 82.31365 285.25128 82.31365 286.9081Z" fill-rule="nonzero"/><path fill="#000000" fill-opacity="0.0" clip-path="url(#id_0)" d="M83.447426 278.20563C83.447426 279.8625 82.10428 281.20563 80.447426 281.20563C78.79057 281.20563 77.447426 279.8625 77.447426 278.20563C77.447426 276.5488 78.79057 275.20563 80.447426 275.20563C82.10428 275.20563 83.447426 276.5488 83.447426 278.20563Z" fill-rule="nonzero"/><path fill="#000000" fill-opacity="0.0" clip-path="url(#id_0)" d="M85.14809 265.15628C85.14809 266.81314 83.80494 268.15628 82.14809 268.15628C80.491234 268.15628 79.14809 266.81314 79.14809 265.15628C79.14809 263.49942 80.491234 262.15628 82.14809 262.15628C83.80494 262.15628 85.14809 263.49942 85.14809 265.15628Z" fill-rule="nonzero"/><path fill="#000000" fill-opacity="0.0" clip-path="url(#id_0)" d="M87.69908 245.5922C87.69908 247.24904 86.355934 248.5922 84.69908 248.5922C83.04223 248.5922 81.69908 247.24904 81.69908 245.5922C81.69908 243.93533 83.04223 242.5922 84.69908 242.5922C86.355934 242.5922 87.69908 243.93533 87.69908 245.5922Z" fill-rule="nonzero"/><path fill="#000000" fill-opacity="0.0" clip-path="url(#id_0)" d="M91.5256 216.2682C91.5256 217.92506 90.18245 219.2682 88.5256 219.2682C86.868744 219.2682 85.5256 217.92506 85.5256 216.2682C85.5256 214.61136 86.868744 213.2682 88.5256 213.2682C90.18245 213.2682 91.5256 214.61136 91.5256 216.2682Z" fill-rule="nonzero"/><path fill="#000000" fill-opacity="0.0" clip-path="url(#id_0)" d="M96.564545 177.69292C96.564545 179.34976 95.2214 180.69292 93.564545 180.69292C91.90769 180.69292 90.564545 179.34976 90.564545 177.69292C90.564545 176.03606 91.90769 174.69292 93.564545 174.69292C95.2214 174.69292 96.564545 176.03606 96.564545 177.69292Z" fill-rule="nonzero"/><path fill="#000000" fill-opacity="0.0" clip-path="url(#id_0)" d="M101.6036 139.16386C101.6036 140.82072 100.26045 142.16386 98.6036 142.16386C96.94674 142.16386 95.6036 140.82072 95.6036 139.16386C95.6036 137.50702 96.94674 136.16386 98.6036 136.16386C100.26045 136.16386 101.6036 137.50702 101.6036 139.16386Z" fill-rule="nonzero"/><path fill="#000000" fill-opacity="0.0" clip-path="url(#id_0)" d="M106.64255 100.68108C106.64255 102.33794 105.2994 103.68108 103.64255 103.68108C101.985695 103.68108 100.64255 102.33794 100.64255 100.68108C100.64255 99.02422 101.985695 97.68108 103.64255 97.68108C105.2994 97.68108 106.64255 99.02422 106.64255 100.68108Z" fill-rule="nonzero"/><path fill="#000000" fill-opacity="0.0" clip-path="url(#id_0)" d="M111.68155 103.70276C111.68155 105.35961 110.3384 106.70276 108.68155 106.70276C107.02469 106.70276 105.68155 105.35961 105.68155 103.70276C105.68155 102.045906 107.02469 100.70276 108.68155 100.70276C110.3384 100.70276 111.68155 102.045906 111.68155 103.70276Z" fill-rule="nonzero"/><path fill="#000000" fill-opacity="0.0" clip-path="url(#id_0)" d="M116.72054 106.732925C116.72054 108.38978 115.3774 109.732925 113.72054 109.732925C112.06369 109.732925 110.72054 108.38978 110.72054 106.732925C110.72054 105.076065 112.06369 103.732925 113.72054 103.732925C115.3774 103.732925 116.72054 105.076065 116.72054 106.732925Z" fill-rule="nonzero"/><path fill="#000000" fill-opacity="0.0" clip-path="url(#id_0)" d="M121.7596 109.76096C121.7596 111.417816 120.41645 112.76096 118.7596 112.76096C117.102745 112.76096 115.7596 111.417816 115.7596 109.76096C115.7596 108.10411 117.102745 106.76096 118.7596 106.76096C120.41645 106.76096 121.7596 108.10411 121.7596 109.76096Z" fill-rule="nonzero"/><path fill="#000000" fill-opacity="0.0" clip-path="url(#id_0)" d="M126.7986 112.785614C126.7986 114.44247 125.45545 115.785614 123.7986 115.785614C122.14175 115.785614 120.7986 114.44247 120.7986 112.785614C120.7986 111.12876 122.14175 109.785614 123.7986 109.785614C125.45545 109.785614 126.7986 111.12876 126.7986 112.785614Z" fill-rule="nonzero"/><path fill="#000000" fill-opacity="0.0" clip-path="url(#id_0)" d="M131.83745 115.80941C131.83745 117.46626 130.4943 118.80941 128.83745 118.80941C127.180595 118.80941 125.83745 117.46626 125.83745 115.80941C125.83745 114.15256 127.180595 112.80941 128.83745 112.80941C130.4943 112.80941 131.83745 114.15256 131.83745 115.80941Z" fill-rule="nonzero"/><path fill="#000000" fill-opacity="0.0" clip-path="url(#id_0)" d="M136.87645 118.83236C136.87645 120.48922 135.5333 121.83236 133.87645 121.83236C132.21959 121.83236 130.87645 120.48922 130.87645 118.83236C130.87645 117.17551 132.21959 115.83236 133.87645 115.83236C135.5333 115.83236 136.87645 117.17551 136.87645 118.83236Z" fill-rule="nonzero"/><path fill="#000000" fill-opacity="0.0" clip-path="url(#id_0)" d="M141.91545 121.85446C141.91545 123.51132 140.5723 124.85446 138.91545 124.85446C137.25859 124.85446 135.91545 123.51132 135.91545 121.85446C135.91545 120.19761 137.25859 118.85446 138.91545 118.85446C140.5723 118.85446 141.91545 120.19761 141.91545 121.85446Z" fill-rule="nonzero"/><path fill="#000000" fill-opacity="0.0" clip-path="url(#id_0)" d="M146.95445 124.87572C146.95445 126.53257 145.6113 127.87572 143.95445 127.87572C142.29759 127.87572 140.95445 126.53257 140.95445 124.87572C140.95445 123.218864 142.29759 121.87572 143.95445 121.87572C145.6113 121.87572 146.95445 123.218864 146.95445 124.87572Z" fill-rule="nonzero"/><path fill="#000000" fill-opacity="0.0" clip-path="url(#id_0)" d="M151.99344 127.8957C151.99344 129.55255 150.6503 130.8957 148.99344 130.8957C147.3366 130.8957 145.99344 129.55255 145.99344 127.8957C145.99344 126.238846 147.3366 124.8957 148.99344 124.8957C150.6503 124.8957 151.99344 126.238846 151.99344 127.8957Z" fill-rule="nonzero"/><path fill="#000000" fill-opacity="0.0" clip-path="url(#id_0)" d="M157.03244 130.91525C157.03244 132.57211 155.6893 133.91525 154.03244 133.91525C152.3756 133.91525 151.03244 132.57211 151.03244 130.91525C151.03244 129.2584 152.3756 127.91525 154.03244 127.91525C155.6893 127.91525 157.03244 129.2584 157.03244 130.91525Z" fill-rule="nonzero"/><path fill="#000000" fill-opacity="0.0" clip-path="url(#id_0)" d="M162.07144 133.93353C162.07144 135.5904 160.7283 136.93353 159.07144 136.93353C157.4146 136.93353 156.07144 135.5904 156.07144 133.93353C156.07144 132.27669 157.4146 130.93353 159.07144 130.93353C160.7283 130.93353 162.07144 132.27669 162.07144 133.93353Z" fill-rule="nonzero"/><path fill="#000000" fill-opacity="0.0" clip-path="url(#id_0)" d="M167.11044 136.9514C167.11044 138.60825 165.7673 139.9514 164.11044 139.9514C162.4536 139.9514 161.11044 138.60825 161.11044 136.9514C161.11044 135.29454 162.4536 133.9514 164.11044 133.9514C165.7673 133.9514 167.11044 135.29454 167.11044 136.9514Z" fill-rule="nonzero"/><path fill="#000000" fill-opacity="0.0" clip-path="url(#id_0)" d="M172.14944 139.96799C172.14944 141.62483 170.8063 142.96799 169.14944 142.96799C167.49258 142.96799 166.14944 141.62483 166.14944 139.96799C166.14944 138.31113 167.49258 136.96799 169.14944 136.96799C170.8063 136.96799 172.14944 138.31113 172.14944 139.96799Z" fill-rule="nonzero"/><path fill="#000000" fill-opacity="0.0" clip-path="url(#id_0)" d="M177.18845 142.98372C177.18845 144.64058 175.8453 145.98372 174.18845 145.98372C172.53159 145.98372 171.18845 144.64058 171.18845 142.98372C171.18845 141.32686 172.53159 139.98372 174.18845 139.98372C175.8453 139.98372 177.18845 141.32686 177.18845 142.98372Z" fill-rule="nonzero"/><path fill="#000000" fill-opacity="0.0" clip-path="url(#id_0)" d="M182.22745 145.99861C182.22745 147.65546 180.8843 148.99861 179.22745 148.99861C177.57059 148.99861 176.22745 147.65546 176.22745 145.99861C176.22745 144.34175 177.57059 142.99861 179.22745 142.99861C180.8843 142.99861 182.22745 144.34175 182.22745 145.99861Z" fill-rule="nonzero"/><path fill="#000000" fill-opacity="0.0" clip-path="url(#id_0)" d="M187.26645 149.01222C187.26645 150.66908 185.9233 152.01222 184.26645 152.01222C182.60959 152.01222 181.26645 150.66908 181.26645 149.01222C181.26645 147.35536 182.60959 146.01222 184.26645 146.01222C185.9233 146.01222 187.26645 147.35536 187.26645 149.01222Z" fill-rule="nonzero"/><path fill="#000000" fill-opacity="0.0" clip-path="url(#id_0)" d="M192.30545 152.02542C192.30545 153.68227 190.9623 155.02542 189.30545 155.02542C187.64859 155.02542 186.30545 153.68227 186.30545 152.02542C186.30545 150.36856 187.64859 149.02542 189.30545 149.02542C190.9623 149.02542 192.30545 150.36856 192.30545 152.02542Z" fill-rule="nonzero"/><path fill="#000000" fill-opacity="0.0" clip-path="url(#id_0)" d="M197.34445 155.03734C197.34445 156.69418 196.0013 158.03734 194.34445 158.03734C192.68759 158.03734 191.34445 156.69418 191.34445 155.03734C191.34445 153.38048 192.68759 152.03734 194.34445 152.03734C196.0013 152.03734 197.34445 153.38048 197.34445 155.03734Z" fill-rule="nonzero"/><path fill="#000000" fill-opacity="0.0" clip-path="url(#id_0)" d="M202.38345 158.04883C202.38345 159.70567 201.0403 161.04883 199.38345 161.04883C197.7266 161.04883 196.38345 159.70567 196.38345 158.04883C196.38345 156.39197 197.7266 155.04883 199.38345 155.04883C201.0403 155.04883 202.38345 156.39197 202.38345 158.04883Z" fill-rule="nonzero"/><path fill="#000000" fill-opacity="0.0" clip-path="url(#id_0)" d="M207.42244 161.05905C207.42244 162.7159 206.0793 164.05905 204.42244 164.05905C202.7656 164.05905 201.42244 162.7159 201.42244 161.05905C201.42244 159.40219 202.7656 158.05905 204.42244 158.05905C206.0793 158.05905 207.42244 159.40219 207.42244 161.05905Z" fill-rule="nonzero"/><path fill="#000000" fill-opacity="0.0" clip-path="url(#id_0)" d="M212.46144 164.06842C212.46144 165.72527 211.1183 167.06842 209.46144 167.06842C207.8046 167.06842 206.46144 165.72527 206.46144 164.06842C206.46144 162.41156 207.8046 161.06842 209.46144 161.06842C211.1183 161.06842 212.46144 162.41156 212.46144 164.06842Z" fill-rule="nonzero"/><path fill="#000000" fill-opacity="0.0" clip-path="url(#id_0)" d="M217.50044 167.07693C217.50044 168.7338 216.1573 170.07693 214.50044 170.07693C212.8436 170.07693 211.50044 168.7338 211.50044 167.07693C211.50044 165.42009 212.8436 164.07693 214.50044 164.07693C216.1573 164.07693 217.50044 165.42009 217.50044 167.07693Z" fill-rule="nonzero"/><path fill="#000000" fill-opacity="0.0" clip-path="url(#id_0)" d="M222.53944 170.08461C222.53944 171.74147 221.1963 173.08461 219.53944 173.08461C217.8826 173.08461 216.53944 171.74147 216.53944 170.08461C216.53944 168.42776 217.8826 167.08461 219.53944 167.08461C221.1963 167.08461 222.53944 168.42776 222.53944 170.08461Z" fill-rule="nonzero"/><path fill="#000000" fill-opacity="0.0" clip-path="url(#id_0)" d="M227.57845 173.09145C227.57845 174.74829 226.2353 176.09145 224.57845 176.09145C222.92159 176.09145 221.57845 174.74829 221.57845 173.09145C221.57845 171.43459 222.92159 170.09145 224.57845 170.09145C226.2353 170.09145 227.57845 171.43459 227.57845 173.09145Z" fill-rule="nonzero"/><path fill="#000000" fill-opacity="0.0" clip-path="url(#id_0)" d="M232.61745 176.09741C232.61745 177.75427 231.2743 179.09741 229.61745 179.09741C227.96059 179.09741 226.61745 177.75427 226.61745 176.09741C226.61745 174.44057 227.96059 173.09741 229.61745 173.09741C231.2743 173.09741 232.61745 174.44057 232.61745 176.09741Z" fill-rule="nonzero"/><path fill="#000000" fill-opacity="0.0" clip-path="url(#id_0)" d="M237.65645 179.10213C237.65645 180.75897 236.3133 182.10213 234.65645 182.10213C232.99959 182.10213 231.65645 180.75897 231.65645 179.10213C231.65645 177.44527 232.99959 176.10213 234.65645 176.10213C236.3133 176.10213 237.65645 177.44527 237.65645 179.10213Z" fill-rule="nonzero"/><path fill="#000000" fill-opacity="0.0" clip-path="url(#id_0)" d="M242.69545 182.1064C242.69545 183.76326 241.3523 185.1064 239.69545 185.1064C238.03859 185.1064 236.69545 183.76326 236.69545 182.1064C236.69545 180.44955 238.03859 179.1064 239.69545 179.1064C241.3523 179.1064 242.69545 180.44955 242.69545 182.1064Z" fill-rule="nonzero"/><path fill="#000000" fill-opacity="0.0" clip-path="url(#id_0)" d="M247.73445 185.1094C247.73445 186.76627 246.3913 188.1094 244.73445 188.1094C243.07759 188.1094 241.73445 186.76627 241.73445 185.1094C241.73445 183.45256 243.07759 182.1094 244.73445 182.1094C246.3913 182.1094 247.73445 183.45256 247.73445 185.1094Z" fill-rule="nonzero"/><path fill="#000000" fill-opacity="0.0" clip-path="url(#id_0)" d="M252.77345 188.11157C252.77345 189.76842 251.4303 191.11157 249.77345 191.11157C248.1166 191.11157 246.77345 189.76842 246.77345 188.11157C246.77345 186.45471 248.1166 185.11157 249.77345 185.11157C251.4303 185.11157 252.77345 186.45471 252.77345 188.11157Z" fill-rule="nonzero"/><path fill="#000000" fill-opacity="0.0" clip-path="url(#id_0)" d="M257.81244 191.1133C257.81244 192.77016 256.4693 194.1133 254.81244 194.1133C253.1556 194.1133 251.81244 192.77016 251.81244 191.1133C251.81244 189.45645 253.1556 188.1133 254.81244 188.1133C256.4693 188.1133 257.81244 189.45645 257.81244 191.1133Z" fill-rule="nonzero"/><path fill="#000000" fill-opacity="0.0" clip-path="url(#id_0)" d="M262.85144 194.11377C262.85144 195.77061 261.5083 197.11377 259.85144 197.11377C258.19458 197.11377 256.85144 195.77061 256.85144 194.11377C256.85144 192.45691 258.19458 191.11377 259.85144 191.11377C261.5083 191.11377 262.85144 192.45691 262.85144 194.11377Z" fill-rule="nonzero"/><path fill="#000000" fill-opacity="0.0" clip-path="url(#id_0)" d="M267.89044 197.11337C267.89044 198.77023 266.5473 200.11337 264.89044 200.11337C263.23358 200.11337 261.89044 198.77023 261.89044 197.11337C261.89044 195.45653 263.23358 194.11337 264.89044 194.11337C266.5473 194.11337 267.89044 195.45653 267.89044 197.11337Z" fill-rule="nonzero"/><path fill="#000000" fill-opacity="0.0" clip-path="url(#id_0)" d="M272.92944 200.11214C272.92944 201.769 271.5863 203.11214 269.92944 203.11214C268.27258 203.11214 266.92944 201.769 266.92944 200.11214C266.92944 198.45529 268.27258 197.11214 269.92944 197.11214C271.5863 197.11214 272.92944 198.45529 272.92944 200.11214Z" fill-rule="nonzero"/><path fill="#000000" fill-opacity="0.0" clip-path="url(#id_0)" d="M277.96844 203.11006C277.96844 204.7669 276.6253 206.11006 274.96844 206.11006C273.31158 206.11006 271.96844 204.7669 271.96844 203.11006C271.96844 201.4532 273.31158 200.11006 274.96844 200.11006C276.6253 200.11006 277.96844 201.4532 277.96844 203.11006Z" fill-rule="nonzero"/><path fill="#000000" fill-opacity="0.0" clip-path="url(#id_0)" d="M283.00745 206.10669C283.00745 207.76355 281.6643 209.10669 280.00745 209.10669C278.3506 209.10669 277.00745 207.76355 277.00745 206.10669C277.00745 204.44984 278.3506 203.10669 280.00745 203.10669C281.6643 203.10669 283.00745 204.44984 283.00745 206.10669Z" fill-rule="nonzero"/><path fill="#000000" fill-opacity="0.0" clip-path="url(#id_0)" d="M288.04645 209.10292C288.04645 210.75977 286.7033 212.10292 285.04645 212.10292C283.3896 212.10292 282.04645 210.75977 282.04645 209.10292C282.04645 207.44606 283.3896 206.10292 285.04645 206.10292C286.7033 206.10292 288.04645 207.44606 288.04645 209.10292Z" fill-rule="nonzero"/><path fill="#000000" fill-opacity="0.0" clip-path="url(#id_0)" d="M293.08545 212.09828C293.08545 213.75514 291.7423 215.09828 290.08545 215.09828C288.4286 215.09828 287.08545 213.75514 287.08545 212.09828C287.08545 210.44144 288.4286 209.09828 290.08545 209.09828C291.7423 209.09828 293.08545 210.44144 293.08545 212.09828Z" fill-rule="nonzero"/><path fill="#000000" fill-opacity="0.0" clip-path="url(#id_0)" d="M298.12445 215.09238C298.12445 216.74924 296.7813 218.09238 295.12445 218.09238C293.4676 218.09238 292.12445 216.74924 292.12445 215.09238C292.12445 213.43553 293.4676 212.09238 295.12445 212.09238C296.7813 212.09238 298.12445 213.43553 298.12445 215.09238Z" fill-rule="nonzero"/><path fill="#000000" fill-opacity="0.0" clip-path="url(#id_0)" d="M303.16345 218.08604C303.16345 219.7429 301.8203 221.08604 300.16345 221.08604C298.5066 221.08604 297.16345 219.7429 297.16345 218.08604C297.16345 216.4292 298.5066 215.08604 300.16345 215.08604C301.8203 215.08604 303.16345 216.4292 303.16345 218.08604Z" fill-rule="nonzero"/><path fill="#000000" fill-opacity="0.0" clip-path="url(#id_0)" d="M308.20245 221.07845C308.20245 222.7353 306.8593 224.07845 305.20245 224.07845C303.5456 224.07845 302.20245 222.7353 302.20245 221.07845C302.20245 219.4216 303.5456 218.07845 305.20245 218.07845C306.8593 218.07845 308.20245 219.4216 308.20245 221.07845Z" fill-rule="nonzero"/><path fill="#000000" fill-opacity="0.0" clip-path="url(#id_0)" d="M313.24146 224.07C313.24146 225.72685 311.8983 227.07 310.24146 227.07C308.5846 227.07 307.24146 225.72685 307.24146 224.07C307.24146 222.41315 308.5846 221.07 310.24146 221.07C311.8983 221.07 313.24146 222.41315 313.24146 224.07Z" fill-rule="nonzero"/><path fill="#000000" fill-opacity="0.0" clip-path="url(#id_0)" d="M318.28046 227.06113C318.28046 228.71799 316.9373 230.06113 315.28046 230.06113C313.6236 230.06113 312.28046 228.71799 312.28046 227.06113C312.28046 225.40427 313.6236 224.06113 315.28046 224.06113C316.9373 224.06113 318.28046 225.40427 318.28046 227.06113Z" fill-rule="nonzero"/><path fill="#000000" fill-opacity="0.0" clip-path="url(#id_0)" d="M323.31946 230.05098C323.31946 231.70784 321.9763 233.05098 320.31946 233.05098C318.6626 233.05098 317.31946 231.70784 317.31946 230.05098C317.31946 228.39412 318.6626 227.05098 320.31946 227.05098C321.9763 227.05098 323.31946 228.39412 323.31946 230.05098Z" fill-rule="nonzero"/><path fill="#000000" fill-opacity="0.0" clip-path="url(#id_0)" d="M328.35846 233.03998C328.35846 234.69684 327.0153 236.03998 325.35846 236.03998C323.7016 236.03998 322.35846 234.69684 322.35846 233.03998C322.35846 231.38313 323.7016 230.03998 325.35846 230.03998C327.0153 230.03998 328.35846 231.38313 328.35846 233.03998Z" fill-rule="nonzero"/><path fill="#000000" fill-opacity="0.0" clip-path="url(#id_0)" d="M333.39746 236.02814C333.39746 237.685 332.0543 239.02814 330.39746 239.02814C328.7406 239.02814 327.39746 237.685 327.39746 236.02814C327.39746 234.37128 328.7406 233.02814 330.39746 233.02814C332.0543 233.02814 333.39746 234.37128 333.39746 236.02814Z" fill-rule="nonzero"/><path fill="#000000" fill-opacity="0.0" clip-path="url(#id_0)" d="M338.43643 239.01544C338.43643 240.6723 337.0933 242.01544 335.43643 242.01544C333.7796 242.01544 332.43643 240.6723 332.43643 239.01544C332.43643 237.3586 333.7796 236.01544 335.43643 236.01544C337.0933 236.01544 338.43643 237.3586 338.43643 239.01544Z" fill-rule="nonzero"/><path fill="#000000" fill-opacity="0.0" clip-path="url(#id_0)" d="M343.47543 242.0019C343.47543 243.65875 342.1323 245.0019 340.47543 245.0019C338.8186 245.0019 337.47543 243.65875 337.47543 242.0019C337.47543 240.34505 338.8186 239.0019 340.47543 239.0019C342.1323 239.0019 343.47543 240.34505 343.47543 242.0019Z" fill-rule="nonzero"/><path fill="#000000" fill-opacity="0.0" clip-path="url(#id_0)" d="M348.51443 244.98752C348.51443 246.64436 347.1713 247.98752 345.51443 247.98752C343.8576 247.98752 342.51443 246.64436 342.51443 244.98752C342.51443 243.33066 343.8576 241.98752 345.51443 241.98752C347.1713 241.98752 348.51443 243.33066 348.51443 244.98752Z" fill-rule="nonzero"/><path fill="#000000" fill-opacity="0.0" clip-path="url(#id_0)" d="M353.55344 247.97227C353.55344 249.62912 352.2103 250.97227 350.55344 250.97227C348.8966 250.97227 347.55344 249.62912 347.55344 247.97227C347.55344 246.31541 348.8966 244.97227 350.55344 244.97227C352.2103 244.97227 353.55344 246.31541 353.55344 247.97227Z" fill-rule="nonzero"/><path fill="#000000" fill-opacity="0.0" clip-path="url(#id_0)" d="M358.59244 250.95618C358.59244 252.61304 357.2493 253.95618 355.59244 253.95618C353.93558 253.95618 352.59244 252.61304 352.59244 250.95618C352.59244 249.29933 353.93558 247.95618 355.59244 247.95618C357.2493 247.95618 358.59244 249.29933 358.59244 250.95618Z" fill-rule="nonzero"/><path fill="#000000" fill-opacity="0.0" clip-path="url(#id_0)" d="M363.63144 253.93883C363.63144 255.59567 362.2883 256.9388 360.63144 256.9388C358.97458 256.9388 357.63144 255.59567 357.63144 253.93883C357.63144 252.28197 358.97458 250.93883 360.63144 250.93883C362.2883 250.93883 363.63144 252.28197 363.63144 253.93883Z" fill-rule="nonzero"/><path fill="#000000" fill-opacity="0.0" clip-path="url(#id_0)" d="M368.67044 256.92105C368.67044 258.57788 367.3273 259.92105 365.67044 259.92105C364.01358 259.92105 362.67044 258.57788 362.67044 256.92105C362.67044 255.26419 364.01358 253.92104 365.67044 253.92104C367.3273 253.92104 368.67044 255.26419 368.67044 256.92105Z" fill-rule="nonzero"/><path fill="#000000" fill-opacity="0.0" clip-path="url(#id_0)" d="M373.70944 259.9023C373.70944 261.55917 372.3663 262.9023 370.70944 262.9023C369.05258 262.9023 367.70944 261.55917 367.70944 259.9023C367.70944 258.24545 369.05258 256.9023 370.70944 256.9023C372.3663 256.9023 373.70944 258.24545 373.70944 259.9023Z" fill-rule="nonzero"/><path fill="#000000" fill-opacity="0.0" clip-path="url(#id_0)" d="M378.74844 262.88272C378.74844 264.53955 377.4053 265.88272 375.74844 265.88272C374.09158 265.88272 372.74844 264.53955 372.74844 262.88272C372.74844 261.22586 374.09158 259.88272 375.74844 259.88272C377.4053 259.88272 378.74844 261.22586 378.74844 262.88272Z" fill-rule="nonzero"/><path fill="#000000" fill-opacity="0.0" clip-path="url(#id_0)" d="M383.78745 265.8622C383.78745 267.51907 382.4443 268.8622 380.78745 268.8622C379.13058 268.8622 377.78745 267.51907 377.78745 265.8622C377.78745 264.20535 379.13058 262.8622 380.78745 262.8622C382.4443 262.8622 383.78745 264.20535 383.78745 265.8622Z" fill-rule="nonzero"/><path fill="#000000" fill-opacity="0.0" clip-path="url(#id_0)" d="M388.82645 268.84082C388.82645 270.49768 387.4833 271.84082 385.82645 271.84082C384.1696 271.84082 382.82645 270.49768 382.82645 268.84082C382.82645 267.18396 384.1696 265.84082 385.82645 265.84082C387.4833 265.84082 388.82645 267.18396 388.82645 268.84082Z" fill-rule="nonzero"/><path fill="#000000" fill-opacity="0.0" clip-path="url(#id_0)" d="M393.86545 271.8186C393.86545 273.47546 392.5223 274.8186 390.86545 274.8186C389.2086 274.8186 387.86545 273.47546 387.86545 271.8186C387.86545 270.16177 389.2086 268.8186 390.86545 268.8186C392.5223 268.8186 393.86545 270.16177 393.86545 271.8186Z" fill-rule="nonzero"/><path fill="#000000" fill-opacity="0.0" clip-path="url(#id_0)" d="M398.90445 274.79553C398.90445 276.4524 397.5613 277.79553 395.90445 277.79553C394.2476 277.79553 392.90445 276.4524 392.90445 274.79553C392.90445 273.13867 394.2476 271.79553 395.90445 271.79553C397.5613 271.79553 398.90445 273.13867 398.90445 274.79553Z" fill-rule="nonzero"/><path fill="#000000" fill-opacity="0.0" clip-path="url(#id_0)" d="M403.94345 277.77158C403.94345 279.42844 402.6003 280.77158 400.94345 280.77158C399.2866 280.77158 397.94345 279.42844 397.94345 277.77158C397.94345 276.11475 399.2866 274.77158 400.94345 274.77158C402.6003 274.77158 403.94345 276.11475 403.94345 277.77158Z" fill-rule="nonzero"/><path fill="#000000" fill-opacity="0.0" clip-path="url(#id_0)" d="M408.98245 280.74677C408.98245 282.40363 407.6393 283.74677 405.98245 283.74677C404.3256 283.74677 402.98245 282.40363 402.98245 280.74677C402.98245 279.0899 404.3256 277.74677 405.98245 277.74677C407.6393 277.74677 408.98245 279.0899 408.98245 280.74677Z" fill-rule="nonzero"/><path fill="#000000" fill-opacity="0.0" clip-path="url(#id_0)" d="M414.02145 283.72107C414.02145 285.37793 412.6783 286.72107 411.02145 286.72107C409.3646 286.72107 408.02145 285.37793 408.02145 283.72107C408.02145 282.06424 409.3646 280.72107 411.02145 280.72107C412.6783 280.72107 414.02145 282.06424 414.02145 283.72107Z" fill-rule="nonzero"/><path fill="#000000" fill-opacity="0.0" clip-path="url(#id_0)" d="M419.06046 286.69455C419.06046 288.3514 417.7173 289.69455 416.06046 289.69455C414.4036 289.69455 413.06046 288.3514 413.06046 286.69455C413.06046 285.0377 414.4036 283.69455 416.06046 283.69455C417.7173 283.69455 419.06046 285.0377 419.06046 286.69455Z" fill-rule="nonzero"/><path fill="#000000" fill-opacity="0.0" clip-path="url(#id_0)" d="M424.09946 289.66718C424.09946 291.32404 422.7563 292.66718 421.09946 292.66718C419.4426 292.66718 418.09946 291.32404 418.09946 289.66718C418.09946 288.0103 419.4426 286.66718 421.09946 286.66718C422.7563 286.66718 424.09946 288.0103 424.09946 289.66718Z" fill-rule="nonzero"/><path fill="#000000" fill-opacity="0.0" clip-path="url(#id_0)" d="M429.13846 292.63895C429.13846 294.2958 427.7953 295.63895 426.13846 295.63895C424.4816 295.63895 423.13846 294.2958 423.13846 292.63895C423.13846 290.98212 424.4816 289.63895 426.13846 289.63895C427.7953 289.63895 429.13846 290.98212 429.13846 292.63895Z" fill-rule="nonzero"/><path fill="#000000" fill-opacity="0.0" clip-path="url(#id_0)" d="M434.17746 295.6099C434.17746 297.26672 432.8343 298.6099 431.17746 298.6099C429.5206 298.6099 428.17746 297.26672 428.17746 295.6099C428.17746 293.95303 429.5206 292.6099 431.17746 292.6099C432.8343 292.6099 434.17746 293.95303 434.17746 295.6099Z" fill-rule="nonzero"/><path fill="#000000" fill-opacity="0.0" clip-path="url(#id_0)" d="M439.21643 298.57993C439.21643 300.2368 437.8733 301.57993 436.21643 301.57993C434.5596 301.57993 433.21643 300.2368 433.21643 298.57993C433.21643 296.92307 434.5596 295.57993 436.21643 295.57993C437.8733 295.57993 439.21643 296.92307 439.21643 298.57993Z" fill-rule="nonzero"/><path fill="#000000" fill-opacity="0.0" clip-path="url(#id_0)" d="M444.25543 300.448C444.25543 302.10486 442.9123 303.448 441.25543 303.448C439.5986 303.448 438.25543 302.10486 438.25543 300.448C438.25543 298.79114 439.5986 297.448 441.25543 297.448C442.9123 297.448 444.25543 298.79114 444.25543 300.448Z" fill-rule="nonzero"/><path fill="#000000" fill-opacity="0.0" clip-path="url(#id_0)" d="M449.29443 300.44797C449.29443 302.10483 447.9513 303.44797 446.29443 303.44797C444.6376 303.44797 443.29443 302.10483 443.29443 300.44797C443.29443 298.7911 444.6376 297.44797 446.29443 297.44797C447.9513 297.44797 449.29443 298.7911 449.29443 300.44797Z" fill-rule="nonzero"/><path fill="#000000" fill-opacity="0.0" clip-path="url(#id_0)" d="M454.33344 300.44797C454.33344 302.10483 452.9903 303.44797 451.33344 303.44797C449.6766 303.44797 448.33344 302.10483 448.33344 300.44797C448.33344 298.7911 449.6766 297.44797 451.33344 297.44797C452.9903 297.44797 454.33344 298.7911 454.33344 300.44797Z" fill-rule="nonzero"/><path fill="#000000" fill-opacity="0.0" clip-path="url(#id_0)" d="M459.37244 300.44797C459.37244 302.10483 458.0293 303.44797 456.37244 303.44797C454.7156 303.44797 453.37244 302.10483 453.37244 300.44797C453.37244 298.7911 454.7156 297.44797 456.37244 297.44797C458.0293 297.44797 459.37244 298.7911 459.37244 300.44797Z" fill-rule="nonzero"/><path fill="#000000" fill-opacity="0.0" clip-path="url(#id_0)" d="M464.41144 300.44797C464.41144 302.10483 463.0683 303.44797 461.41144 303.44797C459.75458 303.44797 458.41144 302.10483 458.41144 300.44797C458.41144 298.79114 459.75458 297.44797 461.41144 297.44797C463.0683 297.44797 464.41144 298.79114 464.41144 300.44797Z" fill-rule="nonzero"/><path fill="#000000" fill-opacity="0.0" clip-path="url(#id_0)" d="M469.45044 300.44797C469.45044 302.10483 468.1073 303.44797 466.45044 303.44797C464.79358 303.44797 463.45044 302.10483 463.45044 300.44797C463.45044 298.79114 464.79358 297.44797 466.45044 297.44797C468.1073 297.44797 469.45044 298.79114 469.45044 300.44797Z" fill-rule="nonzero"/><path fill="#000000" fill-opacity="0.0" clip-path="url(#id_0)" d="M474.48944 300.44797C474.48944 302.10483 473.1463 303.44797 471.48944 303.44797C469.83258 303.44797 468.48944 302.10483 468.48944 300.44797C468.48944 298.79114 469.83258 297.44797 471.48944 297.44797C473.1463 297.44797 474.48944 298.79114 474.48944 300.44797Z" fill-rule="nonzero"/><path fill="#000000" fill-opacity="0.0" clip-path="url(#id_0)" d="M479.52844 300.44797C479.52844 302.10483 478.1853 303.44797 476.52844 303.44797C474.87158 303.44797 473.52844 302.10483 473.52844 300.44797C473.52844 298.79114 474.87158 297.44797 476.52844 297.44797C478.1853 297.44797 479.52844 298.79114 479.52844 300.44797Z" fill-rule="nonzero"/><path fill="#000000" fill-opacity="0.0" clip-path="url(#id_0)" d="M484.56744 300.44797C484.56744 302.10483 483.2243 303.44797 481.56744 303.44797C479.91058 303.44797 478.56744 302.10483 478.56744 300.44797C478.56744 298.79114 479.91058 297.44797 481.56744 297.44797C483.2243 297.44797 484.56744 298.79114 484.56744 300.44797Z" fill-rule="nonzero"/><path fill="#000000" fill-opacity="0.0" clip-path="url(#id_0)" d="M489.60645 300.44797C489.60645 302.10483 488.2633 303.44797 486.60645 303.44797C484.9496 303.44797 483.60645 302.10483 483.60645 300.44797C483.60645 298.79114 484.9496 297.44797 486.60645 297.44797C488.2633 297.44797 489.60645 298.79114 489.60645 300.44797Z" fill-rule="nonzero"/><path fill="#000000" fill-opacity="0.0" clip-path="url(#id_0)" d="M494.64545 300.44797C494.64545 302.10483 493.3023 303.44797 491.64545 303.44797C489.9886 303.44797 488.64545 302.10483 488.64545 300.44797C488.64545 298.79114 489.9886 297.44797 491.64545 297.44797C493.3023 297.44797 494.64545 298.79114 494.64545 300.44797Z" fill-rule="nonzero"/><path fill="#000000" fill-opacity="0.0" clip-path="url(#id_0)" d="M499.68445 300.44797C499.68445 302.10483 498.3413 303.44797 496.68445 303.44797C495.0276 303.44797 493.68445 302.10483 493.68445 300.44797C493.68445 298.79114 495.0276 297.44797 496.68445 297.44797C498.3413 297.44797 499.68445 298.79114 499.68445 300.44797Z" fill-rule="nonzero"/><path fill="#000000" fill-opacity="0.0" clip-path="url(#id_0)" d="M504.72345 300.44797C504.72345 302.10483 503.3803 303.44797 501.72345 303.44797C500.0666 303.44797 498.72345 302.10483 498.72345 300.44797C498.72345 298.79114 500.0666 297.44797 501.72345 297.44797C503.3803 297.44797 504.72345 298.79114 504.72345 300.44797Z" fill-rule="nonzero"/><path fill="#000000" fill-opacity="0.0" clip-path="url(#id_0)" d="M509.76245 300.44797C509.76245 302.10483 508.4193 303.44797 506.76245 303.44797C505.1056 303.44797 503.76245 302.10483 503.76245 300.44797C503.76245 298.79114 505.1056 297.44797 506.76245 297.44797C508.4193 297.44797 509.76245 298.79114 509.76245 300.44797Z" fill-rule="nonzero"/><path fill="#000000" fill-opacity="0.0" clip-path="url(#id_0)" d="M514.80145 300.44797C514.80145 302.10483 513.4583 303.44797 511.80145 303.44797C510.1446 303.44797 508.80145 302.10483 508.80145 300.44797C508.80145 298.79114 510.1446 297.44797 511.80145 297.44797C513.4583 297.44797 514.80145 298.79114 514.80145 300.44797Z" fill-rule="nonzero"/><path fill="#000000" fill-opacity="0.0" clip-path="url(#id_0)" d="M519.84045 300.44797C519.84045 302.10483 518.4973 303.44797 516.84045 303.44797C515.1836 303.44797 513.84045 302.10483 513.84045 300.44797C513.84045 298.79114 515.1836 297.44797 516.84045 297.44797C518.4973 297.44797 519.84045 298.79114 519.84045 300.44797Z" fill-rule="nonzero"/><path fill="#000000" fill-opacity="0.0" clip-path="url(#id_0)" d="M524.87946 300.44797C524.87946 302.10483 523.5363 303.44797 521.87946 303.44797C520.2226 303.44797 518.87946 302.10483 518.87946 300.44797C518.87946 298.79114 520.2226 297.44797 521.87946 297.44797C523.5363 297.44797 524.87946 298.79114 524.87946 300.44797Z" fill-rule="nonzero"/><path fill="#000000" fill-opacity="0.0" clip-path="url(#id_0)" d="M529.91846 300.44797C529.91846 302.10483 528.5753 303.44797 526.91846 303.44797C525.2616 303.44797 523.91846 302.10483 523.91846 300.44797C523.91846 298.79114 525.2616 297.44797 526.91846 297.44797C528.5753 297.44797 529.91846 298.79114 529.91846 300.44797Z" fill-rule="nonzero"/><path fill="#000000" fill-opacity="0.0" clip-path="url(#id_0)" d="M534.95746 300.44797C534.95746 302.10483 533.6143 303.44797 531.95746 303.44797C530.3006 303.44797 528.95746 302.10483 528.95746 300.44797C528.95746 298.79114 530.3006 297.44797 531.95746 297.44797C533.6143 297.44797 534.95746 298.79114 534.95746 300.44797Z" fill-rule="nonzero"/><path fill="#000000" fill-opacity="0.0" clip-path="url(#id_0)" d="M539.99646 300.44797C539.99646 302.10483 538.6533 303.44797 536.99646 303.44797C535.3396 303.44797 533.99646 302.10483 533.99646 300.44797C533.99646 298.79114 535.3396 297.44797 536.99646 297.44797C538.6533 297.44797 539.99646 298.79114 539.99646 300.44797Z" fill-rule="nonzero"/><path fill="#000000" fill-opacity="0.0" clip-path="url(#id_0)" d="M545.03546 300.44797C545.03546 302.10483 543.6923 303.44797 542.03546 303.44797C540.3786 303.44797 539.03546 302.10483 539.03546 300.44797C539.03546 298.79114 540.3786 297.44797 542.03546 297.44797C543.6923 297.44797 545.03546 298.79114 545.03546 300.44797Z" fill-rule="nonzero"/><path fill="#000000" fill-opacity="0.0" clip-path="url(#id_0)" d="M550.07446 300.44797C550.07446 302.10483 548.7313 303.44797 547.07446 303.44797C545.4176 303.44797 544.07446 302.10483 544.07446 300.44797C544.07446 298.79114 545.4176 297.44797 547.07446 297.44797C548.7313 297.44797 550.07446 298.79114 550.07446 300.44797Z" fill-rule="nonzero"/><path fill="#000000" fill-opacity="0.0" clip-path="url(#id_0)" d="M555.11346 300.44797C555.11346 302.10483 553.7703 303.44797 552.11346 303.44797C550.4566 303.44797 549.11346 302.10483 549.11346 300.44797C549.11346 298.79114 550.4566 297.44797 552.11346 297.44797C553.7703 297.44797 555.11346 298.79114 555.11346 300.44797Z" fill-rule="nonzero"/><path fill="#000000" fill-opacity="0.0" clip-path="url(#id_0)" d="M560.15247 300.44797C560.15247 302.10483 558.8093 303.44797 557.15247 303.44797C555.4956 303.44797 554.15247 302.10483 554.15247 300.44797C554.15247 298.79114 555.4956 297.44797 557.15247 297.44797C558.8093 297.44797 560.15247 298.79114 560.15247 300.44797Z" fill-rule="nonzero"/><path fill="#000000" fill-opacity="0.0" clip-path="url(#id_0)" d="M565.19147 300.44797C565.19147 302.10483 563.8483 303.44797 562.19147 303.44797C560.5346 303.44797 559.19147 302.10483 559.19147 300.44797C559.19147 298.79114 560.5346 297.44797 562.19147 297.44797C563.8483 297.44797 565.19147 298.79114 565.19147 300.44797Z" fill-rule="nonzero"/><path fill="#000000" fill-opacity="0.0" clip-path="url(#id_0)" d="M570.23047 300.44797C570.23047 302.10483 568.8873 303.44797 567.23047 303.44797C565.5736 303.44797 564.23047 302.10483 564.23047 300.44797C564.23047 298.79114 565.5736 297.44797 567.23047 297.44797C568.8873 297.44797 570.23047 298.79114 570.23047 300.44797Z" fill-rule="nonzero"/><path fill="#000000" fill-opacity="0.0" clip-path="url(#id_0)" d="M575.2695 300.448C575.2695 302.10483 573.92633 303.448 572.2695 303.448C570.6126 303.448 569.2695 302.10483 569.2695 300.448C569.2695 298.79114 570.6126 297.448 572.2695 297.448C573.92633 297.448 575.2695 298.79114 575.2695 300.448Z" fill-rule="nonzero"/><path fill="#000000" fill-opacity="0.0" clip-path="url(#id_0)" d="M580.3085 300.448C580.3085 302.10483 578.9653 303.448 577.3085 303.448C575.6516 303.448 574.3085 302.10483 574.3085 300.448C574.3085 298.79114 575.6516 297.448 577.3085 297.448C578.9653 297.448 580.3085 298.79114 580.3085 300.448Z" fill-rule="nonzero"/><path fill="#000000" fill-opacity="0.0" clip-path="url(#id_0)" d="M584.45 300.448C584.45 302.10483 583.1069 303.448 581.45 303.448C579.79315 303.448 578.45 302.10483 578.45 300.448C578.45 298.79114 579.79315 297.448 581.45 297.448C583.1069 297.448 584.45 298.79114 584.45 300.448Z" fill-rule="nonzero"/><path fill="#000000" fill-opacity="0.0" clip-path="url(#id_0)" d="M80.55 300.45C80.55 302.10684 79.206856 303.45 77.55 303.45C75.89314 303.45 74.55 302.10684 74.55 300.45C74.55 298.79315 75.89314 297.45 77.55 297.45C79.206856 297.45 80.55 298.79315 80.55 300.45Z" fill-rule="nonzero"/><path fill="#000000" fill-opacity="0.0" clip-path="url(#id_0)" d="M81.0539 296.58032C81.0539 298.23718 79.710754 299.58032 78.0539 299.58032C76.39705 299.58032 75.0539 298.23718 75.0539 296.58032C75.0539 294.92346 76.39705 293.58032 78.0539 293.58032C79.710754 293.58032 81.0539 294.92346 81.0539 296.58032Z" fill-rule="nonzero"/><path fill="#000000" fill-opacity="0.0" clip-path="url(#id_0)" d="M81.5578 292.7111C81.5578 294.36795 80.21465 295.7111 78.5578 295.7111C76.90095 295.7111 75.5578 294.36795 75.5578 292.7111C75.5578 291.05423 76.90095 289.7111 78.5578 289.7111C80.21465 289.7111 81.5578 291.05423 81.5578 292.7111Z" fill-rule="nonzero"/><path fill="#000000" fill-opacity="0.0" clip-path="url(#id_0)" d="M82.31365 286.9081C82.31365 288.56497 80.970505 289.9081 79.31365 289.9081C77.6568 289.9081 76.31365 288.56497 76.31365 286.9081C76.31365 285.25128 77.6568 283.9081 79.31365 283.9081C80.970505 283.9081 82.31365 285.25128 82.31365 286.9081Z" fill-rule="nonzero"/><path fill="#000000" fill-opacity="0.0" clip-path="url(#id_0)" d="M83.447426 278.20563C83.447426 279.8625 82.10428 281.20563 80.447426 281.20563C78.79057 281.20563 77.447426 279.8625 77.447426 278.20563C77.447426 276.5488 78.79057 275.20563 80.447426 275.20563C82.10428 275.20563 83.447426 276.5488 83.447426 278.20563Z" fill-rule="nonzero"/><path fill="#000000" fill-opacity="0.0" clip-path="url(#id_0)" d="M85.14809 265.15628C85.14809 266.81314 83.80494 268.15628 82.14809 268.15628C80.491234 268.15628 79.14809 266.81314 79.14809 265.15628C79.14809 263.49942 80.491234 262.15628 82.14809 262.15628C83.80494 262.15628 85.14809 263.49942 85.14809 265.15628Z" fill-rule="nonzero"/><path fill="#000000" fill-opacity="0.0" clip-path="url(#id_0)" d="M87.69908 245.5922C87.69908 247.24904 86.355934 248.5922 84.69908 248.5922C83.04223 248.5922 81.69908 247.24904 81.69908 245.5922C81.69908 243.93533 83.04223 242.5922 84.69908 242.5922C86.355934 242.5922 87.69908 243.93533 87.69908 245.5922Z" fill-rule="nonzero"/><path fill="#000000" fill-opacity="0.0" clip-path="url(#id_0)" d="M91.5256 216.2682C91.5256 217.92506 90.18245 219.2682 88.5256 219.2682C86.868744 219.2682 85.5256 217.92506 85.5256 216.2682C85.5256 214.61136 86.868744 213.2682 88.5256 213.2682C90.18245 213.2682 91.5256 214.61136 91.5256 216.2682Z" fill-rule="nonzero"/><path fill="#000000" fill-opacity="0.0" clip-path="url(#id_0)" d="M96.564545 177.69292C96.564545 179.34976 95.2214 180.69292 93.564545 180.69292C91.90769 180.69292 90.564545 179.34976 90.564545 177.69292C90.564545 176.03606 91.90769 174.69292 93.564545 174.69292C95.2214 174.69292 96.564545 176.03606 96.564545 177.69292Z" fill-rule="nonzero"/><path fill="#000000" fill-opacity="0.0" clip-path="url(#id_0)" d="M101.6036 139.16386C101.6036 140.82072 100.26045 142.16386 98.6036 142.16386C96.94674 142.16386 95.6036 140.82072 95.6036 139.16386C95.6036 137.50702 96.94674 136.16386 98.6036 136.16386C100.26045 136.16386 101.6036 137.50702 101.6036 139.16386Z" fill-rule="nonzero"/><path fill="#000000" fill-opacity="0.0" clip-path="url(#id_0)" d="M106.64255 100.68108C106.64255 102.33794 105.2994 103.68108 103.64255 103.68108C101.985695 103.68108 100.64255 102.33794 100.64255 100.68108C100.64255 99.02422 101.985695 97.68108 103.64255 97.68108C105.2994 97.68108 106.64255 99.02422 106.64255 100.68108Z" fill-rule="nonzero"/><path fill="#000000" d="M318.60938 349.45L318.60938 341.8719L315.78125 341.8719L315.78125 340.85626L322.59375 340.85626L322.59375 341.8719L319.75 341.8719L319.75 349.45L318.60938 349.45ZM323.29688 342.075L323.29688 340.85626L324.35938 340.85626L324.35938 342.075L323.29688 342.075ZM323.29688 349.45L323.29688 343.23126L324.35938 343.23126L324.35938 349.45L323.29688 349.45ZM326.29688 349.45L326.29688 343.23126L327.23438 343.23126L327.23438 344.10626Q327.53125 343.6375 328.01562 343.3719Q328.5 343.09064 329.125 343.09064Q329.8125 343.09064 330.25 343.3719Q330.70312 343.65314 330.875 344.16876Q331.625 343.09064 332.79688 343.09064Q333.73438 343.09064 334.21875 343.60626Q334.71875 344.10626 334.71875 345.1844L334.71875 349.45L333.67188 349.45L333.67188 345.52814Q333.67188 344.90314 333.5625 344.6219Q333.46875 344.34064 333.20312 344.16876Q332.9375 343.9969 332.5625 343.9969Q331.90625 343.9969 331.46875 344.4344Q331.04688 344.8719 331.04688 345.84064L331.04688 349.45L329.98438 349.45L329.98438 345.40314Q329.98438 344.7 329.71875 344.35626Q329.46875 343.9969 328.89062 343.9969Q328.4375 343.9969 328.0625 344.23126Q327.6875 344.46564 327.51562 344.91876Q327.34375 345.3719 327.34375 346.21564L327.34375 349.45L326.29688 349.45ZM341.54688 347.45L342.64062 347.575Q342.39062 348.52814 341.6875 349.0594Q340.98438 349.59064 339.90625 349.59064Q338.54688 349.59064 337.73438 348.7469Q336.9375 347.90314 336.9375 346.3875Q336.9375 344.825 337.75 343.96564Q338.5625 343.09064 339.84375 343.09064Q341.09375 343.09064 341.875 343.9344Q342.67188 344.77814 342.67188 346.325Q342.67188 346.41876 342.67188 346.60626L338.03125 346.60626Q338.09375 347.6375 338.60938 348.1844Q339.125 348.71564 339.90625 348.71564Q340.48438 348.71564 340.89062 348.41876Q341.3125 348.10626 341.54688 347.45ZM338.09375 345.7469L341.5625 345.7469Q341.5 344.95 341.17188 344.5594Q340.65625 343.95 339.85938 343.95Q339.125 343.95 338.625 344.4344Q338.14062 344.91876 338.09375 345.7469Z" fill-rule="nonzero"/><path fill="#000000" d="M26.753138 229.42917L26.596888 227.74167Q27.440638 227.58542 27.846888 227.1323Q28.237513 226.66354 28.237513 225.86667Q28.237513 225.03854 27.893763 224.61667Q27.534388 224.17917 27.050013 224.17917Q26.753138 224.17917 26.534388 224.36667Q26.315638 224.53854 26.159388 224.99167Q26.050013 225.28854 25.784388 226.36667Q25.440638 227.77292 24.940638 228.33542Q24.221888 229.11667 23.206263 229.11667Q22.550013 229.11667 21.987513 228.7573Q21.409388 228.3823 21.112513 227.67917Q20.815638 226.97604 20.815638 225.99167Q20.815638 224.36667 21.534388 223.55417Q22.237513 222.74167 23.409388 222.6948L23.487513 224.42917Q22.831263 224.53854 22.550013 224.91354Q22.253138 225.27292 22.253138 226.0073Q22.253138 226.7573 22.565638 227.1948Q22.753138 227.46042 23.096888 227.46042Q23.393763 227.46042 23.612513 227.21042Q23.893763 226.8823 24.190638 225.61667Q24.487513 224.35104 24.815638 223.74167Q25.128138 223.1323 25.690638 222.78854Q26.237513 222.4448 27.050013 222.4448Q27.784388 222.4448 28.440638 222.86667Q29.081263 223.27292 29.393763 224.02292Q29.706263 224.77292 29.706263 225.8823Q29.706263 227.52292 28.956263 228.39792Q28.190638 229.2573 26.753138 229.42917ZM28.018763 215.78854L29.550013 215.78854L29.550013 221.5698Q28.675013 221.47604 27.909388 221.0073Q27.128138 220.53854 25.846888 219.14792Q24.815638 218.03854 24.440638 217.78854Q23.925013 217.4448 23.425013 217.4448Q22.878138 217.4448 22.581263 217.74167Q22.284388 218.03854 22.284388 218.55417Q22.284388 219.0698 22.596888 219.3823Q22.909388 219.67917 23.628138 219.72604L23.471888 221.36667Q22.112513 221.22604 21.518763 220.46042Q20.925013 219.67917 20.925013 218.52292Q20.925013 217.24167 21.612513 216.52292Q22.300013 215.78854 23.315638 215.78854Q23.893763 215.78854 24.425013 216.0073Q24.940638 216.21042 25.518763 216.66354Q25.893763 216.96042 26.612513 217.74167Q27.331263 218.52292 27.565638 218.72604Q27.800013 218.92917 28.018763 219.0698L28.018763 215.78854ZM28.018763 208.78854L29.550013 208.78854L29.550013 214.5698Q28.675013 214.47604 27.909388 214.0073Q27.128138 213.53854 25.846888 212.14792Q24.815638 211.03854 24.440638 210.78854Q23.925013 210.4448 23.425013 210.4448Q22.878138 210.4448 22.581263 210.74167Q22.284388 211.03854 22.284388 211.55417Q22.284388 212.0698 22.596888 212.3823Q22.909388 212.67917 23.628138 212.72604L23.471888 214.36667Q22.112513 214.22604 21.518763 213.46042Q20.925013 212.67917 20.925013 211.52292Q20.925013 210.24167 21.612513 209.52292Q22.300013 208.78854 23.315638 208.78854Q23.893763 208.78854 24.425013 209.0073Q24.940638 209.21042 25.518763 209.66354Q25.893763 209.96042 26.612513 210.74167Q27.331263 211.52292 27.565638 211.72604Q27.800013 211.92917 28.018763 212.0698L28.018763 208.78854ZM32.08126 201.27292L32.08126 202.39792Q30.721888 203.30417 29.268763 203.77292Q27.800013 204.24167 26.440638 204.24167Q24.737513 204.24167 23.237513 203.66354Q21.925013 203.14792 20.815638 202.3823L20.815638 201.2573Q22.581263 202.05417 23.831263 202.36667Q25.081263 202.66354 26.471888 202.66354Q27.440638 202.66354 28.456263 202.49167Q29.456263 202.30417 30.362513 201.99167Q30.956263 201.78854 32.08126 201.27292ZM29.550013 200.02292L20.956263 200.02292L20.956263 197.41354L26.815638 195.86667L20.956263 194.3198L20.956263 191.72604L29.550013 191.72604L29.550013 193.33542L22.784388 193.33542L29.550013 195.03854L29.550013 196.71042L22.784388 198.39792L29.550013 198.39792L29.550013 200.02292ZM29.550013 189.99167L20.956263 189.99167L20.956263 187.21042Q20.956263 185.6323 21.081263 185.14792Q21.284388 184.41354 21.940638 183.91354Q22.581263 183.41354 23.596888 183.41354Q24.393763 183.41354 24.940638 183.71042Q25.471888 183.99167 25.784388 184.42917Q26.081263 184.86667 26.190638 185.33542Q26.315638 185.9448 26.315638 187.1323L26.315638 188.2573L29.550013 188.2573L29.550013 189.99167ZM22.409388 188.2573L24.846888 188.2573L24.846888 187.30417Q24.846888 186.28854 24.721888 185.9448Q24.581263 185.58542 24.300013 185.39792Q24.003138 185.1948 23.628138 185.1948Q23.159388 185.1948 22.862513 185.47604Q22.550013 185.7573 22.471888 186.17917Q22.409388 186.47604 22.409388 187.41354L22.409388 188.2573ZM25.221888 180.77292L24.956263 182.27292Q24.050013 182.02292 23.628138 181.41354Q23.190638 180.78854 23.190638 179.5698Q23.190638 178.47604 23.456263 177.9448Q23.706263 177.39792 24.112513 177.17917Q24.503138 176.96042 25.581263 176.96042L27.503138 176.97604Q28.331263 176.97604 28.721888 176.89792Q29.096888 176.8198 29.550013 176.60104L29.550013 178.22604Q29.378138 178.28854 29.065638 178.3823Q28.909388 178.42917 28.862513 178.4448Q29.284388 178.86667 29.487513 179.35104Q29.690638 179.8198 29.690638 180.36667Q29.690638 181.33542 29.175013 181.89792Q28.643763 182.4448 27.846888 182.4448Q27.315638 182.4448 26.909388 182.1948Q26.503138 181.92917 26.284388 181.47604Q26.050013 181.02292 25.893763 180.16354Q25.675013 179.02292 25.487513 178.5698L25.331263 178.5698Q24.846888 178.5698 24.643763 178.80417Q24.440638 179.03854 24.440638 179.6948Q24.440638 180.1323 24.612513 180.3823Q24.784388 180.61667 25.221888 180.77292ZM26.565638 178.5698Q26.659388 178.8823 26.815638 179.5698Q26.956263 180.2573 27.096888 180.47604Q27.331263 180.78854 27.675013 180.78854Q28.018763 180.78854 28.284388 180.53854Q28.534388 180.27292 28.534388 179.8823Q28.534388 179.42917 28.237513 179.02292Q28.018763 178.72604 27.690638 178.6323Q27.487513 178.5698 26.893763 178.5698L26.565638 178.5698ZM32.08126 175.46042Q31.034388 174.97604 30.471888 174.77292Q29.925013 174.5698 29.206263 174.41354Q28.471888 174.24167 27.815638 174.16354Q27.159388 174.0698 26.471888 174.0698Q25.081263 174.0698 23.831263 174.36667Q22.581263 174.66354 20.815638 175.47604L20.815638 174.35104Q22.065638 173.47604 23.487513 172.99167Q24.893763 172.49167 26.346888 172.49167Q27.581263 172.49167 28.971888 172.8823Q30.550013 173.3198 32.08126 174.3198L32.08126 175.46042Z" fill-rule="nonzero"/><path fill="#000000" d="M65.05 300.21564Q65.05 298.6844 65.3625 297.7625Q65.675 296.825 66.28438 296.325Q66.90938 295.825 67.84688 295.825Q68.53438 295.825 69.05 296.10626Q69.58125 296.3875 69.925 296.91876Q70.26875 297.4344 70.45625 298.1844Q70.64375 298.9344 70.64375 300.21564Q70.64375 301.73126 70.33125 302.65314Q70.03438 303.575 69.40938 304.09064Q68.8 304.59064 67.84688 304.59064Q66.6125 304.59064 65.89375 303.7Q65.05 302.6375 65.05 300.21564ZM66.12813 300.21564Q66.12813 302.325 66.62813 303.02814Q67.12813 303.73126 67.84688 303.73126Q68.58125 303.73126 69.06563 303.02814Q69.56563 302.325 69.56563 300.21564Q69.56563 298.09064 69.06563 297.40314Q68.58125 296.7 67.83125 296.7Q67.1125 296.7 66.675 297.3094Q66.12813 298.09064 66.12813 300.21564Z" fill-rule="nonzero"/><path fill="#000000" d="M62.01875 262.01666L60.971874 262.01666L60.971874 255.29791Q60.58125 255.65729 59.95625 256.0323Q59.346874 256.39166 58.8625 256.56354L58.8625 255.54791Q59.7375 255.12604 60.39375 254.54791Q61.065624 253.95416 61.346874 253.39166L62.01875 253.39166L62.01875 262.01666ZM65.05 257.7823Q65.05 256.25104 65.3625 255.32916Q65.675 254.39166 66.28438 253.89166Q66.90938 253.39166 67.84688 253.39166Q68.53438 253.39166 69.05 253.67291Q69.58125 253.95416 69.925 254.48541Q70.26875 255.00104 70.45625 255.75104Q70.64375 256.50104 70.64375 257.7823Q70.64375 259.2979 70.33125 260.2198Q70.03438 261.14166 69.40938 261.6573Q68.8 262.1573 67.84688 262.1573Q66.6125 262.1573 65.89375 261.26666Q65.05 260.20416 65.05 257.7823ZM66.12813 257.7823Q66.12813 259.89166 66.62813 260.5948Q67.12813 261.2979 67.84688 261.2979Q68.58125 261.2979 69.06563 260.5948Q69.56563 259.89166 69.56563 257.7823Q69.56563 255.65729 69.06563 254.96979Q68.58125 254.26666 67.83125 254.26666Q67.1125 254.26666 66.675 254.87604Q66.12813 255.65729 66.12813 257.7823Z" fill-rule="nonzero"/><path fill="#000000" d="M63.596874 218.5677L63.596874 219.58333L57.909374 219.58333Q57.909374 219.20833 58.034374 218.84895Q58.253124 218.27083 58.721874 217.70833Q59.20625 217.14583 60.1125 216.41145Q61.51875 215.2552 62.003124 214.58333Q62.503124 213.91145 62.503124 213.3177Q62.503124 212.6927 62.05 212.27083Q61.596874 211.83333 60.878124 211.83333Q60.1125 211.83333 59.659374 212.28645Q59.20625 212.73958 59.190624 213.55208L58.1125 213.4427Q58.221874 212.22395 58.940624 211.59895Q59.675 210.95833 60.909374 210.95833Q62.14375 210.95833 62.8625 211.64583Q63.58125 212.33333 63.58125 213.34895Q63.58125 213.86458 63.3625 214.36458Q63.159374 214.84895 62.659374 215.41145Q62.175 215.95833 61.05 216.91145Q60.096874 217.70833 59.815624 218.0052Q59.55 218.28645 59.378124 218.5677L63.596874 218.5677ZM65.05 215.34895Q65.05 213.8177 65.3625 212.89583Q65.675 211.95833 66.28438 211.45833Q66.90938 210.95833 67.84688 210.95833Q68.53438 210.95833 69.05 211.23958Q69.58125 211.52083 69.925 212.05208Q70.26875 212.5677 70.45625 213.3177Q70.64375 214.0677 70.64375 215.34895Q70.64375 216.86458 70.33125 217.78645Q70.03438 218.70833 69.40938 219.22395Q68.8 219.72395 67.84688 219.72395Q66.6125 219.72395 65.89375 218.83333Q65.05 217.77083 65.05 215.34895ZM66.12813 215.34895Q66.12813 217.45833 66.62813 218.16145Q67.12813 218.86458 67.84688 218.86458Q68.58125 218.86458 69.06563 218.16145Q69.56563 217.45833 69.56563 215.34895Q69.56563 213.22395 69.06563 212.53645Q68.58125 211.83333 67.83125 211.83333Q67.1125 211.83333 66.675 212.4427Q66.12813 213.22395 66.12813 215.34895Z" fill-rule="nonzero"/><path fill="#000000" d="M58.05 174.88437L59.1125 174.74374Q59.284374 175.63437 59.721874 176.04062Q60.159374 176.43124 60.784374 176.43124Q61.534374 176.43124 62.05 175.91562Q62.565624 175.4 62.565624 174.63437Q62.565624 173.91562 62.08125 173.44687Q61.6125 172.9625 60.878124 172.9625Q60.58125 172.9625 60.128124 173.0875L60.253124 172.15Q60.3625 172.16562 60.425 172.16562Q61.096874 172.16562 61.628124 171.82187Q62.175 171.4625 62.175 170.72812Q62.175 170.15 61.784374 169.775Q61.39375 169.38437 60.76875 169.38437Q60.159374 169.38437 59.7375 169.775Q59.33125 170.16562 59.221874 170.93124L58.159374 170.74374Q58.346874 169.69687 59.034374 169.11874Q59.721874 168.525 60.7375 168.525Q61.440624 168.525 62.034374 168.8375Q62.628124 169.13437 62.940624 169.65Q63.253124 170.16562 63.253124 170.75937Q63.253124 171.30624 62.95625 171.775Q62.659374 172.22812 62.08125 172.49374Q62.83125 172.66562 63.253124 173.22812Q63.675 173.775 63.675 174.61874Q63.675 175.74374 62.846874 176.525Q62.034374 177.30624 60.784374 177.30624Q59.659374 177.30624 58.909374 176.63437Q58.159374 175.94687 58.05 174.88437ZM65.05 172.91562Q65.05 171.38437 65.3625 170.4625Q65.675 169.525 66.28438 169.025Q66.90938 168.525 67.84688 168.525Q68.53438 168.525 69.05 168.80624Q69.58125 169.0875 69.925 169.61874Q70.26875 170.13437 70.45625 170.88437Q70.64375 171.63437 70.64375 172.91562Q70.64375 174.43124 70.33125 175.35312Q70.03438 176.275 69.40938 176.79062Q68.8 177.29062 67.84688 177.29062Q66.6125 177.29062 65.89375 176.4Q65.05 175.3375 65.05 172.91562ZM66.12813 172.91562Q66.12813 175.025 66.62813 175.72812Q67.12813 176.43124 67.84688 176.43124Q68.58125 176.43124 69.06563 175.72812Q69.56563 175.025 69.56563 172.91562Q69.56563 170.79062 69.06563 170.10312Q68.58125 169.4 67.83125 169.4Q67.1125 169.4 66.675 170.00937Q66.12813 170.79062 66.12813 172.91562Z" fill-rule="nonzero"/><path fill="#000000" d="M61.425 134.71666L61.425 132.65416L57.70625 132.65416L57.70625 131.68541L61.628124 126.12291L62.4875 126.12291L62.4875 131.68541L63.64375 131.68541L63.64375 132.65416L62.4875 132.65416L62.4875 134.71666L61.425 134.71666ZM61.425 131.68541L61.425 127.826035L58.7375 131.68541L61.425 131.68541ZM65.05 130.48228Q65.05 128.95103 65.3625 128.02916Q65.675 127.09166 66.28438 126.59166Q66.90938 126.09166 67.84688 126.09166Q68.53438 126.09166 69.05 126.37291Q69.58125 126.65416 69.925 127.18541Q70.26875 127.701035 70.45625 128.45103Q70.64375 129.20103 70.64375 130.48228Q70.64375 131.99791 70.33125 132.91978Q70.03438 133.84166 69.40938 134.35728Q68.8 134.85728 67.84688 134.85728Q66.6125 134.85728 65.89375 133.96666Q65.05 132.90416 65.05 130.48228ZM66.12813 130.48228Q66.12813 132.59166 66.62813 133.29478Q67.12813 133.99791 67.84688 133.99791Q68.58125 133.99791 69.06563 133.29478Q69.56563 132.59166 69.56563 130.48228Q69.56563 128.35728 69.06563 127.669785Q68.58125 126.96666 67.83125 126.96666Q67.1125 126.96666 66.675 127.576035Q66.12813 128.35728 66.12813 130.48228Z" fill-rule="nonzero"/><path fill="#000000" d="M58.05 90.03333L59.159374 89.93958Q59.284374 90.75208 59.721874 91.15833Q60.175 91.56458 60.815624 91.56458Q61.565624 91.56458 62.096874 90.98646Q62.628124 90.40833 62.628124 89.47083Q62.628124 88.56458 62.1125 88.04896Q61.6125 87.51771 60.784374 87.51771Q60.284374 87.51771 59.8625 87.75208Q59.45625 87.98646 59.221874 88.34583L58.2375 88.22083L59.065624 83.81458L63.346874 83.81458L63.346874 84.81458L59.909374 84.81458L59.45625 87.12708Q60.221874 86.58021 61.065624 86.58021Q62.190624 86.58021 62.95625 87.36146Q63.7375 88.14271 63.7375 89.37708Q63.7375 90.53333 63.065624 91.39271Q62.2375 92.42396 60.815624 92.42396Q59.64375 92.42396 58.89375 91.76771Q58.159374 91.11146 58.05 90.03333ZM65.05 88.04896Q65.05 86.51771 65.3625 85.59583Q65.675 84.65833 66.28438 84.15833Q66.90938 83.65833 67.84688 83.65833Q68.53438 83.65833 69.05 83.93958Q69.58125 84.22083 69.925 84.75208Q70.26875 85.26771 70.45625 86.01771Q70.64375 86.76771 70.64375 88.04896Q70.64375 89.56458 70.33125 90.48646Q70.03438 91.40833 69.40938 91.92396Q68.8 92.42396 67.84688 92.42396Q66.6125 92.42396 65.89375 91.53333Q65.05 90.47083 65.05 88.04896ZM66.12813 88.04896Q66.12813 90.15833 66.62813 90.86146Q67.12813 91.56458 67.84688 91.56458Q68.58125 91.56458 69.06563 90.86146Q69.56563 90.15833 69.56563 88.04896Q69.56563 85.92396 69.06563 85.23646Q68.58125 84.53333 67.83125 84.53333Q67.1125 84.53333 66.675 85.14271Q66.12813 85.92396 66.12813 88.04896Z" fill-rule="nonzero"/><path fill="#000000" d="M66.05 313.21564Q66.05 311.6844 66.3625 310.7625Q66.675 309.825 67.28438 309.325Q67.90938 308.825 68.84688 308.825Q69.53438 308.825 70.05 309.10626Q70.58125 309.3875 70.925 309.91876Q71.26875 310.4344 71.45625 311.1844Q71.64375 311.9344 71.64375 313.21564Q71.64375 314.73126 71.33125 315.65314Q71.03438 316.575 70.40938 317.09064Q69.8 317.59064 68.84688 317.59064Q67.6125 317.59064 66.89375 316.7Q66.05 315.6375 66.05 313.21564ZM67.12813 313.21564Q67.12813 315.325 67.62813 316.02814Q68.12813 316.73126 68.84688 316.73126Q69.58125 316.73126 70.06563 316.02814Q70.56563 315.325 70.56563 313.21564Q70.56563 311.09064 70.06563 310.40314Q69.58125 309.7 68.83125 309.7Q68.1125 309.7 67.675 310.3094Q67.12813 311.09064 67.12813 313.21564ZM73.64375 317.45L73.64375 316.2469L74.84688 316.2469L74.84688 317.45L73.64375 317.45ZM76.05 313.21564Q76.05 311.6844 76.3625 310.7625Q76.675 309.825 77.28438 309.325Q77.90938 308.825 78.84688 308.825Q79.53438 308.825 80.05 309.10626Q80.58125 309.3875 80.925 309.91876Q81.26875 310.4344 81.45625 311.1844Q81.64375 311.9344 81.64375 313.21564Q81.64375 314.73126 81.33125 315.65314Q81.03438 316.575 80.40938 317.09064Q79.8 317.59064 78.84688 317.59064Q77.6125 317.59064 76.89375 316.7Q76.05 315.6375 76.05 313.21564ZM77.12813 313.21564Q77.12813 315.325 77.62813 316.02814Q78.12813 316.73126 78.84688 316.73126Q79.58125 316.73126 80.06563 316.02814Q80.56563 315.325 80.56563 313.21564Q80.56563 311.09064 80.06563 310.40314Q79.58125 309.7 78.83125 309.7Q78.1125 309.7 77.675 310.3094Q77.12813 311.09064 77.12813 313.21564ZM83.05 313.21564Q83.05 311.6844 83.3625 310.7625Q83.675 309.825 84.28438 309.325Q84.90938 308.825 85.84688 308.825Q86.53438 308.825 87.05 309.10626Q87.58125 309.3875 87.925 309.91876Q88.26875 310.4344 88.45625 311.1844Q88.64375 311.9344 88.64375 313.21564Q88.64375 314.73126 88.33125 315.65314Q88.03438 316.575 87.40938 317.09064Q86.8 317.59064 85.84688 317.59064Q84.6125 317.59064 83.89375 316.7Q83.05 315.6375 83.05 313.21564ZM84.12813 313.21564Q84.12813 315.325 84.62813 316.02814Q85.12813 316.73126 85.84688 316.73126Q86.58125 316.73126 87.06563 316.02814Q87.56563 315.325 87.56563 313.21564Q87.56563 311.09064 87.06563 310.40314Q86.58125 309.7 85.83125 309.7Q85.1125 309.7 84.675 310.3094Q84.12813 311.09064 84.12813 313.21564Z" fill-rule="nonzero"/><path fill="#000000" d="M192.025 313.21564Q192.025 311.6844 192.3375 310.7625Q192.65 309.825 193.25937 309.325Q193.88437 308.825 194.82187 308.825Q195.50937 308.825 196.025 309.10626Q196.55624 309.3875 196.9 309.91876Q197.24374 310.4344 197.43124 311.1844Q197.61874 311.9344 197.61874 313.21564Q197.61874 314.73126 197.30624 315.65314Q197.00937 316.575 196.38437 317.09064Q195.775 317.59064 194.82187 317.59064Q193.5875 317.59064 192.86874 316.7Q192.025 315.6375 192.025 313.21564ZM193.10312 313.21564Q193.10312 315.325 193.60312 316.02814Q194.10312 316.73126 194.82187 316.73126Q195.55624 316.73126 196.04062 316.02814Q196.54062 315.325 196.54062 313.21564Q196.54062 311.09064 196.04062 310.40314Q195.55624 309.7 194.80624 309.7Q194.0875 309.7 193.65 310.3094Q193.10312 311.09064 193.10312 313.21564ZM199.61874 317.45L199.61874 316.2469L200.82187 316.2469L200.82187 317.45L199.61874 317.45ZM207.57187 316.4344L207.57187 317.45L201.88437 317.45Q201.88437 317.075 202.00937 316.71564Q202.22812 316.1375 202.69687 315.575Q203.18124 315.0125 204.0875 314.27814Q205.49374 313.1219 205.97812 312.45Q206.47812 311.77814 206.47812 311.1844Q206.47812 310.5594 206.025 310.1375Q205.57187 309.7 204.85312 309.7Q204.0875 309.7 203.63437 310.15314Q203.18124 310.60626 203.16562 311.41876L202.0875 311.3094Q202.19687 310.09064 202.91562 309.46564Q203.65 308.825 204.88437 308.825Q206.11874 308.825 206.8375 309.5125Q207.55624 310.2 207.55624 311.21564Q207.55624 311.73126 207.3375 312.23126Q207.13437 312.71564 206.63437 313.27814Q206.15 313.825 205.025 314.77814Q204.07187 315.575 203.79062 315.8719Q203.525 316.15314 203.35312 316.4344L207.57187 316.4344ZM209.025 315.2L210.13437 315.10626Q210.25937 315.91876 210.69687 316.325Q211.15 316.73126 211.79062 316.73126Q212.54062 316.73126 213.07187 316.15314Q213.60312 315.575 213.60312 314.6375Q213.60312 313.73126 213.0875 313.21564Q212.5875 312.6844 211.75937 312.6844Q211.25937 312.6844 210.8375 312.91876Q210.43124 313.15314 210.19687 313.5125L209.2125 313.3875L210.04062 308.98126L214.32187 308.98126L214.32187 309.98126L210.88437 309.98126L210.43124 312.29376Q211.19687 311.7469 212.04062 311.7469Q213.16562 311.7469 213.93124 312.52814Q214.7125 313.3094 214.7125 314.54376Q214.7125 315.7 214.04062 316.5594Q213.2125 317.59064 211.79062 317.59064Q210.61874 317.59064 209.86874 316.9344Q209.13437 316.27814 209.025 315.2Z" fill-rule="nonzero"/><path fill="#000000" d="M318.0 313.21564Q318.0 311.6844 318.3125 310.7625Q318.625 309.825 319.23438 309.325Q319.85938 308.825 320.79688 308.825Q321.48438 308.825 322.0 309.10626Q322.53125 309.3875 322.875 309.91876Q323.21875 310.4344 323.40625 311.1844Q323.59375 311.9344 323.59375 313.21564Q323.59375 314.73126 323.28125 315.65314Q322.98438 316.575 322.35938 317.09064Q321.75 317.59064 320.79688 317.59064Q319.5625 317.59064 318.84375 316.7Q318.0 315.6375 318.0 313.21564ZM319.07812 313.21564Q319.07812 315.325 319.57812 316.02814Q320.07812 316.73126 320.79688 316.73126Q321.53125 316.73126 322.01562 316.02814Q322.51562 315.325 322.51562 313.21564Q322.51562 311.09064 322.01562 310.40314Q321.53125 309.7 320.78125 309.7Q320.0625 309.7 319.625 310.3094Q319.07812 311.09064 319.07812 313.21564ZM325.59375 317.45L325.59375 316.2469L326.79688 316.2469L326.79688 317.45L325.59375 317.45ZM328.0 315.2L329.10938 315.10626Q329.23438 315.91876 329.67188 316.325Q330.125 316.73126 330.76562 316.73126Q331.51562 316.73126 332.04688 316.15314Q332.57812 315.575 332.57812 314.6375Q332.57812 313.73126 332.0625 313.21564Q331.5625 312.6844 330.73438 312.6844Q330.23438 312.6844 329.8125 312.91876Q329.40625 313.15314 329.17188 313.5125L328.1875 313.3875L329.01562 308.98126L333.29688 308.98126L333.29688 309.98126L329.85938 309.98126L329.40625 312.29376Q330.17188 311.7469 331.01562 311.7469Q332.14062 311.7469 332.90625 312.52814Q333.6875 313.3094 333.6875 314.54376Q333.6875 315.7 333.01562 316.5594Q332.1875 317.59064 330.76562 317.59064Q329.59375 317.59064 328.84375 316.9344Q328.10938 316.27814 328.0 315.2ZM335.0 313.21564Q335.0 311.6844 335.3125 310.7625Q335.625 309.825 336.23438 309.325Q336.85938 308.825 337.79688 308.825Q338.48438 308.825 339.0 309.10626Q339.53125 309.3875 339.875 309.91876Q340.21875 310.4344 340.40625 311.1844Q340.59375 311.9344 340.59375 313.21564Q340.59375 314.73126 340.28125 315.65314Q339.98438 316.575 339.35938 317.09064Q338.75 317.59064 337.79688 317.59064Q336.5625 317.59064 335.84375 316.7Q335.0 315.6375 335.0 313.21564ZM336.07812 313.21564Q336.07812 315.325 336.57812 316.02814Q337.07812 316.73126 337.79688 316.73126Q338.53125 316.73126 339.01562 316.02814Q339.51562 315.325 339.51562 313.21564Q339.51562 311.09064 339.01562 310.40314Q338.53125 309.7 337.78125 309.7Q337.0625 309.7 336.625 310.3094Q336.07812 311.09064 336.07812 313.21564Z" fill-rule="nonzero"/><path fill="#000000" d="M443.975 313.21564Q443.975 311.6844 444.2875 310.7625Q444.6 309.825 445.20938 309.325Q445.83438 308.825 446.77188 308.825Q447.45938 308.825 447.975 309.10626Q448.50626 309.3875 448.85 309.91876Q449.19376 310.4344 449.38126 311.1844Q449.56876 311.9344 449.56876 313.21564Q449.56876 314.73126 449.25626 315.65314Q448.95938 316.575 448.33438 317.09064Q447.725 317.59064 446.77188 317.59064Q445.5375 317.59064 444.81876 316.7Q443.975 315.6375 443.975 313.21564ZM445.05313 313.21564Q445.05313 315.325 445.55313 316.02814Q446.05313 316.73126 446.77188 316.73126Q447.50626 316.73126 447.99063 316.02814Q448.49063 315.325 448.49063 313.21564Q448.49063 311.09064 447.99063 310.40314Q447.50626 309.7 446.75626 309.7Q446.0375 309.7 445.6 310.3094Q445.05313 311.09064 445.05313 313.21564ZM451.56876 317.45L451.56876 316.2469L452.77188 316.2469L452.77188 317.45L451.56876 317.45ZM454.0375 309.98126L454.0375 308.96564L459.6 308.96564L459.6 309.79376Q458.7875 310.66876 457.975 312.1219Q457.17813 313.5594 456.74063 315.09064Q456.4125 316.16876 456.33438 317.45L455.24063 317.45Q455.25626 316.4344 455.63126 314.9969Q456.02188 313.5594 456.725 312.23126Q457.44376 310.90314 458.25626 309.98126L454.0375 309.98126ZM460.975 315.2L462.08438 315.10626Q462.20938 315.91876 462.64688 316.325Q463.1 316.73126 463.74063 316.73126Q464.49063 316.73126 465.02188 316.15314Q465.55313 315.575 465.55313 314.6375Q465.55313 313.73126 465.0375 313.21564Q464.5375 312.6844 463.70938 312.6844Q463.20938 312.6844 462.7875 312.91876Q462.38126 313.15314 462.14688 313.5125L461.1625 313.3875L461.99063 308.98126L466.27188 308.98126L466.27188 309.98126L462.83438 309.98126L462.38126 312.29376Q463.14688 311.7469 463.99063 311.7469Q465.11563 311.7469 465.88126 312.52814Q466.6625 313.3094 466.6625 314.54376Q466.6625 315.7 465.99063 316.5594Q465.1625 317.59064 463.74063 317.59064Q462.56876 317.59064 461.81876 316.9344Q461.08438 316.27814 460.975 315.2Z" fill-rule="nonzero"/><path fill="#000000" d="M573.91876 317.45L572.8719 317.45L572.8719 310.73126Q572.48126 311.09064 571.85626 311.46564Q571.2469 311.825 570.7625 311.9969L570.7625 310.98126Q571.6375 310.5594 572.29376 309.98126Q572.96564 309.3875 573.2469 308.825L573.91876 308.825L573.91876 317.45ZM577.54376 317.45L577.54376 316.2469L578.7469 316.2469L578.7469 317.45L577.54376 317.45ZM579.95 313.21564Q579.95 311.6844 580.2625 310.7625Q580.575 309.825 581.1844 309.325Q581.8094 308.825 582.7469 308.825Q583.4344 308.825 583.95 309.10626Q584.48126 309.3875 584.825 309.91876Q585.16876 310.4344 585.35626 311.1844Q585.54376 311.9344 585.54376 313.21564Q585.54376 314.73126 585.23126 315.65314Q584.9344 316.575 584.3094 317.09064Q583.7 317.59064 582.7469 317.59064Q581.5125 317.59064 580.79376 316.7Q579.95 315.6375 579.95 313.21564ZM581.02814 313.21564Q581.02814 315.325 581.52814 316.02814Q582.02814 316.73126 582.7469 316.73126Q583.48126 316.73126 583.96564 316.02814Q584.46564 315.325 584.46564 313.21564Q584.46564 311.09064 583.96564 310.40314Q583.48126 309.7 582.73126 309.7Q582.0125 309.7 581.575 310.3094Q581.02814 311.09064 581.02814 313.21564ZM586.95 313.21564Q586.95 311.6844 587.2625 310.7625Q587.575 309.825 588.1844 309.325Q588.8094 308.825 589.7469 308.825Q590.4344 308.825 590.95 309.10626Q591.48126 309.3875 591.825 309.91876Q592.16876 310.4344 592.35626 311.1844Q592.54376 311.9344 592.54376 313.21564Q592.54376 314.73126 592.23126 315.65314Q591.9344 316.575 591.3094 317.09064Q590.7 317.59064 589.7469 317.59064Q588.5125 317.59064 587.79376 316.7Q586.95 315.6375 586.95 313.21564ZM588.02814 313.21564Q588.02814 315.325 588.52814 316.02814Q589.02814 316.73126 589.7469 316.73126Q590.48126 316.73126 590.96564 316.02814Q591.46564 315.325 591.46564 313.21564Q591.46564 311.09064 590.96564 310.40314Q590.48126 309.7 589.73126 309.7Q589.0125 309.7 588.575 310.3094Q588.02814 311.09064 588.02814 313.21564Z" fill-rule="nonzero"/><path fill="#4285f4" d="M218.0 56.916668C218.0 56.364384 218.44771 55.916668 219.0 55.916668L229.0 55.916668C229.55229 55.916668 230.0 56.364384 230.0 56.916668L230.0 66.916664C230.0 67.46895 229.55229 67.916664 229.0 67.916664L219.0 67.916664C218.44771 67.916664 218.0 67.46895 218.0 66.916664Z" fill-rule="nonzero"/><path fill="#1a1a1a" d="M238.92188 65.916664L238.92188 57.322914L242.17188 57.322914Q243.01562 57.322914 243.46875 57.40104Q244.10938 57.510414 244.53125 57.80729Q244.96875 58.104164 245.21875 58.635414Q245.48438 59.166664 245.48438 59.80729Q245.48438 60.90104 244.78125 61.666664Q244.09375 62.416664 242.26562 62.416664L240.0625 62.416664L240.0625 65.916664L238.92188 65.916664ZM240.0625 61.416664L242.28125 61.416664Q243.39062 61.416664 243.84375 61.010414Q244.3125 60.58854 244.3125 59.83854Q244.3125 59.30729 244.03125 58.93229Q243.76562 58.541664 243.32812 58.416664Q243.03125 58.33854 242.26562 58.33854L240.0625 58.33854L240.0625 61.416664ZM246.40625 62.80729Q246.40625 61.072914 247.35938 60.24479Q248.15625 59.55729 249.3125 59.55729Q250.59375 59.55729 251.40625 60.40104Q252.23438 61.229164 252.23438 62.71354Q252.23438 63.916664 251.875 64.604164Q251.51562 65.291664 250.8125 65.68229Q250.125 66.05729 249.3125 66.05729Q248.01562 66.05729 247.20312 65.229164Q246.40625 64.385414 246.40625 62.80729ZM247.48438 62.80729Q247.48438 63.99479 248.0 64.58854Q248.53125 65.18229 249.3125 65.18229Q250.10938 65.18229 250.625 64.58854Q251.14062 63.99479 251.14062 62.77604Q251.14062 61.61979 250.60938 61.02604Q250.09375 60.43229 249.3125 60.43229Q248.53125 60.43229 248.0 61.02604Q247.48438 61.604164 247.48438 62.80729ZM253.375 64.05729L254.40625 63.90104Q254.5 64.52604 254.89062 64.854164Q255.29688 65.18229 256.03125 65.18229Q256.75 65.18229 257.09375 64.90104Q257.45312 64.604164 257.45312 64.197914Q257.45312 63.83854 257.14062 63.635414Q256.92188 63.49479 256.0625 63.27604Q254.90625 62.979164 254.45312 62.77604Q254.01562 62.55729 253.78125 62.18229Q253.54688 61.80729 253.54688 61.33854Q253.54688 60.93229 253.73438 60.572914Q253.92188 60.21354 254.25 59.979164Q254.5 59.80729 254.92188 59.68229Q255.34375 59.55729 255.84375 59.55729Q256.5625 59.55729 257.10938 59.77604Q257.67188 59.979164 257.9375 60.33854Q258.20312 60.697914 258.29688 61.291664L257.26562 61.43229Q257.20312 60.96354 256.85938 60.697914Q256.53125 60.416664 255.90625 60.416664Q255.1875 60.416664 254.875 60.666664Q254.5625 60.90104 254.5625 61.229164Q254.5625 61.43229 254.6875 61.58854Q254.82812 61.760414 255.09375 61.86979Q255.25 61.93229 256.03125 62.135414Q257.15625 62.447914 257.59375 62.635414Q258.03125 62.822914 258.28125 63.18229Q258.53125 63.541664 258.53125 64.08854Q258.53125 64.61979 258.21875 65.08854Q257.92188 65.541664 257.34375 65.80729Q256.76562 66.05729 256.03125 66.05729Q254.8125 66.05729 254.17188 65.55729Q253.54688 65.041664 253.375 64.05729ZM263.09375 64.979164L263.25 65.90104Q262.79688 65.99479 262.45312 65.99479Q261.875 65.99479 261.5625 65.822914Q261.25 65.635414 261.10938 65.33854Q260.98438 65.041664 260.98438 64.08854L260.98438 60.510414L260.21875 60.510414L260.21875 59.697914L260.98438 59.697914L260.98438 58.15104L262.03125 57.52604L262.03125 59.697914L263.09375 59.697914L263.09375 60.510414L262.03125 60.510414L262.03125 64.15104Q262.03125 64.604164 262.07812 64.729164Q262.14062 64.854164 262.26562 64.93229Q262.39062 65.010414 262.625 65.010414Q262.8125 65.010414 263.09375 64.979164ZM263.375 63.33854L263.375 62.27604L266.625 62.27604L266.625 63.33854L263.375 63.33854ZM267.92188 65.916664L267.92188 57.322914L271.17188 57.322914Q272.01562 57.322914 272.46875 57.40104Q273.10938 57.510414 273.53125 57.80729Q273.96875 58.104164 274.21875 58.635414Q274.48438 59.166664 274.48438 59.80729Q274.48438 60.90104 273.78125 61.666664Q273.09375 62.416664 271.26562 62.416664L269.0625 62.416664L269.0625 65.916664L267.92188 65.916664ZM269.0625 61.416664L271.28125 61.416664Q272.39062 61.416664 272.84375 61.010414Q273.3125 60.58854 273.3125 59.83854Q273.3125 59.30729 273.03125 58.93229Q272.76562 58.541664 272.32812 58.416664Q272.03125 58.33854 271.26562 58.33854L269.0625 58.33854L269.0625 61.416664ZM280.04688 63.916664L281.14062 64.041664Q280.89062 64.99479 280.1875 65.52604Q279.48438 66.05729 278.40625 66.05729Q277.04688 66.05729 276.23438 65.21354Q275.4375 64.36979 275.4375 62.854164Q275.4375 61.291664 276.25 60.43229Q277.0625 59.55729 278.34375 59.55729Q279.59375 59.55729 280.375 60.40104Q281.17188 61.24479 281.17188 62.791664Q281.17188 62.885414 281.17188 63.072914L276.53125 63.072914Q276.59375 64.104164 277.10938 64.65104Q277.625 65.18229 278.40625 65.18229Q278.98438 65.18229 279.39062 64.885414Q279.8125 64.572914 280.04688 63.916664ZM276.59375 62.21354L280.0625 62.21354Q280.0 61.416664 279.67188 61.02604Q279.15625 60.416664 278.35938 60.416664Q277.625 60.416664 277.125 60.90104Q276.64062 61.385414 276.59375 62.21354ZM286.85938 65.15104Q286.26562 65.65104 285.71875 65.854164Q285.1875 66.05729 284.5625 66.05729Q283.53125 66.05729 282.98438 65.55729Q282.4375 65.05729 282.4375 64.27604Q282.4375 63.822914 282.64062 63.447914Q282.84375 63.05729 283.1875 62.83854Q283.53125 62.604164 283.95312 62.49479Q284.25 62.40104 284.89062 62.322914Q286.15625 62.18229 286.76562 61.96354Q286.76562 61.74479 286.76562 61.697914Q286.76562 61.041664 286.46875 60.77604Q286.0625 60.43229 285.26562 60.43229Q284.53125 60.43229 284.17188 60.697914Q283.8125 60.947914 283.64062 61.604164L282.60938 61.46354Q282.75 60.80729 283.07812 60.40104Q283.40625 59.99479 284.01562 59.77604Q284.625 59.55729 285.42188 59.55729Q286.21875 59.55729 286.71875 59.74479Q287.21875 59.93229 287.45312 60.21354Q287.6875 60.49479 287.78125 60.93229Q287.82812 61.197914 287.82812 61.90104L287.82812 63.30729Q287.82812 64.77604 287.89062 65.166664Q287.96875 65.55729 288.17188 65.916664L287.0625 65.916664Q286.90625 65.58854 286.85938 65.15104ZM286.76562 62.791664Q286.1875 63.02604 285.04688 63.197914Q284.39062 63.291664 284.125 63.416664Q283.85938 63.52604 283.70312 63.74479Q283.5625 63.96354 283.5625 64.24479Q283.5625 64.666664 283.875 64.947914Q284.20312 65.229164 284.8125 65.229164Q285.42188 65.229164 285.89062 64.96354Q286.375 64.697914 286.59375 64.229164Q286.76562 63.86979 286.76562 63.18229L286.76562 62.791664ZM289.79688 65.916664L289.79688 57.322914L290.85938 57.322914L290.85938 62.229164L293.34375 59.697914L294.71875 59.697914L292.32812 61.99479L294.95312 65.916664L293.65625 65.916664L291.59375 62.729164L290.85938 63.447914L290.85938 65.916664L289.79688 65.916664Z" fill-rule="nonzero"/><path fill="#ea4335" d="M311.0 56.916668C311.0 56.364384 311.44772 55.916668 312.0 55.916668L322.0 55.916668C322.55228 55.916668 323.0 56.364384 323.0 56.916668L323.0 66.916664C323.0 67.46895 322.55228 67.916664 322.0 67.916664L312.0 67.916664C311.44772 67.916664 311.0 67.46895 311.0 66.916664Z" fill-rule="nonzero"/><path fill="#1a1a1a" d="M331.92188 65.916664L331.92188 57.322914L335.17188 57.322914Q336.01562 57.322914 336.46875 57.40104Q337.10938 57.510414 337.53125 57.80729Q337.96875 58.104164 338.21875 58.635414Q338.48438 59.166664 338.48438 59.80729Q338.48438 60.90104 337.78125 61.666664Q337.09375 62.416664 335.26562 62.416664L333.0625 62.416664L333.0625 65.916664L331.92188 65.916664ZM333.0625 61.416664L335.28125 61.416664Q336.39062 61.416664 336.84375 61.010414Q337.3125 60.58854 337.3125 59.83854Q337.3125 59.30729 337.03125 58.93229Q336.76562 58.541664 336.32812 58.416664Q336.03125 58.33854 335.26562 58.33854L333.0625 58.33854L333.0625 61.416664ZM339.78125 65.916664L339.78125 59.697914L340.73438 59.697914L340.73438 60.635414Q341.09375 59.979164 341.39062 59.77604Q341.70312 59.55729 342.07812 59.55729Q342.60938 59.55729 343.15625 59.885414L342.79688 60.86979Q342.40625 60.635414 342.03125 60.635414Q341.67188 60.635414 341.39062 60.854164Q341.125 61.05729 341.01562 61.43229Q340.82812 61.99479 340.82812 62.65104L340.82812 65.916664L339.78125 65.916664ZM348.04688 63.916664L349.14062 64.041664Q348.89062 64.99479 348.1875 65.52604Q347.48438 66.05729 346.40625 66.05729Q345.04688 66.05729 344.23438 65.21354Q343.4375 64.36979 343.4375 62.854164Q343.4375 61.291664 344.25 60.43229Q345.0625 59.55729 346.34375 59.55729Q347.59375 59.55729 348.375 60.40104Q349.17188 61.24479 349.17188 62.791664Q349.17188 62.885414 349.17188 63.072914L344.53125 63.072914Q344.59375 64.104164 345.10938 64.65104Q345.625 65.18229 346.40625 65.18229Q346.98438 65.18229 347.39062 64.885414Q347.8125 64.572914 348.04688 63.916664ZM344.59375 62.21354L348.0625 62.21354Q348.0 61.416664 347.67188 61.02604Q347.15625 60.416664 346.35938 60.416664Q345.625 60.416664 345.125 60.90104Q344.64062 61.385414 344.59375 62.21354ZM350.375 63.33854L350.375 62.27604L353.625 62.27604L353.625 63.33854L350.375 63.33854ZM354.92188 65.916664L354.92188 57.322914L358.17188 57.322914Q359.01562 57.322914 359.46875 57.40104Q360.10938 57.510414 360.53125 57.80729Q360.96875 58.104164 361.21875 58.635414Q361.48438 59.166664 361.48438 59.80729Q361.48438 60.90104 360.78125 61.666664Q360.09375 62.416664 358.26562 62.416664L356.0625 62.416664L356.0625 65.916664L354.92188 65.916664ZM356.0625 61.416664L358.28125 61.416664Q359.39062 61.416664 359.84375 61.010414Q360.3125 60.58854 360.3125 59.83854Q360.3125 59.30729 360.03125 58.93229Q359.76562 58.541664 359.32812 58.416664Q359.03125 58.33854 358.26562 58.33854L356.0625 58.33854L356.0625 61.416664ZM367.04688 63.916664L368.14062 64.041664Q367.89062 64.99479 367.1875 65.52604Q366.48438 66.05729 365.40625 66.05729Q364.04688 66.05729 363.23438 65.21354Q362.4375 64.36979 362.4375 62.854164Q362.4375 61.291664 363.25 60.43229Q364.0625 59.55729 365.34375 59.55729Q366.59375 59.55729 367.375 60.40104Q368.17188 61.24479 368.17188 62.791664Q368.17188 62.885414 368.17188 63.072914L363.53125 63.072914Q363.59375 64.104164 364.10938 64.65104Q364.625 65.18229 365.40625 65.18229Q365.98438 65.18229 366.39062 64.885414Q366.8125 64.572914 367.04688 63.916664ZM363.59375 62.21354L367.0625 62.21354Q367.0 61.416664 366.67188 61.02604Q366.15625 60.416664 365.35938 60.416664Q364.625 60.416664 364.125 60.90104Q363.64062 61.385414 363.59375 62.21354ZM373.85938 65.15104Q373.26562 65.65104 372.71875 65.854164Q372.1875 66.05729 371.5625 66.05729Q370.53125 66.05729 369.98438 65.55729Q369.4375 65.05729 369.4375 64.27604Q369.4375 63.822914 369.64062 63.447914Q369.84375 63.05729 370.1875 62.83854Q370.53125 62.604164 370.95312 62.49479Q371.25 62.40104 371.89062 62.322914Q373.15625 62.18229 373.76562 61.96354Q373.76562 61.74479 373.76562 61.697914Q373.76562 61.041664 373.46875 60.77604Q373.0625 60.43229 372.26562 60.43229Q371.53125 60.43229 371.17188 60.697914Q370.8125 60.947914 370.64062 61.604164L369.60938 61.46354Q369.75 60.80729 370.07812 60.40104Q370.40625 59.99479 371.01562 59.77604Q371.625 59.55729 372.42188 59.55729Q373.21875 59.55729 373.71875 59.74479Q374.21875 59.93229 374.45312 60.21354Q374.6875 60.49479 374.78125 60.93229Q374.82812 61.197914 374.82812 61.90104L374.82812 63.30729Q374.82812 64.77604 374.89062 65.166664Q374.96875 65.55729 375.17188 65.916664L374.0625 65.916664Q373.90625 65.58854 373.85938 65.15104ZM373.76562 62.791664Q373.1875 63.02604 372.04688 63.197914Q371.39062 63.291664 371.125 63.416664Q370.85938 63.52604 370.70312 63.74479Q370.5625 63.96354 370.5625 64.24479Q370.5625 64.666664 370.875 64.947914Q371.20312 65.229164 371.8125 65.229164Q372.42188 65.229164 372.89062 64.96354Q373.375 64.697914 373.59375 64.229164Q373.76562 63.86979 373.76562 63.18229L373.76562 62.791664ZM376.79688 65.916664L376.79688 57.322914L377.85938 57.322914L377.85938 62.229164L380.34375 59.697914L381.71875 59.697914L379.32812 61.99479L381.95312 65.916664L380.65625 65.916664L378.59375 62.729164L377.85938 63.447914L377.85938 65.916664L376.79688 65.916664Z" fill-rule="nonzero"/><path fill="#000000" d="M241.21875 32.89375L244.03125 32.6125Q244.29688 34.034374 245.0625 34.70625Q245.84375 35.3625 247.15625 35.3625Q248.5625 35.3625 249.26562 34.76875Q249.96875 34.175 249.96875 33.39375Q249.96875 32.878124 249.67188 32.534374Q249.375 32.175 248.64062 31.909374Q248.125 31.721874 246.32812 31.284374Q244.0 30.70625 243.0625 29.8625Q241.73438 28.675 241.73438 26.9875Q241.73438 25.89375 242.35938 24.940624Q242.98438 23.9875 244.14062 23.4875Q245.3125 22.9875 246.96875 22.9875Q249.65625 22.9875 251.01562 24.175Q252.39062 25.346874 252.45312 27.33125L249.5625 27.45625Q249.375 26.346874 248.76562 25.8625Q248.15625 25.378124 246.9375 25.378124Q245.67188 25.378124 244.96875 25.89375Q244.5 26.2375 244.5 26.784374Q244.5 27.3 244.9375 27.659374Q245.48438 28.1125 247.59375 28.6125Q249.70312 29.1125 250.70312 29.64375Q251.71875 30.175 252.28125 31.096874Q252.85938 32.01875 252.85938 33.378124Q252.85938 34.6125 252.17188 35.690624Q251.5 36.753124 250.25 37.284374Q249.0 37.8 247.125 37.8Q244.42188 37.8 242.95312 36.55Q241.5 35.3 241.21875 32.89375ZM263.625 35.003124L263.625 37.55L254.0 37.55Q254.15625 36.096874 254.9375 34.815624Q255.71875 33.51875 258.01562 31.378124Q259.875 29.64375 260.29688 29.034374Q260.85938 28.190624 260.85938 27.346874Q260.85938 26.440624 260.35938 25.95625Q259.875 25.45625 259.01562 25.45625Q258.15625 25.45625 257.64062 25.971874Q257.14062 26.4875 257.0625 27.690624L254.32812 27.409374Q254.5625 25.14375 255.84375 24.159374Q257.14062 23.175 259.07812 23.175Q261.20312 23.175 262.40625 24.315624Q263.625 25.45625 263.625 27.159374Q263.625 28.128124 263.26562 29.003124Q262.92188 29.878124 262.17188 30.83125Q261.67188 31.471874 260.375 32.659374Q259.07812 33.846874 258.73438 34.2375Q258.39062 34.628124 258.17188 35.003124L263.625 35.003124ZM274.625 35.003124L274.625 37.55L265.0 37.55Q265.15625 36.096874 265.9375 34.815624Q266.71875 33.51875 269.01562 31.378124Q270.875 29.64375 271.29688 29.034374Q271.85938 28.190624 271.85938 27.346874Q271.85938 26.440624 271.35938 25.95625Q270.875 25.45625 270.01562 25.45625Q269.15625 25.45625 268.64062 25.971874Q268.14062 26.4875 268.0625 27.690624L265.32812 27.409374Q265.5625 25.14375 266.84375 24.159374Q268.14062 23.175 270.07812 23.175Q272.20312 23.175 273.40625 24.315624Q274.625 25.45625 274.625 27.159374Q274.625 28.128124 274.26562 29.003124Q273.92188 29.878124 273.17188 30.83125Q272.67188 31.471874 271.375 32.659374Q270.07812 33.846874 269.73438 34.2375Q269.39062 34.628124 269.17188 35.003124L274.625 35.003124ZM291.78125 37.55L287.60938 27.175L290.48438 27.175L292.4375 32.471874L293.01562 34.2375Q293.23438 33.565624 293.29688 33.346874Q293.42188 32.909374 293.57812 32.471874L295.5625 27.175L298.375 27.175L294.26562 37.55L291.78125 37.55ZM298.96875 34.596874L301.71875 34.175Q301.90625 34.971874 302.4375 35.39375Q302.96875 35.8 303.9375 35.8Q305.0 35.8 305.54688 35.409374Q305.90625 35.14375 305.90625 34.675Q305.90625 34.3625 305.70312 34.159374Q305.5 33.971874 304.79688 33.8Q301.46875 33.065624 300.57812 32.45625Q299.34375 31.628124 299.34375 30.128124Q299.34375 28.784374 300.40625 27.8625Q301.48438 26.940624 303.71875 26.940624Q305.84375 26.940624 306.875 27.64375Q307.92188 28.33125 308.3125 29.690624L305.71875 30.159374Q305.54688 29.565624 305.07812 29.2375Q304.625 28.909374 303.76562 28.909374Q302.6875 28.909374 302.21875 29.221874Q301.90625 29.440624 301.90625 29.76875Q301.90625 30.065624 302.17188 30.26875Q302.54688 30.55 304.73438 31.05Q306.92188 31.55 307.79688 32.26875Q308.65625 33.003124 308.65625 34.3Q308.65625 35.7375 307.46875 36.76875Q306.28125 37.784374 303.9375 37.784374Q301.82812 37.784374 300.57812 36.925Q299.34375 36.065624 298.96875 34.596874ZM320.17188 37.55L320.17188 25.659374L315.9375 25.659374L315.9375 23.2375L327.3125 23.2375L327.3125 25.659374L323.0625 25.659374L323.0625 37.55L320.17188 37.55ZM329.9375 25.76875L329.9375 23.2375L332.6875 23.2375L332.6875 25.76875L329.9375 25.76875ZM329.9375 37.55L329.9375 27.175L332.6875 27.175L332.6875 37.55L329.9375 37.55ZM334.73438 27.175L337.26562 27.175L337.26562 28.596874Q338.625 26.940624 340.5 26.940624Q341.48438 26.940624 342.21875 27.3625Q342.95312 27.76875 343.42188 28.596874Q344.10938 27.76875 344.89062 27.3625Q345.6875 26.940624 346.59375 26.940624Q347.73438 26.940624 348.51562 27.409374Q349.3125 27.878124 349.70312 28.76875Q349.98438 29.440624 349.98438 30.925L349.98438 37.55L347.23438 37.55L347.23438 31.628124Q347.23438 30.08125 346.95312 29.628124Q346.57812 29.05 345.78125 29.05Q345.20312 29.05 344.6875 29.409374Q344.1875 29.753124 343.96875 30.425Q343.75 31.096874 343.75 32.565624L343.75 37.55L341.0 37.55L341.0 31.8625Q341.0 30.346874 340.84375 29.909374Q340.70312 29.471874 340.39062 29.26875Q340.09375 29.05 339.5625 29.05Q338.9375 29.05 338.42188 29.39375Q337.92188 29.721874 337.6875 30.378124Q337.46875 31.01875 337.46875 32.503124L337.46875 37.55L334.73438 37.55L334.73438 27.175ZM357.9375 34.253124L360.67188 34.70625Q360.15625 36.20625 359.01562 37.003124Q357.875 37.784374 356.17188 37.784374Q353.45312 37.784374 352.15625 36.01875Q351.14062 34.596874 351.14062 32.440624Q351.14062 29.8625 352.48438 28.409374Q353.82812 26.940624 355.89062 26.940624Q358.20312 26.940624 359.53125 28.471874Q360.875 30.003124 360.82812 33.159374L353.95312 33.159374Q353.98438 34.378124 354.60938 35.065624Q355.25 35.7375 356.1875 35.7375Q356.84375 35.7375 357.28125 35.39375Q357.71875 35.034374 357.9375 34.253124ZM358.09375 31.471874Q358.0625 30.284374 357.46875 29.675Q356.89062 29.05 356.0625 29.05Q355.15625 29.05 354.57812 29.690624Q353.98438 30.346874 354.0 31.471874L358.09375 31.471874Z" fill-rule="nonzero"/></svg>