<svg version="1.1" viewBox="0.0 0.0 600.0 371.0" fill="none" stroke="none" stroke-linecap="square" stroke-miterlimit="10" width="600" height="371" xmlns:xlink="http://www.w3.org/1999/xlink" xmlns="http://www.w3.org/2000/svg"><path fill="#ffffff" d="M0 0L600.0 0L600.0 371.0L0 371.0L0 0Z" fill-rule="nonzero"/><path stroke="#333333" stroke-width="1.0" stroke-linecap="butt" d="M77.5 88.5L77.5 300.5" fill-rule="nonzero"/><path stroke="#cccccc" stroke-width="1.0" stroke-linecap="butt" d="M203.5 88.5L203.5 300.5" fill-rule="nonzero"/><path stroke="#cccccc" stroke-width="1.0" stroke-linecap="butt" d="M329.5 88.5L329.5 300.5" fill-rule="nonzero"/><path stroke="#cccccc" stroke-width="1.0" stroke-linecap="butt" d="M455.5 88.5L455.5 300.5" fill-rule="nonzero"/><path stroke="#cccccc" stroke-width="1.0" stroke-linecap="butt" d="M581.5 88.5L581.5 300.5" fill-rule="nonzero"/><path stroke="#cccccc" stroke-width="1.0" stroke-linecap="butt" d="M77.5 300.5L581.5 300.5" fill-rule="nonzero"/><path stroke="#cccccc" stroke-width="1.0" stroke-linecap="butt" d="M77.5 258.5L581.5 258.5" fill-rule="nonzero"/><path stroke="#cccccc" stroke-width="1.0" stroke-linecap="butt" d="M77.5 215.5L581.5 215.5" fill-rule="nonzero"/><path stroke="#cccccc" stroke-width="1.0" stroke-linecap="butt" d="M77.5 173.5L581.5 173.5" fill-rule="nonzero"/><path stroke="#cccccc" stroke-width="1.0" stroke-linecap="butt" d="M77.5 130.5L581.5 130.5" fill-rule="nonzero"/><path stroke="#333333" stroke-width="1.0" stroke-linecap="butt" d="M77.5 88.5L581.5 88.5" fill-rule="nonzero"/><clipPath id="id_0"><path d="M77.55 88.28333L581.45 88.28333L581.45 300.45L77.55 300.45L77.55 88.28333Z" clip-rule="nonzero"/></clipPath><path fill="#4285f4" fill-opacity="0.2" clip-path="url(#id_0)" d="M77.55 88.28333L78.0539 92.15349L78.5578 96.02411L79.31365 101.830894L80.447426 110.54305L82.14809 123.6157L84.69908 143.2345L88.5256 172.68535L93.564545 211.50931L98.6036 250.37994L103.64255 289.29724L108.68155 282.57666L113.72054 275.8285L118.7596 269.08328L123.7986 262.34232L128.83745 255.60136L133.87645 248.85828L138.91545 242.11392L143.95445 235.3683L148.99344 228.6214L154.03244 221.87323L159.07144 215.12378L164.11044 208.37349L169.14944 201.62149L174.18845 194.86823L179.22745 188.1137L184.26645 181.35788L189.30545 174.6008L194.34445 167.84244L199.38345 161.08281L204.42244 154.3219L209.46144 147.55972L214.50044 140.79628L219.53944 134.03113L224.57845 127.26527L229.61745 120.49787L234.65645 113.7292L239.69545 106.95926L244.73445 100.188L249.77345 93.415436L254.81244 88.28535L259.85144 88.2854L264.89044 88.2854L269.92944 88.2854L274.96844 88.2854L280.00745 88.28539L285.04645 88.28539L290.08545 88.28539L295.12445 88.28539L300.16345 88.28539L305.20245 88.28539L310.24146 88.28539L315.28046 88.285385L320.31946 88.285385L325.35846 88.285385L330.39746 88.285385L335.43643 88.285385L340.47543 88.285385L345.51443 88.285385L350.55344 88.285385L355.59244 88.285385L360.63144 88.28538L365.67044 88.28538L370.70944 88.28538L375.74844 88.28538L380.78745 88.28538L385.82645 88.28538L390.86545 88.28538L395.90445 88.28538L400.94345 88.28538L405.98245 88.28538L411.02145 88.28538L416.06046 88.28538L421.09946 88.28538L426.13846 88.28538L431.17746 88.28538L436.21643 88.28537L441.25543 88.28537L446.29443 88.28537L451.33344 88.28537L456.37244 88.28537L461.41144 88.28537L466.45044 88.28537L471.48944 88.28537L476.52844 88.28537L481.56744 88.28537L486.60645 88.28537L491.64545 88.28537L496.68445 88.28537L501.72345 88.28537L506.76245 88.28537L511.80145 88.28537L516.84045 88.28537L521.87946 88.28537L526.91846 88.28537L531.95746 88.28537L536.99646 88.28537L542.03546 88.28537L547.07446 88.28537L552.11346 88.28537L557.15247 88.28537L562.19147 88.28536L567.23047 88.28536L572.2695 88.28536L577.3085 88.28536L581.45 88.28536L581.45 88.28333L577.3085 88.28333L572.2695 88.28333L567.23047 88.28333L562.19147 88.28333L557.15247 88.28333L552.11346 88.28333L547.07446 88.28333L542.03546 88.28333L536.99646 88.28333L531.95746 88.28333L526.91846 88.28333L521.87946 88.28333L516.84045 88.28333L511.80145 88.28333L506.76245 88.28333L501.72345 88.28333L496.68445 88.28333L491.64545 88.28333L486.60645 88.28333L481.56744 88.28333L476.52844 88.28333L471.48944 88.28333L466.45044 88.28333L461.41144 88.28333L456.37244 88.28333L451.33344 88.28333L446.29443 88.28333L441.25543 88.28333L436.21643 88.28333L431.17746 88.28333L426.13846 88.28333L421.09946 88.28333L416.06046 88.28333L411.02145 88.28333L405.98245 88.28333L400.94345 88.28333L395.90445 88.28333L390.86545 88.28333L385.82645 88.28333L380.78745 88.28333L375.74844 88.28333L370.70944 88.28333L365.67044 88.28333L360.63144 88.28333L355.59244 88.28333L350.55344 88.28333L345.51443 88.28333L340.47543 88.28333L335.43643 88.28333L330.39746 88.28333L325.35846 88.28333L320.31946 88.28333L315.28046 88.28333L310.24146 88.28333L305.20245 88.28333L300.16345 88.28333L295.12445 88.28333L290.08545 88.28333L285.04645 88.28333L280.00745 88.28333L274.96844 88.28333L269.92944 88.28333L264.89044 88.28333L259.85144 88.28333L254.81244 88.28333L249.77345 88.28333L244.73445 88.28333L239.69545 88.28333L234.65645 88.28333L229.61745 88.28333L224.57845 88.28333L219.53944 88.28333L214.50044 88.28333L209.46144 88.28333L204.42244 88.28333L199.38345 88.28333L194.34445 88.28333L189.30545 88.28333L184.26645 88.28333L179.22745 88.28333L174.18845 88.28333L169.14944 88.28333L164.11044 88.28333L159.07144 88.28333L154.03244 88.28333L148.99344 88.28333L143.95445 88.28333L138.91545 88.28333L133.87645 88.28333L128.83745 88.28333L123.7986 88.28333L118.7596 88.28333L113.72054 88.28333L108.68155 88.28333L103.64255 88.28333L98.6036 88.28333L93.564545 88.28333L88.5256 88.28333L84.69908 88.28333L82.14809 88.28333L80.447426 88.28333L79.31365 88.28333L78.5578 88.28333L78.0539 88.28333L77.55 88.28333Z" fill-rule="nonzero"/><path fill="#ea4335" fill-opacity="0.3019608" clip-path="url(#id_0)" d="M77.55 88.28333L78.0539 92.15349L78.5578 96.02411L79.31365 101.830894L80.447426 110.54305L82.14809 123.6157L84.69908 143.2345L88.5256 172.68535L93.564545 211.50931L98.6036 250.37994L103.64255 289.29724L103.64255 88.28333L98.6036 88.28333L93.564545 88.28333L88.5256 88.28333L84.69908 88.28333L82.14809 88.28333L80.447426 88.28333L79.31365 88.28333L78.5578 88.28333L78.0539 88.28333L77.55 88.28333Z" fill-rule="nonzero"/><path stroke="#4285f4" stroke-width="2.0" stroke-linecap="butt" clip-path="url(#id_0)" d="M77.55 88.28333L78.0539 92.15349L78.5578 96.02411L79.31365 101.830894L80.447426 110.54305L82.14809 123.6157L84.69908 143.2345L88.5256 172.68535L93.564545 211.50931L98.6036 250.37994L103.64255 289.29724L108.68155 282.57666L113.72054 275.8285L118.7596 269.08328L123.7986 262.34232L128.83745 255.60136L133.87645 248.85828L138.91545 242.11392L143.95445 235.3683L148.99344 228.6214L154.03244 221.87323L159.07144 215.12378L164.11044 208.37349L169.14944 201.62149L174.18845 194.86823L179.22745 188.1137L184.26645 181.35788L189.30545 174.6008L194.34445 167.84244L199.38345 161.08281L204.42244 154.3219L209.46144 147.55972L214.50044 140.79628L219.53944 134.03113L224.57845 127.26527L229.61745 120.49787L234.65645 113.7292L239.69545 106.95926L244.73445 100.188L249.77345 93.415436L254.81244 88.28535L259.85144 88.2854L264.89044 88.2854L269.92944 88.2854L274.96844 88.2854L280.00745 88.28539L285.04645 88.28539L290.08545 88.28539L295.12445 88.28539L300.16345 88.28539L305.20245 88.28539L310.24146 88.28539L315.28046 88.285385L320.31946 88.285385L325.35846 88.285385L330.39746 88.285385L335.43643 88.285385L340.47543 88.285385L345.51443 88.285385L350.55344 88.285385L355.59244 88.285385L360.63144 88.28538L365.67044 88.28538L370.70944 88.28538L375.74844 88.28538L380.78745 88.28538L385.82645 88.28538L390.86545 88.28538L395.90445 88.28538L400.94345 88.28538L405.98245 88.28538L411.02145 88.28538L416.06046 88.28538L421.09946 88.28538L426.13846 88.28538L431.17746 88.28538L436.21643 88.28537L441.25543 88.28537L446.29443 88.28537L451.33344 88.28537L456.37244 88.28537L461.41144 88.28537L466.45044 88.28537L471.48944 88.28537L476.52844 88.28537L481.56744 88.28537L486.60645 88.28537L491.64545 88.28537L496.68445 88.28537L501.72345 88.28537L506.76245 88.28537L511.80145 88.28537L516.84045 88.28537L521.87946 88.28537L526.91846 88.28537L531.95746 88.28537L536.99646 88.28537L542.03546 88.28537L547.07446 88.28537L552.11346 88.28537L557.15247 88.28537L562.19147 88.28536L567.23047 88.28536L572.2695 88.28536L577.3085 88.28536L581.45 88.28536" fill-rule="nonzero"/><path stroke="#ea4335" stroke-width="2.0" stroke-linecap="butt" clip-path="url(#id_0)" d="M77.55 88.28333L78.0539 92.15349L78.5578 96.02411L79.31365 101.830894L80.447426 110.54305L82.14809 123.6157L84.69908 143.2345L88.5256 172.68535L93.564545 211.50931L98.6036 250.37994L103.64255 289.29724" fill-rule="nonzero"/><path fill="#000000" fill-opacity="0.0" clip-path="url(#id_0)" d="M80.55 88.28333C80.55 89.940186 79.206856 91.28333 77.55 91.28333C75.89314 91.28333 74.55 89.940186 74.55 88.28333C74.55 86.62648 75.89314 85.28333 77.55 85.28333C79.206856 85.28333 80.55 86.62648 80.55 88.28333Z" fill-rule="nonzero"/><path fill="#000000" fill-opacity="0.0" clip-path="url(#id_0)" d="M81.0539 92.15349C81.0539 93.81034 79.710754 95.15349 78.0539 95.15349C76.39705 95.15349 75.0539 93.81034 75.0539 92.15349C75.0539 90.496635 76.39705 89.15349 78.0539 89.15349C79.710754 89.15349 81.0539 90.496635 81.0539 92.15349Z" fill-rule="nonzero"/><path fill="#000000" fill-opacity="0.0" clip-path="url(#id_0)" d="M81.5578 96.02411C81.5578 97.68096 80.21465 99.02411 78.5578 99.02411C76.90095 99.02411 75.5578 97.68096 75.5578 96.02411C75.5578 94.367256 76.90095 93.02411 78.5578 93.02411C80.21465 93.02411 81.5578 94.367256 81.5578 96.02411Z" fill-rule="nonzero"/><path fill="#000000" fill-opacity="0.0" clip-path="url(#id_0)" d="M82.31365 101.830894C82.31365 103.48775 80.970505 104.830894 79.31365 104.830894C77.6568 104.830894 76.31365 103.48775 76.31365 101.830894C76.31365 100.17404 77.6568 98.830894 79.31365 98.830894C80.970505 98.830894 82.31365 100.17404 82.31365 101.830894Z" fill-rule="nonzero"/><path fill="#000000" fill-opacity="0.0" clip-path="url(#id_0)" d="M83.447426 110.54305C83.447426 112.199905 82.10428 113.54305 80.447426 113.54305C78.79057 113.54305 77.447426 112.199905 77.447426 110.54305C77.447426 108.8862 78.79057 107.54305 80.447426 107.54305C82.10428 107.54305 83.447426 108.8862 83.447426 110.54305Z" fill-rule="nonzero"/><path fill="#000000" fill-opacity="0.0" clip-path="url(#id_0)" d="M85.14809 123.6157C85.14809 125.27256 83.80494 126.6157 82.14809 126.6157C80.491234 126.6157 79.14809 125.27256 79.14809 123.6157C79.14809 121.95885 80.491234 120.6157 82.14809 120.6157C83.80494 120.6157 85.14809 121.95885 85.14809 123.6157Z" fill-rule="nonzero"/><path fill="#000000" fill-opacity="0.0" clip-path="url(#id_0)" d="M87.69908 143.2345C87.69908 144.89136 86.355934 146.2345 84.69908 146.2345C83.04223 146.2345 81.69908 144.89136 81.69908 143.2345C81.69908 141.57765 83.04223 140.2345 84.69908 140.2345C86.355934 140.2345 87.69908 141.57765 87.69908 143.2345Z" fill-rule="nonzero"/><path fill="#000000" fill-opacity="0.0" clip-path="url(#id_0)" d="M91.5256 172.68535C91.5256 174.34221 90.18245 175.68535 88.5256 175.68535C86.868744 175.68535 85.5256 174.34221 85.5256 172.68535C85.5256 171.0285 86.868744 169.68535 88.5256 169.68535C90.18245 169.68535 91.5256 171.0285 91.5256 172.68535Z" fill-rule="nonzero"/><path fill="#000000" fill-opacity="0.0" clip-path="url(#id_0)" d="M96.564545 211.50931C96.564545 213.16617 95.2214 214.50931 93.564545 214.50931C91.90769 214.50931 90.564545 213.16617 90.564545 211.50931C90.564545 209.85245 91.90769 208.50931 93.564545 208.50931C95.2214 208.50931 96.564545 209.85245 96.564545 211.50931Z" fill-rule="nonzero"/><path fill="#000000" fill-opacity="0.0" clip-path="url(#id_0)" d="M101.6036 250.37994C101.6036 252.03679 100.26045 253.37994 98.6036 253.37994C96.94674 253.37994 95.6036 252.03679 95.6036 250.37994C95.6036 248.72308 96.94674 247.37994 98.6036 247.37994C100.26045 247.37994 101.6036 248.72308 101.6036 250.37994Z" fill-rule="nonzero"/><path fill="#000000" fill-opacity="0.0" clip-path="url(#id_0)" d="M106.64255 289.29724C106.64255 290.9541 105.2994 292.29724 103.64255 292.29724C101.985695 292.29724 100.64255 290.9541 100.64255 289.29724C100.64255 287.64038 101.985695 286.29724 103.64255 286.29724C105.2994 286.29724 106.64255 287.64038 106.64255 289.29724Z" fill-rule="nonzero"/><path fill="#000000" fill-opacity="0.0" clip-path="url(#id_0)" d="M111.68155 282.57666C111.68155 284.23352 110.3384 285.57666 108.68155 285.57666C107.02469 285.57666 105.68155 284.23352 105.68155 282.57666C105.68155 280.9198 107.02469 279.57666 108.68155 279.57666C110.3384 279.57666 111.68155 280.9198 111.68155 282.57666Z" fill-rule="nonzero"/><path fill="#000000" fill-opacity="0.0" clip-path="url(#id_0)" d="M116.72054 275.8285C116.72054 277.48535 115.3774 278.8285 113.72054 278.8285C112.06369 278.8285 110.72054 277.48535 110.72054 275.8285C110.72054 274.17163 112.06369 272.8285 113.72054 272.8285C115.3774 272.8285 116.72054 274.17163 116.72054 275.8285Z" fill-rule="nonzero"/><path fill="#000000" fill-opacity="0.0" clip-path="url(#id_0)" d="M121.7596 269.08328C121.7596 270.74014 120.41645 272.08328 118.7596 272.08328C117.102745 272.08328 115.7596 270.74014 115.7596 269.08328C115.7596 267.42642 117.102745 266.08328 118.7596 266.08328C120.41645 266.08328 121.7596 267.42642 121.7596 269.08328Z" fill-rule="nonzero"/><path fill="#000000" fill-opacity="0.0" clip-path="url(#id_0)" d="M126.7986 262.34232C126.7986 263.99918 125.45545 265.34232 123.7986 265.34232C122.14175 265.34232 120.7986 263.99918 120.7986 262.34232C120.7986 260.68546 122.14175 259.34232 123.7986 259.34232C125.45545 259.34232 126.7986 260.68546 126.7986 262.34232Z" fill-rule="nonzero"/><path fill="#000000" fill-opacity="0.0" clip-path="url(#id_0)" d="M131.83745 255.60136C131.83745 257.2582 130.4943 258.60135 128.83745 258.60135C127.180595 258.60135 125.83745 257.2582 125.83745 255.60136C125.83745 253.9445 127.180595 252.60136 128.83745 252.60136C130.4943 252.60136 131.83745 253.9445 131.83745 255.60136Z" fill-rule="nonzero"/><path fill="#000000" fill-opacity="0.0" clip-path="url(#id_0)" d="M136.87645 248.85828C136.87645 250.51514 135.5333 251.85828 133.87645 251.85828C132.21959 251.85828 130.87645 250.51514 130.87645 248.85828C130.87645 247.20143 132.21959 245.85828 133.87645 245.85828C135.5333 245.85828 136.87645 247.20143 136.87645 248.85828Z" fill-rule="nonzero"/><path fill="#000000" fill-opacity="0.0" clip-path="url(#id_0)" d="M141.91545 242.11392C141.91545 243.77078 140.5723 245.11392 138.91545 245.11392C137.25859 245.11392 135.91545 243.77078 135.91545 242.11392C135.91545 240.45708 137.25859 239.11392 138.91545 239.11392C140.5723 239.11392 141.91545 240.45708 141.91545 242.11392Z" fill-rule="nonzero"/><path fill="#000000" fill-opacity="0.0" clip-path="url(#id_0)" d="M146.95445 235.3683C146.95445 237.02515 145.6113 238.3683 143.95445 238.3683C142.29759 238.3683 140.95445 237.02515 140.95445 235.3683C140.95445 233.71144 142.29759 232.3683 143.95445 232.3683C145.6113 232.3683 146.95445 233.71144 146.95445 235.3683Z" fill-rule="nonzero"/><path fill="#000000" fill-opacity="0.0" clip-path="url(#id_0)" d="M151.99344 228.6214C151.99344 230.27826 150.6503 231.6214 148.99344 231.6214C147.3366 231.6214 145.99344 230.27826 145.99344 228.6214C145.99344 226.96454 147.3366 225.6214 148.99344 225.6214C150.6503 225.6214 151.99344 226.96454 151.99344 228.6214Z" fill-rule="nonzero"/><path fill="#000000" fill-opacity="0.0" clip-path="url(#id_0)" d="M157.03244 221.87323C157.03244 223.53008 155.6893 224.87323 154.03244 224.87323C152.3756 224.87323 151.03244 223.53008 151.03244 221.87323C151.03244 220.21637 152.3756 218.87323 154.03244 218.87323C155.6893 218.87323 157.03244 220.21637 157.03244 221.87323Z" fill-rule="nonzero"/><path fill="#000000" fill-opacity="0.0" clip-path="url(#id_0)" d="M162.07144 215.12378C162.07144 216.78064 160.7283 218.12378 159.07144 218.12378C157.4146 218.12378 156.07144 216.78064 156.07144 215.12378C156.07144 213.46692 157.4146 212.12378 159.07144 212.12378C160.7283 212.12378 162.07144 213.46692 162.07144 215.12378Z" fill-rule="nonzero"/><path fill="#000000" fill-opacity="0.0" clip-path="url(#id_0)" d="M167.11044 208.37349C167.11044 210.03033 165.7673 211.37349 164.11044 211.37349C162.4536 211.37349 161.11044 210.03033 161.11044 208.37349C161.11044 206.71663 162.4536 205.37349 164.11044 205.37349C165.7673 205.37349 167.11044 206.71663 167.11044 208.37349Z" fill-rule="nonzero"/><path fill="#000000" fill-opacity="0.0" clip-path="url(#id_0)" d="M172.14944 201.62149C172.14944 203.27835 170.8063 204.62149 169.14944 204.62149C167.49258 204.62149 166.14944 203.27835 166.14944 201.62149C166.14944 199.96465 167.49258 198.62149 169.14944 198.62149C170.8063 198.62149 172.14944 199.96465 172.14944 201.62149Z" fill-rule="nonzero"/><path fill="#000000" fill-opacity="0.0" clip-path="url(#id_0)" d="M177.18845 194.86823C177.18845 196.52509 175.8453 197.86823 174.18845 197.86823C172.53159 197.86823 171.18845 196.52509 171.18845 194.86823C171.18845 193.21138 172.53159 191.86823 174.18845 191.86823C175.8453 191.86823 177.18845 193.21138 177.18845 194.86823Z" fill-rule="nonzero"/><path fill="#000000" fill-opacity="0.0" clip-path="url(#id_0)" d="M182.22745 188.1137C182.22745 189.77054 180.8843 191.1137 179.22745 191.1137C177.57059 191.1137 176.22745 189.77054 176.22745 188.1137C176.22745 186.45683 177.57059 185.1137 179.22745 185.1137C180.8843 185.1137 182.22745 186.45683 182.22745 188.1137Z" fill-rule="nonzero"/><path fill="#000000" fill-opacity="0.0" clip-path="url(#id_0)" d="M187.26645 181.35788C187.26645 183.01474 185.9233 184.35788 184.26645 184.35788C182.60959 184.35788 181.26645 183.01474 181.26645 181.35788C181.26645 179.70102 182.60959 178.35788 184.26645 178.35788C185.9233 178.35788 187.26645 179.70102 187.26645 181.35788Z" fill-rule="nonzero"/><path fill="#000000" fill-opacity="0.0" clip-path="url(#id_0)" d="M192.30545 174.6008C192.30545 176.25764 190.9623 177.6008 189.30545 177.6008C187.64859 177.6008 186.30545 176.25764 186.30545 174.6008C186.30545 172.94394 187.64859 171.6008 189.30545 171.6008C190.9623 171.6008 192.30545 172.94394 192.30545 174.6008Z" fill-rule="nonzero"/><path fill="#000000" fill-opacity="0.0" clip-path="url(#id_0)" d="M197.34445 167.84244C197.34445 169.4993 196.0013 170.84244 194.34445 170.84244C192.68759 170.84244 191.34445 169.4993 191.34445 167.84244C191.34445 166.18558 192.68759 164.84244 194.34445 164.84244C196.0013 164.84244 197.34445 166.18558 197.34445 167.84244Z" fill-rule="nonzero"/><path fill="#000000" fill-opacity="0.0" clip-path="url(#id_0)" d="M202.38345 161.08281C202.38345 162.73967 201.0403 164.08281 199.38345 164.08281C197.7266 164.08281 196.38345 162.73967 196.38345 161.08281C196.38345 159.42595 197.7266 158.08281 199.38345 158.08281C201.0403 158.08281 202.38345 159.42595 202.38345 161.08281Z" fill-rule="nonzero"/><path fill="#000000" fill-opacity="0.0" clip-path="url(#id_0)" d="M207.42244 154.3219C207.42244 155.97876 206.0793 157.3219 204.42244 157.3219C202.7656 157.3219 201.42244 155.97876 201.42244 154.3219C201.42244 152.66505 202.7656 151.3219 204.42244 151.3219C206.0793 151.3219 207.42244 152.66505 207.42244 154.3219Z" fill-rule="nonzero"/><path fill="#000000" fill-opacity="0.0" clip-path="url(#id_0)" d="M212.46144 147.55972C212.46144 149.21658 211.1183 150.55972 209.46144 150.55972C207.8046 150.55972 206.46144 149.21658 206.46144 147.55972C206.46144 145.90288 207.8046 144.55972 209.46144 144.55972C211.1183 144.55972 212.46144 145.90288 212.46144 147.55972Z" fill-rule="nonzero"/><path fill="#000000" fill-opacity="0.0" clip-path="url(#id_0)" d="M217.50044 140.79628C217.50044 142.45314 216.1573 143.79628 214.50044 143.79628C212.8436 143.79628 211.50044 142.45314 211.50044 140.79628C211.50044 139.13942 212.8436 137.79628 214.50044 137.79628C216.1573 137.79628 217.50044 139.13942 217.50044 140.79628Z" fill-rule="nonzero"/><path fill="#000000" fill-opacity="0.0" clip-path="url(#id_0)" d="M222.53944 134.03113C222.53944 135.68799 221.1963 137.03113 219.53944 137.03113C217.8826 137.03113 216.53944 135.68799 216.53944 134.03113C216.53944 132.37428 217.8826 131.03113 219.53944 131.03113C221.1963 131.03113 222.53944 132.37428 222.53944 134.03113Z" fill-rule="nonzero"/><path fill="#000000" fill-opacity="0.0" clip-path="url(#id_0)" d="M227.57845 127.26527C227.57845 128.92212 226.2353 130.26527 224.57845 130.26527C222.92159 130.26527 221.57845 128.92212 221.57845 127.26527C221.57845 125.60841 222.92159 124.26527 224.57845 124.26527C226.2353 124.26527 227.57845 125.60841 227.57845 127.26527Z" fill-rule="nonzero"/><path fill="#000000" fill-opacity="0.0" clip-path="url(#id_0)" d="M232.61745 120.49787C232.61745 122.154724 231.2743 123.49787 229.61745 123.49787C227.96059 123.49787 226.61745 122.154724 226.61745 120.49787C226.61745 118.84102 227.96059 117.49787 229.61745 117.49787C231.2743 117.49787 232.61745 118.84102 232.61745 120.49787Z" fill-rule="nonzero"/><path fill="#000000" fill-opacity="0.0" clip-path="url(#id_0)" d="M237.65645 113.7292C237.65645 115.386055 236.3133 116.7292 234.65645 116.7292C232.99959 116.7292 231.65645 115.386055 231.65645 113.7292C231.65645 112.07235 232.99959 110.7292 234.65645 110.7292C236.3133 110.7292 237.65645 112.07235 237.65645 113.7292Z" fill-rule="nonzero"/><path fill="#000000" fill-opacity="0.0" clip-path="url(#id_0)" d="M242.69545 106.95926C242.69545 108.61612 241.3523 109.95926 239.69545 109.95926C238.03859 109.95926 236.69545 108.61612 236.69545 106.95926C236.69545 105.30241 238.03859 103.95926 239.69545 103.95926C241.3523 103.95926 242.69545 105.30241 242.69545 106.95926Z" fill-rule="nonzero"/><path fill="#000000" fill-opacity="0.0" clip-path="url(#id_0)" d="M247.73445 100.188C247.73445 101.84486 246.3913 103.188 244.73445 103.188C243.07759 103.188 241.73445 101.84486 241.73445 100.188C241.73445 98.53115 243.07759 97.188 244.73445 97.188C246.3913 97.188 247.73445 98.53115 247.73445 100.188Z" fill-rule="nonzero"/><path fill="#000000" fill-opacity="0.0" clip-path="url(#id_0)" d="M252.77345 93.415436C252.77345 95.07229 251.4303 96.415436 249.77345 96.415436C248.1166 96.415436 246.77345 95.07229 246.77345 93.415436C246.77345 91.758575 248.1166 90.415436 249.77345 90.415436C251.4303 90.415436 252.77345 91.758575 252.77345 93.415436Z" fill-rule="nonzero"/><path fill="#000000" fill-opacity="0.0" clip-path="url(#id_0)" d="M257.81244 88.28535C257.81244 89.9422 256.4693 91.28535 254.81244 91.28535C253.1556 91.28535 251.81244 89.9422 251.81244 88.28535C251.81244 86.62849 253.1556 85.28535 254.81244 85.28535C256.4693 85.28535 257.81244 86.62849 257.81244 88.28535Z" fill-rule="nonzero"/><path fill="#000000" fill-opacity="0.0" clip-path="url(#id_0)" d="M262.85144 88.2854C262.85144 89.94225 261.5083 91.2854 259.85144 91.2854C258.19458 91.2854 256.85144 89.94225 256.85144 88.2854C256.85144 86.62855 258.19458 85.2854 259.85144 85.2854C261.5083 85.2854 262.85144 86.62855 262.85144 88.2854Z" fill-rule="nonzero"/><path fill="#000000" fill-opacity="0.0" clip-path="url(#id_0)" d="M267.89044 88.2854C267.89044 89.94225 266.5473 91.2854 264.89044 91.2854C263.23358 91.2854 261.89044 89.94225 261.89044 88.2854C261.89044 86.62855 263.23358 85.2854 264.89044 85.2854C266.5473 85.2854 267.89044 86.62855 267.89044 88.2854Z" fill-rule="nonzero"/><path fill="#000000" fill-opacity="0.0" clip-path="url(#id_0)" d="M272.92944 88.2854C272.92944 89.94225 271.5863 91.2854 269.92944 91.2854C268.27258 91.2854 266.92944 89.94225 266.92944 88.2854C266.92944 86.62855 268.27258 85.2854 269.92944 85.2854C271.5863 85.2854 272.92944 86.62855 272.92944 88.2854Z" fill-rule="nonzero"/><path fill="#000000" fill-opacity="0.0" clip-path="url(#id_0)" d="M277.96844 88.2854C277.96844 89.94225 276.6253 91.2854 274.96844 91.2854C273.31158 91.2854 271.96844 89.94225 271.96844 88.2854C271.96844 86.62854 273.31158 85.2854 274.96844 85.2854C276.6253 85.2854 277.96844 86.62854 277.96844 88.2854Z" fill-rule="nonzero"/><path fill="#000000" fill-opacity="0.0" clip-path="url(#id_0)" d="M283.00745 88.28539C283.00745 89.94225 281.6643 91.28539 280.00745 91.28539C278.3506 91.28539 277.00745 89.94225 277.00745 88.28539C277.00745 86.62854 278.3506 85.28539 280.00745 85.28539C281.6643 85.28539 283.00745 86.62854 283.00745 88.28539Z" fill-rule="nonzero"/><path fill="#000000" fill-opacity="0.0" clip-path="url(#id_0)" d="M288.04645 88.28539C288.04645 89.942245 286.7033 91.28539 285.04645 91.28539C283.3896 91.28539 282.04645 89.942245 282.04645 88.28539C282.04645 86.62854 283.3896 85.28539 285.04645 85.28539C286.7033 85.28539 288.04645 86.62854 288.04645 88.28539Z" fill-rule="nonzero"/><path fill="#000000" fill-opacity="0.0" clip-path="url(#id_0)" d="M293.08545 88.28539C293.08545 89.942245 291.7423 91.28539 290.08545 91.28539C288.4286 91.28539 287.08545 89.942245 287.08545 88.28539C287.08545 86.62854 288.4286 85.28539 290.08545 85.28539C291.7423 85.28539 293.08545 86.62854 293.08545 88.28539Z" fill-rule="nonzero"/><path fill="#000000" fill-opacity="0.0" clip-path="url(#id_0)" d="M298.12445 88.28539C298.12445 89.942245 296.7813 91.28539 295.12445 91.28539C293.4676 91.28539 292.12445 89.942245 292.12445 88.28539C292.12445 86.62854 293.4676 85.28539 295.12445 85.28539C296.7813 85.28539 298.12445 86.62854 298.12445 88.28539Z" fill-rule="nonzero"/><path fill="#000000" fill-opacity="0.0" clip-path="url(#id_0)" d="M303.16345 88.28539C303.16345 89.942245 301.8203 91.28539 300.16345 91.28539C298.5066 91.28539 297.16345 89.942245 297.16345 88.28539C297.16345 86.62854 298.5066 85.28539 300.16345 85.28539C301.8203 85.28539 303.16345 86.62854 303.16345 88.28539Z" fill-rule="nonzero"/><path fill="#000000" fill-opacity="0.0" clip-path="url(#id_0)" d="M308.20245 88.28539C308.20245 89.942245 306.8593 91.28539 305.20245 91.28539C303.5456 91.28539 302.20245 89.942245 302.20245 88.28539C302.20245 86.62853 303.5456 85.28539 305.20245 85.28539C306.8593 85.28539 308.20245 86.62853 308.20245 88.28539Z" fill-rule="nonzero"/><path fill="#000000" fill-opacity="0.0" clip-path="url(#id_0)" d="M313.24146 88.28539C313.24146 89.942245 311.8983 91.28539 310.24146 91.28539C308.5846 91.28539 307.24146 89.942245 307.24146 88.28539C307.24146 86.62853 308.5846 85.28539 310.24146 85.28539C311.8983 85.28539 313.24146 86.62853 313.24146 88.28539Z" fill-rule="nonzero"/><path fill="#000000" fill-opacity="0.0" clip-path="url(#id_0)" d="M318.28046 88.285385C318.28046 89.942245 316.9373 91.285385 315.28046 91.285385C313.6236 91.285385 312.28046 89.942245 312.28046 88.285385C312.28046 86.62853 313.6236 85.285385 315.28046 85.285385C316.9373 85.285385 318.28046 86.62853 318.28046 88.285385Z" fill-rule="nonzero"/><path fill="#000000" fill-opacity="0.0" clip-path="url(#id_0)" d="M323.31946 88.285385C323.31946 89.94224 321.9763 91.285385 320.31946 91.285385C318.6626 91.285385 317.31946 89.94224 317.31946 88.285385C317.31946 86.62853 318.6626 85.285385 320.31946 85.285385C321.9763 85.285385 323.31946 86.62853 323.31946 88.285385Z" fill-rule="nonzero"/><path fill="#000000" fill-opacity="0.0" clip-path="url(#id_0)" d="M328.35846 88.285385C328.35846 89.94224 327.0153 91.285385 325.35846 91.285385C323.7016 91.285385 322.35846 89.94224 322.35846 88.285385C322.35846 86.62853 323.7016 85.285385 325.35846 85.285385C327.0153 85.285385 328.35846 86.62853 328.35846 88.285385Z" fill-rule="nonzero"/><path fill="#000000" fill-opacity="0.0" clip-path="url(#id_0)" d="M333.39746 88.285385C333.39746 89.94224 332.0543 91.285385 330.39746 91.285385C328.7406 91.285385 327.39746 89.94224 327.39746 88.285385C327.39746 86.62853 328.7406 85.285385 330.39746 85.285385C332.0543 85.285385 333.39746 86.62853 333.39746 88.285385Z" fill-rule="nonzero"/><path fill="#000000" fill-opacity="0.0" clip-path="url(#id_0)" d="M338.43643 88.285385C338.43643 89.94224 337.0933 91.285385 335.43643 91.285385C333.7796 91.285385 332.43643 89.94224 332.43643 88.285385C332.43643 86.62853 333.7796 85.285385 335.43643 85.285385C337.0933 85.285385 338.43643 86.62853 338.43643 88.285385Z" fill-rule="nonzero"/><path fill="#000000" fill-opacity="0.0" clip-path="url(#id_0)" d="M343.47543 88.285385C343.47543 89.94224 342.1323 91.285385 340.47543 91.285385C338.8186 91.285385 337.47543 89.94224 337.47543 88.285385C337.47543 86.62853 338.8186 85.285385 340.47543 85.285385C342.1323 85.285385 343.47543 86.62853 343.47543 88.285385Z" fill-rule="nonzero"/><path fill="#000000" fill-opacity="0.0" clip-path="url(#id_0)" d="M348.51443 88.285385C348.51443 89.94224 347.1713 91.285385 345.51443 91.285385C343.8576 91.285385 342.51443 89.94224 342.51443 88.285385C342.51443 86.62853 343.8576 85.285385 345.51443 85.285385C347.1713 85.285385 348.51443 86.62853 348.51443 88.285385Z" fill-rule="nonzero"/><path fill="#000000" fill-opacity="0.0" clip-path="url(#id_0)" d="M353.55344 88.285385C353.55344 89.94224 352.2103 91.285385 350.55344 91.285385C348.8966 91.285385 347.55344 89.94224 347.55344 88.285385C347.55344 86.628525 348.8966 85.285385 350.55344 85.285385C352.2103 85.285385 353.55344 86.628525 353.55344 88.285385Z" fill-rule="nonzero"/><path fill="#000000" fill-opacity="0.0" clip-path="url(#id_0)" d="M358.59244 88.285385C358.59244 89.94224 357.2493 91.285385 355.59244 91.285385C353.93558 91.285385 352.59244 89.94224 352.59244 88.285385C352.59244 86.628525 353.93558 85.285385 355.59244 85.285385C357.2493 85.285385 358.59244 86.628525 358.59244 88.285385Z" fill-rule="nonzero"/><path fill="#000000" fill-opacity="0.0" clip-path="url(#id_0)" d="M363.63144 88.28538C363.63144 89.94224 362.2883 91.28538 360.63144 91.28538C358.97458 91.28538 357.63144 89.94224 357.63144 88.28538C357.63144 86.628525 358.97458 85.28538 360.63144 85.28538C362.2883 85.28538 363.63144 86.628525 363.63144 88.28538Z" fill-rule="nonzero"/><path fill="#000000" fill-opacity="0.0" clip-path="url(#id_0)" d="M368.67044 88.28538C368.67044 89.94224 367.3273 91.28538 365.67044 91.28538C364.01358 91.28538 362.67044 89.94224 362.67044 88.28538C362.67044 86.628525 364.01358 85.28538 365.67044 85.28538C367.3273 85.28538 368.67044 86.628525 368.67044 88.28538Z" fill-rule="nonzero"/><path fill="#000000" fill-opacity="0.0" clip-path="url(#id_0)" d="M373.70944 88.28538C373.70944 89.94224 372.3663 91.28538 370.70944 91.28538C369.05258 91.28538 367.70944 89.94224 367.70944 88.28538C367.70944 86.628525 369.05258 85.28538 370.70944 85.28538C372.3663 85.28538 373.70944 86.628525 373.70944 88.28538Z" fill-rule="nonzero"/><path fill="#000000" fill-opacity="0.0" clip-path="url(#id_0)" d="M378.74844 88.28538C378.74844 89.94223 377.4053 91.28538 375.74844 91.28538C374.09158 91.28538 372.74844 89.94223 372.74844 88.28538C372.74844 86.628525 374.09158 85.28538 375.74844 85.28538C377.4053 85.28538 378.74844 86.628525 378.74844 88.28538Z" fill-rule="nonzero"/><path fill="#000000" fill-opacity="0.0" clip-path="url(#id_0)" d="M383.78745 88.28538C383.78745 89.94223 382.4443 91.28538 380.78745 91.28538C379.13058 91.28538 377.78745 89.94223 377.78745 88.28538C377.78745 86.628525 379.13058 85.28538 380.78745 85.28538C382.4443 85.28538 383.78745 86.628525 383.78745 88.28538Z" fill-rule="nonzero"/><path fill="#000000" fill-opacity="0.0" clip-path="url(#id_0)" d="M388.82645 88.28538C388.82645 89.94223 387.4833 91.28538 385.82645 91.28538C384.1696 91.28538 382.82645 89.94223 382.82645 88.28538C382.82645 86.628525 384.1696 85.28538 385.82645 85.28538C387.4833 85.28538 388.82645 86.628525 388.82645 88.28538Z" fill-rule="nonzero"/><path fill="#000000" fill-opacity="0.0" clip-path="url(#id_0)" d="M393.86545 88.28538C393.86545 89.94223 392.5223 91.28538 390.86545 91.28538C389.2086 91.28538 387.86545 89.94223 387.86545 88.28538C387.86545 86.628525 389.2086 85.28538 390.86545 85.28538C392.5223 85.28538 393.86545 86.628525 393.86545 88.28538Z" fill-rule="nonzero"/><path fill="#000000" fill-opacity="0.0" clip-path="url(#id_0)" d="M398.90445 88.28538C398.90445 89.94223 397.5613 91.28538 395.90445 91.28538C394.2476 91.28538 392.90445 89.94223 392.90445 88.28538C392.90445 86.628525 394.2476 85.28538 395.90445 85.28538C397.5613 85.28538 398.90445 86.628525 398.90445 88.28538Z" fill-rule="nonzero"/><path fill="#000000" fill-opacity="0.0" clip-path="url(#id_0)" d="M403.94345 88.28538C403.94345 89.94223 402.6003 91.28538 400.94345 91.28538C399.2866 91.28538 397.94345 89.94223 397.94345 88.28538C397.94345 86.628525 399.2866 85.28538 400.94345 85.28538C402.6003 85.28538 403.94345 86.628525 403.94345 88.28538Z" fill-rule="nonzero"/><path fill="#000000" fill-opacity="0.0" clip-path="url(#id_0)" d="M408.98245 88.28538C408.98245 89.94223 407.6393 91.28538 405.98245 91.28538C404.3256 91.28538 402.98245 89.94223 402.98245 88.28538C402.98245 86.628525 404.3256 85.28538 405.98245 85.28538C407.6393 85.28538 408.98245 86.628525 408.98245 88.28538Z" fill-rule="nonzero"/><path fill="#000000" fill-opacity="0.0" clip-path="url(#id_0)" d="M414.02145 88.28538C414.02145 89.94223 412.6783 91.28538 411.02145 91.28538C409.3646 91.28538 408.02145 89.94223 408.02145 88.28538C408.02145 86.628525 409.3646 85.28538 411.02145 85.28538C412.6783 85.28538 414.02145 86.628525 414.02145 88.28538Z" fill-rule="nonzero"/><path fill="#000000" fill-opacity="0.0" clip-path="url(#id_0)" d="M419.06046 88.28538C419.06046 89.94223 417.7173 91.28538 416.06046 91.28538C414.4036 91.28538 413.06046 89.94223 413.06046 88.28538C413.06046 86.62852 414.4036 85.28538 416.06046 85.28538C417.7173 85.28538 419.06046 86.62852 419.06046 88.28538Z" fill-rule="nonzero"/><path fill="#000000" fill-opacity="0.0" clip-path="url(#id_0)" d="M424.09946 88.28538C424.09946 89.94223 422.7563 91.28538 421.09946 91.28538C419.4426 91.28538 418.09946 89.94223 418.09946 88.28538C418.09946 86.62852 419.4426 85.28538 421.09946 85.28538C422.7563 85.28538 424.09946 86.62852 424.09946 88.28538Z" fill-rule="nonzero"/><path fill="#000000" fill-opacity="0.0" clip-path="url(#id_0)" d="M429.13846 88.28538C429.13846 89.94223 427.7953 91.28538 426.13846 91.28538C424.4816 91.28538 423.13846 89.94223 423.13846 88.28538C423.13846 86.62852 424.4816 85.28538 426.13846 85.28538C427.7953 85.28538 429.13846 86.62852 429.13846 88.28538Z" fill-rule="nonzero"/><path fill="#000000" fill-opacity="0.0" clip-path="url(#id_0)" d="M434.17746 88.28538C434.17746 89.94223 432.8343 91.28538 431.17746 91.28538C429.5206 91.28538 428.17746 89.94223 428.17746 88.28538C428.17746 86.62852 429.5206 85.28538 431.17746 85.28538C432.8343 85.28538 434.17746 86.62852 434.17746 88.28538Z" fill-rule="nonzero"/><path fill="#000000" fill-opacity="0.0" clip-path="url(#id_0)" d="M439.21643 88.28537C439.21643 89.94223 437.8733 91.28537 436.21643 91.28537C434.5596 91.28537 433.21643 89.94223 433.21643 88.28537C433.21643 86.62852 434.5596 85.28537 436.21643 85.28537C437.8733 85.28537 439.21643 86.62852 439.21643 88.28537Z" fill-rule="nonzero"/><path fill="#000000" fill-opacity="0.0" clip-path="url(#id_0)" d="M444.25543 88.28537C444.25543 89.94223 442.9123 91.28537 441.25543 91.28537C439.5986 91.28537 438.25543 89.94223 438.25543 88.28537C438.25543 86.62852 439.5986 85.28537 441.25543 85.28537C442.9123 85.28537 444.25543 86.62852 444.25543 88.28537Z" fill-rule="nonzero"/><path fill="#000000" fill-opacity="0.0" clip-path="url(#id_0)" d="M449.29443 88.28537C449.29443 89.94223 447.9513 91.28537 446.29443 91.28537C444.6376 91.28537 443.29443 89.94223 443.29443 88.28537C443.29443 86.62852 444.6376 85.28537 446.29443 85.28537C447.9513 85.28537 449.29443 86.62852 449.29443 88.28537Z" fill-rule="nonzero"/><path fill="#000000" fill-opacity="0.0" clip-path="url(#id_0)" d="M454.33344 88.28537C454.33344 89.94223 452.9903 91.28537 451.33344 91.28537C449.6766 91.28537 448.33344 89.94223 448.33344 88.28537C448.33344 86.62852 449.6766 85.28537 451.33344 85.28537C452.9903 85.28537 454.33344 86.62852 454.33344 88.28537Z" fill-rule="nonzero"/><path fill="#000000" fill-opacity="0.0" clip-path="url(#id_0)" d="M459.37244 88.28537C459.37244 89.94222 458.0293 91.28537 456.37244 91.28537C454.7156 91.28537 453.37244 89.94222 453.37244 88.28537C453.37244 86.62852 454.7156 85.28537 456.37244 85.28537C458.0293 85.28537 459.37244 86.62852 459.37244 88.28537Z" fill-rule="nonzero"/><path fill="#000000" fill-opacity="0.0" clip-path="url(#id_0)" d="M464.41144 88.28537C464.41144 89.94222 463.0683 91.28537 461.41144 91.28537C459.75458 91.28537 458.41144 89.94222 458.41144 88.28537C458.41144 86.62852 459.75458 85.28537 461.41144 85.28537C463.0683 85.28537 464.41144 86.62852 464.41144 88.28537Z" fill-rule="nonzero"/><path fill="#000000" fill-opacity="0.0" clip-path="url(#id_0)" d="M469.45044 88.28537C469.45044 89.94222 468.1073 91.28537 466.45044 91.28537C464.79358 91.28537 463.45044 89.94222 463.45044 88.28537C463.45044 86.62852 464.79358 85.28537 466.45044 85.28537C468.1073 85.28537 469.45044 86.62852 469.45044 88.28537Z" fill-rule="nonzero"/><path fill="#000000" fill-opacity="0.0" clip-path="url(#id_0)" d="M474.48944 88.28537C474.48944 89.94222 473.1463 91.28537 471.48944 91.28537C469.83258 91.28537 468.48944 89.94222 468.48944 88.28537C468.48944 86.62852 469.83258 85.28537 471.48944 85.28537C473.1463 85.28537 474.48944 86.62852 474.48944 88.28537Z" fill-rule="nonzero"/><path fill="#000000" fill-opacity="0.0" clip-path="url(#id_0)" d="M479.52844 88.28537C479.52844 89.94222 478.1853 91.28537 476.52844 91.28537C474.87158 91.28537 473.52844 89.94222 473.52844 88.28537C473.52844 86.62852 474.87158 85.28537 476.52844 85.28537C478.1853 85.28537 479.52844 86.62852 479.52844 88.28537Z" fill-rule="nonzero"/><path fill="#000000" fill-opacity="0.0" clip-path="url(#id_0)" d="M484.56744 88.28537C484.56744 89.94222 483.2243 91.28537 481.56744 91.28537C479.91058 91.28537 478.56744 89.94222 478.56744 88.28537C478.56744 86.62852 479.91058 85.28537 481.56744 85.28537C483.2243 85.28537 484.56744 86.62852 484.56744 88.28537Z" fill-rule="nonzero"/><path fill="#000000" fill-opacity="0.0" clip-path="url(#id_0)" d="M489.60645 88.28537C489.60645 89.94222 488.2633 91.28537 486.60645 91.28537C484.9496 91.28537 483.60645 89.94222 483.60645 88.28537C483.60645 86.62852 484.9496 85.28537 486.60645 85.28537C488.2633 85.28537 489.60645 86.62852 489.60645 88.28537Z" fill-rule="nonzero"/><path fill="#000000" fill-opacity="0.0" clip-path="url(#id_0)" d="M494.64545 88.28537C494.64545 89.94222 493.3023 91.28537 491.64545 91.28537C489.9886 91.28537 488.64545 89.94222 488.64545 88.28537C488.64545 86.62852 489.9886 85.28537 491.64545 85.28537C493.3023 85.28537 494.64545 86.62852 494.64545 88.28537Z" fill-rule="nonzero"/><path fill="#000000" fill-opacity="0.0" clip-path="url(#id_0)" d="M499.68445 88.28537C499.68445 89.94222 498.3413 91.28537 496.68445 91.28537C495.0276 91.28537 493.68445 89.94222 493.68445 88.28537C493.68445 86.62852 495.0276 85.28537 496.68445 85.28537C498.3413 85.28537 499.68445 86.62852 499.68445 88.28537Z" fill-rule="nonzero"/><path fill="#000000" fill-opacity="0.0" clip-path="url(#id_0)" d="M504.72345 88.28537C504.72345 89.94222 503.3803 91.28537 501.72345 91.28537C500.0666 91.28537 498.72345 89.94222 498.72345 88.28537C498.72345 86.62852 500.0666 85.28537 501.72345 85.28537C503.3803 85.28537 504.72345 86.62852 504.72345 88.28537Z" fill-rule="nonzero"/><path fill="#000000" fill-opacity="0.0" clip-path="url(#id_0)" d="M509.76245 88.28537C509.76245 89.94222 508.4193 91.28537 506.76245 91.28537C505.1056 91.28537 503.76245 89.94222 503.76245 88.28537C503.76245 86.62852 505.1056 85.28537 506.76245 85.28537C508.4193 85.28537 509.76245 86.62852 509.76245 88.28537Z" fill-rule="nonzero"/><path fill="#000000" fill-opacity="0.0" clip-path="url(#id_0)" d="M514.80145 88.28537C514.80145 89.94222 513.4583 91.28537 511.80145 91.28537C510.1446 91.28537 508.80145 89.94222 508.80145 88.28537C508.80145 86.62852 510.1446 85.28537 511.80145 85.28537C513.4583 85.28537 514.80145 86.62852 514.80145 88.28537Z" fill-rule="nonzero"/><path fill="#000000" fill-opacity="0.0" clip-path="url(#id_0)" d="M519.84045 88.28537C519.84045 89.94222 518.4973 91.28537 516.84045 91.28537C515.1836 91.28537 513.84045 89.94222 513.84045 88.28537C513.84045 86.62852 515.1836 85.28537 516.84045 85.28537C518.4973 85.28537 519.84045 86.62852 519.84045 88.28537Z" fill-rule="nonzero"/><path fill="#000000" fill-opacity="0.0" clip-path="url(#id_0)" d="M524.87946 88.28537C524.87946 89.94222 523.5363 91.28537 521.87946 91.28537C520.2226 91.28537 518.87946 89.94222 518.87946 88.28537C518.87946 86.62852 520.2226 85.28537 521.87946 85.28537C523.5363 85.28537 524.87946 86.62852 524.87946 88.28537Z" fill-rule="nonzero"/><path fill="#000000" fill-opacity="0.0" clip-path="url(#id_0)" d="M529.91846 88.28537C529.91846 89.94222 528.5753 91.28537 526.91846 91.28537C525.2616 91.28537 523.91846 89.94222 523.91846 88.28537C523.91846 86.62852 525.2616 85.28537 526.91846 85.28537C528.5753 85.28537 529.91846 86.62852 529.91846 88.28537Z" fill-rule="nonzero"/><path fill="#000000" fill-opacity="0.0" clip-path="url(#id_0)" d="M534.95746 88.28537C534.95746 89.94222 533.6143 91.28537 531.95746 91.28537C530.3006 91.28537 528.95746 89.94222 528.95746 88.28537C528.95746 86.62851 530.3006 85.28537 531.95746 85.28537C533.6143 85.28537 534.95746 86.62851 534.95746 88.28537Z" fill-rule="nonzero"/><path fill="#000000" fill-opacity="0.0" clip-path="url(#id_0)" d="M539.99646 88.28537C539.99646 89.94222 538.6533 91.28537 536.99646 91.28537C535.3396 91.28537 533.99646 89.94222 533.99646 88.28537C533.99646 86.62851 535.3396 85.28537 536.99646 85.28537C538.6533 85.28537 539.99646 86.62851 539.99646 88.28537Z" fill-rule="nonzero"/><path fill="#000000" fill-opacity="0.0" clip-path="url(#id_0)" d="M545.03546 88.28537C545.03546 89.94222 543.6923 91.28537 542.03546 91.28537C540.3786 91.28537 539.03546 89.94222 539.03546 88.28537C539.03546 86.62851 540.3786 85.28537 542.03546 85.28537C543.6923 85.28537 545.03546 86.62851 545.03546 88.28537Z" fill-rule="nonzero"/><path fill="#000000" fill-opacity="0.0" clip-path="url(#id_0)" d="M550.07446 88.28537C550.07446 89.94222 548.7313 91.28537 547.07446 91.28537C545.4176 91.28537 544.07446 89.94222 544.07446 88.28537C544.07446 86.62851 545.4176 85.28537 547.07446 85.28537C548.7313 85.28537 550.07446 86.62851 550.07446 88.28537Z" fill-rule="nonzero"/><path fill="#000000" fill-opacity="0.0" clip-path="url(#id_0)" d="M555.11346 88.28537C555.11346 89.94222 553.7703 91.28537 552.11346 91.28537C550.4566 91.28537 549.11346 89.94222 549.11346 88.28537C549.11346 86.62851 550.4566 85.28537 552.11346 85.28537C553.7703 85.28537 555.11346 86.62851 555.11346 88.28537Z" fill-rule="nonzero"/><path fill="#000000" fill-opacity="0.0" clip-path="url(#id_0)" d="M560.15247 88.28537C560.15247 89.94222 558.8093 91.28537 557.15247 91.28537C555.4956 91.28537 554.15247 89.94222 554.15247 88.28537C554.15247 86.62851 555.4956 85.28537 557.15247 85.28537C558.8093 85.28537 560.15247 86.62851 560.15247 88.28537Z" fill-rule="nonzero"/><path fill="#000000" fill-opacity="0.0" clip-path="url(#id_0)" d="M565.19147 88.28536C565.19147 89.94222 563.8483 91.28536 562.19147 91.28536C560.5346 91.28536 559.19147 89.94222 559.19147 88.28536C559.19147 86.62851 560.5346 85.28536 562.19147 85.28536C563.8483 85.28536 565.19147 86.62851 565.19147 88.28536Z" fill-rule="nonzero"/><path fill="#000000" fill-opacity="0.0" clip-path="url(#id_0)" d="M570.23047 88.28536C570.23047 89.94222 568.8873 91.28536 567.23047 91.28536C565.5736 91.28536 564.23047 89.94222 564.23047 88.28536C564.23047 86.62851 565.5736 85.28536 567.23047 85.28536C568.8873 85.28536 570.23047 86.62851 570.23047 88.28536Z" fill-rule="nonzero"/><path fill="#000000" fill-opacity="0.0" clip-path="url(#id_0)" d="M575.2695 88.28536C575.2695 89.94222 573.92633 91.28536 572.2695 91.28536C570.6126 91.28536 569.2695 89.94222 569.2695 88.28536C569.2695 86.62851 570.6126 85.28536 572.2695 85.28536C573.92633 85.28536 575.2695 86.62851 575.2695 88.28536Z" fill-rule="nonzero"/><path fill="#000000" fill-opacity="0.0" clip-path="url(#id_0)" d="M580.3085 88.28536C580.3085 89.94222 578.9653 91.28536 577.3085 91.28536C575.6516 91.28536 574.3085 89.94222 574.3085 88.28536C574.3085 86.62851 575.6516 85.28536 577.3085 85.28536C578.9653 85.28536 580.3085 86.62851 580.3085 88.28536Z" fill-rule="nonzero"/><path fill="#000000" fill-opacity="0.0" clip-path="url(#id_0)" d="M584.45 88.28536C584.45 89.942215 583.1069 91.28536 581.45 91.28536C579.79315 91.28536 578.45 89.942215 578.45 88.28536C578.45 86.62851 579.79315 85.28536 581.45 85.28536C583.1069 85.28536 584.45 86.62851 584.45 88.28536Z" fill-rule="nonzero"/><path fill="#000000" fill-opacity="0.0" clip-path="url(#id_0)" d="M80.55 88.28333C80.55 89.940186 79.206856 91.28333 77.55 91.28333C75.89314 91.28333 74.55 89.940186 74.55 88.28333C74.55 86.62648 75.89314 85.28333 77.55 85.28333C79.206856 85.28333 80.55 86.62648 80.55 88.28333Z" fill-rule="nonzero"/><path fill="#000000" fill-opacity="0.0" clip-path="url(#id_0)" d="M81.0539 92.15349C81.0539 93.81034 79.710754 95.15349 78.0539 95.15349C76.39705 95.15349 75.0539 93.81034 75.0539 92.15349C75.0539 90.496635 76.39705 89.15349 78.0539 89.15349C79.710754 89.15349 81.0539 90.496635 81.0539 92.15349Z" fill-rule="nonzero"/><path fill="#000000" fill-opacity="0.0" clip-path="url(#id_0)" d="M81.5578 96.02411C81.5578 97.68096 80.21465 99.02411 78.5578 99.02411C76.90095 99.02411 75.5578 97.68096 75.5578 96.02411C75.5578 94.367256 76.90095 93.02411 78.5578 93.02411C80.21465 93.02411 81.5578 94.367256 81.5578 96.02411Z" fill-rule="nonzero"/><path fill="#000000" fill-opacity="0.0" clip-path="url(#id_0)" d="M82.31365 101.830894C82.31365 103.48775 80.970505 104.830894 79.31365 104.830894C77.6568 104.830894 76.31365 103.48775 76.31365 101.830894C76.31365 100.17404 77.6568 98.830894 79.31365 98.830894C80.970505 98.830894 82.31365 100.17404 82.31365 101.830894Z" fill-rule="nonzero"/><path fill="#000000" fill-opacity="0.0" clip-path="url(#id_0)" d="M83.447426 110.54305C83.447426 112.199905 82.10428 113.54305 80.447426 113.54305C78.79057 113.54305 77.447426 112.199905 77.447426 110.54305C77.447426 108.8862 78.79057 107.54305 80.447426 107.54305C82.10428 107.54305 83.447426 108.8862 83.447426 110.54305Z" fill-rule="nonzero"/><path fill="#000000" fill-opacity="0.0" clip-path="url(#id_0)" d="M85.14809 123.6157C85.14809 125.27256 83.80494 126.6157 82.14809 126.6157C80.491234 126.6157 79.14809 125.27256 79.14809 123.6157C79.14809 121.95885 80.491234 120.6157 82.14809 120.6157C83.80494 120.6157 85.14809 121.95885 85.14809 123.6157Z" fill-rule="nonzero"/><path fill="#000000" fill-opacity="0.0" clip-path="url(#id_0)" d="M87.69908 143.2345C87.69908 144.89136 86.355934 146.2345 84.69908 146.2345C83.04223 146.2345 81.69908 144.89136 81.69908 143.2345C81.69908 141.57765 83.04223 140.2345 84.69908 140.2345C86.355934 140.2345 87.69908 141.57765 87.69908 143.2345Z" fill-rule="nonzero"/><path fill="#000000" fill-opacity="0.0" clip-path="url(#id_0)" d="M91.5256 172.68535C91.5256 174.34221 90.18245 175.68535 88.5256 175.68535C86.868744 175.68535 85.5256 174.34221 85.5256 172.68535C85.5256 171.0285 86.868744 169.68535 88.5256 169.68535C90.18245 169.68535 91.5256 171.0285 91.5256 172.68535Z" fill-rule="nonzero"/><path fill="#000000" fill-opacity="0.0" clip-path="url(#id_0)" d="M96.564545 211.50931C96.564545 213.16617 95.2214 214.50931 93.564545 214.50931C91.90769 214.50931 90.564545 213.16617 90.564545 211.50931C90.564545 209.85245 91.90769 208.50931 93.564545 208.50931C95.2214 208.50931 96.564545 209.85245 96.564545 211.50931Z" fill-rule="nonzero"/><path fill="#000000" fill-opacity="0.0" clip-path="url(#id_0)" d="M101.6036 250.37994C101.6036 252.03679 100.26045 253.37994 98.6036 253.37994C96.94674 253.37994 95.6036 252.03679 95.6036 250.37994C95.6036 248.72308 96.94674 247.37994 98.6036 247.37994C100.26045 247.37994 101.6036 248.72308 101.6036 250.37994Z" fill-rule="nonzero"/><path fill="#000000" fill-opacity="0.0" clip-path="url(#id_0)" d="M106.64255 289.29724C106.64255 290.9541 105.2994 292.29724 103.64255 292.29724C101.985695 292.29724 100.64255 290.9541 100.64255 289.29724C100.64255 287.64038 101.985695 286.29724 103.64255 286.29724C105.2994 286.29724 106.64255 287.64038 106.64255 289.29724Z" fill-rule="nonzero"/><path fill="#000000" d="M318.60938 349.45L318.60938 341.8719L315.78125 341.8719L315.78125 340.85626L322.59375 340.85626L322.59375 341.8719L319.75 341.8719L319.75 349.45L318.60938 349.45ZM323.29688 342.075L323.29688 340.85626L324.35938 340.85626L324.35938 342.075L323.29688 342.075ZM323.29688 349.45L323.29688 343.23126L324.35938 343.23126L324.35938 349.45L323.29688 349.45ZM326.29688 349.45L326.29688 343.23126L327.23438 343.23126L327.23438 344.10626Q327.53125 343.6375 328.01562 343.3719Q328.5 343.09064 329.125 343.09064Q329.8125 343.09064 330.25 343.3719Q330.70312 343.65314 330.875 344.16876Q331.625 343.09064 332.79688 343.09064Q333.73438 343.09064 334.21875 343.60626Q334.71875 344.10626 334.71875 345.1844L334.71875 349.45L333.67188 349.45L333.67188 345.52814Q333.67188 344.90314 333.5625 344.6219Q333.46875 344.34064 333.20312 344.16876Q332.9375 343.9969 332.5625 343.9969Q331.90625 343.9969 331.46875 344.4344Q331.04688 344.8719 331.04688 345.84064L331.04688 349.45L329.98438 349.45L329.98438 345.40314Q329.98438 344.7 329.71875 344.35626Q329.46875 343.9969 328.89062 343.9969Q328.4375 343.9969 328.0625 344.23126Q327.6875 344.46564 327.51562 344.91876Q327.34375 345.3719 327.34375 346.21564L327.34375 349.45L326.29688 349.45ZM341.54688 347.45L342.64062 347.575Q342.39062 348.52814 341.6875 349.0594Q340.98438 349.59064 339.90625 349.59064Q338.54688 349.59064 337.73438 348.7469Q336.9375 347.90314 336.9375 346.3875Q336.9375 344.825 337.75 343.96564Q338.5625 343.09064 339.84375 343.09064Q341.09375 343.09064 341.875 343.9344Q342.67188 344.77814 342.67188 346.325Q342.67188 346.41876 342.67188 346.60626L338.03125 346.60626Q338.09375 347.6375 338.60938 348.1844Q339.125 348.71564 339.90625 348.71564Q340.48438 348.71564 340.89062 348.41876Q341.3125 348.10626 341.54688 347.45ZM338.09375 345.7469L341.5625 345.7469Q341.5 344.95 341.17188 344.5594Q340.65625 343.95 339.85938 343.95Q339.125 343.95 338.625 344.4344Q338.14062 344.91876 338.09375 345.7469Z" fill-rule="nonzero"/><path fill="#000000" d="M26.753138 229.42917L26.596888 227.74167Q27.440638 227.58542 27.846888 227.1323Q28.237513 226.66354 28.237513 225.86667Q28.237513 225.03854 27.893763 224.61667Q27.534388 224.17917 27.050013 224.17917Q26.753138 224.17917 26.534388 224.36667Q26.315638 224.53854 26.159388 224.99167Q26.050013 225.28854 25.784388 226.36667Q25.440638 227.77292 24.940638 228.33542Q24.221888 229.11667 23.206263 229.11667Q22.550013 229.11667 21.987513 228.7573Q21.409388 228.3823 21.112513 227.67917Q20.815638 226.97604 20.815638 225.99167Q20.815638 224.36667 21.534388 223.55417Q22.237513 222.74167 23.409388 222.6948L23.487513 224.42917Q22.831263 224.53854 22.550013 224.91354Q22.253138 225.27292 22.253138 226.0073Q22.253138 226.7573 22.565638 227.1948Q22.753138 227.46042 23.096888 227.46042Q23.393763 227.46042 23.612513 227.21042Q23.893763 226.8823 24.190638 225.61667Q24.487513 224.35104 24.815638 223.74167Q25.128138 223.1323 25.690638 222.78854Q26.237513 222.4448 27.050013 222.4448Q27.784388 222.4448 28.440638 222.86667Q29.081263 223.27292 29.393763 224.02292Q29.706263 224.77292 29.706263 225.8823Q29.706263 227.52292 28.956263 228.39792Q28.190638 229.2573 26.753138 229.42917ZM28.018763 215.78854L29.550013 215.78854L29.550013 221.5698Q28.675013 221.47604 27.909388 221.0073Q27.128138 220.53854 25.846888 219.14792Q24.815638 218.03854 24.440638 217.78854Q23.925013 217.4448 23.425013 217.4448Q22.878138 217.4448 22.581263 217.74167Q22.284388 218.03854 22.284388 218.55417Q22.284388 219.0698 22.596888 219.3823Q22.909388 219.67917 23.628138 219.72604L23.471888 221.36667Q22.112513 221.22604 21.518763 220.46042Q20.925013 219.67917 20.925013 218.52292Q20.925013 217.24167 21.612513 216.52292Q22.300013 215.78854 23.315638 215.78854Q23.893763 215.78854 24.425013 216.0073Q24.940638 216.21042 25.518763 216.66354Q25.893763 216.96042 26.612513 217.74167Q27.331263 218.52292 27.565638 218.72604Q27.800013 218.92917 28.018763 219.0698L28.018763 215.78854ZM28.018763 208.78854L29.550013 208.78854L29.550013 214.5698Q28.675013 214.47604 27.909388 214.0073Q27.128138 213.53854 25.846888 212.14792Q24.815638 211.03854 24.440638 210.78854Q23.925013 210.4448 23.425013 210.4448Q22.878138 210.4448 22.581263 210.74167Q22.284388 211.03854 22.284388 211.55417Q22.284388 212.0698 22.596888 212.3823Q22.909388 212.67917 23.628138 212.72604L23.471888 214.36667Q22.112513 214.22604 21.518763 213.46042Q20.925013 212.67917 20.925013 211.52292Q20.925013 210.24167 21.612513 209.52292Q22.300013 208.78854 23.315638 208.78854Q23.893763 208.78854 24.425013 209.0073Q24.940638 209.21042 25.518763 209.66354Q25.893763 209.96042 26.612513 210.74167Q27.331263 211.52292 27.565638 211.72604Q27.800013 211.92917 28.018763 212.0698L28.018763 208.78854ZM32.08126 201.27292L32.08126 202.39792Q30.721888 203.30417 29.268763 203.77292Q27.800013 204.24167 26.440638 204.24167Q24.737513 204.24167 23.237513 203.66354Q21.925013 203.14792 20.815638 202.3823L20.815638 201.2573Q22.581263 202.05417 23.831263 202.36667Q25.081263 202.66354 26.471888 202.66354Q27.440638 202.66354 28.456263 202.49167Q29.456263 202.30417 30.362513 201.99167Q30.956263 201.78854 32.08126 201.27292ZM29.550013 200.02292L20.956263 200.02292L20.956263 197.41354L26.815638 195.86667L20.956263 194.3198L20.956263 191.72604L29.550013 191.72604L29.550013 193.33542L22.784388 193.33542L29.550013 195.03854L29.550013 196.71042L22.784388 198.39792L29.550013 198.39792L29.550013 200.02292ZM29.550013 189.99167L20.956263 189.99167L20.956263 187.21042Q20.956263 185.6323 21.081263 185.14792Q21.284388 184.41354 21.940638 183.91354Q22.581263 183.41354 23.596888 183.41354Q24.393763 183.41354 24.940638 183.71042Q25.471888 183.99167 25.784388 184.42917Q26.081263 184.86667 26.190638 185.33542Q26.315638 185.9448 26.315638 187.1323L26.315638 188.2573L29.550013 188.2573L29.550013 189.99167ZM22.409388 188.2573L24.846888 188.2573L24.846888 187.30417Q24.846888 186.28854 24.721888 185.9448Q24.581263 185.58542 24.300013 185.39792Q24.003138 185.1948 23.628138 185.1948Q23.159388 185.1948 22.862513 185.47604Q22.550013 185.7573 22.471888 186.17917Q22.409388 186.47604 22.409388 187.41354L22.409388 188.2573ZM25.221888 180.77292L24.956263 182.27292Q24.050013 182.02292 23.628138 181.41354Q23.190638 180.78854 23.190638 179.5698Q23.190638 178.47604 23.456263 177.9448Q23.706263 177.39792 24.112513 177.17917Q24.503138 176.96042 25.581263 176.96042L27.503138 176.97604Q28.331263 176.97604 28.721888 176.89792Q29.096888 176.8198 29.550013 176.60104L29.550013 178.22604Q29.378138 178.28854 29.065638 178.3823Q28.909388 178.42917 28.862513 178.4448Q29.284388 178.86667 29.487513 179.35104Q29.690638 179.8198 29.690638 180.36667Q29.690638 181.33542 29.175013 181.89792Q28.643763 182.4448 27.846888 182.4448Q27.315638 182.4448 26.909388 182.1948Q26.503138 181.92917 26.284388 181.47604Q26.050013 181.02292 25.893763 180.16354Q25.675013 179.02292 25.487513 178.5698L25.331263 178.5698Q24.846888 178.5698 24.643763 178.80417Q24.440638 179.03854 24.440638 179.6948Q24.440638 180.1323 24.612513 180.3823Q24.784388 180.61667 25.221888 180.77292ZM26.565638 178.5698Q26.659388 178.8823 26.815638 179.5698Q26.956263 180.2573 27.096888 180.47604Q27.331263 180.78854 27.675013 180.78854Q28.018763 180.78854 28.284388 180.53854Q28.534388 180.27292 28.534388 179.8823Q28.534388 179.42917 28.237513 179.02292Q28.018763 178.72604 27.690638 178.6323Q27.487513 178.5698 26.893763 178.5698L26.565638 178.5698ZM32.08126 175.46042Q31.034388 174.97604 30.471888 174.77292Q29.925013 174.5698 29.206263 174.41354Q28.471888 174.24167 27.815638 174.16354Q27.159388 174.0698 26.471888 174.0698Q25.081263 174.0698 23.831263 174.36667Q22.581263 174.66354 20.815638 175.47604L20.815638 174.35104Q22.065638 173.47604 23.487513 172.99167Q24.893763 172.49167 26.346888 172.49167Q27.581263 172.49167 28.971888 172.8823Q30.550013 173.3198 32.08126 174.3198L32.08126 175.46042Z" fill-rule="nonzero"/><path fill="#000000" d="M53.925 301.8719L53.925 300.8094L57.175 300.8094L57.175 301.8719L53.925 301.8719ZM58.05 302.2L59.159374 302.10626Q59.284374 302.91876 59.721874 303.325Q60.175 303.73126 60.815624 303.73126Q61.565624 303.73126 62.096874 303.15314Q62.628124 302.575 62.628124 301.6375Q62.628124 300.73126 62.1125 300.21564Q61.6125 299.6844 60.784374 299.6844Q60.284374 299.6844 59.8625 299.91876Q59.45625 300.15314 59.221874 300.5125L58.2375 300.3875L59.065624 295.98126L63.346874 295.98126L63.346874 296.98126L59.909374 296.98126L59.45625 299.29376Q60.221874 298.7469 61.065624 298.7469Q62.190624 298.7469 62.95625 299.52814Q63.7375 300.3094 63.7375 301.54376Q63.7375 302.7 63.065624 303.5594Q62.2375 304.59064 60.815624 304.59064Q59.64375 304.59064 58.89375 303.9344Q58.159374 303.27814 58.05 302.2ZM65.05 300.21564Q65.05 298.6844 65.3625 297.7625Q65.675 296.825 66.28438 296.325Q66.90938 295.825 67.84688 295.825Q68.53438 295.825 69.05 296.10626Q69.58125 296.3875 69.925 296.91876Q70.26875 297.4344 70.45625 298.1844Q70.64375 298.9344 70.64375 300.21564Q70.64375 301.73126 70.33125 302.65314Q70.03438 303.575 69.40938 304.09064Q68.8 304.59064 67.84688 304.59064Q66.6125 304.59064 65.89375 303.7Q65.05 302.6375 65.05 300.21564ZM66.12813 300.21564Q66.12813 302.325 66.62813 303.02814Q67.12813 303.73126 67.84688 303.73126Q68.58125 303.73126 69.06563 303.02814Q69.56563 302.325 69.56563 300.21564Q69.56563 298.09064 69.06563 297.40314Q68.58125 296.7 67.83125 296.7Q67.1125 296.7 66.675 297.3094Q66.12813 298.09064 66.12813 300.21564Z" fill-rule="nonzero"/><path fill="#000000" d="M53.925 259.43854L53.925 258.37604L57.175 258.37604L57.175 259.43854L53.925 259.43854ZM61.425 262.01666L61.425 259.95416L57.70625 259.95416L57.70625 258.9854L61.628124 253.42291L62.4875 253.42291L62.4875 258.9854L63.64375 258.9854L63.64375 259.95416L62.4875 259.95416L62.4875 262.01666L61.425 262.01666ZM61.425 258.9854L61.425 255.12604L58.7375 258.9854L61.425 258.9854ZM65.05 257.7823Q65.05 256.25104 65.3625 255.32916Q65.675 254.39166 66.28438 253.89166Q66.90938 253.39166 67.84688 253.39166Q68.53438 253.39166 69.05 253.67291Q69.58125 253.95416 69.925 254.48541Q70.26875 255.00104 70.45625 255.75104Q70.64375 256.50104 70.64375 257.7823Q70.64375 259.2979 70.33125 260.2198Q70.03438 261.14166 69.40938 261.6573Q68.8 262.1573 67.84688 262.1573Q66.6125 262.1573 65.89375 261.26666Q65.05 260.20416 65.05 257.7823ZM66.12813 257.7823Q66.12813 259.89166 66.62813 260.5948Q67.12813 261.2979 67.84688 261.2979Q68.58125 261.2979 69.06563 260.5948Q69.56563 259.89166 69.56563 257.7823Q69.56563 255.65729 69.06563 254.96979Q68.58125 254.26666 67.83125 254.26666Q67.1125 254.26666 66.675 254.87604Q66.12813 255.65729 66.12813 257.7823Z" fill-rule="nonzero"/><path fill="#000000" d="M53.925 217.0052L53.925 215.9427L57.175 215.9427L57.175 217.0052L53.925 217.0052ZM58.05 217.3177L59.1125 217.17708Q59.284374 218.0677 59.721874 218.47395Q60.159374 218.86458 60.784374 218.86458Q61.534374 218.86458 62.05 218.34895Q62.565624 217.83333 62.565624 217.0677Q62.565624 216.34895 62.08125 215.8802Q61.6125 215.39583 60.878124 215.39583Q60.58125 215.39583 60.128124 215.52083L60.253124 214.58333Q60.3625 214.59895 60.425 214.59895Q61.096874 214.59895 61.628124 214.2552Q62.175 213.89583 62.175 213.16145Q62.175 212.58333 61.784374 212.20833Q61.39375 211.8177 60.76875 211.8177Q60.159374 211.8177 59.7375 212.20833Q59.33125 212.59895 59.221874 213.36458L58.159374 213.17708Q58.346874 212.1302 59.034374 211.55208Q59.721874 210.95833 60.7375 210.95833Q61.440624 210.95833 62.034374 211.27083Q62.628124 211.5677 62.940624 212.08333Q63.253124 212.59895 63.253124 213.1927Q63.253124 213.73958 62.95625 214.20833Q62.659374 214.66145 62.08125 214.92708Q62.83125 215.09895 63.253124 215.66145Q63.675 216.20833 63.675 217.05208Q63.675 218.17708 62.846874 218.95833Q62.034374 219.73958 60.784374 219.73958Q59.659374 219.73958 58.909374 219.0677Q58.159374 218.3802 58.05 217.3177ZM65.05 215.34895Q65.05 213.8177 65.3625 212.89583Q65.675 211.95833 66.28438 211.45833Q66.90938 210.95833 67.84688 210.95833Q68.53438 210.95833 69.05 211.23958Q69.58125 211.52083 69.925 212.05208Q70.26875 212.5677 70.45625 213.3177Q70.64375 214.0677 70.64375 215.34895Q70.64375 216.86458 70.33125 217.78645Q70.03438 218.70833 69.40938 219.22395Q68.8 219.72395 67.84688 219.72395Q66.6125 219.72395 65.89375 218.83333Q65.05 217.77083 65.05 215.34895ZM66.12813 215.34895Q66.12813 217.45833 66.62813 218.16145Q67.12813 218.86458 67.84688 218.86458Q68.58125 218.86458 69.06563 218.16145Q69.56563 217.45833 69.56563 215.34895Q69.56563 213.22395 69.06563 212.53645Q68.58125 211.83333 67.83125 211.83333Q67.1125 211.83333 66.675 212.4427Q66.12813 213.22395 66.12813 215.34895Z" fill-rule="nonzero"/><path fill="#000000" d="M53.925 174.57187L53.925 173.50937L57.175 173.50937L57.175 174.57187L53.925 174.57187ZM63.596874 176.13437L63.596874 177.15L57.909374 177.15Q57.909374 176.775 58.034374 176.41562Q58.253124 175.8375 58.721874 175.275Q59.20625 174.7125 60.1125 173.97812Q61.51875 172.82187 62.003124 172.15Q62.503124 171.47812 62.503124 170.88437Q62.503124 170.25937 62.05 169.8375Q61.596874 169.4 60.878124 169.4Q60.1125 169.4 59.659374 169.85312Q59.20625 170.30624 59.190624 171.11874L58.1125 171.00937Q58.221874 169.79062 58.940624 169.16562Q59.675 168.525 60.909374 168.525Q62.14375 168.525 62.8625 169.2125Q63.58125 169.9 63.58125 170.91562Q63.58125 171.43124 63.3625 171.93124Q63.159374 172.41562 62.659374 172.97812Q62.175 173.525 61.05 174.47812Q60.096874 175.275 59.815624 175.57187Q59.55 175.85312 59.378124 176.13437L63.596874 176.13437ZM65.05 172.91562Q65.05 171.38437 65.3625 170.4625Q65.675 169.525 66.28438 169.025Q66.90938 168.525 67.84688 168.525Q68.53438 168.525 69.05 168.80624Q69.58125 169.0875 69.925 169.61874Q70.26875 170.13437 70.45625 170.88437Q70.64375 171.63437 70.64375 172.91562Q70.64375 174.43124 70.33125 175.35312Q70.03438 176.275 69.40938 176.79062Q68.8 177.29062 67.84688 177.29062Q66.6125 177.29062 65.89375 176.4Q65.05 175.3375 65.05 172.91562ZM66.12813 172.91562Q66.12813 175.025 66.62813 175.72812Q67.12813 176.43124 67.84688 176.43124Q68.58125 176.43124 69.06563 175.72812Q69.56563 175.025 69.56563 172.91562Q69.56563 170.79062 69.06563 170.10312Q68.58125 169.4 67.83125 169.4Q67.1125 169.4 66.675 170.00937Q66.12813 170.79062 66.12813 172.91562Z" fill-rule="nonzero"/><path fill="#000000" d="M53.925 132.13853L53.925 131.07603L57.175 131.07603L57.175 132.13853L53.925 132.13853ZM62.01875 134.71666L60.971874 134.71666L60.971874 127.99791Q60.58125 128.35728 59.95625 128.73228Q59.346874 129.09166 58.8625 129.26353L58.8625 128.24791Q59.7375 127.826035 60.39375 127.24791Q61.065624 126.65416 61.346874 126.09166L62.01875 126.09166L62.01875 134.71666ZM65.05 130.48228Q65.05 128.95103 65.3625 128.02916Q65.675 127.09166 66.28438 126.59166Q66.90938 126.09166 67.84688 126.09166Q68.53438 126.09166 69.05 126.37291Q69.58125 126.65416 69.925 127.18541Q70.26875 127.701035 70.45625 128.45103Q70.64375 129.20103 70.64375 130.48228Q70.64375 131.99791 70.33125 132.91978Q70.03438 133.84166 69.40938 134.35728Q68.8 134.85728 67.84688 134.85728Q66.6125 134.85728 65.89375 133.96666Q65.05 132.90416 65.05 130.48228ZM66.12813 130.48228Q66.12813 132.59166 66.62813 133.29478Q67.12813 133.99791 67.84688 133.99791Q68.58125 133.99791 69.06563 133.29478Q69.56563 132.59166 69.56563 130.48228Q69.56563 128.35728 69.06563 127.669785Q68.58125 126.96666 67.83125 126.96666Q67.1125 126.96666 66.675 127.576035Q66.12813 128.35728 66.12813 130.48228Z" fill-rule="nonzero"/><path fill="#000000" d="M65.05 88.04896Q65.05 86.51771 65.3625 85.59583Q65.675 84.65833 66.28438 84.15833Q66.90938 83.65833 67.84688 83.65833Q68.53438 83.65833 69.05 83.93958Q69.58125 84.22083 69.925 84.75208Q70.26875 85.26771 70.45625 86.01771Q70.64375 86.76771 70.64375 88.04896Q70.64375 89.56458 70.33125 90.48646Q70.03438 91.40833 69.40938 91.92396Q68.8 92.42396 67.84688 92.42396Q66.6125 92.42396 65.89375 91.53333Q65.05 90.47083 65.05 88.04896ZM66.12813 88.04896Q66.12813 90.15833 66.62813 90.86146Q67.12813 91.56458 67.84688 91.56458Q68.58125 91.56458 69.06563 90.86146Q69.56563 90.15833 69.56563 88.04896Q69.56563 85.92396 69.06563 85.23646Q68.58125 84.53333 67.83125 84.53333Q67.1125 84.53333 66.675 85.14271Q66.12813 85.92396 66.12813 88.04896Z" fill-rule="nonzero"/><path fill="#000000" d="M66.05 313.21564Q66.05 311.6844 66.3625 310.7625Q66.675 309.825 67.28438 309.325Q67.90938 308.825 68.84688 308.825Q69.53438 308.825 70.05 309.10626Q70.58125 309.3875 70.925 309.91876Q71.26875 310.4344 71.45625 311.1844Q71.64375 311.9344 71.64375 313.21564Q71.64375 314.73126 71.33125 315.65314Q71.03438 316.575 70.40938 317.09064Q69.8 317.59064 68.84688 317.59064Q67.6125 317.59064 66.89375 316.7Q66.05 315.6375 66.05 313.21564ZM67.12813 313.21564Q67.12813 315.325 67.62813 316.02814Q68.12813 316.73126 68.84688 316.73126Q69.58125 316.73126 70.06563 316.02814Q70.56563 315.325 70.56563 313.21564Q70.56563 311.09064 70.06563 310.40314Q69.58125 309.7 68.83125 309.7Q68.1125 309.7 67.675 310.3094Q67.12813 311.09064 67.12813 313.21564ZM73.64375 317.45L73.64375 316.2469L74.84688 316.2469L74.84688 317.45L73.64375 317.45ZM76.05 313.21564Q76.05 311.6844 76.3625 310.7625Q76.675 309.825 77.28438 309.325Q77.90938 308.825 78.84688 308.825Q79.53438 308.825 80.05 309.10626Q80.58125 309.3875 80.925 309.91876Q81.26875 310.4344 81.45625 311.1844Q81.64375 311.9344 81.64375 313.21564Q81.64375 314.73126 81.33125 315.65314Q81.03438 316.575 80.40938 317.09064Q79.8 317.59064 78.84688 317.59064Q77.6125 317.59064 76.89375 316.7Q76.05 315.6375 76.05 313.21564ZM77.12813 313.21564Q77.12813 315.325 77.62813 316.02814Q78.12813 316.73126 78.84688 316.73126Q79.58125 316.73126 80.06563 316.02814Q80.56563 315.325 80.56563 313.21564Q80.56563 311.09064 80.06563 310.40314Q79.58125 309.7 78.83125 309.7Q78.1125 309.7 77.675 310.3094Q77.12813 311.09064 77.12813 313.21564ZM83.05 313.21564Q83.05 311.6844 83.3625 310.7625Q83.675 309.825 84.28438 309.325Q84.90938 308.825 85.84688 308.825Q86.53438 308.825 87.05 309.10626Q87.58125 309.3875 87.925 309.91876Q88.26875 310.4344 88.45625 311.1844Q88.64375 311.9344 88.64375 313.21564Q88.64375 314.73126 88.33125 315.65314Q88.03438 316.575 87.40938 317.09064Q86.8 317.59064 85.84688 317.59064Q84.6125 317.59064 83.89375 316.7Q83.05 315.6375 83.05 313.21564ZM84.12813 313.21564Q84.12813 315.325 84.62813 316.02814Q85.12813 316.73126 85.84688 316.73126Q86.58125 316.73126 87.06563 316.02814Q87.56563 315.325 87.56563 313.21564Q87.56563 311.09064 87.06563 310.40314Q86.58125 309.7 85.83125 309.7Q85.1125 309.7 84.675 310.3094Q84.12813 311.09064 84.12813 313.21564Z" fill-rule="nonzero"/><path fill="#000000" d="M192.025 313.21564Q192.025 311.6844 192.3375 310.7625Q192.65 309.825 193.25937 309.325Q193.88437 308.825 194.82187 308.825Q195.50937 308.825 196.025 309.10626Q196.55624 309.3875 196.9 309.91876Q197.24374 310.4344 197.43124 311.1844Q197.61874 311.9344 197.61874 313.21564Q197.61874 314.73126 197.30624 315.65314Q197.00937 316.575 196.38437 317.09064Q195.775 317.59064 194.82187 317.59064Q193.5875 317.59064 192.86874 316.7Q192.025 315.6375 192.025 313.21564ZM193.10312 313.21564Q193.10312 315.325 193.60312 316.02814Q194.10312 316.73126 194.82187 316.73126Q195.55624 316.73126 196.04062 316.02814Q196.54062 315.325 196.54062 313.21564Q196.54062 311.09064 196.04062 310.40314Q195.55624 309.7 194.80624 309.7Q194.0875 309.7 193.65 310.3094Q193.10312 311.09064 193.10312 313.21564ZM199.61874 317.45L199.61874 316.2469L200.82187 316.2469L200.82187 317.45L199.61874 317.45ZM207.57187 316.4344L207.57187 317.45L201.88437 317.45Q201.88437 317.075 202.00937 316.71564Q202.22812 316.1375 202.69687 315.575Q203.18124 315.0125 204.0875 314.27814Q205.49374 313.1219 205.97812 312.45Q206.47812 311.77814 206.47812 311.1844Q206.47812 310.5594 206.025 310.1375Q205.57187 309.7 204.85312 309.7Q204.0875 309.7 203.63437 310.15314Q203.18124 310.60626 203.16562 311.41876L202.0875 311.3094Q202.19687 310.09064 202.91562 309.46564Q203.65 308.825 204.88437 308.825Q206.11874 308.825 206.8375 309.5125Q207.55624 310.2 207.55624 311.21564Q207.55624 311.73126 207.3375 312.23126Q207.13437 312.71564 206.63437 313.27814Q206.15 313.825 205.025 314.77814Q204.07187 315.575 203.79062 315.8719Q203.525 316.15314 203.35312 316.4344L207.57187 316.4344ZM209.025 315.2L210.13437 315.10626Q210.25937 315.91876 210.69687 316.325Q211.15 316.73126 211.79062 316.73126Q212.54062 316.73126 213.07187 316.15314Q213.60312 315.575 213.60312 314.6375Q213.60312 313.73126 213.0875 313.21564Q212.5875 312.6844 211.75937 312.6844Q211.25937 312.6844 210.8375 312.91876Q210.43124 313.15314 210.19687 313.5125L209.2125 313.3875L210.04062 308.98126L214.32187 308.98126L214.32187 309.98126L210.88437 309.98126L210.43124 312.29376Q211.19687 311.7469 212.04062 311.7469Q213.16562 311.7469 213.93124 312.52814Q214.7125 313.3094 214.7125 314.54376Q214.7125 315.7 214.04062 316.5594Q213.2125 317.59064 211.79062 317.59064Q210.61874 317.59064 209.86874 316.9344Q209.13437 316.27814 209.025 315.2Z" fill-rule="nonzero"/><path fill="#000000" d="M318.0 313.21564Q318.0 311.6844 318.3125 310.7625Q318.625 309.825 319.23438 309.325Q319.85938 308.825 320.79688 308.825Q321.48438 308.825 322.0 309.10626Q322.53125 309.3875 322.875 309.91876Q323.21875 310.4344 323.40625 311.1844Q323.59375 311.9344 323.59375 313.21564Q323.59375 314.73126 323.28125 315.65314Q322.98438 316.575 322.35938 317.09064Q321.75 317.59064 320.79688 317.59064Q319.5625 317.59064 318.84375 316.7Q318.0 315.6375 318.0 313.21564ZM319.07812 313.21564Q319.07812 315.325 319.57812 316.02814Q320.07812 316.73126 320.79688 316.73126Q321.53125 316.73126 322.01562 316.02814Q322.51562 315.325 322.51562 313.21564Q322.51562 311.09064 322.01562 310.40314Q321.53125 309.7 320.78125 309.7Q320.0625 309.7 319.625 310.3094Q319.07812 311.09064 319.07812 313.21564ZM325.59375 317.45L325.59375 316.2469L326.79688 316.2469L326.79688 317.45L325.59375 317.45ZM328.0 315.2L329.10938 315.10626Q329.23438 315.91876 329.67188 316.325Q330.125 316.73126 330.76562 316.73126Q331.51562 316.73126 332.04688 316.15314Q332.57812 315.575 332.57812 314.6375Q332.57812 313.73126 332.0625 313.21564Q331.5625 312.6844 330.73438 312.6844Q330.23438 312.6844 329.8125 312.91876Q329.40625 313.15314 329.17188 313.5125L328.1875 313.3875L329.01562 308.98126L333.29688 308.98126L333.29688 309.98126L329.85938 309.98126L329.40625 312.29376Q330.17188 311.7469 331.01562 311.7469Q332.14062 311.7469 332.90625 312.52814Q333.6875 313.3094 333.6875 314.54376Q333.6875 315.7 333.01562 316.5594Q332.1875 317.59064 330.76562 317.59064Q329.59375 317.59064 328.84375 316.9344Q328.10938 316.27814 328.0 315.2ZM335.0 313.21564Q335.0 311.6844 335.3125 310.7625Q335.625 309.825 336.23438 309.325Q336.85938 308.825 337.79688 308.825Q338.48438 308.825 339.0 309.10626Q339.53125 309.3875 339.875 309.91876Q340.21875 310.4344 340.40625 311.1844Q340.59375 311.9344 340.59375 313.21564Q340.59375 314.73126 340.28125 315.65314Q339.98438 316.575 339.35938 317.09064Q338.75 317.59064 337.79688 317.59064Q336.5625 317.59064 335.84375 316.7Q335.0 315.6375 335.0 313.21564ZM336.07812 313.21564Q336.07812 315.325 336.57812 316.02814Q337.07812 316.73126 337.79688 316.73126Q338.53125 316.73126 339.01562 316.02814Q339.51562 315.325 339.51562 313.21564Q339.51562 311.09064 339.01562 310.40314Q338.53125 309.7 337.78125 309.7Q337.0625 309.7 336.625 310.3094Q336.07812 311.09064 336.07812 313.21564Z" fill-rule="nonzero"/><path fill="#000000" d="M443.975 313.21564Q443.975 311.6844 444.2875 310.7625Q444.6 309.825 445.20938 309.325Q445.83438 308.825 446.77188 308.825Q447.45938 308.825 447.975 309.10626Q448.50626 309.3875 448.85 309.91876Q449.19376 310.4344 449.38126 311.1844Q449.56876 311.9344 449.56876 313.21564Q449.56876 314.73126 449.25626 315.65314Q448.95938 316.575 448.33438 317.09064Q447.725 317.59064 446.77188 317.59064Q445.5375 317.59064 444.81876 316.7Q443.975 315.6375 443.975 313.21564ZM445.05313 313.21564Q445.05313 315.325 445.55313 316.02814Q446.05313 316.73126 446.77188 316.73126Q447.50626 316.73126 447.99063 316.02814Q448.49063 315.325 448.49063 313.21564Q448.49063 311.09064 447.99063 310.40314Q447.50626 309.7 446.75626 309.7Q446.0375 309.7 445.6 310.3094Q445.05313 311.09064 445.05313 313.21564ZM451.56876 317.45L451.56876 316.2469L452.77188 316.2469L452.77188 317.45L451.56876 317.45ZM454.0375 309.98126L454.0375 308.96564L459.6 308.96564L459.6 309.79376Q458.7875 310.66876 457.975 312.1219Q457.17813 313.5594 456.74063 315.09064Q456.4125 316.16876 456.33438 317.45L455.24063 317.45Q455.25626 316.4344 455.63126 314.9969Q456.02188 313.5594 456.725 312.23126Q457.44376 310.90314 458.25626 309.98126L454.0375 309.98126ZM460.975 315.2L462.08438 315.10626Q462.20938 315.91876 462.64688 316.325Q463.1 316.73126 463.74063 316.73126Q464.49063 316.73126 465.02188 316.15314Q465.55313 315.575 465.55313 314.6375Q465.55313 313.73126 465.0375 313.21564Q464.5375 312.6844 463.70938 312.6844Q463.20938 312.6844 462.7875 312.91876Q462.38126 313.15314 462.14688 313.5125L461.1625 313.3875L461.99063 308.98126L466.27188 308.98126L466.27188 309.98126L462.83438 309.98126L462.38126 312.29376Q463.14688 311.7469 463.99063 311.7469Q465.11563 311.7469 465.88126 312.52814Q466.6625 313.3094 466.6625 314.54376Q466.6625 315.7 465.99063 316.5594Q465.1625 317.59064 463.74063 317.59064Q462.56876 317.59064 461.81876 316.9344Q461.08438 316.27814 460.975 315.2Z" fill-rule="nonzero"/><path fill="#000000" d="M573.91876 317.45L572.8719 317.45L572.8719 310.73126Q572.48126 311.09064 571.85626 311.46564Q571.2469 311.825 570.7625 311.9969L570.7625 310.98126Q571.6375 310.5594 572.29376 309.98126Q572.96564 309.3875 573.2469 308.825L573.91876 308.825L573.91876 317.45ZM577.54376 317.45L577.54376 316.2469L578.7469 316.2469L578.7469 317.45L577.54376 317.45ZM579.95 313.21564Q579.95 311.6844 580.2625 310.7625Q580.575 309.825 581.1844 309.325Q581.8094 308.825 582.7469 308.825Q583.4344 308.825 583.95 309.10626Q584.48126 309.3875 584.825 309.91876Q585.16876 310.4344 585.35626 311.1844Q585.54376 311.9344 585.54376 313.21564Q585.54376 314.73126 585.23126 315.65314Q584.9344 316.575 584.3094 317.09064Q583.7 317.59064 582.7469 317.59064Q581.5125 317.59064 580.79376 316.7Q579.95 315.6375 579.95 313.21564ZM581.02814 313.21564Q581.02814 315.325 581.52814 316.02814Q582.02814 316.73126 582.7469 316.73126Q583.48126 316.73126 583.96564 316.02814Q584.46564 315.325 584.46564 313.21564Q584.46564 311.09064 583.96564 310.40314Q583.48126 309.7 582.73126 309.7Q582.0125 309.7 581.575 310.3094Q581.02814 311.09064 581.02814 313.21564ZM586.95 313.21564Q586.95 311.6844 587.2625 310.7625Q587.575 309.825 588.1844 309.325Q588.8094 308.825 589.7469 308.825Q590.4344 308.825 590.95 309.10626Q591.48126 309.3875 591.825 309.91876Q592.16876 310.4344 592.35626 311.1844Q592.54376 311.9344 592.54376 313.21564Q592.54376 314.73126 592.23126 315.65314Q591.9344 316.575 591.3094 317.09064Q590.7 317.59064 589.7469 317.59064Q588.5125 317.59064 587.79376 316.7Q586.95 315.6375 586.95 313.21564ZM588.02814 313.21564Q588.02814 315.325 588.52814 316.02814Q589.02814 316.73126 589.7469 316.73126Q590.48126 316.73126 590.96564 316.02814Q591.46564 315.325 591.46564 313.21564Q591.46564 311.09064 590.96564 310.40314Q590.48126 309.7 589.73126 309.7Q589.0125 309.7 588.575 310.3094Q588.02814 311.09064 588.02814 313.21564Z" fill-rule="nonzero"/><path fill="#4285f4" d="M218.0 56.916668C218.0 56.364384 218.44771 55.916668 219.0 55.916668L229.0 55.916668C229.55229 55.916668 230.0 56.364384 230.0 56.916668L230.0 66.916664C230.0 67.46895 229.55229 67.916664 229.0 67.916664L219.0 67.916664C218.44771 67.916664 218.0 67.46895 218.0 66.916664Z" fill-rule="nonzero"/><path fill="#1a1a1a" d="M238.92188 65.916664L238.92188 57.322914L242.17188 57.322914Q243.01562 57.322914 243.46875 57.40104Q244.10938 57.510414 244.53125 57.80729Q244.96875 58.104164 245.21875 58.635414Q245.48438 59.166664 245.48438 59.80729Q245.48438 60.90104 244.78125 61.666664Q244.09375 62.416664 242.26562 62.416664L240.0625 62.416664L240.0625 65.916664L238.92188 65.916664ZM240.0625 61.416664L242.28125 61.416664Q243.39062 61.416664 243.84375 61.010414Q244.3125 60.58854 244.3125 59.83854Q244.3125 59.30729 244.03125 58.93229Q243.76562 58.541664 243.32812 58.416664Q243.03125 58.33854 242.26562 58.33854L240.0625 58.33854L240.0625 61.416664ZM246.40625 62.80729Q246.40625 61.072914 247.35938 60.24479Q248.15625 59.55729 249.3125 59.55729Q250.59375 59.55729 251.40625 60.40104Q252.23438 61.229164 252.23438 62.71354Q252.23438 63.916664 251.875 64.604164Q251.51562 65.291664 250.8125 65.68229Q250.125 66.05729 249.3125 66.05729Q248.01562 66.05729 247.20312 65.229164Q246.40625 64.385414 246.40625 62.80729ZM247.48438 62.80729Q247.48438 63.99479 248.0 64.58854Q248.53125 65.18229 249.3125 65.18229Q250.10938 65.18229 250.625 64.58854Q251.14062 63.99479 251.14062 62.77604Q251.14062 61.61979 250.60938 61.02604Q250.09375 60.43229 249.3125 60.43229Q248.53125 60.43229 248.0 61.02604Q247.48438 61.604164 247.48438 62.80729ZM253.375 64.05729L254.40625 63.90104Q254.5 64.52604 254.89062 64.854164Q255.29688 65.18229 256.03125 65.18229Q256.75 65.18229 257.09375 64.90104Q257.45312 64.604164 257.45312 64.197914Q257.45312 63.83854 257.14062 63.635414Q256.92188 63.49479 256.0625 63.27604Q254.90625 62.979164 254.45312 62.77604Q254.01562 62.55729 253.78125 62.18229Q253.54688 61.80729 253.54688 61.33854Q253.54688 60.93229 253.73438 60.572914Q253.92188 60.21354 254.25 59.979164Q254.5 59.80729 254.92188 59.68229Q255.34375 59.55729 255.84375 59.55729Q256.5625 59.55729 257.10938 59.77604Q257.67188 59.979164 257.9375 60.33854Q258.20312 60.697914 258.29688 61.291664L257.26562 61.43229Q257.20312 60.96354 256.85938 60.697914Q256.53125 60.416664 255.90625 60.416664Q255.1875 60.416664 254.875 60.666664Q254.5625 60.90104 254.5625 61.229164Q254.5625 61.43229 254.6875 61.58854Q254.82812 61.760414 255.09375 61.86979Q255.25 61.93229 256.03125 62.135414Q257.15625 62.447914 257.59375 62.635414Q258.03125 62.822914 258.28125 63.18229Q258.53125 63.541664 258.53125 64.08854Q258.53125 64.61979 258.21875 65.08854Q257.92188 65.541664 257.34375 65.80729Q256.76562 66.05729 256.03125 66.05729Q254.8125 66.05729 254.17188 65.55729Q253.54688 65.041664 253.375 64.05729ZM263.09375 64.979164L263.25 65.90104Q262.79688 65.99479 262.45312 65.99479Q261.875 65.99479 261.5625 65.822914Q261.25 65.635414 261.10938 65.33854Q260.98438 65.041664 260.98438 64.08854L260.98438 60.510414L260.21875 60.510414L260.21875 59.697914L260.98438 59.697914L260.98438 58.15104L262.03125 57.52604L262.03125 59.697914L263.09375 59.697914L263.09375 60.510414L262.03125 60.510414L262.03125 64.15104Q262.03125 64.604164 262.07812 64.729164Q262.14062 64.854164 262.26562 64.93229Q262.39062 65.010414 262.625 65.010414Q262.8125 65.010414 263.09375 64.979164ZM263.375 63.33854L263.375 62.27604L266.625 62.27604L266.625 63.33854L263.375 63.33854ZM267.92188 65.916664L267.92188 57.322914L271.17188 57.322914Q272.01562 57.322914 272.46875 57.40104Q273.10938 57.510414 273.53125 57.80729Q273.96875 58.104164 274.21875 58.635414Q274.48438 59.166664 274.48438 59.80729Q274.48438 60.90104 273.78125 61.666664Q273.09375 62.416664 271.26562 62.416664L269.0625 62.416664L269.0625 65.916664L267.92188 65.916664ZM269.0625 61.416664L271.28125 61.416664Q272.39062 61.416664 272.84375 61.010414Q273.3125 60.58854 273.3125 59.83854Q273.3125 59.30729 273.03125 58.93229Q272.76562 58.541664 272.32812 58.416664Q272.03125 58.33854 271.26562 58.33854L269.0625 58.33854L269.0625 61.416664ZM280.04688 63.916664L281.14062 64.041664Q280.89062 64.99479 280.1875 65.52604Q279.48438 66.05729 278.40625 66.05729Q277.04688 66.05729 276.23438 65.21354Q275.4375 64.36979 275.4375 62.854164Q275.4375 61.291664 276.25 60.43229Q277.0625 59.55729 278.34375 59.55729Q279.59375 59.55729 280.375 60.40104Q281.17188 61.24479 281.17188 62.791664Q281.17188 62.885414 281.17188 63.072914L276.53125 63.072914Q276.59375 64.104164 277.10938 64.65104Q277.625 65.18229 278.40625 65.18229Q278.98438 65.18229 279.39062 64.885414Q279.8125 64.572914 280.04688 63.916664ZM276.59375 62.21354L280.0625 62.21354Q280.0 61.416664 279.67188 61.02604Q279.15625 60.416664 278.35938 60.416664Q277.625 60.416664 277.125 60.90104Q276.64062 61.385414 276.59375 62.21354ZM286.85938 65.15104Q286.26562 65.65104 285.71875 65.854164Q285.1875 66.05729 284.5625 66.05729Q283.53125 66.05729 282.98438 65.55729Q282.4375 65.05729 282.4375 64.27604Q282.4375 63.822914 282.64062 63.447914Q282.84375 63.05729 283.1875 62.83854Q283.53125 62.604164 283.95312 62.49479Q284.25 62.40104 284.89062 62.322914Q286.15625 62.18229 286.76562 61.96354Q286.76562 61.74479 286.76562 61.697914Q286.76562 61.041664 286.46875 60.77604Q286.0625 60.43229 285.26562 60.43229Q284.53125 60.43229 284.17188 60.697914Q283.8125 60.947914 283.64062 61.604164L282.60938 61.46354Q282.75 60.80729 283.07812 60.40104Q283.40625 59.99479 284.01562 59.77604Q284.625 59.55729 285.42188 59.55729Q286.21875 59.55729 286.71875 59.74479Q287.21875 59.93229 287.45312 60.21354Q287.6875 60.49479 287.78125 60.93229Q287.82812 61.197914 287.82812 61.90104L287.82812 63.30729Q287.82812 64.77604 287.89062 65.166664Q287.96875 65.55729 288.17188 65.916664L287.0625 65.916664Q286.90625 65.58854 286.85938 65.15104ZM286.76562 62.791664Q286.1875 63.02604 285.04688 63.197914Q284.39062 63.291664 284.125 63.416664Q283.85938 63.52604 283.70312 63.74479Q283.5625 63.96354 283.5625 64.24479Q283.5625 64.666664 283.875 64.947914Q284.20312 65.229164 284.8125 65.229164Q285.42188 65.229164 285.89062 64.96354Q286.375 64.697914 286.59375 64.229164Q286.76562 63.86979 286.76562 63.18229L286.76562 62.791664ZM289.79688 65.916664L289.79688 57.322914L290.85938 57.322914L290.85938 62.229164L293.34375 59.697914L294.71875 59.697914L292.32812 61.99479L294.95312 65.916664L293.65625 65.916664L291.59375 62.729164L290.85938 63.447914L290.85938 65.916664L289.79688 65.916664Z" fill-rule="nonzero"/><path fill="#ea4335" d="M311.0 56.916668C311.0 56.364384 311.44772 55.916668 312.0 55.916668L322.0 55.916668C322.55228 55.916668 323.0 56.364384 323.0 56.916668L323.0 66.916664C323.0 67.46895 322.55228 67.916664 322.0 67.916664L312.0 67.916664C311.44772 67.916664 311.0 67.46895 311.0 66.916664Z" fill-rule="nonzero"/><path fill="#1a1a1a" d="M331.92188 65.916664L331.92188 57.322914L335.17188 57.322914Q336.01562 57.322914 336.46875 57.40104Q337.10938 57.510414 337.53125 57.80729Q337.96875 58.104164 338.21875 58.635414Q338.48438 59.166664 338.48438 59.80729Q338.48438 60.90104 337.78125 61.666664Q337.09375 62.416664 335.26562 62.416664L333.0625 62.416664L333.0625 65.916664L331.92188 65.916664ZM333.0625 61.416664L335.28125 61.416664Q336.39062 61.416664 336.84375 61.010414Q337.3125 60.58854 337.3125 59.83854Q337.3125 59.30729 337.03125 58.93229Q336.76562 58.541664 336.32812 58.416664Q336.03125 58.33854 335.26562 58.33854L333.0625 58.33854L333.0625 61.416664ZM339.78125 65.916664L339.78125 59.697914L340.73438 59.697914L340.73438 60.635414Q341.09375 59.979164 341.39062 59.77604Q341.70312 59.55729 342.07812 59.55729Q342.60938 59.55729 343.15625 59.885414L342.79688 60.86979Q342.40625 60.635414 342.03125 60.635414Q341.67188 60.635414 341.39062 60.854164Q341.125 61.05729 341.01562 61.43229Q340.82812 61.99479 340.82812 62.65104L340.82812 65.916664L339.78125 65.916664ZM348.04688 63.916664L349.14062 64.041664Q348.89062 64.99479 348.1875 65.52604Q347.48438 66.05729 346.40625 66.05729Q345.04688 66.05729 344.23438 65.21354Q343.4375 64.36979 343.4375 62.854164Q343.4375 61.291664 344.25 60.43229Q345.0625 59.55729 346.34375 59.55729Q347.59375 59.55729 348.375 60.40104Q349.17188 61.24479 349.17188 62.791664Q349.17188 62.885414 349.17188 63.072914L344.53125 63.072914Q344.59375 64.104164 345.10938 64.65104Q345.625 65.18229 346.40625 65.18229Q346.98438 65.18229 347.39062 64.885414Q347.8125 64.572914 348.04688 63.916664ZM344.59375 62.21354L348.0625 62.21354Q348.0 61.416664 347.67188 61.02604Q347.15625 60.416664 346.35938 60.416664Q345.625 60.416664 345.125 60.90104Q344.64062 61.385414 344.59375 62.21354ZM350.375 63.33854L350.375 62.27604L353.625 62.27604L353.625 63.33854L350.375 63.33854ZM354.92188 65.916664L354.92188 57.322914L358.17188 57.322914Q359.01562 57.322914 359.46875 57.40104Q360.10938 57.510414 360.53125 57.80729Q360.96875 58.104164 361.21875 58.635414Q361.48438 59.166664 361.48438 59.80729Q361.48438 60.90104 360.78125 61.666664Q360.09375 62.416664 358.26562 62.416664L356.0625 62.416664L356.0625 65.916664L354.92188 65.916664ZM356.0625 61.416664L358.28125 61.416664Q359.39062 61.416664 359.84375 61.010414Q360.3125 60.58854 360.3125 59.83854Q360.3125 59.30729 360.03125 58.93229Q359.76562 58.541664 359.32812 58.416664Q359.03125 58.33854 358.26562 58.33854L356.0625 58.33854L356.0625 61.416664ZM367.04688 63.916664L368.14062 64.041664Q367.89062 64.99479 367.1875 65.52604Q366.48438 66.05729 365.40625 66.05729Q364.04688 66.05729 363.23438 65.21354Q362.4375 64.36979 362.4375 62.854164Q362.4375 61.291664 363.25 60.43229Q364.0625 59.55729 365.34375 59.55729Q366.59375 59.55729 367.375 60.40104Q368.17188 61.24479 368.17188 62.791664Q368.17188 62.885414 368.17188 63.072914L363.53125 63.072914Q363.59375 64.104164 364.10938 64.65104Q364.625 65.18229 365.40625 65.18229Q365.98438 65.18229 366.39062 64.885414Q366.8125 64.572914 367.04688 63.916664ZM363.59375 62.21354L367.0625 62.21354Q367.0 61.416664 366.67188 61.02604Q366.15625 60.416664 365.35938 60.416664Q364.625 60.416664 364.125 60.90104Q363.64062 61.385414 363.59375 62.21354ZM373.85938 65.15104Q373.26562 65.65104 372.71875 65.854164Q372.1875 66.05729 371.5625 66.05729Q370.53125 66.05729 369.98438 65.55729Q369.4375 65.05729 369.4375 64.27604Q369.4375 63.822914 369.64062 63.447914Q369.84375 63.05729 370.1875 62.83854Q370.53125 62.604164 370.95312 62.49479Q371.25 62.40104 371.89062 62.322914Q373.15625 62.18229 373.76562 61.96354Q373.76562 61.74479 373.76562 61.697914Q373.76562 61.041664 373.46875 60.77604Q373.0625 60.43229 372.26562 60.43229Q371.53125 60.43229 371.17188 60.697914Q370.8125 60.947914 370.64062 61.604164L369.60938 61.46354Q369.75 60.80729 370.07812 60.40104Q370.40625 59.99479 371.01562 59.77604Q371.625 59.55729 372.42188 59.55729Q373.21875 59.55729 373.71875 59.74479Q374.21875 59.93229 374.45312 60.21354Q374.6875 60.49479 374.78125 60.93229Q374.82812 61.197914 374.82812 61.90104L374.82812 63.30729Q374.82812 64.77604 374.89062 65.166664Q374.96875 65.55729 375.17188 65.916664L374.0625 65.916664Q373.90625 65.58854 373.85938 65.15104ZM373.76562 62.791664Q373.1875 63.02604 372.04688 63.197914Q371.39062 63.291664 371.125 63.416664Q370.85938 63.52604 370.70312 63.74479Q370.5625 63.96354 370.5625 64.24479Q370.5625 64.666664 370.875 64.947914Q371.20312 65.229164 371.8125 65.229164Q372.42188 65.229164 372.89062 64.96354Q373.375 64.697914 373.59375 64.229164Q373.76562 63.86979 373.76562 63.18229L373.76562 62.791664ZM376.79688 65.916664L376.79688 57.322914L377.85938 57.322914L377.85938 62.229164L380.34375 59.697914L381.71875 59.697914L379.32812 61.99479L381.95312 65.916664L380.65625 65.916664L378.59375 62.729164L377.85938 63.447914L377.85938 65.916664L376.79688 65.916664Z" fill-rule="nonzero"/><path fill="#000000" d="M240.21875 32.89375L243.03125 32.6125Q243.29688 34.034374 244.0625 34.70625Q244.84375 35.3625 246.15625 35.3625Q247.5625 35.3625 248.26562 34.76875Q248.96875 34.175 248.96875 33.39375Q248.96875 32.878124 248.67188 32.534374Q248.375 32.175 247.64062 31.909374Q247.125 31.721874 245.32812 31.284374Q243.0 30.70625 242.0625 29.8625Q240.73438 28.675 240.73438 26.9875Q240.73438 25.89375 241.35938 24.940624Q241.98438 23.9875 243.14062 23.4875Q244.3125 22.9875 245.96875 22.9875Q248.65625 22.9875 250.01562 24.175Q251.39062 25.346874 251.45312 27.33125L248.5625 27.45625Q248.375 26.346874 247.76562 25.8625Q247.15625 25.378124 245.9375 25.378124Q244.67188 25.378124 243.96875 25.89375Q243.5 26.2375 243.5 26.784374Q243.5 27.3 243.9375 27.659374Q244.48438 28.1125 246.59375 28.6125Q248.70312 29.1125 249.70312 29.64375Q250.71875 30.175 251.28125 31.096874Q251.85938 32.01875 251.85938 33.378124Q251.85938 34.6125 251.17188 35.690624Q250.5 36.753124 249.25 37.284374Q248.0 37.8 246.125 37.8Q243.42188 37.8 241.95312 36.55Q240.5 35.3 240.21875 32.89375ZM262.625 35.003124L262.625 37.55L253.0 37.55Q253.15625 36.096874 253.9375 34.815624Q254.71875 33.51875 257.01562 31.378124Q258.875 29.64375 259.29688 29.034374Q259.85938 28.190624 259.85938 27.346874Q259.85938 26.440624 259.35938 25.95625Q258.875 25.45625 258.01562 25.45625Q257.15625 25.45625 256.64062 25.971874Q256.14062 26.4875 256.0625 27.690624L253.32812 27.409374Q253.5625 25.14375 254.84375 24.159374Q256.14062 23.175 258.07812 23.175Q260.20312 23.175 261.40625 24.315624Q262.625 25.45625 262.625 27.159374Q262.625 28.128124 262.26562 29.003124Q261.92188 29.878124 261.17188 30.83125Q260.67188 31.471874 259.375 32.659374Q258.07812 33.846874 257.73438 34.2375Q257.39062 34.628124 257.17188 35.003124L262.625 35.003124ZM273.625 35.003124L273.625 37.55L264.0 37.55Q264.15625 36.096874 264.9375 34.815624Q265.71875 33.51875 268.01562 31.378124Q269.875 29.64375 270.29688 29.034374Q270.85938 28.190624 270.85938 27.346874Q270.85938 26.440624 270.35938 25.95625Q269.875 25.45625 269.01562 25.45625Q268.15625 25.45625 267.64062 25.971874Q267.14062 26.4875 267.0625 27.690624L264.32812 27.409374Q264.5625 25.14375 265.84375 24.159374Q267.14062 23.175 269.07812 23.175Q271.20312 23.175 272.40625 24.315624Q273.625 25.45625 273.625 27.159374Q273.625 28.128124 273.26562 29.003124Q272.92188 29.878124 272.17188 30.83125Q271.67188 31.471874 270.375 32.659374Q269.07812 33.846874 268.73438 34.2375Q268.39062 34.628124 268.17188 35.003124L273.625 35.003124ZM290.78125 37.55L286.60938 27.175L289.48438 27.175L291.4375 32.471874L292.01562 34.2375Q292.23438 33.565624 292.29688 33.346874Q292.42188 32.909374 292.57812 32.471874L294.5625 27.175L297.375 27.175L293.26562 37.55L290.78125 37.55ZM297.96875 34.596874L300.71875 34.175Q300.90625 34.971874 301.4375 35.39375Q301.96875 35.8 302.9375 35.8Q304.0 35.8 304.54688 35.409374Q304.90625 35.14375 304.90625 34.675Q304.90625 34.3625 304.70312 34.159374Q304.5 33.971874 303.79688 33.8Q300.46875 33.065624 299.57812 32.45625Q298.34375 31.628124 298.34375 30.128124Q298.34375 28.784374 299.40625 27.8625Q300.48438 26.940624 302.71875 26.940624Q304.84375 26.940624 305.875 27.64375Q306.92188 28.33125 307.3125 29.690624L304.71875 30.159374Q304.54688 29.565624 304.07812 29.2375Q303.625 28.909374 302.76562 28.909374Q301.6875 28.909374 301.21875 29.221874Q300.90625 29.440624 300.90625 29.76875Q300.90625 30.065624 301.17188 30.26875Q301.54688 30.55 303.73438 31.05Q305.92188 31.55 306.79688 32.26875Q307.65625 33.003124 307.65625 34.3Q307.65625 35.7375 306.46875 36.76875Q305.28125 37.784374 302.9375 37.784374Q300.82812 37.784374 299.57812 36.925Q298.34375 36.065624 297.96875 34.596874ZM319.17188 37.55L319.17188 25.659374L314.9375 25.659374L314.9375 23.2375L326.3125 23.2375L326.3125 25.659374L322.0625 25.659374L322.0625 37.55L319.17188 37.55ZM328.9375 25.76875L328.9375 23.2375L331.6875 23.2375L331.6875 25.76875L328.9375 25.76875ZM328.9375 37.55L328.9375 27.175L331.6875 27.175L331.6875 37.55L328.9375 37.55ZM333.73438 27.175L336.26562 27.175L336.26562 28.596874Q337.625 26.940624 339.5 26.940624Q340.48438 26.940624 341.21875 27.3625Q341.95312 27.76875 342.42188 28.596874Q343.10938 27.76875 343.89062 27.3625Q344.6875 26.940624 345.59375 26.940624Q346.73438 26.940624 347.51562 27.409374Q348.3125 27.878124 348.70312 28.76875Q348.98438 29.440624 348.98438 30.925L348.98438 37.55L346.23438 37.55L346.23438 31.628124Q346.23438 30.08125 345.95312 29.628124Q345.57812 29.05 344.78125 29.05Q344.20312 29.05 343.6875 29.409374Q343.1875 29.753124 342.96875 30.425Q342.75 31.096874 342.75 32.565624L342.75 37.55L340.0 37.55L340.0 31.8625Q340.0 30.346874 339.84375 29.909374Q339.70312 29.471874 339.39062 29.26875Q339.09375 29.05 338.5625 29.05Q337.9375 29.05 337.42188 29.39375Q336.92188 29.721874 336.6875 30.378124Q336.46875 31.01875 336.46875 32.503124L336.46875 37.55L333.73438 37.55L333.73438 27.175ZM356.9375 34.253124L359.67188 34.70625Q359.15625 36.20625 358.01562 37.003124Q356.875 37.784374 355.17188 37.784374Q352.45312 37.784374 351.15625 36.01875Q350.14062 34.596874 350.14062 32.440624Q350.14062 29.8625 351.48438 28.409374Q352.82812 26.940624 354.89062 26.940624Q357.20312 26.940624 358.53125 28.471874Q359.875 30.003124 359.82812 33.159374L352.95312 33.159374Q352.98438 34.378124 353.60938 35.065624Q354.25 35.7375 355.1875 35.7375Q355.84375 35.7375 356.28125 35.39375Q356.71875 35.034374 356.9375 34.253124ZM357.09375 31.471874Q357.0625 30.284374 356.46875 29.675Q355.89062 29.05 355.0625 29.05Q354.15625 29.05 353.57812 29.690624Q352.98438 30.346874 353.0 31.471874L357.09375 31.471874Z" fill-rule="nonzero"/></svg>