<svg version="1.1" viewBox="0.0 0.0 600.0 371.0" fill="none" stroke="none" stroke-linecap="square" stroke-miterlimit="10" width="600" height="371" xmlns:xlink="http://www.w3.org/1999/xlink" xmlns="http://www.w3.org/2000/svg"><path fill="#ffffff" d="M0 0L600.0 0L600.0 371.0L0 371.0L0 0Z" fill-rule="nonzero"/><path stroke="#cccccc" stroke-width="1.0" stroke-linecap="butt" d="M166.5 61.5L166.5 300.5" fill-rule="nonzero"/><path stroke="#cccccc" stroke-width="1.0" stroke-linecap="butt" d="M255.5 61.5L255.5 300.5" fill-rule="nonzero"/><path stroke="#cccccc" stroke-width="1.0" stroke-linecap="butt" d="M344.5 61.5L344.5 300.5" fill-rule="nonzero"/><path stroke="#cccccc" stroke-width="1.0" stroke-linecap="butt" d="M433.5 61.5L433.5 300.5" fill-rule="nonzero"/><path stroke="#cccccc" stroke-width="1.0" stroke-linecap="butt" d="M522.5 61.5L522.5 300.5" fill-rule="nonzero"/><path stroke="#333333" stroke-width="1.0" stroke-linecap="butt" d="M77.5 300.5L581.5 300.5" fill-rule="nonzero"/><path stroke="#cccccc" stroke-width="1.0" stroke-linecap="butt" d="M77.5 252.5L581.5 252.5" fill-rule="nonzero"/><path stroke="#cccccc" stroke-width="1.0" stroke-linecap="butt" d="M77.5 205.5L581.5 205.5" fill-rule="nonzero"/><path stroke="#cccccc" stroke-width="1.0" stroke-linecap="butt" d="M77.5 157.5L581.5 157.5" fill-rule="nonzero"/><path stroke="#cccccc" stroke-width="1.0" stroke-linecap="butt" d="M77.5 109.5L581.5 109.5" fill-rule="nonzero"/><path stroke="#cccccc" stroke-width="1.0" stroke-linecap="butt" d="M77.5 61.5L581.5 61.5" fill-rule="nonzero"/><clipPath id="id_0"><path d="M77.55 61.916668L581.45 61.916668L581.45 300.45L77.55 300.45L77.55 61.916668Z" clip-rule="nonzero"/></clipPath><path fill="#34a853" fill-opacity="0.3019608" clip-path="url(#id_0)" d="M77.55 75.855125L83.25671 79.25231L88.97395 82.65905L94.68195 86.06339L100.37968 89.46393L106.07047 92.8635L111.75526 96.26213L117.43382 99.6598L123.10589 103.05651L128.77187 106.4518L134.43163 109.8466L140.08472 113.239975L145.73157 116.63287L151.37221 120.02434L157.00662 123.414856L162.63481 126.80441L168.25676 130.19254L173.87294 133.58018L179.48245 136.96642L185.08574 140.35216L190.6828 143.73647L196.2741 147.11981L201.8587 150.50223L207.43753 153.88367L213.01013 157.26416L218.57697 160.6437L224.13712 164.02182L229.6915 167.39944L235.2401 170.77565L240.78247 174.1509L246.3186 177.52567L251.84897 180.899L257.3731 184.2714L262.89148 187.64282L268.40363 191.01329L273.90997 194.38234L279.4101 197.7509L284.9049 201.11852L290.39346 204.4847L295.87582 207.8504L301.3524 211.21468L306.82315 214.578L312.28818 217.94084L317.7474 221.30226L323.20084 224.66272L328.64807 228.02222L334.08994 231.38077L339.5256 234.73836L344.95547 238.095L350.38004 241.45068L355.79834 244.80542L361.21088 248.15872L366.61807 251.51155L372.01907 254.86333L377.4147 258.21408L382.80457 261.56387L388.18863 264.91263L393.56738 268.2605L398.9399 271.60736L404.3071 274.95328L409.66895 278.2982L415.02457 281.64212L420.37485 284.9851L425.71982 288.32715L431.059 291.66824L436.39236 295.0084L441.72043 298.34753L446.89066 300.44775L451.79852 300.44775L456.70062 300.44775L461.59738 300.44775L466.4888 300.44775L471.3749 300.44775L476.25565 300.44775L481.13065 300.44775L486.0007 300.44775L490.86548 300.44775L495.72488 300.44775L500.57895 300.44775L505.4277 300.44775L510.2711 300.44775L515.1092 300.44775L519.9423 300.44775L524.76794 300.44775L529.5923 300.44775L534.40765 300.44775L539.223 300.44775L544.02954 300.44775L548.8316 300.44775L553.62476 300.44775L558.4179 300.44775L563.2022 300.44775L567.98645 300.44775L572.76184 300.44775L577.5328 300.44775L581.45 300.44775L581.45 300.45L577.5328 300.45L572.76184 300.45L567.98645 300.45L563.2022 300.45L558.4179 300.45L553.62476 300.45L548.8316 300.45L544.02954 300.45L539.223 300.45L534.40765 300.45L529.5923 300.45L524.76794 300.45L519.9423 300.45L515.1092 300.45L510.2711 300.45L505.4277 300.45L500.57895 300.45L495.72488 300.45L490.86548 300.45L486.0007 300.45L481.13065 300.45L476.25565 300.45L471.3749 300.45L466.4888 300.45L461.59738 300.45L456.70062 300.45L451.79852 300.45L446.89066 300.45L441.72043 300.45L436.39236 300.45L431.059 300.45L425.71982 300.45L420.37485 300.45L415.02457 300.45L409.66895 300.45L404.3071 300.45L398.9399 300.45L393.56738 300.45L388.18863 300.45L382.80457 300.45L377.4147 300.45L372.01907 300.45L366.61807 300.45L361.21088 300.45L355.79834 300.45L350.38004 300.45L344.95547 300.45L339.5256 300.45L334.08994 300.45L328.64807 300.45L323.20084 300.45L317.7474 300.45L312.28818 300.45L306.82315 300.45L301.3524 300.45L295.87582 300.45L290.39346 300.45L284.9049 300.45L279.4101 300.45L273.90997 300.45L268.40363 300.45L262.89148 300.45L257.3731 300.45L251.84897 300.45L246.3186 300.45L240.78247 300.45L235.2401 300.45L229.6915 300.45L224.13712 300.45L218.57697 300.45L213.01013 300.45L207.43753 300.45L201.8587 300.45L196.2741 300.45L190.6828 300.45L185.08574 300.45L179.48245 300.45L173.87294 300.45L168.25676 300.45L162.63481 300.45L157.00662 300.45L151.37221 300.45L145.73157 300.45L140.08472 300.45L134.43163 300.45L128.77187 300.45L123.10589 300.45L117.43382 300.45L111.75526 300.45L106.07047 300.45L100.37968 300.45L94.68195 300.45L88.97395 300.45L83.25671 300.45L77.55 300.45Z" fill-rule="nonzero"/><path stroke="#34a853" stroke-width="2.0" stroke-linecap="butt" clip-path="url(#id_0)" d="M77.55 75.855125L83.25671 79.25231L88.97395 82.65905L94.68195 86.06339L100.37968 89.46393L106.07047 92.8635L111.75526 96.26213L117.43382 99.6598L123.10589 103.05651L128.77187 106.4518L134.43163 109.8466L140.08472 113.239975L145.73157 116.63287L151.37221 120.02434L157.00662 123.414856L162.63481 126.80441L168.25676 130.19254L173.87294 133.58018L179.48245 136.96642L185.08574 140.35216L190.6828 143.73647L196.2741 147.11981L201.8587 150.50223L207.43753 153.88367L213.01013 157.26416L218.57697 160.6437L224.13712 164.02182L229.6915 167.39944L235.2401 170.77565L240.78247 174.1509L246.3186 177.52567L251.84897 180.899L257.3731 184.2714L262.89148 187.64282L268.40363 191.01329L273.90997 194.38234L279.4101 197.7509L284.9049 201.11852L290.39346 204.4847L295.87582 207.8504L301.3524 211.21468L306.82315 214.578L312.28818 217.94084L317.7474 221.30226L323.20084 224.66272L328.64807 228.02222L334.08994 231.38077L339.5256 234.73836L344.95547 238.095L350.38004 241.45068L355.79834 244.80542L361.21088 248.15872L366.61807 251.51155L372.01907 254.86333L377.4147 258.21408L382.80457 261.56387L388.18863 264.91263L393.56738 268.2605L398.9399 271.60736L404.3071 274.95328L409.66895 278.2982L415.02457 281.64212L420.37485 284.9851L425.71982 288.32715L431.059 291.66824L436.39236 295.0084L441.72043 298.34753L446.89066 300.44775L451.79852 300.44775L456.70062 300.44775L461.59738 300.44775L466.4888 300.44775L471.3749 300.44775L476.25565 300.44775L481.13065 300.44775L486.0007 300.44775L490.86548 300.44775L495.72488 300.44775L500.57895 300.44775L505.4277 300.44775L510.2711 300.44775L515.1092 300.44775L519.9423 300.44775L524.76794 300.44775L529.5923 300.44775L534.40765 300.44775L539.223 300.44775L544.02954 300.44775L548.8316 300.44775L553.62476 300.44775L558.4179 300.44775L563.2022 300.44775L567.98645 300.44775L572.76184 300.44775L577.5328 300.44775L581.45 300.44775" fill-rule="nonzero"/><path fill="#000000" fill-opacity="0.0" clip-path="url(#id_0)" d="M80.55 75.855125C80.55 77.51198 79.206856 78.855125 77.55 78.855125C75.89314 78.855125 74.55 77.51198 74.55 75.855125C74.55 74.19827 75.89314 72.855125 77.55 72.855125C79.206856 72.855125 80.55 74.19827 80.55 75.855125Z" fill-rule="nonzero"/><path fill="#000000" fill-opacity="0.0" clip-path="url(#id_0)" d="M86.25671 79.25231C86.25671 80.90917 84.91356 82.25231 83.25671 82.25231C81.59985 82.25231 80.25671 80.90917 80.25671 79.25231C80.25671 77.59546 81.59985 76.25231 83.25671 76.25231C84.91356 76.25231 86.25671 77.59546 86.25671 79.25231Z" fill-rule="nonzero"/><path fill="#000000" fill-opacity="0.0" clip-path="url(#id_0)" d="M91.97395 82.65905C91.97395 84.3159 90.630806 85.65905 88.97395 85.65905C87.3171 85.65905 85.97395 84.3159 85.97395 82.65905C85.97395 81.0022 87.3171 79.65905 88.97395 79.65905C90.630806 79.65905 91.97395 81.0022 91.97395 82.65905Z" fill-rule="nonzero"/><path fill="#000000" fill-opacity="0.0" clip-path="url(#id_0)" d="M97.68195 86.06339C97.68195 87.72025 96.338806 89.06339 94.68195 89.06339C93.0251 89.06339 91.68195 87.72025 91.68195 86.06339C91.68195 84.40654 93.0251 83.06339 94.68195 83.06339C96.338806 83.06339 97.68195 84.40654 97.68195 86.06339Z" fill-rule="nonzero"/><path fill="#000000" fill-opacity="0.0" clip-path="url(#id_0)" d="M103.37968 89.46393C103.37968 91.12078 102.03653 92.46393 100.37968 92.46393C98.722824 92.46393 97.37968 91.12078 97.37968 89.46393C97.37968 87.807076 98.722824 86.46393 100.37968 86.46393C102.03653 86.46393 103.37968 87.807076 103.37968 89.46393Z" fill-rule="nonzero"/><path fill="#000000" fill-opacity="0.0" clip-path="url(#id_0)" d="M109.07047 92.8635C109.07047 94.520355 107.727325 95.8635 106.07047 95.8635C104.41361 95.8635 103.07047 94.520355 103.07047 92.8635C103.07047 91.20665 104.41361 89.8635 106.07047 89.8635C107.727325 89.8635 109.07047 91.20665 109.07047 92.8635Z" fill-rule="nonzero"/><path fill="#000000" fill-opacity="0.0" clip-path="url(#id_0)" d="M114.75526 96.26213C114.75526 97.91898 113.41211 99.26213 111.75526 99.26213C110.098404 99.26213 108.75526 97.91898 108.75526 96.26213C108.75526 94.60527 110.098404 93.26213 111.75526 93.26213C113.41211 93.26213 114.75526 94.60527 114.75526 96.26213Z" fill-rule="nonzero"/><path fill="#000000" fill-opacity="0.0" clip-path="url(#id_0)" d="M120.43382 99.6598C120.43382 101.31665 119.090675 102.6598 117.43382 102.6598C115.77697 102.6598 114.43382 101.31665 114.43382 99.6598C114.43382 98.002945 115.77697 96.6598 117.43382 96.6598C119.090675 96.6598 120.43382 98.002945 120.43382 99.6598Z" fill-rule="nonzero"/><path fill="#000000" fill-opacity="0.0" clip-path="url(#id_0)" d="M126.10589 103.05651C126.10589 104.71336 124.76275 106.05651 123.10589 106.05651C121.449036 106.05651 120.10589 104.71336 120.10589 103.05651C120.10589 101.39966 121.449036 100.05651 123.10589 100.05651C124.76275 100.05651 126.10589 101.39966 126.10589 103.05651Z" fill-rule="nonzero"/><path fill="#000000" fill-opacity="0.0" clip-path="url(#id_0)" d="M131.77187 106.4518C131.77187 108.10865 130.42873 109.4518 128.77187 109.4518C127.11502 109.4518 125.77187 108.10865 125.77187 106.4518C125.77187 104.79494 127.11502 103.4518 128.77187 103.4518C130.42873 103.4518 131.77187 104.79494 131.77187 106.4518Z" fill-rule="nonzero"/><path fill="#000000" fill-opacity="0.0" clip-path="url(#id_0)" d="M137.43163 109.8466C137.43163 111.503456 136.08849 112.8466 134.43163 112.8466C132.77477 112.8466 131.43163 111.503456 131.43163 109.8466C131.43163 108.18974 132.77477 106.8466 134.43163 106.8466C136.08849 106.8466 137.43163 108.18974 137.43163 109.8466Z" fill-rule="nonzero"/><path fill="#000000" fill-opacity="0.0" clip-path="url(#id_0)" d="M143.08472 113.239975C143.08472 114.89683 141.74156 116.239975 140.08472 116.239975C138.42786 116.239975 137.08472 114.89683 137.08472 113.239975C137.08472 111.58312 138.42786 110.239975 140.08472 110.239975C141.74156 110.239975 143.08472 111.58312 143.08472 113.239975Z" fill-rule="nonzero"/><path fill="#000000" fill-opacity="0.0" clip-path="url(#id_0)" d="M148.73157 116.63287C148.73157 118.28973 147.38843 119.63287 145.73157 119.63287C144.07472 119.63287 142.73157 118.28973 142.73157 116.63287C142.73157 114.97602 144.07472 113.63287 145.73157 113.63287C147.38843 113.63287 148.73157 114.97602 148.73157 116.63287Z" fill-rule="nonzero"/><path fill="#000000" fill-opacity="0.0" clip-path="url(#id_0)" d="M154.37221 120.02434C154.37221 121.6812 153.02907 123.02434 151.37221 123.02434C149.71535 123.02434 148.37221 121.6812 148.37221 120.02434C148.37221 118.367485 149.71535 117.02434 151.37221 117.02434C153.02907 117.02434 154.37221 118.367485 154.37221 120.02434Z" fill-rule="nonzero"/><path fill="#000000" fill-opacity="0.0" clip-path="url(#id_0)" d="M160.00662 123.414856C160.00662 125.07171 158.66347 126.414856 157.00662 126.414856C155.34976 126.414856 154.00662 125.07171 154.00662 123.414856C154.00662 121.757996 155.34976 120.414856 157.00662 120.414856C158.66347 120.414856 160.00662 121.757996 160.00662 123.414856Z" fill-rule="nonzero"/><path fill="#000000" fill-opacity="0.0" clip-path="url(#id_0)" d="M165.63481 126.80441C165.63481 128.46127 164.29166 129.80441 162.63481 129.80441C160.97795 129.80441 159.63481 128.46127 159.63481 126.80441C159.63481 125.14756 160.97795 123.80441 162.63481 123.80441C164.29166 123.80441 165.63481 125.14756 165.63481 126.80441Z" fill-rule="nonzero"/><path fill="#000000" fill-opacity="0.0" clip-path="url(#id_0)" d="M171.25676 130.19254C171.25676 131.8494 169.91362 133.19254 168.25676 133.19254C166.59991 133.19254 165.25676 131.8494 165.25676 130.19254C165.25676 128.53569 166.59991 127.19254 168.25676 127.19254C169.91362 127.19254 171.25676 128.53569 171.25676 130.19254Z" fill-rule="nonzero"/><path fill="#000000" fill-opacity="0.0" clip-path="url(#id_0)" d="M176.87294 133.58018C176.87294 135.23705 175.5298 136.58018 173.87294 136.58018C172.2161 136.58018 170.87294 135.23705 170.87294 133.58018C170.87294 131.92334 172.2161 130.58018 173.87294 130.58018C175.5298 130.58018 176.87294 131.92334 176.87294 133.58018Z" fill-rule="nonzero"/><path fill="#000000" fill-opacity="0.0" clip-path="url(#id_0)" d="M182.48245 136.96642C182.48245 138.62326 181.13931 139.96642 179.48245 139.96642C177.8256 139.96642 176.48245 138.62326 176.48245 136.96642C176.48245 135.30956 177.8256 133.96642 179.48245 133.96642C181.13931 133.96642 182.48245 135.30956 182.48245 136.96642Z" fill-rule="nonzero"/><path fill="#000000" fill-opacity="0.0" clip-path="url(#id_0)" d="M188.08574 140.35216C188.08574 142.009 186.7426 143.35216 185.08574 143.35216C183.4289 143.35216 182.08574 142.009 182.08574 140.35216C182.08574 138.6953 183.4289 137.35216 185.08574 137.35216C186.7426 137.35216 188.08574 138.6953 188.08574 140.35216Z" fill-rule="nonzero"/><path fill="#000000" fill-opacity="0.0" clip-path="url(#id_0)" d="M193.6828 143.73647C193.6828 145.39331 192.33966 146.73647 190.6828 146.73647C189.02596 146.73647 187.6828 145.39331 187.6828 143.73647C187.6828 142.0796 189.02596 140.73647 190.6828 140.73647C192.33966 140.73647 193.6828 142.0796 193.6828 143.73647Z" fill-rule="nonzero"/><path fill="#000000" fill-opacity="0.0" clip-path="url(#id_0)" d="M199.2741 147.11981C199.2741 148.77667 197.93094 150.11981 196.2741 150.11981C194.61723 150.11981 193.2741 148.77667 193.2741 147.11981C193.2741 145.46297 194.61723 144.11981 196.2741 144.11981C197.93094 144.11981 199.2741 145.46297 199.2741 147.11981Z" fill-rule="nonzero"/><path fill="#000000" fill-opacity="0.0" clip-path="url(#id_0)" d="M204.8587 150.50223C204.8587 152.15907 203.51555 153.50223 201.8587 153.50223C200.20184 153.50223 198.8587 152.15907 198.8587 150.50223C198.8587 148.84537 200.20184 147.50223 201.8587 147.50223C203.51555 147.50223 204.8587 148.84537 204.8587 150.50223Z" fill-rule="nonzero"/><path fill="#000000" fill-opacity="0.0" clip-path="url(#id_0)" d="M210.43753 153.88367C210.43753 155.54053 209.09439 156.88367 207.43753 156.88367C205.78067 156.88367 204.43753 155.54053 204.43753 153.88367C204.43753 152.22682 205.78067 150.88367 207.43753 150.88367C209.09439 150.88367 210.43753 152.22682 210.43753 153.88367Z" fill-rule="nonzero"/><path fill="#000000" fill-opacity="0.0" clip-path="url(#id_0)" d="M216.01013 157.26416C216.01013 158.92102 214.66699 160.26416 213.01013 160.26416C211.35329 160.26416 210.01013 158.92102 210.01013 157.26416C210.01013 155.60732 211.35329 154.26416 213.01013 154.26416C214.66699 154.26416 216.01013 155.60732 216.01013 157.26416Z" fill-rule="nonzero"/><path fill="#000000" fill-opacity="0.0" clip-path="url(#id_0)" d="M221.57697 160.6437C221.57697 162.30055 220.23381 163.6437 218.57697 163.6437C216.9201 163.6437 215.57697 162.30055 215.57697 160.6437C215.57697 158.98685 216.9201 157.6437 218.57697 157.6437C220.23381 157.6437 221.57697 158.98685 221.57697 160.6437Z" fill-rule="nonzero"/><path fill="#000000" fill-opacity="0.0" clip-path="url(#id_0)" d="M227.13712 164.02182C227.13712 165.67867 225.79398 167.02182 224.13712 167.02182C222.48027 167.02182 221.13712 165.67867 221.13712 164.02182C221.13712 162.36496 222.48027 161.02182 224.13712 161.02182C225.79398 161.02182 227.13712 162.36496 227.13712 164.02182Z" fill-rule="nonzero"/><path fill="#000000" fill-opacity="0.0" clip-path="url(#id_0)" d="M232.6915 167.39944C232.6915 169.0563 231.34834 170.39944 229.6915 170.39944C228.03464 170.39944 226.6915 169.0563 226.6915 167.39944C226.6915 165.7426 228.03464 164.39944 229.6915 164.39944C231.34834 164.39944 232.6915 165.7426 232.6915 167.39944Z" fill-rule="nonzero"/><path fill="#000000" fill-opacity="0.0" clip-path="url(#id_0)" d="M238.2401 170.77565C238.2401 172.4325 236.89694 173.77565 235.2401 173.77565C233.58324 173.77565 232.2401 172.4325 232.2401 170.77565C232.2401 169.11879 233.58324 167.77565 235.2401 167.77565C236.89694 167.77565 238.2401 169.11879 238.2401 170.77565Z" fill-rule="nonzero"/><path fill="#000000" fill-opacity="0.0" clip-path="url(#id_0)" d="M243.78247 174.1509C243.78247 175.80775 242.43932 177.1509 240.78247 177.1509C239.12561 177.1509 237.78247 175.80775 237.78247 174.1509C237.78247 172.49403 239.12561 171.1509 240.78247 171.1509C242.43932 171.1509 243.78247 172.49403 243.78247 174.1509Z" fill-rule="nonzero"/><path fill="#000000" fill-opacity="0.0" clip-path="url(#id_0)" d="M249.3186 177.52567C249.3186 179.18251 247.97546 180.52567 246.3186 180.52567C244.66176 180.52567 243.3186 179.18251 243.3186 177.52567C243.3186 175.8688 244.66176 174.52567 246.3186 174.52567C247.97546 174.52567 249.3186 175.8688 249.3186 177.52567Z" fill-rule="nonzero"/><path fill="#000000" fill-opacity="0.0" clip-path="url(#id_0)" d="M254.84897 180.899C254.84897 182.55586 253.50583 183.899 251.84897 183.899C250.19212 183.899 248.84897 182.55586 248.84897 180.899C248.84897 179.24214 250.19212 177.899 251.84897 177.899C253.50583 177.899 254.84897 179.24214 254.84897 180.899Z" fill-rule="nonzero"/><path fill="#000000" fill-opacity="0.0" clip-path="url(#id_0)" d="M260.3731 184.2714C260.3731 185.92824 259.02997 187.2714 257.3731 187.2714C255.71626 187.2714 254.37312 185.92824 254.37312 184.2714C254.37312 182.61453 255.71626 181.2714 257.3731 181.2714C259.02997 181.2714 260.3731 182.61453 260.3731 184.2714Z" fill-rule="nonzero"/><path fill="#000000" fill-opacity="0.0" clip-path="url(#id_0)" d="M265.89148 187.64282C265.89148 189.29967 264.54834 190.64282 262.89148 190.64282C261.23462 190.64282 259.89148 189.29967 259.89148 187.64282C259.89148 185.98596 261.23462 184.64282 262.89148 184.64282C264.54834 184.64282 265.89148 185.98596 265.89148 187.64282Z" fill-rule="nonzero"/><path fill="#000000" fill-opacity="0.0" clip-path="url(#id_0)" d="M271.40363 191.01329C271.40363 192.67015 270.06046 194.01329 268.40363 194.01329C266.74677 194.01329 265.40363 192.67015 265.40363 191.01329C265.40363 189.35645 266.74677 188.01329 268.40363 188.01329C270.06046 188.01329 271.40363 189.35645 271.40363 191.01329Z" fill-rule="nonzero"/><path fill="#000000" fill-opacity="0.0" clip-path="url(#id_0)" d="M276.90997 194.38234C276.90997 196.03918 275.56683 197.38234 273.90997 197.38234C272.2531 197.38234 270.90997 196.03918 270.90997 194.38234C270.90997 192.72548 272.2531 191.38234 273.90997 191.38234C275.56683 191.38234 276.90997 192.72548 276.90997 194.38234Z" fill-rule="nonzero"/><path fill="#000000" fill-opacity="0.0" clip-path="url(#id_0)" d="M282.4101 197.7509C282.4101 199.40776 281.06696 200.7509 279.4101 200.7509C277.75323 200.7509 276.4101 199.40776 276.4101 197.7509C276.4101 196.09406 277.75323 194.7509 279.4101 194.7509C281.06696 194.7509 282.4101 196.09406 282.4101 197.7509Z" fill-rule="nonzero"/><path fill="#000000" fill-opacity="0.0" clip-path="url(#id_0)" d="M287.9049 201.11852C287.9049 202.77538 286.56174 204.11852 284.9049 204.11852C283.24805 204.11852 281.9049 202.77538 281.9049 201.11852C281.9049 199.46167 283.24805 198.11852 284.9049 198.11852C286.56174 198.11852 287.9049 199.46167 287.9049 201.11852Z" fill-rule="nonzero"/><path fill="#000000" fill-opacity="0.0" clip-path="url(#id_0)" d="M293.39346 204.4847C293.39346 206.14156 292.05032 207.4847 290.39346 207.4847C288.7366 207.4847 287.39346 206.14156 287.39346 204.4847C287.39346 202.82785 288.7366 201.4847 290.39346 201.4847C292.05032 201.4847 293.39346 202.82785 293.39346 204.4847Z" fill-rule="nonzero"/><path fill="#000000" fill-opacity="0.0" clip-path="url(#id_0)" d="M298.87582 207.8504C298.87582 209.50726 297.53265 210.8504 295.87582 210.8504C294.21896 210.8504 292.87582 209.50726 292.87582 207.8504C292.87582 206.19356 294.21896 204.8504 295.87582 204.8504C297.53265 204.8504 298.87582 206.19356 298.87582 207.8504Z" fill-rule="nonzero"/><path fill="#000000" fill-opacity="0.0" clip-path="url(#id_0)" d="M304.3524 211.21468C304.3524 212.87154 303.00925 214.21468 301.3524 214.21468C299.69553 214.21468 298.3524 212.87154 298.3524 211.21468C298.3524 209.55783 299.69553 208.21468 301.3524 208.21468C303.00925 208.21468 304.3524 209.55783 304.3524 211.21468Z" fill-rule="nonzero"/><path fill="#000000" fill-opacity="0.0" clip-path="url(#id_0)" d="M309.82315 214.578C309.82315 216.23485 308.48 217.578 306.82315 217.578C305.16632 217.578 303.82315 216.23485 303.82315 214.578C303.82315 212.92114 305.16632 211.578 306.82315 211.578C308.48 211.578 309.82315 212.92114 309.82315 214.578Z" fill-rule="nonzero"/><path fill="#000000" fill-opacity="0.0" clip-path="url(#id_0)" d="M315.28818 217.94084C315.28818 219.5977 313.94504 220.94084 312.28818 220.94084C310.63132 220.94084 309.28818 219.5977 309.28818 217.94084C309.28818 216.28398 310.63132 214.94084 312.28818 214.94084C313.94504 214.94084 315.28818 216.28398 315.28818 217.94084Z" fill-rule="nonzero"/><path fill="#000000" fill-opacity="0.0" clip-path="url(#id_0)" d="M320.7474 221.30226C320.7474 222.9591 319.40424 224.30226 317.7474 224.30226C316.09055 224.30226 314.7474 222.9591 314.7474 221.30226C314.7474 219.6454 316.09055 218.30226 317.7474 218.30226C319.40424 218.30226 320.7474 219.6454 320.7474 221.30226Z" fill-rule="nonzero"/><path fill="#000000" fill-opacity="0.0" clip-path="url(#id_0)" d="M326.20084 224.66272C326.20084 226.31956 324.8577 227.66272 323.20084 227.66272C321.54398 227.66272 320.20084 226.31956 320.20084 224.66272C320.20084 223.00586 321.54398 221.66272 323.20084 221.66272C324.8577 221.66272 326.20084 223.00586 326.20084 224.66272Z" fill-rule="nonzero"/><path fill="#000000" fill-opacity="0.0" clip-path="url(#id_0)" d="M331.64807 228.02222C331.64807 229.67908 330.3049 231.02222 328.64807 231.02222C326.9912 231.02222 325.64807 229.67908 325.64807 228.02222C325.64807 226.36536 326.9912 225.02222 328.64807 225.02222C330.3049 225.02222 331.64807 226.36536 331.64807 228.02222Z" fill-rule="nonzero"/><path fill="#000000" fill-opacity="0.0" clip-path="url(#id_0)" d="M337.08994 231.38077C337.08994 233.03761 335.7468 234.38077 334.08994 234.38077C332.43307 234.38077 331.08994 233.03761 331.08994 231.38077C331.08994 229.7239 332.43307 228.38077 334.08994 228.38077C335.7468 228.38077 337.08994 229.7239 337.08994 231.38077Z" fill-rule="nonzero"/><path fill="#000000" fill-opacity="0.0" clip-path="url(#id_0)" d="M342.5256 234.73836C342.5256 236.39522 341.18246 237.73836 339.5256 237.73836C337.86874 237.73836 336.5256 236.39522 336.5256 234.73836C336.5256 233.08151 337.86874 231.73836 339.5256 231.73836C341.18246 231.73836 342.5256 233.08151 342.5256 234.73836Z" fill-rule="nonzero"/><path fill="#000000" fill-opacity="0.0" clip-path="url(#id_0)" d="M347.95547 238.095C347.95547 239.75186 346.61234 241.095 344.95547 241.095C343.2986 241.095 341.95547 239.75186 341.95547 238.095C341.95547 236.43814 343.2986 235.095 344.95547 235.095C346.61234 235.095 347.95547 236.43814 347.95547 238.095Z" fill-rule="nonzero"/><path fill="#000000" fill-opacity="0.0" clip-path="url(#id_0)" d="M353.38004 241.45068C353.38004 243.10754 352.03687 244.45068 350.38004 244.45068C348.72318 244.45068 347.38004 243.10754 347.38004 241.45068C347.38004 239.79384 348.72318 238.45068 350.38004 238.45068C352.03687 238.45068 353.38004 239.79384 353.38004 241.45068Z" fill-rule="nonzero"/><path fill="#000000" fill-opacity="0.0" clip-path="url(#id_0)" d="M358.79834 244.80542C358.79834 246.46228 357.4552 247.80542 355.79834 247.80542C354.14148 247.80542 352.79834 246.46228 352.79834 244.80542C352.79834 243.14856 354.14148 241.80542 355.79834 241.80542C357.4552 241.80542 358.79834 243.14856 358.79834 244.80542Z" fill-rule="nonzero"/><path fill="#000000" fill-opacity="0.0" clip-path="url(#id_0)" d="M364.21088 248.15872C364.21088 249.81558 362.86774 251.15872 361.21088 251.15872C359.55402 251.15872 358.21088 249.81558 358.21088 248.15872C358.21088 246.50186 359.55402 245.15872 361.21088 245.15872C362.86774 245.15872 364.21088 246.50186 364.21088 248.15872Z" fill-rule="nonzero"/><path fill="#000000" fill-opacity="0.0" clip-path="url(#id_0)" d="M369.61807 251.51155C369.61807 253.1684 368.27493 254.51155 366.61807 254.51155C364.9612 254.51155 363.61807 253.1684 363.61807 251.51155C363.61807 249.85469 364.9612 248.51155 366.61807 248.51155C368.27493 248.51155 369.61807 249.85469 369.61807 251.51155Z" fill-rule="nonzero"/><path fill="#000000" fill-opacity="0.0" clip-path="url(#id_0)" d="M375.01907 254.86333C375.01907 256.52017 373.6759 257.8633 372.01907 257.8633C370.3622 257.8633 369.01907 256.52017 369.01907 254.86333C369.01907 253.20647 370.3622 251.86333 372.01907 251.86333C373.6759 251.86333 375.01907 253.20647 375.01907 254.86333Z" fill-rule="nonzero"/><path fill="#000000" fill-opacity="0.0" clip-path="url(#id_0)" d="M380.4147 258.21408C380.4147 259.87094 379.07156 261.21408 377.4147 261.21408C375.75784 261.21408 374.4147 259.87094 374.4147 258.21408C374.4147 256.55725 375.75784 255.2141 377.4147 255.2141C379.07156 255.2141 380.4147 256.55725 380.4147 258.21408Z" fill-rule="nonzero"/><path fill="#000000" fill-opacity="0.0" clip-path="url(#id_0)" d="M385.80457 261.56387C385.80457 263.22073 384.46143 264.56387 382.80457 264.56387C381.1477 264.56387 379.80457 263.22073 379.80457 261.56387C379.80457 259.907 381.1477 258.56387 382.80457 258.56387C384.46143 258.56387 385.80457 259.907 385.80457 261.56387Z" fill-rule="nonzero"/><path fill="#000000" fill-opacity="0.0" clip-path="url(#id_0)" d="M391.18863 264.91263C391.18863 266.5695 389.8455 267.91263 388.18863 267.91263C386.5318 267.91263 385.18863 266.5695 385.18863 264.91263C385.18863 263.25577 386.5318 261.91263 388.18863 261.91263C389.8455 261.91263 391.18863 263.25577 391.18863 264.91263Z" fill-rule="nonzero"/><path fill="#000000" fill-opacity="0.0" clip-path="url(#id_0)" d="M396.56738 268.2605C396.56738 269.91736 395.22424 271.2605 393.56738 271.2605C391.91052 271.2605 390.56738 269.91736 390.56738 268.2605C390.56738 266.60364 391.91052 265.2605 393.56738 265.2605C395.22424 265.2605 396.56738 266.60364 396.56738 268.2605Z" fill-rule="nonzero"/><path fill="#000000" fill-opacity="0.0" clip-path="url(#id_0)" d="M401.9399 271.60736C401.9399 273.26422 400.59677 274.60736 398.9399 274.60736C397.28305 274.60736 395.9399 273.26422 395.9399 271.60736C395.9399 269.9505 397.28305 268.60736 398.9399 268.60736C400.59677 268.60736 401.9399 269.9505 401.9399 271.60736Z" fill-rule="nonzero"/><path fill="#000000" fill-opacity="0.0" clip-path="url(#id_0)" d="M407.3071 274.95328C407.3071 276.6101 405.96396 277.95328 404.3071 277.95328C402.65024 277.95328 401.3071 276.6101 401.3071 274.95328C401.3071 273.29642 402.65024 271.95328 404.3071 271.95328C405.96396 271.95328 407.3071 273.29642 407.3071 274.95328Z" fill-rule="nonzero"/><path fill="#000000" fill-opacity="0.0" clip-path="url(#id_0)" d="M412.66895 278.2982C412.66895 279.95502 411.3258 281.2982 409.66895 281.2982C408.0121 281.2982 406.66895 279.95502 406.66895 278.2982C406.66895 276.64133 408.0121 275.2982 409.66895 275.2982C411.3258 275.2982 412.66895 276.64133 412.66895 278.2982Z" fill-rule="nonzero"/><path fill="#000000" fill-opacity="0.0" clip-path="url(#id_0)" d="M418.02457 281.64212C418.02457 283.29898 416.68143 284.64212 415.02457 284.64212C413.3677 284.64212 412.02457 283.29898 412.02457 281.64212C412.02457 279.98526 413.3677 278.64212 415.02457 278.64212C416.68143 278.64212 418.02457 279.98526 418.02457 281.64212Z" fill-rule="nonzero"/><path fill="#000000" fill-opacity="0.0" clip-path="url(#id_0)" d="M423.37485 284.9851C423.37485 286.64197 422.0317 287.9851 420.37485 287.9851C418.71802 287.9851 417.37485 286.64197 417.37485 284.9851C417.37485 283.32828 418.71802 281.9851 420.37485 281.9851C422.0317 281.9851 423.37485 283.32828 423.37485 284.9851Z" fill-rule="nonzero"/><path fill="#000000" fill-opacity="0.0" clip-path="url(#id_0)" d="M428.71982 288.32715C428.71982 289.984 427.37668 291.32715 425.71982 291.32715C424.06296 291.32715 422.71982 289.984 422.71982 288.32715C422.71982 286.67032 424.06296 285.32715 425.71982 285.32715C427.37668 285.32715 428.71982 286.67032 428.71982 288.32715Z" fill-rule="nonzero"/><path fill="#000000" fill-opacity="0.0" clip-path="url(#id_0)" d="M434.059 291.66824C434.059 293.3251 432.71585 294.66824 431.059 294.66824C429.40213 294.66824 428.059 293.3251 428.059 291.66824C428.059 290.01138 429.40213 288.66824 431.059 288.66824C432.71585 288.66824 434.059 290.01138 434.059 291.66824Z" fill-rule="nonzero"/><path fill="#000000" fill-opacity="0.0" clip-path="url(#id_0)" d="M439.39236 295.0084C439.39236 296.66525 438.04922 298.0084 436.39236 298.0084C434.73553 298.0084 433.39236 296.66525 433.39236 295.0084C433.39236 293.35153 434.73553 292.0084 436.39236 292.0084C438.04922 292.0084 439.39236 293.35153 439.39236 295.0084Z" fill-rule="nonzero"/><path fill="#000000" fill-opacity="0.0" clip-path="url(#id_0)" d="M444.72043 298.34753C444.72043 300.00436 443.3773 301.34753 441.72043 301.34753C440.06357 301.34753 438.72043 300.00436 438.72043 298.34753C438.72043 296.69067 440.06357 295.34753 441.72043 295.34753C443.3773 295.34753 444.72043 296.69067 444.72043 298.34753Z" fill-rule="nonzero"/><path fill="#000000" fill-opacity="0.0" clip-path="url(#id_0)" d="M449.89066 300.44775C449.89066 302.1046 448.54752 303.44775 446.89066 303.44775C445.2338 303.44775 443.89066 302.1046 443.89066 300.44775C443.89066 298.7909 445.2338 297.44775 446.89066 297.44775C448.54752 297.44775 449.89066 298.7909 449.89066 300.44775Z" fill-rule="nonzero"/><path fill="#000000" fill-opacity="0.0" clip-path="url(#id_0)" d="M454.79852 300.44775C454.79852 302.1046 453.45538 303.44775 451.79852 303.44775C450.14166 303.44775 448.79852 302.1046 448.79852 300.44775C448.79852 298.7909 450.14166 297.44775 451.79852 297.44775C453.45538 297.44775 454.79852 298.7909 454.79852 300.44775Z" fill-rule="nonzero"/><path fill="#000000" fill-opacity="0.0" clip-path="url(#id_0)" d="M459.70062 300.44775C459.70062 302.1046 458.35748 303.44775 456.70062 303.44775C455.04376 303.44775 453.70062 302.1046 453.70062 300.44775C453.70062 298.7909 455.04376 297.44775 456.70062 297.44775C458.35748 297.44775 459.70062 298.7909 459.70062 300.44775Z" fill-rule="nonzero"/><path fill="#000000" fill-opacity="0.0" clip-path="url(#id_0)" d="M464.59738 300.44775C464.59738 302.1046 463.25424 303.44775 461.59738 303.44775C459.94052 303.44775 458.59738 302.1046 458.59738 300.44775C458.59738 298.7909 459.94052 297.44775 461.59738 297.44775C463.25424 297.44775 464.59738 298.7909 464.59738 300.44775Z" fill-rule="nonzero"/><path fill="#000000" fill-opacity="0.0" clip-path="url(#id_0)" d="M469.4888 300.44775C469.4888 302.1046 468.14566 303.44775 466.4888 303.44775C464.83197 303.44775 463.4888 302.1046 463.4888 300.44775C463.4888 298.7909 464.83197 297.44775 466.4888 297.44775C468.14566 297.44775 469.4888 298.7909 469.4888 300.44775Z" fill-rule="nonzero"/><path fill="#000000" fill-opacity="0.0" clip-path="url(#id_0)" d="M474.3749 300.44775C474.3749 302.1046 473.03177 303.44775 471.3749 303.44775C469.71805 303.44775 468.3749 302.1046 468.3749 300.44775C468.3749 298.7909 469.71805 297.44775 471.3749 297.44775C473.03177 297.44775 474.3749 298.7909 474.3749 300.44775Z" fill-rule="nonzero"/><path fill="#000000" fill-opacity="0.0" clip-path="url(#id_0)" d="M479.25565 300.44775C479.25565 302.1046 477.9125 303.44775 476.25565 303.44775C474.59882 303.44775 473.25565 302.1046 473.25565 300.44775C473.25565 298.7909 474.59882 297.44775 476.25565 297.44775C477.9125 297.44775 479.25565 298.7909 479.25565 300.44775Z" fill-rule="nonzero"/><path fill="#000000" fill-opacity="0.0" clip-path="url(#id_0)" d="M484.13065 300.44775C484.13065 302.1046 482.78748 303.44775 481.13065 303.44775C479.4738 303.44775 478.13065 302.1046 478.13065 300.44775C478.13065 298.7909 479.4738 297.44775 481.13065 297.44775C482.78748 297.44775 484.13065 298.7909 484.13065 300.44775Z" fill-rule="nonzero"/><path fill="#000000" fill-opacity="0.0" clip-path="url(#id_0)" d="M489.0007 300.44775C489.0007 302.1046 487.65756 303.44775 486.0007 303.44775C484.34387 303.44775 483.0007 302.1046 483.0007 300.44775C483.0007 298.7909 484.34387 297.44775 486.0007 297.44775C487.65756 297.44775 489.0007 298.7909 489.0007 300.44775Z" fill-rule="nonzero"/><path fill="#000000" fill-opacity="0.0" clip-path="url(#id_0)" d="M493.86548 300.44775C493.86548 302.1046 492.5223 303.44775 490.86548 303.44775C489.20862 303.44775 487.86548 302.1046 487.86548 300.44775C487.86548 298.7909 489.20862 297.44775 490.86548 297.44775C492.5223 297.44775 493.86548 298.7909 493.86548 300.44775Z" fill-rule="nonzero"/><path fill="#000000" fill-opacity="0.0" clip-path="url(#id_0)" d="M498.72488 300.44775C498.72488 302.1046 497.38174 303.44775 495.72488 303.44775C494.06802 303.44775 492.72488 302.1046 492.72488 300.44775C492.72488 298.7909 494.06802 297.44775 495.72488 297.44775C497.38174 297.44775 498.72488 298.7909 498.72488 300.44775Z" fill-rule="nonzero"/><path fill="#000000" fill-opacity="0.0" clip-path="url(#id_0)" d="M503.57895 300.44775C503.57895 302.1046 502.2358 303.44775 500.57895 303.44775C498.9221 303.44775 497.57895 302.1046 497.57895 300.44775C497.57895 298.7909 498.9221 297.44775 500.57895 297.44775C502.2358 297.44775 503.57895 298.7909 503.57895 300.44775Z" fill-rule="nonzero"/><path fill="#000000" fill-opacity="0.0" clip-path="url(#id_0)" d="M508.4277 300.44775C508.4277 302.1046 507.08456 303.44775 505.4277 303.44775C503.77084 303.44775 502.4277 302.1046 502.4277 300.44775C502.4277 298.7909 503.77084 297.44775 505.4277 297.44775C507.08456 297.44775 508.4277 298.7909 508.4277 300.44775Z" fill-rule="nonzero"/><path fill="#000000" fill-opacity="0.0" clip-path="url(#id_0)" d="M513.2711 300.44775C513.2711 302.1046 511.92795 303.44775 510.2711 303.44775C508.61426 303.44775 507.2711 302.1046 507.2711 300.44775C507.2711 298.7909 508.61426 297.44775 510.2711 297.44775C511.92795 297.44775 513.2711 298.7909 513.2711 300.44775Z" fill-rule="nonzero"/><path fill="#000000" fill-opacity="0.0" clip-path="url(#id_0)" d="M518.1092 300.44775C518.1092 302.1046 516.76605 303.44775 515.1092 303.44775C513.45233 303.44775 512.1092 302.1046 512.1092 300.44775C512.1092 298.7909 513.45233 297.44775 515.1092 297.44775C516.76605 297.44775 518.1092 298.7909 518.1092 300.44775Z" fill-rule="nonzero"/><path fill="#000000" fill-opacity="0.0" clip-path="url(#id_0)" d="M522.9423 300.44775C522.9423 302.1046 521.5992 303.44775 519.9423 303.44775C518.2855 303.44775 516.9423 302.1046 516.9423 300.44775C516.9423 298.7909 518.2855 297.44775 519.9423 297.44775C521.5992 297.44775 522.9423 298.7909 522.9423 300.44775Z" fill-rule="nonzero"/><path fill="#000000" fill-opacity="0.0" clip-path="url(#id_0)" d="M527.76794 300.44775C527.76794 302.1046 526.4248 303.44775 524.76794 303.44775C523.11115 303.44775 521.76794 302.1046 521.76794 300.44775C521.76794 298.7909 523.11115 297.44775 524.76794 297.44775C526.4248 297.44775 527.76794 298.7909 527.76794 300.44775Z" fill-rule="nonzero"/><path fill="#000000" fill-opacity="0.0" clip-path="url(#id_0)" d="M532.5923 300.44775C532.5923 302.1046 531.2491 303.44775 529.5923 303.44775C527.9354 303.44775 526.5923 302.1046 526.5923 300.44775C526.5923 298.7909 527.9354 297.44775 529.5923 297.44775C531.2491 297.44775 532.5923 298.7909 532.5923 300.44775Z" fill-rule="nonzero"/><path fill="#000000" fill-opacity="0.0" clip-path="url(#id_0)" d="M537.40765 300.44775C537.40765 302.1046 536.0645 303.44775 534.40765 303.44775C532.7508 303.44775 531.40765 302.1046 531.40765 300.44775C531.40765 298.7909 532.7508 297.44775 534.40765 297.44775C536.0645 297.44775 537.40765 298.7909 537.40765 300.44775Z" fill-rule="nonzero"/><path fill="#000000" fill-opacity="0.0" clip-path="url(#id_0)" d="M542.223 300.44775C542.223 302.1046 540.8799 303.44775 539.223 303.44775C537.56616 303.44775 536.223 302.1046 536.223 300.44775C536.223 298.7909 537.56616 297.44775 539.223 297.44775C540.8799 297.44775 542.223 298.7909 542.223 300.44775Z" fill-rule="nonzero"/><path fill="#000000" fill-opacity="0.0" clip-path="url(#id_0)" d="M547.02954 300.44775C547.02954 302.1046 545.6864 303.44775 544.02954 303.44775C542.3727 303.44775 541.02954 302.1046 541.02954 300.44775C541.02954 298.7909 542.3727 297.44775 544.02954 297.44775C545.6864 297.44775 547.02954 298.7909 547.02954 300.44775Z" fill-rule="nonzero"/><path fill="#000000" fill-opacity="0.0" clip-path="url(#id_0)" d="M551.8316 300.44775C551.8316 302.1046 550.48846 303.44775 548.8316 303.44775C547.17474 303.44775 545.8316 302.1046 545.8316 300.44775C545.8316 298.7909 547.17474 297.44775 548.8316 297.44775C550.48846 297.44775 551.8316 298.7909 551.8316 300.44775Z" fill-rule="nonzero"/><path fill="#000000" fill-opacity="0.0" clip-path="url(#id_0)" d="M556.62476 300.44775C556.62476 302.1046 555.2816 303.44775 553.62476 303.44775C551.9679 303.44775 550.62476 302.1046 550.62476 300.44775C550.62476 298.7909 551.9679 297.44775 553.62476 297.44775C555.2816 297.44775 556.62476 298.7909 556.62476 300.44775Z" fill-rule="nonzero"/><path fill="#000000" fill-opacity="0.0" clip-path="url(#id_0)" d="M561.4179 300.44775C561.4179 302.1046 560.07477 303.44775 558.4179 303.44775C556.76105 303.44775 555.4179 302.1046 555.4179 300.44775C555.4179 298.7909 556.76105 297.44775 558.4179 297.44775C560.07477 297.44775 561.4179 298.7909 561.4179 300.44775Z" fill-rule="nonzero"/><path fill="#000000" fill-opacity="0.0" clip-path="url(#id_0)" d="M566.2022 300.44775C566.2022 302.1046 564.8591 303.44775 563.2022 303.44775C561.54535 303.44775 560.2022 302.1046 560.2022 300.44775C560.2022 298.7909 561.54535 297.44775 563.2022 297.44775C564.8591 297.44775 566.2022 298.7909 566.2022 300.44775Z" fill-rule="nonzero"/><path fill="#000000" fill-opacity="0.0" clip-path="url(#id_0)" d="M570.98645 300.44775C570.98645 302.1046 569.6433 303.44775 567.98645 303.44775C566.3296 303.44775 564.98645 302.1046 564.98645 300.44775C564.98645 298.7909 566.3296 297.44775 567.98645 297.44775C569.6433 297.44775 570.98645 298.7909 570.98645 300.44775Z" fill-rule="nonzero"/><path fill="#000000" fill-opacity="0.0" clip-path="url(#id_0)" d="M575.76184 300.44775C575.76184 302.1046 574.4187 303.44775 572.76184 303.44775C571.105 303.44775 569.76184 302.1046 569.76184 300.44775C569.76184 298.7909 571.105 297.44775 572.76184 297.44775C574.4187 297.44775 575.76184 298.7909 575.76184 300.44775Z" fill-rule="nonzero"/><path fill="#000000" fill-opacity="0.0" clip-path="url(#id_0)" d="M580.5328 300.44775C580.5328 302.1046 579.18964 303.44775 577.5328 303.44775C575.8759 303.44775 574.5328 302.1046 574.5328 300.44775C574.5328 298.7909 575.8759 297.44775 577.5328 297.44775C579.18964 297.44775 580.5328 298.7909 580.5328 300.44775Z" fill-rule="nonzero"/><path fill="#000000" fill-opacity="0.0" clip-path="url(#id_0)" d="M584.45 300.44775C584.45 302.1046 583.1069 303.44775 581.45 303.44775C579.79315 303.44775 578.45 302.1046 578.45 300.44775C578.45 298.7909 579.79315 297.44775 581.45 297.44775C583.1069 297.44775 584.45 298.7909 584.45 300.44775Z" fill-rule="nonzero"/><path fill="#000000" d="M297.875 349.45L297.875 348.52814Q297.14062 349.59064 295.89062 349.59064Q295.34375 349.59064 294.85938 349.3875Q294.39062 349.16876 294.15625 348.85626Q293.92188 348.52814 293.82812 348.0594Q293.76562 347.7625 293.76562 347.075L293.76562 343.23126L294.82812 343.23126L294.82812 346.6844Q294.82812 347.4969 294.89062 347.79376Q294.98438 348.2 295.29688 348.45Q295.625 348.6844 296.10938 348.6844Q296.57812 348.6844 296.98438 348.45Q297.40625 348.2 297.57812 347.77814Q297.76562 347.35626 297.76562 346.5594L297.76562 343.23126L298.8125 343.23126L298.8125 349.45L297.875 349.45ZM302.8125 351.98126Q301.9375 350.8719 301.32812 349.40314Q300.73438 347.91876 300.73438 346.34064Q300.73438 344.95 301.17188 343.66876Q301.70312 342.1844 302.8125 340.71564L303.5625 340.71564Q302.85938 341.9344 302.625 342.45Q302.26562 343.2625 302.0625 344.1375Q301.8125 345.23126 301.8125 346.34064Q301.8125 349.16876 303.5625 351.98126L302.8125 351.98126ZM304.79688 349.45L304.79688 343.23126L305.73438 343.23126L305.73438 344.10626Q306.42188 343.09064 307.71875 343.09064Q308.28125 343.09064 308.75 343.29376Q309.23438 343.4969 309.46875 343.825Q309.70312 344.15314 309.79688 344.59064Q309.84375 344.8875 309.84375 345.6219L309.84375 349.45L308.79688 349.45L308.79688 345.66876Q308.79688 345.0125 308.67188 344.7Q308.54688 344.3875 308.23438 344.2Q307.92188 343.9969 307.5 343.9969Q306.82812 343.9969 306.32812 344.4344Q305.84375 344.85626 305.84375 346.04376L305.84375 349.45L304.79688 349.45ZM311.79688 349.45L311.79688 343.23126L312.73438 343.23126L312.73438 344.10626Q313.42188 343.09064 314.71875 343.09064Q315.28125 343.09064 315.75 343.29376Q316.23438 343.4969 316.46875 343.825Q316.70312 344.15314 316.79688 344.59064Q316.84375 344.8875 316.84375 345.6219L316.84375 349.45L315.79688 349.45L315.79688 345.66876Q315.79688 345.0125 315.67188 344.7Q315.54688 344.3875 315.23438 344.2Q314.92188 343.9969 314.5 343.9969Q313.82812 343.9969 313.32812 344.4344Q312.84375 344.85626 312.84375 346.04376L312.84375 349.45L311.79688 349.45ZM319.48438 351.98126L318.73438 351.98126Q320.48438 349.16876 320.48438 346.34064Q320.48438 345.2469 320.23438 344.15314Q320.03125 343.27814 319.67188 342.46564Q319.4375 341.95 318.73438 340.71564L319.48438 340.71564Q320.57812 342.1844 321.10938 343.66876Q321.5625 344.95 321.5625 346.34064Q321.5625 347.91876 320.95312 349.40314Q320.34375 350.8719 319.48438 351.98126ZM325.8125 351.84064L325.8125 340.85626L328.14062 340.85626L328.14062 341.73126L326.875 341.73126L326.875 350.96564L328.14062 350.96564L328.14062 351.84064L325.8125 351.84064ZM328.79688 342.075L328.79688 340.85626L329.85938 340.85626L329.85938 342.075L328.79688 342.075ZM328.79688 349.45L328.79688 343.23126L329.85938 343.23126L329.85938 349.45L328.79688 349.45ZM331.79688 349.45L331.79688 343.23126L332.73438 343.23126L332.73438 344.10626Q333.42188 343.09064 334.71875 343.09064Q335.28125 343.09064 335.75 343.29376Q336.23438 343.4969 336.46875 343.825Q336.70312 344.15314 336.79688 344.59064Q336.84375 344.8875 336.84375 345.6219L336.84375 349.45L335.79688 349.45L335.79688 345.66876Q335.79688 345.0125 335.67188 344.7Q335.54688 344.3875 335.23438 344.2Q334.92188 343.9969 334.5 343.9969Q333.82812 343.9969 333.32812 344.4344Q332.84375 344.85626 332.84375 346.04376L332.84375 349.45L331.79688 349.45ZM341.79688 349.45L341.79688 343.23126L342.73438 343.23126L342.73438 344.10626Q343.03125 343.6375 343.51562 343.3719Q344.0 343.09064 344.625 343.09064Q345.3125 343.09064 345.75 343.3719Q346.20312 343.65314 346.375 344.16876Q347.125 343.09064 348.29688 343.09064Q349.23438 343.09064 349.71875 343.60626Q350.21875 344.10626 350.21875 345.1844L350.21875 349.45L349.17188 349.45L349.17188 345.52814Q349.17188 344.90314 349.0625 344.6219Q348.96875 344.34064 348.70312 344.16876Q348.4375 343.9969 348.0625 343.9969Q347.40625 343.9969 346.96875 344.4344Q346.54688 344.8719 346.54688 345.84064L346.54688 349.45L345.48438 349.45L345.48438 345.40314Q345.48438 344.7 345.21875 344.35626Q344.96875 343.9969 344.39062 343.9969Q343.9375 343.9969 343.5625 344.23126Q343.1875 344.46564 343.01562 344.91876Q342.84375 345.3719 342.84375 346.21564L342.84375 349.45L341.79688 349.45ZM352.79688 349.45L352.79688 343.23126L353.73438 343.23126L353.73438 344.10626Q354.03125 343.6375 354.51562 343.3719Q355.0 343.09064 355.625 343.09064Q356.3125 343.09064 356.75 343.3719Q357.20312 343.65314 357.375 344.16876Q358.125 343.09064 359.29688 343.09064Q360.23438 343.09064 360.71875 343.60626Q361.21875 344.10626 361.21875 345.1844L361.21875 349.45L360.17188 349.45L360.17188 345.52814Q360.17188 344.90314 360.0625 344.6219Q359.96875 344.34064 359.70312 344.16876Q359.4375 343.9969 359.0625 343.9969Q358.40625 343.9969 357.96875 344.4344Q357.54688 344.8719 357.54688 345.84064L357.54688 349.45L356.48438 349.45L356.48438 345.40314Q356.48438 344.7 356.21875 344.35626Q355.96875 343.9969 355.39062 343.9969Q354.9375 343.9969 354.5625 344.23126Q354.1875 344.46564 354.01562 344.91876Q353.84375 345.3719 353.84375 346.21564L353.84375 349.45L352.79688 349.45ZM365.5625 351.84064L363.23438 351.84064L363.23438 350.96564L364.5 350.96564L364.5 341.73126L363.23438 341.73126L363.23438 340.85626L365.5625 340.85626L365.5625 351.84064Z" fill-rule="nonzero"/><path fill="#000000" d="M27.690638 229.80833L27.534388 228.77708Q28.159388 228.68333 28.487513 228.29271Q28.815638 227.88646 28.815638 227.15208Q28.815638 226.43333 28.534388 226.08958Q28.237513 225.73021 27.831263 225.73021Q27.471888 225.73021 27.268763 226.04271Q27.128138 226.26146 26.909388 227.12083Q26.612513 228.27708 26.409388 228.73021Q26.190638 229.16771 25.815638 229.40208Q25.440638 229.63646 24.971888 229.63646Q24.565638 229.63646 24.206263 229.44896Q23.846888 229.26146 23.612513 228.93333Q23.440638 228.68333 23.315638 228.26146Q23.190638 227.83958 23.190638 227.33958Q23.190638 226.62083 23.409388 226.07396Q23.612513 225.51146 23.971888 225.24583Q24.331263 224.98021 24.925013 224.88646L25.065638 225.91771Q24.596888 225.98021 24.331263 226.32396Q24.050013 226.65208 24.050013 227.27708Q24.050013 227.99583 24.300013 228.30833Q24.534388 228.62083 24.862513 228.62083Q25.065638 228.62083 25.221888 228.49583Q25.393763 228.35521 25.503138 228.08958Q25.565638 227.93333 25.768763 227.15208Q26.081263 226.02708 26.268763 225.58958Q26.456263 225.15208 26.815638 224.90208Q27.175013 224.65208 27.721888 224.65208Q28.253138 224.65208 28.721888 224.96458Q29.175013 225.26146 29.440638 225.83958Q29.690638 226.41771 29.690638 227.15208Q29.690638 228.37083 29.190638 229.01146Q28.675013 229.63646 27.690638 229.80833ZM22.175013 222.38646L20.956263 222.38646L20.956263 221.32396L22.175013 221.32396L22.175013 222.38646ZM29.550013 222.38646L23.331263 222.38646L23.331263 221.32396L29.550013 221.32396L29.550013 222.38646ZM30.065638 219.58958L30.221888 218.55833Q30.690638 218.49583 30.909388 218.19896Q31.206263 217.80833 31.206263 217.13646Q31.206263 216.40208 30.909388 216.01146Q30.612513 215.60521 30.096888 215.46458Q29.768763 215.37083 28.737513 215.38646Q29.550013 216.07396 29.550013 217.10521Q29.550013 218.38646 28.628138 219.08958Q27.690638 219.79271 26.409388 219.79271Q25.518763 219.79271 24.768763 219.48021Q24.003138 219.15208 23.596888 218.54271Q23.190638 217.93333 23.190638 217.10521Q23.190638 215.99583 24.081263 215.27708L23.331263 215.27708L23.331263 214.30833L28.706263 214.30833Q30.159388 214.30833 30.768763 214.60521Q31.378138 214.90208 31.721888 215.54271Q32.08126 216.18333 32.08126 217.12083Q32.08126 218.23021 31.581263 218.91771Q31.081263 219.60521 30.065638 219.58958ZM26.331263 218.71458Q27.550013 218.71458 28.112513 218.23021Q28.675013 217.74583 28.675013 217.01146Q28.675013 216.27708 28.112513 215.79271Q27.550013 215.29271 26.362513 215.29271Q25.221888 215.29271 24.643763 215.80833Q24.065638 216.30833 24.065638 217.02708Q24.065638 217.73021 24.643763 218.23021Q25.206263 218.71458 26.331263 218.71458ZM26.534388 206.12083L26.831263 204.99583Q28.221888 205.35521 28.956263 206.27708Q29.690638 207.19896 29.690638 208.54271Q29.690638 209.93333 29.128138 210.80833Q28.565638 211.68333 27.503138 212.13646Q26.425013 212.58958 25.190638 212.58958Q23.846888 212.58958 22.846888 212.07396Q21.846888 211.55833 21.331263 210.62083Q20.815638 209.66771 20.815638 208.52708Q20.815638 207.24583 21.471888 206.37083Q22.128138 205.48021 23.315638 205.13646L23.581263 206.26146Q22.643763 206.55833 22.221888 207.13646Q21.784388 207.69896 21.784388 208.55833Q21.784388 209.54271 22.268763 210.21458Q22.737513 210.87083 23.534388 211.15208Q24.331263 211.41771 25.190638 211.41771Q26.284388 211.41771 27.096888 211.10521Q27.909388 210.77708 28.315638 210.10521Q28.721888 209.43333 28.721888 208.63646Q28.721888 207.68333 28.175013 207.02708Q27.628138 206.35521 26.534388 206.12083ZM29.550013 203.40208L23.331263 203.40208L23.331263 202.44896L24.268763 202.44896Q23.612513 202.08958 23.409388 201.79271Q23.190638 201.48021 23.190638 201.10521Q23.190638 200.57396 23.518763 200.02708L24.503138 200.38646Q24.268763 200.77708 24.268763 201.15208Q24.268763 201.51146 24.487513 201.79271Q24.690638 202.05833 25.065638 202.16771Q25.628138 202.35521 26.284388 202.35521L29.550013 202.35521L29.550013 203.40208ZM32.08126 197.37083Q30.971888 198.24583 29.503138 198.85521Q28.018763 199.44896 26.440638 199.44896Q25.050013 199.44896 23.768763 199.01146Q22.284388 198.48021 20.815638 197.37083L20.815638 196.62083Q22.034388 197.32396 22.550013 197.55833Q23.362513 197.91771 24.237513 198.12083Q25.331263 198.37083 26.440638 198.37083Q29.268763 198.37083 32.08126 196.62083L32.08126 197.37083ZM29.550013 195.38646L23.331263 195.38646L23.331263 194.44896L24.206263 194.44896Q23.190638 193.76146 23.190638 192.46458Q23.190638 191.90208 23.393763 191.43333Q23.596888 190.94896 23.925013 190.71458Q24.253138 190.48021 24.690638 190.38646Q24.987513 190.33958 25.721888 190.33958L29.550013 190.33958L29.550013 191.38646L25.768763 191.38646Q25.112513 191.38646 24.800013 191.51146Q24.487513 191.63646 24.300013 191.94896Q24.096888 192.26146 24.096888 192.68333Q24.096888 193.35521 24.534388 193.85521Q24.956263 194.33958 26.143763 194.33958L29.550013 194.33958L29.550013 195.38646ZM29.550013 188.38646L23.331263 188.38646L23.331263 187.44896L24.206263 187.44896Q23.190638 186.76146 23.190638 185.46458Q23.190638 184.90208 23.393763 184.43333Q23.596888 183.94896 23.925013 183.71458Q24.253138 183.48021 24.690638 183.38646Q24.987513 183.33958 25.721888 183.33958L29.550013 183.33958L29.550013 184.38646L25.768763 184.38646Q25.112513 184.38646 24.800013 184.51146Q24.487513 184.63646 24.300013 184.94896Q24.096888 185.26146 24.096888 185.68333Q24.096888 186.35521 24.534388 186.85521Q24.956263 187.33958 26.143763 187.33958L29.550013 187.33958L29.550013 188.38646ZM32.08126 180.69896L32.08126 181.44896Q29.268763 179.69896 26.440638 179.69896Q25.346888 179.69896 24.253138 179.94896Q23.378138 180.15208 22.565638 180.51146Q22.050013 180.74583 20.815638 181.44896L20.815638 180.69896Q22.284388 179.60521 23.768763 179.07396Q25.050013 178.62083 26.440638 178.62083Q28.018763 178.62083 29.503138 179.23021Q30.971888 179.83958 32.08126 180.69896ZM31.940638 174.37083L20.956263 174.37083L20.956263 172.04271L21.831263 172.04271L21.831263 173.30833L31.065638 173.30833L31.065638 172.04271L31.940638 172.04271L31.940638 174.37083ZM29.550013 171.29271L20.956263 171.29271L20.956263 169.57396L27.034388 167.54271Q27.893763 167.26146 28.315638 167.13646Q27.846888 166.99583 26.940638 166.68333L20.956263 164.62083L20.956263 163.08958L29.550013 163.08958L29.550013 164.18333L22.362513 164.18333L29.550013 166.68333L29.550013 167.71458L22.237513 170.19896L29.550013 170.19896L29.550013 171.29271ZM29.550013 162.26146L20.956263 162.26146L20.956263 159.01146Q20.956263 158.16771 21.034388 157.71458Q21.143763 157.07396 21.440638 156.65208Q21.737513 156.21458 22.268763 155.96458Q22.800013 155.69896 23.440638 155.69896Q24.534388 155.69896 25.300013 156.40208Q26.050013 157.08958 26.050013 158.91771L26.050013 161.12083L29.550013 161.12083L29.550013 162.26146ZM25.050013 161.12083L25.050013 158.90208Q25.050013 157.79271 24.643763 157.33958Q24.221888 156.87083 23.471888 156.87083Q22.940638 156.87083 22.565638 157.15208Q22.175013 157.41771 22.050013 157.85521Q21.971888 158.15208 21.971888 158.91771L21.971888 161.12083L25.050013 161.12083ZM28.784388 150.32396Q29.284388 150.91771 29.487513 151.46458Q29.690638 151.99583 29.690638 152.62083Q29.690638 153.65208 29.190638 154.19896Q28.690638 154.74583 27.909388 154.74583Q27.456263 154.74583 27.081263 154.54271Q26.690638 154.33958 26.471888 153.99583Q26.237513 153.65208 26.128138 153.23021Q26.034388 152.93333 25.956263 152.29271Q25.815638 151.02708 25.596888 150.41771Q25.378138 150.41771 25.331263 150.41771Q24.675013 150.41771 24.409388 150.71458Q24.065638 151.12083 24.065638 151.91771Q24.065638 152.65208 24.331263 153.01146Q24.581263 153.37083 25.237513 153.54271L25.096888 154.57396Q24.440638 154.43333 24.034388 154.10521Q23.628138 153.77708 23.409388 153.16771Q23.190638 152.55833 23.190638 151.76146Q23.190638 150.96458 23.378138 150.46458Q23.565638 149.96458 23.846888 149.73021Q24.128138 149.49583 24.565638 149.40208Q24.831263 149.35521 25.534388 149.35521L26.940638 149.35521Q28.409388 149.35521 28.800013 149.29271Q29.190638 149.21458 29.550013 149.01146L29.550013 150.12083Q29.221888 150.27708 28.784388 150.32396ZM26.425013 150.41771Q26.659388 150.99583 26.831263 152.13646Q26.925013 152.79271 27.050013 153.05833Q27.159388 153.32396 27.378138 153.48021Q27.596888 153.62083 27.878138 153.62083Q28.300013 153.62083 28.581263 153.30833Q28.862513 152.98021 28.862513 152.37083Q28.862513 151.76146 28.596888 151.29271Q28.331263 150.80833 27.862513 150.58958Q27.503138 150.41771 26.815638 150.41771L26.425013 150.41771ZM31.940638 145.62083L31.940638 147.94896L31.065638 147.94896L31.065638 146.68333L21.831263 146.68333L21.831263 147.94896L20.956263 147.94896L20.956263 145.62083L31.940638 145.62083Z" fill-rule="nonzero"/><path fill="#000000" d="M65.05 300.21564Q65.05 298.6844 65.3625 297.7625Q65.675 296.825 66.28438 296.325Q66.90938 295.825 67.84688 295.825Q68.53438 295.825 69.05 296.10626Q69.58125 296.3875 69.925 296.91876Q70.26875 297.4344 70.45625 298.1844Q70.64375 298.9344 70.64375 300.21564Q70.64375 301.73126 70.33125 302.65314Q70.03438 303.575 69.40938 304.09064Q68.8 304.59064 67.84688 304.59064Q66.6125 304.59064 65.89375 303.7Q65.05 302.6375 65.05 300.21564ZM66.12813 300.21564Q66.12813 302.325 66.62813 303.02814Q67.12813 303.73126 67.84688 303.73126Q68.58125 303.73126 69.06563 303.02814Q69.56563 302.325 69.56563 300.21564Q69.56563 298.09064 69.06563 297.40314Q68.58125 296.7 67.83125 296.7Q67.1125 296.7 66.675 297.3094Q66.12813 298.09064 66.12813 300.21564Z" fill-rule="nonzero"/><path fill="#000000" d="M62.01875 256.74335L60.971874 256.74335L60.971874 250.0246Q60.58125 250.38397 59.95625 250.75897Q59.346874 251.11835 58.8625 251.29022L58.8625 250.2746Q59.7375 249.85272 60.39375 249.2746Q61.065624 248.68085 61.346874 248.11835L62.01875 248.11835L62.01875 256.74335ZM65.05 252.50897Q65.05 250.97772 65.3625 250.05585Q65.675 249.11835 66.28438 248.61835Q66.90938 248.11835 67.84688 248.11835Q68.53438 248.11835 69.05 248.3996Q69.58125 248.68085 69.925 249.2121Q70.26875 249.72772 70.45625 250.47772Q70.64375 251.22772 70.64375 252.50897Q70.64375 254.0246 70.33125 254.94647Q70.03438 255.86835 69.40938 256.38397Q68.8 256.88397 67.84688 256.88397Q66.6125 256.88397 65.89375 255.99335Q65.05 254.93085 65.05 252.50897ZM66.12813 252.50897Q66.12813 254.61835 66.62813 255.32147Q67.12813 256.0246 67.84688 256.0246Q68.58125 256.0246 69.06563 255.32147Q69.56563 254.61835 69.56563 252.50897Q69.56563 250.38397 69.06563 249.69647Q68.58125 248.99335 67.83125 248.99335Q67.1125 248.99335 66.675 249.60272Q66.12813 250.38397 66.12813 252.50897Z" fill-rule="nonzero"/><path fill="#000000" d="M63.596874 208.02104L63.596874 209.03667L57.909374 209.03667Q57.909374 208.66167 58.034374 208.30229Q58.253124 207.72417 58.721874 207.16167Q59.20625 206.59917 60.1125 205.86479Q61.51875 204.70854 62.003124 204.03667Q62.503124 203.36479 62.503124 202.77104Q62.503124 202.14604 62.05 201.72417Q61.596874 201.28667 60.878124 201.28667Q60.1125 201.28667 59.659374 201.73979Q59.20625 202.19292 59.190624 203.00542L58.1125 202.89604Q58.221874 201.67729 58.940624 201.05229Q59.675 200.41167 60.909374 200.41167Q62.14375 200.41167 62.8625 201.09917Q63.58125 201.78667 63.58125 202.80229Q63.58125 203.31792 63.3625 203.81792Q63.159374 204.30229 62.659374 204.86479Q62.175 205.41167 61.05 206.36479Q60.096874 207.16167 59.815624 207.45854Q59.55 207.73979 59.378124 208.02104L63.596874 208.02104ZM65.05 204.80229Q65.05 203.27104 65.3625 202.34917Q65.675 201.41167 66.28438 200.91167Q66.90938 200.41167 67.84688 200.41167Q68.53438 200.41167 69.05 200.69292Q69.58125 200.97417 69.925 201.50542Q70.26875 202.02104 70.45625 202.77104Q70.64375 203.52104 70.64375 204.80229Q70.64375 206.31792 70.33125 207.23979Q70.03438 208.16167 69.40938 208.67729Q68.8 209.17729 67.84688 209.17729Q66.6125 209.17729 65.89375 208.28667Q65.05 207.22417 65.05 204.80229ZM66.12813 204.80229Q66.12813 206.91167 66.62813 207.61479Q67.12813 208.31792 67.84688 208.31792Q68.58125 208.31792 69.06563 207.61479Q69.56563 206.91167 69.56563 204.80229Q69.56563 202.67729 69.06563 201.98979Q68.58125 201.28667 67.83125 201.28667Q67.1125 201.28667 66.675 201.89604Q66.12813 202.67729 66.12813 204.80229Z" fill-rule="nonzero"/><path fill="#000000" d="M58.05 159.06438L59.1125 158.92375Q59.284374 159.81438 59.721874 160.22063Q60.159374 160.61125 60.784374 160.61125Q61.534374 160.61125 62.05 160.09563Q62.565624 159.58 62.565624 158.81438Q62.565624 158.09563 62.08125 157.62688Q61.6125 157.1425 60.878124 157.1425Q60.58125 157.1425 60.128124 157.2675L60.253124 156.33Q60.3625 156.34563 60.425 156.34563Q61.096874 156.34563 61.628124 156.00188Q62.175 155.6425 62.175 154.90813Q62.175 154.33 61.784374 153.955Q61.39375 153.56438 60.76875 153.56438Q60.159374 153.56438 59.7375 153.955Q59.33125 154.34563 59.221874 155.11125L58.159374 154.92375Q58.346874 153.87688 59.034374 153.29875Q59.721874 152.705 60.7375 152.705Q61.440624 152.705 62.034374 153.0175Q62.628124 153.31438 62.940624 153.83Q63.253124 154.34563 63.253124 154.93938Q63.253124 155.48625 62.95625 155.955Q62.659374 156.40813 62.08125 156.67375Q62.83125 156.84563 63.253124 157.40813Q63.675 157.955 63.675 158.79875Q63.675 159.92375 62.846874 160.705Q62.034374 161.48625 60.784374 161.48625Q59.659374 161.48625 58.909374 160.81438Q58.159374 160.12688 58.05 159.06438ZM65.05 157.09563Q65.05 155.56438 65.3625 154.6425Q65.675 153.705 66.28438 153.205Q66.90938 152.705 67.84688 152.705Q68.53438 152.705 69.05 152.98625Q69.58125 153.2675 69.925 153.79875Q70.26875 154.31438 70.45625 155.06438Q70.64375 155.81438 70.64375 157.09563Q70.64375 158.61125 70.33125 159.53313Q70.03438 160.455 69.40938 160.97063Q68.8 161.47063 67.84688 161.47063Q66.6125 161.47063 65.89375 160.58Q65.05 159.5175 65.05 157.09563ZM66.12813 157.09563Q66.12813 159.205 66.62813 159.90813Q67.12813 160.61125 67.84688 160.61125Q68.58125 160.61125 69.06563 159.90813Q69.56563 159.205 69.56563 157.09563Q69.56563 154.97063 69.06563 154.28313Q68.58125 153.58 67.83125 153.58Q67.1125 153.58 66.675 154.18938Q66.12813 154.97063 66.12813 157.09563Z" fill-rule="nonzero"/><path fill="#000000" d="M61.425 113.62334L61.425 111.56084L57.70625 111.56084L57.70625 110.59209L61.628124 105.02959L62.4875 105.02959L62.4875 110.59209L63.64375 110.59209L63.64375 111.56084L62.4875 111.56084L62.4875 113.62334L61.425 113.62334ZM61.425 110.59209L61.425 106.73271L58.7375 110.59209L61.425 110.59209ZM65.05 109.38896Q65.05 107.85771 65.3625 106.93584Q65.675 105.99834 66.28438 105.49834Q66.90938 104.99834 67.84688 104.99834Q68.53438 104.99834 69.05 105.27959Q69.58125 105.56084 69.925 106.09209Q70.26875 106.60771 70.45625 107.35771Q70.64375 108.10771 70.64375 109.38896Q70.64375 110.90459 70.33125 111.82646Q70.03438 112.74834 69.40938 113.26396Q68.8 113.76396 67.84688 113.76396Q66.6125 113.76396 65.89375 112.87334Q65.05 111.81084 65.05 109.38896ZM66.12813 109.38896Q66.12813 111.49834 66.62813 112.20146Q67.12813 112.90459 67.84688 112.90459Q68.58125 112.90459 69.06563 112.20146Q69.56563 111.49834 69.56563 109.38896Q69.56563 107.26396 69.06563 106.57646Q68.58125 105.87334 67.83125 105.87334Q67.1125 105.87334 66.675 106.48271Q66.12813 107.26396 66.12813 109.38896Z" fill-rule="nonzero"/><path fill="#000000" d="M58.05 63.666664L59.159374 63.572914Q59.284374 64.385414 59.721874 64.791664Q60.175 65.197914 60.815624 65.197914Q61.565624 65.197914 62.096874 64.61979Q62.628124 64.041664 62.628124 63.104164Q62.628124 62.197914 62.1125 61.68229Q61.6125 61.15104 60.784374 61.15104Q60.284374 61.15104 59.8625 61.385414Q59.45625 61.61979 59.221874 61.979164L58.2375 61.854164L59.065624 57.447914L63.346874 57.447914L63.346874 58.447914L59.909374 58.447914L59.45625 60.760414Q60.221874 60.21354 61.065624 60.21354Q62.190624 60.21354 62.95625 60.99479Q63.7375 61.77604 63.7375 63.010414Q63.7375 64.166664 63.065624 65.02604Q62.2375 66.05729 60.815624 66.05729Q59.64375 66.05729 58.89375 65.40104Q58.159374 64.74479 58.05 63.666664ZM65.05 61.68229Q65.05 60.15104 65.3625 59.229164Q65.675 58.291664 66.28438 57.791664Q66.90938 57.291664 67.84688 57.291664Q68.53438 57.291664 69.05 57.572914Q69.58125 57.854164 69.925 58.385414Q70.26875 58.90104 70.45625 59.65104Q70.64375 60.40104 70.64375 61.68229Q70.64375 63.197914 70.33125 64.11979Q70.03438 65.041664 69.40938 65.55729Q68.8 66.05729 67.84688 66.05729Q66.6125 66.05729 65.89375 65.166664Q65.05 64.104164 65.05 61.68229ZM66.12813 61.68229Q66.12813 63.791664 66.62813 64.49479Q67.12813 65.197914 67.84688 65.197914Q68.58125 65.197914 69.06563 64.49479Q69.56563 63.791664 69.56563 61.68229Q69.56563 59.55729 69.06563 58.86979Q68.58125 58.166664 67.83125 58.166664Q67.1125 58.166664 66.675 58.77604Q66.12813 59.55729 66.12813 61.68229Z" fill-rule="nonzero"/><path fill="#000000" d="M147.52377 316.4344L147.52377 317.45L141.83627 317.45Q141.83627 317.075 141.96127 316.71564Q142.18002 316.1375 142.64877 315.575Q143.13315 315.0125 144.0394 314.27814Q145.44565 313.1219 145.93002 312.45Q146.43002 311.77814 146.43002 311.1844Q146.43002 310.5594 145.9769 310.1375Q145.52377 309.7 144.80502 309.7Q144.0394 309.7 143.58627 310.15314Q143.13315 310.60626 143.11752 311.41876L142.0394 311.3094Q142.14877 310.09064 142.86752 309.46564Q143.6019 308.825 144.83627 308.825Q146.07065 308.825 146.7894 309.5125Q147.50815 310.2 147.50815 311.21564Q147.50815 311.73126 147.2894 312.23126Q147.08627 312.71564 146.58627 313.27814Q146.1019 313.825 144.9769 314.77814Q144.02377 315.575 143.74252 315.8719Q143.4769 316.15314 143.30502 316.4344L147.52377 316.4344ZM149.57065 317.45L149.57065 316.2469L150.77377 316.2469L150.77377 317.45L149.57065 317.45ZM151.9769 313.21564Q151.9769 311.6844 152.2894 310.7625Q152.6019 309.825 153.21127 309.325Q153.83627 308.825 154.77377 308.825Q155.46127 308.825 155.9769 309.10626Q156.50815 309.3875 156.8519 309.91876Q157.19565 310.4344 157.38315 311.1844Q157.57065 311.9344 157.57065 313.21564Q157.57065 314.73126 157.25815 315.65314Q156.96127 316.575 156.33627 317.09064Q155.7269 317.59064 154.77377 317.59064Q153.5394 317.59064 152.82065 316.7Q151.9769 315.6375 151.9769 313.21564ZM153.05502 313.21564Q153.05502 315.325 153.55502 316.02814Q154.05502 316.73126 154.77377 316.73126Q155.50815 316.73126 155.99252 316.02814Q156.49252 315.325 156.49252 313.21564Q156.49252 311.09064 155.99252 310.40314Q155.50815 309.7 154.75815 309.7Q154.0394 309.7 153.6019 310.3094Q153.05502 311.09064 153.05502 313.21564ZM158.9769 313.21564Q158.9769 311.6844 159.2894 310.7625Q159.6019 309.825 160.21127 309.325Q160.83627 308.825 161.77377 308.825Q162.46127 308.825 162.9769 309.10626Q163.50815 309.3875 163.8519 309.91876Q164.19565 310.4344 164.38315 311.1844Q164.57065 311.9344 164.57065 313.21564Q164.57065 314.73126 164.25815 315.65314Q163.96127 316.575 163.33627 317.09064Q162.7269 317.59064 161.77377 317.59064Q160.5394 317.59064 159.82065 316.7Q158.9769 315.6375 158.9769 313.21564ZM160.05502 313.21564Q160.05502 315.325 160.55502 316.02814Q161.05502 316.73126 161.77377 316.73126Q162.50815 316.73126 162.99252 316.02814Q163.49252 315.325 163.49252 313.21564Q163.49252 311.09064 162.99252 310.40314Q162.50815 309.7 161.75815 309.7Q161.0394 309.7 160.6019 310.3094Q160.05502 311.09064 160.05502 313.21564ZM166.43002 317.45L166.43002 308.85626L172.63315 308.85626L172.63315 309.8719L167.57065 309.8719L167.57065 312.4969L172.32065 312.4969L172.32065 313.5125L167.57065 313.5125L167.57065 316.4344L172.83627 316.4344L172.83627 317.45L166.43002 317.45ZM173.8519 314.8719L173.8519 313.8094L177.1019 313.8094L177.1019 314.8719L173.8519 314.8719ZM177.9769 313.21564Q177.9769 311.6844 178.2894 310.7625Q178.6019 309.825 179.21127 309.325Q179.83627 308.825 180.77377 308.825Q181.46127 308.825 181.9769 309.10626Q182.50815 309.3875 182.8519 309.91876Q183.19565 310.4344 183.38315 311.1844Q183.57065 311.9344 183.57065 313.21564Q183.57065 314.73126 183.25815 315.65314Q182.96127 316.575 182.33627 317.09064Q181.7269 317.59064 180.77377 317.59064Q179.5394 317.59064 178.82065 316.7Q177.9769 315.6375 177.9769 313.21564ZM179.05502 313.21564Q179.05502 315.325 179.55502 316.02814Q180.05502 316.73126 180.77377 316.73126Q181.50815 316.73126 181.99252 316.02814Q182.49252 315.325 182.49252 313.21564Q182.49252 311.09064 181.99252 310.40314Q181.50815 309.7 180.75815 309.7Q180.0394 309.7 179.6019 310.3094Q179.05502 311.09064 179.05502 313.21564ZM190.52377 316.4344L190.52377 317.45L184.83627 317.45Q184.83627 317.075 184.96127 316.71564Q185.18002 316.1375 185.64877 315.575Q186.13315 315.0125 187.0394 314.27814Q188.44565 313.1219 188.93002 312.45Q189.43002 311.77814 189.43002 311.1844Q189.43002 310.5594 188.9769 310.1375Q188.52377 309.7 187.80502 309.7Q187.0394 309.7 186.58627 310.15314Q186.13315 310.60626 186.11752 311.41876L185.0394 311.3094Q185.14877 310.09064 185.86752 309.46564Q186.6019 308.825 187.83627 308.825Q189.07065 308.825 189.7894 309.5125Q190.50815 310.2 190.50815 311.21564Q190.50815 311.73126 190.2894 312.23126Q190.08627 312.71564 189.58627 313.27814Q189.1019 313.825 187.9769 314.77814Q187.02377 315.575 186.74252 315.8719Q186.4769 316.15314 186.30502 316.4344L190.52377 316.4344Z" fill-rule="nonzero"/><path fill="#000000" d="M234.27882 317.45L234.27882 315.3875L230.56007 315.3875L230.56007 314.41876L234.48195 308.85626L235.34132 308.85626L235.34132 314.41876L236.49757 314.41876L236.49757 315.3875L235.34132 315.3875L235.34132 317.45L234.27882 317.45ZM234.27882 314.41876L234.27882 310.5594L231.59132 314.41876L234.27882 314.41876ZM238.49757 317.45L238.49757 316.2469L239.7007 316.2469L239.7007 317.45L238.49757 317.45ZM240.90382 313.21564Q240.90382 311.6844 241.21632 310.7625Q241.52882 309.825 242.1382 309.325Q242.7632 308.825 243.7007 308.825Q244.3882 308.825 244.90382 309.10626Q245.43507 309.3875 245.77882 309.91876Q246.12257 310.4344 246.31007 311.1844Q246.49757 311.9344 246.49757 313.21564Q246.49757 314.73126 246.18507 315.65314Q245.8882 316.575 245.2632 317.09064Q244.65382 317.59064 243.7007 317.59064Q242.46632 317.59064 241.74757 316.7Q240.90382 315.6375 240.90382 313.21564ZM241.98195 313.21564Q241.98195 315.325 242.48195 316.02814Q242.98195 316.73126 243.7007 316.73126Q244.43507 316.73126 244.91945 316.02814Q245.41945 315.325 245.41945 313.21564Q245.41945 311.09064 244.91945 310.40314Q244.43507 309.7 243.68507 309.7Q242.96632 309.7 242.52882 310.3094Q241.98195 311.09064 241.98195 313.21564ZM247.90382 313.21564Q247.90382 311.6844 248.21632 310.7625Q248.52882 309.825 249.1382 309.325Q249.7632 308.825 250.7007 308.825Q251.3882 308.825 251.90382 309.10626Q252.43507 309.3875 252.77882 309.91876Q253.12257 310.4344 253.31007 311.1844Q253.49757 311.9344 253.49757 313.21564Q253.49757 314.73126 253.18507 315.65314Q252.8882 316.575 252.2632 317.09064Q251.65382 317.59064 250.7007 317.59064Q249.46632 317.59064 248.74757 316.7Q247.90382 315.6375 247.90382 313.21564ZM248.98195 313.21564Q248.98195 315.325 249.48195 316.02814Q249.98195 316.73126 250.7007 316.73126Q251.43507 316.73126 251.91945 316.02814Q252.41945 315.325 252.41945 313.21564Q252.41945 311.09064 251.91945 310.40314Q251.43507 309.7 250.68507 309.7Q249.96632 309.7 249.52882 310.3094Q248.98195 311.09064 248.98195 313.21564ZM255.35695 317.45L255.35695 308.85626L261.56006 308.85626L261.56006 309.8719L256.49756 309.8719L256.49756 312.4969L261.24756 312.4969L261.24756 313.5125L256.49756 313.5125L256.49756 316.4344L261.76318 316.4344L261.76318 317.45L255.35695 317.45ZM262.7788 314.8719L262.7788 313.8094L266.0288 313.8094L266.0288 314.8719L262.7788 314.8719ZM266.9038 313.21564Q266.9038 311.6844 267.2163 310.7625Q267.5288 309.825 268.13818 309.325Q268.76318 308.825 269.70068 308.825Q270.38818 308.825 270.9038 309.10626Q271.43506 309.3875 271.7788 309.91876Q272.12256 310.4344 272.31006 311.1844Q272.49756 311.9344 272.49756 313.21564Q272.49756 314.73126 272.18506 315.65314Q271.88818 316.575 271.26318 317.09064Q270.6538 317.59064 269.70068 317.59064Q268.4663 317.59064 267.74756 316.7Q266.9038 315.6375 266.9038 313.21564ZM267.98193 313.21564Q267.98193 315.325 268.48193 316.02814Q268.98193 316.73126 269.70068 316.73126Q270.43506 316.73126 270.91943 316.02814Q271.41943 315.325 271.41943 313.21564Q271.41943 311.09064 270.91943 310.40314Q270.43506 309.7 269.68506 309.7Q268.9663 309.7 268.5288 310.3094Q267.98193 311.09064 267.98193 313.21564ZM279.45068 316.4344L279.45068 317.45L273.76318 317.45Q273.76318 317.075 273.88818 316.71564Q274.10693 316.1375 274.57568 315.575Q275.06006 315.0125 275.9663 314.27814Q277.37256 313.1219 277.85693 312.45Q278.35693 311.77814 278.35693 311.1844Q278.35693 310.5594 277.9038 310.1375Q277.45068 309.7 276.73193 309.7Q275.9663 309.7 275.51318 310.15314Q275.06006 310.60626 275.04443 311.41876L273.9663 311.3094Q274.07568 310.09064 274.79443 309.46564Q275.5288 308.825 276.76318 308.825Q277.99756 308.825 278.7163 309.5125Q279.43506 310.2 279.43506 311.21564Q279.43506 311.73126 279.2163 312.23126Q279.01318 312.71564 278.51318 313.27814Q278.0288 313.825 276.9038 314.77814Q275.95068 315.575 275.66943 315.8719Q275.4038 316.15314 275.23193 316.4344L279.45068 316.4344Z" fill-rule="nonzero"/><path fill="#000000" d="M325.29953 310.96564L324.25266 311.04376Q324.11203 310.41876 323.86203 310.1375Q323.42453 309.6844 322.79953 309.6844Q322.29953 309.6844 321.9089 309.96564Q321.42453 310.34064 321.12766 311.04376Q320.8464 311.73126 320.83078 313.0125Q321.20578 312.4344 321.75266 312.15314Q322.31516 311.8719 322.92453 311.8719Q323.9714 311.8719 324.70578 312.65314Q325.45578 313.4344 325.45578 314.65314Q325.45578 315.46564 325.0964 316.16876Q324.75266 316.85626 324.14328 317.23126Q323.5339 317.59064 322.76828 317.59064Q321.44016 317.59064 320.61203 316.6219Q319.7839 315.65314 319.7839 313.4344Q319.7839 310.9344 320.70578 309.8094Q321.50266 308.825 322.86203 308.825Q323.87766 308.825 324.51828 309.40314Q325.17453 309.96564 325.29953 310.96564ZM321.00266 314.66876Q321.00266 315.21564 321.2214 315.71564Q321.45578 316.2 321.86203 316.46564Q322.2839 316.73126 322.75266 316.73126Q323.4089 316.73126 323.89328 316.2Q324.37766 315.65314 324.37766 314.73126Q324.37766 313.84064 323.89328 313.325Q323.42453 312.8094 322.70578 312.8094Q321.98703 312.8094 321.48703 313.325Q321.00266 313.84064 321.00266 314.66876ZM327.42453 317.45L327.42453 316.2469L328.62766 316.2469L328.62766 317.45L327.42453 317.45ZM329.83078 313.21564Q329.83078 311.6844 330.14328 310.7625Q330.45578 309.825 331.06516 309.325Q331.69016 308.825 332.62766 308.825Q333.31516 308.825 333.83078 309.10626Q334.36203 309.3875 334.70578 309.91876Q335.04953 310.4344 335.23703 311.1844Q335.42453 311.9344 335.42453 313.21564Q335.42453 314.73126 335.11203 315.65314Q334.81516 316.575 334.19016 317.09064Q333.58078 317.59064 332.62766 317.59064Q331.39328 317.59064 330.67453 316.7Q329.83078 315.6375 329.83078 313.21564ZM330.9089 313.21564Q330.9089 315.325 331.4089 316.02814Q331.9089 316.73126 332.62766 316.73126Q333.36203 316.73126 333.8464 316.02814Q334.3464 315.325 334.3464 313.21564Q334.3464 311.09064 333.8464 310.40314Q333.36203 309.7 332.61203 309.7Q331.89328 309.7 331.45578 310.3094Q330.9089 311.09064 330.9089 313.21564ZM336.83078 313.21564Q336.83078 311.6844 337.14328 310.7625Q337.45578 309.825 338.06516 309.325Q338.69016 308.825 339.62766 308.825Q340.31516 308.825 340.83078 309.10626Q341.36203 309.3875 341.70578 309.91876Q342.04953 310.4344 342.23703 311.1844Q342.42453 311.9344 342.42453 313.21564Q342.42453 314.73126 342.11203 315.65314Q341.81516 316.575 341.19016 317.09064Q340.58078 317.59064 339.62766 317.59064Q338.39328 317.59064 337.67453 316.7Q336.83078 315.6375 336.83078 313.21564ZM337.9089 313.21564Q337.9089 315.325 338.4089 316.02814Q338.9089 316.73126 339.62766 316.73126Q340.36203 316.73126 340.8464 316.02814Q341.3464 315.325 341.3464 313.21564Q341.3464 311.09064 340.8464 310.40314Q340.36203 309.7 339.61203 309.7Q338.89328 309.7 338.45578 310.3094Q337.9089 311.09064 337.9089 313.21564ZM344.2839 317.45L344.2839 308.85626L350.48703 308.85626L350.48703 309.8719L345.42453 309.8719L345.42453 312.4969L350.17453 312.4969L350.17453 313.5125L345.42453 313.5125L345.42453 316.4344L350.69016 316.4344L350.69016 317.45L344.2839 317.45ZM351.70578 314.8719L351.70578 313.8094L354.95578 313.8094L354.95578 314.8719L351.70578 314.8719ZM355.83078 313.21564Q355.83078 311.6844 356.14328 310.7625Q356.45578 309.825 357.06516 309.325Q357.69016 308.825 358.62766 308.825Q359.31516 308.825 359.83078 309.10626Q360.36203 309.3875 360.70578 309.91876Q361.04953 310.4344 361.23703 311.1844Q361.42453 311.9344 361.42453 313.21564Q361.42453 314.73126 361.11203 315.65314Q360.81516 316.575 360.19016 317.09064Q359.58078 317.59064 358.62766 317.59064Q357.39328 317.59064 356.67453 316.7Q355.83078 315.6375 355.83078 313.21564ZM356.9089 313.21564Q356.9089 315.325 357.4089 316.02814Q357.9089 316.73126 358.62766 316.73126Q359.36203 316.73126 359.8464 316.02814Q360.3464 315.325 360.3464 313.21564Q360.3464 311.09064 359.8464 310.40314Q359.36203 309.7 358.61203 309.7Q357.89328 309.7 357.45578 310.3094Q356.9089 311.09064 356.9089 313.21564ZM368.37766 316.4344L368.37766 317.45L362.69016 317.45Q362.69016 317.075 362.81516 316.71564Q363.0339 316.1375 363.50266 315.575Q363.98703 315.0125 364.89328 314.27814Q366.29953 313.1219 366.7839 312.45Q367.2839 311.77814 367.2839 311.1844Q367.2839 310.5594 366.83078 310.1375Q366.37766 309.7 365.6589 309.7Q364.89328 309.7 364.44016 310.15314Q363.98703 310.60626 363.9714 311.41876L362.89328 311.3094Q363.00266 310.09064 363.7214 309.46564Q364.45578 308.825 365.69016 308.825Q366.92453 308.825 367.64328 309.5125Q368.36203 310.2 368.36203 311.21564Q368.36203 311.73126 368.14328 312.23126Q367.94016 312.71564 367.44016 313.27814Q366.95578 313.825 365.83078 314.77814Q364.87766 315.575 364.5964 315.8719Q364.33078 316.15314 364.1589 316.4344L368.37766 316.4344Z" fill-rule="nonzero"/><path fill="#000000" d="M410.3827 312.79376Q409.72644 312.54376 409.39832 312.10626Q409.08582 311.65314 409.08582 311.04376Q409.08582 310.10626 409.7577 309.46564Q410.4452 308.825 411.55457 308.825Q412.67957 308.825 413.36707 309.48126Q414.05457 310.1375 414.05457 311.075Q414.05457 311.66876 413.74207 312.10626Q413.42957 312.54376 412.78894 312.79376Q413.58582 313.04376 413.99207 313.6219Q414.39832 314.2 414.39832 314.9969Q414.39832 316.09064 413.61707 316.84064Q412.85144 317.59064 411.5702 317.59064Q410.30457 317.59064 409.52332 316.84064Q408.74207 316.09064 408.74207 314.96564Q408.74207 314.1219 409.16394 313.5594Q409.60144 312.9969 410.3827 312.79376ZM410.16394 310.9969Q410.16394 311.60626 410.55457 311.9969Q410.96082 312.3875 411.58582 312.3875Q412.1952 312.3875 412.58582 312.0125Q412.97644 311.6219 412.97644 311.0594Q412.97644 310.48126 412.5702 310.09064Q412.16394 309.6844 411.5702 309.6844Q410.96082 309.6844 410.55457 310.075Q410.16394 310.46564 410.16394 310.9969ZM409.83582 314.96564Q409.83582 315.41876 410.03894 315.84064Q410.2577 316.2625 410.67957 316.4969Q411.10144 316.73126 411.58582 316.73126Q412.33582 316.73126 412.8202 316.2469Q413.3202 315.7625 413.3202 315.0125Q413.3202 314.2469 412.8202 313.7469Q412.3202 313.2469 411.55457 313.2469Q410.80457 313.2469 410.3202 313.7469Q409.83582 314.23126 409.83582 314.96564ZM416.35144 317.45L416.35144 316.2469L417.55457 316.2469L417.55457 317.45L416.35144 317.45ZM418.7577 313.21564Q418.7577 311.6844 419.0702 310.7625Q419.3827 309.825 419.99207 309.325Q420.61707 308.825 421.55457 308.825Q422.24207 308.825 422.7577 309.10626Q423.28894 309.3875 423.6327 309.91876Q423.97644 310.4344 424.16394 311.1844Q424.35144 311.9344 424.35144 313.21564Q424.35144 314.73126 424.03894 315.65314Q423.74207 316.575 423.11707 317.09064Q422.5077 317.59064 421.55457 317.59064Q420.3202 317.59064 419.60144 316.7Q418.7577 315.6375 418.7577 313.21564ZM419.83582 313.21564Q419.83582 315.325 420.33582 316.02814Q420.83582 316.73126 421.55457 316.73126Q422.28894 316.73126 422.77332 316.02814Q423.27332 315.325 423.27332 313.21564Q423.27332 311.09064 422.77332 310.40314Q422.28894 309.7 421.53894 309.7Q420.8202 309.7 420.3827 310.3094Q419.83582 311.09064 419.83582 313.21564ZM425.7577 313.21564Q425.7577 311.6844 426.0702 310.7625Q426.3827 309.825 426.99207 309.325Q427.61707 308.825 428.55457 308.825Q429.24207 308.825 429.7577 309.10626Q430.28894 309.3875 430.6327 309.91876Q430.97644 310.4344 431.16394 311.1844Q431.35144 311.9344 431.35144 313.21564Q431.35144 314.73126 431.03894 315.65314Q430.74207 316.575 430.11707 317.09064Q429.5077 317.59064 428.55457 317.59064Q427.3202 317.59064 426.60144 316.7Q425.7577 315.6375 425.7577 313.21564ZM426.83582 313.21564Q426.83582 315.325 427.33582 316.02814Q427.83582 316.73126 428.55457 316.73126Q429.28894 316.73126 429.77332 316.02814Q430.27332 315.325 430.27332 313.21564Q430.27332 311.09064 429.77332 310.40314Q429.28894 309.7 428.53894 309.7Q427.8202 309.7 427.3827 310.3094Q426.83582 311.09064 426.83582 313.21564ZM433.21082 317.45L433.21082 308.85626L439.41394 308.85626L439.41394 309.8719L434.35144 309.8719L434.35144 312.4969L439.10144 312.4969L439.10144 313.5125L434.35144 313.5125L434.35144 316.4344L439.61707 316.4344L439.61707 317.45L433.21082 317.45ZM440.6327 314.8719L440.6327 313.8094L443.8827 313.8094L443.8827 314.8719L440.6327 314.8719ZM444.7577 313.21564Q444.7577 311.6844 445.0702 310.7625Q445.3827 309.825 445.99207 309.325Q446.61707 308.825 447.55457 308.825Q448.24207 308.825 448.7577 309.10626Q449.28894 309.3875 449.6327 309.91876Q449.97644 310.4344 450.16394 311.1844Q450.35144 311.9344 450.35144 313.21564Q450.35144 314.73126 450.03894 315.65314Q449.74207 316.575 449.11707 317.09064Q448.5077 317.59064 447.55457 317.59064Q446.3202 317.59064 445.60144 316.7Q444.7577 315.6375 444.7577 313.21564ZM445.83582 313.21564Q445.83582 315.325 446.33582 316.02814Q446.83582 316.73126 447.55457 316.73126Q448.28894 316.73126 448.77332 316.02814Q449.27332 315.325 449.27332 313.21564Q449.27332 311.09064 448.77332 310.40314Q448.28894 309.7 447.53894 309.7Q446.8202 309.7 446.3827 310.3094Q445.83582 311.09064 445.83582 313.21564ZM457.30457 316.4344L457.30457 317.45L451.61707 317.45Q451.61707 317.075 451.74207 316.71564Q451.96082 316.1375 452.42957 315.575Q452.91394 315.0125 453.8202 314.27814Q455.22644 313.1219 455.71082 312.45Q456.21082 311.77814 456.21082 311.1844Q456.21082 310.5594 455.7577 310.1375Q455.30457 309.7 454.58582 309.7Q453.8202 309.7 453.36707 310.15314Q452.91394 310.60626 452.89832 311.41876L451.8202 311.3094Q451.92957 310.09064 452.64832 309.46564Q453.3827 308.825 454.61707 308.825Q455.85144 308.825 456.5702 309.5125Q457.28894 310.2 457.28894 311.21564Q457.28894 311.73126 457.0702 312.23126Q456.86707 312.71564 456.36707 313.27814Q455.8827 313.825 454.7577 314.77814Q453.80457 315.575 453.52332 315.8719Q453.2577 316.15314 453.08582 316.4344L457.30457 316.4344Z" fill-rule="nonzero"/><path fill="#000000" d="M501.65338 317.45L500.6065 317.45L500.6065 310.73126Q500.21588 311.09064 499.59088 311.46564Q498.9815 311.825 498.49713 311.9969L498.49713 310.98126Q499.37213 310.5594 500.02838 309.98126Q500.70026 309.3875 500.9815 308.825L501.65338 308.825L501.65338 317.45ZM505.27838 317.45L505.27838 316.2469L506.4815 316.2469L506.4815 317.45L505.27838 317.45ZM507.68463 313.21564Q507.68463 311.6844 507.99713 310.7625Q508.30963 309.825 508.919 309.325Q509.544 308.825 510.4815 308.825Q511.169 308.825 511.68463 309.10626Q512.2159 309.3875 512.55963 309.91876Q512.9034 310.4344 513.0909 311.1844Q513.2784 311.9344 513.2784 313.21564Q513.2784 314.73126 512.9659 315.65314Q512.669 316.575 512.044 317.09064Q511.43463 317.59064 510.4815 317.59064Q509.24713 317.59064 508.52838 316.7Q507.68463 315.6375 507.68463 313.21564ZM508.76276 313.21564Q508.76276 315.325 509.26276 316.02814Q509.76276 316.73126 510.4815 316.73126Q511.21588 316.73126 511.70026 316.02814Q512.20026 315.325 512.20026 313.21564Q512.20026 311.09064 511.70026 310.40314Q511.21588 309.7 510.46588 309.7Q509.74713 309.7 509.30963 310.3094Q508.76276 311.09064 508.76276 313.21564ZM514.68463 313.21564Q514.68463 311.6844 514.99713 310.7625Q515.30963 309.825 515.919 309.325Q516.544 308.825 517.4815 308.825Q518.169 308.825 518.68463 309.10626Q519.2159 309.3875 519.55963 309.91876Q519.9034 310.4344 520.0909 311.1844Q520.2784 311.9344 520.2784 313.21564Q520.2784 314.73126 519.9659 315.65314Q519.669 316.575 519.044 317.09064Q518.43463 317.59064 517.4815 317.59064Q516.24713 317.59064 515.5284 316.7Q514.68463 315.6375 514.68463 313.21564ZM515.76276 313.21564Q515.76276 315.325 516.26276 316.02814Q516.76276 316.73126 517.4815 316.73126Q518.2159 316.73126 518.70026 316.02814Q519.20026 315.325 519.20026 313.21564Q519.20026 311.09064 518.70026 310.40314Q518.2159 309.7 517.4659 309.7Q516.74713 309.7 516.30963 310.3094Q515.76276 311.09064 515.76276 313.21564ZM522.13776 317.45L522.13776 308.85626L528.3409 308.85626L528.3409 309.8719L523.2784 309.8719L523.2784 312.4969L528.0284 312.4969L528.0284 313.5125L523.2784 313.5125L523.2784 316.4344L528.544 316.4344L528.544 317.45L522.13776 317.45ZM529.55963 314.8719L529.55963 313.8094L532.80963 313.8094L532.80963 314.8719L529.55963 314.8719ZM533.68463 313.21564Q533.68463 311.6844 533.99713 310.7625Q534.30963 309.825 534.919 309.325Q535.544 308.825 536.4815 308.825Q537.169 308.825 537.68463 309.10626Q538.2159 309.3875 538.55963 309.91876Q538.9034 310.4344 539.0909 311.1844Q539.2784 311.9344 539.2784 313.21564Q539.2784 314.73126 538.9659 315.65314Q538.669 316.575 538.044 317.09064Q537.43463 317.59064 536.4815 317.59064Q535.24713 317.59064 534.5284 316.7Q533.68463 315.6375 533.68463 313.21564ZM534.76276 313.21564Q534.76276 315.325 535.26276 316.02814Q535.76276 316.73126 536.4815 316.73126Q537.2159 316.73126 537.70026 316.02814Q538.20026 315.325 538.20026 313.21564Q538.20026 311.09064 537.70026 310.40314Q537.2159 309.7 536.4659 309.7Q535.74713 309.7 535.30963 310.3094Q534.76276 311.09064 534.76276 313.21564ZM544.6534 317.45L543.6065 317.45L543.6065 310.73126Q543.2159 311.09064 542.5909 311.46564Q541.9815 311.825 541.49713 311.9969L541.49713 310.98126Q542.37213 310.5594 543.0284 309.98126Q543.70026 309.3875 543.9815 308.825L544.6534 308.825L544.6534 317.45Z" fill-rule="nonzero"/><path fill="#000000" d="M214.46875 34.596874L217.21875 34.175Q217.40625 34.971874 217.9375 35.39375Q218.46875 35.8 219.4375 35.8Q220.5 35.8 221.04688 35.409374Q221.40625 35.14375 221.40625 34.675Q221.40625 34.3625 221.20312 34.159374Q221.0 33.971874 220.29688 33.8Q216.96875 33.065624 216.07812 32.45625Q214.84375 31.628124 214.84375 30.128124Q214.84375 28.784374 215.90625 27.8625Q216.98438 26.940624 219.21875 26.940624Q221.34375 26.940624 222.375 27.64375Q223.42188 28.33125 223.8125 29.690624L221.21875 30.159374Q221.04688 29.565624 220.57812 29.2375Q220.125 28.909374 219.26562 28.909374Q218.1875 28.909374 217.71875 29.221874Q217.40625 29.440624 217.40625 29.76875Q217.40625 30.065624 217.67188 30.26875Q218.04688 30.55 220.23438 31.05Q222.42188 31.55 223.29688 32.26875Q224.15625 33.003124 224.15625 34.3Q224.15625 35.7375 222.96875 36.76875Q221.78125 37.784374 219.4375 37.784374Q217.32812 37.784374 216.07812 36.925Q214.84375 36.065624 214.46875 34.596874ZM226.4375 25.76875L226.4375 23.2375L229.1875 23.2375L229.1875 25.76875L226.4375 25.76875ZM226.4375 37.55L226.4375 27.175L229.1875 27.175L229.1875 37.55L226.4375 37.55ZM231.1875 38.2375L234.3125 38.6125Q234.39062 39.159374 234.67188 39.3625Q235.0625 39.659374 235.90625 39.659374Q236.98438 39.659374 237.51562 39.33125Q237.875 39.128124 238.0625 38.64375Q238.1875 38.3 238.1875 37.378124L238.1875 35.8625Q236.96875 37.55 235.09375 37.55Q233.0 37.55 231.78125 35.784374Q230.82812 34.378124 230.82812 32.3Q230.82812 29.690624 232.07812 28.315624Q233.32812 26.940624 235.20312 26.940624Q237.125 26.940624 238.375 28.628124L238.375 27.175L240.9375 27.175L240.9375 36.4875Q240.9375 38.315624 240.625 39.221874Q240.32812 40.14375 239.78125 40.659374Q239.23438 41.175 238.3125 41.45625Q237.40625 41.753124 236.01562 41.753124Q233.375 41.753124 232.26562 40.846874Q231.17188 39.95625 231.17188 38.565624Q231.17188 38.425 231.1875 38.2375ZM233.64062 32.14375Q233.64062 33.8 234.26562 34.565624Q234.90625 35.33125 235.84375 35.33125Q236.85938 35.33125 237.54688 34.55Q238.25 33.753124 238.25 32.221874Q238.25 30.6125 237.57812 29.83125Q236.92188 29.05 235.90625 29.05Q234.90625 29.05 234.26562 29.815624Q233.64062 30.58125 233.64062 32.14375ZM252.60938 32.284374L255.42188 33.175Q254.78125 35.51875 253.28125 36.659374Q251.78125 37.8 249.46875 37.8Q246.625 37.8 244.78125 35.846874Q242.95312 33.89375 242.95312 30.51875Q242.95312 26.940624 244.79688 24.971874Q246.64062 22.9875 249.64062 22.9875Q252.28125 22.9875 253.92188 24.534374Q254.89062 25.45625 255.375 27.175L252.51562 27.8625Q252.26562 26.753124 251.45312 26.1125Q250.65625 25.45625 249.5 25.45625Q247.90625 25.45625 246.90625 26.596874Q245.92188 27.7375 245.92188 30.3Q245.92188 33.01875 246.89062 34.175Q247.875 35.315624 249.4375 35.315624Q250.59375 35.315624 251.42188 34.596874Q252.25 33.8625 252.60938 32.284374ZM260.0625 37.55L257.3125 37.55L257.3125 27.175L259.875 27.175L259.875 28.659374Q260.51562 27.6125 261.03125 27.284374Q261.5625 26.940624 262.23438 26.940624Q263.17188 26.940624 264.03125 27.45625L263.1875 29.846874Q262.5 29.409374 261.90625 29.409374Q261.32812 29.409374 260.92188 29.721874Q260.51562 30.034374 260.28125 30.878124Q260.0625 31.70625 260.0625 34.346874L260.0625 37.55ZM269.98438 41.753124L268.10938 41.753124Q266.60938 39.503124 265.82812 37.08125Q265.04688 34.64375 265.04688 32.3625Q265.04688 29.534374 266.01562 27.01875Q266.85938 24.83125 268.14062 22.9875L270.01562 22.9875Q268.67188 25.940624 268.17188 28.01875Q267.67188 30.096874 267.67188 32.425Q267.67188 34.01875 267.96875 35.70625Q268.26562 37.378124 268.78125 38.89375Q269.125 39.89375 269.98438 41.753124ZM281.875 37.55L279.125 37.55L279.125 32.253124Q279.125 30.58125 278.95312 30.096874Q278.78125 29.596874 278.375 29.33125Q277.98438 29.05 277.42188 29.05Q276.71875 29.05 276.14062 29.440624Q275.57812 29.83125 275.35938 30.471874Q275.15625 31.1125 275.15625 32.846874L275.15625 37.55L272.42188 37.55L272.42188 27.175L274.96875 27.175L274.96875 28.70625Q276.32812 26.940624 278.39062 26.940624Q279.29688 26.940624 280.04688 27.26875Q280.79688 27.596874 281.17188 28.1125Q281.5625 28.6125 281.71875 29.26875Q281.875 29.909374 281.875 31.096874L281.875 37.55ZM293.875 37.55L291.125 37.55L291.125 32.253124Q291.125 30.58125 290.95312 30.096874Q290.78125 29.596874 290.375 29.33125Q289.98438 29.05 289.42188 29.05Q288.71875 29.05 288.14062 29.440624Q287.57812 29.83125 287.35938 30.471874Q287.15625 31.1125 287.15625 32.846874L287.15625 37.55L284.42188 37.55L284.42188 27.175L286.96875 27.175L286.96875 28.70625Q288.32812 26.940624 290.39062 26.940624Q291.29688 26.940624 292.04688 27.26875Q292.79688 27.596874 293.17188 28.1125Q293.5625 28.6125 293.71875 29.26875Q293.875 29.909374 293.875 31.096874L293.875 37.55ZM295.67188 41.753124Q296.48438 40.01875 296.8125 39.08125Q297.15625 38.159374 297.4375 36.95625Q297.71875 35.7375 297.84375 34.659374Q297.98438 33.565624 297.98438 32.425Q297.98438 30.096874 297.48438 28.01875Q297.0 25.940624 295.65625 22.9875L297.51562 22.9875Q299.0 25.08125 299.8125 27.440624Q300.625 29.8 300.625 32.221874Q300.625 34.253124 299.98438 36.596874Q299.25 39.20625 297.5625 41.753124L295.67188 41.753124ZM312.28125 37.55L308.10938 27.175L310.98438 27.175L312.9375 32.471874L313.51562 34.2375Q313.73438 33.565624 313.79688 33.346874Q313.92188 32.909374 314.07812 32.471874L316.0625 27.175L318.875 27.175L314.76562 37.55L312.28125 37.55ZM319.46875 34.596874L322.21875 34.175Q322.40625 34.971874 322.9375 35.39375Q323.46875 35.8 324.4375 35.8Q325.5 35.8 326.04688 35.409374Q326.40625 35.14375 326.40625 34.675Q326.40625 34.3625 326.20312 34.159374Q326.0 33.971874 325.29688 33.8Q321.96875 33.065624 321.07812 32.45625Q319.84375 31.628124 319.84375 30.128124Q319.84375 28.784374 320.90625 27.8625Q321.98438 26.940624 324.21875 26.940624Q326.34375 26.940624 327.375 27.64375Q328.42188 28.33125 328.8125 29.690624L326.21875 30.159374Q326.04688 29.565624 325.57812 29.2375Q325.125 28.909374 324.26562 28.909374Q323.1875 28.909374 322.71875 29.221874Q322.40625 29.440624 322.40625 29.76875Q322.40625 30.065624 322.67188 30.26875Q323.04688 30.55 325.23438 31.05Q327.42188 31.55 328.29688 32.26875Q329.15625 33.003124 329.15625 34.3Q329.15625 35.7375 327.96875 36.76875Q326.78125 37.784374 324.4375 37.784374Q322.32812 37.784374 321.07812 36.925Q319.84375 36.065624 319.46875 34.596874ZM344.26562 37.55L344.26562 36.003124Q343.70312 36.83125 342.76562 37.315624Q341.84375 37.784374 340.82812 37.784374Q339.78125 37.784374 338.95312 37.33125Q338.125 36.8625 337.75 36.034374Q337.375 35.20625 337.375 33.7375L337.375 27.175L340.125 27.175L340.125 31.940624Q340.125 34.128124 340.26562 34.628124Q340.42188 35.1125 340.8125 35.409374Q341.21875 35.690624 341.84375 35.690624Q342.54688 35.690624 343.09375 35.315624Q343.65625 34.925 343.85938 34.3625Q344.0625 33.784374 344.0625 31.55L344.0625 27.175L346.8125 27.175L346.8125 37.55L344.26562 37.55ZM353.98438 41.753124L352.10938 41.753124Q350.60938 39.503124 349.82812 37.08125Q349.04688 34.64375 349.04688 32.3625Q349.04688 29.534374 350.01562 27.01875Q350.85938 24.83125 352.14062 22.9875L354.01562 22.9875Q352.67188 25.940624 352.17188 28.01875Q351.67188 30.096874 351.67188 32.425Q351.67188 34.01875 351.96875 35.70625Q352.26562 37.378124 352.78125 38.89375Q353.125 39.89375 353.98438 41.753124ZM365.875 37.55L363.125 37.55L363.125 32.253124Q363.125 30.58125 362.95312 30.096874Q362.78125 29.596874 362.375 29.33125Q361.98438 29.05 361.42188 29.05Q360.71875 29.05 360.14062 29.440624Q359.57812 29.83125 359.35938 30.471874Q359.15625 31.1125 359.15625 32.846874L359.15625 37.55L356.42188 37.55L356.42188 27.175L358.96875 27.175L358.96875 28.70625Q360.32812 26.940624 362.39062 26.940624Q363.29688 26.940624 364.04688 27.26875Q364.79688 27.596874 365.17188 28.1125Q365.5625 28.6125 365.71875 29.26875Q365.875 29.909374 365.875 31.096874L365.875 37.55ZM377.875 37.55L375.125 37.55L375.125 32.253124Q375.125 30.58125 374.95312 30.096874Q374.78125 29.596874 374.375 29.33125Q373.98438 29.05 373.42188 29.05Q372.71875 29.05 372.14062 29.440624Q371.57812 29.83125 371.35938 30.471874Q371.15625 31.1125 371.15625 32.846874L371.15625 37.55L368.42188 37.55L368.42188 27.175L370.96875 27.175L370.96875 28.70625Q372.32812 26.940624 374.39062 26.940624Q375.29688 26.940624 376.04688 27.26875Q376.79688 27.596874 377.17188 28.1125Q377.5625 28.6125 377.71875 29.26875Q377.875 29.909374 377.875 31.096874L377.875 37.55ZM379.67188 41.753124Q380.48438 40.01875 380.8125 39.08125Q381.15625 38.159374 381.4375 36.95625Q381.71875 35.7375 381.84375 34.659374Q381.98438 33.565624 381.98438 32.425Q381.98438 30.096874 381.48438 28.01875Q381.0 25.940624 379.65625 22.9875L381.51562 22.9875Q383.0 25.08125 383.8125 27.440624Q384.625 29.8 384.625 32.221874Q384.625 34.253124 383.98438 36.596874Q383.25 39.20625 381.5625 41.753124L379.67188 41.753124Z" fill-rule="nonzero"/></svg>