<svg version="1.1" viewBox="0.0 0.0 600.0 371.0" fill="none" stroke="none" stroke-linecap="square" stroke-miterlimit="10" width="600" height="371" xmlns:xlink="http://www.w3.org/1999/xlink" xmlns="http://www.w3.org/2000/svg"><path fill="#ffffff" d="M0 0L600.0 0L600.0 371.0L0 371.0L0 0Z" fill-rule="nonzero"/><path stroke="#333333" stroke-width="1.0" stroke-linecap="butt" d="M84.5 61.5L84.5 300.5" fill-rule="nonzero"/><path stroke="#cccccc" stroke-width="1.0" stroke-linecap="butt" d="M211.5 61.5L211.5 300.5" fill-rule="nonzero"/><path stroke="#cccccc" stroke-width="1.0" stroke-linecap="butt" d="M337.5 61.5L337.5 300.5" fill-rule="nonzero"/><path stroke="#cccccc" stroke-width="1.0" stroke-linecap="butt" d="M464.5 61.5L464.5 300.5" fill-rule="nonzero"/><path stroke="#333333" stroke-width="1.0" stroke-linecap="butt" d="M84.5 300.5L581.5 300.5" fill-rule="nonzero"/><path stroke="#cccccc" stroke-width="1.0" stroke-linecap="butt" d="M84.5 252.5L581.5 252.5" fill-rule="nonzero"/><path stroke="#cccccc" stroke-width="1.0" stroke-linecap="butt" d="M84.5 205.5L581.5 205.5" fill-rule="nonzero"/><path stroke="#cccccc" stroke-width="1.0" stroke-linecap="butt" d="M84.5 157.5L581.5 157.5" fill-rule="nonzero"/><path stroke="#cccccc" stroke-width="1.0" stroke-linecap="butt" d="M84.5 109.5L581.5 109.5" fill-rule="nonzero"/><path stroke="#cccccc" stroke-width="1.0" stroke-linecap="butt" d="M84.5 61.5L581.5 61.5" fill-rule="nonzero"/><clipPath id="id_0"><path d="M84.55 61.916668L581.45 61.916668L581.45 300.45L84.55 300.45L84.55 61.916668Z" clip-rule="nonzero"/></clipPath><path fill="#34a853" fill-opacity="0.3019608" clip-path="url(#id_0)" d="M84.55 300.45L84.550125 76.92041L95.294975 82.48301L106.04502 88.05133L116.79551 93.62252L127.547264 99.19752L138.30092 104.77538L149.05623 110.35706L159.8133 115.94256L170.57214 121.530914L181.33264 127.12309L192.09505 132.71909L202.85909 138.31793L213.62453 143.92157L224.39224 149.52805L235.1625 155.13835L245.93275 160.75153L256.70682 166.3685L267.48087 171.99026L278.25745 177.61487L289.03656 183.24236L299.81696 188.8746L310.5986 194.50972L321.3828 200.14864L332.16824 205.79158L342.95624 211.43794L353.7455 217.08794L364.5373 222.74156L375.33035 228.39891L386.12595 234.05988L396.9228 239.72456L407.7222 245.39288L418.52286 251.06491L429.32605 256.74066L440.13177 262.42017L450.9375 268.10327L461.747 273.7902L472.55783 279.4807L483.36987 285.17508L494.18448 290.87317L505.00162 296.57492L513.91833 300.44775L518.8163 300.44775L523.713 300.44775L528.60724 300.44775L533.4989 300.44775L538.3893 300.44775L543.2784 300.44775L548.165 300.44775L553.049 300.44775L557.9318 300.44775L562.8133 300.44775L567.6923 300.44775L572.57 300.44775L577.4452 300.44775L581.45 300.44775L581.45 300.45L577.4452 300.45L572.57 300.45L567.6923 300.45L562.8133 300.45L557.9318 300.45L553.049 300.45L548.165 300.45L543.2784 300.45L538.3893 300.45L533.4989 300.45L528.60724 300.45L523.713 300.45L518.8163 300.45L513.91833 300.45L505.00162 300.45L494.18448 300.45L483.36987 300.45L472.55783 300.45L461.747 300.45L450.9375 300.45L440.13177 300.45L429.32605 300.45L418.52286 300.45L407.7222 300.45L396.9228 300.45L386.12595 300.45L375.33035 300.45L364.5373 300.45L353.7455 300.45L342.95624 300.45L332.16824 300.45L321.3828 300.45L310.5986 300.45L299.81696 300.45L289.03656 300.45L278.25745 300.45L267.48087 300.45L256.70682 300.45L245.93275 300.45L235.1625 300.45L224.39224 300.45L213.62453 300.45L202.85909 300.45L192.09505 300.45L181.33264 300.45L170.57214 300.45L159.8133 300.45L149.05623 300.45L138.30092 300.45L127.547264 300.45L116.79551 300.45L106.04502 300.45L95.294975 300.45L84.550125 300.45L84.55 300.45Z" fill-rule="nonzero"/><path stroke="#34a853" stroke-width="2.0" stroke-linecap="butt" clip-path="url(#id_0)" d="M84.55 300.45L84.550125 76.92041L95.294975 82.48301L106.04502 88.05133L116.79551 93.62252L127.547264 99.19752L138.30092 104.77538L149.05623 110.35706L159.8133 115.94256L170.57214 121.530914L181.33264 127.12309L192.09505 132.71909L202.85909 138.31793L213.62453 143.92157L224.39224 149.52805L235.1625 155.13835L245.93275 160.75153L256.70682 166.3685L267.48087 171.99026L278.25745 177.61487L289.03656 183.24236L299.81696 188.8746L310.5986 194.50972L321.3828 200.14864L332.16824 205.79158L342.95624 211.43794L353.7455 217.08794L364.5373 222.74156L375.33035 228.39891L386.12595 234.05988L396.9228 239.72456L407.7222 245.39288L418.52286 251.06491L429.32605 256.74066L440.13177 262.42017L450.9375 268.10327L461.747 273.7902L472.55783 279.4807L483.36987 285.17508L494.18448 290.87317L505.00162 296.57492L513.91833 300.44775L518.8163 300.44775L523.713 300.44775L528.60724 300.44775L533.4989 300.44775L538.3893 300.44775L543.2784 300.44775L548.165 300.44775L553.049 300.44775L557.9318 300.44775L562.8133 300.44775L567.6923 300.44775L572.57 300.44775L577.4452 300.44775L581.45 300.44775" fill-rule="nonzero"/><path fill="#000000" fill-opacity="0.0" clip-path="url(#id_0)" d="M87.55 300.45C87.55 302.10684 86.206856 303.45 84.55 303.45C82.89314 303.45 81.55 302.10684 81.55 300.45C81.55 298.79315 82.89314 297.45 84.55 297.45C86.206856 297.45 87.55 298.79315 87.55 300.45Z" fill-rule="nonzero"/><path fill="#000000" fill-opacity="0.0" clip-path="url(#id_0)" d="M87.550125 76.92041C87.550125 78.57727 86.20698 79.92041 84.550125 79.92041C82.89327 79.92041 81.550125 78.57727 81.550125 76.92041C81.550125 75.26356 82.89327 73.92041 84.550125 73.92041C86.20698 73.92041 87.550125 75.26356 87.550125 76.92041Z" fill-rule="nonzero"/><path fill="#000000" fill-opacity="0.0" clip-path="url(#id_0)" d="M98.294975 82.48301C98.294975 84.13986 96.95183 85.48301 95.294975 85.48301C93.63812 85.48301 92.294975 84.13986 92.294975 82.48301C92.294975 80.82616 93.63812 79.48301 95.294975 79.48301C96.95183 79.48301 98.294975 80.82616 98.294975 82.48301Z" fill-rule="nonzero"/><path fill="#000000" fill-opacity="0.0" clip-path="url(#id_0)" d="M109.04502 88.05133C109.04502 89.70818 107.70187 91.05133 106.04502 91.05133C104.38817 91.05133 103.04502 89.70818 103.04502 88.05133C103.04502 86.39448 104.38817 85.05133 106.04502 85.05133C107.70187 85.05133 109.04502 86.39448 109.04502 88.05133Z" fill-rule="nonzero"/><path fill="#000000" fill-opacity="0.0" clip-path="url(#id_0)" d="M119.79551 93.62252C119.79551 95.27937 118.45236 96.62252 116.79551 96.62252C115.13866 96.62252 113.79551 95.27937 113.79551 93.62252C113.79551 91.96566 115.13866 90.62252 116.79551 90.62252C118.45236 90.62252 119.79551 91.96566 119.79551 93.62252Z" fill-rule="nonzero"/><path fill="#000000" fill-opacity="0.0" clip-path="url(#id_0)" d="M130.54727 99.19752C130.54727 100.85437 129.20412 102.19752 127.547264 102.19752C125.89041 102.19752 124.547264 100.85437 124.547264 99.19752C124.547264 97.540665 125.89041 96.19752 127.547264 96.19752C129.20412 96.19752 130.54727 97.540665 130.54727 99.19752Z" fill-rule="nonzero"/><path fill="#000000" fill-opacity="0.0" clip-path="url(#id_0)" d="M141.30092 104.77538C141.30092 106.432236 139.95778 107.77538 138.30092 107.77538C136.64407 107.77538 135.30092 106.432236 135.30092 104.77538C135.30092 103.11853 136.64407 101.77538 138.30092 101.77538C139.95778 101.77538 141.30092 103.11853 141.30092 104.77538Z" fill-rule="nonzero"/><path fill="#000000" fill-opacity="0.0" clip-path="url(#id_0)" d="M152.05623 110.35706C152.05623 112.013916 150.71307 113.35706 149.05623 113.35706C147.39937 113.35706 146.05623 112.013916 146.05623 110.35706C146.05623 108.70021 147.39937 107.35706 149.05623 107.35706C150.71307 107.35706 152.05623 108.70021 152.05623 110.35706Z" fill-rule="nonzero"/><path fill="#000000" fill-opacity="0.0" clip-path="url(#id_0)" d="M162.8133 115.94256C162.8133 117.59941 161.47015 118.94256 159.8133 118.94256C158.15645 118.94256 156.8133 117.59941 156.8133 115.94256C156.8133 114.285706 158.15645 112.94256 159.8133 112.94256C161.47015 112.94256 162.8133 114.285706 162.8133 115.94256Z" fill-rule="nonzero"/><path fill="#000000" fill-opacity="0.0" clip-path="url(#id_0)" d="M173.57214 121.530914C173.57214 123.187775 172.229 124.530914 170.57214 124.530914C168.9153 124.530914 167.57214 123.187775 167.57214 121.530914C167.57214 119.87406 168.9153 118.530914 170.57214 118.530914C172.229 118.530914 173.57214 119.87406 173.57214 121.530914Z" fill-rule="nonzero"/><path fill="#000000" fill-opacity="0.0" clip-path="url(#id_0)" d="M184.33264 127.12309C184.33264 128.77995 182.9895 130.1231 181.33264 130.1231C179.6758 130.1231 178.33264 128.77995 178.33264 127.12309C178.33264 125.46624 179.6758 124.12309 181.33264 124.12309C182.9895 124.12309 184.33264 125.46624 184.33264 127.12309Z" fill-rule="nonzero"/><path fill="#000000" fill-opacity="0.0" clip-path="url(#id_0)" d="M195.09505 132.71909C195.09505 134.37595 193.75189 135.71909 192.09505 135.71909C190.43819 135.71909 189.09505 134.37595 189.09505 132.71909C189.09505 131.06223 190.43819 129.71909 192.09505 129.71909C193.75189 129.71909 195.09505 131.06223 195.09505 132.71909Z" fill-rule="nonzero"/><path fill="#000000" fill-opacity="0.0" clip-path="url(#id_0)" d="M205.85909 138.31793C205.85909 139.9748 204.51595 141.31793 202.85909 141.31793C201.20224 141.31793 199.85909 139.9748 199.85909 138.31793C199.85909 136.66109 201.20224 135.31793 202.85909 135.31793C204.51595 135.31793 205.85909 136.66109 205.85909 138.31793Z" fill-rule="nonzero"/><path fill="#000000" fill-opacity="0.0" clip-path="url(#id_0)" d="M216.62453 143.92157C216.62453 145.57841 215.28139 146.92157 213.62453 146.92157C211.96767 146.92157 210.62453 145.57841 210.62453 143.92157C210.62453 142.26471 211.96767 140.92157 213.62453 140.92157C215.28139 140.92157 216.62453 142.26471 216.62453 143.92157Z" fill-rule="nonzero"/><path fill="#000000" fill-opacity="0.0" clip-path="url(#id_0)" d="M227.39224 149.52805C227.39224 151.1849 226.0491 152.52805 224.39224 152.52805C222.7354 152.52805 221.39224 151.1849 221.39224 149.52805C221.39224 147.8712 222.7354 146.52805 224.39224 146.52805C226.0491 146.52805 227.39224 147.8712 227.39224 149.52805Z" fill-rule="nonzero"/><path fill="#000000" fill-opacity="0.0" clip-path="url(#id_0)" d="M238.1625 155.13835C238.1625 156.79521 236.81935 158.13835 235.1625 158.13835C233.50565 158.13835 232.1625 156.79521 232.1625 155.13835C232.1625 153.4815 233.50565 152.13835 235.1625 152.13835C236.81935 152.13835 238.1625 153.4815 238.1625 155.13835Z" fill-rule="nonzero"/><path fill="#000000" fill-opacity="0.0" clip-path="url(#id_0)" d="M248.93275 160.75153C248.93275 162.40837 247.5896 163.75153 245.93275 163.75153C244.2759 163.75153 242.93275 162.40837 242.93275 160.75153C242.93275 159.09467 244.2759 157.75153 245.93275 157.75153C247.5896 157.75153 248.93275 159.09467 248.93275 160.75153Z" fill-rule="nonzero"/><path fill="#000000" fill-opacity="0.0" clip-path="url(#id_0)" d="M259.70682 166.3685C259.70682 168.02536 258.36365 169.3685 256.70682 169.3685C255.04996 169.3685 253.7068 168.02536 253.7068 166.3685C253.7068 164.71165 255.04996 163.3685 256.70682 163.3685C258.36365 163.3685 259.70682 164.71165 259.70682 166.3685Z" fill-rule="nonzero"/><path fill="#000000" fill-opacity="0.0" clip-path="url(#id_0)" d="M270.48087 171.99026C270.48087 173.64711 269.13773 174.99026 267.48087 174.99026C265.824 174.99026 264.48087 173.64711 264.48087 171.99026C264.48087 170.3334 265.824 168.99026 267.48087 168.99026C269.13773 168.99026 270.48087 170.3334 270.48087 171.99026Z" fill-rule="nonzero"/><path fill="#000000" fill-opacity="0.0" clip-path="url(#id_0)" d="M281.25745 177.61487C281.25745 179.27173 279.9143 180.61487 278.25745 180.61487C276.6006 180.61487 275.25745 179.27173 275.25745 177.61487C275.25745 175.95802 276.6006 174.61487 278.25745 174.61487C279.9143 174.61487 281.25745 175.95802 281.25745 177.61487Z" fill-rule="nonzero"/><path fill="#000000" fill-opacity="0.0" clip-path="url(#id_0)" d="M292.03656 183.24236C292.03656 184.8992 290.69342 186.24236 289.03656 186.24236C287.3797 186.24236 286.03656 184.8992 286.03656 183.24236C286.03656 181.5855 287.3797 180.24236 289.03656 180.24236C290.69342 180.24236 292.03656 181.5855 292.03656 183.24236Z" fill-rule="nonzero"/><path fill="#000000" fill-opacity="0.0" clip-path="url(#id_0)" d="M302.81696 188.8746C302.81696 190.53146 301.47382 191.8746 299.81696 191.8746C298.1601 191.8746 296.81696 190.53146 296.81696 188.8746C296.81696 187.21774 298.1601 185.8746 299.81696 185.8746C301.47382 185.8746 302.81696 187.21774 302.81696 188.8746Z" fill-rule="nonzero"/><path fill="#000000" fill-opacity="0.0" clip-path="url(#id_0)" d="M313.5986 194.50972C313.5986 196.16656 312.25546 197.50972 310.5986 197.50972C308.94174 197.50972 307.5986 196.16656 307.5986 194.50972C307.5986 192.85286 308.94174 191.50972 310.5986 191.50972C312.25546 191.50972 313.5986 192.85286 313.5986 194.50972Z" fill-rule="nonzero"/><path fill="#000000" fill-opacity="0.0" clip-path="url(#id_0)" d="M324.3828 200.14864C324.3828 201.8055 323.03964 203.14864 321.3828 203.14864C319.72595 203.14864 318.3828 201.8055 318.3828 200.14864C318.3828 198.49179 319.72595 197.14864 321.3828 197.14864C323.03964 197.14864 324.3828 198.49179 324.3828 200.14864Z" fill-rule="nonzero"/><path fill="#000000" fill-opacity="0.0" clip-path="url(#id_0)" d="M335.16824 205.79158C335.16824 207.44843 333.8251 208.79158 332.16824 208.79158C330.5114 208.79158 329.16824 207.44843 329.16824 205.79158C329.16824 204.13472 330.5114 202.79158 332.16824 202.79158C333.8251 202.79158 335.16824 204.13472 335.16824 205.79158Z" fill-rule="nonzero"/><path fill="#000000" fill-opacity="0.0" clip-path="url(#id_0)" d="M345.95624 211.43794C345.95624 213.0948 344.6131 214.43794 342.95624 214.43794C341.29938 214.43794 339.95624 213.0948 339.95624 211.43794C339.95624 209.7811 341.29938 208.43794 342.95624 208.43794C344.6131 208.43794 345.95624 209.7811 345.95624 211.43794Z" fill-rule="nonzero"/><path fill="#000000" fill-opacity="0.0" clip-path="url(#id_0)" d="M356.7455 217.08794C356.7455 218.7448 355.40234 220.08794 353.7455 220.08794C352.08865 220.08794 350.7455 218.7448 350.7455 217.08794C350.7455 215.43109 352.08865 214.08794 353.7455 214.08794C355.40234 214.08794 356.7455 215.43109 356.7455 217.08794Z" fill-rule="nonzero"/><path fill="#000000" fill-opacity="0.0" clip-path="url(#id_0)" d="M367.5373 222.74156C367.5373 224.39842 366.19415 225.74156 364.5373 225.74156C362.88043 225.74156 361.5373 224.39842 361.5373 222.74156C361.5373 221.08472 362.88043 219.74156 364.5373 219.74156C366.19415 219.74156 367.5373 221.08472 367.5373 222.74156Z" fill-rule="nonzero"/><path fill="#000000" fill-opacity="0.0" clip-path="url(#id_0)" d="M378.33035 228.39891C378.33035 230.05576 376.9872 231.39891 375.33035 231.39891C373.6735 231.39891 372.33035 230.05576 372.33035 228.39891C372.33035 226.74205 373.6735 225.39891 375.33035 225.39891C376.9872 225.39891 378.33035 226.74205 378.33035 228.39891Z" fill-rule="nonzero"/><path fill="#000000" fill-opacity="0.0" clip-path="url(#id_0)" d="M389.12595 234.05988C389.12595 235.71674 387.7828 237.05988 386.12595 237.05988C384.4691 237.05988 383.12595 235.71674 383.12595 234.05988C383.12595 232.40302 384.4691 231.05988 386.12595 231.05988C387.7828 231.05988 389.12595 232.40302 389.12595 234.05988Z" fill-rule="nonzero"/><path fill="#000000" fill-opacity="0.0" clip-path="url(#id_0)" d="M399.9228 239.72456C399.9228 241.38142 398.57965 242.72456 396.9228 242.72456C395.26593 242.72456 393.9228 241.38142 393.9228 239.72456C393.9228 238.06772 395.26593 236.72456 396.9228 236.72456C398.57965 236.72456 399.9228 238.06772 399.9228 239.72456Z" fill-rule="nonzero"/><path fill="#000000" fill-opacity="0.0" clip-path="url(#id_0)" d="M410.7222 245.39288C410.7222 247.04973 409.37906 248.39288 407.7222 248.39288C406.06534 248.39288 404.7222 247.04973 404.7222 245.39288C404.7222 243.73602 406.06534 242.39288 407.7222 242.39288C409.37906 242.39288 410.7222 243.73602 410.7222 245.39288Z" fill-rule="nonzero"/><path fill="#000000" fill-opacity="0.0" clip-path="url(#id_0)" d="M421.52286 251.06491C421.52286 252.72177 420.17972 254.06491 418.52286 254.06491C416.866 254.06491 415.52286 252.72177 415.52286 251.06491C415.52286 249.40807 416.866 248.06491 418.52286 248.06491C420.17972 248.06491 421.52286 249.40807 421.52286 251.06491Z" fill-rule="nonzero"/><path fill="#000000" fill-opacity="0.0" clip-path="url(#id_0)" d="M432.32605 256.74066C432.32605 258.39752 430.9829 259.74066 429.32605 259.74066C427.6692 259.74066 426.32605 258.39752 426.32605 256.74066C426.32605 255.08382 427.6692 253.74068 429.32605 253.74068C430.9829 253.74068 432.32605 255.08382 432.32605 256.74066Z" fill-rule="nonzero"/><path fill="#000000" fill-opacity="0.0" clip-path="url(#id_0)" d="M443.13177 262.42017C443.13177 264.077 441.78864 265.42017 440.13177 265.42017C438.4749 265.42017 437.13177 264.077 437.13177 262.42017C437.13177 260.7633 438.4749 259.42017 440.13177 259.42017C441.78864 259.42017 443.13177 260.7633 443.13177 262.42017Z" fill-rule="nonzero"/><path fill="#000000" fill-opacity="0.0" clip-path="url(#id_0)" d="M453.9375 268.10327C453.9375 269.7601 452.59436 271.10327 450.9375 271.10327C449.28064 271.10327 447.9375 269.7601 447.9375 268.10327C447.9375 266.4464 449.28064 265.10327 450.9375 265.10327C452.59436 265.10327 453.9375 266.4464 453.9375 268.10327Z" fill-rule="nonzero"/><path fill="#000000" fill-opacity="0.0" clip-path="url(#id_0)" d="M464.747 273.7902C464.747 275.44702 463.40387 276.7902 461.747 276.7902C460.09018 276.7902 458.747 275.44702 458.747 273.7902C458.747 272.13333 460.09018 270.7902 461.747 270.7902C463.40387 270.7902 464.747 272.13333 464.747 273.7902Z" fill-rule="nonzero"/><path fill="#000000" fill-opacity="0.0" clip-path="url(#id_0)" d="M475.55783 279.4807C475.55783 281.13757 474.21466 282.4807 472.55783 282.4807C470.90097 282.4807 469.55783 281.13757 469.55783 279.4807C469.55783 277.82388 470.90097 276.4807 472.55783 276.4807C474.21466 276.4807 475.55783 277.82388 475.55783 279.4807Z" fill-rule="nonzero"/><path fill="#000000" fill-opacity="0.0" clip-path="url(#id_0)" d="M486.36987 285.17508C486.36987 286.83194 485.02673 288.17508 483.36987 288.17508C481.713 288.17508 480.36987 286.83194 480.36987 285.17508C480.36987 283.51825 481.713 282.17508 483.36987 282.17508C485.02673 282.17508 486.36987 283.51825 486.36987 285.17508Z" fill-rule="nonzero"/><path fill="#000000" fill-opacity="0.0" clip-path="url(#id_0)" d="M497.18448 290.87317C497.18448 292.53003 495.84134 293.87317 494.18448 293.87317C492.52762 293.87317 491.18448 292.53003 491.18448 290.87317C491.18448 289.2163 492.52762 287.87317 494.18448 287.87317C495.84134 287.87317 497.18448 289.2163 497.18448 290.87317Z" fill-rule="nonzero"/><path fill="#000000" fill-opacity="0.0" clip-path="url(#id_0)" d="M508.00162 296.57492C508.00162 298.23178 506.65845 299.57492 505.00162 299.57492C503.34476 299.57492 502.00162 298.23178 502.00162 296.57492C502.00162 294.91806 503.34476 293.57492 505.00162 293.57492C506.65845 293.57492 508.00162 294.91806 508.00162 296.57492Z" fill-rule="nonzero"/><path fill="#000000" fill-opacity="0.0" clip-path="url(#id_0)" d="M516.91833 300.44775C516.91833 302.1046 515.5752 303.44775 513.91833 303.44775C512.2615 303.44775 510.91833 302.1046 510.91833 300.44775C510.91833 298.79092 512.2615 297.44775 513.91833 297.44775C515.5752 297.44775 516.91833 298.79092 516.91833 300.44775Z" fill-rule="nonzero"/><path fill="#000000" fill-opacity="0.0" clip-path="url(#id_0)" d="M521.8163 300.44775C521.8163 302.1046 520.47314 303.44775 518.8163 303.44775C517.1595 303.44775 515.8163 302.1046 515.8163 300.44775C515.8163 298.79092 517.1595 297.44775 518.8163 297.44775C520.47314 297.44775 521.8163 298.79092 521.8163 300.44775Z" fill-rule="nonzero"/><path fill="#000000" fill-opacity="0.0" clip-path="url(#id_0)" d="M526.713 300.44775C526.713 302.1046 525.3699 303.44775 523.713 303.44775C522.05615 303.44775 520.713 302.1046 520.713 300.44775C520.713 298.79092 522.05615 297.44775 523.713 297.44775C525.3699 297.44775 526.713 298.79092 526.713 300.44775Z" fill-rule="nonzero"/><path fill="#000000" fill-opacity="0.0" clip-path="url(#id_0)" d="M531.60724 300.44775C531.60724 302.1046 530.2641 303.44775 528.60724 303.44775C526.9504 303.44775 525.60724 302.1046 525.60724 300.44775C525.60724 298.79092 526.9504 297.44775 528.60724 297.44775C530.2641 297.44775 531.60724 298.79092 531.60724 300.44775Z" fill-rule="nonzero"/><path fill="#000000" fill-opacity="0.0" clip-path="url(#id_0)" d="M536.4989 300.44775C536.4989 302.1046 535.1557 303.44775 533.4989 303.44775C531.84204 303.44775 530.4989 302.1046 530.4989 300.44775C530.4989 298.79092 531.84204 297.44775 533.4989 297.44775C535.1557 297.44775 536.4989 298.79092 536.4989 300.44775Z" fill-rule="nonzero"/><path fill="#000000" fill-opacity="0.0" clip-path="url(#id_0)" d="M541.3893 300.44775C541.3893 302.1046 540.04614 303.44775 538.3893 303.44775C536.7324 303.44775 535.3893 302.1046 535.3893 300.44775C535.3893 298.79092 536.7324 297.44775 538.3893 297.44775C540.04614 297.44775 541.3893 298.79092 541.3893 300.44775Z" fill-rule="nonzero"/><path fill="#000000" fill-opacity="0.0" clip-path="url(#id_0)" d="M546.2784 300.44775C546.2784 302.1046 544.93524 303.44775 543.2784 303.44775C541.6215 303.44775 540.2784 302.1046 540.2784 300.44775C540.2784 298.79092 541.6215 297.44775 543.2784 297.44775C544.93524 297.44775 546.2784 298.79092 546.2784 300.44775Z" fill-rule="nonzero"/><path fill="#000000" fill-opacity="0.0" clip-path="url(#id_0)" d="M551.165 300.44775C551.165 302.1046 549.82184 303.44775 548.165 303.44775C546.5081 303.44775 545.165 302.1046 545.165 300.44775C545.165 298.79092 546.5081 297.44775 548.165 297.44775C549.82184 297.44775 551.165 298.79092 551.165 300.44775Z" fill-rule="nonzero"/><path fill="#000000" fill-opacity="0.0" clip-path="url(#id_0)" d="M556.049 300.44775C556.049 302.1046 554.7059 303.44775 553.049 303.44775C551.39215 303.44775 550.049 302.1046 550.049 300.44775C550.049 298.79092 551.39215 297.44775 553.049 297.44775C554.7059 297.44775 556.049 298.79092 556.049 300.44775Z" fill-rule="nonzero"/><path fill="#000000" fill-opacity="0.0" clip-path="url(#id_0)" d="M560.9318 300.44775C560.9318 302.1046 559.5887 303.44775 557.9318 303.44775C556.27496 303.44775 554.9318 302.1046 554.9318 300.44775C554.9318 298.79092 556.27496 297.44775 557.9318 297.44775C559.5887 297.44775 560.9318 298.79092 560.9318 300.44775Z" fill-rule="nonzero"/><path fill="#000000" fill-opacity="0.0" clip-path="url(#id_0)" d="M565.8133 300.44775C565.8133 302.1046 564.47015 303.44775 562.8133 303.44775C561.1565 303.44775 559.8133 302.1046 559.8133 300.44775C559.8133 298.79092 561.1565 297.44775 562.8133 297.44775C564.47015 297.44775 565.8133 298.79092 565.8133 300.44775Z" fill-rule="nonzero"/><path fill="#000000" fill-opacity="0.0" clip-path="url(#id_0)" d="M570.6923 300.44775C570.6923 302.1046 569.3492 303.44775 567.6923 303.44775C566.03546 303.44775 564.6923 302.1046 564.6923 300.44775C564.6923 298.79092 566.03546 297.44775 567.6923 297.44775C569.3492 297.44775 570.6923 298.79092 570.6923 300.44775Z" fill-rule="nonzero"/><path fill="#000000" fill-opacity="0.0" clip-path="url(#id_0)" d="M575.57 300.44775C575.57 302.1046 574.22687 303.44775 572.57 303.44775C570.91315 303.44775 569.57 302.1046 569.57 300.44775C569.57 298.79092 570.91315 297.44775 572.57 297.44775C574.22687 297.44775 575.57 298.79092 575.57 300.44775Z" fill-rule="nonzero"/><path fill="#000000" fill-opacity="0.0" clip-path="url(#id_0)" d="M580.4452 300.44775C580.4452 302.1046 579.10205 303.44775 577.4452 303.44775C575.7883 303.44775 574.4452 302.1046 574.4452 300.44775C574.4452 298.79092 575.7883 297.44775 577.4452 297.44775C579.10205 297.44775 580.4452 298.79092 580.4452 300.44775Z" fill-rule="nonzero"/><path fill="#000000" fill-opacity="0.0" clip-path="url(#id_0)" d="M584.45 300.44775C584.45 302.1046 583.1069 303.44775 581.45 303.44775C579.79315 303.44775 578.45 302.1046 578.45 300.44775C578.45 298.79092 579.79315 297.44775 581.45 297.44775C583.1069 297.44775 584.45 298.79092 584.45 300.44775Z" fill-rule="nonzero"/><path fill="#000000" d="M303.54688 347.45L304.64062 347.575Q304.39062 348.52814 303.6875 349.0594Q302.98438 349.59064 301.90625 349.59064Q300.54688 349.59064 299.73438 348.7469Q298.9375 347.90314 298.9375 346.3875Q298.9375 344.825 299.75 343.96564Q300.5625 343.09064 301.84375 343.09064Q303.09375 343.09064 303.875 343.9344Q304.67188 344.77814 304.67188 346.325Q304.67188 346.41876 304.67188 346.60626L300.03125 346.60626Q300.09375 347.6375 300.60938 348.1844Q301.125 348.71564 301.90625 348.71564Q302.48438 348.71564 302.89062 348.41876Q303.3125 348.10626 303.54688 347.45ZM300.09375 345.7469L303.5625 345.7469Q303.5 344.95 303.17188 344.5594Q302.65625 343.95 301.85938 343.95Q301.125 343.95 300.625 344.4344Q300.14062 344.91876 300.09375 345.7469ZM306.29688 351.84064L306.29688 343.23126L307.25 343.23126L307.25 344.02814Q307.59375 343.5594 308.01562 343.325Q308.45312 343.09064 309.0625 343.09064Q309.85938 343.09064 310.46875 343.4969Q311.07812 343.90314 311.375 344.65314Q311.6875 345.40314 311.6875 346.29376Q311.6875 347.2469 311.34375 348.0125Q311.01562 348.77814 310.35938 349.1844Q309.70312 349.59064 308.98438 349.59064Q308.45312 349.59064 308.03125 349.3719Q307.60938 349.1375 307.34375 348.8094L307.34375 351.84064L306.29688 351.84064ZM307.25 346.3719Q307.25 347.575 307.73438 348.15314Q308.21875 348.71564 308.90625 348.71564Q309.60938 348.71564 310.10938 348.1219Q310.60938 347.52814 310.60938 346.27814Q310.60938 345.09064 310.125 344.5125Q309.64062 343.91876 308.95312 343.91876Q308.28125 343.91876 307.76562 344.54376Q307.25 345.16876 307.25 346.3719ZM312.875 347.59064L313.90625 347.4344Q314.0 348.0594 314.39062 348.3875Q314.79688 348.71564 315.53125 348.71564Q316.25 348.71564 316.59375 348.4344Q316.95312 348.1375 316.95312 347.73126Q316.95312 347.3719 316.64062 347.16876Q316.42188 347.02814 315.5625 346.8094Q314.40625 346.5125 313.95312 346.3094Q313.51562 346.09064 313.28125 345.71564Q313.04688 345.34064 313.04688 344.8719Q313.04688 344.46564 313.23438 344.10626Q313.42188 343.7469 313.75 343.5125Q314.0 343.34064 314.42188 343.21564Q314.84375 343.09064 315.34375 343.09064Q316.0625 343.09064 316.60938 343.3094Q317.17188 343.5125 317.4375 343.8719Q317.70312 344.23126 317.79688 344.825L316.76562 344.96564Q316.70312 344.4969 316.35938 344.23126Q316.03125 343.95 315.40625 343.95Q314.6875 343.95 314.375 344.2Q314.0625 344.4344 314.0625 344.7625Q314.0625 344.96564 314.1875 345.1219Q314.32812 345.29376 314.59375 345.40314Q314.75 345.46564 315.53125 345.66876Q316.65625 345.98126 317.09375 346.16876Q317.53125 346.35626 317.78125 346.71564Q318.03125 347.075 318.03125 347.6219Q318.03125 348.15314 317.71875 348.6219Q317.42188 349.075 316.84375 349.34064Q316.26562 349.59064 315.53125 349.59064Q314.3125 349.59064 313.67188 349.09064Q313.04688 348.575 312.875 347.59064ZM326.5625 346.4344L327.6875 346.73126Q327.32812 348.1219 326.40625 348.85626Q325.48438 349.59064 324.14062 349.59064Q322.75 349.59064 321.875 349.02814Q321.0 348.46564 320.54688 347.40314Q320.09375 346.325 320.09375 345.09064Q320.09375 343.7469 320.60938 342.7469Q321.125 341.7469 322.0625 341.23126Q323.01562 340.71564 324.15625 340.71564Q325.4375 340.71564 326.3125 341.3719Q327.20312 342.02814 327.54688 343.21564L326.42188 343.48126Q326.125 342.54376 325.54688 342.1219Q324.98438 341.6844 324.125 341.6844Q323.14062 341.6844 322.46875 342.16876Q321.8125 342.6375 321.53125 343.4344Q321.26562 344.23126 321.26562 345.09064Q321.26562 346.1844 321.57812 346.9969Q321.90625 347.8094 322.57812 348.21564Q323.25 348.6219 324.04688 348.6219Q325.0 348.6219 325.65625 348.075Q326.32812 347.52814 326.5625 346.4344ZM329.28125 349.45L329.28125 343.23126L330.23438 343.23126L330.23438 344.16876Q330.59375 343.5125 330.89062 343.3094Q331.20312 343.09064 331.57812 343.09064Q332.10938 343.09064 332.65625 343.41876L332.29688 344.40314Q331.90625 344.16876 331.53125 344.16876Q331.17188 344.16876 330.89062 344.3875Q330.625 344.59064 330.51562 344.96564Q330.32812 345.52814 330.32812 346.1844L330.32812 349.45L329.28125 349.45ZM335.3125 351.98126Q334.4375 350.8719 333.82812 349.40314Q333.23438 347.91876 333.23438 346.34064Q333.23438 344.95 333.67188 343.66876Q334.20312 342.1844 335.3125 340.71564L336.0625 340.71564Q335.35938 341.9344 335.125 342.45Q334.76562 343.2625 334.5625 344.1375Q334.3125 345.23126 334.3125 346.34064Q334.3125 349.16876 336.0625 351.98126L335.3125 351.98126ZM340.96875 349.45L339.92188 349.45L339.92188 342.73126Q339.53125 343.09064 338.90625 343.46564Q338.29688 343.825 337.8125 343.9969L337.8125 342.98126Q338.6875 342.5594 339.34375 341.98126Q340.01562 341.3875 340.29688 340.825L340.96875 340.825L340.96875 349.45ZM344.98438 351.98126L344.23438 351.98126Q345.98438 349.16876 345.98438 346.34064Q345.98438 345.2469 345.73438 344.15314Q345.53125 343.27814 345.17188 342.46564Q344.9375 341.95 344.23438 340.71564L344.98438 340.71564Q346.07812 342.1844 346.60938 343.66876Q347.0625 344.95 347.0625 346.34064Q347.0625 347.91876 346.45312 349.40314Q345.84375 350.8719 344.98438 351.98126ZM351.3125 351.84064L351.3125 340.85626L353.64062 340.85626L353.64062 341.73126L352.375 341.73126L352.375 350.96564L353.64062 350.96564L353.64062 351.84064L351.3125 351.84064ZM354.20312 342.91876Q354.20312 341.9969 354.65625 341.35626Q355.125 340.71564 356.0 340.71564Q356.8125 340.71564 357.34375 341.29376Q357.875 341.8719 357.875 342.98126Q357.875 344.075 357.32812 344.66876Q356.79688 345.2469 356.01562 345.2469Q355.23438 345.2469 354.71875 344.66876Q354.20312 344.09064 354.20312 342.91876ZM356.03125 341.4344Q355.64062 341.4344 355.375 341.77814Q355.125 342.1219 355.125 343.02814Q355.125 343.85626 355.375 344.2Q355.64062 344.52814 356.03125 344.52814Q356.4375 344.52814 356.6875 344.1844Q356.95312 343.84064 356.95312 342.95Q356.95312 342.10626 356.6875 341.77814Q356.42188 341.4344 356.03125 341.4344ZM356.03125 349.7625L360.73438 340.71564L361.59375 340.71564L356.90625 349.7625L356.03125 349.7625ZM359.75 347.4344Q359.75 346.5125 360.20312 345.8719Q360.67188 345.23126 361.5625 345.23126Q362.375 345.23126 362.90625 345.8094Q363.4375 346.3719 363.4375 347.4969Q363.4375 348.59064 362.89062 349.1844Q362.35938 349.7625 361.5625 349.7625Q360.79688 349.7625 360.26562 349.1844Q359.75 348.60626 359.75 347.4344ZM361.59375 345.95Q361.1875 345.95 360.92188 346.29376Q360.67188 346.6375 360.67188 347.54376Q360.67188 348.35626 360.9375 348.7Q361.20312 349.04376 361.59375 349.04376Q361.98438 349.04376 362.25 348.7Q362.51562 348.35626 362.51562 347.45Q362.51562 346.6219 362.25 346.29376Q361.98438 345.95 361.59375 345.95ZM367.0625 351.84064L364.73438 351.84064L364.73438 350.96564L366.0 350.96564L366.0 341.73126L364.73438 341.73126L364.73438 340.85626L367.0625 340.85626L367.0625 351.84064Z" fill-rule="nonzero"/><path fill="#000000" d="M27.690638 226.30833L27.534388 225.27708Q28.159388 225.18333 28.487513 224.79271Q28.815638 224.38646 28.815638 223.65208Q28.815638 222.93333 28.534388 222.58958Q28.237513 222.23021 27.831263 222.23021Q27.471888 222.23021 27.268763 222.54271Q27.128138 222.76146 26.909388 223.62083Q26.612513 224.77708 26.409388 225.23021Q26.190638 225.66771 25.815638 225.90208Q25.440638 226.13646 24.971888 226.13646Q24.565638 226.13646 24.206263 225.94896Q23.846888 225.76146 23.612513 225.43333Q23.440638 225.18333 23.315638 224.76146Q23.190638 224.33958 23.190638 223.83958Q23.190638 223.12083 23.409388 222.57396Q23.612513 222.01146 23.971888 221.74583Q24.331263 221.48021 24.925013 221.38646L25.065638 222.41771Q24.596888 222.48021 24.331263 222.82396Q24.050013 223.15208 24.050013 223.77708Q24.050013 224.49583 24.300013 224.80833Q24.534388 225.12083 24.862513 225.12083Q25.065638 225.12083 25.221888 224.99583Q25.393763 224.85521 25.503138 224.58958Q25.565638 224.43333 25.768763 223.65208Q26.081263 222.52708 26.268763 222.08958Q26.456263 221.65208 26.815638 221.40208Q27.175013 221.15208 27.721888 221.15208Q28.253138 221.15208 28.721888 221.46458Q29.175013 221.76146 29.440638 222.33958Q29.690638 222.91771 29.690638 223.65208Q29.690638 224.87083 29.190638 225.51146Q28.675013 226.13646 27.690638 226.30833ZM22.175013 218.88646L20.956263 218.88646L20.956263 217.82396L22.175013 217.82396L22.175013 218.88646ZM29.550013 218.88646L23.331263 218.88646L23.331263 217.82396L29.550013 217.82396L29.550013 218.88646ZM30.065638 216.08958L30.221888 215.05833Q30.690638 214.99583 30.909388 214.69896Q31.206263 214.30833 31.206263 213.63646Q31.206263 212.90208 30.909388 212.51146Q30.612513 212.10521 30.096888 211.96458Q29.768763 211.87083 28.737513 211.88646Q29.550013 212.57396 29.550013 213.60521Q29.550013 214.88646 28.628138 215.58958Q27.690638 216.29271 26.409388 216.29271Q25.518763 216.29271 24.768763 215.98021Q24.003138 215.65208 23.596888 215.04271Q23.190638 214.43333 23.190638 213.60521Q23.190638 212.49583 24.081263 211.77708L23.331263 211.77708L23.331263 210.80833L28.706263 210.80833Q30.159388 210.80833 30.768763 211.10521Q31.378138 211.40208 31.721888 212.04271Q32.08126 212.68333 32.08126 213.62083Q32.08126 214.73021 31.581263 215.41771Q31.081263 216.10521 30.065638 216.08958ZM26.331263 215.21458Q27.550013 215.21458 28.112513 214.73021Q28.675013 214.24583 28.675013 213.51146Q28.675013 212.77708 28.112513 212.29271Q27.550013 211.79271 26.362513 211.79271Q25.221888 211.79271 24.643763 212.30833Q24.065638 212.80833 24.065638 213.52708Q24.065638 214.23021 24.643763 214.73021Q25.206263 215.21458 26.331263 215.21458ZM26.534388 202.62083L26.831263 201.49583Q28.221888 201.85521 28.956263 202.77708Q29.690638 203.69896 29.690638 205.04271Q29.690638 206.43333 29.128138 207.30833Q28.565638 208.18333 27.503138 208.63646Q26.425013 209.08958 25.190638 209.08958Q23.846888 209.08958 22.846888 208.57396Q21.846888 208.05833 21.331263 207.12083Q20.815638 206.16771 20.815638 205.02708Q20.815638 203.74583 21.471888 202.87083Q22.128138 201.98021 23.315638 201.63646L23.581263 202.76146Q22.643763 203.05833 22.221888 203.63646Q21.784388 204.19896 21.784388 205.05833Q21.784388 206.04271 22.268763 206.71458Q22.737513 207.37083 23.534388 207.65208Q24.331263 207.91771 25.190638 207.91771Q26.284388 207.91771 27.096888 207.60521Q27.909388 207.27708 28.315638 206.60521Q28.721888 205.93333 28.721888 205.13646Q28.721888 204.18333 28.175013 203.52708Q27.628138 202.85521 26.534388 202.62083ZM29.550013 199.90208L23.331263 199.90208L23.331263 198.94896L24.268763 198.94896Q23.612513 198.58958 23.409388 198.29271Q23.190638 197.98021 23.190638 197.60521Q23.190638 197.07396 23.518763 196.52708L24.503138 196.88646Q24.268763 197.27708 24.268763 197.65208Q24.268763 198.01146 24.487513 198.29271Q24.690638 198.55833 25.065638 198.66771Q25.628138 198.85521 26.284388 198.85521L29.550013 198.85521L29.550013 199.90208ZM32.08126 193.87083Q30.971888 194.74583 29.503138 195.35521Q28.018763 195.94896 26.440638 195.94896Q25.050013 195.94896 23.768763 195.51146Q22.284388 194.98021 20.815638 193.87083L20.815638 193.12083Q22.034388 193.82396 22.550013 194.05833Q23.362513 194.41771 24.237513 194.62083Q25.331263 194.87083 26.440638 194.87083Q29.268763 194.87083 32.08126 193.12083L32.08126 193.87083ZM29.550013 188.21458L29.550013 189.26146L22.831263 189.26146Q23.190638 189.65208 23.565638 190.27708Q23.925013 190.88646 24.096888 191.37083L23.081263 191.37083Q22.659388 190.49583 22.081263 189.83958Q21.487513 189.16771 20.925013 188.88646L20.925013 188.21458L29.550013 188.21458ZM32.08126 184.19896L32.08126 184.94896Q29.268763 183.19896 26.440638 183.19896Q25.346888 183.19896 24.253138 183.44896Q23.378138 183.65208 22.565638 184.01146Q22.050013 184.24583 20.815638 184.94896L20.815638 184.19896Q22.284388 183.10521 23.768763 182.57396Q25.050013 182.12083 26.440638 182.12083Q28.018763 182.12083 29.503138 182.73021Q30.971888 183.33958 32.08126 184.19896ZM31.940638 177.87083L20.956263 177.87083L20.956263 175.54271L21.831263 175.54271L21.831263 176.80833L31.065638 176.80833L31.065638 175.54271L31.940638 175.54271L31.940638 177.87083ZM29.550013 174.79271L20.956263 174.79271L20.956263 173.07396L27.034388 171.04271Q27.893763 170.76146 28.315638 170.63646Q27.846888 170.49583 26.940638 170.18333L20.956263 168.12083L20.956263 166.58958L29.550013 166.58958L29.550013 167.68333L22.362513 167.68333L29.550013 170.18333L29.550013 171.21458L22.237513 173.69896L29.550013 173.69896L29.550013 174.79271ZM29.550013 165.76146L20.956263 165.76146L20.956263 162.51146Q20.956263 161.66771 21.034388 161.21458Q21.143763 160.57396 21.440638 160.15208Q21.737513 159.71458 22.268763 159.46458Q22.800013 159.19896 23.440638 159.19896Q24.534388 159.19896 25.300013 159.90208Q26.050013 160.58958 26.050013 162.41771L26.050013 164.62083L29.550013 164.62083L29.550013 165.76146ZM25.050013 164.62083L25.050013 162.40208Q25.050013 161.29271 24.643763 160.83958Q24.221888 160.37083 23.471888 160.37083Q22.940638 160.37083 22.565638 160.65208Q22.175013 160.91771 22.050013 161.35521Q21.971888 161.65208 21.971888 162.41771L21.971888 164.62083L25.050013 164.62083ZM28.784388 153.82396Q29.284388 154.41771 29.487513 154.96458Q29.690638 155.49583 29.690638 156.12083Q29.690638 157.15208 29.190638 157.69896Q28.690638 158.24583 27.909388 158.24583Q27.456263 158.24583 27.081263 158.04271Q26.690638 157.83958 26.471888 157.49583Q26.237513 157.15208 26.128138 156.73021Q26.034388 156.43333 25.956263 155.79271Q25.815638 154.52708 25.596888 153.91771Q25.378138 153.91771 25.331263 153.91771Q24.675013 153.91771 24.409388 154.21458Q24.065638 154.62083 24.065638 155.41771Q24.065638 156.15208 24.331263 156.51146Q24.581263 156.87083 25.237513 157.04271L25.096888 158.07396Q24.440638 157.93333 24.034388 157.60521Q23.628138 157.27708 23.409388 156.66771Q23.190638 156.05833 23.190638 155.26146Q23.190638 154.46458 23.378138 153.96458Q23.565638 153.46458 23.846888 153.23021Q24.128138 152.99583 24.565638 152.90208Q24.831263 152.85521 25.534388 152.85521L26.940638 152.85521Q28.409388 152.85521 28.800013 152.79271Q29.190638 152.71458 29.550013 152.51146L29.550013 153.62083Q29.221888 153.77708 28.784388 153.82396ZM26.425013 153.91771Q26.659388 154.49583 26.831263 155.63646Q26.925013 156.29271 27.050013 156.55833Q27.159388 156.82396 27.378138 156.98021Q27.596888 157.12083 27.878138 157.12083Q28.300013 157.12083 28.581263 156.80833Q28.862513 156.48021 28.862513 155.87083Q28.862513 155.26146 28.596888 154.79271Q28.331263 154.30833 27.862513 154.08958Q27.503138 153.91771 26.815638 153.91771L26.425013 153.91771ZM31.940638 149.12083L31.940638 151.44896L31.065638 151.44896L31.065638 150.18333L21.831263 150.18333L21.831263 151.44896L20.956263 151.44896L20.956263 149.12083L31.940638 149.12083Z" fill-rule="nonzero"/><path fill="#000000" d="M72.05 300.21564Q72.05 298.6844 72.3625 297.7625Q72.675 296.825 73.28438 296.325Q73.90938 295.825 74.84688 295.825Q75.53438 295.825 76.05 296.10626Q76.58125 296.3875 76.925 296.91876Q77.26875 297.4344 77.45625 298.1844Q77.64375 298.9344 77.64375 300.21564Q77.64375 301.73126 77.33125 302.65314Q77.03438 303.575 76.40938 304.09064Q75.8 304.59064 74.84688 304.59064Q73.6125 304.59064 72.89375 303.7Q72.05 302.6375 72.05 300.21564ZM73.12813 300.21564Q73.12813 302.325 73.62813 303.02814Q74.12813 303.73126 74.84688 303.73126Q75.58125 303.73126 76.06563 303.02814Q76.56563 302.325 76.56563 300.21564Q76.56563 298.09064 76.06563 297.40314Q75.58125 296.7 74.83125 296.7Q74.1125 296.7 73.675 297.3094Q73.12813 298.09064 73.12813 300.21564Z" fill-rule="nonzero"/><path fill="#000000" d="M58.05 254.49335L59.159374 254.3996Q59.284374 255.2121 59.721874 255.61835Q60.175 256.0246 60.815624 256.0246Q61.565624 256.0246 62.096874 255.44647Q62.628124 254.86835 62.628124 253.93085Q62.628124 253.0246 62.1125 252.50897Q61.6125 251.97772 60.784374 251.97772Q60.284374 251.97772 59.8625 252.2121Q59.45625 252.44647 59.221874 252.80585L58.2375 252.68085L59.065624 248.2746L63.346874 248.2746L63.346874 249.2746L59.909374 249.2746L59.45625 251.5871Q60.221874 251.04022 61.065624 251.04022Q62.190624 251.04022 62.95625 251.82147Q63.7375 252.60272 63.7375 253.8371Q63.7375 254.99335 63.065624 255.85272Q62.2375 256.88397 60.815624 256.88397Q59.64375 256.88397 58.89375 256.22772Q58.159374 255.57147 58.05 254.49335ZM65.05 252.50897Q65.05 250.97772 65.3625 250.05585Q65.675 249.11835 66.28438 248.61835Q66.90938 248.11835 67.84688 248.11835Q68.53438 248.11835 69.05 248.3996Q69.58125 248.68085 69.925 249.2121Q70.26875 249.72772 70.45625 250.47772Q70.64375 251.22772 70.64375 252.50897Q70.64375 254.0246 70.33125 254.94647Q70.03438 255.86835 69.40938 256.38397Q68.8 256.88397 67.84688 256.88397Q66.6125 256.88397 65.89375 255.99335Q65.05 254.93085 65.05 252.50897ZM66.12813 252.50897Q66.12813 254.61835 66.62813 255.32147Q67.12813 256.0246 67.84688 256.0246Q68.58125 256.0246 69.06563 255.32147Q69.56563 254.61835 69.56563 252.50897Q69.56563 250.38397 69.06563 249.69647Q68.58125 248.99335 67.83125 248.99335Q67.1125 248.99335 66.675 249.60272Q66.12813 250.38397 66.12813 252.50897ZM72.05 252.50897Q72.05 250.97772 72.3625 250.05585Q72.675 249.11835 73.28438 248.61835Q73.90938 248.11835 74.84688 248.11835Q75.53438 248.11835 76.05 248.3996Q76.58125 248.68085 76.925 249.2121Q77.26875 249.72772 77.45625 250.47772Q77.64375 251.22772 77.64375 252.50897Q77.64375 254.0246 77.33125 254.94647Q77.03438 255.86835 76.40938 256.38397Q75.8 256.88397 74.84688 256.88397Q73.6125 256.88397 72.89375 255.99335Q72.05 254.93085 72.05 252.50897ZM73.12813 252.50897Q73.12813 254.61835 73.62813 255.32147Q74.12813 256.0246 74.84688 256.0246Q75.58125 256.0246 76.06563 255.32147Q76.56563 254.61835 76.56563 252.50897Q76.56563 250.38397 76.06563 249.69647Q75.58125 248.99335 74.83125 248.99335Q74.1125 248.99335 73.675 249.60272Q73.12813 250.38397 73.12813 252.50897Z" fill-rule="nonzero"/><path fill="#000000" d="M55.01875 209.03667L53.971874 209.03667L53.971874 202.31792Q53.58125 202.67729 52.95625 203.05229Q52.346874 203.41167 51.8625 203.58354L51.8625 202.56792Q52.7375 202.14604 53.39375 201.56792Q54.065624 200.97417 54.346874 200.41167L55.01875 200.41167L55.01875 209.03667ZM58.05 204.80229Q58.05 203.27104 58.3625 202.34917Q58.675 201.41167 59.284374 200.91167Q59.909374 200.41167 60.846874 200.41167Q61.534374 200.41167 62.05 200.69292Q62.58125 200.97417 62.925 201.50542Q63.26875 202.02104 63.45625 202.77104Q63.64375 203.52104 63.64375 204.80229Q63.64375 206.31792 63.33125 207.23979Q63.034374 208.16167 62.409374 208.67729Q61.8 209.17729 60.846874 209.17729Q59.6125 209.17729 58.89375 208.28667Q58.05 207.22417 58.05 204.80229ZM59.128124 204.80229Q59.128124 206.91167 59.628124 207.61479Q60.128124 208.31792 60.846874 208.31792Q61.58125 208.31792 62.065624 207.61479Q62.565624 206.91167 62.565624 204.80229Q62.565624 202.67729 62.065624 201.98979Q61.58125 201.28667 60.83125 201.28667Q60.1125 201.28667 59.675 201.89604Q59.128124 202.67729 59.128124 204.80229ZM65.05 204.80229Q65.05 203.27104 65.3625 202.34917Q65.675 201.41167 66.28438 200.91167Q66.90938 200.41167 67.84688 200.41167Q68.53438 200.41167 69.05 200.69292Q69.58125 200.97417 69.925 201.50542Q70.26875 202.02104 70.45625 202.77104Q70.64375 203.52104 70.64375 204.80229Q70.64375 206.31792 70.33125 207.23979Q70.03438 208.16167 69.40938 208.67729Q68.8 209.17729 67.84688 209.17729Q66.6125 209.17729 65.89375 208.28667Q65.05 207.22417 65.05 204.80229ZM66.12813 204.80229Q66.12813 206.91167 66.62813 207.61479Q67.12813 208.31792 67.84688 208.31792Q68.58125 208.31792 69.06563 207.61479Q69.56563 206.91167 69.56563 204.80229Q69.56563 202.67729 69.06563 201.98979Q68.58125 201.28667 67.83125 201.28667Q67.1125 201.28667 66.675 201.89604Q66.12813 202.67729 66.12813 204.80229ZM72.05 204.80229Q72.05 203.27104 72.3625 202.34917Q72.675 201.41167 73.28438 200.91167Q73.90938 200.41167 74.84688 200.41167Q75.53438 200.41167 76.05 200.69292Q76.58125 200.97417 76.925 201.50542Q77.26875 202.02104 77.45625 202.77104Q77.64375 203.52104 77.64375 204.80229Q77.64375 206.31792 77.33125 207.23979Q77.03438 208.16167 76.40938 208.67729Q75.8 209.17729 74.84688 209.17729Q73.6125 209.17729 72.89375 208.28667Q72.05 207.22417 72.05 204.80229ZM73.12813 204.80229Q73.12813 206.91167 73.62813 207.61479Q74.12813 208.31792 74.84688 208.31792Q75.58125 208.31792 76.06563 207.61479Q76.56563 206.91167 76.56563 204.80229Q76.56563 202.67729 76.06563 201.98979Q75.58125 201.28667 74.83125 201.28667Q74.1125 201.28667 73.675 201.89604Q73.12813 202.67729 73.12813 204.80229Z" fill-rule="nonzero"/><path fill="#000000" d="M55.01875 161.33L53.971874 161.33L53.971874 154.61125Q53.58125 154.97063 52.95625 155.34563Q52.346874 155.705 51.8625 155.87688L51.8625 154.86125Q52.7375 154.43938 53.39375 153.86125Q54.065624 153.2675 54.346874 152.705L55.01875 152.705L55.01875 161.33ZM58.05 159.08L59.159374 158.98625Q59.284374 159.79875 59.721874 160.205Q60.175 160.61125 60.815624 160.61125Q61.565624 160.61125 62.096874 160.03313Q62.628124 159.455 62.628124 158.5175Q62.628124 157.61125 62.1125 157.09563Q61.6125 156.56438 60.784374 156.56438Q60.284374 156.56438 59.8625 156.79875Q59.45625 157.03313 59.221874 157.3925L58.2375 157.2675L59.065624 152.86125L63.346874 152.86125L63.346874 153.86125L59.909374 153.86125L59.45625 156.17375Q60.221874 155.62688 61.065624 155.62688Q62.190624 155.62688 62.95625 156.40813Q63.7375 157.18938 63.7375 158.42375Q63.7375 159.58 63.065624 160.43938Q62.2375 161.47063 60.815624 161.47063Q59.64375 161.47063 58.89375 160.81438Q58.159374 160.15813 58.05 159.08ZM65.05 157.09563Q65.05 155.56438 65.3625 154.6425Q65.675 153.705 66.28438 153.205Q66.90938 152.705 67.84688 152.705Q68.53438 152.705 69.05 152.98625Q69.58125 153.2675 69.925 153.79875Q70.26875 154.31438 70.45625 155.06438Q70.64375 155.81438 70.64375 157.09563Q70.64375 158.61125 70.33125 159.53313Q70.03438 160.455 69.40938 160.97063Q68.8 161.47063 67.84688 161.47063Q66.6125 161.47063 65.89375 160.58Q65.05 159.5175 65.05 157.09563ZM66.12813 157.09563Q66.12813 159.205 66.62813 159.90813Q67.12813 160.61125 67.84688 160.61125Q68.58125 160.61125 69.06563 159.90813Q69.56563 159.205 69.56563 157.09563Q69.56563 154.97063 69.06563 154.28313Q68.58125 153.58 67.83125 153.58Q67.1125 153.58 66.675 154.18938Q66.12813 154.97063 66.12813 157.09563ZM72.05 157.09563Q72.05 155.56438 72.3625 154.6425Q72.675 153.705 73.28438 153.205Q73.90938 152.705 74.84688 152.705Q75.53438 152.705 76.05 152.98625Q76.58125 153.2675 76.925 153.79875Q77.26875 154.31438 77.45625 155.06438Q77.64375 155.81438 77.64375 157.09563Q77.64375 158.61125 77.33125 159.53313Q77.03438 160.455 76.40938 160.97063Q75.8 161.47063 74.84688 161.47063Q73.6125 161.47063 72.89375 160.58Q72.05 159.5175 72.05 157.09563ZM73.12813 157.09563Q73.12813 159.205 73.62813 159.90813Q74.12813 160.61125 74.84688 160.61125Q75.58125 160.61125 76.06563 159.90813Q76.56563 159.205 76.56563 157.09563Q76.56563 154.97063 76.06563 154.28313Q75.58125 153.58 74.83125 153.58Q74.1125 153.58 73.675 154.18938Q73.12813 154.97063 73.12813 157.09563Z" fill-rule="nonzero"/><path fill="#000000" d="M56.596874 112.60771L56.596874 113.62334L50.909374 113.62334Q50.909374 113.24834 51.034374 112.88896Q51.253124 112.31084 51.721874 111.74834Q52.20625 111.18584 53.1125 110.45146Q54.51875 109.29521 55.003124 108.62334Q55.503124 107.95146 55.503124 107.35771Q55.503124 106.73271 55.05 106.31084Q54.596874 105.87334 53.878124 105.87334Q53.1125 105.87334 52.659374 106.32646Q52.20625 106.77959 52.190624 107.59209L51.1125 107.48271Q51.221874 106.26396 51.940624 105.63896Q52.675 104.99834 53.909374 104.99834Q55.14375 104.99834 55.8625 105.68584Q56.58125 106.37334 56.58125 107.38896Q56.58125 107.90459 56.3625 108.40459Q56.159374 108.88896 55.659374 109.45146Q55.175 109.99834 54.05 110.95146Q53.096874 111.74834 52.815624 112.04521Q52.55 112.32646 52.378124 112.60771L56.596874 112.60771ZM58.05 109.38896Q58.05 107.85771 58.3625 106.93584Q58.675 105.99834 59.284374 105.49834Q59.909374 104.99834 60.846874 104.99834Q61.534374 104.99834 62.05 105.27959Q62.58125 105.56084 62.925 106.09209Q63.26875 106.60771 63.45625 107.35771Q63.64375 108.10771 63.64375 109.38896Q63.64375 110.90459 63.33125 111.82646Q63.034374 112.74834 62.409374 113.26396Q61.8 113.76396 60.846874 113.76396Q59.6125 113.76396 58.89375 112.87334Q58.05 111.81084 58.05 109.38896ZM59.128124 109.38896Q59.128124 111.49834 59.628124 112.20146Q60.128124 112.90459 60.846874 112.90459Q61.58125 112.90459 62.065624 112.20146Q62.565624 111.49834 62.565624 109.38896Q62.565624 107.26396 62.065624 106.57646Q61.58125 105.87334 60.83125 105.87334Q60.1125 105.87334 59.675 106.48271Q59.128124 107.26396 59.128124 109.38896ZM65.05 109.38896Q65.05 107.85771 65.3625 106.93584Q65.675 105.99834 66.28438 105.49834Q66.90938 104.99834 67.84688 104.99834Q68.53438 104.99834 69.05 105.27959Q69.58125 105.56084 69.925 106.09209Q70.26875 106.60771 70.45625 107.35771Q70.64375 108.10771 70.64375 109.38896Q70.64375 110.90459 70.33125 111.82646Q70.03438 112.74834 69.40938 113.26396Q68.8 113.76396 67.84688 113.76396Q66.6125 113.76396 65.89375 112.87334Q65.05 111.81084 65.05 109.38896ZM66.12813 109.38896Q66.12813 111.49834 66.62813 112.20146Q67.12813 112.90459 67.84688 112.90459Q68.58125 112.90459 69.06563 112.20146Q69.56563 111.49834 69.56563 109.38896Q69.56563 107.26396 69.06563 106.57646Q68.58125 105.87334 67.83125 105.87334Q67.1125 105.87334 66.675 106.48271Q66.12813 107.26396 66.12813 109.38896ZM72.05 109.38896Q72.05 107.85771 72.3625 106.93584Q72.675 105.99834 73.28438 105.49834Q73.90938 104.99834 74.84688 104.99834Q75.53438 104.99834 76.05 105.27959Q76.58125 105.56084 76.925 106.09209Q77.26875 106.60771 77.45625 107.35771Q77.64375 108.10771 77.64375 109.38896Q77.64375 110.90459 77.33125 111.82646Q77.03438 112.74834 76.40938 113.26396Q75.8 113.76396 74.84688 113.76396Q73.6125 113.76396 72.89375 112.87334Q72.05 111.81084 72.05 109.38896ZM73.12813 109.38896Q73.12813 111.49834 73.62813 112.20146Q74.12813 112.90459 74.84688 112.90459Q75.58125 112.90459 76.06563 112.20146Q76.56563 111.49834 76.56563 109.38896Q76.56563 107.26396 76.06563 106.57646Q75.58125 105.87334 74.83125 105.87334Q74.1125 105.87334 73.675 106.48271Q73.12813 107.26396 73.12813 109.38896Z" fill-rule="nonzero"/><path fill="#000000" d="M56.596874 64.90104L56.596874 65.916664L50.909374 65.916664Q50.909374 65.541664 51.034374 65.18229Q51.253124 64.604164 51.721874 64.041664Q52.20625 63.479164 53.1125 62.74479Q54.51875 61.58854 55.003124 60.916664Q55.503124 60.24479 55.503124 59.65104Q55.503124 59.02604 55.05 58.604164Q54.596874 58.166664 53.878124 58.166664Q53.1125 58.166664 52.659374 58.61979Q52.20625 59.072914 52.190624 59.885414L51.1125 59.77604Q51.221874 58.55729 51.940624 57.93229Q52.675 57.291664 53.909374 57.291664Q55.14375 57.291664 55.8625 57.979164Q56.58125 58.666664 56.58125 59.68229Q56.58125 60.197914 56.3625 60.697914Q56.159374 61.18229 55.659374 61.74479Q55.175 62.291664 54.05 63.24479Q53.096874 64.041664 52.815624 64.33854Q52.55 64.61979 52.378124 64.90104L56.596874 64.90104ZM58.05 63.666664L59.159374 63.572914Q59.284374 64.385414 59.721874 64.791664Q60.175 65.197914 60.815624 65.197914Q61.565624 65.197914 62.096874 64.61979Q62.628124 64.041664 62.628124 63.104164Q62.628124 62.197914 62.1125 61.68229Q61.6125 61.15104 60.784374 61.15104Q60.284374 61.15104 59.8625 61.385414Q59.45625 61.61979 59.221874 61.979164L58.2375 61.854164L59.065624 57.447914L63.346874 57.447914L63.346874 58.447914L59.909374 58.447914L59.45625 60.760414Q60.221874 60.21354 61.065624 60.21354Q62.190624 60.21354 62.95625 60.99479Q63.7375 61.77604 63.7375 63.010414Q63.7375 64.166664 63.065624 65.02604Q62.2375 66.05729 60.815624 66.05729Q59.64375 66.05729 58.89375 65.40104Q58.159374 64.74479 58.05 63.666664ZM65.05 61.68229Q65.05 60.15104 65.3625 59.229164Q65.675 58.291664 66.28438 57.791664Q66.90938 57.291664 67.84688 57.291664Q68.53438 57.291664 69.05 57.572914Q69.58125 57.854164 69.925 58.385414Q70.26875 58.90104 70.45625 59.65104Q70.64375 60.40104 70.64375 61.68229Q70.64375 63.197914 70.33125 64.11979Q70.03438 65.041664 69.40938 65.55729Q68.8 66.05729 67.84688 66.05729Q66.6125 66.05729 65.89375 65.166664Q65.05 64.104164 65.05 61.68229ZM66.12813 61.68229Q66.12813 63.791664 66.62813 64.49479Q67.12813 65.197914 67.84688 65.197914Q68.58125 65.197914 69.06563 64.49479Q69.56563 63.791664 69.56563 61.68229Q69.56563 59.55729 69.06563 58.86979Q68.58125 58.166664 67.83125 58.166664Q67.1125 58.166664 66.675 58.77604Q66.12813 59.55729 66.12813 61.68229ZM72.05 61.68229Q72.05 60.15104 72.3625 59.229164Q72.675 58.291664 73.28438 57.791664Q73.90938 57.291664 74.84688 57.291664Q75.53438 57.291664 76.05 57.572914Q76.58125 57.854164 76.925 58.385414Q77.26875 58.90104 77.45625 59.65104Q77.64375 60.40104 77.64375 61.68229Q77.64375 63.197914 77.33125 64.11979Q77.03438 65.041664 76.40938 65.55729Q75.8 66.05729 74.84688 66.05729Q73.6125 66.05729 72.89375 65.166664Q72.05 64.104164 72.05 61.68229ZM73.12813 61.68229Q73.12813 63.791664 73.62813 64.49479Q74.12813 65.197914 74.84688 65.197914Q75.58125 65.197914 76.06563 64.49479Q76.56563 63.791664 76.56563 61.68229Q76.56563 59.55729 76.06563 58.86979Q75.58125 58.166664 74.83125 58.166664Q74.1125 58.166664 73.675 58.77604Q73.12813 59.55729 73.12813 61.68229Z" fill-rule="nonzero"/><path fill="#000000" d="M81.55 313.21564Q81.55 311.6844 81.8625 310.7625Q82.175 309.825 82.78438 309.325Q83.40938 308.825 84.34688 308.825Q85.03438 308.825 85.55 309.10626Q86.08125 309.3875 86.425 309.91876Q86.76875 310.4344 86.95625 311.1844Q87.14375 311.9344 87.14375 313.21564Q87.14375 314.73126 86.83125 315.65314Q86.53438 316.575 85.90938 317.09064Q85.3 317.59064 84.34688 317.59064Q83.1125 317.59064 82.39375 316.7Q81.55 315.6375 81.55 313.21564ZM82.62813 313.21564Q82.62813 315.325 83.12813 316.02814Q83.62813 316.73126 84.34688 316.73126Q85.08125 316.73126 85.56563 316.02814Q86.06563 315.325 86.06563 313.21564Q86.06563 311.09064 85.56563 310.40314Q85.08125 309.7 84.33125 309.7Q83.6125 309.7 83.175 310.3094Q82.62813 311.09064 82.62813 313.21564Z" fill-rule="nonzero"/><path fill="#000000" d="M212.21269 317.45L211.16582 317.45L211.16582 310.73126Q210.77519 311.09064 210.15019 311.46564Q209.54082 311.825 209.05644 311.9969L209.05644 310.98126Q209.93144 310.5594 210.58769 309.98126Q211.25957 309.3875 211.54082 308.825L212.21269 308.825L212.21269 317.45Z" fill-rule="nonzero"/><path fill="#000000" d="M340.48477 316.4344L340.48477 317.45L334.79727 317.45Q334.79727 317.075 334.92227 316.71564Q335.14102 316.1375 335.60977 315.575Q336.09415 315.0125 337.0004 314.27814Q338.40665 313.1219 338.89102 312.45Q339.39102 311.77814 339.39102 311.1844Q339.39102 310.5594 338.9379 310.1375Q338.48477 309.7 337.76602 309.7Q337.0004 309.7 336.54727 310.15314Q336.09415 310.60626 336.07852 311.41876L335.0004 311.3094Q335.10977 310.09064 335.82852 309.46564Q336.5629 308.825 337.79727 308.825Q339.03165 308.825 339.7504 309.5125Q340.46915 310.2 340.46915 311.21564Q340.46915 311.73126 340.2504 312.23126Q340.04727 312.71564 339.54727 313.27814Q339.0629 313.825 337.9379 314.77814Q336.98477 315.575 336.70352 315.8719Q336.4379 316.15314 336.26602 316.4344L340.48477 316.4344Z" fill-rule="nonzero"/><path fill="#000000" d="M461.63184 315.1844L462.69434 315.04376Q462.8662 315.9344 463.3037 316.34064Q463.7412 316.73126 464.3662 316.73126Q465.1162 316.73126 465.63184 316.21564Q466.14746 315.7 466.14746 314.9344Q466.14746 314.21564 465.6631 313.7469Q465.19434 313.2625 464.45996 313.2625Q464.1631 313.2625 463.70996 313.3875L463.83496 312.45Q463.94434 312.46564 464.00684 312.46564Q464.6787 312.46564 465.20996 312.1219Q465.75684 311.7625 465.75684 311.02814Q465.75684 310.45 465.3662 310.075Q464.9756 309.6844 464.3506 309.6844Q463.7412 309.6844 463.31934 310.075Q462.9131 310.46564 462.8037 311.23126L461.7412 311.04376Q461.9287 309.9969 462.6162 309.41876Q463.3037 308.825 464.31934 308.825Q465.02246 308.825 465.6162 309.1375Q466.20996 309.4344 466.52246 309.95Q466.83496 310.46564 466.83496 311.0594Q466.83496 311.60626 466.5381 312.075Q466.2412 312.52814 465.6631 312.79376Q466.4131 312.96564 466.83496 313.52814Q467.25684 314.075 467.25684 314.91876Q467.25684 316.04376 466.4287 316.825Q465.6162 317.60626 464.3662 317.60626Q463.2412 317.60626 462.4912 316.9344Q461.7412 316.2469 461.63184 315.1844Z" fill-rule="nonzero"/><path fill="#000000" d="M205.46875 34.596874L208.21875 34.175Q208.40625 34.971874 208.9375 35.39375Q209.46875 35.8 210.4375 35.8Q211.5 35.8 212.04688 35.409374Q212.40625 35.14375 212.40625 34.675Q212.40625 34.3625 212.20312 34.159374Q212.0 33.971874 211.29688 33.8Q207.96875 33.065624 207.07812 32.45625Q205.84375 31.628124 205.84375 30.128124Q205.84375 28.784374 206.90625 27.8625Q207.98438 26.940624 210.21875 26.940624Q212.34375 26.940624 213.375 27.64375Q214.42188 28.33125 214.8125 29.690624L212.21875 30.159374Q212.04688 29.565624 211.57812 29.2375Q211.125 28.909374 210.26562 28.909374Q209.1875 28.909374 208.71875 29.221874Q208.40625 29.440624 208.40625 29.76875Q208.40625 30.065624 208.67188 30.26875Q209.04688 30.55 211.23438 31.05Q213.42188 31.55 214.29688 32.26875Q215.15625 33.003124 215.15625 34.3Q215.15625 35.7375 213.96875 36.76875Q212.78125 37.784374 210.4375 37.784374Q208.32812 37.784374 207.07812 36.925Q205.84375 36.065624 205.46875 34.596874ZM217.4375 25.76875L217.4375 23.2375L220.1875 23.2375L220.1875 25.76875L217.4375 25.76875ZM217.4375 37.55L217.4375 27.175L220.1875 27.175L220.1875 37.55L217.4375 37.55ZM222.1875 38.2375L225.3125 38.6125Q225.39062 39.159374 225.67188 39.3625Q226.0625 39.659374 226.90625 39.659374Q227.98438 39.659374 228.51562 39.33125Q228.875 39.128124 229.0625 38.64375Q229.1875 38.3 229.1875 37.378124L229.1875 35.8625Q227.96875 37.55 226.09375 37.55Q224.0 37.55 222.78125 35.784374Q221.82812 34.378124 221.82812 32.3Q221.82812 29.690624 223.07812 28.315624Q224.32812 26.940624 226.20312 26.940624Q228.125 26.940624 229.375 28.628124L229.375 27.175L231.9375 27.175L231.9375 36.4875Q231.9375 38.315624 231.625 39.221874Q231.32812 40.14375 230.78125 40.659374Q230.23438 41.175 229.3125 41.45625Q228.40625 41.753124 227.01562 41.753124Q224.375 41.753124 223.26562 40.846874Q222.17188 39.95625 222.17188 38.565624Q222.17188 38.425 222.1875 38.2375ZM224.64062 32.14375Q224.64062 33.8 225.26562 34.565624Q225.90625 35.33125 226.84375 35.33125Q227.85938 35.33125 228.54688 34.55Q229.25 33.753124 229.25 32.221874Q229.25 30.6125 228.57812 29.83125Q227.92188 29.05 226.90625 29.05Q225.90625 29.05 225.26562 29.815624Q224.64062 30.58125 224.64062 32.14375ZM243.60938 32.284374L246.42188 33.175Q245.78125 35.51875 244.28125 36.659374Q242.78125 37.8 240.46875 37.8Q237.625 37.8 235.78125 35.846874Q233.95312 33.89375 233.95312 30.51875Q233.95312 26.940624 235.79688 24.971874Q237.64062 22.9875 240.64062 22.9875Q243.28125 22.9875 244.92188 24.534374Q245.89062 25.45625 246.375 27.175L243.51562 27.8625Q243.26562 26.753124 242.45312 26.1125Q241.65625 25.45625 240.5 25.45625Q238.90625 25.45625 237.90625 26.596874Q236.92188 27.7375 236.92188 30.3Q236.92188 33.01875 237.89062 34.175Q238.875 35.315624 240.4375 35.315624Q241.59375 35.315624 242.42188 34.596874Q243.25 33.8625 243.60938 32.284374ZM251.0625 37.55L248.3125 37.55L248.3125 27.175L250.875 27.175L250.875 28.659374Q251.51562 27.6125 252.03125 27.284374Q252.5625 26.940624 253.23438 26.940624Q254.17188 26.940624 255.03125 27.45625L254.1875 29.846874Q253.5 29.409374 252.90625 29.409374Q252.32812 29.409374 251.92188 29.721874Q251.51562 30.034374 251.28125 30.878124Q251.0625 31.70625 251.0625 34.346874L251.0625 37.55ZM260.98438 41.753124L259.10938 41.753124Q257.60938 39.503124 256.82812 37.08125Q256.04688 34.64375 256.04688 32.3625Q256.04688 29.534374 257.01562 27.01875Q257.85938 24.83125 259.14062 22.9875L261.01562 22.9875Q259.67188 25.940624 259.17188 28.01875Q258.67188 30.096874 258.67188 32.425Q258.67188 34.01875 258.96875 35.70625Q259.26562 37.378124 259.78125 38.89375Q260.125 39.89375 260.98438 41.753124ZM269.875 37.55L267.125 37.55L267.125 27.20625Q265.625 28.6125 263.57812 29.284374L263.57812 26.8Q264.65625 26.440624 265.90625 25.471874Q267.17188 24.4875 267.64062 23.175L269.875 23.175L269.875 37.55ZM273.67188 41.753124Q274.48438 40.01875 274.8125 39.08125Q275.15625 38.159374 275.4375 36.95625Q275.71875 35.7375 275.84375 34.659374Q275.98438 33.565624 275.98438 32.425Q275.98438 30.096874 275.48438 28.01875Q275.0 25.940624 273.65625 22.9875L275.51562 22.9875Q277.0 25.08125 277.8125 27.440624Q278.625 29.8 278.625 32.221874Q278.625 34.253124 277.98438 36.596874Q277.25 39.20625 275.5625 41.753124L273.67188 41.753124ZM290.28125 37.55L286.10938 27.175L288.98438 27.175L290.9375 32.471874L291.51562 34.2375Q291.73438 33.565624 291.79688 33.346874Q291.92188 32.909374 292.07812 32.471874L294.0625 27.175L296.875 27.175L292.76562 37.55L290.28125 37.55ZM297.46875 34.596874L300.21875 34.175Q300.40625 34.971874 300.9375 35.39375Q301.46875 35.8 302.4375 35.8Q303.5 35.8 304.04688 35.409374Q304.40625 35.14375 304.40625 34.675Q304.40625 34.3625 304.20312 34.159374Q304.0 33.971874 303.29688 33.8Q299.96875 33.065624 299.07812 32.45625Q297.84375 31.628124 297.84375 30.128124Q297.84375 28.784374 298.90625 27.8625Q299.98438 26.940624 302.21875 26.940624Q304.34375 26.940624 305.375 27.64375Q306.42188 28.33125 306.8125 29.690624L304.21875 30.159374Q304.04688 29.565624 303.57812 29.2375Q303.125 28.909374 302.26562 28.909374Q301.1875 28.909374 300.71875 29.221874Q300.40625 29.440624 300.40625 29.76875Q300.40625 30.065624 300.67188 30.26875Q301.04688 30.55 303.23438 31.05Q305.42188 31.55 306.29688 32.26875Q307.15625 33.003124 307.15625 34.3Q307.15625 35.7375 305.96875 36.76875Q304.78125 37.784374 302.4375 37.784374Q300.32812 37.784374 299.07812 36.925Q297.84375 36.065624 297.46875 34.596874ZM321.4375 34.253124L324.17188 34.70625Q323.65625 36.20625 322.51562 37.003124Q321.375 37.784374 319.67188 37.784374Q316.95312 37.784374 315.65625 36.01875Q314.64062 34.596874 314.64062 32.440624Q314.64062 29.8625 315.98438 28.409374Q317.32812 26.940624 319.39062 26.940624Q321.70312 26.940624 323.03125 28.471874Q324.375 30.003124 324.32812 33.159374L317.45312 33.159374Q317.48438 34.378124 318.10938 35.065624Q318.75 35.7375 319.6875 35.7375Q320.34375 35.7375 320.78125 35.39375Q321.21875 35.034374 321.4375 34.253124ZM321.59375 31.471874Q321.5625 30.284374 320.96875 29.675Q320.39062 29.05 319.5625 29.05Q318.65625 29.05 318.07812 29.690624Q317.48438 30.346874 317.5 31.471874L321.59375 31.471874ZM326.35938 27.175L328.92188 27.175L328.92188 28.70625Q329.42188 27.925 330.26562 27.440624Q331.10938 26.940624 332.15625 26.940624Q333.95312 26.940624 335.20312 28.3625Q336.46875 29.76875 336.46875 32.3Q336.46875 34.909374 335.20312 36.346874Q333.9375 37.784374 332.125 37.784374Q331.26562 37.784374 330.5625 37.440624Q329.875 37.096874 329.10938 36.26875L329.10938 41.503124L326.35938 41.503124L326.35938 27.175ZM329.07812 32.190624Q329.07812 33.940624 329.76562 34.784374Q330.45312 35.6125 331.45312 35.6125Q332.40625 35.6125 333.04688 34.846874Q333.6875 34.065624 333.6875 32.33125Q333.6875 30.690624 333.03125 29.909374Q332.375 29.1125 331.40625 29.1125Q330.40625 29.1125 329.73438 29.89375Q329.07812 30.659374 329.07812 32.190624ZM337.46875 34.596874L340.21875 34.175Q340.40625 34.971874 340.9375 35.39375Q341.46875 35.8 342.4375 35.8Q343.5 35.8 344.04688 35.409374Q344.40625 35.14375 344.40625 34.675Q344.40625 34.3625 344.20312 34.159374Q344.0 33.971874 343.29688 33.8Q339.96875 33.065624 339.07812 32.45625Q337.84375 31.628124 337.84375 30.128124Q337.84375 28.784374 338.90625 27.8625Q339.98438 26.940624 342.21875 26.940624Q344.34375 26.940624 345.375 27.64375Q346.42188 28.33125 346.8125 29.690624L344.21875 30.159374Q344.04688 29.565624 343.57812 29.2375Q343.125 28.909374 342.26562 28.909374Q341.1875 28.909374 340.71875 29.221874Q340.40625 29.440624 340.40625 29.76875Q340.40625 30.065624 340.67188 30.26875Q341.04688 30.55 343.23438 31.05Q345.42188 31.55 346.29688 32.26875Q347.15625 33.003124 347.15625 34.3Q347.15625 35.7375 345.96875 36.76875Q344.78125 37.784374 342.4375 37.784374Q340.32812 37.784374 339.07812 36.925Q337.84375 36.065624 337.46875 34.596874ZM358.60938 32.284374L361.42188 33.175Q360.78125 35.51875 359.28125 36.659374Q357.78125 37.8 355.46875 37.8Q352.625 37.8 350.78125 35.846874Q348.95312 33.89375 348.95312 30.51875Q348.95312 26.940624 350.79688 24.971874Q352.64062 22.9875 355.64062 22.9875Q358.28125 22.9875 359.92188 24.534374Q360.89062 25.45625 361.375 27.175L358.51562 27.8625Q358.26562 26.753124 357.45312 26.1125Q356.65625 25.45625 355.5 25.45625Q353.90625 25.45625 352.90625 26.596874Q351.92188 27.7375 351.92188 30.3Q351.92188 33.01875 352.89062 34.175Q353.875 35.315624 355.4375 35.315624Q356.59375 35.315624 357.42188 34.596874Q358.25 33.8625 358.60938 32.284374ZM366.0625 37.55L363.3125 37.55L363.3125 27.175L365.875 27.175L365.875 28.659374Q366.51562 27.6125 367.03125 27.284374Q367.5625 26.940624 368.23438 26.940624Q369.17188 26.940624 370.03125 27.45625L369.1875 29.846874Q368.5 29.409374 367.90625 29.409374Q367.32812 29.409374 366.92188 29.721874Q366.51562 30.034374 366.28125 30.878124Q366.0625 31.70625 366.0625 34.346874L366.0625 37.55ZM375.98438 41.753124L374.10938 41.753124Q372.60938 39.503124 371.82812 37.08125Q371.04688 34.64375 371.04688 32.3625Q371.04688 29.534374 372.01562 27.01875Q372.85938 24.83125 374.14062 22.9875L376.01562 22.9875Q374.67188 25.940624 374.17188 28.01875Q373.67188 30.096874 373.67188 32.425Q373.67188 34.01875 373.96875 35.70625Q374.26562 37.378124 374.78125 38.89375Q375.125 39.89375 375.98438 41.753124ZM384.875 37.55L382.125 37.55L382.125 27.20625Q380.625 28.6125 378.57812 29.284374L378.57812 26.8Q379.65625 26.440624 380.90625 25.471874Q382.17188 24.4875 382.64062 23.175L384.875 23.175L384.875 37.55ZM388.67188 41.753124Q389.48438 40.01875 389.8125 39.08125Q390.15625 38.159374 390.4375 36.95625Q390.71875 35.7375 390.84375 34.659374Q390.98438 33.565624 390.98438 32.425Q390.98438 30.096874 390.48438 28.01875Q390.0 25.940624 388.65625 22.9875L390.51562 22.9875Q392.0 25.08125 392.8125 27.440624Q393.625 29.8 393.625 32.221874Q393.625 34.253124 392.98438 36.596874Q392.25 39.20625 390.5625 41.753124L388.67188 41.753124Z" fill-rule="nonzero"/></svg>