<svg version="1.1" viewBox="0.0 0.0 600.0 371.0" fill="none" stroke="none" stroke-linecap="square" stroke-miterlimit="10" width="600" height="371" xmlns:xlink="http://www.w3.org/1999/xlink" xmlns="http://www.w3.org/2000/svg"><path fill="#ffffff" d="M0 0L600.0 0L600.0 371.0L0 371.0L0 0Z" fill-rule="nonzero"/><path stroke="#cccccc" stroke-width="1.0" stroke-linecap="butt" d="M176.5 61.5L176.5 300.5" fill-rule="nonzero"/><path stroke="#cccccc" stroke-width="1.0" stroke-linecap="butt" d="M265.5 61.5L265.5 300.5" fill-rule="nonzero"/><path stroke="#cccccc" stroke-width="1.0" stroke-linecap="butt" d="M353.5 61.5L353.5 300.5" fill-rule="nonzero"/><path stroke="#cccccc" stroke-width="1.0" stroke-linecap="butt" d="M441.5 61.5L441.5 300.5" fill-rule="nonzero"/><path stroke="#cccccc" stroke-width="1.0" stroke-linecap="butt" d="M530.5 61.5L530.5 300.5" fill-rule="nonzero"/><path stroke="#cccccc" stroke-width="1.0" stroke-linecap="butt" d="M88.5 300.5L581.5 300.5" fill-rule="nonzero"/><path stroke="#cccccc" stroke-width="1.0" stroke-linecap="butt" d="M88.5 240.5L581.5 240.5" fill-rule="nonzero"/><path stroke="#cccccc" stroke-width="1.0" stroke-linecap="butt" d="M88.5 181.5L581.5 181.5" fill-rule="nonzero"/><path stroke="#cccccc" stroke-width="1.0" stroke-linecap="butt" d="M88.5 121.5L581.5 121.5" fill-rule="nonzero"/><path stroke="#333333" stroke-width="1.0" stroke-linecap="butt" d="M88.5 61.5L581.5 61.5" fill-rule="nonzero"/><clipPath id="id_0"><path d="M88.55 61.916668L581.45 61.916668L581.45 300.45L88.55 300.45L88.55 61.916668Z" clip-rule="nonzero"/></clipPath><path fill="#34a853" fill-opacity="0.3019608" clip-path="url(#id_0)" d="M88.55 247.8701L101.72077 234.3858L114.88934 220.91583L128.04828 207.46732L141.19908 194.0367L154.34247 180.62517L167.47842 167.23224L180.00746 154.89326L185.40079 154.89326L190.79321 154.89326L196.19006 154.89326L201.59134 154.89326L206.99525 154.89326L212.40271 154.89326L217.8137 154.89326L223.22734 154.89326L228.6454 154.89326L234.0661 154.89326L239.48947 154.89326L244.91724 154.89326L250.34767 154.89326L255.78163 154.89326L261.21912 154.89326L266.66016 154.89326L272.10385 154.89326L277.55194 154.89326L283.0027 154.89326L288.45697 154.89326L293.9139 154.89326L299.37524 154.89326L304.83926 154.89326L310.3068 154.89326L315.77786 154.89326L321.25247 154.89326L326.73062 154.89326L332.2114 154.89326L337.69662 154.89326L343.18448 154.89326L348.67587 154.89326L354.1708 154.89326L359.66925 154.89326L365.17038 154.89326L370.6759 154.89326L376.18408 154.89326L381.6967 154.89326L387.21194 154.89326L392.7307 154.89326L398.25305 154.89326L403.7789 154.89326L409.3083 154.89326L414.8412 154.89326L420.37766 154.89326L425.91675 154.89326L431.4603 154.89326L437.00647 154.89326L442.55707 154.89326L448.1103 154.89326L453.66797 154.89326L459.22827 154.89326L464.7921 154.89326L470.3595 154.89326L475.9313 154.89326L481.50574 154.89326L487.08374 154.89326L492.66525 154.89326L498.2503 154.89326L503.8389 154.89326L509.4319 154.89326L515.0275 154.89326L520.6267 154.89326L526.2295 154.89326L531.8357 154.89326L537.4464 154.89326L543.05975 154.89326L548.6766 154.89326L554.29785 154.89326L559.9218 154.89326L565.54926 154.89326L571.18115 154.89326L576.8165 154.89326L581.45 154.89326L581.45 61.916668L576.8165 61.916668L571.18115 61.916668L565.54926 61.916668L559.9218 61.916668L554.29785 61.916668L548.6766 61.916668L543.05975 61.916668L537.4464 61.916668L531.8357 61.916668L526.2295 61.916668L520.6267 61.916668L515.0275 61.916668L509.4319 61.916668L503.8389 61.916668L498.2503 61.916668L492.66525 61.916668L487.08374 61.916668L481.50574 61.916668L475.9313 61.916668L470.3595 61.916668L464.7921 61.916668L459.22827 61.916668L453.66797 61.916668L448.1103 61.916668L442.55707 61.916668L437.00647 61.916668L431.4603 61.916668L425.91675 61.916668L420.37766 61.916668L414.8412 61.916668L409.3083 61.916668L403.7789 61.916668L398.25305 61.916668L392.7307 61.916668L387.21194 61.916668L381.6967 61.916668L376.18408 61.916668L370.6759 61.916668L365.17038 61.916668L359.66925 61.916668L354.1708 61.916668L348.67587 61.916668L343.18448 61.916668L337.69662 61.916668L332.2114 61.916668L326.73062 61.916668L321.25247 61.916668L315.77786 61.916668L310.3068 61.916668L304.83926 61.916668L299.37524 61.916668L293.9139 61.916668L288.45697 61.916668L283.0027 61.916668L277.55194 61.916668L272.10385 61.916668L266.66016 61.916668L261.21912 61.916668L255.78163 61.916668L250.34767 61.916668L244.91724 61.916668L239.48947 61.916668L234.0661 61.916668L228.6454 61.916668L223.22734 61.916668L217.8137 61.916668L212.40271 61.916668L206.99525 61.916668L201.59134 61.916668L196.19006 61.916668L190.79321 61.916668L185.40079 61.916668L180.00746 61.916668L167.47842 61.916668L154.34247 61.916668L141.19908 61.916668L128.04828 61.916668L114.88934 61.916668L101.72077 61.916668L88.55 61.916668Z" fill-rule="nonzero"/><path stroke="#34a853" stroke-width="2.0" stroke-linecap="butt" clip-path="url(#id_0)" d="M88.55 247.8701L101.72077 234.3858L114.88934 220.91583L128.04828 207.46732L141.19908 194.0367L154.34247 180.62517L167.47842 167.23224L180.00746 154.89326L185.40079 154.89326L190.79321 154.89326L196.19006 154.89326L201.59134 154.89326L206.99525 154.89326L212.40271 154.89326L217.8137 154.89326L223.22734 154.89326L228.6454 154.89326L234.0661 154.89326L239.48947 154.89326L244.91724 154.89326L250.34767 154.89326L255.78163 154.89326L261.21912 154.89326L266.66016 154.89326L272.10385 154.89326L277.55194 154.89326L283.0027 154.89326L288.45697 154.89326L293.9139 154.89326L299.37524 154.89326L304.83926 154.89326L310.3068 154.89326L315.77786 154.89326L321.25247 154.89326L326.73062 154.89326L332.2114 154.89326L337.69662 154.89326L343.18448 154.89326L348.67587 154.89326L354.1708 154.89326L359.66925 154.89326L365.17038 154.89326L370.6759 154.89326L376.18408 154.89326L381.6967 154.89326L387.21194 154.89326L392.7307 154.89326L398.25305 154.89326L403.7789 154.89326L409.3083 154.89326L414.8412 154.89326L420.37766 154.89326L425.91675 154.89326L431.4603 154.89326L437.00647 154.89326L442.55707 154.89326L448.1103 154.89326L453.66797 154.89326L459.22827 154.89326L464.7921 154.89326L470.3595 154.89326L475.9313 154.89326L481.50574 154.89326L487.08374 154.89326L492.66525 154.89326L498.2503 154.89326L503.8389 154.89326L509.4319 154.89326L515.0275 154.89326L520.6267 154.89326L526.2295 154.89326L531.8357 154.89326L537.4464 154.89326L543.05975 154.89326L548.6766 154.89326L554.29785 154.89326L559.9218 154.89326L565.54926 154.89326L571.18115 154.89326L576.8165 154.89326L581.45 154.89326" fill-rule="nonzero"/><path fill="#000000" fill-opacity="0.0" clip-path="url(#id_0)" d="M91.55 247.8701C91.55 249.52695 90.206856 250.8701 88.55 250.8701C86.89314 250.8701 85.55 249.52695 85.55 247.8701C85.55 246.21324 86.89314 244.8701 88.55 244.8701C90.206856 244.8701 91.55 246.21324 91.55 247.8701Z" fill-rule="nonzero"/><path fill="#000000" fill-opacity="0.0" clip-path="url(#id_0)" d="M104.72077 234.3858C104.72077 236.04266 103.37763 237.3858 101.72077 237.3858C100.06392 237.3858 98.72077 236.04266 98.72077 234.3858C98.72077 232.72896 100.06392 231.3858 101.72077 231.3858C103.37763 231.3858 104.72077 232.72896 104.72077 234.3858Z" fill-rule="nonzero"/><path fill="#000000" fill-opacity="0.0" clip-path="url(#id_0)" d="M117.88934 220.91583C117.88934 222.57268 116.546196 223.91583 114.88934 223.91583C113.23248 223.91583 111.88934 222.57268 111.88934 220.91583C111.88934 219.25897 113.23248 217.91583 114.88934 217.91583C116.546196 217.91583 117.88934 219.25897 117.88934 220.91583Z" fill-rule="nonzero"/><path fill="#000000" fill-opacity="0.0" clip-path="url(#id_0)" d="M131.04828 207.46732C131.04828 209.12418 129.70512 210.46732 128.04828 210.46732C126.39142 210.46732 125.04827 209.12418 125.04827 207.46732C125.04827 205.81047 126.39142 204.46732 128.04828 204.46732C129.70512 204.46732 131.04828 205.81047 131.04828 207.46732Z" fill-rule="nonzero"/><path fill="#000000" fill-opacity="0.0" clip-path="url(#id_0)" d="M144.19908 194.0367C144.19908 195.69356 142.85594 197.0367 141.19908 197.0367C139.54222 197.0367 138.19908 195.69356 138.19908 194.0367C138.19908 192.37985 139.54222 191.0367 141.19908 191.0367C142.85594 191.0367 144.19908 192.37985 144.19908 194.0367Z" fill-rule="nonzero"/><path fill="#000000" fill-opacity="0.0" clip-path="url(#id_0)" d="M157.34247 180.62517C157.34247 182.28201 155.99931 183.62517 154.34247 183.62517C152.68561 183.62517 151.34247 182.28201 151.34247 180.62517C151.34247 178.9683 152.68561 177.62517 154.34247 177.62517C155.99931 177.62517 157.34247 178.9683 157.34247 180.62517Z" fill-rule="nonzero"/><path fill="#000000" fill-opacity="0.0" clip-path="url(#id_0)" d="M170.47842 167.23224C170.47842 168.88908 169.13528 170.23224 167.47842 170.23224C165.82158 170.23224 164.47842 168.88908 164.47842 167.23224C164.47842 165.57538 165.82158 164.23224 167.47842 164.23224C169.13528 164.23224 170.47842 165.57538 170.47842 167.23224Z" fill-rule="nonzero"/><path fill="#000000" fill-opacity="0.0" clip-path="url(#id_0)" d="M183.00746 154.89326C183.00746 156.55011 181.66432 157.89326 180.00746 157.89326C178.35062 157.89326 177.00746 156.55011 177.00746 154.89326C177.00746 153.2364 178.35062 151.89326 180.00746 151.89326C181.66432 151.89326 183.00746 153.2364 183.00746 154.89326Z" fill-rule="nonzero"/><path fill="#000000" fill-opacity="0.0" clip-path="url(#id_0)" d="M188.40079 154.89326C188.40079 156.55011 187.05763 157.89326 185.40079 157.89326C183.74393 157.89326 182.40079 156.55011 182.40079 154.89326C182.40079 153.2364 183.74393 151.89326 185.40079 151.89326C187.05763 151.89326 188.40079 153.2364 188.40079 154.89326Z" fill-rule="nonzero"/><path fill="#000000" fill-opacity="0.0" clip-path="url(#id_0)" d="M193.79321 154.89326C193.79321 156.55011 192.45007 157.89326 190.79321 157.89326C189.13637 157.89326 187.79321 156.55011 187.79321 154.89326C187.79321 153.2364 189.13637 151.89326 190.79321 151.89326C192.45007 151.89326 193.79321 153.2364 193.79321 154.89326Z" fill-rule="nonzero"/><path fill="#000000" fill-opacity="0.0" clip-path="url(#id_0)" d="M199.19006 154.89326C199.19006 156.55011 197.84692 157.89326 196.19006 157.89326C194.53322 157.89326 193.19006 156.55011 193.19006 154.89326C193.19006 153.2364 194.53322 151.89326 196.19006 151.89326C197.84692 151.89326 199.19006 153.2364 199.19006 154.89326Z" fill-rule="nonzero"/><path fill="#000000" fill-opacity="0.0" clip-path="url(#id_0)" d="M204.59134 154.89326C204.59134 156.55011 203.24818 157.89326 201.59134 157.89326C199.93448 157.89326 198.59134 156.55011 198.59134 154.89326C198.59134 153.2364 199.93448 151.89326 201.59134 151.89326C203.24818 151.89326 204.59134 153.2364 204.59134 154.89326Z" fill-rule="nonzero"/><path fill="#000000" fill-opacity="0.0" clip-path="url(#id_0)" d="M209.99525 154.89326C209.99525 156.55011 208.65211 157.89326 206.99525 157.89326C205.33841 157.89326 203.99525 156.55011 203.99525 154.89326C203.99525 153.2364 205.33841 151.89326 206.99525 151.89326C208.65211 151.89326 209.99525 153.2364 209.99525 154.89326Z" fill-rule="nonzero"/><path fill="#000000" fill-opacity="0.0" clip-path="url(#id_0)" d="M215.40271 154.89326C215.40271 156.55011 214.05957 157.89326 212.40271 157.89326C210.74585 157.89326 209.40271 156.55011 209.40271 154.89326C209.40271 153.2364 210.74585 151.89326 212.40271 151.89326C214.05957 151.89326 215.40271 153.2364 215.40271 154.89326Z" fill-rule="nonzero"/><path fill="#000000" fill-opacity="0.0" clip-path="url(#id_0)" d="M220.8137 154.89326C220.8137 156.55011 219.47055 157.89326 217.8137 157.89326C216.15685 157.89326 214.8137 156.55011 214.8137 154.89326C214.8137 153.2364 216.15685 151.89326 217.8137 151.89326C219.47055 151.89326 220.8137 153.2364 220.8137 154.89326Z" fill-rule="nonzero"/><path fill="#000000" fill-opacity="0.0" clip-path="url(#id_0)" d="M226.22734 154.89326C226.22734 156.55011 224.8842 157.89326 223.22734 157.89326C221.57048 157.89326 220.22734 156.55011 220.22734 154.89326C220.22734 153.2364 221.57048 151.89326 223.22734 151.89326C224.8842 151.89326 226.22734 153.2364 226.22734 154.89326Z" fill-rule="nonzero"/><path fill="#000000" fill-opacity="0.0" clip-path="url(#id_0)" d="M231.6454 154.89326C231.6454 156.55011 230.30225 157.89326 228.6454 157.89326C226.98854 157.89326 225.6454 156.55011 225.6454 154.89326C225.6454 153.2364 226.98854 151.89326 228.6454 151.89326C230.30225 151.89326 231.6454 153.2364 231.6454 154.89326Z" fill-rule="nonzero"/><path fill="#000000" fill-opacity="0.0" clip-path="url(#id_0)" d="M237.0661 154.89326C237.0661 156.55011 235.72296 157.89326 234.0661 157.89326C232.40926 157.89326 231.0661 156.55011 231.0661 154.89326C231.0661 153.2364 232.40926 151.89326 234.0661 151.89326C235.72296 151.89326 237.0661 153.2364 237.0661 154.89326Z" fill-rule="nonzero"/><path fill="#000000" fill-opacity="0.0" clip-path="url(#id_0)" d="M242.48947 154.89326C242.48947 156.55011 241.14632 157.89326 239.48947 157.89326C237.83261 157.89326 236.48947 156.55011 236.48947 154.89326C236.48947 153.2364 237.83261 151.89326 239.48947 151.89326C241.14632 151.89326 242.48947 153.2364 242.48947 154.89326Z" fill-rule="nonzero"/><path fill="#000000" fill-opacity="0.0" clip-path="url(#id_0)" d="M247.91724 154.89326C247.91724 156.55011 246.5741 157.89326 244.91724 157.89326C243.26039 157.89326 241.91724 156.55011 241.91724 154.89326C241.91724 153.2364 243.26039 151.89326 244.91724 151.89326C246.5741 151.89326 247.91724 153.2364 247.91724 154.89326Z" fill-rule="nonzero"/><path fill="#000000" fill-opacity="0.0" clip-path="url(#id_0)" d="M253.34767 154.89326C253.34767 156.55011 252.00452 157.89326 250.34767 157.89326C248.69081 157.89326 247.34767 156.55011 247.34767 154.89326C247.34767 153.2364 248.69081 151.89326 250.34767 151.89326C252.00452 151.89326 253.34767 153.2364 253.34767 154.89326Z" fill-rule="nonzero"/><path fill="#000000" fill-opacity="0.0" clip-path="url(#id_0)" d="M258.78162 154.89326C258.78162 156.55011 257.43848 157.89326 255.78163 157.89326C254.12477 157.89326 252.78163 156.55011 252.78163 154.89326C252.78163 153.2364 254.12477 151.89326 255.78163 151.89326C257.43848 151.89326 258.78162 153.2364 258.78162 154.89326Z" fill-rule="nonzero"/><path fill="#000000" fill-opacity="0.0" clip-path="url(#id_0)" d="M264.21912 154.89326C264.21912 156.55011 262.87598 157.89326 261.21912 157.89326C259.5623 157.89326 258.21912 156.55011 258.21912 154.89326C258.21912 153.2364 259.5623 151.89326 261.21912 151.89326C262.87598 151.89326 264.21912 153.2364 264.21912 154.89326Z" fill-rule="nonzero"/><path fill="#000000" fill-opacity="0.0" clip-path="url(#id_0)" d="M269.66016 154.89326C269.66016 156.55011 268.31702 157.89326 266.66016 157.89326C265.0033 157.89326 263.66016 156.55011 263.66016 154.89326C263.66016 153.2364 265.0033 151.89326 266.66016 151.89326C268.31702 151.89326 269.66016 153.2364 269.66016 154.89326Z" fill-rule="nonzero"/><path fill="#000000" fill-opacity="0.0" clip-path="url(#id_0)" d="M275.10385 154.89326C275.10385 156.55011 273.76068 157.89326 272.10385 157.89326C270.447 157.89326 269.10385 156.55011 269.10385 154.89326C269.10385 153.2364 270.447 151.89326 272.10385 151.89326C273.76068 151.89326 275.10385 153.2364 275.10385 154.89326Z" fill-rule="nonzero"/><path fill="#000000" fill-opacity="0.0" clip-path="url(#id_0)" d="M280.55194 154.89326C280.55194 156.55011 279.2088 157.89326 277.55194 157.89326C275.89508 157.89326 274.55194 156.55011 274.55194 154.89326C274.55194 153.2364 275.89508 151.89326 277.55194 151.89326C279.2088 151.89326 280.55194 153.2364 280.55194 154.89326Z" fill-rule="nonzero"/><path fill="#000000" fill-opacity="0.0" clip-path="url(#id_0)" d="M286.0027 154.89326C286.0027 156.55011 284.65955 157.89326 283.0027 157.89326C281.34583 157.89326 280.0027 156.55011 280.0027 154.89326C280.0027 153.2364 281.34583 151.89326 283.0027 151.89326C284.65955 151.89326 286.0027 153.2364 286.0027 154.89326Z" fill-rule="nonzero"/><path fill="#000000" fill-opacity="0.0" clip-path="url(#id_0)" d="M291.45697 154.89326C291.45697 156.55011 290.11383 157.89326 288.45697 157.89326C286.8001 157.89326 285.45697 156.55011 285.45697 154.89326C285.45697 153.2364 286.8001 151.89326 288.45697 151.89326C290.11383 151.89326 291.45697 153.2364 291.45697 154.89326Z" fill-rule="nonzero"/><path fill="#000000" fill-opacity="0.0" clip-path="url(#id_0)" d="M296.9139 154.89326C296.9139 156.55011 295.57077 157.89326 293.9139 157.89326C292.25705 157.89326 290.9139 156.55011 290.9139 154.89326C290.9139 153.2364 292.25705 151.89326 293.9139 151.89326C295.57077 151.89326 296.9139 153.2364 296.9139 154.89326Z" fill-rule="nonzero"/><path fill="#000000" fill-opacity="0.0" clip-path="url(#id_0)" d="M302.37524 154.89326C302.37524 156.55011 301.0321 157.89326 299.37524 157.89326C297.7184 157.89326 296.37524 156.55011 296.37524 154.89326C296.37524 153.2364 297.7184 151.89326 299.37524 151.89326C301.0321 151.89326 302.37524 153.2364 302.37524 154.89326Z" fill-rule="nonzero"/><path fill="#000000" fill-opacity="0.0" clip-path="url(#id_0)" d="M307.83926 154.89326C307.83926 156.55011 306.49612 157.89326 304.83926 157.89326C303.1824 157.89326 301.83926 156.55011 301.83926 154.89326C301.83926 153.2364 303.1824 151.89326 304.83926 151.89326C306.49612 151.89326 307.83926 153.2364 307.83926 154.89326Z" fill-rule="nonzero"/><path fill="#000000" fill-opacity="0.0" clip-path="url(#id_0)" d="M313.3068 154.89326C313.3068 156.55011 311.96365 157.89326 310.3068 157.89326C308.64993 157.89326 307.3068 156.55011 307.3068 154.89326C307.3068 153.2364 308.64993 151.89326 310.3068 151.89326C311.96365 151.89326 313.3068 153.2364 313.3068 154.89326Z" fill-rule="nonzero"/><path fill="#000000" fill-opacity="0.0" clip-path="url(#id_0)" d="M318.77786 154.89326C318.77786 156.55011 317.43472 157.89326 315.77786 157.89326C314.121 157.89326 312.77786 156.55011 312.77786 154.89326C312.77786 153.2364 314.121 151.89326 315.77786 151.89326C317.43472 151.89326 318.77786 153.2364 318.77786 154.89326Z" fill-rule="nonzero"/><path fill="#000000" fill-opacity="0.0" clip-path="url(#id_0)" d="M324.25247 154.89326C324.25247 156.55011 322.90933 157.89326 321.25247 157.89326C319.5956 157.89326 318.25247 156.55011 318.25247 154.89326C318.25247 153.2364 319.5956 151.89326 321.25247 151.89326C322.90933 151.89326 324.25247 153.2364 324.25247 154.89326Z" fill-rule="nonzero"/><path fill="#000000" fill-opacity="0.0" clip-path="url(#id_0)" d="M329.73062 154.89326C329.73062 156.55011 328.38748 157.89326 326.73062 157.89326C325.07376 157.89326 323.73062 156.55011 323.73062 154.89326C323.73062 153.2364 325.07376 151.89326 326.73062 151.89326C328.38748 151.89326 329.73062 153.2364 329.73062 154.89326Z" fill-rule="nonzero"/><path fill="#000000" fill-opacity="0.0" clip-path="url(#id_0)" d="M335.2114 154.89326C335.2114 156.55011 333.86826 157.89326 332.2114 157.89326C330.55457 157.89326 329.2114 156.55011 329.2114 154.89326C329.2114 153.2364 330.55457 151.89326 332.2114 151.89326C333.86826 151.89326 335.2114 153.2364 335.2114 154.89326Z" fill-rule="nonzero"/><path fill="#000000" fill-opacity="0.0" clip-path="url(#id_0)" d="M340.69662 154.89326C340.69662 156.55011 339.35345 157.89326 337.69662 157.89326C336.03976 157.89326 334.69662 156.55011 334.69662 154.89326C334.69662 153.2364 336.03976 151.89326 337.69662 151.89326C339.35345 151.89326 340.69662 153.2364 340.69662 154.89326Z" fill-rule="nonzero"/><path fill="#000000" fill-opacity="0.0" clip-path="url(#id_0)" d="M346.18448 154.89326C346.18448 156.55011 344.84134 157.89326 343.18448 157.89326C341.52762 157.89326 340.18448 156.55011 340.18448 154.89326C340.18448 153.2364 341.52762 151.89326 343.18448 151.89326C344.84134 151.89326 346.18448 153.2364 346.18448 154.89326Z" fill-rule="nonzero"/><path fill="#000000" fill-opacity="0.0" clip-path="url(#id_0)" d="M351.67587 154.89326C351.67587 156.55011 350.33273 157.89326 348.67587 157.89326C347.019 157.89326 345.67587 156.55011 345.67587 154.89326C345.67587 153.2364 347.019 151.89326 348.67587 151.89326C350.33273 151.89326 351.67587 153.2364 351.67587 154.89326Z" fill-rule="nonzero"/><path fill="#000000" fill-opacity="0.0" clip-path="url(#id_0)" d="M357.1708 154.89326C357.1708 156.55011 355.82764 157.89326 354.1708 157.89326C352.51395 157.89326 351.1708 156.55011 351.1708 154.89326C351.1708 153.2364 352.51395 151.89326 354.1708 151.89326C355.82764 151.89326 357.1708 153.2364 357.1708 154.89326Z" fill-rule="nonzero"/><path fill="#000000" fill-opacity="0.0" clip-path="url(#id_0)" d="M362.66925 154.89326C362.66925 156.55011 361.3261 157.89326 359.66925 157.89326C358.0124 157.89326 356.66925 156.55011 356.66925 154.89326C356.66925 153.2364 358.0124 151.89326 359.66925 151.89326C361.3261 151.89326 362.66925 153.2364 362.66925 154.89326Z" fill-rule="nonzero"/><path fill="#000000" fill-opacity="0.0" clip-path="url(#id_0)" d="M368.17038 154.89326C368.17038 156.55011 366.82724 157.89326 365.17038 157.89326C363.51352 157.89326 362.17038 156.55011 362.17038 154.89326C362.17038 153.2364 363.51352 151.89326 365.17038 151.89326C366.82724 151.89326 368.17038 153.2364 368.17038 154.89326Z" fill-rule="nonzero"/><path fill="#000000" fill-opacity="0.0" clip-path="url(#id_0)" d="M373.6759 154.89326C373.6759 156.55011 372.33276 157.89326 370.6759 157.89326C369.01904 157.89326 367.6759 156.55011 367.6759 154.89326C367.6759 153.2364 369.01904 151.89326 370.6759 151.89326C372.33276 151.89326 373.6759 153.2364 373.6759 154.89326Z" fill-rule="nonzero"/><path fill="#000000" fill-opacity="0.0" clip-path="url(#id_0)" d="M379.18408 154.89326C379.18408 156.55011 377.84094 157.89326 376.18408 157.89326C374.52722 157.89326 373.18408 156.55011 373.18408 154.89326C373.18408 153.2364 374.52722 151.89326 376.18408 151.89326C377.84094 151.89326 379.18408 153.2364 379.18408 154.89326Z" fill-rule="nonzero"/><path fill="#000000" fill-opacity="0.0" clip-path="url(#id_0)" d="M384.6967 154.89326C384.6967 156.55011 383.35355 157.89326 381.6967 157.89326C380.03983 157.89326 378.6967 156.55011 378.6967 154.89326C378.6967 153.2364 380.03983 151.89326 381.6967 151.89326C383.35355 151.89326 384.6967 153.2364 384.6967 154.89326Z" fill-rule="nonzero"/><path fill="#000000" fill-opacity="0.0" clip-path="url(#id_0)" d="M390.21194 154.89326C390.21194 156.55011 388.86877 157.89326 387.21194 157.89326C385.55508 157.89326 384.21194 156.55011 384.21194 154.89326C384.21194 153.2364 385.55508 151.89326 387.21194 151.89326C388.86877 151.89326 390.21194 153.2364 390.21194 154.89326Z" fill-rule="nonzero"/><path fill="#000000" fill-opacity="0.0" clip-path="url(#id_0)" d="M395.7307 154.89326C395.7307 156.55011 394.38757 157.89326 392.7307 157.89326C391.07385 157.89326 389.7307 156.55011 389.7307 154.89326C389.7307 153.2364 391.07385 151.89326 392.7307 151.89326C394.38757 151.89326 395.7307 153.2364 395.7307 154.89326Z" fill-rule="nonzero"/><path fill="#000000" fill-opacity="0.0" clip-path="url(#id_0)" d="M401.25305 154.89326C401.25305 156.55011 399.90988 157.89326 398.25305 157.89326C396.5962 157.89326 395.25305 156.55011 395.25305 154.89326C395.25305 153.2364 396.5962 151.89326 398.25305 151.89326C399.90988 151.89326 401.25305 153.2364 401.25305 154.89326Z" fill-rule="nonzero"/><path fill="#000000" fill-opacity="0.0" clip-path="url(#id_0)" d="M406.7789 154.89326C406.7789 156.55011 405.43573 157.89326 403.7789 157.89326C402.12204 157.89326 400.7789 156.55011 400.7789 154.89326C400.7789 153.2364 402.12204 151.89326 403.7789 151.89326C405.43573 151.89326 406.7789 153.2364 406.7789 154.89326Z" fill-rule="nonzero"/><path fill="#000000" fill-opacity="0.0" clip-path="url(#id_0)" d="M412.3083 154.89326C412.3083 156.55011 410.96512 157.89326 409.3083 157.89326C407.65143 157.89326 406.3083 156.55011 406.3083 154.89326C406.3083 153.2364 407.65143 151.89326 409.3083 151.89326C410.96512 151.89326 412.3083 153.2364 412.3083 154.89326Z" fill-rule="nonzero"/><path fill="#000000" fill-opacity="0.0" clip-path="url(#id_0)" d="M417.8412 154.89326C417.8412 156.55011 416.49805 157.89326 414.8412 157.89326C413.18436 157.89326 411.8412 156.55011 411.8412 154.89326C411.8412 153.2364 413.18436 151.89326 414.8412 151.89326C416.49805 151.89326 417.8412 153.2364 417.8412 154.89326Z" fill-rule="nonzero"/><path fill="#000000" fill-opacity="0.0" clip-path="url(#id_0)" d="M423.37766 154.89326C423.37766 156.55011 422.03452 157.89326 420.37766 157.89326C418.7208 157.89326 417.37766 156.55011 417.37766 154.89326C417.37766 153.2364 418.7208 151.89326 420.37766 151.89326C422.03452 151.89326 423.37766 153.2364 423.37766 154.89326Z" fill-rule="nonzero"/><path fill="#000000" fill-opacity="0.0" clip-path="url(#id_0)" d="M428.91675 154.89326C428.91675 156.55011 427.5736 157.89326 425.91675 157.89326C424.25992 157.89326 422.91675 156.55011 422.91675 154.89326C422.91675 153.2364 424.25992 151.89326 425.91675 151.89326C427.5736 151.89326 428.91675 153.2364 428.91675 154.89326Z" fill-rule="nonzero"/><path fill="#000000" fill-opacity="0.0" clip-path="url(#id_0)" d="M434.4603 154.89326C434.4603 156.55011 433.11713 157.89326 431.4603 157.89326C429.80344 157.89326 428.4603 156.55011 428.4603 154.89326C428.4603 153.2364 429.80344 151.89326 431.4603 151.89326C433.11713 151.89326 434.4603 153.2364 434.4603 154.89326Z" fill-rule="nonzero"/><path fill="#000000" fill-opacity="0.0" clip-path="url(#id_0)" d="M440.00647 154.89326C440.00647 156.55011 438.66333 157.89326 437.00647 157.89326C435.3496 157.89326 434.00647 156.55011 434.00647 154.89326C434.00647 153.2364 435.3496 151.89326 437.00647 151.89326C438.66333 151.89326 440.00647 153.2364 440.00647 154.89326Z" fill-rule="nonzero"/><path fill="#000000" fill-opacity="0.0" clip-path="url(#id_0)" d="M445.55707 154.89326C445.55707 156.55011 444.2139 157.89326 442.55707 157.89326C440.9002 157.89326 439.55707 156.55011 439.55707 154.89326C439.55707 153.2364 440.9002 151.89326 442.55707 151.89326C444.2139 151.89326 445.55707 153.2364 445.55707 154.89326Z" fill-rule="nonzero"/><path fill="#000000" fill-opacity="0.0" clip-path="url(#id_0)" d="M451.1103 154.89326C451.1103 156.55011 449.76715 157.89326 448.1103 157.89326C446.45343 157.89326 445.1103 156.55011 445.1103 154.89326C445.1103 153.2364 446.45343 151.89326 448.1103 151.89326C449.76715 151.89326 451.1103 153.2364 451.1103 154.89326Z" fill-rule="nonzero"/><path fill="#000000" fill-opacity="0.0" clip-path="url(#id_0)" d="M456.66797 154.89326C456.66797 156.55011 455.32483 157.89326 453.66797 157.89326C452.0111 157.89326 450.66797 156.55011 450.66797 154.89326C450.66797 153.2364 452.0111 151.89326 453.66797 151.89326C455.32483 151.89326 456.66797 153.2364 456.66797 154.89326Z" fill-rule="nonzero"/><path fill="#000000" fill-opacity="0.0" clip-path="url(#id_0)" d="M462.22827 154.89326C462.22827 156.55011 460.88513 157.89326 459.22827 157.89326C457.5714 157.89326 456.22827 156.55011 456.22827 154.89326C456.22827 153.2364 457.5714 151.89326 459.22827 151.89326C460.88513 151.89326 462.22827 153.2364 462.22827 154.89326Z" fill-rule="nonzero"/><path fill="#000000" fill-opacity="0.0" clip-path="url(#id_0)" d="M467.7921 154.89326C467.7921 156.55011 466.44897 157.89326 464.7921 157.89326C463.13525 157.89326 461.7921 156.55011 461.7921 154.89326C461.7921 153.2364 463.13525 151.89326 464.7921 151.89326C466.44897 151.89326 467.7921 153.2364 467.7921 154.89326Z" fill-rule="nonzero"/><path fill="#000000" fill-opacity="0.0" clip-path="url(#id_0)" d="M473.3595 154.89326C473.3595 156.55011 472.01636 157.89326 470.3595 157.89326C468.70264 157.89326 467.3595 156.55011 467.3595 154.89326C467.3595 153.2364 468.70264 151.89326 470.3595 151.89326C472.01636 151.89326 473.3595 153.2364 473.3595 154.89326Z" fill-rule="nonzero"/><path fill="#000000" fill-opacity="0.0" clip-path="url(#id_0)" d="M478.9313 154.89326C478.9313 156.55011 477.58817 157.89326 475.9313 157.89326C474.27444 157.89326 472.9313 156.55011 472.9313 154.89326C472.9313 153.2364 474.27444 151.89326 475.9313 151.89326C477.58817 151.89326 478.9313 153.2364 478.9313 154.89326Z" fill-rule="nonzero"/><path fill="#000000" fill-opacity="0.0" clip-path="url(#id_0)" d="M484.50574 154.89326C484.50574 156.55011 483.1626 157.89326 481.50574 157.89326C479.8489 157.89326 478.50574 156.55011 478.50574 154.89326C478.50574 153.2364 479.8489 151.89326 481.50574 151.89326C483.1626 151.89326 484.50574 153.2364 484.50574 154.89326Z" fill-rule="nonzero"/><path fill="#000000" fill-opacity="0.0" clip-path="url(#id_0)" d="M490.08374 154.89326C490.08374 156.55011 488.7406 157.89326 487.08374 157.89326C485.42688 157.89326 484.08374 156.55011 484.08374 154.89326C484.08374 153.2364 485.42688 151.89326 487.08374 151.89326C488.7406 151.89326 490.08374 153.2364 490.08374 154.89326Z" fill-rule="nonzero"/><path fill="#000000" fill-opacity="0.0" clip-path="url(#id_0)" d="M495.66525 154.89326C495.66525 156.55011 494.3221 157.89326 492.66525 157.89326C491.0084 157.89326 489.66525 156.55011 489.66525 154.89326C489.66525 153.2364 491.0084 151.89326 492.66525 151.89326C494.3221 151.89326 495.66525 153.2364 495.66525 154.89326Z" fill-rule="nonzero"/><path fill="#000000" fill-opacity="0.0" clip-path="url(#id_0)" d="M501.2503 154.89326C501.2503 156.55011 499.90717 157.89326 498.2503 157.89326C496.59344 157.89326 495.2503 156.55011 495.2503 154.89326C495.2503 153.2364 496.59344 151.89326 498.2503 151.89326C499.90717 151.89326 501.2503 153.2364 501.2503 154.89326Z" fill-rule="nonzero"/><path fill="#000000" fill-opacity="0.0" clip-path="url(#id_0)" d="M506.8389 154.89326C506.8389 156.55011 505.49576 157.89326 503.8389 157.89326C502.18204 157.89326 500.8389 156.55011 500.8389 154.89326C500.8389 153.2364 502.18204 151.89326 503.8389 151.89326C505.49576 151.89326 506.8389 153.2364 506.8389 154.89326Z" fill-rule="nonzero"/><path fill="#000000" fill-opacity="0.0" clip-path="url(#id_0)" d="M512.4319 154.89326C512.4319 156.55011 511.08875 157.89326 509.4319 157.89326C507.77505 157.89326 506.4319 156.55011 506.4319 154.89326C506.4319 153.2364 507.77505 151.89326 509.4319 151.89326C511.08875 151.89326 512.4319 153.2364 512.4319 154.89326Z" fill-rule="nonzero"/><path fill="#000000" fill-opacity="0.0" clip-path="url(#id_0)" d="M518.0275 154.89326C518.0275 156.55011 516.6844 157.89326 515.0275 157.89326C513.37067 157.89326 512.0275 156.55011 512.0275 154.89326C512.0275 153.2364 513.37067 151.89326 515.0275 151.89326C516.6844 151.89326 518.0275 153.2364 518.0275 154.89326Z" fill-rule="nonzero"/><path fill="#000000" fill-opacity="0.0" clip-path="url(#id_0)" d="M523.6267 154.89326C523.6267 156.55011 522.28357 157.89326 520.6267 157.89326C518.9699 157.89326 517.6267 156.55011 517.6267 154.89326C517.6267 153.2364 518.9699 151.89326 520.6267 151.89326C522.28357 151.89326 523.6267 153.2364 523.6267 154.89326Z" fill-rule="nonzero"/><path fill="#000000" fill-opacity="0.0" clip-path="url(#id_0)" d="M529.2295 154.89326C529.2295 156.55011 527.8863 157.89326 526.2295 157.89326C524.57263 157.89326 523.2295 156.55011 523.2295 154.89326C523.2295 153.2364 524.57263 151.89326 526.2295 151.89326C527.8863 151.89326 529.2295 153.2364 529.2295 154.89326Z" fill-rule="nonzero"/><path fill="#000000" fill-opacity="0.0" clip-path="url(#id_0)" d="M534.8357 154.89326C534.8357 156.55011 533.49255 157.89326 531.8357 157.89326C530.1789 157.89326 528.8357 156.55011 528.8357 154.89326C528.8357 153.2364 530.1789 151.89326 531.8357 151.89326C533.49255 151.89326 534.8357 153.2364 534.8357 154.89326Z" fill-rule="nonzero"/><path fill="#000000" fill-opacity="0.0" clip-path="url(#id_0)" d="M540.4464 154.89326C540.4464 156.55011 539.1033 157.89326 537.4464 157.89326C535.78955 157.89326 534.4464 156.55011 534.4464 154.89326C534.4464 153.2364 535.78955 151.89326 537.4464 151.89326C539.1033 151.89326 540.4464 153.2364 540.4464 154.89326Z" fill-rule="nonzero"/><path fill="#000000" fill-opacity="0.0" clip-path="url(#id_0)" d="M546.05975 154.89326C546.05975 156.55011 544.71655 157.89326 543.05975 157.89326C541.4029 157.89326 540.05975 156.55011 540.05975 154.89326C540.05975 153.2364 541.4029 151.89326 543.05975 151.89326C544.71655 151.89326 546.05975 153.2364 546.05975 154.89326Z" fill-rule="nonzero"/><path fill="#000000" fill-opacity="0.0" clip-path="url(#id_0)" d="M551.6766 154.89326C551.6766 156.55011 550.33344 157.89326 548.6766 157.89326C547.0197 157.89326 545.6766 156.55011 545.6766 154.89326C545.6766 153.2364 547.0197 151.89326 548.6766 151.89326C550.33344 151.89326 551.6766 153.2364 551.6766 154.89326Z" fill-rule="nonzero"/><path fill="#000000" fill-opacity="0.0" clip-path="url(#id_0)" d="M557.29785 154.89326C557.29785 156.55011 555.9547 157.89326 554.29785 157.89326C552.641 157.89326 551.29785 156.55011 551.29785 154.89326C551.29785 153.2364 552.641 151.89326 554.29785 151.89326C555.9547 151.89326 557.29785 153.2364 557.29785 154.89326Z" fill-rule="nonzero"/><path fill="#000000" fill-opacity="0.0" clip-path="url(#id_0)" d="M562.9218 154.89326C562.9218 156.55011 561.5787 157.89326 559.9218 157.89326C558.26495 157.89326 556.9218 156.55011 556.9218 154.89326C556.9218 153.2364 558.26495 151.89326 559.9218 151.89326C561.5787 151.89326 562.9218 153.2364 562.9218 154.89326Z" fill-rule="nonzero"/><path fill="#000000" fill-opacity="0.0" clip-path="url(#id_0)" d="M568.54926 154.89326C568.54926 156.55011 567.2061 157.89326 565.54926 157.89326C563.8924 157.89326 562.54926 156.55011 562.54926 154.89326C562.54926 153.2364 563.8924 151.89326 565.54926 151.89326C567.2061 151.89326 568.54926 153.2364 568.54926 154.89326Z" fill-rule="nonzero"/><path fill="#000000" fill-opacity="0.0" clip-path="url(#id_0)" d="M574.18115 154.89326C574.18115 156.55011 572.838 157.89326 571.18115 157.89326C569.5243 157.89326 568.18115 156.55011 568.18115 154.89326C568.18115 153.2364 569.5243 151.89326 571.18115 151.89326C572.838 151.89326 574.18115 153.2364 574.18115 154.89326Z" fill-rule="nonzero"/><path fill="#000000" fill-opacity="0.0" clip-path="url(#id_0)" d="M579.8165 154.89326C579.8165 156.55011 578.4734 157.89326 576.8165 157.89326C575.1597 157.89326 573.8165 156.55011 573.8165 154.89326C573.8165 153.2364 575.1597 151.89326 576.8165 151.89326C578.4734 151.89326 579.8165 153.2364 579.8165 154.89326Z" fill-rule="nonzero"/><path fill="#000000" fill-opacity="0.0" clip-path="url(#id_0)" d="M584.45 154.89326C584.45 156.55011 583.1069 157.89326 581.45 157.89326C579.79315 157.89326 578.45 156.55011 578.45 154.89326C578.45 153.2364 579.79315 151.89326 581.45 151.89326C583.1069 151.89326 584.45 153.2364 584.45 154.89326Z" fill-rule="nonzero"/><path fill="#000000" d="M306.875 349.45L306.875 348.52814Q306.14062 349.59064 304.89062 349.59064Q304.34375 349.59064 303.85938 349.3875Q303.39062 349.16876 303.15625 348.85626Q302.92188 348.52814 302.82812 348.0594Q302.76562 347.7625 302.76562 347.075L302.76562 343.23126L303.82812 343.23126L303.82812 346.6844Q303.82812 347.4969 303.89062 347.79376Q303.98438 348.2 304.29688 348.45Q304.625 348.6844 305.10938 348.6844Q305.57812 348.6844 305.98438 348.45Q306.40625 348.2 306.57812 347.77814Q306.76562 347.35626 306.76562 346.5594L306.76562 343.23126L307.8125 343.23126L307.8125 349.45L306.875 349.45ZM311.8125 351.98126Q310.9375 350.8719 310.32812 349.40314Q309.73438 347.91876 309.73438 346.34064Q309.73438 344.95 310.17188 343.66876Q310.70312 342.1844 311.8125 340.71564L312.5625 340.71564Q311.85938 341.9344 311.625 342.45Q311.26562 343.2625 311.0625 344.1375Q310.8125 345.23126 310.8125 346.34064Q310.8125 349.16876 312.5625 351.98126L311.8125 351.98126ZM317.46875 349.45L316.42188 349.45L316.42188 342.73126Q316.03125 343.09064 315.40625 343.46564Q314.79688 343.825 314.3125 343.9969L314.3125 342.98126Q315.1875 342.5594 315.84375 341.98126Q316.51562 341.3875 316.79688 340.825L317.46875 340.825L317.46875 349.45ZM321.48438 351.98126L320.73438 351.98126Q322.48438 349.16876 322.48438 346.34064Q322.48438 345.2469 322.23438 344.15314Q322.03125 343.27814 321.67188 342.46564Q321.4375 341.95 320.73438 340.71564L321.48438 340.71564Q322.57812 342.1844 323.10938 343.66876Q323.5625 344.95 323.5625 346.34064Q323.5625 347.91876 322.95312 349.40314Q322.34375 350.8719 321.48438 351.98126ZM327.8125 351.84064L327.8125 340.85626L330.14062 340.85626L330.14062 341.73126L328.875 341.73126L328.875 350.96564L330.14062 350.96564L330.14062 351.84064L327.8125 351.84064ZM330.79688 342.075L330.79688 340.85626L331.85938 340.85626L331.85938 342.075L330.79688 342.075ZM330.79688 349.45L330.79688 343.23126L331.85938 343.23126L331.85938 349.45L330.79688 349.45ZM333.79688 349.45L333.79688 343.23126L334.73438 343.23126L334.73438 344.10626Q335.42188 343.09064 336.71875 343.09064Q337.28125 343.09064 337.75 343.29376Q338.23438 343.4969 338.46875 343.825Q338.70312 344.15314 338.79688 344.59064Q338.84375 344.8875 338.84375 345.6219L338.84375 349.45L337.79688 349.45L337.79688 345.66876Q337.79688 345.0125 337.67188 344.7Q337.54688 344.3875 337.23438 344.2Q336.92188 343.9969 336.5 343.9969Q335.82812 343.9969 335.32812 344.4344Q334.84375 344.85626 334.84375 346.04376L334.84375 349.45L333.79688 349.45ZM343.79688 349.45L343.79688 343.23126L344.73438 343.23126L344.73438 344.10626Q345.03125 343.6375 345.51562 343.3719Q346.0 343.09064 346.625 343.09064Q347.3125 343.09064 347.75 343.3719Q348.20312 343.65314 348.375 344.16876Q349.125 343.09064 350.29688 343.09064Q351.23438 343.09064 351.71875 343.60626Q352.21875 344.10626 352.21875 345.1844L352.21875 349.45L351.17188 349.45L351.17188 345.52814Q351.17188 344.90314 351.0625 344.6219Q350.96875 344.34064 350.70312 344.16876Q350.4375 343.9969 350.0625 343.9969Q349.40625 343.9969 348.96875 344.4344Q348.54688 344.8719 348.54688 345.84064L348.54688 349.45L347.48438 349.45L347.48438 345.40314Q347.48438 344.7 347.21875 344.35626Q346.96875 343.9969 346.39062 343.9969Q345.9375 343.9969 345.5625 344.23126Q345.1875 344.46564 345.01562 344.91876Q344.84375 345.3719 344.84375 346.21564L344.84375 349.45L343.79688 349.45ZM354.79688 349.45L354.79688 343.23126L355.73438 343.23126L355.73438 344.10626Q356.03125 343.6375 356.51562 343.3719Q357.0 343.09064 357.625 343.09064Q358.3125 343.09064 358.75 343.3719Q359.20312 343.65314 359.375 344.16876Q360.125 343.09064 361.29688 343.09064Q362.23438 343.09064 362.71875 343.60626Q363.21875 344.10626 363.21875 345.1844L363.21875 349.45L362.17188 349.45L362.17188 345.52814Q362.17188 344.90314 362.0625 344.6219Q361.96875 344.34064 361.70312 344.16876Q361.4375 343.9969 361.0625 343.9969Q360.40625 343.9969 359.96875 344.4344Q359.54688 344.8719 359.54688 345.84064L359.54688 349.45L358.48438 349.45L358.48438 345.40314Q358.48438 344.7 358.21875 344.35626Q357.96875 343.9969 357.39062 343.9969Q356.9375 343.9969 356.5625 344.23126Q356.1875 344.46564 356.01562 344.91876Q355.84375 345.3719 355.84375 346.21564L355.84375 349.45L354.79688 349.45ZM367.5625 351.84064L365.23438 351.84064L365.23438 350.96564L366.5 350.96564L366.5 341.73126L365.23438 341.73126L365.23438 340.85626L367.5625 340.85626L367.5625 351.84064Z" fill-rule="nonzero"/><path fill="#000000" d="M27.690638 226.30833L27.534388 225.27708Q28.159388 225.18333 28.487513 224.79271Q28.815638 224.38646 28.815638 223.65208Q28.815638 222.93333 28.534388 222.58958Q28.237513 222.23021 27.831263 222.23021Q27.471888 222.23021 27.268763 222.54271Q27.128138 222.76146 26.909388 223.62083Q26.612513 224.77708 26.409388 225.23021Q26.190638 225.66771 25.815638 225.90208Q25.440638 226.13646 24.971888 226.13646Q24.565638 226.13646 24.206263 225.94896Q23.846888 225.76146 23.612513 225.43333Q23.440638 225.18333 23.315638 224.76146Q23.190638 224.33958 23.190638 223.83958Q23.190638 223.12083 23.409388 222.57396Q23.612513 222.01146 23.971888 221.74583Q24.331263 221.48021 24.925013 221.38646L25.065638 222.41771Q24.596888 222.48021 24.331263 222.82396Q24.050013 223.15208 24.050013 223.77708Q24.050013 224.49583 24.300013 224.80833Q24.534388 225.12083 24.862513 225.12083Q25.065638 225.12083 25.221888 224.99583Q25.393763 224.85521 25.503138 224.58958Q25.565638 224.43333 25.768763 223.65208Q26.081263 222.52708 26.268763 222.08958Q26.456263 221.65208 26.815638 221.40208Q27.175013 221.15208 27.721888 221.15208Q28.253138 221.15208 28.721888 221.46458Q29.175013 221.76146 29.440638 222.33958Q29.690638 222.91771 29.690638 223.65208Q29.690638 224.87083 29.190638 225.51146Q28.675013 226.13646 27.690638 226.30833ZM22.175013 218.88646L20.956263 218.88646L20.956263 217.82396L22.175013 217.82396L22.175013 218.88646ZM29.550013 218.88646L23.331263 218.88646L23.331263 217.82396L29.550013 217.82396L29.550013 218.88646ZM30.065638 216.08958L30.221888 215.05833Q30.690638 214.99583 30.909388 214.69896Q31.206263 214.30833 31.206263 213.63646Q31.206263 212.90208 30.909388 212.51146Q30.612513 212.10521 30.096888 211.96458Q29.768763 211.87083 28.737513 211.88646Q29.550013 212.57396 29.550013 213.60521Q29.550013 214.88646 28.628138 215.58958Q27.690638 216.29271 26.409388 216.29271Q25.518763 216.29271 24.768763 215.98021Q24.003138 215.65208 23.596888 215.04271Q23.190638 214.43333 23.190638 213.60521Q23.190638 212.49583 24.081263 211.77708L23.331263 211.77708L23.331263 210.80833L28.706263 210.80833Q30.159388 210.80833 30.768763 211.10521Q31.378138 211.40208 31.721888 212.04271Q32.08126 212.68333 32.08126 213.62083Q32.08126 214.73021 31.581263 215.41771Q31.081263 216.10521 30.065638 216.08958ZM26.331263 215.21458Q27.550013 215.21458 28.112513 214.73021Q28.675013 214.24583 28.675013 213.51146Q28.675013 212.77708 28.112513 212.29271Q27.550013 211.79271 26.362513 211.79271Q25.221888 211.79271 24.643763 212.30833Q24.065638 212.80833 24.065638 213.52708Q24.065638 214.23021 24.643763 214.73021Q25.206263 215.21458 26.331263 215.21458ZM26.534388 202.62083L26.831263 201.49583Q28.221888 201.85521 28.956263 202.77708Q29.690638 203.69896 29.690638 205.04271Q29.690638 206.43333 29.128138 207.30833Q28.565638 208.18333 27.503138 208.63646Q26.425013 209.08958 25.190638 209.08958Q23.846888 209.08958 22.846888 208.57396Q21.846888 208.05833 21.331263 207.12083Q20.815638 206.16771 20.815638 205.02708Q20.815638 203.74583 21.471888 202.87083Q22.128138 201.98021 23.315638 201.63646L23.581263 202.76146Q22.643763 203.05833 22.221888 203.63646Q21.784388 204.19896 21.784388 205.05833Q21.784388 206.04271 22.268763 206.71458Q22.737513 207.37083 23.534388 207.65208Q24.331263 207.91771 25.190638 207.91771Q26.284388 207.91771 27.096888 207.60521Q27.909388 207.27708 28.315638 206.60521Q28.721888 205.93333 28.721888 205.13646Q28.721888 204.18333 28.175013 203.52708Q27.628138 202.85521 26.534388 202.62083ZM29.550013 199.90208L23.331263 199.90208L23.331263 198.94896L24.268763 198.94896Q23.612513 198.58958 23.409388 198.29271Q23.190638 197.98021 23.190638 197.60521Q23.190638 197.07396 23.518763 196.52708L24.503138 196.88646Q24.268763 197.27708 24.268763 197.65208Q24.268763 198.01146 24.487513 198.29271Q24.690638 198.55833 25.065638 198.66771Q25.628138 198.85521 26.284388 198.85521L29.550013 198.85521L29.550013 199.90208ZM32.08126 193.87083Q30.971888 194.74583 29.503138 195.35521Q28.018763 195.94896 26.440638 195.94896Q25.050013 195.94896 23.768763 195.51146Q22.284388 194.98021 20.815638 193.87083L20.815638 193.12083Q22.034388 193.82396 22.550013 194.05833Q23.362513 194.41771 24.237513 194.62083Q25.331263 194.87083 26.440638 194.87083Q29.268763 194.87083 32.08126 193.12083L32.08126 193.87083ZM29.550013 188.21458L29.550013 189.26146L22.831263 189.26146Q23.190638 189.65208 23.565638 190.27708Q23.925013 190.88646 24.096888 191.37083L23.081263 191.37083Q22.659388 190.49583 22.081263 189.83958Q21.487513 189.16771 20.925013 188.88646L20.925013 188.21458L29.550013 188.21458ZM32.08126 184.19896L32.08126 184.94896Q29.268763 183.19896 26.440638 183.19896Q25.346888 183.19896 24.253138 183.44896Q23.378138 183.65208 22.565638 184.01146Q22.050013 184.24583 20.815638 184.94896L20.815638 184.19896Q22.284388 183.10521 23.768763 182.57396Q25.050013 182.12083 26.440638 182.12083Q28.018763 182.12083 29.503138 182.73021Q30.971888 183.33958 32.08126 184.19896ZM31.940638 177.87083L20.956263 177.87083L20.956263 175.54271L21.831263 175.54271L21.831263 176.80833L31.065638 176.80833L31.065638 175.54271L31.940638 175.54271L31.940638 177.87083ZM29.550013 174.79271L20.956263 174.79271L20.956263 173.07396L27.034388 171.04271Q27.893763 170.76146 28.315638 170.63646Q27.846888 170.49583 26.940638 170.18333L20.956263 168.12083L20.956263 166.58958L29.550013 166.58958L29.550013 167.68333L22.362513 167.68333L29.550013 170.18333L29.550013 171.21458L22.237513 173.69896L29.550013 173.69896L29.550013 174.79271ZM29.550013 165.76146L20.956263 165.76146L20.956263 162.51146Q20.956263 161.66771 21.034388 161.21458Q21.143763 160.57396 21.440638 160.15208Q21.737513 159.71458 22.268763 159.46458Q22.800013 159.19896 23.440638 159.19896Q24.534388 159.19896 25.300013 159.90208Q26.050013 160.58958 26.050013 162.41771L26.050013 164.62083L29.550013 164.62083L29.550013 165.76146ZM25.050013 164.62083L25.050013 162.40208Q25.050013 161.29271 24.643763 160.83958Q24.221888 160.37083 23.471888 160.37083Q22.940638 160.37083 22.565638 160.65208Q22.175013 160.91771 22.050013 161.35521Q21.971888 161.65208 21.971888 162.41771L21.971888 164.62083L25.050013 164.62083ZM28.784388 153.82396Q29.284388 154.41771 29.487513 154.96458Q29.690638 155.49583 29.690638 156.12083Q29.690638 157.15208 29.190638 157.69896Q28.690638 158.24583 27.909388 158.24583Q27.456263 158.24583 27.081263 158.04271Q26.690638 157.83958 26.471888 157.49583Q26.237513 157.15208 26.128138 156.73021Q26.034388 156.43333 25.956263 155.79271Q25.815638 154.52708 25.596888 153.91771Q25.378138 153.91771 25.331263 153.91771Q24.675013 153.91771 24.409388 154.21458Q24.065638 154.62083 24.065638 155.41771Q24.065638 156.15208 24.331263 156.51146Q24.581263 156.87083 25.237513 157.04271L25.096888 158.07396Q24.440638 157.93333 24.034388 157.60521Q23.628138 157.27708 23.409388 156.66771Q23.190638 156.05833 23.190638 155.26146Q23.190638 154.46458 23.378138 153.96458Q23.565638 153.46458 23.846888 153.23021Q24.128138 152.99583 24.565638 152.90208Q24.831263 152.85521 25.534388 152.85521L26.940638 152.85521Q28.409388 152.85521 28.800013 152.79271Q29.190638 152.71458 29.550013 152.51146L29.550013 153.62083Q29.221888 153.77708 28.784388 153.82396ZM26.425013 153.91771Q26.659388 154.49583 26.831263 155.63646Q26.925013 156.29271 27.050013 156.55833Q27.159388 156.82396 27.378138 156.98021Q27.596888 157.12083 27.878138 157.12083Q28.300013 157.12083 28.581263 156.80833Q28.862513 156.48021 28.862513 155.87083Q28.862513 155.26146 28.596888 154.79271Q28.331263 154.30833 27.862513 154.08958Q27.503138 153.91771 26.815638 153.91771L26.425013 153.91771ZM31.940638 149.12083L31.940638 151.44896L31.065638 151.44896L31.065638 150.18333L21.831263 150.18333L21.831263 151.44896L20.956263 151.44896L20.956263 149.12083L31.940638 149.12083Z" fill-rule="nonzero"/><path fill="#000000" d="M50.925 301.8719L50.925 300.8094L54.175 300.8094L54.175 301.8719L50.925 301.8719ZM60.596874 303.4344L60.596874 304.45L54.909374 304.45Q54.909374 304.075 55.034374 303.71564Q55.253124 303.1375 55.721874 302.575Q56.20625 302.0125 57.1125 301.27814Q58.51875 300.1219 59.003124 299.45Q59.503124 298.77814 59.503124 298.1844Q59.503124 297.5594 59.05 297.1375Q58.596874 296.7 57.878124 296.7Q57.1125 296.7 56.659374 297.15314Q56.20625 297.60626 56.190624 298.41876L55.1125 298.3094Q55.221874 297.09064 55.940624 296.46564Q56.675 295.825 57.909374 295.825Q59.14375 295.825 59.8625 296.5125Q60.58125 297.2 60.58125 298.21564Q60.58125 298.73126 60.3625 299.23126Q60.159374 299.71564 59.659374 300.27814Q59.175 300.825 58.05 301.77814Q57.096874 302.575 56.815624 302.8719Q56.55 303.15314 56.378124 303.4344L60.596874 303.4344ZM62.05 300.21564Q62.05 298.6844 62.3625 297.7625Q62.675 296.825 63.284374 296.325Q63.909374 295.825 64.84688 295.825Q65.53438 295.825 66.05 296.10626Q66.58125 296.3875 66.925 296.91876Q67.26875 297.4344 67.45625 298.1844Q67.64375 298.9344 67.64375 300.21564Q67.64375 301.73126 67.33125 302.65314Q67.03438 303.575 66.40938 304.09064Q65.8 304.59064 64.84688 304.59064Q63.6125 304.59064 62.89375 303.7Q62.05 302.6375 62.05 300.21564ZM63.128124 300.21564Q63.128124 302.325 63.628124 303.02814Q64.12813 303.73126 64.84688 303.73126Q65.58125 303.73126 66.06563 303.02814Q66.56563 302.325 66.56563 300.21564Q66.56563 298.09064 66.06563 297.40314Q65.58125 296.7 64.83125 296.7Q64.1125 296.7 63.675 297.3094Q63.128124 298.09064 63.128124 300.21564ZM69.05 300.21564Q69.05 298.6844 69.3625 297.7625Q69.675 296.825 70.28438 296.325Q70.90938 295.825 71.84688 295.825Q72.53438 295.825 73.05 296.10626Q73.58125 296.3875 73.925 296.91876Q74.26875 297.4344 74.45625 298.1844Q74.64375 298.9344 74.64375 300.21564Q74.64375 301.73126 74.33125 302.65314Q74.03438 303.575 73.40938 304.09064Q72.8 304.59064 71.84688 304.59064Q70.6125 304.59064 69.89375 303.7Q69.05 302.6375 69.05 300.21564ZM70.12813 300.21564Q70.12813 302.325 70.62813 303.02814Q71.12813 303.73126 71.84688 303.73126Q72.58125 303.73126 73.06563 303.02814Q73.56563 302.325 73.56563 300.21564Q73.56563 298.09064 73.06563 297.40314Q72.58125 296.7 71.83125 296.7Q71.1125 296.7 70.675 297.3094Q70.12813 298.09064 70.12813 300.21564ZM76.05 300.21564Q76.05 298.6844 76.3625 297.7625Q76.675 296.825 77.28438 296.325Q77.90938 295.825 78.84688 295.825Q79.53438 295.825 80.05 296.10626Q80.58125 296.3875 80.925 296.91876Q81.26875 297.4344 81.45625 298.1844Q81.64375 298.9344 81.64375 300.21564Q81.64375 301.73126 81.33125 302.65314Q81.03438 303.575 80.40938 304.09064Q79.8 304.59064 78.84688 304.59064Q77.6125 304.59064 76.89375 303.7Q76.05 302.6375 76.05 300.21564ZM77.12813 300.21564Q77.12813 302.325 77.62813 303.02814Q78.12813 303.73126 78.84688 303.73126Q79.58125 303.73126 80.06563 303.02814Q80.56563 302.325 80.56563 300.21564Q80.56563 298.09064 80.06563 297.40314Q79.58125 296.7 78.83125 296.7Q78.1125 296.7 77.675 297.3094Q77.12813 298.09064 77.12813 300.21564Z" fill-rule="nonzero"/><path fill="#000000" d="M50.925 242.23854L50.925 241.17604L54.175 241.17604L54.175 242.23854L50.925 242.23854ZM59.01875 244.81667L57.971874 244.81667L57.971874 238.09792Q57.58125 238.45729 56.95625 238.83229Q56.346874 239.19167 55.8625 239.36354L55.8625 238.34792Q56.7375 237.92604 57.39375 237.34792Q58.065624 236.75417 58.346874 236.19167L59.01875 236.19167L59.01875 244.81667ZM62.05 242.56667L63.159374 242.47292Q63.284374 243.28542 63.721874 243.69167Q64.175 244.09792 64.81563 244.09792Q65.56563 244.09792 66.09688 243.51979Q66.62813 242.94167 66.62813 242.00417Q66.62813 241.09792 66.1125 240.58229Q65.6125 240.05104 64.78438 240.05104Q64.28438 240.05104 63.8625 240.28542Q63.45625 240.51979 63.221874 240.87917L62.2375 240.75417L63.065624 236.34792L67.34688 236.34792L67.34688 237.34792L63.909374 237.34792L63.45625 239.66042Q64.22188 239.11354 65.06563 239.11354Q66.19063 239.11354 66.95625 239.89479Q67.7375 240.67604 67.7375 241.91042Q67.7375 243.06667 67.06563 243.92604Q66.2375 244.95729 64.81563 244.95729Q63.64375 244.95729 62.89375 244.30104Q62.159374 243.64479 62.05 242.56667ZM69.05 240.58229Q69.05 239.05104 69.3625 238.12917Q69.675 237.19167 70.28438 236.69167Q70.90938 236.19167 71.84688 236.19167Q72.53438 236.19167 73.05 236.47292Q73.58125 236.75417 73.925 237.28542Q74.26875 237.80104 74.45625 238.55104Q74.64375 239.30104 74.64375 240.58229Q74.64375 242.09792 74.33125 243.01979Q74.03438 243.94167 73.40938 244.45729Q72.8 244.95729 71.84688 244.95729Q70.6125 244.95729 69.89375 244.06667Q69.05 243.00417 69.05 240.58229ZM70.12813 240.58229Q70.12813 242.69167 70.62813 243.39479Q71.12813 244.09792 71.84688 244.09792Q72.58125 244.09792 73.06563 243.39479Q73.56563 242.69167 73.56563 240.58229Q73.56563 238.45729 73.06563 237.76979Q72.58125 237.06667 71.83125 237.06667Q71.1125 237.06667 70.675 237.67604Q70.12813 238.45729 70.12813 240.58229ZM76.05 240.58229Q76.05 239.05104 76.3625 238.12917Q76.675 237.19167 77.28438 236.69167Q77.90938 236.19167 78.84688 236.19167Q79.53438 236.19167 80.05 236.47292Q80.58125 236.75417 80.925 237.28542Q81.26875 237.80104 81.45625 238.55104Q81.64375 239.30104 81.64375 240.58229Q81.64375 242.09792 81.33125 243.01979Q81.03438 243.94167 80.40938 244.45729Q79.8 244.95729 78.84688 244.95729Q77.6125 244.95729 76.89375 244.06667Q76.05 243.00417 76.05 240.58229ZM77.12813 240.58229Q77.12813 242.69167 77.62813 243.39479Q78.12813 244.09792 78.84688 244.09792Q79.58125 244.09792 80.06563 243.39479Q80.56563 242.69167 80.56563 240.58229Q80.56563 238.45729 80.06563 237.76979Q79.58125 237.06667 78.83125 237.06667Q78.1125 237.06667 77.675 237.67604Q77.12813 238.45729 77.12813 240.58229Z" fill-rule="nonzero"/><path fill="#000000" d="M50.925 182.60521L50.925 181.54271L54.175 181.54271L54.175 182.60521L50.925 182.60521ZM59.01875 185.18333L57.971874 185.18333L57.971874 178.46458Q57.58125 178.82396 56.95625 179.19896Q56.346874 179.55833 55.8625 179.73021L55.8625 178.71458Q56.7375 178.29271 57.39375 177.71458Q58.065624 177.12083 58.346874 176.55833L59.01875 176.55833L59.01875 185.18333ZM62.05 180.94896Q62.05 179.41771 62.3625 178.49583Q62.675 177.55833 63.284374 177.05833Q63.909374 176.55833 64.84688 176.55833Q65.53438 176.55833 66.05 176.83958Q66.58125 177.12083 66.925 177.65208Q67.26875 178.16771 67.45625 178.91771Q67.64375 179.66771 67.64375 180.94896Q67.64375 182.46458 67.33125 183.38646Q67.03438 184.30833 66.40938 184.82396Q65.8 185.32396 64.84688 185.32396Q63.6125 185.32396 62.89375 184.43333Q62.05 183.37083 62.05 180.94896ZM63.128124 180.94896Q63.128124 183.05833 63.628124 183.76146Q64.12813 184.46458 64.84688 184.46458Q65.58125 184.46458 66.06563 183.76146Q66.56563 183.05833 66.56563 180.94896Q66.56563 178.82396 66.06563 178.13646Q65.58125 177.43333 64.83125 177.43333Q64.1125 177.43333 63.675 178.04271Q63.128124 178.82396 63.128124 180.94896ZM69.05 180.94896Q69.05 179.41771 69.3625 178.49583Q69.675 177.55833 70.28438 177.05833Q70.90938 176.55833 71.84688 176.55833Q72.53438 176.55833 73.05 176.83958Q73.58125 177.12083 73.925 177.65208Q74.26875 178.16771 74.45625 178.91771Q74.64375 179.66771 74.64375 180.94896Q74.64375 182.46458 74.33125 183.38646Q74.03438 184.30833 73.40938 184.82396Q72.8 185.32396 71.84688 185.32396Q70.6125 185.32396 69.89375 184.43333Q69.05 183.37083 69.05 180.94896ZM70.12813 180.94896Q70.12813 183.05833 70.62813 183.76146Q71.12813 184.46458 71.84688 184.46458Q72.58125 184.46458 73.06563 183.76146Q73.56563 183.05833 73.56563 180.94896Q73.56563 178.82396 73.06563 178.13646Q72.58125 177.43333 71.83125 177.43333Q71.1125 177.43333 70.675 178.04271Q70.12813 178.82396 70.12813 180.94896ZM76.05 180.94896Q76.05 179.41771 76.3625 178.49583Q76.675 177.55833 77.28438 177.05833Q77.90938 176.55833 78.84688 176.55833Q79.53438 176.55833 80.05 176.83958Q80.58125 177.12083 80.925 177.65208Q81.26875 178.16771 81.45625 178.91771Q81.64375 179.66771 81.64375 180.94896Q81.64375 182.46458 81.33125 183.38646Q81.03438 184.30833 80.40938 184.82396Q79.8 185.32396 78.84688 185.32396Q77.6125 185.32396 76.89375 184.43333Q76.05 183.37083 76.05 180.94896ZM77.12813 180.94896Q77.12813 183.05833 77.62813 183.76146Q78.12813 184.46458 78.84688 184.46458Q79.58125 184.46458 80.06563 183.76146Q80.56563 183.05833 80.56563 180.94896Q80.56563 178.82396 80.06563 178.13646Q79.58125 177.43333 78.83125 177.43333Q78.1125 177.43333 77.675 178.04271Q77.12813 178.82396 77.12813 180.94896Z" fill-rule="nonzero"/><path fill="#000000" d="M57.925 122.97188L57.925 121.90938L61.175 121.90938L61.175 122.97188L57.925 122.97188ZM62.05 123.3L63.159374 123.20625Q63.284374 124.01875 63.721874 124.425Q64.175 124.83125 64.81563 124.83125Q65.56563 124.83125 66.09688 124.25313Q66.62813 123.675 66.62813 122.7375Q66.62813 121.83125 66.1125 121.31563Q65.6125 120.78438 64.78438 120.78438Q64.28438 120.78438 63.8625 121.01875Q63.45625 121.25313 63.221874 121.6125L62.2375 121.4875L63.065624 117.08125L67.34688 117.08125L67.34688 118.08125L63.909374 118.08125L63.45625 120.39375Q64.22188 119.84688 65.06563 119.84688Q66.19063 119.84688 66.95625 120.62813Q67.7375 121.40938 67.7375 122.64375Q67.7375 123.8 67.06563 124.65938Q66.2375 125.69063 64.81563 125.69063Q63.64375 125.69063 62.89375 125.03438Q62.159374 124.37813 62.05 123.3ZM69.05 121.31563Q69.05 119.78438 69.3625 118.8625Q69.675 117.925 70.28438 117.425Q70.90938 116.925 71.84688 116.925Q72.53438 116.925 73.05 117.20625Q73.58125 117.4875 73.925 118.01875Q74.26875 118.53438 74.45625 119.28438Q74.64375 120.03438 74.64375 121.31563Q74.64375 122.83125 74.33125 123.75313Q74.03438 124.675 73.40938 125.19063Q72.8 125.69063 71.84688 125.69063Q70.6125 125.69063 69.89375 124.8Q69.05 123.7375 69.05 121.31563ZM70.12813 121.31563Q70.12813 123.425 70.62813 124.12813Q71.12813 124.83125 71.84688 124.83125Q72.58125 124.83125 73.06563 124.12813Q73.56563 123.425 73.56563 121.31563Q73.56563 119.19063 73.06563 118.50313Q72.58125 117.8 71.83125 117.8Q71.1125 117.8 70.675 118.40938Q70.12813 119.19063 70.12813 121.31563ZM76.05 121.31563Q76.05 119.78438 76.3625 118.8625Q76.675 117.925 77.28438 117.425Q77.90938 116.925 78.84688 116.925Q79.53438 116.925 80.05 117.20625Q80.58125 117.4875 80.925 118.01875Q81.26875 118.53438 81.45625 119.28438Q81.64375 120.03438 81.64375 121.31563Q81.64375 122.83125 81.33125 123.75313Q81.03438 124.675 80.40938 125.19063Q79.8 125.69063 78.84688 125.69063Q77.6125 125.69063 76.89375 124.8Q76.05 123.7375 76.05 121.31563ZM77.12813 121.31563Q77.12813 123.425 77.62813 124.12813Q78.12813 124.83125 78.84688 124.83125Q79.58125 124.83125 80.06563 124.12813Q80.56563 123.425 80.56563 121.31563Q80.56563 119.19063 80.06563 118.50313Q79.58125 117.8 78.83125 117.8Q78.1125 117.8 77.675 118.40938Q77.12813 119.19063 77.12813 121.31563Z" fill-rule="nonzero"/><path fill="#000000" d="M76.05 61.68229Q76.05 60.15104 76.3625 59.229164Q76.675 58.291664 77.28438 57.791664Q77.90938 57.291664 78.84688 57.291664Q79.53438 57.291664 80.05 57.572914Q80.58125 57.854164 80.925 58.385414Q81.26875 58.90104 81.45625 59.65104Q81.64375 60.40104 81.64375 61.68229Q81.64375 63.197914 81.33125 64.11979Q81.03438 65.041664 80.40938 65.55729Q79.8 66.05729 78.84688 66.05729Q77.6125 66.05729 76.89375 65.166664Q76.05 64.104164 76.05 61.68229ZM77.12813 61.68229Q77.12813 63.791664 77.62813 64.49479Q78.12813 65.197914 78.84688 65.197914Q79.58125 65.197914 80.06563 64.49479Q80.56563 63.791664 80.56563 61.68229Q80.56563 59.55729 80.06563 58.86979Q79.58125 58.166664 78.83125 58.166664Q78.1125 58.166664 77.675 58.77604Q77.12813 59.55729 77.12813 61.68229Z" fill-rule="nonzero"/><path fill="#000000" d="M156.37576 317.45L155.32889 317.45L155.32889 310.73126Q154.93826 311.09064 154.31326 311.46564Q153.70389 311.825 153.21951 311.9969L153.21951 310.98126Q154.09451 310.5594 154.75076 309.98126Q155.42264 309.3875 155.70389 308.825L156.37576 308.825L156.37576 317.45ZM160.00076 317.45L160.00076 316.2469L161.20389 316.2469L161.20389 317.45L160.00076 317.45ZM162.40701 313.21564Q162.40701 311.6844 162.71951 310.7625Q163.03201 309.825 163.64139 309.325Q164.26639 308.825 165.20389 308.825Q165.89139 308.825 166.40701 309.10626Q166.93826 309.3875 167.28201 309.91876Q167.62576 310.4344 167.81326 311.1844Q168.00076 311.9344 168.00076 313.21564Q168.00076 314.73126 167.68826 315.65314Q167.39139 316.575 166.76639 317.09064Q166.15701 317.59064 165.20389 317.59064Q163.96951 317.59064 163.25076 316.7Q162.40701 315.6375 162.40701 313.21564ZM163.48514 313.21564Q163.48514 315.325 163.98514 316.02814Q164.48514 316.73126 165.20389 316.73126Q165.93826 316.73126 166.42264 316.02814Q166.92264 315.325 166.92264 313.21564Q166.92264 311.09064 166.42264 310.40314Q165.93826 309.7 165.18826 309.7Q164.46951 309.7 164.03201 310.3094Q163.48514 311.09064 163.48514 313.21564ZM169.40701 313.21564Q169.40701 311.6844 169.71951 310.7625Q170.03201 309.825 170.64139 309.325Q171.26639 308.825 172.20389 308.825Q172.89139 308.825 173.40701 309.10626Q173.93826 309.3875 174.28201 309.91876Q174.62576 310.4344 174.81326 311.1844Q175.00076 311.9344 175.00076 313.21564Q175.00076 314.73126 174.68826 315.65314Q174.39139 316.575 173.76639 317.09064Q173.15701 317.59064 172.20389 317.59064Q170.96951 317.59064 170.25076 316.7Q169.40701 315.6375 169.40701 313.21564ZM170.48514 313.21564Q170.48514 315.325 170.98514 316.02814Q171.48514 316.73126 172.20389 316.73126Q172.93826 316.73126 173.42264 316.02814Q173.92264 315.325 173.92264 313.21564Q173.92264 311.09064 173.42264 310.40314Q172.93826 309.7 172.18826 309.7Q171.46951 309.7 171.03201 310.3094Q170.48514 311.09064 170.48514 313.21564ZM176.86014 317.45L176.86014 308.85626L183.06326 308.85626L183.06326 309.8719L178.00076 309.8719L178.00076 312.4969L182.75076 312.4969L182.75076 313.5125L178.00076 313.5125L178.00076 316.4344L183.26639 316.4344L183.26639 317.45L176.86014 317.45ZM184.28201 314.8719L184.28201 313.8094L187.53201 313.8094L187.53201 314.8719L184.28201 314.8719ZM188.40701 313.21564Q188.40701 311.6844 188.71951 310.7625Q189.03201 309.825 189.64139 309.325Q190.26639 308.825 191.20389 308.825Q191.89139 308.825 192.40701 309.10626Q192.93826 309.3875 193.28201 309.91876Q193.62576 310.4344 193.81326 311.1844Q194.00076 311.9344 194.00076 313.21564Q194.00076 314.73126 193.68826 315.65314Q193.39139 316.575 192.76639 317.09064Q192.15701 317.59064 191.20389 317.59064Q189.96951 317.59064 189.25076 316.7Q188.40701 315.6375 188.40701 313.21564ZM189.48514 313.21564Q189.48514 315.325 189.98514 316.02814Q190.48514 316.73126 191.20389 316.73126Q191.93826 316.73126 192.42264 316.02814Q192.92264 315.325 192.92264 313.21564Q192.92264 311.09064 192.42264 310.40314Q191.93826 309.7 191.18826 309.7Q190.46951 309.7 190.03201 310.3094Q189.48514 311.09064 189.48514 313.21564ZM200.95389 316.4344L200.95389 317.45L195.26639 317.45Q195.26639 317.075 195.39139 316.71564Q195.61014 316.1375 196.07889 315.575Q196.56326 315.0125 197.46951 314.27814Q198.87576 313.1219 199.36014 312.45Q199.86014 311.77814 199.86014 311.1844Q199.86014 310.5594 199.40701 310.1375Q198.95389 309.7 198.23514 309.7Q197.46951 309.7 197.01639 310.15314Q196.56326 310.60626 196.54764 311.41876L195.46951 311.3094Q195.57889 310.09064 196.29764 309.46564Q197.03201 308.825 198.26639 308.825Q199.50076 308.825 200.21951 309.5125Q200.93826 310.2 200.93826 311.21564Q200.93826 311.73126 200.71951 312.23126Q200.51639 312.71564 200.01639 313.27814Q199.53201 313.825 198.40701 314.77814Q197.45389 315.575 197.17264 315.8719Q196.90701 316.15314 196.73514 316.4344L200.95389 316.4344Z" fill-rule="nonzero"/><path fill="#000000" d="M246.31099 316.4344L246.31099 317.45L240.62349 317.45Q240.62349 317.075 240.74849 316.71564Q240.96724 316.1375 241.43599 315.575Q241.92036 315.0125 242.82661 314.27814Q244.23286 313.1219 244.71724 312.45Q245.21724 311.77814 245.21724 311.1844Q245.21724 310.5594 244.76411 310.1375Q244.31099 309.7 243.59224 309.7Q242.82661 309.7 242.37349 310.15314Q241.92036 310.60626 241.90474 311.41876L240.82661 311.3094Q240.93599 310.09064 241.65474 309.46564Q242.38911 308.825 243.62349 308.825Q244.85786 308.825 245.57661 309.5125Q246.29536 310.2 246.29536 311.21564Q246.29536 311.73126 246.07661 312.23126Q245.87349 312.71564 245.37349 313.27814Q244.88911 313.825 243.76411 314.77814Q242.81099 315.575 242.52974 315.8719Q242.26411 316.15314 242.09224 316.4344L246.31099 316.4344ZM248.35786 317.45L248.35786 316.2469L249.56099 316.2469L249.56099 317.45L248.35786 317.45ZM250.76411 313.21564Q250.76411 311.6844 251.07661 310.7625Q251.38911 309.825 251.99849 309.325Q252.62349 308.825 253.56099 308.825Q254.24849 308.825 254.76411 309.10626Q255.29536 309.3875 255.63911 309.91876Q255.98286 310.4344 256.17035 311.1844Q256.35785 311.9344 256.35785 313.21564Q256.35785 314.73126 256.04535 315.65314Q255.74849 316.575 255.12349 317.09064Q254.51411 317.59064 253.56099 317.59064Q252.32661 317.59064 251.60786 316.7Q250.76411 315.6375 250.76411 313.21564ZM251.84224 313.21564Q251.84224 315.325 252.34224 316.02814Q252.84224 316.73126 253.56099 316.73126Q254.29536 316.73126 254.77974 316.02814Q255.27974 315.325 255.27974 313.21564Q255.27974 311.09064 254.77974 310.40314Q254.29536 309.7 253.54536 309.7Q252.82661 309.7 252.38911 310.3094Q251.84224 311.09064 251.84224 313.21564ZM257.7641 313.21564Q257.7641 311.6844 258.0766 310.7625Q258.3891 309.825 258.99847 309.325Q259.62347 308.825 260.56097 308.825Q261.24847 308.825 261.7641 309.10626Q262.29535 309.3875 262.6391 309.91876Q262.98285 310.4344 263.17035 311.1844Q263.35785 311.9344 263.35785 313.21564Q263.35785 314.73126 263.04535 315.65314Q262.74847 316.575 262.12347 317.09064Q261.5141 317.59064 260.56097 317.59064Q259.3266 317.59064 258.60785 316.7Q257.7641 315.6375 257.7641 313.21564ZM258.84222 313.21564Q258.84222 315.325 259.34222 316.02814Q259.84222 316.73126 260.56097 316.73126Q261.29535 316.73126 261.77972 316.02814Q262.27972 315.325 262.27972 313.21564Q262.27972 311.09064 261.77972 310.40314Q261.29535 309.7 260.54535 309.7Q259.8266 309.7 259.3891 310.3094Q258.84222 311.09064 258.84222 313.21564ZM265.21722 317.45L265.21722 308.85626L271.42035 308.85626L271.42035 309.8719L266.35785 309.8719L266.35785 312.4969L271.10785 312.4969L271.10785 313.5125L266.35785 313.5125L266.35785 316.4344L271.62347 316.4344L271.62347 317.45L265.21722 317.45ZM272.6391 314.8719L272.6391 313.8094L275.8891 313.8094L275.8891 314.8719L272.6391 314.8719ZM276.7641 313.21564Q276.7641 311.6844 277.0766 310.7625Q277.3891 309.825 277.99847 309.325Q278.62347 308.825 279.56097 308.825Q280.24847 308.825 280.7641 309.10626Q281.29535 309.3875 281.6391 309.91876Q281.98285 310.4344 282.17035 311.1844Q282.35785 311.9344 282.35785 313.21564Q282.35785 314.73126 282.04535 315.65314Q281.74847 316.575 281.12347 317.09064Q280.5141 317.59064 279.56097 317.59064Q278.3266 317.59064 277.60785 316.7Q276.7641 315.6375 276.7641 313.21564ZM277.84222 313.21564Q277.84222 315.325 278.34222 316.02814Q278.84222 316.73126 279.56097 316.73126Q280.29535 316.73126 280.77972 316.02814Q281.27972 315.325 281.27972 313.21564Q281.27972 311.09064 280.77972 310.40314Q280.29535 309.7 279.54535 309.7Q278.8266 309.7 278.3891 310.3094Q277.84222 311.09064 277.84222 313.21564ZM289.31097 316.4344L289.31097 317.45L283.62347 317.45Q283.62347 317.075 283.74847 316.71564Q283.96722 316.1375 284.43597 315.575Q284.92035 315.0125 285.8266 314.27814Q287.23285 313.1219 287.71722 312.45Q288.21722 311.77814 288.21722 311.1844Q288.21722 310.5594 287.7641 310.1375Q287.31097 309.7 286.59222 309.7Q285.8266 309.7 285.37347 310.15314Q284.92035 310.60626 284.90472 311.41876L283.8266 311.3094Q283.93597 310.09064 284.65472 309.46564Q285.3891 308.825 286.62347 308.825Q287.85785 308.825 288.5766 309.5125Q289.29535 310.2 289.29535 311.21564Q289.29535 311.73126 289.0766 312.23126Q288.87347 312.71564 288.37347 313.27814Q287.8891 313.825 286.7641 314.77814Q285.81097 315.575 285.52972 315.8719Q285.2641 316.15314 285.09222 316.4344L289.31097 316.4344Z" fill-rule="nonzero"/><path fill="#000000" d="M329.12122 315.1844L330.18372 315.04376Q330.3556 315.9344 330.7931 316.34064Q331.2306 316.73126 331.8556 316.73126Q332.6056 316.73126 333.12122 316.21564Q333.63684 315.7 333.63684 314.9344Q333.63684 314.21564 333.15247 313.7469Q332.68372 313.2625 331.94934 313.2625Q331.65247 313.2625 331.19934 313.3875L331.32434 312.45Q331.43372 312.46564 331.49622 312.46564Q332.1681 312.46564 332.69934 312.1219Q333.24622 311.7625 333.24622 311.02814Q333.24622 310.45 332.8556 310.075Q332.46497 309.6844 331.83997 309.6844Q331.2306 309.6844 330.80872 310.075Q330.40247 310.46564 330.2931 311.23126L329.2306 311.04376Q329.4181 309.9969 330.1056 309.41876Q330.7931 308.825 331.80872 308.825Q332.51184 308.825 333.1056 309.1375Q333.69934 309.4344 334.01184 309.95Q334.32434 310.46564 334.32434 311.0594Q334.32434 311.60626 334.02747 312.075Q333.7306 312.52814 333.15247 312.79376Q333.90247 312.96564 334.32434 313.52814Q334.74622 314.075 334.74622 314.91876Q334.74622 316.04376 333.9181 316.825Q333.1056 317.60626 331.8556 317.60626Q330.7306 317.60626 329.9806 316.9344Q329.2306 316.2469 329.12122 315.1844ZM336.71497 317.45L336.71497 316.2469L337.9181 316.2469L337.9181 317.45L336.71497 317.45ZM339.12122 313.21564Q339.12122 311.6844 339.43372 310.7625Q339.74622 309.825 340.3556 309.325Q340.9806 308.825 341.9181 308.825Q342.6056 308.825 343.12122 309.10626Q343.65247 309.3875 343.99622 309.91876Q344.33997 310.4344 344.52747 311.1844Q344.71497 311.9344 344.71497 313.21564Q344.71497 314.73126 344.40247 315.65314Q344.1056 316.575 343.4806 317.09064Q342.87122 317.59064 341.9181 317.59064Q340.68372 317.59064 339.96497 316.7Q339.12122 315.6375 339.12122 313.21564ZM340.19934 313.21564Q340.19934 315.325 340.69934 316.02814Q341.19934 316.73126 341.9181 316.73126Q342.65247 316.73126 343.13684 316.02814Q343.63684 315.325 343.63684 313.21564Q343.63684 311.09064 343.13684 310.40314Q342.65247 309.7 341.90247 309.7Q341.18372 309.7 340.74622 310.3094Q340.19934 311.09064 340.19934 313.21564ZM346.12122 313.21564Q346.12122 311.6844 346.43372 310.7625Q346.74622 309.825 347.3556 309.325Q347.9806 308.825 348.9181 308.825Q349.6056 308.825 350.12122 309.10626Q350.65247 309.3875 350.99622 309.91876Q351.33997 310.4344 351.52747 311.1844Q351.71497 311.9344 351.71497 313.21564Q351.71497 314.73126 351.40247 315.65314Q351.1056 316.575 350.4806 317.09064Q349.87122 317.59064 348.9181 317.59064Q347.68372 317.59064 346.96497 316.7Q346.12122 315.6375 346.12122 313.21564ZM347.19934 313.21564Q347.19934 315.325 347.69934 316.02814Q348.19934 316.73126 348.9181 316.73126Q349.65247 316.73126 350.13684 316.02814Q350.63684 315.325 350.63684 313.21564Q350.63684 311.09064 350.13684 310.40314Q349.65247 309.7 348.90247 309.7Q348.18372 309.7 347.74622 310.3094Q347.19934 311.09064 347.19934 313.21564ZM353.57434 317.45L353.57434 308.85626L359.77747 308.85626L359.77747 309.8719L354.71497 309.8719L354.71497 312.4969L359.46497 312.4969L359.46497 313.5125L354.71497 313.5125L354.71497 316.4344L359.9806 316.4344L359.9806 317.45L353.57434 317.45ZM360.99622 314.8719L360.99622 313.8094L364.24622 313.8094L364.24622 314.8719L360.99622 314.8719ZM365.12122 313.21564Q365.12122 311.6844 365.43372 310.7625Q365.74622 309.825 366.3556 309.325Q366.9806 308.825 367.9181 308.825Q368.6056 308.825 369.12122 309.10626Q369.65247 309.3875 369.99622 309.91876Q370.33997 310.4344 370.52747 311.1844Q370.71497 311.9344 370.71497 313.21564Q370.71497 314.73126 370.40247 315.65314Q370.1056 316.575 369.4806 317.09064Q368.87122 317.59064 367.9181 317.59064Q366.68372 317.59064 365.96497 316.7Q365.12122 315.6375 365.12122 313.21564ZM366.19934 313.21564Q366.19934 315.325 366.69934 316.02814Q367.19934 316.73126 367.9181 316.73126Q368.65247 316.73126 369.13684 316.02814Q369.63684 315.325 369.63684 313.21564Q369.63684 311.09064 369.13684 310.40314Q368.65247 309.7 367.90247 309.7Q367.18372 309.7 366.74622 310.3094Q366.19934 311.09064 366.19934 313.21564ZM377.6681 316.4344L377.6681 317.45L371.9806 317.45Q371.9806 317.075 372.1056 316.71564Q372.32434 316.1375 372.7931 315.575Q373.27747 315.0125 374.18372 314.27814Q375.58997 313.1219 376.07434 312.45Q376.57434 311.77814 376.57434 311.1844Q376.57434 310.5594 376.12122 310.1375Q375.6681 309.7 374.94934 309.7Q374.18372 309.7 373.7306 310.15314Q373.27747 310.60626 373.26184 311.41876L372.18372 311.3094Q372.2931 310.09064 373.01184 309.46564Q373.74622 308.825 374.9806 308.825Q376.21497 308.825 376.93372 309.5125Q377.65247 310.2 377.65247 311.21564Q377.65247 311.73126 377.43372 312.23126Q377.2306 312.71564 376.7306 313.27814Q376.24622 313.825 375.12122 314.77814Q374.1681 315.575 373.88684 315.8719Q373.62122 316.15314 373.44934 316.4344L377.6681 316.4344Z" fill-rule="nonzero"/><path fill="#000000" d="M420.8533 317.45L420.8533 315.3875L417.13455 315.3875L417.13455 314.41876L421.05643 308.85626L421.9158 308.85626L421.9158 314.41876L423.07205 314.41876L423.07205 315.3875L421.9158 315.3875L421.9158 317.45L420.8533 317.45ZM420.8533 314.41876L420.8533 310.5594L418.1658 314.41876L420.8533 314.41876ZM425.07205 317.45L425.07205 316.2469L426.27518 316.2469L426.27518 317.45L425.07205 317.45ZM427.4783 313.21564Q427.4783 311.6844 427.7908 310.7625Q428.1033 309.825 428.71268 309.325Q429.33768 308.825 430.27518 308.825Q430.96268 308.825 431.4783 309.10626Q432.00955 309.3875 432.3533 309.91876Q432.69705 310.4344 432.88455 311.1844Q433.07205 311.9344 433.07205 313.21564Q433.07205 314.73126 432.75955 315.65314Q432.46268 316.575 431.83768 317.09064Q431.2283 317.59064 430.27518 317.59064Q429.0408 317.59064 428.32205 316.7Q427.4783 315.6375 427.4783 313.21564ZM428.55643 313.21564Q428.55643 315.325 429.05643 316.02814Q429.55643 316.73126 430.27518 316.73126Q431.00955 316.73126 431.49393 316.02814Q431.99393 315.325 431.99393 313.21564Q431.99393 311.09064 431.49393 310.40314Q431.00955 309.7 430.25955 309.7Q429.5408 309.7 429.1033 310.3094Q428.55643 311.09064 428.55643 313.21564ZM434.4783 313.21564Q434.4783 311.6844 434.7908 310.7625Q435.1033 309.825 435.71268 309.325Q436.33768 308.825 437.27518 308.825Q437.96268 308.825 438.4783 309.10626Q439.00955 309.3875 439.3533 309.91876Q439.69705 310.4344 439.88455 311.1844Q440.07205 311.9344 440.07205 313.21564Q440.07205 314.73126 439.75955 315.65314Q439.46268 316.575 438.83768 317.09064Q438.2283 317.59064 437.27518 317.59064Q436.0408 317.59064 435.32205 316.7Q434.4783 315.6375 434.4783 313.21564ZM435.55643 313.21564Q435.55643 315.325 436.05643 316.02814Q436.55643 316.73126 437.27518 316.73126Q438.00955 316.73126 438.49393 316.02814Q438.99393 315.325 438.99393 313.21564Q438.99393 311.09064 438.49393 310.40314Q438.00955 309.7 437.25955 309.7Q436.5408 309.7 436.1033 310.3094Q435.55643 311.09064 435.55643 313.21564ZM441.93143 317.45L441.93143 308.85626L448.13455 308.85626L448.13455 309.8719L443.07205 309.8719L443.07205 312.4969L447.82205 312.4969L447.82205 313.5125L443.07205 313.5125L443.07205 316.4344L448.33768 316.4344L448.33768 317.45L441.93143 317.45ZM449.3533 314.8719L449.3533 313.8094L452.6033 313.8094L452.6033 314.8719L449.3533 314.8719ZM453.4783 313.21564Q453.4783 311.6844 453.7908 310.7625Q454.1033 309.825 454.71268 309.325Q455.33768 308.825 456.27518 308.825Q456.96268 308.825 457.4783 309.10626Q458.00955 309.3875 458.3533 309.91876Q458.69705 310.4344 458.88455 311.1844Q459.07205 311.9344 459.07205 313.21564Q459.07205 314.73126 458.75955 315.65314Q458.46268 316.575 457.83768 317.09064Q457.2283 317.59064 456.27518 317.59064Q455.0408 317.59064 454.32205 316.7Q453.4783 315.6375 453.4783 313.21564ZM454.55643 313.21564Q454.55643 315.325 455.05643 316.02814Q455.55643 316.73126 456.27518 316.73126Q457.00955 316.73126 457.49393 316.02814Q457.99393 315.325 457.99393 313.21564Q457.99393 311.09064 457.49393 310.40314Q457.00955 309.7 456.25955 309.7Q455.5408 309.7 455.1033 310.3094Q454.55643 311.09064 454.55643 313.21564ZM466.02518 316.4344L466.02518 317.45L460.33768 317.45Q460.33768 317.075 460.46268 316.71564Q460.68143 316.1375 461.15018 315.575Q461.63455 315.0125 462.5408 314.27814Q463.94705 313.1219 464.43143 312.45Q464.93143 311.77814 464.93143 311.1844Q464.93143 310.5594 464.4783 310.1375Q464.02518 309.7 463.30643 309.7Q462.5408 309.7 462.08768 310.15314Q461.63455 310.60626 461.61893 311.41876L460.5408 311.3094Q460.65018 310.09064 461.36893 309.46564Q462.1033 308.825 463.33768 308.825Q464.57205 308.825 465.2908 309.5125Q466.00955 310.2 466.00955 311.21564Q466.00955 311.73126 465.7908 312.23126Q465.58768 312.71564 465.08768 313.27814Q464.6033 313.825 463.4783 314.77814Q462.52518 315.575 462.24393 315.8719Q461.9783 316.15314 461.80643 316.4344L466.02518 316.4344Z" fill-rule="nonzero"/><path fill="#000000" d="M505.83542 315.2L506.9448 315.10626Q507.0698 315.91876 507.5073 316.325Q507.96042 316.73126 508.60104 316.73126Q509.35104 316.73126 509.8823 316.15314Q510.41354 315.575 510.41354 314.6375Q510.41354 313.73126 509.89792 313.21564Q509.39792 312.6844 508.5698 312.6844Q508.0698 312.6844 507.64792 312.91876Q507.24167 313.15314 507.0073 313.5125L506.02292 313.3875L506.85104 308.98126L511.1323 308.98126L511.1323 309.98126L507.6948 309.98126L507.24167 312.29376Q508.0073 311.7469 508.85104 311.7469Q509.97604 311.7469 510.74167 312.52814Q511.52292 313.3094 511.52292 314.54376Q511.52292 315.7 510.85104 316.5594Q510.02292 317.59064 508.60104 317.59064Q507.42917 317.59064 506.67917 316.9344Q505.9448 316.27814 505.83542 315.2ZM513.4292 317.45L513.4292 316.2469L514.6323 316.2469L514.6323 317.45L513.4292 317.45ZM515.83545 313.21564Q515.83545 311.6844 516.14795 310.7625Q516.46045 309.825 517.0698 309.325Q517.6948 308.825 518.6323 308.825Q519.3198 308.825 519.83545 309.10626Q520.3667 309.3875 520.71045 309.91876Q521.0542 310.4344 521.2417 311.1844Q521.4292 311.9344 521.4292 313.21564Q521.4292 314.73126 521.1167 315.65314Q520.8198 316.575 520.1948 317.09064Q519.58545 317.59064 518.6323 317.59064Q517.39795 317.59064 516.6792 316.7Q515.83545 315.6375 515.83545 313.21564ZM516.9136 313.21564Q516.9136 315.325 517.4136 316.02814Q517.9136 316.73126 518.6323 316.73126Q519.3667 316.73126 519.8511 316.02814Q520.3511 315.325 520.3511 313.21564Q520.3511 311.09064 519.8511 310.40314Q519.3667 309.7 518.6167 309.7Q517.89795 309.7 517.46045 310.3094Q516.9136 311.09064 516.9136 313.21564ZM522.83545 313.21564Q522.83545 311.6844 523.14795 310.7625Q523.46045 309.825 524.0698 309.325Q524.6948 308.825 525.6323 308.825Q526.3198 308.825 526.83545 309.10626Q527.3667 309.3875 527.71045 309.91876Q528.0542 310.4344 528.2417 311.1844Q528.4292 311.9344 528.4292 313.21564Q528.4292 314.73126 528.1167 315.65314Q527.8198 316.575 527.1948 317.09064Q526.58545 317.59064 525.6323 317.59064Q524.39795 317.59064 523.6792 316.7Q522.83545 315.6375 522.83545 313.21564ZM523.9136 313.21564Q523.9136 315.325 524.4136 316.02814Q524.9136 316.73126 525.6323 316.73126Q526.3667 316.73126 526.8511 316.02814Q527.3511 315.325 527.3511 313.21564Q527.3511 311.09064 526.8511 310.40314Q526.3667 309.7 525.6167 309.7Q524.89795 309.7 524.46045 310.3094Q523.9136 311.09064 523.9136 313.21564ZM530.2886 317.45L530.2886 308.85626L536.4917 308.85626L536.4917 309.8719L531.4292 309.8719L531.4292 312.4969L536.1792 312.4969L536.1792 313.5125L531.4292 313.5125L531.4292 316.4344L536.6948 316.4344L536.6948 317.45L530.2886 317.45ZM537.71045 314.8719L537.71045 313.8094L540.96045 313.8094L540.96045 314.8719L537.71045 314.8719ZM541.83545 313.21564Q541.83545 311.6844 542.14795 310.7625Q542.46045 309.825 543.0698 309.325Q543.6948 308.825 544.6323 308.825Q545.3198 308.825 545.83545 309.10626Q546.3667 309.3875 546.71045 309.91876Q547.0542 310.4344 547.2417 311.1844Q547.4292 311.9344 547.4292 313.21564Q547.4292 314.73126 547.1167 315.65314Q546.8198 316.575 546.1948 317.09064Q545.58545 317.59064 544.6323 317.59064Q543.39795 317.59064 542.6792 316.7Q541.83545 315.6375 541.83545 313.21564ZM542.9136 313.21564Q542.9136 315.325 543.4136 316.02814Q543.9136 316.73126 544.6323 316.73126Q545.3667 316.73126 545.8511 316.02814Q546.3511 315.325 546.3511 313.21564Q546.3511 311.09064 545.8511 310.40314Q545.3667 309.7 544.6167 309.7Q543.89795 309.7 543.46045 310.3094Q542.9136 311.09064 542.9136 313.21564ZM554.3823 316.4344L554.3823 317.45L548.6948 317.45Q548.6948 317.075 548.8198 316.71564Q549.0386 316.1375 549.5073 315.575Q549.9917 315.0125 550.89795 314.27814Q552.3042 313.1219 552.7886 312.45Q553.2886 311.77814 553.2886 311.1844Q553.2886 310.5594 552.83545 310.1375Q552.3823 309.7 551.6636 309.7Q550.89795 309.7 550.4448 310.15314Q549.9917 310.60626 549.9761 311.41876L548.89795 311.3094Q549.0073 310.09064 549.7261 309.46564Q550.46045 308.825 551.6948 308.825Q552.9292 308.825 553.64795 309.5125Q554.3667 310.2 554.3667 311.21564Q554.3667 311.73126 554.14795 312.23126Q553.9448 312.71564 553.4448 313.27814Q552.96045 313.825 551.83545 314.77814Q550.8823 315.575 550.6011 315.8719Q550.33545 316.15314 550.1636 316.4344L554.3823 316.4344Z" fill-rule="nonzero"/><path fill="#000000" d="M227.46875 34.596874L230.21875 34.175Q230.40625 34.971874 230.9375 35.39375Q231.46875 35.8 232.4375 35.8Q233.5 35.8 234.04688 35.409374Q234.40625 35.14375 234.40625 34.675Q234.40625 34.3625 234.20312 34.159374Q234.0 33.971874 233.29688 33.8Q229.96875 33.065624 229.07812 32.45625Q227.84375 31.628124 227.84375 30.128124Q227.84375 28.784374 228.90625 27.8625Q229.98438 26.940624 232.21875 26.940624Q234.34375 26.940624 235.375 27.64375Q236.42188 28.33125 236.8125 29.690624L234.21875 30.159374Q234.04688 29.565624 233.57812 29.2375Q233.125 28.909374 232.26562 28.909374Q231.1875 28.909374 230.71875 29.221874Q230.40625 29.440624 230.40625 29.76875Q230.40625 30.065624 230.67188 30.26875Q231.04688 30.55 233.23438 31.05Q235.42188 31.55 236.29688 32.26875Q237.15625 33.003124 237.15625 34.3Q237.15625 35.7375 235.96875 36.76875Q234.78125 37.784374 232.4375 37.784374Q230.32812 37.784374 229.07812 36.925Q227.84375 36.065624 227.46875 34.596874ZM239.4375 25.76875L239.4375 23.2375L242.1875 23.2375L242.1875 25.76875L239.4375 25.76875ZM239.4375 37.55L239.4375 27.175L242.1875 27.175L242.1875 37.55L239.4375 37.55ZM244.1875 38.2375L247.3125 38.6125Q247.39062 39.159374 247.67188 39.3625Q248.0625 39.659374 248.90625 39.659374Q249.98438 39.659374 250.51562 39.33125Q250.875 39.128124 251.0625 38.64375Q251.1875 38.3 251.1875 37.378124L251.1875 35.8625Q249.96875 37.55 248.09375 37.55Q246.0 37.55 244.78125 35.784374Q243.82812 34.378124 243.82812 32.3Q243.82812 29.690624 245.07812 28.315624Q246.32812 26.940624 248.20312 26.940624Q250.125 26.940624 251.375 28.628124L251.375 27.175L253.9375 27.175L253.9375 36.4875Q253.9375 38.315624 253.625 39.221874Q253.32812 40.14375 252.78125 40.659374Q252.23438 41.175 251.3125 41.45625Q250.40625 41.753124 249.01562 41.753124Q246.375 41.753124 245.26562 40.846874Q244.17188 39.95625 244.17188 38.565624Q244.17188 38.425 244.1875 38.2375ZM246.64062 32.14375Q246.64062 33.8 247.26562 34.565624Q247.90625 35.33125 248.84375 35.33125Q249.85938 35.33125 250.54688 34.55Q251.25 33.753124 251.25 32.221874Q251.25 30.6125 250.57812 29.83125Q249.92188 29.05 248.90625 29.05Q247.90625 29.05 247.26562 29.815624Q246.64062 30.58125 246.64062 32.14375ZM265.60938 32.284374L268.42188 33.175Q267.78125 35.51875 266.28125 36.659374Q264.78125 37.8 262.46875 37.8Q259.625 37.8 257.78125 35.846874Q255.95312 33.89375 255.95312 30.51875Q255.95312 26.940624 257.79688 24.971874Q259.64062 22.9875 262.64062 22.9875Q265.28125 22.9875 266.92188 24.534374Q267.89062 25.45625 268.375 27.175L265.51562 27.8625Q265.26562 26.753124 264.45312 26.1125Q263.65625 25.45625 262.5 25.45625Q260.90625 25.45625 259.90625 26.596874Q258.92188 27.7375 258.92188 30.3Q258.92188 33.01875 259.89062 34.175Q260.875 35.315624 262.4375 35.315624Q263.59375 35.315624 264.42188 34.596874Q265.25 33.8625 265.60938 32.284374ZM273.0625 37.55L270.3125 37.55L270.3125 27.175L272.875 27.175L272.875 28.659374Q273.51562 27.6125 274.03125 27.284374Q274.5625 26.940624 275.23438 26.940624Q276.17188 26.940624 277.03125 27.45625L276.1875 29.846874Q275.5 29.409374 274.90625 29.409374Q274.32812 29.409374 273.92188 29.721874Q273.51562 30.034374 273.28125 30.878124Q273.0625 31.70625 273.0625 34.346874L273.0625 37.55ZM282.98438 41.753124L281.10938 41.753124Q279.60938 39.503124 278.82812 37.08125Q278.04688 34.64375 278.04688 32.3625Q278.04688 29.534374 279.01562 27.01875Q279.85938 24.83125 281.14062 22.9875L283.01562 22.9875Q281.67188 25.940624 281.17188 28.01875Q280.67188 30.096874 280.67188 32.425Q280.67188 34.01875 280.96875 35.70625Q281.26562 37.378124 281.78125 38.89375Q282.125 39.89375 282.98438 41.753124ZM291.875 37.55L289.125 37.55L289.125 27.20625Q287.625 28.6125 285.57812 29.284374L285.57812 26.8Q286.65625 26.440624 287.90625 25.471874Q289.17188 24.4875 289.64062 23.175L291.875 23.175L291.875 37.55ZM295.67188 41.753124Q296.48438 40.01875 296.8125 39.08125Q297.15625 38.159374 297.4375 36.95625Q297.71875 35.7375 297.84375 34.659374Q297.98438 33.565624 297.98438 32.425Q297.98438 30.096874 297.48438 28.01875Q297.0 25.940624 295.65625 22.9875L297.51562 22.9875Q299.0 25.08125 299.8125 27.440624Q300.625 29.8 300.625 32.221874Q300.625 34.253124 299.98438 36.596874Q299.25 39.20625 297.5625 41.753124L295.67188 41.753124ZM312.28125 37.55L308.10938 27.175L310.98438 27.175L312.9375 32.471874L313.51562 34.2375Q313.73438 33.565624 313.79688 33.346874Q313.92188 32.909374 314.07812 32.471874L316.0625 27.175L318.875 27.175L314.76562 37.55L312.28125 37.55ZM319.46875 34.596874L322.21875 34.175Q322.40625 34.971874 322.9375 35.39375Q323.46875 35.8 324.4375 35.8Q325.5 35.8 326.04688 35.409374Q326.40625 35.14375 326.40625 34.675Q326.40625 34.3625 326.20312 34.159374Q326.0 33.971874 325.29688 33.8Q321.96875 33.065624 321.07812 32.45625Q319.84375 31.628124 319.84375 30.128124Q319.84375 28.784374 320.90625 27.8625Q321.98438 26.940624 324.21875 26.940624Q326.34375 26.940624 327.375 27.64375Q328.42188 28.33125 328.8125 29.690624L326.21875 30.159374Q326.04688 29.565624 325.57812 29.2375Q325.125 28.909374 324.26562 28.909374Q323.1875 28.909374 322.71875 29.221874Q322.40625 29.440624 322.40625 29.76875Q322.40625 30.065624 322.67188 30.26875Q323.04688 30.55 325.23438 31.05Q327.42188 31.55 328.29688 32.26875Q329.15625 33.003124 329.15625 34.3Q329.15625 35.7375 327.96875 36.76875Q326.78125 37.784374 324.4375 37.784374Q322.32812 37.784374 321.07812 36.925Q319.84375 36.065624 319.46875 34.596874ZM344.26562 37.55L344.26562 36.003124Q343.70312 36.83125 342.76562 37.315624Q341.84375 37.784374 340.82812 37.784374Q339.78125 37.784374 338.95312 37.33125Q338.125 36.8625 337.75 36.034374Q337.375 35.20625 337.375 33.7375L337.375 27.175L340.125 27.175L340.125 31.940624Q340.125 34.128124 340.26562 34.628124Q340.42188 35.1125 340.8125 35.409374Q341.21875 35.690624 341.84375 35.690624Q342.54688 35.690624 343.09375 35.315624Q343.65625 34.925 343.85938 34.3625Q344.0625 33.784374 344.0625 31.55L344.0625 27.175L346.8125 27.175L346.8125 37.55L344.26562 37.55ZM353.98438 41.753124L352.10938 41.753124Q350.60938 39.503124 349.82812 37.08125Q349.04688 34.64375 349.04688 32.3625Q349.04688 29.534374 350.01562 27.01875Q350.85938 24.83125 352.14062 22.9875L354.01562 22.9875Q352.67188 25.940624 352.17188 28.01875Q351.67188 30.096874 351.67188 32.425Q351.67188 34.01875 351.96875 35.70625Q352.26562 37.378124 352.78125 38.89375Q353.125 39.89375 353.98438 41.753124ZM362.875 37.55L360.125 37.55L360.125 27.20625Q358.625 28.6125 356.57812 29.284374L356.57812 26.8Q357.65625 26.440624 358.90625 25.471874Q360.17188 24.4875 360.64062 23.175L362.875 23.175L362.875 37.55ZM366.67188 41.753124Q367.48438 40.01875 367.8125 39.08125Q368.15625 38.159374 368.4375 36.95625Q368.71875 35.7375 368.84375 34.659374Q368.98438 33.565624 368.98438 32.425Q368.98438 30.096874 368.48438 28.01875Q368.0 25.940624 366.65625 22.9875L368.51562 22.9875Q370.0 25.08125 370.8125 27.440624Q371.625 29.8 371.625 32.221874Q371.625 34.253124 370.98438 36.596874Q370.25 39.20625 368.5625 41.753124L366.67188 41.753124Z" fill-rule="nonzero"/></svg>