<svg version="1.1" viewBox="0.0 0.0 600.0 371.0" fill="none" stroke="none" stroke-linecap="square" stroke-miterlimit="10" width="600" height="371" xmlns:xlink="http://www.w3.org/1999/xlink" xmlns="http://www.w3.org/2000/svg"><path fill="#ffffff" d="M0 0L600.0 0L600.0 371.0L0 371.0L0 0Z" fill-rule="nonzero"/><path stroke="#cccccc" stroke-width="1.0" stroke-linecap="butt" d="M176.5 61.5L176.5 300.5" fill-rule="nonzero"/><path stroke="#cccccc" stroke-width="1.0" stroke-linecap="butt" d="M274.5 61.5L274.5 300.5" fill-rule="nonzero"/><path stroke="#cccccc" stroke-width="1.0" stroke-linecap="butt" d="M373.5 61.5L373.5 300.5" fill-rule="nonzero"/><path stroke="#cccccc" stroke-width="1.0" stroke-linecap="butt" d="M471.5 61.5L471.5 300.5" fill-rule="nonzero"/><path stroke="#cccccc" stroke-width="1.0" stroke-linecap="butt" d="M570.5 61.5L570.5 300.5" fill-rule="nonzero"/><path stroke="#cccccc" stroke-width="1.0" stroke-linecap="butt" d="M77.5 300.5L581.5 300.5" fill-rule="nonzero"/><path stroke="#cccccc" stroke-width="1.0" stroke-linecap="butt" d="M77.5 252.5L581.5 252.5" fill-rule="nonzero"/><path stroke="#cccccc" stroke-width="1.0" stroke-linecap="butt" d="M77.5 205.5L581.5 205.5" fill-rule="nonzero"/><path stroke="#cccccc" stroke-width="1.0" stroke-linecap="butt" d="M77.5 157.5L581.5 157.5" fill-rule="nonzero"/><path stroke="#cccccc" stroke-width="1.0" stroke-linecap="butt" d="M77.5 109.5L581.5 109.5" fill-rule="nonzero"/><path stroke="#333333" stroke-width="1.0" stroke-linecap="butt" d="M77.5 61.5L581.5 61.5" fill-rule="nonzero"/><clipPath id="id_0"><path d="M77.55 61.916668L581.45 61.916668L581.45 300.45L77.55 300.45L77.55 61.916668Z" clip-rule="nonzero"/></clipPath><path fill="#34a853" fill-opacity="0.3019608" clip-path="url(#id_0)" d="M77.55 287.91125L83.12332 280.35547L88.723564 272.76868L94.326645 265.18524L99.930786 257.60654L105.540016 250.02786L111.15568 242.44681L116.77752 234.8643L122.4052 227.28038L128.0393 219.69502L133.67892 212.10823L139.32484 204.52L144.97708 196.93083L150.63524 189.33974L156.2993 181.74722L161.96927 174.15327L167.64595 166.5579L173.32814 158.96109L179.01703 151.36285L184.71184 143.76318L190.41257 136.16208L196.11998 128.55954L201.83331 120.955574L207.55296 113.3497L213.27892 105.74302L219.01077 98.13461L224.74933 90.52478L230.4938 82.91351L236.24498 75.30077L242.00208 67.68655L247.56483 61.918926L252.50674 61.918926L257.45456 61.918926L262.4087 61.918926L267.36914 61.918926L272.33588 61.918926L277.30893 61.918926L282.2883 61.918926L287.27396 61.918926L292.26553 61.918926L297.26382 61.918926L302.2684 61.918926L307.2793 61.918926L312.2965 61.918926L317.3204 61.918926L322.35062 61.918926L327.38715 61.918926L332.42996 61.918926L337.4795 61.918926L342.5353 61.918926L347.59747 61.918926L352.6667 61.918926L357.74185 61.918926L362.8241 61.918926L367.91263 61.918926L373.0075 61.918926L378.10944 61.918926L383.2177 61.918926L388.33267 61.918926L393.4543 61.918926L398.5823 61.918926L403.71735 61.918926L408.85913 61.918926L414.0072 61.918926L419.16235 61.918926L424.32422 61.918926L429.4928 61.918926L434.66846 61.918926L439.85043 61.918926L445.0395 61.918926L450.23526 61.918926L455.43814 61.918926L460.6477 61.918926L465.86395 61.918926L471.0877 61.918926L476.3166 61.918926L481.55533 61.918926L486.798 61.918926L492.05252 61.918926L497.307 61.918926L502.57333 61.918926L507.84756 61.918926L513.12573 61.918926L518.41174 61.918926L523.7057 61.918926L529.00745 61.918926L534.31323 61.918926L539.6308 61.918926L544.9523 61.918926L550.2817 61.918926L555.61896 61.918926L560.9602 61.918926L566.31323 61.918926L571.6702 61.918926L577.0351 61.918926L581.45 61.918926L581.45 61.916668L577.0351 61.916668L571.6702 61.916668L566.31323 61.916668L560.9602 61.916668L555.61896 61.916668L550.2817 61.916668L544.9523 61.916668L539.6308 61.916668L534.31323 61.916668L529.00745 61.916668L523.7057 61.916668L518.41174 61.916668L513.12573 61.916668L507.84756 61.916668L502.57333 61.916668L497.307 61.916668L492.05252 61.916668L486.798 61.916668L481.55533 61.916668L476.3166 61.916668L471.0877 61.916668L465.86395 61.916668L460.6477 61.916668L455.43814 61.916668L450.23526 61.916668L445.0395 61.916668L439.85043 61.916668L434.66846 61.916668L429.4928 61.916668L424.32422 61.916668L419.16235 61.916668L414.0072 61.916668L408.85913 61.916668L403.71735 61.916668L398.5823 61.916668L393.4543 61.916668L388.33267 61.916668L383.2177 61.916668L378.10944 61.916668L373.0075 61.916668L367.91263 61.916668L362.8241 61.916668L357.74185 61.916668L352.6667 61.916668L347.59747 61.916668L342.5353 61.916668L337.4795 61.916668L332.42996 61.916668L327.38715 61.916668L322.35062 61.916668L317.3204 61.916668L312.2965 61.916668L307.2793 61.916668L302.2684 61.916668L297.26382 61.916668L292.26553 61.916668L287.27396 61.916668L282.2883 61.916668L277.30893 61.916668L272.33588 61.916668L267.36914 61.916668L262.4087 61.916668L257.45456 61.916668L252.50674 61.916668L247.56483 61.916668L242.00208 61.916668L236.24498 61.916668L230.4938 61.916668L224.74933 61.916668L219.01077 61.916668L213.27892 61.916668L207.55296 61.916668L201.83331 61.916668L196.11998 61.916668L190.41257 61.916668L184.71184 61.916668L179.01703 61.916668L173.32814 61.916668L167.64595 61.916668L161.96927 61.916668L156.2993 61.916668L150.63524 61.916668L144.97708 61.916668L139.32484 61.916668L133.67892 61.916668L128.0393 61.916668L122.4052 61.916668L116.77752 61.916668L111.15568 61.916668L105.540016 61.916668L99.930786 61.916668L94.326645 61.916668L88.723564 61.916668L83.12332 61.916668L77.55 61.916668Z" fill-rule="nonzero"/><path stroke="#34a853" stroke-width="2.0" stroke-linecap="butt" clip-path="url(#id_0)" d="M77.55 287.91125L83.12332 280.35547L88.723564 272.76868L94.326645 265.18524L99.930786 257.60654L105.540016 250.02786L111.15568 242.44681L116.77752 234.8643L122.4052 227.28038L128.0393 219.69502L133.67892 212.10823L139.32484 204.52L144.97708 196.93083L150.63524 189.33974L156.2993 181.74722L161.96927 174.15327L167.64595 166.5579L173.32814 158.96109L179.01703 151.36285L184.71184 143.76318L190.41257 136.16208L196.11998 128.55954L201.83331 120.955574L207.55296 113.3497L213.27892 105.74302L219.01077 98.13461L224.74933 90.52478L230.4938 82.91351L236.24498 75.30077L242.00208 67.68655L247.56483 61.918926L252.50674 61.918926L257.45456 61.918926L262.4087 61.918926L267.36914 61.918926L272.33588 61.918926L277.30893 61.918926L282.2883 61.918926L287.27396 61.918926L292.26553 61.918926L297.26382 61.918926L302.2684 61.918926L307.2793 61.918926L312.2965 61.918926L317.3204 61.918926L322.35062 61.918926L327.38715 61.918926L332.42996 61.918926L337.4795 61.918926L342.5353 61.918926L347.59747 61.918926L352.6667 61.918926L357.74185 61.918926L362.8241 61.918926L367.91263 61.918926L373.0075 61.918926L378.10944 61.918926L383.2177 61.918926L388.33267 61.918926L393.4543 61.918926L398.5823 61.918926L403.71735 61.918926L408.85913 61.918926L414.0072 61.918926L419.16235 61.918926L424.32422 61.918926L429.4928 61.918926L434.66846 61.918926L439.85043 61.918926L445.0395 61.918926L450.23526 61.918926L455.43814 61.918926L460.6477 61.918926L465.86395 61.918926L471.0877 61.918926L476.3166 61.918926L481.55533 61.918926L486.798 61.918926L492.05252 61.918926L497.307 61.918926L502.57333 61.918926L507.84756 61.918926L513.12573 61.918926L518.41174 61.918926L523.7057 61.918926L529.00745 61.918926L534.31323 61.918926L539.6308 61.918926L544.9523 61.918926L550.2817 61.918926L555.61896 61.918926L560.9602 61.918926L566.31323 61.918926L571.6702 61.918926L577.0351 61.918926L581.45 61.918926" fill-rule="nonzero"/><path fill="#000000" fill-opacity="0.0" clip-path="url(#id_0)" d="M80.55 287.91125C80.55 289.5681 79.206856 290.91125 77.55 290.91125C75.89314 290.91125 74.55 289.5681 74.55 287.91125C74.55 286.2544 75.89314 284.91125 77.55 284.91125C79.206856 284.91125 80.55 286.2544 80.55 287.91125Z" fill-rule="nonzero"/><path fill="#000000" fill-opacity="0.0" clip-path="url(#id_0)" d="M86.12332 280.35547C86.12332 282.01233 84.780174 283.35547 83.12332 283.35547C81.46647 283.35547 80.12332 282.01233 80.12332 280.35547C80.12332 278.6986 81.46647 277.35547 83.12332 277.35547C84.780174 277.35547 86.12332 278.6986 86.12332 280.35547Z" fill-rule="nonzero"/><path fill="#000000" fill-opacity="0.0" clip-path="url(#id_0)" d="M91.723564 272.76868C91.723564 274.42554 90.38042 275.76868 88.723564 275.76868C87.06671 275.76868 85.723564 274.42554 85.723564 272.76868C85.723564 271.11182 87.06671 269.76868 88.723564 269.76868C90.38042 269.76868 91.723564 271.11182 91.723564 272.76868Z" fill-rule="nonzero"/><path fill="#000000" fill-opacity="0.0" clip-path="url(#id_0)" d="M97.326645 265.18524C97.326645 266.84207 95.9835 268.18524 94.326645 268.18524C92.66979 268.18524 91.326645 266.84207 91.326645 265.18524C91.326645 263.52838 92.66979 262.18524 94.326645 262.18524C95.9835 262.18524 97.326645 263.52838 97.326645 265.18524Z" fill-rule="nonzero"/><path fill="#000000" fill-opacity="0.0" clip-path="url(#id_0)" d="M102.930786 257.60654C102.930786 259.2634 101.58765 260.60654 99.930786 260.60654C98.27393 260.60654 96.930786 259.2634 96.930786 257.60654C96.930786 255.94969 98.27393 254.60655 99.930786 254.60655C101.58765 254.60655 102.930786 255.94969 102.930786 257.60654Z" fill-rule="nonzero"/><path fill="#000000" fill-opacity="0.0" clip-path="url(#id_0)" d="M108.540016 250.02786C108.540016 251.68472 107.19688 253.02786 105.540016 253.02786C103.88316 253.02786 102.540016 251.68472 102.540016 250.02786C102.540016 248.37102 103.88316 247.02786 105.540016 247.02786C107.19688 247.02786 108.540016 248.37102 108.540016 250.02786Z" fill-rule="nonzero"/><path fill="#000000" fill-opacity="0.0" clip-path="url(#id_0)" d="M114.15568 242.44681C114.15568 244.10365 112.81253 245.44681 111.15568 245.44681C109.49882 245.44681 108.15568 244.10365 108.15568 242.44681C108.15568 240.78995 109.49882 239.44681 111.15568 239.44681C112.81253 239.44681 114.15568 240.78995 114.15568 242.44681Z" fill-rule="nonzero"/><path fill="#000000" fill-opacity="0.0" clip-path="url(#id_0)" d="M119.77752 234.8643C119.77752 236.52116 118.43437 237.8643 116.77752 237.8643C115.12067 237.8643 113.77752 236.52116 113.77752 234.8643C113.77752 233.20746 115.12067 231.8643 116.77752 231.8643C118.43437 231.8643 119.77752 233.20746 119.77752 234.8643Z" fill-rule="nonzero"/><path fill="#000000" fill-opacity="0.0" clip-path="url(#id_0)" d="M125.4052 227.28038C125.4052 228.93723 124.06205 230.28038 122.4052 230.28038C120.748344 230.28038 119.4052 228.93723 119.4052 227.28038C119.4052 225.62352 120.748344 224.28038 122.4052 224.28038C124.06205 224.28038 125.4052 225.62352 125.4052 227.28038Z" fill-rule="nonzero"/><path fill="#000000" fill-opacity="0.0" clip-path="url(#id_0)" d="M131.0393 219.69502C131.0393 221.35187 129.69615 222.69502 128.0393 222.69502C126.38245 222.69502 125.0393 221.35187 125.0393 219.69502C125.0393 218.03816 126.38245 216.69502 128.0393 216.69502C129.69615 216.69502 131.0393 218.03816 131.0393 219.69502Z" fill-rule="nonzero"/><path fill="#000000" fill-opacity="0.0" clip-path="url(#id_0)" d="M136.67892 212.10823C136.67892 213.76508 135.33577 215.10823 133.67892 215.10823C132.02206 215.10823 130.67892 213.76508 130.67892 212.10823C130.67892 210.45137 132.02206 209.10823 133.67892 209.10823C135.33577 209.10823 136.67892 210.45137 136.67892 212.10823Z" fill-rule="nonzero"/><path fill="#000000" fill-opacity="0.0" clip-path="url(#id_0)" d="M142.32484 204.52C142.32484 206.17686 140.9817 207.52 139.32484 207.52C137.668 207.52 136.32484 206.17686 136.32484 204.52C136.32484 202.86314 137.668 201.52 139.32484 201.52C140.9817 201.52 142.32484 202.86314 142.32484 204.52Z" fill-rule="nonzero"/><path fill="#000000" fill-opacity="0.0" clip-path="url(#id_0)" d="M147.97708 196.93083C147.97708 198.58768 146.63394 199.93083 144.97708 199.93083C143.32024 199.93083 141.97708 198.58768 141.97708 196.93083C141.97708 195.27397 143.32024 193.93083 144.97708 193.93083C146.63394 193.93083 147.97708 195.27397 147.97708 196.93083Z" fill-rule="nonzero"/><path fill="#000000" fill-opacity="0.0" clip-path="url(#id_0)" d="M153.63524 189.33974C153.63524 190.9966 152.29208 192.33974 150.63524 192.33974C148.97838 192.33974 147.63524 190.9966 147.63524 189.33974C147.63524 187.68289 148.97838 186.33974 150.63524 186.33974C152.29208 186.33974 153.63524 187.68289 153.63524 189.33974Z" fill-rule="nonzero"/><path fill="#000000" fill-opacity="0.0" clip-path="url(#id_0)" d="M159.2993 181.74722C159.2993 183.40408 157.95615 184.74722 156.2993 184.74722C154.64244 184.74722 153.2993 183.40408 153.2993 181.74722C153.2993 180.09038 154.64244 178.74722 156.2993 178.74722C157.95615 178.74722 159.2993 180.09038 159.2993 181.74722Z" fill-rule="nonzero"/><path fill="#000000" fill-opacity="0.0" clip-path="url(#id_0)" d="M164.96927 174.15327C164.96927 175.81013 163.62613 177.15327 161.96927 177.15327C160.31242 177.15327 158.96927 175.81013 158.96927 174.15327C158.96927 172.49643 160.31242 171.15327 161.96927 171.15327C163.62613 171.15327 164.96927 172.49643 164.96927 174.15327Z" fill-rule="nonzero"/><path fill="#000000" fill-opacity="0.0" clip-path="url(#id_0)" d="M170.64595 166.5579C170.64595 168.21475 169.3028 169.5579 167.64595 169.5579C165.98909 169.5579 164.64595 168.21475 164.64595 166.5579C164.64595 164.90105 165.98909 163.5579 167.64595 163.5579C169.3028 163.5579 170.64595 164.90105 170.64595 166.5579Z" fill-rule="nonzero"/><path fill="#000000" fill-opacity="0.0" clip-path="url(#id_0)" d="M176.32814 158.96109C176.32814 160.61795 174.985 161.96109 173.32814 161.96109C171.67128 161.96109 170.32814 160.61795 170.32814 158.96109C170.32814 157.30423 171.67128 155.96109 173.32814 155.96109C174.985 155.96109 176.32814 157.30423 176.32814 158.96109Z" fill-rule="nonzero"/><path fill="#000000" fill-opacity="0.0" clip-path="url(#id_0)" d="M182.01703 151.36285C182.01703 153.0197 180.67389 154.36285 179.01703 154.36285C177.36018 154.36285 176.01703 153.0197 176.01703 151.36285C176.01703 149.706 177.36018 148.36285 179.01703 148.36285C180.67389 148.36285 182.01703 149.706 182.01703 151.36285Z" fill-rule="nonzero"/><path fill="#000000" fill-opacity="0.0" clip-path="url(#id_0)" d="M187.71184 143.76318C187.71184 145.42003 186.3687 146.76318 184.71184 146.76318C183.055 146.76318 181.71184 145.42003 181.71184 143.76318C181.71184 142.10632 183.055 140.76318 184.71184 140.76318C186.3687 140.76318 187.71184 142.10632 187.71184 143.76318Z" fill-rule="nonzero"/><path fill="#000000" fill-opacity="0.0" clip-path="url(#id_0)" d="M193.41257 136.16208C193.41257 137.81892 192.06941 139.16208 190.41257 139.16208C188.7557 139.16208 187.41257 137.81892 187.41257 136.16208C187.41257 134.50522 188.7557 133.16208 190.41257 133.16208C192.06941 133.16208 193.41257 134.50522 193.41257 136.16208Z" fill-rule="nonzero"/><path fill="#000000" fill-opacity="0.0" clip-path="url(#id_0)" d="M199.11998 128.55954C199.11998 130.2164 197.77684 131.55954 196.11998 131.55954C194.46313 131.55954 193.11998 130.2164 193.11998 128.55954C193.11998 126.90269 194.46313 125.55954 196.11998 125.55954C197.77684 125.55954 199.11998 126.90269 199.11998 128.55954Z" fill-rule="nonzero"/><path fill="#000000" fill-opacity="0.0" clip-path="url(#id_0)" d="M204.83331 120.955574C204.83331 122.61243 203.49017 123.955574 201.83331 123.955574C200.17647 123.955574 198.83331 122.61243 198.83331 120.955574C198.83331 119.29872 200.17647 117.955574 201.83331 117.955574C203.49017 117.955574 204.83331 119.29872 204.83331 120.955574Z" fill-rule="nonzero"/><path fill="#000000" fill-opacity="0.0" clip-path="url(#id_0)" d="M210.55296 113.3497C210.55296 115.00655 209.20982 116.3497 207.55296 116.3497C205.8961 116.3497 204.55296 115.00655 204.55296 113.3497C204.55296 111.69285 205.8961 110.3497 207.55296 110.3497C209.20982 110.3497 210.55296 111.69285 210.55296 113.3497Z" fill-rule="nonzero"/><path fill="#000000" fill-opacity="0.0" clip-path="url(#id_0)" d="M216.27892 105.74302C216.27892 107.39987 214.93576 108.74302 213.27892 108.74302C211.62206 108.74302 210.27892 107.39987 210.27892 105.74302C210.27892 104.08616 211.62206 102.74302 213.27892 102.74302C214.93576 102.74302 216.27892 104.08616 216.27892 105.74302Z" fill-rule="nonzero"/><path fill="#000000" fill-opacity="0.0" clip-path="url(#id_0)" d="M222.01077 98.13461C222.01077 99.791466 220.66763 101.13461 219.01077 101.13461C217.35391 101.13461 216.01077 99.791466 216.01077 98.13461C216.01077 96.47776 217.35391 95.13461 219.01077 95.13461C220.66763 95.13461 222.01077 96.47776 222.01077 98.13461Z" fill-rule="nonzero"/><path fill="#000000" fill-opacity="0.0" clip-path="url(#id_0)" d="M227.74933 90.52478C227.74933 92.18163 226.40619 93.52478 224.74933 93.52478C223.09248 93.52478 221.74933 92.18163 221.74933 90.52478C221.74933 88.86793 223.09248 87.52478 224.74933 87.52478C226.40619 87.52478 227.74933 88.86793 227.74933 90.52478Z" fill-rule="nonzero"/><path fill="#000000" fill-opacity="0.0" clip-path="url(#id_0)" d="M233.4938 82.91351C233.4938 84.57037 232.15067 85.91351 230.4938 85.91351C228.83696 85.91351 227.4938 84.57037 227.4938 82.91351C227.4938 81.25666 228.83696 79.91351 230.4938 79.91351C232.15067 79.91351 233.4938 81.25666 233.4938 82.91351Z" fill-rule="nonzero"/><path fill="#000000" fill-opacity="0.0" clip-path="url(#id_0)" d="M239.24498 75.30077C239.24498 76.95763 237.90184 78.30077 236.24498 78.30077C234.58813 78.30077 233.24498 76.95763 233.24498 75.30077C233.24498 73.64392 234.58813 72.30077 236.24498 72.30077C237.90184 72.30077 239.24498 73.64392 239.24498 75.30077Z" fill-rule="nonzero"/><path fill="#000000" fill-opacity="0.0" clip-path="url(#id_0)" d="M245.00208 67.68655C245.00208 69.34341 243.65894 70.68655 242.00208 70.68655C240.34521 70.68655 239.00208 69.34341 239.00208 67.68655C239.00208 66.02969 240.34521 64.68655 242.00208 64.68655C243.65894 64.68655 245.00208 66.02969 245.00208 67.68655Z" fill-rule="nonzero"/><path fill="#000000" fill-opacity="0.0" clip-path="url(#id_0)" d="M250.56483 61.918926C250.56483 63.57578 249.22168 64.91893 247.56483 64.91893C245.90797 64.91893 244.56483 63.57578 244.56483 61.918926C244.56483 60.262074 245.90797 58.918926 247.56483 58.918926C249.22168 58.918926 250.56483 60.262074 250.56483 61.918926Z" fill-rule="nonzero"/><path fill="#000000" fill-opacity="0.0" clip-path="url(#id_0)" d="M255.50674 61.918926C255.50674 63.57578 254.1636 64.91893 252.50674 64.91893C250.84988 64.91893 249.50674 63.57578 249.50674 61.918926C249.50674 60.262074 250.84988 58.918926 252.50674 58.918926C254.1636 58.918926 255.50674 60.262074 255.50674 61.918926Z" fill-rule="nonzero"/><path fill="#000000" fill-opacity="0.0" clip-path="url(#id_0)" d="M260.45456 61.918926C260.45456 63.57578 259.11142 64.91893 257.45456 64.91893C255.79771 64.91893 254.45457 63.57578 254.45457 61.918926C254.45457 60.262074 255.79771 58.918926 257.45456 58.918926C259.11142 58.918926 260.45456 60.262074 260.45456 61.918926Z" fill-rule="nonzero"/><path fill="#000000" fill-opacity="0.0" clip-path="url(#id_0)" d="M265.4087 61.918926C265.4087 63.57578 264.06555 64.91893 262.4087 64.91893C260.75186 64.91893 259.4087 63.57578 259.4087 61.918926C259.4087 60.262074 260.75186 58.918926 262.4087 58.918926C264.06555 58.918926 265.4087 60.262074 265.4087 61.918926Z" fill-rule="nonzero"/><path fill="#000000" fill-opacity="0.0" clip-path="url(#id_0)" d="M270.36914 61.918926C270.36914 63.57578 269.026 64.91893 267.36914 64.91893C265.71228 64.91893 264.36914 63.57578 264.36914 61.918926C264.36914 60.262074 265.71228 58.918926 267.36914 58.918926C269.026 58.918926 270.36914 60.262074 270.36914 61.918926Z" fill-rule="nonzero"/><path fill="#000000" fill-opacity="0.0" clip-path="url(#id_0)" d="M275.33588 61.918926C275.33588 63.57578 273.99274 64.91893 272.33588 64.91893C270.67905 64.91893 269.33588 63.57578 269.33588 61.918926C269.33588 60.262074 270.67905 58.918926 272.33588 58.918926C273.99274 58.918926 275.33588 60.262074 275.33588 61.918926Z" fill-rule="nonzero"/><path fill="#000000" fill-opacity="0.0" clip-path="url(#id_0)" d="M280.30893 61.918926C280.30893 63.57578 278.9658 64.91893 277.30893 64.91893C275.6521 64.91893 274.30893 63.57578 274.30893 61.918926C274.30893 60.262074 275.6521 58.918926 277.30893 58.918926C278.9658 58.918926 280.30893 60.262074 280.30893 61.918926Z" fill-rule="nonzero"/><path fill="#000000" fill-opacity="0.0" clip-path="url(#id_0)" d="M285.2883 61.918926C285.2883 63.57578 283.94516 64.91893 282.2883 64.91893C280.63144 64.91893 279.2883 63.57578 279.2883 61.918926C279.2883 60.262074 280.63144 58.918926 282.2883 58.918926C283.94516 58.918926 285.2883 60.262074 285.2883 61.918926Z" fill-rule="nonzero"/><path fill="#000000" fill-opacity="0.0" clip-path="url(#id_0)" d="M290.27396 61.918926C290.27396 63.57578 288.93082 64.91893 287.27396 64.91893C285.61713 64.91893 284.27396 63.57578 284.27396 61.918926C284.27396 60.262074 285.61713 58.918926 287.27396 58.918926C288.93082 58.918926 290.27396 60.262074 290.27396 61.918926Z" fill-rule="nonzero"/><path fill="#000000" fill-opacity="0.0" clip-path="url(#id_0)" d="M295.26553 61.918926C295.26553 63.57578 293.9224 64.91893 292.26553 64.91893C290.6087 64.91893 289.26553 63.57578 289.26553 61.918926C289.26553 60.262074 290.6087 58.918926 292.26553 58.918926C293.9224 58.918926 295.26553 60.262074 295.26553 61.918926Z" fill-rule="nonzero"/><path fill="#000000" fill-opacity="0.0" clip-path="url(#id_0)" d="M300.26382 61.918926C300.26382 63.57578 298.9207 64.91893 297.26382 64.91893C295.60696 64.91893 294.26382 63.57578 294.26382 61.918926C294.26382 60.262074 295.60696 58.918926 297.26382 58.918926C298.9207 58.918926 300.26382 60.262074 300.26382 61.918926Z" fill-rule="nonzero"/><path fill="#000000" fill-opacity="0.0" clip-path="url(#id_0)" d="M305.2684 61.918926C305.2684 63.57578 303.92526 64.91893 302.2684 64.91893C300.61157 64.91893 299.2684 63.57578 299.2684 61.918926C299.2684 60.262074 300.61157 58.918926 302.2684 58.918926C303.92526 58.918926 305.2684 60.262074 305.2684 61.918926Z" fill-rule="nonzero"/><path fill="#000000" fill-opacity="0.0" clip-path="url(#id_0)" d="M310.2793 61.918926C310.2793 63.57578 308.93616 64.91893 307.2793 64.91893C305.62247 64.91893 304.2793 63.57578 304.2793 61.918926C304.2793 60.262074 305.62247 58.918926 307.2793 58.918926C308.93616 58.918926 310.2793 60.262074 310.2793 61.918926Z" fill-rule="nonzero"/><path fill="#000000" fill-opacity="0.0" clip-path="url(#id_0)" d="M315.2965 61.918926C315.2965 63.57578 313.95337 64.91893 312.2965 64.91893C310.63965 64.91893 309.2965 63.57578 309.2965 61.918926C309.2965 60.262074 310.63965 58.918926 312.2965 58.918926C313.95337 58.918926 315.2965 60.262074 315.2965 61.918926Z" fill-rule="nonzero"/><path fill="#000000" fill-opacity="0.0" clip-path="url(#id_0)" d="M320.3204 61.918926C320.3204 63.57578 318.97726 64.91893 317.3204 64.91893C315.66357 64.91893 314.3204 63.57578 314.3204 61.918926C314.3204 60.262074 315.66357 58.918926 317.3204 58.918926C318.97726 58.918926 320.3204 60.262074 320.3204 61.918926Z" fill-rule="nonzero"/><path fill="#000000" fill-opacity="0.0" clip-path="url(#id_0)" d="M325.35062 61.918926C325.35062 63.57578 324.00748 64.91893 322.35062 64.91893C320.69376 64.91893 319.35062 63.57578 319.35062 61.918926C319.35062 60.262074 320.69376 58.918926 322.35062 58.918926C324.00748 58.918926 325.35062 60.262074 325.35062 61.918926Z" fill-rule="nonzero"/><path fill="#000000" fill-opacity="0.0" clip-path="url(#id_0)" d="M330.38715 61.918926C330.38715 63.57578 329.044 64.91893 327.38715 64.91893C325.7303 64.91893 324.38715 63.57578 324.38715 61.918926C324.38715 60.262074 325.7303 58.918926 327.38715 58.918926C329.044 58.918926 330.38715 60.262074 330.38715 61.918926Z" fill-rule="nonzero"/><path fill="#000000" fill-opacity="0.0" clip-path="url(#id_0)" d="M335.42996 61.918926C335.42996 63.57578 334.08682 64.91893 332.42996 64.91893C330.7731 64.91893 329.42996 63.57578 329.42996 61.918926C329.42996 60.262074 330.7731 58.918926 332.42996 58.918926C334.08682 58.918926 335.42996 60.262074 335.42996 61.918926Z" fill-rule="nonzero"/><path fill="#000000" fill-opacity="0.0" clip-path="url(#id_0)" d="M340.4795 61.918926C340.4795 63.57578 339.13635 64.91893 337.4795 64.91893C335.82263 64.91893 334.4795 63.57578 334.4795 61.918926C334.4795 60.262074 335.82263 58.918926 337.4795 58.918926C339.13635 58.918926 340.4795 60.262074 340.4795 61.918926Z" fill-rule="nonzero"/><path fill="#000000" fill-opacity="0.0" clip-path="url(#id_0)" d="M345.5353 61.918926C345.5353 63.57578 344.19217 64.91893 342.5353 64.91893C340.87848 64.91893 339.5353 63.57578 339.5353 61.918926C339.5353 60.262074 340.87848 58.918926 342.5353 58.918926C344.19217 58.918926 345.5353 60.262074 345.5353 61.918926Z" fill-rule="nonzero"/><path fill="#000000" fill-opacity="0.0" clip-path="url(#id_0)" d="M350.59747 61.918926C350.59747 63.57578 349.2543 64.91893 347.59747 64.91893C345.9406 64.91893 344.59747 63.57578 344.59747 61.918926C344.59747 60.262074 345.9406 58.918926 347.59747 58.918926C349.2543 58.918926 350.59747 60.262074 350.59747 61.918926Z" fill-rule="nonzero"/><path fill="#000000" fill-opacity="0.0" clip-path="url(#id_0)" d="M355.6667 61.918926C355.6667 63.57578 354.32355 64.91893 352.6667 64.91893C351.00986 64.91893 349.6667 63.57578 349.6667 61.918926C349.6667 60.262074 351.00986 58.918926 352.6667 58.918926C354.32355 58.918926 355.6667 60.262074 355.6667 61.918926Z" fill-rule="nonzero"/><path fill="#000000" fill-opacity="0.0" clip-path="url(#id_0)" d="M360.74185 61.918926C360.74185 63.57578 359.3987 64.91893 357.74185 64.91893C356.085 64.91893 354.74185 63.57578 354.74185 61.918926C354.74185 60.262074 356.085 58.918926 357.74185 58.918926C359.3987 58.918926 360.74185 60.262074 360.74185 61.918926Z" fill-rule="nonzero"/><path fill="#000000" fill-opacity="0.0" clip-path="url(#id_0)" d="M365.8241 61.918926C365.8241 63.57578 364.48093 64.91893 362.8241 64.91893C361.16724 64.91893 359.8241 63.57578 359.8241 61.918926C359.8241 60.262074 361.16724 58.918926 362.8241 58.918926C364.48093 58.918926 365.8241 60.262074 365.8241 61.918926Z" fill-rule="nonzero"/><path fill="#000000" fill-opacity="0.0" clip-path="url(#id_0)" d="M370.91263 61.918926C370.91263 63.57578 369.5695 64.91893 367.91263 64.91893C366.25577 64.91893 364.91263 63.57578 364.91263 61.918926C364.91263 60.262074 366.25577 58.918926 367.91263 58.918926C369.5695 58.918926 370.91263 60.262074 370.91263 61.918926Z" fill-rule="nonzero"/><path fill="#000000" fill-opacity="0.0" clip-path="url(#id_0)" d="M376.0075 61.918926C376.0075 63.57578 374.66434 64.91893 373.0075 64.91893C371.35065 64.91893 370.0075 63.57578 370.0075 61.918926C370.0075 60.262074 371.35065 58.918926 373.0075 58.918926C374.66434 58.918926 376.0075 60.262074 376.0075 61.918926Z" fill-rule="nonzero"/><path fill="#000000" fill-opacity="0.0" clip-path="url(#id_0)" d="M381.10944 61.918926C381.10944 63.57578 379.7663 64.91893 378.10944 64.91893C376.45258 64.91893 375.10944 63.57578 375.10944 61.918926C375.10944 60.262074 376.45258 58.918926 378.10944 58.918926C379.7663 58.918926 381.10944 60.262074 381.10944 61.918926Z" fill-rule="nonzero"/><path fill="#000000" fill-opacity="0.0" clip-path="url(#id_0)" d="M386.2177 61.918926C386.2177 63.57578 384.87457 64.91893 383.2177 64.91893C381.56085 64.91893 380.2177 63.57578 380.2177 61.918926C380.2177 60.262074 381.56085 58.918926 383.2177 58.918926C384.87457 58.918926 386.2177 60.262074 386.2177 61.918926Z" fill-rule="nonzero"/><path fill="#000000" fill-opacity="0.0" clip-path="url(#id_0)" d="M391.33267 61.918926C391.33267 63.57578 389.98953 64.91893 388.33267 64.91893C386.6758 64.91893 385.33267 63.57578 385.33267 61.918926C385.33267 60.262074 386.6758 58.918926 388.33267 58.918926C389.98953 58.918926 391.33267 60.262074 391.33267 61.918926Z" fill-rule="nonzero"/><path fill="#000000" fill-opacity="0.0" clip-path="url(#id_0)" d="M396.4543 61.918926C396.4543 63.57578 395.11118 64.91893 393.4543 64.91893C391.7975 64.91893 390.4543 63.57578 390.4543 61.918926C390.4543 60.262074 391.7975 58.918926 393.4543 58.918926C395.11118 58.918926 396.4543 60.262074 396.4543 61.918926Z" fill-rule="nonzero"/><path fill="#000000" fill-opacity="0.0" clip-path="url(#id_0)" d="M401.5823 61.918926C401.5823 63.57578 400.23914 64.91893 398.5823 64.91893C396.92545 64.91893 395.5823 63.57578 395.5823 61.918926C395.5823 60.262074 396.92545 58.918926 398.5823 58.918926C400.23914 58.918926 401.5823 60.262074 401.5823 61.918926Z" fill-rule="nonzero"/><path fill="#000000" fill-opacity="0.0" clip-path="url(#id_0)" d="M406.71735 61.918926C406.71735 63.57578 405.3742 64.91893 403.71735 64.91893C402.06052 64.91893 400.71735 63.57578 400.71735 61.918926C400.71735 60.262074 402.06052 58.918926 403.71735 58.918926C405.3742 58.918926 406.71735 60.262074 406.71735 61.918926Z" fill-rule="nonzero"/><path fill="#000000" fill-opacity="0.0" clip-path="url(#id_0)" d="M411.85913 61.918926C411.85913 63.57578 410.516 64.91893 408.85913 64.91893C407.20227 64.91893 405.85913 63.57578 405.85913 61.918926C405.85913 60.262074 407.20227 58.918926 408.85913 58.918926C410.516 58.918926 411.85913 60.262074 411.85913 61.918926Z" fill-rule="nonzero"/><path fill="#000000" fill-opacity="0.0" clip-path="url(#id_0)" d="M417.0072 61.918926C417.0072 63.57578 415.66406 64.91893 414.0072 64.91893C412.35034 64.91893 411.0072 63.57578 411.0072 61.918926C411.0072 60.262074 412.35034 58.918926 414.0072 58.918926C415.66406 58.918926 417.0072 60.262074 417.0072 61.918926Z" fill-rule="nonzero"/><path fill="#000000" fill-opacity="0.0" clip-path="url(#id_0)" d="M422.16235 61.918926C422.16235 63.57578 420.8192 64.91893 419.16235 64.91893C417.5055 64.91893 416.16235 63.57578 416.16235 61.918926C416.16235 60.262074 417.5055 58.918926 419.16235 58.918926C420.8192 58.918926 422.16235 60.262074 422.16235 61.918926Z" fill-rule="nonzero"/><path fill="#000000" fill-opacity="0.0" clip-path="url(#id_0)" d="M427.32422 61.918926C427.32422 63.57578 425.98108 64.91893 424.32422 64.91893C422.6674 64.91893 421.32422 63.57578 421.32422 61.918926C421.32422 60.262074 422.6674 58.918926 424.32422 58.918926C425.98108 58.918926 427.32422 60.262074 427.32422 61.918926Z" fill-rule="nonzero"/><path fill="#000000" fill-opacity="0.0" clip-path="url(#id_0)" d="M432.4928 61.918926C432.4928 63.57578 431.14966 64.91893 429.4928 64.91893C427.83594 64.91893 426.4928 63.57578 426.4928 61.918926C426.4928 60.262074 427.83594 58.918926 429.4928 58.918926C431.14966 58.918926 432.4928 60.262074 432.4928 61.918926Z" fill-rule="nonzero"/><path fill="#000000" fill-opacity="0.0" clip-path="url(#id_0)" d="M437.66846 61.918926C437.66846 63.57578 436.32532 64.91893 434.66846 64.91893C433.0116 64.91893 431.66846 63.57578 431.66846 61.918926C431.66846 60.262074 433.0116 58.918926 434.66846 58.918926C436.32532 58.918926 437.66846 60.262074 437.66846 61.918926Z" fill-rule="nonzero"/><path fill="#000000" fill-opacity="0.0" clip-path="url(#id_0)" d="M442.85043 61.918926C442.85043 63.57578 441.5073 64.91893 439.85043 64.91893C438.19357 64.91893 436.85043 63.57578 436.85043 61.918926C436.85043 60.262074 438.19357 58.918926 439.85043 58.918926C441.5073 58.918926 442.85043 60.262074 442.85043 61.918926Z" fill-rule="nonzero"/><path fill="#000000" fill-opacity="0.0" clip-path="url(#id_0)" d="M448.0395 61.918926C448.0395 63.57578 446.69635 64.91893 445.0395 64.91893C443.38266 64.91893 442.0395 63.57578 442.0395 61.918926C442.0395 60.262074 443.38266 58.918926 445.0395 58.918926C446.69635 58.918926 448.0395 60.262074 448.0395 61.918926Z" fill-rule="nonzero"/><path fill="#000000" fill-opacity="0.0" clip-path="url(#id_0)" d="M453.23526 61.918926C453.23526 63.57578 451.89212 64.91893 450.23526 64.91893C448.57843 64.91893 447.23526 63.57578 447.23526 61.918926C447.23526 60.262074 448.57843 58.918926 450.23526 58.918926C451.89212 58.918926 453.23526 60.262074 453.23526 61.918926Z" fill-rule="nonzero"/><path fill="#000000" fill-opacity="0.0" clip-path="url(#id_0)" d="M458.43814 61.918926C458.43814 63.57578 457.095 64.91893 455.43814 64.91893C453.78128 64.91893 452.43814 63.57578 452.43814 61.918926C452.43814 60.262074 453.78128 58.918926 455.43814 58.918926C457.095 58.918926 458.43814 60.262074 458.43814 61.918926Z" fill-rule="nonzero"/><path fill="#000000" fill-opacity="0.0" clip-path="url(#id_0)" d="M463.6477 61.918926C463.6477 63.57578 462.30457 64.91893 460.6477 64.91893C458.99084 64.91893 457.6477 63.57578 457.6477 61.918926C457.6477 60.262074 458.99084 58.918926 460.6477 58.918926C462.30457 58.918926 463.6477 60.262074 463.6477 61.918926Z" fill-rule="nonzero"/><path fill="#000000" fill-opacity="0.0" clip-path="url(#id_0)" d="M468.86395 61.918926C468.86395 63.57578 467.5208 64.91893 465.86395 64.91893C464.20712 64.91893 462.86395 63.57578 462.86395 61.918926C462.86395 60.262074 464.20712 58.918926 465.86395 58.918926C467.5208 58.918926 468.86395 60.262074 468.86395 61.918926Z" fill-rule="nonzero"/><path fill="#000000" fill-opacity="0.0" clip-path="url(#id_0)" d="M474.0877 61.918926C474.0877 63.57578 472.74457 64.91893 471.0877 64.91893C469.43088 64.91893 468.0877 63.57578 468.0877 61.918926C468.0877 60.262074 469.43088 58.918926 471.0877 58.918926C472.74457 58.918926 474.0877 60.262074 474.0877 61.918926Z" fill-rule="nonzero"/><path fill="#000000" fill-opacity="0.0" clip-path="url(#id_0)" d="M479.3166 61.918926C479.3166 63.57578 477.97345 64.91893 476.3166 64.91893C474.65976 64.91893 473.3166 63.57578 473.3166 61.918926C473.3166 60.262074 474.65976 58.918926 476.3166 58.918926C477.97345 58.918926 479.3166 60.262074 479.3166 61.918926Z" fill-rule="nonzero"/><path fill="#000000" fill-opacity="0.0" clip-path="url(#id_0)" d="M484.55533 61.918926C484.55533 63.57578 483.2122 64.91893 481.55533 64.91893C479.89847 64.91893 478.55533 63.57578 478.55533 61.918926C478.55533 60.262074 479.89847 58.918926 481.55533 58.918926C483.2122 58.918926 484.55533 60.262074 484.55533 61.918926Z" fill-rule="nonzero"/><path fill="#000000" fill-opacity="0.0" clip-path="url(#id_0)" d="M489.798 61.918926C489.798 63.57578 488.45486 64.91893 486.798 64.91893C485.14114 64.91893 483.798 63.57578 483.798 61.918926C483.798 60.262074 485.14114 58.918926 486.798 58.918926C488.45486 58.918926 489.798 60.262074 489.798 61.918926Z" fill-rule="nonzero"/><path fill="#000000" fill-opacity="0.0" clip-path="url(#id_0)" d="M495.05252 61.918926C495.05252 63.57578 493.70938 64.91893 492.05252 64.91893C490.39566 64.91893 489.05252 63.57578 489.05252 61.918926C489.05252 60.262074 490.39566 58.918926 492.05252 58.918926C493.70938 58.918926 495.05252 60.262074 495.05252 61.918926Z" fill-rule="nonzero"/><path fill="#000000" fill-opacity="0.0" clip-path="url(#id_0)" d="M500.307 61.918926C500.307 63.57578 498.96387 64.91893 497.307 64.91893C495.65015 64.91893 494.307 63.57578 494.307 61.918926C494.307 60.262074 495.65015 58.918926 497.307 58.918926C498.96387 58.918926 500.307 60.262074 500.307 61.918926Z" fill-rule="nonzero"/><path fill="#000000" fill-opacity="0.0" clip-path="url(#id_0)" d="M505.57333 61.918926C505.57333 63.57578 504.2302 64.91893 502.57333 64.91893C500.91647 64.91893 499.57333 63.57578 499.57333 61.918926C499.57333 60.262074 500.91647 58.918926 502.57333 58.918926C504.2302 58.918926 505.57333 60.262074 505.57333 61.918926Z" fill-rule="nonzero"/><path fill="#000000" fill-opacity="0.0" clip-path="url(#id_0)" d="M510.84756 61.918926C510.84756 63.57578 509.5044 64.91893 507.84756 64.91893C506.1907 64.91893 504.84756 63.57578 504.84756 61.918926C504.84756 60.262074 506.1907 58.918926 507.84756 58.918926C509.5044 58.918926 510.84756 60.262074 510.84756 61.918926Z" fill-rule="nonzero"/><path fill="#000000" fill-opacity="0.0" clip-path="url(#id_0)" d="M516.12573 61.918926C516.12573 63.57578 514.78253 64.91893 513.12573 64.91893C511.46884 64.91893 510.1257 63.57578 510.1257 61.918926C510.1257 60.262074 511.46884 58.918926 513.12573 58.918926C514.78253 58.918926 516.12573 60.262074 516.12573 61.918926Z" fill-rule="nonzero"/><path fill="#000000" fill-opacity="0.0" clip-path="url(#id_0)" d="M521.41174 61.918926C521.41174 63.57578 520.0686 64.91893 518.41174 64.91893C516.7549 64.91893 515.41174 63.57578 515.41174 61.918926C515.41174 60.262074 516.7549 58.918926 518.41174 58.918926C520.0686 58.918926 521.41174 60.262074 521.41174 61.918926Z" fill-rule="nonzero"/><path fill="#000000" fill-opacity="0.0" clip-path="url(#id_0)" d="M526.7057 61.918926C526.7057 63.57578 525.36255 64.91893 523.7057 64.91893C522.0488 64.91893 520.7057 63.57578 520.7057 61.918926C520.7057 60.262074 522.0488 58.918926 523.7057 58.918926C525.36255 58.918926 526.7057 60.262074 526.7057 61.918926Z" fill-rule="nonzero"/><path fill="#000000" fill-opacity="0.0" clip-path="url(#id_0)" d="M532.00745 61.918926C532.00745 63.57578 530.6643 64.91893 529.00745 64.91893C527.3506 64.91893 526.00745 63.57578 526.00745 61.918926C526.00745 60.262074 527.3506 58.918926 529.00745 58.918926C530.6643 58.918926 532.00745 60.262074 532.00745 61.918926Z" fill-rule="nonzero"/><path fill="#000000" fill-opacity="0.0" clip-path="url(#id_0)" d="M537.31323 61.918926C537.31323 63.57578 535.9701 64.91893 534.31323 64.91893C532.6564 64.91893 531.31323 63.57578 531.31323 61.918926C531.31323 60.262074 532.6564 58.918926 534.31323 58.918926C535.9701 58.918926 537.31323 60.262074 537.31323 61.918926Z" fill-rule="nonzero"/><path fill="#000000" fill-opacity="0.0" clip-path="url(#id_0)" d="M542.6308 61.918926C542.6308 63.57578 541.28766 64.91893 539.6308 64.91893C537.97394 64.91893 536.6308 63.57578 536.6308 61.918926C536.6308 60.262074 537.97394 58.918926 539.6308 58.918926C541.28766 58.918926 542.6308 60.262074 542.6308 61.918926Z" fill-rule="nonzero"/><path fill="#000000" fill-opacity="0.0" clip-path="url(#id_0)" d="M547.9523 61.918926C547.9523 63.57578 546.60913 64.91893 544.9523 64.91893C543.2955 64.91893 541.9523 63.57578 541.9523 61.918926C541.9523 60.262074 543.2955 58.918926 544.9523 58.918926C546.60913 58.918926 547.9523 60.262074 547.9523 61.918926Z" fill-rule="nonzero"/><path fill="#000000" fill-opacity="0.0" clip-path="url(#id_0)" d="M553.2817 61.918926C553.2817 63.57578 551.93854 64.91893 550.2817 64.91893C548.6248 64.91893 547.2817 63.57578 547.2817 61.918926C547.2817 60.262074 548.6248 58.918926 550.2817 58.918926C551.93854 58.918926 553.2817 60.262074 553.2817 61.918926Z" fill-rule="nonzero"/><path fill="#000000" fill-opacity="0.0" clip-path="url(#id_0)" d="M558.61896 61.918926C558.61896 63.57578 557.2758 64.91893 555.61896 64.91893C553.9621 64.91893 552.61896 63.57578 552.61896 61.918926C552.61896 60.262074 553.9621 58.918926 555.61896 58.918926C557.2758 58.918926 558.61896 60.262074 558.61896 61.918926Z" fill-rule="nonzero"/><path fill="#000000" fill-opacity="0.0" clip-path="url(#id_0)" d="M563.9602 61.918926C563.9602 63.57578 562.61707 64.91893 560.9602 64.91893C559.30334 64.91893 557.9602 63.57578 557.9602 61.918926C557.9602 60.262074 559.30334 58.918926 560.9602 58.918926C562.61707 58.918926 563.9602 60.262074 563.9602 61.918926Z" fill-rule="nonzero"/><path fill="#000000" fill-opacity="0.0" clip-path="url(#id_0)" d="M569.31323 61.918926C569.31323 63.57578 567.9701 64.91893 566.31323 64.91893C564.6564 64.91893 563.31323 63.57578 563.31323 61.918926C563.31323 60.262074 564.6564 58.918926 566.31323 58.918926C567.9701 58.918926 569.31323 60.262074 569.31323 61.918926Z" fill-rule="nonzero"/><path fill="#000000" fill-opacity="0.0" clip-path="url(#id_0)" d="M574.6702 61.918926C574.6702 63.57578 573.3271 64.91893 571.6702 64.91893C570.01337 64.91893 568.6702 63.57578 568.6702 61.918926C568.6702 60.262074 570.01337 58.918926 571.6702 58.918926C573.3271 58.918926 574.6702 60.262074 574.6702 61.918926Z" fill-rule="nonzero"/><path fill="#000000" fill-opacity="0.0" clip-path="url(#id_0)" d="M580.0351 61.918926C580.0351 63.57578 578.69196 64.91893 577.0351 64.91893C575.37823 64.91893 574.0351 63.57578 574.0351 61.918926C574.0351 60.262074 575.37823 58.918926 577.0351 58.918926C578.69196 58.918926 580.0351 60.262074 580.0351 61.918926Z" fill-rule="nonzero"/><path fill="#000000" fill-opacity="0.0" clip-path="url(#id_0)" d="M584.45 61.918926C584.45 63.57578 583.1069 64.91893 581.45 64.91893C579.79315 64.91893 578.45 63.57578 578.45 61.918926C578.45 60.262074 579.79315 58.918926 581.45 58.918926C583.1069 58.918926 584.45 60.262074 584.45 61.918926Z" fill-rule="nonzero"/><path fill="#000000" d="M297.875 349.45L297.875 348.52814Q297.14062 349.59064 295.89062 349.59064Q295.34375 349.59064 294.85938 349.3875Q294.39062 349.16876 294.15625 348.85626Q293.92188 348.52814 293.82812 348.0594Q293.76562 347.7625 293.76562 347.075L293.76562 343.23126L294.82812 343.23126L294.82812 346.6844Q294.82812 347.4969 294.89062 347.79376Q294.98438 348.2 295.29688 348.45Q295.625 348.6844 296.10938 348.6844Q296.57812 348.6844 296.98438 348.45Q297.40625 348.2 297.57812 347.77814Q297.76562 347.35626 297.76562 346.5594L297.76562 343.23126L298.8125 343.23126L298.8125 349.45L297.875 349.45ZM302.8125 351.98126Q301.9375 350.8719 301.32812 349.40314Q300.73438 347.91876 300.73438 346.34064Q300.73438 344.95 301.17188 343.66876Q301.70312 342.1844 302.8125 340.71564L303.5625 340.71564Q302.85938 341.9344 302.625 342.45Q302.26562 343.2625 302.0625 344.1375Q301.8125 345.23126 301.8125 346.34064Q301.8125 349.16876 303.5625 351.98126L302.8125 351.98126ZM304.79688 349.45L304.79688 343.23126L305.73438 343.23126L305.73438 344.10626Q306.42188 343.09064 307.71875 343.09064Q308.28125 343.09064 308.75 343.29376Q309.23438 343.4969 309.46875 343.825Q309.70312 344.15314 309.79688 344.59064Q309.84375 344.8875 309.84375 345.6219L309.84375 349.45L308.79688 349.45L308.79688 345.66876Q308.79688 345.0125 308.67188 344.7Q308.54688 344.3875 308.23438 344.2Q307.92188 343.9969 307.5 343.9969Q306.82812 343.9969 306.32812 344.4344Q305.84375 344.85626 305.84375 346.04376L305.84375 349.45L304.79688 349.45ZM311.79688 349.45L311.79688 343.23126L312.73438 343.23126L312.73438 344.10626Q313.42188 343.09064 314.71875 343.09064Q315.28125 343.09064 315.75 343.29376Q316.23438 343.4969 316.46875 343.825Q316.70312 344.15314 316.79688 344.59064Q316.84375 344.8875 316.84375 345.6219L316.84375 349.45L315.79688 349.45L315.79688 345.66876Q315.79688 345.0125 315.67188 344.7Q315.54688 344.3875 315.23438 344.2Q314.92188 343.9969 314.5 343.9969Q313.82812 343.9969 313.32812 344.4344Q312.84375 344.85626 312.84375 346.04376L312.84375 349.45L311.79688 349.45ZM319.48438 351.98126L318.73438 351.98126Q320.48438 349.16876 320.48438 346.34064Q320.48438 345.2469 320.23438 344.15314Q320.03125 343.27814 319.67188 342.46564Q319.4375 341.95 318.73438 340.71564L319.48438 340.71564Q320.57812 342.1844 321.10938 343.66876Q321.5625 344.95 321.5625 346.34064Q321.5625 347.91876 320.95312 349.40314Q320.34375 350.8719 319.48438 351.98126ZM325.8125 351.84064L325.8125 340.85626L328.14062 340.85626L328.14062 341.73126L326.875 341.73126L326.875 350.96564L328.14062 350.96564L328.14062 351.84064L325.8125 351.84064ZM328.79688 342.075L328.79688 340.85626L329.85938 340.85626L329.85938 342.075L328.79688 342.075ZM328.79688 349.45L328.79688 343.23126L329.85938 343.23126L329.85938 349.45L328.79688 349.45ZM331.79688 349.45L331.79688 343.23126L332.73438 343.23126L332.73438 344.10626Q333.42188 343.09064 334.71875 343.09064Q335.28125 343.09064 335.75 343.29376Q336.23438 343.4969 336.46875 343.825Q336.70312 344.15314 336.79688 344.59064Q336.84375 344.8875 336.84375 345.6219L336.84375 349.45L335.79688 349.45L335.79688 345.66876Q335.79688 345.0125 335.67188 344.7Q335.54688 344.3875 335.23438 344.2Q334.92188 343.9969 334.5 343.9969Q333.82812 343.9969 333.32812 344.4344Q332.84375 344.85626 332.84375 346.04376L332.84375 349.45L331.79688 349.45ZM341.79688 349.45L341.79688 343.23126L342.73438 343.23126L342.73438 344.10626Q343.03125 343.6375 343.51562 343.3719Q344.0 343.09064 344.625 343.09064Q345.3125 343.09064 345.75 343.3719Q346.20312 343.65314 346.375 344.16876Q347.125 343.09064 348.29688 343.09064Q349.23438 343.09064 349.71875 343.60626Q350.21875 344.10626 350.21875 345.1844L350.21875 349.45L349.17188 349.45L349.17188 345.52814Q349.17188 344.90314 349.0625 344.6219Q348.96875 344.34064 348.70312 344.16876Q348.4375 343.9969 348.0625 343.9969Q347.40625 343.9969 346.96875 344.4344Q346.54688 344.8719 346.54688 345.84064L346.54688 349.45L345.48438 349.45L345.48438 345.40314Q345.48438 344.7 345.21875 344.35626Q344.96875 343.9969 344.39062 343.9969Q343.9375 343.9969 343.5625 344.23126Q343.1875 344.46564 343.01562 344.91876Q342.84375 345.3719 342.84375 346.21564L342.84375 349.45L341.79688 349.45ZM352.79688 349.45L352.79688 343.23126L353.73438 343.23126L353.73438 344.10626Q354.03125 343.6375 354.51562 343.3719Q355.0 343.09064 355.625 343.09064Q356.3125 343.09064 356.75 343.3719Q357.20312 343.65314 357.375 344.16876Q358.125 343.09064 359.29688 343.09064Q360.23438 343.09064 360.71875 343.60626Q361.21875 344.10626 361.21875 345.1844L361.21875 349.45L360.17188 349.45L360.17188 345.52814Q360.17188 344.90314 360.0625 344.6219Q359.96875 344.34064 359.70312 344.16876Q359.4375 343.9969 359.0625 343.9969Q358.40625 343.9969 357.96875 344.4344Q357.54688 344.8719 357.54688 345.84064L357.54688 349.45L356.48438 349.45L356.48438 345.40314Q356.48438 344.7 356.21875 344.35626Q355.96875 343.9969 355.39062 343.9969Q354.9375 343.9969 354.5625 344.23126Q354.1875 344.46564 354.01562 344.91876Q353.84375 345.3719 353.84375 346.21564L353.84375 349.45L352.79688 349.45ZM365.5625 351.84064L363.23438 351.84064L363.23438 350.96564L364.5 350.96564L364.5 341.73126L363.23438 341.73126L363.23438 340.85626L365.5625 340.85626L365.5625 351.84064Z" fill-rule="nonzero"/><path fill="#000000" d="M27.690638 229.80833L27.534388 228.77708Q28.159388 228.68333 28.487513 228.29271Q28.815638 227.88646 28.815638 227.15208Q28.815638 226.43333 28.534388 226.08958Q28.237513 225.73021 27.831263 225.73021Q27.471888 225.73021 27.268763 226.04271Q27.128138 226.26146 26.909388 227.12083Q26.612513 228.27708 26.409388 228.73021Q26.190638 229.16771 25.815638 229.40208Q25.440638 229.63646 24.971888 229.63646Q24.565638 229.63646 24.206263 229.44896Q23.846888 229.26146 23.612513 228.93333Q23.440638 228.68333 23.315638 228.26146Q23.190638 227.83958 23.190638 227.33958Q23.190638 226.62083 23.409388 226.07396Q23.612513 225.51146 23.971888 225.24583Q24.331263 224.98021 24.925013 224.88646L25.065638 225.91771Q24.596888 225.98021 24.331263 226.32396Q24.050013 226.65208 24.050013 227.27708Q24.050013 227.99583 24.300013 228.30833Q24.534388 228.62083 24.862513 228.62083Q25.065638 228.62083 25.221888 228.49583Q25.393763 228.35521 25.503138 228.08958Q25.565638 227.93333 25.768763 227.15208Q26.081263 226.02708 26.268763 225.58958Q26.456263 225.15208 26.815638 224.90208Q27.175013 224.65208 27.721888 224.65208Q28.253138 224.65208 28.721888 224.96458Q29.175013 225.26146 29.440638 225.83958Q29.690638 226.41771 29.690638 227.15208Q29.690638 228.37083 29.190638 229.01146Q28.675013 229.63646 27.690638 229.80833ZM22.175013 222.38646L20.956263 222.38646L20.956263 221.32396L22.175013 221.32396L22.175013 222.38646ZM29.550013 222.38646L23.331263 222.38646L23.331263 221.32396L29.550013 221.32396L29.550013 222.38646ZM30.065638 219.58958L30.221888 218.55833Q30.690638 218.49583 30.909388 218.19896Q31.206263 217.80833 31.206263 217.13646Q31.206263 216.40208 30.909388 216.01146Q30.612513 215.60521 30.096888 215.46458Q29.768763 215.37083 28.737513 215.38646Q29.550013 216.07396 29.550013 217.10521Q29.550013 218.38646 28.628138 219.08958Q27.690638 219.79271 26.409388 219.79271Q25.518763 219.79271 24.768763 219.48021Q24.003138 219.15208 23.596888 218.54271Q23.190638 217.93333 23.190638 217.10521Q23.190638 215.99583 24.081263 215.27708L23.331263 215.27708L23.331263 214.30833L28.706263 214.30833Q30.159388 214.30833 30.768763 214.60521Q31.378138 214.90208 31.721888 215.54271Q32.08126 216.18333 32.08126 217.12083Q32.08126 218.23021 31.581263 218.91771Q31.081263 219.60521 30.065638 219.58958ZM26.331263 218.71458Q27.550013 218.71458 28.112513 218.23021Q28.675013 217.74583 28.675013 217.01146Q28.675013 216.27708 28.112513 215.79271Q27.550013 215.29271 26.362513 215.29271Q25.221888 215.29271 24.643763 215.80833Q24.065638 216.30833 24.065638 217.02708Q24.065638 217.73021 24.643763 218.23021Q25.206263 218.71458 26.331263 218.71458ZM26.534388 206.12083L26.831263 204.99583Q28.221888 205.35521 28.956263 206.27708Q29.690638 207.19896 29.690638 208.54271Q29.690638 209.93333 29.128138 210.80833Q28.565638 211.68333 27.503138 212.13646Q26.425013 212.58958 25.190638 212.58958Q23.846888 212.58958 22.846888 212.07396Q21.846888 211.55833 21.331263 210.62083Q20.815638 209.66771 20.815638 208.52708Q20.815638 207.24583 21.471888 206.37083Q22.128138 205.48021 23.315638 205.13646L23.581263 206.26146Q22.643763 206.55833 22.221888 207.13646Q21.784388 207.69896 21.784388 208.55833Q21.784388 209.54271 22.268763 210.21458Q22.737513 210.87083 23.534388 211.15208Q24.331263 211.41771 25.190638 211.41771Q26.284388 211.41771 27.096888 211.10521Q27.909388 210.77708 28.315638 210.10521Q28.721888 209.43333 28.721888 208.63646Q28.721888 207.68333 28.175013 207.02708Q27.628138 206.35521 26.534388 206.12083ZM29.550013 203.40208L23.331263 203.40208L23.331263 202.44896L24.268763 202.44896Q23.612513 202.08958 23.409388 201.79271Q23.190638 201.48021 23.190638 201.10521Q23.190638 200.57396 23.518763 200.02708L24.503138 200.38646Q24.268763 200.77708 24.268763 201.15208Q24.268763 201.51146 24.487513 201.79271Q24.690638 202.05833 25.065638 202.16771Q25.628138 202.35521 26.284388 202.35521L29.550013 202.35521L29.550013 203.40208ZM32.08126 197.37083Q30.971888 198.24583 29.503138 198.85521Q28.018763 199.44896 26.440638 199.44896Q25.050013 199.44896 23.768763 199.01146Q22.284388 198.48021 20.815638 197.37083L20.815638 196.62083Q22.034388 197.32396 22.550013 197.55833Q23.362513 197.91771 24.237513 198.12083Q25.331263 198.37083 26.440638 198.37083Q29.268763 198.37083 32.08126 196.62083L32.08126 197.37083ZM29.550013 195.38646L23.331263 195.38646L23.331263 194.44896L24.206263 194.44896Q23.190638 193.76146 23.190638 192.46458Q23.190638 191.90208 23.393763 191.43333Q23.596888 190.94896 23.925013 190.71458Q24.253138 190.48021 24.690638 190.38646Q24.987513 190.33958 25.721888 190.33958L29.550013 190.33958L29.550013 191.38646L25.768763 191.38646Q25.112513 191.38646 24.800013 191.51146Q24.487513 191.63646 24.300013 191.94896Q24.096888 192.26146 24.096888 192.68333Q24.096888 193.35521 24.534388 193.85521Q24.956263 194.33958 26.143763 194.33958L29.550013 194.33958L29.550013 195.38646ZM29.550013 188.38646L23.331263 188.38646L23.331263 187.44896L24.206263 187.44896Q23.190638 186.76146 23.190638 185.46458Q23.190638 184.90208 23.393763 184.43333Q23.596888 183.94896 23.925013 183.71458Q24.253138 183.48021 24.690638 183.38646Q24.987513 183.33958 25.721888 183.33958L29.550013 183.33958L29.550013 184.38646L25.768763 184.38646Q25.112513 184.38646 24.800013 184.51146Q24.487513 184.63646 24.300013 184.94896Q24.096888 185.26146 24.096888 185.68333Q24.096888 186.35521 24.534388 186.85521Q24.956263 187.33958 26.143763 187.33958L29.550013 187.33958L29.550013 188.38646ZM32.08126 180.69896L32.08126 181.44896Q29.268763 179.69896 26.440638 179.69896Q25.346888 179.69896 24.253138 179.94896Q23.378138 180.15208 22.565638 180.51146Q22.050013 180.74583 20.815638 181.44896L20.815638 180.69896Q22.284388 179.60521 23.768763 179.07396Q25.050013 178.62083 26.440638 178.62083Q28.018763 178.62083 29.503138 179.23021Q30.971888 179.83958 32.08126 180.69896ZM31.940638 174.37083L20.956263 174.37083L20.956263 172.04271L21.831263 172.04271L21.831263 173.30833L31.065638 173.30833L31.065638 172.04271L31.940638 172.04271L31.940638 174.37083ZM29.550013 171.29271L20.956263 171.29271L20.956263 169.57396L27.034388 167.54271Q27.893763 167.26146 28.315638 167.13646Q27.846888 166.99583 26.940638 166.68333L20.956263 164.62083L20.956263 163.08958L29.550013 163.08958L29.550013 164.18333L22.362513 164.18333L29.550013 166.68333L29.550013 167.71458L22.237513 170.19896L29.550013 170.19896L29.550013 171.29271ZM29.550013 162.26146L20.956263 162.26146L20.956263 159.01146Q20.956263 158.16771 21.034388 157.71458Q21.143763 157.07396 21.440638 156.65208Q21.737513 156.21458 22.268763 155.96458Q22.800013 155.69896 23.440638 155.69896Q24.534388 155.69896 25.300013 156.40208Q26.050013 157.08958 26.050013 158.91771L26.050013 161.12083L29.550013 161.12083L29.550013 162.26146ZM25.050013 161.12083L25.050013 158.90208Q25.050013 157.79271 24.643763 157.33958Q24.221888 156.87083 23.471888 156.87083Q22.940638 156.87083 22.565638 157.15208Q22.175013 157.41771 22.050013 157.85521Q21.971888 158.15208 21.971888 158.91771L21.971888 161.12083L25.050013 161.12083ZM28.784388 150.32396Q29.284388 150.91771 29.487513 151.46458Q29.690638 151.99583 29.690638 152.62083Q29.690638 153.65208 29.190638 154.19896Q28.690638 154.74583 27.909388 154.74583Q27.456263 154.74583 27.081263 154.54271Q26.690638 154.33958 26.471888 153.99583Q26.237513 153.65208 26.128138 153.23021Q26.034388 152.93333 25.956263 152.29271Q25.815638 151.02708 25.596888 150.41771Q25.378138 150.41771 25.331263 150.41771Q24.675013 150.41771 24.409388 150.71458Q24.065638 151.12083 24.065638 151.91771Q24.065638 152.65208 24.331263 153.01146Q24.581263 153.37083 25.237513 153.54271L25.096888 154.57396Q24.440638 154.43333 24.034388 154.10521Q23.628138 153.77708 23.409388 153.16771Q23.190638 152.55833 23.190638 151.76146Q23.190638 150.96458 23.378138 150.46458Q23.565638 149.96458 23.846888 149.73021Q24.128138 149.49583 24.565638 149.40208Q24.831263 149.35521 25.534388 149.35521L26.940638 149.35521Q28.409388 149.35521 28.800013 149.29271Q29.190638 149.21458 29.550013 149.01146L29.550013 150.12083Q29.221888 150.27708 28.784388 150.32396ZM26.425013 150.41771Q26.659388 150.99583 26.831263 152.13646Q26.925013 152.79271 27.050013 153.05833Q27.159388 153.32396 27.378138 153.48021Q27.596888 153.62083 27.878138 153.62083Q28.300013 153.62083 28.581263 153.30833Q28.862513 152.98021 28.862513 152.37083Q28.862513 151.76146 28.596888 151.29271Q28.331263 150.80833 27.862513 150.58958Q27.503138 150.41771 26.815638 150.41771L26.425013 150.41771ZM31.940638 145.62083L31.940638 147.94896L31.065638 147.94896L31.065638 146.68333L21.831263 146.68333L21.831263 147.94896L20.956263 147.94896L20.956263 145.62083L31.940638 145.62083Z" fill-rule="nonzero"/><path fill="#000000" d="M53.925 301.8719L53.925 300.8094L57.175 300.8094L57.175 301.8719L53.925 301.8719ZM58.05 302.2L59.159374 302.10626Q59.284374 302.91876 59.721874 303.325Q60.175 303.73126 60.815624 303.73126Q61.565624 303.73126 62.096874 303.15314Q62.628124 302.575 62.628124 301.6375Q62.628124 300.73126 62.1125 300.21564Q61.6125 299.6844 60.784374 299.6844Q60.284374 299.6844 59.8625 299.91876Q59.45625 300.15314 59.221874 300.5125L58.2375 300.3875L59.065624 295.98126L63.346874 295.98126L63.346874 296.98126L59.909374 296.98126L59.45625 299.29376Q60.221874 298.7469 61.065624 298.7469Q62.190624 298.7469 62.95625 299.52814Q63.7375 300.3094 63.7375 301.54376Q63.7375 302.7 63.065624 303.5594Q62.2375 304.59064 60.815624 304.59064Q59.64375 304.59064 58.89375 303.9344Q58.159374 303.27814 58.05 302.2ZM65.05 300.21564Q65.05 298.6844 65.3625 297.7625Q65.675 296.825 66.28438 296.325Q66.90938 295.825 67.84688 295.825Q68.53438 295.825 69.05 296.10626Q69.58125 296.3875 69.925 296.91876Q70.26875 297.4344 70.45625 298.1844Q70.64375 298.9344 70.64375 300.21564Q70.64375 301.73126 70.33125 302.65314Q70.03438 303.575 69.40938 304.09064Q68.8 304.59064 67.84688 304.59064Q66.6125 304.59064 65.89375 303.7Q65.05 302.6375 65.05 300.21564ZM66.12813 300.21564Q66.12813 302.325 66.62813 303.02814Q67.12813 303.73126 67.84688 303.73126Q68.58125 303.73126 69.06563 303.02814Q69.56563 302.325 69.56563 300.21564Q69.56563 298.09064 69.06563 297.40314Q68.58125 296.7 67.83125 296.7Q67.1125 296.7 66.675 297.3094Q66.12813 298.09064 66.12813 300.21564Z" fill-rule="nonzero"/><path fill="#000000" d="M53.925 254.16522L53.925 253.10272L57.175 253.10272L57.175 254.16522L53.925 254.16522ZM61.425 256.74335L61.425 254.68085L57.70625 254.68085L57.70625 253.7121L61.628124 248.1496L62.4875 248.1496L62.4875 253.7121L63.64375 253.7121L63.64375 254.68085L62.4875 254.68085L62.4875 256.74335L61.425 256.74335ZM61.425 253.7121L61.425 249.85272L58.7375 253.7121L61.425 253.7121ZM65.05 252.50897Q65.05 250.97772 65.3625 250.05585Q65.675 249.11835 66.28438 248.61835Q66.90938 248.11835 67.84688 248.11835Q68.53438 248.11835 69.05 248.3996Q69.58125 248.68085 69.925 249.2121Q70.26875 249.72772 70.45625 250.47772Q70.64375 251.22772 70.64375 252.50897Q70.64375 254.0246 70.33125 254.94647Q70.03438 255.86835 69.40938 256.38397Q68.8 256.88397 67.84688 256.88397Q66.6125 256.88397 65.89375 255.99335Q65.05 254.93085 65.05 252.50897ZM66.12813 252.50897Q66.12813 254.61835 66.62813 255.32147Q67.12813 256.0246 67.84688 256.0246Q68.58125 256.0246 69.06563 255.32147Q69.56563 254.61835 69.56563 252.50897Q69.56563 250.38397 69.06563 249.69647Q68.58125 248.99335 67.83125 248.99335Q67.1125 248.99335 66.675 249.60272Q66.12813 250.38397 66.12813 252.50897Z" fill-rule="nonzero"/><path fill="#000000" d="M53.925 206.45854L53.925 205.39604L57.175 205.39604L57.175 206.45854L53.925 206.45854ZM58.05 206.77104L59.1125 206.63042Q59.284374 207.52104 59.721874 207.92729Q60.159374 208.31792 60.784374 208.31792Q61.534374 208.31792 62.05 207.80229Q62.565624 207.28667 62.565624 206.52104Q62.565624 205.80229 62.08125 205.33354Q61.6125 204.84917 60.878124 204.84917Q60.58125 204.84917 60.128124 204.97417L60.253124 204.03667Q60.3625 204.05229 60.425 204.05229Q61.096874 204.05229 61.628124 203.70854Q62.175 203.34917 62.175 202.61479Q62.175 202.03667 61.784374 201.66167Q61.39375 201.27104 60.76875 201.27104Q60.159374 201.27104 59.7375 201.66167Q59.33125 202.05229 59.221874 202.81792L58.159374 202.63042Q58.346874 201.58354 59.034374 201.00542Q59.721874 200.41167 60.7375 200.41167Q61.440624 200.41167 62.034374 200.72417Q62.628124 201.02104 62.940624 201.53667Q63.253124 202.05229 63.253124 202.64604Q63.253124 203.19292 62.95625 203.66167Q62.659374 204.11479 62.08125 204.38042Q62.83125 204.55229 63.253124 205.11479Q63.675 205.66167 63.675 206.50542Q63.675 207.63042 62.846874 208.41167Q62.034374 209.19292 60.784374 209.19292Q59.659374 209.19292 58.909374 208.52104Q58.159374 207.83354 58.05 206.77104ZM65.05 204.80229Q65.05 203.27104 65.3625 202.34917Q65.675 201.41167 66.28438 200.91167Q66.90938 200.41167 67.84688 200.41167Q68.53438 200.41167 69.05 200.69292Q69.58125 200.97417 69.925 201.50542Q70.26875 202.02104 70.45625 202.77104Q70.64375 203.52104 70.64375 204.80229Q70.64375 206.31792 70.33125 207.23979Q70.03438 208.16167 69.40938 208.67729Q68.8 209.17729 67.84688 209.17729Q66.6125 209.17729 65.89375 208.28667Q65.05 207.22417 65.05 204.80229ZM66.12813 204.80229Q66.12813 206.91167 66.62813 207.61479Q67.12813 208.31792 67.84688 208.31792Q68.58125 208.31792 69.06563 207.61479Q69.56563 206.91167 69.56563 204.80229Q69.56563 202.67729 69.06563 201.98979Q68.58125 201.28667 67.83125 201.28667Q67.1125 201.28667 66.675 201.89604Q66.12813 202.67729 66.12813 204.80229Z" fill-rule="nonzero"/><path fill="#000000" d="M53.925 158.75188L53.925 157.68938L57.175 157.68938L57.175 158.75188L53.925 158.75188ZM63.596874 160.31438L63.596874 161.33L57.909374 161.33Q57.909374 160.955 58.034374 160.59563Q58.253124 160.0175 58.721874 159.455Q59.20625 158.8925 60.1125 158.15813Q61.51875 157.00188 62.003124 156.33Q62.503124 155.65813 62.503124 155.06438Q62.503124 154.43938 62.05 154.0175Q61.596874 153.58 60.878124 153.58Q60.1125 153.58 59.659374 154.03313Q59.20625 154.48625 59.190624 155.29875L58.1125 155.18938Q58.221874 153.97063 58.940624 153.34563Q59.675 152.705 60.909374 152.705Q62.14375 152.705 62.8625 153.3925Q63.58125 154.08 63.58125 155.09563Q63.58125 155.61125 63.3625 156.11125Q63.159374 156.59563 62.659374 157.15813Q62.175 157.705 61.05 158.65813Q60.096874 159.455 59.815624 159.75188Q59.55 160.03313 59.378124 160.31438L63.596874 160.31438ZM65.05 157.09563Q65.05 155.56438 65.3625 154.6425Q65.675 153.705 66.28438 153.205Q66.90938 152.705 67.84688 152.705Q68.53438 152.705 69.05 152.98625Q69.58125 153.2675 69.925 153.79875Q70.26875 154.31438 70.45625 155.06438Q70.64375 155.81438 70.64375 157.09563Q70.64375 158.61125 70.33125 159.53313Q70.03438 160.455 69.40938 160.97063Q68.8 161.47063 67.84688 161.47063Q66.6125 161.47063 65.89375 160.58Q65.05 159.5175 65.05 157.09563ZM66.12813 157.09563Q66.12813 159.205 66.62813 159.90813Q67.12813 160.61125 67.84688 160.61125Q68.58125 160.61125 69.06563 159.90813Q69.56563 159.205 69.56563 157.09563Q69.56563 154.97063 69.06563 154.28313Q68.58125 153.58 67.83125 153.58Q67.1125 153.58 66.675 154.18938Q66.12813 154.97063 66.12813 157.09563Z" fill-rule="nonzero"/><path fill="#000000" d="M53.925 111.04521L53.925 109.98271L57.175 109.98271L57.175 111.04521L53.925 111.04521ZM62.01875 113.62334L60.971874 113.62334L60.971874 106.90459Q60.58125 107.26396 59.95625 107.63896Q59.346874 107.99834 58.8625 108.17021L58.8625 107.15459Q59.7375 106.73271 60.39375 106.15459Q61.065624 105.56084 61.346874 104.99834L62.01875 104.99834L62.01875 113.62334ZM65.05 109.38896Q65.05 107.85771 65.3625 106.93584Q65.675 105.99834 66.28438 105.49834Q66.90938 104.99834 67.84688 104.99834Q68.53438 104.99834 69.05 105.27959Q69.58125 105.56084 69.925 106.09209Q70.26875 106.60771 70.45625 107.35771Q70.64375 108.10771 70.64375 109.38896Q70.64375 110.90459 70.33125 111.82646Q70.03438 112.74834 69.40938 113.26396Q68.8 113.76396 67.84688 113.76396Q66.6125 113.76396 65.89375 112.87334Q65.05 111.81084 65.05 109.38896ZM66.12813 109.38896Q66.12813 111.49834 66.62813 112.20146Q67.12813 112.90459 67.84688 112.90459Q68.58125 112.90459 69.06563 112.20146Q69.56563 111.49834 69.56563 109.38896Q69.56563 107.26396 69.06563 106.57646Q68.58125 105.87334 67.83125 105.87334Q67.1125 105.87334 66.675 106.48271Q66.12813 107.26396 66.12813 109.38896Z" fill-rule="nonzero"/><path fill="#000000" d="M65.05 61.68229Q65.05 60.15104 65.3625 59.229164Q65.675 58.291664 66.28438 57.791664Q66.90938 57.291664 67.84688 57.291664Q68.53438 57.291664 69.05 57.572914Q69.58125 57.854164 69.925 58.385414Q70.26875 58.90104 70.45625 59.65104Q70.64375 60.40104 70.64375 61.68229Q70.64375 63.197914 70.33125 64.11979Q70.03438 65.041664 69.40938 65.55729Q68.8 66.05729 67.84688 66.05729Q66.6125 66.05729 65.89375 65.166664Q65.05 64.104164 65.05 61.68229ZM66.12813 61.68229Q66.12813 63.791664 66.62813 64.49479Q67.12813 65.197914 67.84688 65.197914Q68.58125 65.197914 69.06563 64.49479Q69.56563 63.791664 69.56563 61.68229Q69.56563 59.55729 69.06563 58.86979Q68.58125 58.166664 67.83125 58.166664Q67.1125 58.166664 66.675 58.77604Q66.12813 59.55729 66.12813 61.68229Z" fill-rule="nonzero"/><path fill="#000000" d="M157.14339 316.4344L157.14339 317.45L151.45589 317.45Q151.45589 317.075 151.58089 316.71564Q151.79964 316.1375 152.26839 315.575Q152.75276 315.0125 153.65901 314.27814Q155.06526 313.1219 155.54964 312.45Q156.04964 311.77814 156.04964 311.1844Q156.04964 310.5594 155.59651 310.1375Q155.14339 309.7 154.42464 309.7Q153.65901 309.7 153.20589 310.15314Q152.75276 310.60626 152.73714 311.41876L151.65901 311.3094Q151.76839 310.09064 152.48714 309.46564Q153.22151 308.825 154.45589 308.825Q155.69026 308.825 156.40901 309.5125Q157.12776 310.2 157.12776 311.21564Q157.12776 311.73126 156.90901 312.23126Q156.70589 312.71564 156.20589 313.27814Q155.72151 313.825 154.59651 314.77814Q153.64339 315.575 153.36214 315.8719Q153.09651 316.15314 152.92464 316.4344L157.14339 316.4344ZM159.19026 317.45L159.19026 316.2469L160.39339 316.2469L160.39339 317.45L159.19026 317.45ZM161.59651 315.2L162.70589 315.10626Q162.83089 315.91876 163.26839 316.325Q163.72151 316.73126 164.36214 316.73126Q165.11214 316.73126 165.64339 316.15314Q166.17464 315.575 166.17464 314.6375Q166.17464 313.73126 165.65901 313.21564Q165.15901 312.6844 164.33089 312.6844Q163.83089 312.6844 163.40901 312.91876Q163.00276 313.15314 162.76839 313.5125L161.78401 313.3875L162.61214 308.98126L166.89339 308.98126L166.89339 309.98126L163.45589 309.98126L163.00276 312.29376Q163.76839 311.7469 164.61214 311.7469Q165.73714 311.7469 166.50276 312.52814Q167.28401 313.3094 167.28401 314.54376Q167.28401 315.7 166.61214 316.5594Q165.78401 317.59064 164.36214 317.59064Q163.19026 317.59064 162.44026 316.9344Q161.70589 316.27814 161.59651 315.2ZM168.59651 313.21564Q168.59651 311.6844 168.90901 310.7625Q169.22151 309.825 169.83089 309.325Q170.45589 308.825 171.39339 308.825Q172.08089 308.825 172.59651 309.10626Q173.12776 309.3875 173.47151 309.91876Q173.81526 310.4344 174.00276 311.1844Q174.19026 311.9344 174.19026 313.21564Q174.19026 314.73126 173.87776 315.65314Q173.58089 316.575 172.95589 317.09064Q172.34651 317.59064 171.39339 317.59064Q170.15901 317.59064 169.44026 316.7Q168.59651 315.6375 168.59651 313.21564ZM169.67464 313.21564Q169.67464 315.325 170.17464 316.02814Q170.67464 316.73126 171.39339 316.73126Q172.12776 316.73126 172.61214 316.02814Q173.11214 315.325 173.11214 313.21564Q173.11214 311.09064 172.61214 310.40314Q172.12776 309.7 171.37776 309.7Q170.65901 309.7 170.22151 310.3094Q169.67464 311.09064 169.67464 313.21564ZM176.04964 317.45L176.04964 308.85626L182.25276 308.85626L182.25276 309.8719L177.19026 309.8719L177.19026 312.4969L181.94026 312.4969L181.94026 313.5125L177.19026 313.5125L177.19026 316.4344L182.45589 316.4344L182.45589 317.45L176.04964 317.45ZM183.47151 314.8719L183.47151 313.8094L186.72151 313.8094L186.72151 314.8719L183.47151 314.8719ZM187.59651 313.21564Q187.59651 311.6844 187.90901 310.7625Q188.22151 309.825 188.83089 309.325Q189.45589 308.825 190.39339 308.825Q191.08089 308.825 191.59651 309.10626Q192.12776 309.3875 192.47151 309.91876Q192.81526 310.4344 193.00276 311.1844Q193.19026 311.9344 193.19026 313.21564Q193.19026 314.73126 192.87776 315.65314Q192.58089 316.575 191.95589 317.09064Q191.34651 317.59064 190.39339 317.59064Q189.15901 317.59064 188.44026 316.7Q187.59651 315.6375 187.59651 313.21564ZM188.67464 313.21564Q188.67464 315.325 189.17464 316.02814Q189.67464 316.73126 190.39339 316.73126Q191.12776 316.73126 191.61214 316.02814Q192.11214 315.325 192.11214 313.21564Q192.11214 311.09064 191.61214 310.40314Q191.12776 309.7 190.37776 309.7Q189.65901 309.7 189.22151 310.3094Q188.67464 311.09064 188.67464 313.21564ZM200.14339 316.4344L200.14339 317.45L194.45589 317.45Q194.45589 317.075 194.58089 316.71564Q194.79964 316.1375 195.26839 315.575Q195.75276 315.0125 196.65901 314.27814Q198.06526 313.1219 198.54964 312.45Q199.04964 311.77814 199.04964 311.1844Q199.04964 310.5594 198.59651 310.1375Q198.14339 309.7 197.42464 309.7Q196.65901 309.7 196.20589 310.15314Q195.75276 310.60626 195.73714 311.41876L194.65901 311.3094Q194.76839 310.09064 195.48714 309.46564Q196.22151 308.825 197.45589 308.825Q198.69026 308.825 199.40901 309.5125Q200.12776 310.2 200.12776 311.21564Q200.12776 311.73126 199.90901 312.23126Q199.70589 312.71564 199.20589 313.27814Q198.72151 313.825 197.59651 314.77814Q196.64339 315.575 196.36214 315.8719Q196.09651 316.15314 195.92464 316.4344L200.14339 316.4344Z" fill-rule="nonzero"/><path fill="#000000" d="M250.14305 315.2L251.25243 315.10626Q251.37743 315.91876 251.81493 316.325Q252.26805 316.73126 252.90868 316.73126Q253.65868 316.73126 254.18993 316.15314Q254.72118 315.575 254.72118 314.6375Q254.72118 313.73126 254.20555 313.21564Q253.70555 312.6844 252.87743 312.6844Q252.37743 312.6844 251.95555 312.91876Q251.5493 313.15314 251.31493 313.5125L250.33055 313.3875L251.15868 308.98126L255.43993 308.98126L255.43993 309.98126L252.00243 309.98126L251.5493 312.29376Q252.31493 311.7469 253.15868 311.7469Q254.28368 311.7469 255.0493 312.52814Q255.83055 313.3094 255.83055 314.54376Q255.83055 315.7 255.15868 316.5594Q254.33055 317.59064 252.90868 317.59064Q251.7368 317.59064 250.9868 316.9344Q250.25243 316.27814 250.14305 315.2ZM257.73682 317.45L257.73682 316.2469L258.93994 316.2469L258.93994 317.45L257.73682 317.45ZM260.14307 313.21564Q260.14307 311.6844 260.45557 310.7625Q260.76807 309.825 261.37744 309.325Q262.00244 308.825 262.93994 308.825Q263.62744 308.825 264.14307 309.10626Q264.67432 309.3875 265.01807 309.91876Q265.36182 310.4344 265.54932 311.1844Q265.73682 311.9344 265.73682 313.21564Q265.73682 314.73126 265.42432 315.65314Q265.12744 316.575 264.50244 317.09064Q263.89307 317.59064 262.93994 317.59064Q261.70557 317.59064 260.98682 316.7Q260.14307 315.6375 260.14307 313.21564ZM261.2212 313.21564Q261.2212 315.325 261.7212 316.02814Q262.2212 316.73126 262.93994 316.73126Q263.67432 316.73126 264.1587 316.02814Q264.6587 315.325 264.6587 313.21564Q264.6587 311.09064 264.1587 310.40314Q263.67432 309.7 262.92432 309.7Q262.20557 309.7 261.76807 310.3094Q261.2212 311.09064 261.2212 313.21564ZM267.14307 313.21564Q267.14307 311.6844 267.45557 310.7625Q267.76807 309.825 268.37744 309.325Q269.00244 308.825 269.93994 308.825Q270.62744 308.825 271.14307 309.10626Q271.67432 309.3875 272.01807 309.91876Q272.36182 310.4344 272.54932 311.1844Q272.73682 311.9344 272.73682 313.21564Q272.73682 314.73126 272.42432 315.65314Q272.12744 316.575 271.50244 317.09064Q270.89307 317.59064 269.93994 317.59064Q268.70557 317.59064 267.98682 316.7Q267.14307 315.6375 267.14307 313.21564ZM268.2212 313.21564Q268.2212 315.325 268.7212 316.02814Q269.2212 316.73126 269.93994 316.73126Q270.67432 316.73126 271.1587 316.02814Q271.6587 315.325 271.6587 313.21564Q271.6587 311.09064 271.1587 310.40314Q270.67432 309.7 269.92432 309.7Q269.20557 309.7 268.76807 310.3094Q268.2212 311.09064 268.2212 313.21564ZM274.5962 317.45L274.5962 308.85626L280.79932 308.85626L280.79932 309.8719L275.73682 309.8719L275.73682 312.4969L280.48682 312.4969L280.48682 313.5125L275.73682 313.5125L275.73682 316.4344L281.00244 316.4344L281.00244 317.45L274.5962 317.45ZM282.01807 314.8719L282.01807 313.8094L285.26807 313.8094L285.26807 314.8719L282.01807 314.8719ZM286.14307 313.21564Q286.14307 311.6844 286.45557 310.7625Q286.76807 309.825 287.37744 309.325Q288.00244 308.825 288.93994 308.825Q289.62744 308.825 290.14307 309.10626Q290.67432 309.3875 291.01807 309.91876Q291.36182 310.4344 291.54932 311.1844Q291.73682 311.9344 291.73682 313.21564Q291.73682 314.73126 291.42432 315.65314Q291.12744 316.575 290.50244 317.09064Q289.89307 317.59064 288.93994 317.59064Q287.70557 317.59064 286.98682 316.7Q286.14307 315.6375 286.14307 313.21564ZM287.2212 313.21564Q287.2212 315.325 287.7212 316.02814Q288.2212 316.73126 288.93994 316.73126Q289.67432 316.73126 290.1587 316.02814Q290.6587 315.325 290.6587 313.21564Q290.6587 311.09064 290.1587 310.40314Q289.67432 309.7 288.92432 309.7Q288.20557 309.7 287.76807 310.3094Q287.2212 311.09064 287.2212 313.21564ZM298.68994 316.4344L298.68994 317.45L293.00244 317.45Q293.00244 317.075 293.12744 316.71564Q293.3462 316.1375 293.81494 315.575Q294.29932 315.0125 295.20557 314.27814Q296.61182 313.1219 297.0962 312.45Q297.5962 311.77814 297.5962 311.1844Q297.5962 310.5594 297.14307 310.1375Q296.68994 309.7 295.9712 309.7Q295.20557 309.7 294.75244 310.15314Q294.29932 310.60626 294.2837 311.41876L293.20557 311.3094Q293.31494 310.09064 294.0337 309.46564Q294.76807 308.825 296.00244 308.825Q297.23682 308.825 297.95557 309.5125Q298.67432 310.2 298.67432 311.21564Q298.67432 311.73126 298.45557 312.23126Q298.25244 312.71564 297.75244 313.27814Q297.26807 313.825 296.14307 314.77814Q295.18994 315.575 294.9087 315.8719Q294.64307 316.15314 294.4712 316.4344L298.68994 316.4344Z" fill-rule="nonzero"/><path fill="#000000" d="M348.7521 309.98126L348.7521 308.96564L354.3146 308.96564L354.3146 309.79376Q353.5021 310.66876 352.6896 312.1219Q351.89273 313.5594 351.45523 315.09064Q351.1271 316.16876 351.04898 317.45L349.95523 317.45Q349.97086 316.4344 350.34586 314.9969Q350.73648 313.5594 351.4396 312.23126Q352.15836 310.90314 352.97086 309.98126L348.7521 309.98126ZM356.28336 317.45L356.28336 316.2469L357.48648 316.2469L357.48648 317.45L356.28336 317.45ZM358.6896 315.2L359.79898 315.10626Q359.92398 315.91876 360.36148 316.325Q360.8146 316.73126 361.45523 316.73126Q362.20523 316.73126 362.73648 316.15314Q363.26773 315.575 363.26773 314.6375Q363.26773 313.73126 362.7521 313.21564Q362.2521 312.6844 361.42398 312.6844Q360.92398 312.6844 360.5021 312.91876Q360.09586 313.15314 359.86148 313.5125L358.8771 313.3875L359.70523 308.98126L363.98648 308.98126L363.98648 309.98126L360.54898 309.98126L360.09586 312.29376Q360.86148 311.7469 361.70523 311.7469Q362.83023 311.7469 363.59586 312.52814Q364.3771 313.3094 364.3771 314.54376Q364.3771 315.7 363.70523 316.5594Q362.8771 317.59064 361.45523 317.59064Q360.28336 317.59064 359.53336 316.9344Q358.79898 316.27814 358.6896 315.2ZM365.6896 313.21564Q365.6896 311.6844 366.0021 310.7625Q366.3146 309.825 366.92398 309.325Q367.54898 308.825 368.48648 308.825Q369.17398 308.825 369.6896 309.10626Q370.22086 309.3875 370.5646 309.91876Q370.90836 310.4344 371.09586 311.1844Q371.28336 311.9344 371.28336 313.21564Q371.28336 314.73126 370.97086 315.65314Q370.67398 316.575 370.04898 317.09064Q369.4396 317.59064 368.48648 317.59064Q367.2521 317.59064 366.53336 316.7Q365.6896 315.6375 365.6896 313.21564ZM366.76773 313.21564Q366.76773 315.325 367.26773 316.02814Q367.76773 316.73126 368.48648 316.73126Q369.22086 316.73126 369.70523 316.02814Q370.20523 315.325 370.20523 313.21564Q370.20523 311.09064 369.70523 310.40314Q369.22086 309.7 368.47086 309.7Q367.7521 309.7 367.3146 310.3094Q366.76773 311.09064 366.76773 313.21564ZM373.14273 317.45L373.14273 308.85626L379.34586 308.85626L379.34586 309.8719L374.28336 309.8719L374.28336 312.4969L379.03336 312.4969L379.03336 313.5125L374.28336 313.5125L374.28336 316.4344L379.54898 316.4344L379.54898 317.45L373.14273 317.45ZM380.5646 314.8719L380.5646 313.8094L383.8146 313.8094L383.8146 314.8719L380.5646 314.8719ZM384.6896 313.21564Q384.6896 311.6844 385.0021 310.7625Q385.3146 309.825 385.92398 309.325Q386.54898 308.825 387.48648 308.825Q388.17398 308.825 388.6896 309.10626Q389.22086 309.3875 389.5646 309.91876Q389.90836 310.4344 390.09586 311.1844Q390.28336 311.9344 390.28336 313.21564Q390.28336 314.73126 389.97086 315.65314Q389.67398 316.575 389.04898 317.09064Q388.4396 317.59064 387.48648 317.59064Q386.2521 317.59064 385.53336 316.7Q384.6896 315.6375 384.6896 313.21564ZM385.76773 313.21564Q385.76773 315.325 386.26773 316.02814Q386.76773 316.73126 387.48648 316.73126Q388.22086 316.73126 388.70523 316.02814Q389.20523 315.325 389.20523 313.21564Q389.20523 311.09064 388.70523 310.40314Q388.22086 309.7 387.47086 309.7Q386.7521 309.7 386.3146 310.3094Q385.76773 311.09064 385.76773 313.21564ZM397.23648 316.4344L397.23648 317.45L391.54898 317.45Q391.54898 317.075 391.67398 316.71564Q391.89273 316.1375 392.36148 315.575Q392.84586 315.0125 393.7521 314.27814Q395.15836 313.1219 395.64273 312.45Q396.14273 311.77814 396.14273 311.1844Q396.14273 310.5594 395.6896 310.1375Q395.23648 309.7 394.51773 309.7Q393.7521 309.7 393.29898 310.15314Q392.84586 310.60626 392.83023 311.41876L391.7521 311.3094Q391.86148 310.09064 392.58023 309.46564Q393.3146 308.825 394.54898 308.825Q395.78336 308.825 396.5021 309.5125Q397.22086 310.2 397.22086 311.21564Q397.22086 311.73126 397.0021 312.23126Q396.79898 312.71564 396.29898 313.27814Q395.8146 313.825 394.6896 314.77814Q393.73648 315.575 393.45523 315.8719Q393.1896 316.15314 393.01773 316.4344L397.23648 316.4344Z" fill-rule="nonzero"/><path fill="#000000" d="M451.2049 317.45L450.15802 317.45L450.15802 310.73126Q449.7674 311.09064 449.1424 311.46564Q448.53302 311.825 448.04865 311.9969L448.04865 310.98126Q448.92365 310.5594 449.5799 309.98126Q450.25177 309.3875 450.53302 308.825L451.2049 308.825L451.2049 317.45ZM454.8299 317.45L454.8299 316.2469L456.03302 316.2469L456.03302 317.45L454.8299 317.45ZM457.23615 313.21564Q457.23615 311.6844 457.54865 310.7625Q457.86115 309.825 458.47052 309.325Q459.09552 308.825 460.03302 308.825Q460.72052 308.825 461.23615 309.10626Q461.7674 309.3875 462.11115 309.91876Q462.4549 310.4344 462.6424 311.1844Q462.8299 311.9344 462.8299 313.21564Q462.8299 314.73126 462.5174 315.65314Q462.22052 316.575 461.59552 317.09064Q460.98615 317.59064 460.03302 317.59064Q458.79865 317.59064 458.0799 316.7Q457.23615 315.6375 457.23615 313.21564ZM458.31427 313.21564Q458.31427 315.325 458.81427 316.02814Q459.31427 316.73126 460.03302 316.73126Q460.7674 316.73126 461.25177 316.02814Q461.75177 315.325 461.75177 313.21564Q461.75177 311.09064 461.25177 310.40314Q460.7674 309.7 460.0174 309.7Q459.29865 309.7 458.86115 310.3094Q458.31427 311.09064 458.31427 313.21564ZM464.23615 313.21564Q464.23615 311.6844 464.54865 310.7625Q464.86115 309.825 465.47052 309.325Q466.09552 308.825 467.03302 308.825Q467.72052 308.825 468.23615 309.10626Q468.7674 309.3875 469.11115 309.91876Q469.4549 310.4344 469.6424 311.1844Q469.8299 311.9344 469.8299 313.21564Q469.8299 314.73126 469.5174 315.65314Q469.22052 316.575 468.59552 317.09064Q467.98615 317.59064 467.03302 317.59064Q465.79865 317.59064 465.0799 316.7Q464.23615 315.6375 464.23615 313.21564ZM465.31427 313.21564Q465.31427 315.325 465.81427 316.02814Q466.31427 316.73126 467.03302 316.73126Q467.7674 316.73126 468.25177 316.02814Q468.75177 315.325 468.75177 313.21564Q468.75177 311.09064 468.25177 310.40314Q467.7674 309.7 467.0174 309.7Q466.29865 309.7 465.86115 310.3094Q465.31427 311.09064 465.31427 313.21564ZM471.68927 317.45L471.68927 308.85626L477.8924 308.85626L477.8924 309.8719L472.8299 309.8719L472.8299 312.4969L477.5799 312.4969L477.5799 313.5125L472.8299 313.5125L472.8299 316.4344L478.09552 316.4344L478.09552 317.45L471.68927 317.45ZM479.11115 314.8719L479.11115 313.8094L482.36115 313.8094L482.36115 314.8719L479.11115 314.8719ZM483.23615 313.21564Q483.23615 311.6844 483.54865 310.7625Q483.86115 309.825 484.47052 309.325Q485.09552 308.825 486.03302 308.825Q486.72052 308.825 487.23615 309.10626Q487.7674 309.3875 488.11115 309.91876Q488.4549 310.4344 488.6424 311.1844Q488.8299 311.9344 488.8299 313.21564Q488.8299 314.73126 488.5174 315.65314Q488.22052 316.575 487.59552 317.09064Q486.98615 317.59064 486.03302 317.59064Q484.79865 317.59064 484.0799 316.7Q483.23615 315.6375 483.23615 313.21564ZM484.31427 313.21564Q484.31427 315.325 484.81427 316.02814Q485.31427 316.73126 486.03302 316.73126Q486.7674 316.73126 487.25177 316.02814Q487.75177 315.325 487.75177 313.21564Q487.75177 311.09064 487.25177 310.40314Q486.7674 309.7 486.0174 309.7Q485.29865 309.7 484.86115 310.3094Q484.31427 311.09064 484.31427 313.21564ZM494.2049 317.45L493.15802 317.45L493.15802 310.73126Q492.7674 311.09064 492.1424 311.46564Q491.53302 311.825 491.04865 311.9969L491.04865 310.98126Q491.92365 310.5594 492.5799 309.98126Q493.25177 309.3875 493.53302 308.825L494.2049 308.825L494.2049 317.45Z" fill-rule="nonzero"/><path fill="#000000" d="M549.75146 317.45L548.7046 317.45L548.7046 310.73126Q548.31396 311.09064 547.68896 311.46564Q547.0796 311.825 546.5952 311.9969L546.5952 310.98126Q547.4702 310.5594 548.12646 309.98126Q548.79834 309.3875 549.0796 308.825L549.75146 308.825L549.75146 317.45ZM553.37646 317.45L553.37646 316.2469L554.5796 316.2469L554.5796 317.45L553.37646 317.45ZM561.3296 316.4344L561.3296 317.45L555.6421 317.45Q555.6421 317.075 555.7671 316.71564Q555.98584 316.1375 556.4546 315.575Q556.93896 315.0125 557.8452 314.27814Q559.25146 313.1219 559.73584 312.45Q560.23584 311.77814 560.23584 311.1844Q560.23584 310.5594 559.7827 310.1375Q559.3296 309.7 558.61084 309.7Q557.8452 309.7 557.3921 310.15314Q556.93896 310.60626 556.92334 311.41876L555.8452 311.3094Q555.9546 310.09064 556.67334 309.46564Q557.4077 308.825 558.6421 308.825Q559.87646 308.825 560.5952 309.5125Q561.31396 310.2 561.31396 311.21564Q561.31396 311.73126 561.0952 312.23126Q560.8921 312.71564 560.3921 313.27814Q559.9077 313.825 558.7827 314.77814Q557.8296 315.575 557.54834 315.8719Q557.2827 316.15314 557.11084 316.4344L561.3296 316.4344ZM562.7827 315.2L563.8921 315.10626Q564.0171 315.91876 564.4546 316.325Q564.9077 316.73126 565.54834 316.73126Q566.29834 316.73126 566.8296 316.15314Q567.36084 315.575 567.36084 314.6375Q567.36084 313.73126 566.8452 313.21564Q566.3452 312.6844 565.5171 312.6844Q565.0171 312.6844 564.5952 312.91876Q564.18896 313.15314 563.9546 313.5125L562.9702 313.3875L563.79834 308.98126L568.0796 308.98126L568.0796 309.98126L564.6421 309.98126L564.18896 312.29376Q564.9546 311.7469 565.79834 311.7469Q566.92334 311.7469 567.68896 312.52814Q568.4702 313.3094 568.4702 314.54376Q568.4702 315.7 567.79834 316.5594Q566.9702 317.59064 565.54834 317.59064Q564.37646 317.59064 563.62646 316.9344Q562.8921 316.27814 562.7827 315.2ZM570.23584 317.45L570.23584 308.85626L576.43896 308.85626L576.43896 309.8719L571.37646 309.8719L571.37646 312.4969L576.12646 312.4969L576.12646 313.5125L571.37646 313.5125L571.37646 316.4344L576.6421 316.4344L576.6421 317.45L570.23584 317.45ZM577.6577 314.8719L577.6577 313.8094L580.9077 313.8094L580.9077 314.8719L577.6577 314.8719ZM581.7827 313.21564Q581.7827 311.6844 582.0952 310.7625Q582.4077 309.825 583.0171 309.325Q583.6421 308.825 584.5796 308.825Q585.2671 308.825 585.7827 309.10626Q586.31396 309.3875 586.6577 309.91876Q587.00146 310.4344 587.18896 311.1844Q587.37646 311.9344 587.37646 313.21564Q587.37646 314.73126 587.06396 315.65314Q586.7671 316.575 586.1421 317.09064Q585.5327 317.59064 584.5796 317.59064Q583.3452 317.59064 582.62646 316.7Q581.7827 315.6375 581.7827 313.21564ZM582.86084 313.21564Q582.86084 315.325 583.36084 316.02814Q583.86084 316.73126 584.5796 316.73126Q585.31396 316.73126 585.79834 316.02814Q586.29834 315.325 586.29834 313.21564Q586.29834 311.09064 585.79834 310.40314Q585.31396 309.7 584.56396 309.7Q583.8452 309.7 583.4077 310.3094Q582.86084 311.09064 582.86084 313.21564ZM592.75146 317.45L591.7046 317.45L591.7046 310.73126Q591.31396 311.09064 590.68896 311.46564Q590.0796 311.825 589.5952 311.9969L589.5952 310.98126Q590.4702 310.5594 591.12646 309.98126Q591.79834 309.3875 592.0796 308.825L592.75146 308.825L592.75146 317.45Z" fill-rule="nonzero"/><path fill="#000000" d="M214.46875 34.596874L217.21875 34.175Q217.40625 34.971874 217.9375 35.39375Q218.46875 35.8 219.4375 35.8Q220.5 35.8 221.04688 35.409374Q221.40625 35.14375 221.40625 34.675Q221.40625 34.3625 221.20312 34.159374Q221.0 33.971874 220.29688 33.8Q216.96875 33.065624 216.07812 32.45625Q214.84375 31.628124 214.84375 30.128124Q214.84375 28.784374 215.90625 27.8625Q216.98438 26.940624 219.21875 26.940624Q221.34375 26.940624 222.375 27.64375Q223.42188 28.33125 223.8125 29.690624L221.21875 30.159374Q221.04688 29.565624 220.57812 29.2375Q220.125 28.909374 219.26562 28.909374Q218.1875 28.909374 217.71875 29.221874Q217.40625 29.440624 217.40625 29.76875Q217.40625 30.065624 217.67188 30.26875Q218.04688 30.55 220.23438 31.05Q222.42188 31.55 223.29688 32.26875Q224.15625 33.003124 224.15625 34.3Q224.15625 35.7375 222.96875 36.76875Q221.78125 37.784374 219.4375 37.784374Q217.32812 37.784374 216.07812 36.925Q214.84375 36.065624 214.46875 34.596874ZM226.4375 25.76875L226.4375 23.2375L229.1875 23.2375L229.1875 25.76875L226.4375 25.76875ZM226.4375 37.55L226.4375 27.175L229.1875 27.175L229.1875 37.55L226.4375 37.55ZM231.1875 38.2375L234.3125 38.6125Q234.39062 39.159374 234.67188 39.3625Q235.0625 39.659374 235.90625 39.659374Q236.98438 39.659374 237.51562 39.33125Q237.875 39.128124 238.0625 38.64375Q238.1875 38.3 238.1875 37.378124L238.1875 35.8625Q236.96875 37.55 235.09375 37.55Q233.0 37.55 231.78125 35.784374Q230.82812 34.378124 230.82812 32.3Q230.82812 29.690624 232.07812 28.315624Q233.32812 26.940624 235.20312 26.940624Q237.125 26.940624 238.375 28.628124L238.375 27.175L240.9375 27.175L240.9375 36.4875Q240.9375 38.315624 240.625 39.221874Q240.32812 40.14375 239.78125 40.659374Q239.23438 41.175 238.3125 41.45625Q237.40625 41.753124 236.01562 41.753124Q233.375 41.753124 232.26562 40.846874Q231.17188 39.95625 231.17188 38.565624Q231.17188 38.425 231.1875 38.2375ZM233.64062 32.14375Q233.64062 33.8 234.26562 34.565624Q234.90625 35.33125 235.84375 35.33125Q236.85938 35.33125 237.54688 34.55Q238.25 33.753124 238.25 32.221874Q238.25 30.6125 237.57812 29.83125Q236.92188 29.05 235.90625 29.05Q234.90625 29.05 234.26562 29.815624Q233.64062 30.58125 233.64062 32.14375ZM252.60938 32.284374L255.42188 33.175Q254.78125 35.51875 253.28125 36.659374Q251.78125 37.8 249.46875 37.8Q246.625 37.8 244.78125 35.846874Q242.95312 33.89375 242.95312 30.51875Q242.95312 26.940624 244.79688 24.971874Q246.64062 22.9875 249.64062 22.9875Q252.28125 22.9875 253.92188 24.534374Q254.89062 25.45625 255.375 27.175L252.51562 27.8625Q252.26562 26.753124 251.45312 26.1125Q250.65625 25.45625 249.5 25.45625Q247.90625 25.45625 246.90625 26.596874Q245.92188 27.7375 245.92188 30.3Q245.92188 33.01875 246.89062 34.175Q247.875 35.315624 249.4375 35.315624Q250.59375 35.315624 251.42188 34.596874Q252.25 33.8625 252.60938 32.284374ZM260.0625 37.55L257.3125 37.55L257.3125 27.175L259.875 27.175L259.875 28.659374Q260.51562 27.6125 261.03125 27.284374Q261.5625 26.940624 262.23438 26.940624Q263.17188 26.940624 264.03125 27.45625L263.1875 29.846874Q262.5 29.409374 261.90625 29.409374Q261.32812 29.409374 260.92188 29.721874Q260.51562 30.034374 260.28125 30.878124Q260.0625 31.70625 260.0625 34.346874L260.0625 37.55ZM269.98438 41.753124L268.10938 41.753124Q266.60938 39.503124 265.82812 37.08125Q265.04688 34.64375 265.04688 32.3625Q265.04688 29.534374 266.01562 27.01875Q266.85938 24.83125 268.14062 22.9875L270.01562 22.9875Q268.67188 25.940624 268.17188 28.01875Q267.67188 30.096874 267.67188 32.425Q267.67188 34.01875 267.96875 35.70625Q268.26562 37.378124 268.78125 38.89375Q269.125 39.89375 269.98438 41.753124ZM281.875 37.55L279.125 37.55L279.125 32.253124Q279.125 30.58125 278.95312 30.096874Q278.78125 29.596874 278.375 29.33125Q277.98438 29.05 277.42188 29.05Q276.71875 29.05 276.14062 29.440624Q275.57812 29.83125 275.35938 30.471874Q275.15625 31.1125 275.15625 32.846874L275.15625 37.55L272.42188 37.55L272.42188 27.175L274.96875 27.175L274.96875 28.70625Q276.32812 26.940624 278.39062 26.940624Q279.29688 26.940624 280.04688 27.26875Q280.79688 27.596874 281.17188 28.1125Q281.5625 28.6125 281.71875 29.26875Q281.875 29.909374 281.875 31.096874L281.875 37.55ZM293.875 37.55L291.125 37.55L291.125 32.253124Q291.125 30.58125 290.95312 30.096874Q290.78125 29.596874 290.375 29.33125Q289.98438 29.05 289.42188 29.05Q288.71875 29.05 288.14062 29.440624Q287.57812 29.83125 287.35938 30.471874Q287.15625 31.1125 287.15625 32.846874L287.15625 37.55L284.42188 37.55L284.42188 27.175L286.96875 27.175L286.96875 28.70625Q288.32812 26.940624 290.39062 26.940624Q291.29688 26.940624 292.04688 27.26875Q292.79688 27.596874 293.17188 28.1125Q293.5625 28.6125 293.71875 29.26875Q293.875 29.909374 293.875 31.096874L293.875 37.55ZM295.67188 41.753124Q296.48438 40.01875 296.8125 39.08125Q297.15625 38.159374 297.4375 36.95625Q297.71875 35.7375 297.84375 34.659374Q297.98438 33.565624 297.98438 32.425Q297.98438 30.096874 297.48438 28.01875Q297.0 25.940624 295.65625 22.9875L297.51562 22.9875Q299.0 25.08125 299.8125 27.440624Q300.625 29.8 300.625 32.221874Q300.625 34.253124 299.98438 36.596874Q299.25 39.20625 297.5625 41.753124L295.67188 41.753124ZM312.28125 37.55L308.10938 27.175L310.98438 27.175L312.9375 32.471874L313.51562 34.2375Q313.73438 33.565624 313.79688 33.346874Q313.92188 32.909374 314.07812 32.471874L316.0625 27.175L318.875 27.175L314.76562 37.55L312.28125 37.55ZM319.46875 34.596874L322.21875 34.175Q322.40625 34.971874 322.9375 35.39375Q323.46875 35.8 324.4375 35.8Q325.5 35.8 326.04688 35.409374Q326.40625 35.14375 326.40625 34.675Q326.40625 34.3625 326.20312 34.159374Q326.0 33.971874 325.29688 33.8Q321.96875 33.065624 321.07812 32.45625Q319.84375 31.628124 319.84375 30.128124Q319.84375 28.784374 320.90625 27.8625Q321.98438 26.940624 324.21875 26.940624Q326.34375 26.940624 327.375 27.64375Q328.42188 28.33125 328.8125 29.690624L326.21875 30.159374Q326.04688 29.565624 325.57812 29.2375Q325.125 28.909374 324.26562 28.909374Q323.1875 28.909374 322.71875 29.221874Q322.40625 29.440624 322.40625 29.76875Q322.40625 30.065624 322.67188 30.26875Q323.04688 30.55 325.23438 31.05Q327.42188 31.55 328.29688 32.26875Q329.15625 33.003124 329.15625 34.3Q329.15625 35.7375 327.96875 36.76875Q326.78125 37.784374 324.4375 37.784374Q322.32812 37.784374 321.07812 36.925Q319.84375 36.065624 319.46875 34.596874ZM344.26562 37.55L344.26562 36.003124Q343.70312 36.83125 342.76562 37.315624Q341.84375 37.784374 340.82812 37.784374Q339.78125 37.784374 338.95312 37.33125Q338.125 36.8625 337.75 36.034374Q337.375 35.20625 337.375 33.7375L337.375 27.175L340.125 27.175L340.125 31.940624Q340.125 34.128124 340.26562 34.628124Q340.42188 35.1125 340.8125 35.409374Q341.21875 35.690624 341.84375 35.690624Q342.54688 35.690624 343.09375 35.315624Q343.65625 34.925 343.85938 34.3625Q344.0625 33.784374 344.0625 31.55L344.0625 27.175L346.8125 27.175L346.8125 37.55L344.26562 37.55ZM353.98438 41.753124L352.10938 41.753124Q350.60938 39.503124 349.82812 37.08125Q349.04688 34.64375 349.04688 32.3625Q349.04688 29.534374 350.01562 27.01875Q350.85938 24.83125 352.14062 22.9875L354.01562 22.9875Q352.67188 25.940624 352.17188 28.01875Q351.67188 30.096874 351.67188 32.425Q351.67188 34.01875 351.96875 35.70625Q352.26562 37.378124 352.78125 38.89375Q353.125 39.89375 353.98438 41.753124ZM365.875 37.55L363.125 37.55L363.125 32.253124Q363.125 30.58125 362.95312 30.096874Q362.78125 29.596874 362.375 29.33125Q361.98438 29.05 361.42188 29.05Q360.71875 29.05 360.14062 29.440624Q359.57812 29.83125 359.35938 30.471874Q359.15625 31.1125 359.15625 32.846874L359.15625 37.55L356.42188 37.55L356.42188 27.175L358.96875 27.175L358.96875 28.70625Q360.32812 26.940624 362.39062 26.940624Q363.29688 26.940624 364.04688 27.26875Q364.79688 27.596874 365.17188 28.1125Q365.5625 28.6125 365.71875 29.26875Q365.875 29.909374 365.875 31.096874L365.875 37.55ZM377.875 37.55L375.125 37.55L375.125 32.253124Q375.125 30.58125 374.95312 30.096874Q374.78125 29.596874 374.375 29.33125Q373.98438 29.05 373.42188 29.05Q372.71875 29.05 372.14062 29.440624Q371.57812 29.83125 371.35938 30.471874Q371.15625 31.1125 371.15625 32.846874L371.15625 37.55L368.42188 37.55L368.42188 27.175L370.96875 27.175L370.96875 28.70625Q372.32812 26.940624 374.39062 26.940624Q375.29688 26.940624 376.04688 27.26875Q376.79688 27.596874 377.17188 28.1125Q377.5625 28.6125 377.71875 29.26875Q377.875 29.909374 377.875 31.096874L377.875 37.55ZM379.67188 41.753124Q380.48438 40.01875 380.8125 39.08125Q381.15625 38.159374 381.4375 36.95625Q381.71875 35.7375 381.84375 34.659374Q381.98438 33.565624 381.98438 32.425Q381.98438 30.096874 381.48438 28.01875Q381.0 25.940624 379.65625 22.9875L381.51562 22.9875Q383.0 25.08125 383.8125 27.440624Q384.625 29.8 384.625 32.221874Q384.625 34.253124 383.98438 36.596874Q383.25 39.20625 381.5625 41.753124L379.67188 41.753124Z" fill-rule="nonzero"/></svg>