<svg version="1.1" viewBox="0.0 0.0 600.0 371.0" fill="none" stroke="none" stroke-linecap="square" stroke-miterlimit="10" width="600" height="371" xmlns:xlink="http://www.w3.org/1999/xlink" xmlns="http://www.w3.org/2000/svg"><path fill="#ffffff" d="M0 0L600.0 0L600.0 371.0L0 371.0L0 0Z" fill-rule="nonzero"/><path stroke="#333333" stroke-width="1.0" stroke-linecap="butt" d="M77.5 61.5L77.5 300.5" fill-rule="nonzero"/><path stroke="#cccccc" stroke-width="1.0" stroke-linecap="butt" d="M166.5 61.5L166.5 300.5" fill-rule="nonzero"/><path stroke="#cccccc" stroke-width="1.0" stroke-linecap="butt" d="M255.5 61.5L255.5 300.5" fill-rule="nonzero"/><path stroke="#cccccc" stroke-width="1.0" stroke-linecap="butt" d="M344.5 61.5L344.5 300.5" fill-rule="nonzero"/><path stroke="#cccccc" stroke-width="1.0" stroke-linecap="butt" d="M433.5 61.5L433.5 300.5" fill-rule="nonzero"/><path stroke="#cccccc" stroke-width="1.0" stroke-linecap="butt" d="M522.5 61.5L522.5 300.5" fill-rule="nonzero"/><path stroke="#333333" stroke-width="1.0" stroke-linecap="butt" d="M77.5 300.5L581.5 300.5" fill-rule="nonzero"/><path stroke="#cccccc" stroke-width="1.0" stroke-linecap="butt" d="M77.5 252.5L581.5 252.5" fill-rule="nonzero"/><path stroke="#cccccc" stroke-width="1.0" stroke-linecap="butt" d="M77.5 205.5L581.5 205.5" fill-rule="nonzero"/><path stroke="#cccccc" stroke-width="1.0" stroke-linecap="butt" d="M77.5 157.5L581.5 157.5" fill-rule="nonzero"/><path stroke="#cccccc" stroke-width="1.0" stroke-linecap="butt" d="M77.5 109.5L581.5 109.5" fill-rule="nonzero"/><path stroke="#cccccc" stroke-width="1.0" stroke-linecap="butt" d="M77.5 61.5L581.5 61.5" fill-rule="nonzero"/><clipPath id="id_0"><path d="M77.55 61.916668L581.45 61.916668L581.45 300.45L77.55 300.45L77.55 61.916668Z" clip-rule="nonzero"/></clipPath><path fill="#34a853" fill-opacity="0.3019608" clip-path="url(#id_0)" d="M77.55 300.45L77.55 300.45L77.55 300.45L77.55 300.45L77.55 300.45L77.55 300.45L77.55 300.45L77.55 300.45L77.55 300.45L77.55 300.45L77.55004 75.855125L83.25675 79.25231L88.974 82.65905L94.68199 86.06339L100.37972 89.46393L106.07051 92.8635L111.7553 96.26213L117.43386 99.6598L123.105934 103.05651L128.77191 106.4518L134.43167 109.8466L140.08475 113.239975L145.73161 116.63287L151.37225 120.02434L157.00665 123.414856L162.63484 126.80441L168.2568 130.19254L173.87299 133.58018L179.4825 136.96642L185.08578 140.35216L190.68285 143.73647L196.27412 147.11981L201.85873 150.50223L207.43756 153.88367L213.01016 157.26416L218.577 160.6437L224.13715 164.02182L229.69153 167.39944L235.24013 170.77565L240.78249 174.1509L246.31863 177.52567L251.849 180.899L257.37314 184.2714L262.8915 187.64282L268.40366 191.01329L273.91 194.38234L279.41013 197.7509L284.90494 201.11852L290.3935 204.4847L295.87582 207.8504L301.35242 211.21468L306.82318 214.578L312.2882 217.94084L317.7474 221.30226L323.20087 224.66272L328.64807 228.02222L334.08997 231.38077L339.52563 234.73836L344.9555 238.095L350.38004 241.45068L355.79837 244.80542L361.2109 248.15872L366.6181 251.51155L372.01907 254.86333L377.41473 258.21408L382.80457 261.56387L388.18866 264.91263L393.5674 268.2605L398.93994 271.60736L404.3071 274.95328L409.66898 278.2982L415.0246 281.64212L420.37488 284.9851L425.71982 288.32715L431.059 291.66824L436.3924 295.0084L441.72046 298.34753L446.89066 300.44775L451.79855 300.44775L456.70062 300.44775L461.59738 300.44775L466.48883 300.44775L471.3749 300.44775L476.25568 300.44775L481.13065 300.44775L486.00073 300.44775L490.86548 300.44775L495.72488 300.44775L500.57895 300.44775L505.4277 300.44775L510.27112 300.44775L515.1092 300.44775L519.9424 300.44775L524.768 300.44775L529.5923 300.44775L534.40765 300.44775L539.223 300.44775L544.02954 300.44775L548.8316 300.44775L553.62476 300.44775L558.4179 300.44775L563.2022 300.44775L567.98645 300.44775L572.76184 300.44775L577.5328 300.44775L581.45 300.44775L581.45 300.45L577.5328 300.45L572.76184 300.45L567.98645 300.45L563.2022 300.45L558.4179 300.45L553.62476 300.45L548.8316 300.45L544.02954 300.45L539.223 300.45L534.40765 300.45L529.5923 300.45L524.768 300.45L519.9424 300.45L515.1092 300.45L510.27112 300.45L505.4277 300.45L500.57895 300.45L495.72488 300.45L490.86548 300.45L486.00073 300.45L481.13065 300.45L476.25568 300.45L471.3749 300.45L466.48883 300.45L461.59738 300.45L456.70062 300.45L451.79855 300.45L446.89066 300.45L441.72046 300.45L436.3924 300.45L431.059 300.45L425.71982 300.45L420.37488 300.45L415.0246 300.45L409.66898 300.45L404.3071 300.45L398.93994 300.45L393.5674 300.45L388.18866 300.45L382.80457 300.45L377.41473 300.45L372.01907 300.45L366.6181 300.45L361.2109 300.45L355.79837 300.45L350.38004 300.45L344.9555 300.45L339.52563 300.45L334.08997 300.45L328.64807 300.45L323.20087 300.45L317.7474 300.45L312.2882 300.45L306.82318 300.45L301.35242 300.45L295.87582 300.45L290.3935 300.45L284.90494 300.45L279.41013 300.45L273.91 300.45L268.40366 300.45L262.8915 300.45L257.37314 300.45L251.849 300.45L246.31863 300.45L240.78249 300.45L235.24013 300.45L229.69153 300.45L224.13715 300.45L218.577 300.45L213.01016 300.45L207.43756 300.45L201.85873 300.45L196.27412 300.45L190.68285 300.45L185.08578 300.45L179.4825 300.45L173.87299 300.45L168.2568 300.45L162.63484 300.45L157.00665 300.45L151.37225 300.45L145.73161 300.45L140.08475 300.45L134.43167 300.45L128.77191 300.45L123.105934 300.45L117.43386 300.45L111.7553 300.45L106.07051 300.45L100.37972 300.45L94.68199 300.45L88.974 300.45L83.25675 300.45L77.55004 300.45L77.55 300.45L77.55 300.45L77.55 300.45L77.55 300.45L77.55 300.45L77.55 300.45L77.55 300.45L77.55 300.45L77.55 300.45L77.55 300.45Z" fill-rule="nonzero"/><path stroke="#34a853" stroke-width="2.0" stroke-linecap="butt" clip-path="url(#id_0)" d="M77.55 300.45L77.55 300.45L77.55 300.45L77.55 300.45L77.55 300.45L77.55 300.45L77.55 300.45L77.55 300.45L77.55 300.45L77.55 300.45L77.55004 75.855125L83.25675 79.25231L88.974 82.65905L94.68199 86.06339L100.37972 89.46393L106.07051 92.8635L111.7553 96.26213L117.43386 99.6598L123.105934 103.05651L128.77191 106.4518L134.43167 109.8466L140.08475 113.239975L145.73161 116.63287L151.37225 120.02434L157.00665 123.414856L162.63484 126.80441L168.2568 130.19254L173.87299 133.58018L179.4825 136.96642L185.08578 140.35216L190.68285 143.73647L196.27412 147.11981L201.85873 150.50223L207.43756 153.88367L213.01016 157.26416L218.577 160.6437L224.13715 164.02182L229.69153 167.39944L235.24013 170.77565L240.78249 174.1509L246.31863 177.52567L251.849 180.899L257.37314 184.2714L262.8915 187.64282L268.40366 191.01329L273.91 194.38234L279.41013 197.7509L284.90494 201.11852L290.3935 204.4847L295.87582 207.8504L301.35242 211.21468L306.82318 214.578L312.2882 217.94084L317.7474 221.30226L323.20087 224.66272L328.64807 228.02222L334.08997 231.38077L339.52563 234.73836L344.9555 238.095L350.38004 241.45068L355.79837 244.80542L361.2109 248.15872L366.6181 251.51155L372.01907 254.86333L377.41473 258.21408L382.80457 261.56387L388.18866 264.91263L393.5674 268.2605L398.93994 271.60736L404.3071 274.95328L409.66898 278.2982L415.0246 281.64212L420.37488 284.9851L425.71982 288.32715L431.059 291.66824L436.3924 295.0084L441.72046 298.34753L446.89066 300.44775L451.79855 300.44775L456.70062 300.44775L461.59738 300.44775L466.48883 300.44775L471.3749 300.44775L476.25568 300.44775L481.13065 300.44775L486.00073 300.44775L490.86548 300.44775L495.72488 300.44775L500.57895 300.44775L505.4277 300.44775L510.27112 300.44775L515.1092 300.44775L519.9424 300.44775L524.768 300.44775L529.5923 300.44775L534.40765 300.44775L539.223 300.44775L544.02954 300.44775L548.8316 300.44775L553.62476 300.44775L558.4179 300.44775L563.2022 300.44775L567.98645 300.44775L572.76184 300.44775L577.5328 300.44775L581.45 300.44775" fill-rule="nonzero"/><path fill="#000000" fill-opacity="0.0" clip-path="url(#id_0)" d="M80.55 300.45C80.55 302.10684 79.206856 303.45 77.55 303.45C75.89314 303.45 74.55 302.10684 74.55 300.45C74.55 298.79315 75.89314 297.45 77.55 297.45C79.206856 297.45 80.55 298.79315 80.55 300.45Z" fill-rule="nonzero"/><path fill="#000000" fill-opacity="0.0" clip-path="url(#id_0)" d="M80.55 300.45C80.55 302.10684 79.206856 303.45 77.55 303.45C75.89314 303.45 74.55 302.10684 74.55 300.45C74.55 298.79315 75.89314 297.45 77.55 297.45C79.206856 297.45 80.55 298.79315 80.55 300.45Z" fill-rule="nonzero"/><path fill="#000000" fill-opacity="0.0" clip-path="url(#id_0)" d="M80.55 300.45C80.55 302.10684 79.206856 303.45 77.55 303.45C75.89314 303.45 74.55 302.10684 74.55 300.45C74.55 298.79315 75.89314 297.45 77.55 297.45C79.206856 297.45 80.55 298.79315 80.55 300.45Z" fill-rule="nonzero"/><path fill="#000000" fill-opacity="0.0" clip-path="url(#id_0)" d="M80.55 300.45C80.55 302.10684 79.206856 303.45 77.55 303.45C75.89314 303.45 74.55 302.10684 74.55 300.45C74.55 298.79315 75.89314 297.45 77.55 297.45C79.206856 297.45 80.55 298.79315 80.55 300.45Z" fill-rule="nonzero"/><path fill="#000000" fill-opacity="0.0" clip-path="url(#id_0)" d="M80.55 300.45C80.55 302.10684 79.206856 303.45 77.55 303.45C75.89314 303.45 74.55 302.10684 74.55 300.45C74.55 298.79315 75.89314 297.45 77.55 297.45C79.206856 297.45 80.55 298.79315 80.55 300.45Z" fill-rule="nonzero"/><path fill="#000000" fill-opacity="0.0" clip-path="url(#id_0)" d="M80.55 300.45C80.55 302.10684 79.206856 303.45 77.55 303.45C75.89314 303.45 74.55 302.10684 74.55 300.45C74.55 298.79315 75.89314 297.45 77.55 297.45C79.206856 297.45 80.55 298.79315 80.55 300.45Z" fill-rule="nonzero"/><path fill="#000000" fill-opacity="0.0" clip-path="url(#id_0)" d="M80.55 300.45C80.55 302.10684 79.206856 303.45 77.55 303.45C75.89314 303.45 74.55 302.10684 74.55 300.45C74.55 298.79315 75.89314 297.45 77.55 297.45C79.206856 297.45 80.55 298.79315 80.55 300.45Z" fill-rule="nonzero"/><path fill="#000000" fill-opacity="0.0" clip-path="url(#id_0)" d="M80.55 300.45C80.55 302.10684 79.206856 303.45 77.55 303.45C75.89314 303.45 74.55 302.10684 74.55 300.45C74.55 298.79315 75.89314 297.45 77.55 297.45C79.206856 297.45 80.55 298.79315 80.55 300.45Z" fill-rule="nonzero"/><path fill="#000000" fill-opacity="0.0" clip-path="url(#id_0)" d="M80.55 300.45C80.55 302.10684 79.206856 303.45 77.55 303.45C75.89314 303.45 74.55 302.10684 74.55 300.45C74.55 298.79315 75.89314 297.45 77.55 297.45C79.206856 297.45 80.55 298.79315 80.55 300.45Z" fill-rule="nonzero"/><path fill="#000000" fill-opacity="0.0" clip-path="url(#id_0)" d="M80.55 300.45C80.55 302.10684 79.206856 303.45 77.55 303.45C75.89314 303.45 74.55 302.10684 74.55 300.45C74.55 298.79315 75.89314 297.45 77.55 297.45C79.206856 297.45 80.55 298.79315 80.55 300.45Z" fill-rule="nonzero"/><path fill="#000000" fill-opacity="0.0" clip-path="url(#id_0)" d="M80.55004 75.855125C80.55004 77.51198 79.2069 78.855125 77.55004 78.855125C75.89319 78.855125 74.55004 77.51198 74.55004 75.855125C74.55004 74.19827 75.89319 72.855125 77.55004 72.855125C79.2069 72.855125 80.55004 74.19827 80.55004 75.855125Z" fill-rule="nonzero"/><path fill="#000000" fill-opacity="0.0" clip-path="url(#id_0)" d="M86.25675 79.25231C86.25675 80.90917 84.913605 82.25231 83.25675 82.25231C81.5999 82.25231 80.25675 80.90917 80.25675 79.25231C80.25675 77.59546 81.5999 76.25231 83.25675 76.25231C84.913605 76.25231 86.25675 77.59546 86.25675 79.25231Z" fill-rule="nonzero"/><path fill="#000000" fill-opacity="0.0" clip-path="url(#id_0)" d="M91.974 82.65905C91.974 84.3159 90.63085 85.65905 88.974 85.65905C87.31715 85.65905 85.974 84.3159 85.974 82.65905C85.974 81.0022 87.31715 79.65905 88.974 79.65905C90.63085 79.65905 91.974 81.0022 91.974 82.65905Z" fill-rule="nonzero"/><path fill="#000000" fill-opacity="0.0" clip-path="url(#id_0)" d="M97.68199 86.06339C97.68199 87.72025 96.33885 89.06339 94.68199 89.06339C93.02514 89.06339 91.68199 87.72025 91.68199 86.06339C91.68199 84.40654 93.02514 83.06339 94.68199 83.06339C96.33885 83.06339 97.68199 84.40654 97.68199 86.06339Z" fill-rule="nonzero"/><path fill="#000000" fill-opacity="0.0" clip-path="url(#id_0)" d="M103.37972 89.46393C103.37972 91.12078 102.036575 92.46393 100.37972 92.46393C98.72287 92.46393 97.37972 91.12078 97.37972 89.46393C97.37972 87.807076 98.72287 86.46393 100.37972 86.46393C102.036575 86.46393 103.37972 87.807076 103.37972 89.46393Z" fill-rule="nonzero"/><path fill="#000000" fill-opacity="0.0" clip-path="url(#id_0)" d="M109.07051 92.8635C109.07051 94.520355 107.72736 95.8635 106.07051 95.8635C104.41366 95.8635 103.07051 94.520355 103.07051 92.8635C103.07051 91.20665 104.41366 89.8635 106.07051 89.8635C107.72736 89.8635 109.07051 91.20665 109.07051 92.8635Z" fill-rule="nonzero"/><path fill="#000000" fill-opacity="0.0" clip-path="url(#id_0)" d="M114.7553 96.26213C114.7553 97.91898 113.412155 99.26213 111.7553 99.26213C110.09844 99.26213 108.7553 97.91898 108.7553 96.26213C108.7553 94.60527 110.09844 93.26213 111.7553 93.26213C113.412155 93.26213 114.7553 94.60527 114.7553 96.26213Z" fill-rule="nonzero"/><path fill="#000000" fill-opacity="0.0" clip-path="url(#id_0)" d="M120.43386 99.6598C120.43386 101.31665 119.09071 102.6598 117.43386 102.6598C115.77701 102.6598 114.43386 101.31665 114.43386 99.6598C114.43386 98.002945 115.77701 96.6598 117.43386 96.6598C119.09071 96.6598 120.43386 98.002945 120.43386 99.6598Z" fill-rule="nonzero"/><path fill="#000000" fill-opacity="0.0" clip-path="url(#id_0)" d="M126.105934 103.05651C126.105934 104.71336 124.76279 106.05651 123.105934 106.05651C121.44908 106.05651 120.105934 104.71336 120.105934 103.05651C120.105934 101.39966 121.44908 100.05651 123.105934 100.05651C124.76279 100.05651 126.105934 101.39966 126.105934 103.05651Z" fill-rule="nonzero"/><path fill="#000000" fill-opacity="0.0" clip-path="url(#id_0)" d="M131.77191 106.4518C131.77191 108.10865 130.42877 109.4518 128.77191 109.4518C127.11506 109.4518 125.77191 108.10865 125.77191 106.4518C125.77191 104.79494 127.11506 103.4518 128.77191 103.4518C130.42877 103.4518 131.77191 104.79494 131.77191 106.4518Z" fill-rule="nonzero"/><path fill="#000000" fill-opacity="0.0" clip-path="url(#id_0)" d="M137.43167 109.8466C137.43167 111.503456 136.08852 112.8466 134.43167 112.8466C132.77481 112.8466 131.43167 111.503456 131.43167 109.8466C131.43167 108.18974 132.77481 106.8466 134.43167 106.8466C136.08852 106.8466 137.43167 108.18974 137.43167 109.8466Z" fill-rule="nonzero"/><path fill="#000000" fill-opacity="0.0" clip-path="url(#id_0)" d="M143.08475 113.239975C143.08475 114.89683 141.74161 116.239975 140.08475 116.239975C138.4279 116.239975 137.08475 114.89683 137.08475 113.239975C137.08475 111.58312 138.4279 110.239975 140.08475 110.239975C141.74161 110.239975 143.08475 111.58312 143.08475 113.239975Z" fill-rule="nonzero"/><path fill="#000000" fill-opacity="0.0" clip-path="url(#id_0)" d="M148.73161 116.63287C148.73161 118.28973 147.38846 119.63287 145.73161 119.63287C144.07475 119.63287 142.73161 118.28973 142.73161 116.63287C142.73161 114.97602 144.07475 113.63287 145.73161 113.63287C147.38846 113.63287 148.73161 114.97602 148.73161 116.63287Z" fill-rule="nonzero"/><path fill="#000000" fill-opacity="0.0" clip-path="url(#id_0)" d="M154.37225 120.02434C154.37225 121.6812 153.0291 123.02434 151.37225 123.02434C149.7154 123.02434 148.37225 121.6812 148.37225 120.02434C148.37225 118.367485 149.7154 117.02434 151.37225 117.02434C153.0291 117.02434 154.37225 118.367485 154.37225 120.02434Z" fill-rule="nonzero"/><path fill="#000000" fill-opacity="0.0" clip-path="url(#id_0)" d="M160.00665 123.414856C160.00665 125.07171 158.66351 126.414856 157.00665 126.414856C155.34981 126.414856 154.00665 125.07171 154.00665 123.414856C154.00665 121.757996 155.34981 120.414856 157.00665 120.414856C158.66351 120.414856 160.00665 121.757996 160.00665 123.414856Z" fill-rule="nonzero"/><path fill="#000000" fill-opacity="0.0" clip-path="url(#id_0)" d="M165.63484 126.80441C165.63484 128.46127 164.2917 129.80441 162.63484 129.80441C160.97798 129.80441 159.63484 128.46127 159.63484 126.80441C159.63484 125.14756 160.97798 123.80441 162.63484 123.80441C164.2917 123.80441 165.63484 125.14756 165.63484 126.80441Z" fill-rule="nonzero"/><path fill="#000000" fill-opacity="0.0" clip-path="url(#id_0)" d="M171.2568 130.19254C171.2568 131.8494 169.91365 133.19254 168.2568 133.19254C166.59995 133.19254 165.2568 131.8494 165.2568 130.19254C165.2568 128.53569 166.59995 127.19254 168.2568 127.19254C169.91365 127.19254 171.2568 128.53569 171.2568 130.19254Z" fill-rule="nonzero"/><path fill="#000000" fill-opacity="0.0" clip-path="url(#id_0)" d="M176.87299 133.58018C176.87299 135.23705 175.52983 136.58018 173.87299 136.58018C172.21613 136.58018 170.87299 135.23705 170.87299 133.58018C170.87299 131.92334 172.21613 130.58018 173.87299 130.58018C175.52983 130.58018 176.87299 131.92334 176.87299 133.58018Z" fill-rule="nonzero"/><path fill="#000000" fill-opacity="0.0" clip-path="url(#id_0)" d="M182.4825 136.96642C182.4825 138.62326 181.13934 139.96642 179.4825 139.96642C177.82564 139.96642 176.4825 138.62326 176.4825 136.96642C176.4825 135.30956 177.82564 133.96642 179.4825 133.96642C181.13934 133.96642 182.4825 135.30956 182.4825 136.96642Z" fill-rule="nonzero"/><path fill="#000000" fill-opacity="0.0" clip-path="url(#id_0)" d="M188.08578 140.35216C188.08578 142.009 186.74263 143.35216 185.08578 143.35216C183.42892 143.35216 182.08578 142.009 182.08578 140.35216C182.08578 138.6953 183.42892 137.35216 185.08578 137.35216C186.74263 137.35216 188.08578 138.6953 188.08578 140.35216Z" fill-rule="nonzero"/><path fill="#000000" fill-opacity="0.0" clip-path="url(#id_0)" d="M193.68285 143.73647C193.68285 145.39331 192.33969 146.73647 190.68285 146.73647C189.02599 146.73647 187.68285 145.39331 187.68285 143.73647C187.68285 142.0796 189.02599 140.73647 190.68285 140.73647C192.33969 140.73647 193.68285 142.0796 193.68285 143.73647Z" fill-rule="nonzero"/><path fill="#000000" fill-opacity="0.0" clip-path="url(#id_0)" d="M199.27412 147.11981C199.27412 148.77667 197.93097 150.11981 196.27412 150.11981C194.61726 150.11981 193.27412 148.77667 193.27412 147.11981C193.27412 145.46297 194.61726 144.11981 196.27412 144.11981C197.93097 144.11981 199.27412 145.46297 199.27412 147.11981Z" fill-rule="nonzero"/><path fill="#000000" fill-opacity="0.0" clip-path="url(#id_0)" d="M204.85873 150.50223C204.85873 152.15907 203.51558 153.50223 201.85873 153.50223C200.20187 153.50223 198.85873 152.15907 198.85873 150.50223C198.85873 148.84537 200.20187 147.50223 201.85873 147.50223C203.51558 147.50223 204.85873 148.84537 204.85873 150.50223Z" fill-rule="nonzero"/><path fill="#000000" fill-opacity="0.0" clip-path="url(#id_0)" d="M210.43756 153.88367C210.43756 155.54053 209.09442 156.88367 207.43756 156.88367C205.78072 156.88367 204.43756 155.54053 204.43756 153.88367C204.43756 152.22682 205.78072 150.88367 207.43756 150.88367C209.09442 150.88367 210.43756 152.22682 210.43756 153.88367Z" fill-rule="nonzero"/><path fill="#000000" fill-opacity="0.0" clip-path="url(#id_0)" d="M216.01016 157.26416C216.01016 158.92102 214.66702 160.26416 213.01016 160.26416C211.35332 160.26416 210.01016 158.92102 210.01016 157.26416C210.01016 155.60732 211.35332 154.26416 213.01016 154.26416C214.66702 154.26416 216.01016 155.60732 216.01016 157.26416Z" fill-rule="nonzero"/><path fill="#000000" fill-opacity="0.0" clip-path="url(#id_0)" d="M221.577 160.6437C221.577 162.30055 220.23386 163.6437 218.577 163.6437C216.92014 163.6437 215.577 162.30055 215.577 160.6437C215.577 158.98685 216.92014 157.6437 218.577 157.6437C220.23386 157.6437 221.577 158.98685 221.577 160.6437Z" fill-rule="nonzero"/><path fill="#000000" fill-opacity="0.0" clip-path="url(#id_0)" d="M227.13715 164.02182C227.13715 165.67867 225.794 167.02182 224.13715 167.02182C222.4803 167.02182 221.13715 165.67867 221.13715 164.02182C221.13715 162.36496 222.4803 161.02182 224.13715 161.02182C225.794 161.02182 227.13715 162.36496 227.13715 164.02182Z" fill-rule="nonzero"/><path fill="#000000" fill-opacity="0.0" clip-path="url(#id_0)" d="M232.69153 167.39944C232.69153 169.0563 231.34837 170.39944 229.69153 170.39944C228.03467 170.39944 226.69153 169.0563 226.69153 167.39944C226.69153 165.7426 228.03467 164.39944 229.69153 164.39944C231.34837 164.39944 232.69153 165.7426 232.69153 167.39944Z" fill-rule="nonzero"/><path fill="#000000" fill-opacity="0.0" clip-path="url(#id_0)" d="M238.24013 170.77565C238.24013 172.4325 236.89697 173.77565 235.24013 173.77565C233.58327 173.77565 232.24013 172.4325 232.24013 170.77565C232.24013 169.11879 233.58327 167.77565 235.24013 167.77565C236.89697 167.77565 238.24013 169.11879 238.24013 170.77565Z" fill-rule="nonzero"/><path fill="#000000" fill-opacity="0.0" clip-path="url(#id_0)" d="M243.78249 174.1509C243.78249 175.80775 242.43935 177.1509 240.78249 177.1509C239.12564 177.1509 237.78249 175.80775 237.78249 174.1509C237.78249 172.49403 239.12564 171.1509 240.78249 171.1509C242.43935 171.1509 243.78249 172.49403 243.78249 174.1509Z" fill-rule="nonzero"/><path fill="#000000" fill-opacity="0.0" clip-path="url(#id_0)" d="M249.31863 177.52567C249.31863 179.18251 247.9755 180.52567 246.31863 180.52567C244.66179 180.52567 243.31863 179.18251 243.31863 177.52567C243.31863 175.8688 244.66179 174.52567 246.31863 174.52567C247.9755 174.52567 249.31863 175.8688 249.31863 177.52567Z" fill-rule="nonzero"/><path fill="#000000" fill-opacity="0.0" clip-path="url(#id_0)" d="M254.849 180.899C254.849 182.55586 253.50586 183.899 251.849 183.899C250.19215 183.899 248.849 182.55586 248.849 180.899C248.849 179.24214 250.19215 177.899 251.849 177.899C253.50586 177.899 254.849 179.24214 254.849 180.899Z" fill-rule="nonzero"/><path fill="#000000" fill-opacity="0.0" clip-path="url(#id_0)" d="M260.37314 184.2714C260.37314 185.92824 259.03 187.2714 257.37314 187.2714C255.7163 187.2714 254.37314 185.92824 254.37314 184.2714C254.37314 182.61453 255.7163 181.2714 257.37314 181.2714C259.03 181.2714 260.37314 182.61453 260.37314 184.2714Z" fill-rule="nonzero"/><path fill="#000000" fill-opacity="0.0" clip-path="url(#id_0)" d="M265.8915 187.64282C265.8915 189.29967 264.54837 190.64282 262.8915 190.64282C261.23465 190.64282 259.8915 189.29967 259.8915 187.64282C259.8915 185.98596 261.23465 184.64282 262.8915 184.64282C264.54837 184.64282 265.8915 185.98596 265.8915 187.64282Z" fill-rule="nonzero"/><path fill="#000000" fill-opacity="0.0" clip-path="url(#id_0)" d="M271.40366 191.01329C271.40366 192.67015 270.0605 194.01329 268.40366 194.01329C266.7468 194.01329 265.40366 192.67015 265.40366 191.01329C265.40366 189.35645 266.7468 188.01329 268.40366 188.01329C270.0605 188.01329 271.40366 189.35645 271.40366 191.01329Z" fill-rule="nonzero"/><path fill="#000000" fill-opacity="0.0" clip-path="url(#id_0)" d="M276.91 194.38234C276.91 196.03918 275.56686 197.38234 273.91 197.38234C272.25314 197.38234 270.91 196.03918 270.91 194.38234C270.91 192.72548 272.25314 191.38234 273.91 191.38234C275.56686 191.38234 276.91 192.72548 276.91 194.38234Z" fill-rule="nonzero"/><path fill="#000000" fill-opacity="0.0" clip-path="url(#id_0)" d="M282.41013 197.7509C282.41013 199.40776 281.067 200.7509 279.41013 200.7509C277.75327 200.7509 276.41013 199.40776 276.41013 197.7509C276.41013 196.09406 277.75327 194.7509 279.41013 194.7509C281.067 194.7509 282.41013 196.09406 282.41013 197.7509Z" fill-rule="nonzero"/><path fill="#000000" fill-opacity="0.0" clip-path="url(#id_0)" d="M287.90494 201.11852C287.90494 202.77538 286.56177 204.11852 284.90494 204.11852C283.24808 204.11852 281.90494 202.77538 281.90494 201.11852C281.90494 199.46167 283.24808 198.11852 284.90494 198.11852C286.56177 198.11852 287.90494 199.46167 287.90494 201.11852Z" fill-rule="nonzero"/><path fill="#000000" fill-opacity="0.0" clip-path="url(#id_0)" d="M293.3935 204.4847C293.3935 206.14156 292.05035 207.4847 290.3935 207.4847C288.73663 207.4847 287.3935 206.14156 287.3935 204.4847C287.3935 202.82785 288.73663 201.4847 290.3935 201.4847C292.05035 201.4847 293.3935 202.82785 293.3935 204.4847Z" fill-rule="nonzero"/><path fill="#000000" fill-opacity="0.0" clip-path="url(#id_0)" d="M298.87582 207.8504C298.87582 209.50726 297.53268 210.8504 295.87582 210.8504C294.219 210.8504 292.87582 209.50726 292.87582 207.8504C292.87582 206.19356 294.219 204.8504 295.87582 204.8504C297.53268 204.8504 298.87582 206.19356 298.87582 207.8504Z" fill-rule="nonzero"/><path fill="#000000" fill-opacity="0.0" clip-path="url(#id_0)" d="M304.35242 211.21468C304.35242 212.87154 303.00925 214.21468 301.35242 214.21468C299.69556 214.21468 298.35242 212.87154 298.35242 211.21468C298.35242 209.55783 299.69556 208.21468 301.35242 208.21468C303.00925 208.21468 304.35242 209.55783 304.35242 211.21468Z" fill-rule="nonzero"/><path fill="#000000" fill-opacity="0.0" clip-path="url(#id_0)" d="M309.82318 214.578C309.82318 216.23485 308.48004 217.578 306.82318 217.578C305.16632 217.578 303.82318 216.23485 303.82318 214.578C303.82318 212.92114 305.16632 211.578 306.82318 211.578C308.48004 211.578 309.82318 212.92114 309.82318 214.578Z" fill-rule="nonzero"/><path fill="#000000" fill-opacity="0.0" clip-path="url(#id_0)" d="M315.2882 217.94084C315.2882 219.5977 313.94504 220.94084 312.2882 220.94084C310.63135 220.94084 309.2882 219.5977 309.2882 217.94084C309.2882 216.28398 310.63135 214.94084 312.2882 214.94084C313.94504 214.94084 315.2882 216.28398 315.2882 217.94084Z" fill-rule="nonzero"/><path fill="#000000" fill-opacity="0.0" clip-path="url(#id_0)" d="M320.7474 221.30226C320.7474 222.9591 319.40427 224.30226 317.7474 224.30226C316.09058 224.30226 314.7474 222.9591 314.7474 221.30226C314.7474 219.6454 316.09058 218.30226 317.7474 218.30226C319.40427 218.30226 320.7474 219.6454 320.7474 221.30226Z" fill-rule="nonzero"/><path fill="#000000" fill-opacity="0.0" clip-path="url(#id_0)" d="M326.20087 224.66272C326.20087 226.31956 324.85773 227.66272 323.20087 227.66272C321.544 227.66272 320.20087 226.31956 320.20087 224.66272C320.20087 223.00586 321.544 221.66272 323.20087 221.66272C324.85773 221.66272 326.20087 223.00586 326.20087 224.66272Z" fill-rule="nonzero"/><path fill="#000000" fill-opacity="0.0" clip-path="url(#id_0)" d="M331.64807 228.02222C331.64807 229.67908 330.30493 231.02222 328.64807 231.02222C326.9912 231.02222 325.64807 229.67908 325.64807 228.02222C325.64807 226.36536 326.9912 225.02222 328.64807 225.02222C330.30493 225.02222 331.64807 226.36536 331.64807 228.02222Z" fill-rule="nonzero"/><path fill="#000000" fill-opacity="0.0" clip-path="url(#id_0)" d="M337.08997 231.38077C337.08997 233.03761 335.74683 234.38077 334.08997 234.38077C332.4331 234.38077 331.08997 233.03761 331.08997 231.38077C331.08997 229.7239 332.4331 228.38077 334.08997 228.38077C335.74683 228.38077 337.08997 229.7239 337.08997 231.38077Z" fill-rule="nonzero"/><path fill="#000000" fill-opacity="0.0" clip-path="url(#id_0)" d="M342.52563 234.73836C342.52563 236.39522 341.18246 237.73836 339.52563 237.73836C337.86877 237.73836 336.52563 236.39522 336.52563 234.73836C336.52563 233.08151 337.86877 231.73836 339.52563 231.73836C341.18246 231.73836 342.52563 233.08151 342.52563 234.73836Z" fill-rule="nonzero"/><path fill="#000000" fill-opacity="0.0" clip-path="url(#id_0)" d="M347.9555 238.095C347.9555 239.75186 346.61237 241.095 344.9555 241.095C343.29865 241.095 341.9555 239.75186 341.9555 238.095C341.9555 236.43814 343.29865 235.095 344.9555 235.095C346.61237 235.095 347.9555 236.43814 347.9555 238.095Z" fill-rule="nonzero"/><path fill="#000000" fill-opacity="0.0" clip-path="url(#id_0)" d="M353.38004 241.45068C353.38004 243.10754 352.0369 244.45068 350.38004 244.45068C348.72318 244.45068 347.38004 243.10754 347.38004 241.45068C347.38004 239.79384 348.72318 238.45068 350.38004 238.45068C352.0369 238.45068 353.38004 239.79384 353.38004 241.45068Z" fill-rule="nonzero"/><path fill="#000000" fill-opacity="0.0" clip-path="url(#id_0)" d="M358.79837 244.80542C358.79837 246.46228 357.4552 247.80542 355.79837 247.80542C354.1415 247.80542 352.79837 246.46228 352.79837 244.80542C352.79837 243.14856 354.1415 241.80542 355.79837 241.80542C357.4552 241.80542 358.79837 243.14856 358.79837 244.80542Z" fill-rule="nonzero"/><path fill="#000000" fill-opacity="0.0" clip-path="url(#id_0)" d="M364.2109 248.15872C364.2109 249.81558 362.86777 251.15872 361.2109 251.15872C359.55405 251.15872 358.2109 249.81558 358.2109 248.15872C358.2109 246.50186 359.55405 245.15872 361.2109 245.15872C362.86777 245.15872 364.2109 246.50186 364.2109 248.15872Z" fill-rule="nonzero"/><path fill="#000000" fill-opacity="0.0" clip-path="url(#id_0)" d="M369.6181 251.51155C369.6181 253.1684 368.27496 254.51155 366.6181 254.51155C364.96124 254.51155 363.6181 253.1684 363.6181 251.51155C363.6181 249.85469 364.96124 248.51155 366.6181 248.51155C368.27496 248.51155 369.6181 249.85469 369.6181 251.51155Z" fill-rule="nonzero"/><path fill="#000000" fill-opacity="0.0" clip-path="url(#id_0)" d="M375.01907 254.86333C375.01907 256.52017 373.67593 257.8633 372.01907 257.8633C370.3622 257.8633 369.01907 256.52017 369.01907 254.86333C369.01907 253.20647 370.3622 251.86333 372.01907 251.86333C373.67593 251.86333 375.01907 253.20647 375.01907 254.86333Z" fill-rule="nonzero"/><path fill="#000000" fill-opacity="0.0" clip-path="url(#id_0)" d="M380.41473 258.21408C380.41473 259.87094 379.07156 261.21408 377.41473 261.21408C375.75787 261.21408 374.41473 259.87094 374.41473 258.21408C374.41473 256.55725 375.75787 255.2141 377.41473 255.2141C379.07156 255.2141 380.41473 256.55725 380.41473 258.21408Z" fill-rule="nonzero"/><path fill="#000000" fill-opacity="0.0" clip-path="url(#id_0)" d="M385.80457 261.56387C385.80457 263.22073 384.46143 264.56387 382.80457 264.56387C381.14774 264.56387 379.80457 263.22073 379.80457 261.56387C379.80457 259.907 381.14774 258.56387 382.80457 258.56387C384.46143 258.56387 385.80457 259.907 385.80457 261.56387Z" fill-rule="nonzero"/><path fill="#000000" fill-opacity="0.0" clip-path="url(#id_0)" d="M391.18866 264.91263C391.18866 266.5695 389.84552 267.91263 388.18866 267.91263C386.5318 267.91263 385.18866 266.5695 385.18866 264.91263C385.18866 263.25577 386.5318 261.91263 388.18866 261.91263C389.84552 261.91263 391.18866 263.25577 391.18866 264.91263Z" fill-rule="nonzero"/><path fill="#000000" fill-opacity="0.0" clip-path="url(#id_0)" d="M396.5674 268.2605C396.5674 269.91736 395.22427 271.2605 393.5674 271.2605C391.91055 271.2605 390.5674 269.91736 390.5674 268.2605C390.5674 266.60364 391.91055 265.2605 393.5674 265.2605C395.22427 265.2605 396.5674 266.60364 396.5674 268.2605Z" fill-rule="nonzero"/><path fill="#000000" fill-opacity="0.0" clip-path="url(#id_0)" d="M401.93994 271.60736C401.93994 273.26422 400.59677 274.60736 398.93994 274.60736C397.28308 274.60736 395.93994 273.26422 395.93994 271.60736C395.93994 269.9505 397.28308 268.60736 398.93994 268.60736C400.59677 268.60736 401.93994 269.9505 401.93994 271.60736Z" fill-rule="nonzero"/><path fill="#000000" fill-opacity="0.0" clip-path="url(#id_0)" d="M407.3071 274.95328C407.3071 276.6101 405.96396 277.95328 404.3071 277.95328C402.65027 277.95328 401.3071 276.6101 401.3071 274.95328C401.3071 273.29642 402.65027 271.95328 404.3071 271.95328C405.96396 271.95328 407.3071 273.29642 407.3071 274.95328Z" fill-rule="nonzero"/><path fill="#000000" fill-opacity="0.0" clip-path="url(#id_0)" d="M412.66898 278.2982C412.66898 279.95502 411.3258 281.2982 409.66898 281.2982C408.01212 281.2982 406.66898 279.95502 406.66898 278.2982C406.66898 276.64133 408.01212 275.2982 409.66898 275.2982C411.3258 275.2982 412.66898 276.64133 412.66898 278.2982Z" fill-rule="nonzero"/><path fill="#000000" fill-opacity="0.0" clip-path="url(#id_0)" d="M418.0246 281.64212C418.0246 283.29898 416.68143 284.64212 415.0246 284.64212C413.36774 284.64212 412.0246 283.29898 412.0246 281.64212C412.0246 279.98526 413.36774 278.64212 415.0246 278.64212C416.68143 278.64212 418.0246 279.98526 418.0246 281.64212Z" fill-rule="nonzero"/><path fill="#000000" fill-opacity="0.0" clip-path="url(#id_0)" d="M423.37488 284.9851C423.37488 286.64197 422.03174 287.9851 420.37488 287.9851C418.71802 287.9851 417.37488 286.64197 417.37488 284.9851C417.37488 283.32828 418.71802 281.9851 420.37488 281.9851C422.03174 281.9851 423.37488 283.32828 423.37488 284.9851Z" fill-rule="nonzero"/><path fill="#000000" fill-opacity="0.0" clip-path="url(#id_0)" d="M428.71982 288.32715C428.71982 289.984 427.37668 291.32715 425.71982 291.32715C424.06296 291.32715 422.71982 289.984 422.71982 288.32715C422.71982 286.67032 424.06296 285.32715 425.71982 285.32715C427.37668 285.32715 428.71982 286.67032 428.71982 288.32715Z" fill-rule="nonzero"/><path fill="#000000" fill-opacity="0.0" clip-path="url(#id_0)" d="M434.059 291.66824C434.059 293.3251 432.71585 294.66824 431.059 294.66824C429.40216 294.66824 428.059 293.3251 428.059 291.66824C428.059 290.01138 429.40216 288.66824 431.059 288.66824C432.71585 288.66824 434.059 290.01138 434.059 291.66824Z" fill-rule="nonzero"/><path fill="#000000" fill-opacity="0.0" clip-path="url(#id_0)" d="M439.3924 295.0084C439.3924 296.66525 438.04926 298.0084 436.3924 298.0084C434.73553 298.0084 433.3924 296.66525 433.3924 295.0084C433.3924 293.35153 434.73553 292.0084 436.3924 292.0084C438.04926 292.0084 439.3924 293.35153 439.3924 295.0084Z" fill-rule="nonzero"/><path fill="#000000" fill-opacity="0.0" clip-path="url(#id_0)" d="M444.72046 298.34753C444.72046 300.00436 443.3773 301.34753 441.72046 301.34753C440.0636 301.34753 438.72046 300.00436 438.72046 298.34753C438.72046 296.69067 440.0636 295.34753 441.72046 295.34753C443.3773 295.34753 444.72046 296.69067 444.72046 298.34753Z" fill-rule="nonzero"/><path fill="#000000" fill-opacity="0.0" clip-path="url(#id_0)" d="M449.89066 300.44775C449.89066 302.1046 448.54752 303.44775 446.89066 303.44775C445.2338 303.44775 443.89066 302.1046 443.89066 300.44775C443.89066 298.7909 445.2338 297.44775 446.89066 297.44775C448.54752 297.44775 449.89066 298.7909 449.89066 300.44775Z" fill-rule="nonzero"/><path fill="#000000" fill-opacity="0.0" clip-path="url(#id_0)" d="M454.79855 300.44775C454.79855 302.1046 453.45538 303.44775 451.79855 303.44775C450.1417 303.44775 448.79855 302.1046 448.79855 300.44775C448.79855 298.7909 450.1417 297.44775 451.79855 297.44775C453.45538 297.44775 454.79855 298.7909 454.79855 300.44775Z" fill-rule="nonzero"/><path fill="#000000" fill-opacity="0.0" clip-path="url(#id_0)" d="M459.70062 300.44775C459.70062 302.1046 458.35748 303.44775 456.70062 303.44775C455.0438 303.44775 453.70062 302.1046 453.70062 300.44775C453.70062 298.7909 455.0438 297.44775 456.70062 297.44775C458.35748 297.44775 459.70062 298.7909 459.70062 300.44775Z" fill-rule="nonzero"/><path fill="#000000" fill-opacity="0.0" clip-path="url(#id_0)" d="M464.59738 300.44775C464.59738 302.1046 463.25424 303.44775 461.59738 303.44775C459.94055 303.44775 458.59738 302.1046 458.59738 300.44775C458.59738 298.7909 459.94055 297.44775 461.59738 297.44775C463.25424 297.44775 464.59738 298.7909 464.59738 300.44775Z" fill-rule="nonzero"/><path fill="#000000" fill-opacity="0.0" clip-path="url(#id_0)" d="M469.48883 300.44775C469.48883 302.1046 468.1457 303.44775 466.48883 303.44775C464.83197 303.44775 463.48883 302.1046 463.48883 300.44775C463.48883 298.7909 464.83197 297.44775 466.48883 297.44775C468.1457 297.44775 469.48883 298.7909 469.48883 300.44775Z" fill-rule="nonzero"/><path fill="#000000" fill-opacity="0.0" clip-path="url(#id_0)" d="M474.3749 300.44775C474.3749 302.1046 473.03177 303.44775 471.3749 303.44775C469.71805 303.44775 468.3749 302.1046 468.3749 300.44775C468.3749 298.7909 469.71805 297.44775 471.3749 297.44775C473.03177 297.44775 474.3749 298.7909 474.3749 300.44775Z" fill-rule="nonzero"/><path fill="#000000" fill-opacity="0.0" clip-path="url(#id_0)" d="M479.25568 300.44775C479.25568 302.1046 477.91254 303.44775 476.25568 303.44775C474.59882 303.44775 473.25568 302.1046 473.25568 300.44775C473.25568 298.7909 474.59882 297.44775 476.25568 297.44775C477.91254 297.44775 479.25568 298.7909 479.25568 300.44775Z" fill-rule="nonzero"/><path fill="#000000" fill-opacity="0.0" clip-path="url(#id_0)" d="M484.13065 300.44775C484.13065 302.1046 482.7875 303.44775 481.13065 303.44775C479.4738 303.44775 478.13065 302.1046 478.13065 300.44775C478.13065 298.7909 479.4738 297.44775 481.13065 297.44775C482.7875 297.44775 484.13065 298.7909 484.13065 300.44775Z" fill-rule="nonzero"/><path fill="#000000" fill-opacity="0.0" clip-path="url(#id_0)" d="M489.00073 300.44775C489.00073 302.1046 487.6576 303.44775 486.00073 303.44775C484.34387 303.44775 483.00073 302.1046 483.00073 300.44775C483.00073 298.7909 484.34387 297.44775 486.00073 297.44775C487.6576 297.44775 489.00073 298.7909 489.00073 300.44775Z" fill-rule="nonzero"/><path fill="#000000" fill-opacity="0.0" clip-path="url(#id_0)" d="M493.86548 300.44775C493.86548 302.1046 492.52234 303.44775 490.86548 303.44775C489.20862 303.44775 487.86548 302.1046 487.86548 300.44775C487.86548 298.7909 489.20862 297.44775 490.86548 297.44775C492.52234 297.44775 493.86548 298.7909 493.86548 300.44775Z" fill-rule="nonzero"/><path fill="#000000" fill-opacity="0.0" clip-path="url(#id_0)" d="M498.72488 300.44775C498.72488 302.1046 497.38174 303.44775 495.72488 303.44775C494.06802 303.44775 492.72488 302.1046 492.72488 300.44775C492.72488 298.7909 494.06802 297.44775 495.72488 297.44775C497.38174 297.44775 498.72488 298.7909 498.72488 300.44775Z" fill-rule="nonzero"/><path fill="#000000" fill-opacity="0.0" clip-path="url(#id_0)" d="M503.57895 300.44775C503.57895 302.1046 502.2358 303.44775 500.57895 303.44775C498.92212 303.44775 497.57895 302.1046 497.57895 300.44775C497.57895 298.7909 498.92212 297.44775 500.57895 297.44775C502.2358 297.44775 503.57895 298.7909 503.57895 300.44775Z" fill-rule="nonzero"/><path fill="#000000" fill-opacity="0.0" clip-path="url(#id_0)" d="M508.4277 300.44775C508.4277 302.1046 507.08456 303.44775 505.4277 303.44775C503.77084 303.44775 502.4277 302.1046 502.4277 300.44775C502.4277 298.7909 503.77084 297.44775 505.4277 297.44775C507.08456 297.44775 508.4277 298.7909 508.4277 300.44775Z" fill-rule="nonzero"/><path fill="#000000" fill-opacity="0.0" clip-path="url(#id_0)" d="M513.2711 300.44775C513.2711 302.1046 511.92795 303.44775 510.27112 303.44775C508.61426 303.44775 507.27112 302.1046 507.27112 300.44775C507.27112 298.7909 508.61426 297.44775 510.27112 297.44775C511.92795 297.44775 513.2711 298.7909 513.2711 300.44775Z" fill-rule="nonzero"/><path fill="#000000" fill-opacity="0.0" clip-path="url(#id_0)" d="M518.1092 300.44775C518.1092 302.1046 516.76605 303.44775 515.1092 303.44775C513.45233 303.44775 512.1092 302.1046 512.1092 300.44775C512.1092 298.7909 513.45233 297.44775 515.1092 297.44775C516.76605 297.44775 518.1092 298.7909 518.1092 300.44775Z" fill-rule="nonzero"/><path fill="#000000" fill-opacity="0.0" clip-path="url(#id_0)" d="M522.9424 300.44775C522.9424 302.1046 521.5992 303.44775 519.9424 303.44775C518.2855 303.44775 516.9424 302.1046 516.9424 300.44775C516.9424 298.7909 518.2855 297.44775 519.9424 297.44775C521.5992 297.44775 522.9424 298.7909 522.9424 300.44775Z" fill-rule="nonzero"/><path fill="#000000" fill-opacity="0.0" clip-path="url(#id_0)" d="M527.768 300.44775C527.768 302.1046 526.4248 303.44775 524.768 303.44775C523.11115 303.44775 521.768 302.1046 521.768 300.44775C521.768 298.7909 523.11115 297.44775 524.768 297.44775C526.4248 297.44775 527.768 298.7909 527.768 300.44775Z" fill-rule="nonzero"/><path fill="#000000" fill-opacity="0.0" clip-path="url(#id_0)" d="M532.5923 300.44775C532.5923 302.1046 531.24915 303.44775 529.5923 303.44775C527.9354 303.44775 526.5923 302.1046 526.5923 300.44775C526.5923 298.7909 527.9354 297.44775 529.5923 297.44775C531.24915 297.44775 532.5923 298.7909 532.5923 300.44775Z" fill-rule="nonzero"/><path fill="#000000" fill-opacity="0.0" clip-path="url(#id_0)" d="M537.40765 300.44775C537.40765 302.1046 536.0645 303.44775 534.40765 303.44775C532.7508 303.44775 531.40765 302.1046 531.40765 300.44775C531.40765 298.7909 532.7508 297.44775 534.40765 297.44775C536.0645 297.44775 537.40765 298.7909 537.40765 300.44775Z" fill-rule="nonzero"/><path fill="#000000" fill-opacity="0.0" clip-path="url(#id_0)" d="M542.223 300.44775C542.223 302.1046 540.8799 303.44775 539.223 303.44775C537.5662 303.44775 536.223 302.1046 536.223 300.44775C536.223 298.7909 537.5662 297.44775 539.223 297.44775C540.8799 297.44775 542.223 298.7909 542.223 300.44775Z" fill-rule="nonzero"/><path fill="#000000" fill-opacity="0.0" clip-path="url(#id_0)" d="M547.02954 300.44775C547.02954 302.1046 545.6864 303.44775 544.02954 303.44775C542.3727 303.44775 541.02954 302.1046 541.02954 300.44775C541.02954 298.7909 542.3727 297.44775 544.02954 297.44775C545.6864 297.44775 547.02954 298.7909 547.02954 300.44775Z" fill-rule="nonzero"/><path fill="#000000" fill-opacity="0.0" clip-path="url(#id_0)" d="M551.8316 300.44775C551.8316 302.1046 550.48846 303.44775 548.8316 303.44775C547.17474 303.44775 545.8316 302.1046 545.8316 300.44775C545.8316 298.7909 547.17474 297.44775 548.8316 297.44775C550.48846 297.44775 551.8316 298.7909 551.8316 300.44775Z" fill-rule="nonzero"/><path fill="#000000" fill-opacity="0.0" clip-path="url(#id_0)" d="M556.62476 300.44775C556.62476 302.1046 555.2816 303.44775 553.62476 303.44775C551.9679 303.44775 550.62476 302.1046 550.62476 300.44775C550.62476 298.7909 551.9679 297.44775 553.62476 297.44775C555.2816 297.44775 556.62476 298.7909 556.62476 300.44775Z" fill-rule="nonzero"/><path fill="#000000" fill-opacity="0.0" clip-path="url(#id_0)" d="M561.4179 300.44775C561.4179 302.1046 560.07477 303.44775 558.4179 303.44775C556.76105 303.44775 555.4179 302.1046 555.4179 300.44775C555.4179 298.7909 556.76105 297.44775 558.4179 297.44775C560.07477 297.44775 561.4179 298.7909 561.4179 300.44775Z" fill-rule="nonzero"/><path fill="#000000" fill-opacity="0.0" clip-path="url(#id_0)" d="M566.2022 300.44775C566.2022 302.1046 564.8591 303.44775 563.2022 303.44775C561.54535 303.44775 560.2022 302.1046 560.2022 300.44775C560.2022 298.7909 561.54535 297.44775 563.2022 297.44775C564.8591 297.44775 566.2022 298.7909 566.2022 300.44775Z" fill-rule="nonzero"/><path fill="#000000" fill-opacity="0.0" clip-path="url(#id_0)" d="M570.98645 300.44775C570.98645 302.1046 569.6433 303.44775 567.98645 303.44775C566.3296 303.44775 564.98645 302.1046 564.98645 300.44775C564.98645 298.7909 566.3296 297.44775 567.98645 297.44775C569.6433 297.44775 570.98645 298.7909 570.98645 300.44775Z" fill-rule="nonzero"/><path fill="#000000" fill-opacity="0.0" clip-path="url(#id_0)" d="M575.76184 300.44775C575.76184 302.1046 574.4187 303.44775 572.76184 303.44775C571.105 303.44775 569.76184 302.1046 569.76184 300.44775C569.76184 298.7909 571.105 297.44775 572.76184 297.44775C574.4187 297.44775 575.76184 298.7909 575.76184 300.44775Z" fill-rule="nonzero"/><path fill="#000000" fill-opacity="0.0" clip-path="url(#id_0)" d="M580.5328 300.44775C580.5328 302.1046 579.18964 303.44775 577.5328 303.44775C575.8759 303.44775 574.5328 302.1046 574.5328 300.44775C574.5328 298.7909 575.8759 297.44775 577.5328 297.44775C579.18964 297.44775 580.5328 298.7909 580.5328 300.44775Z" fill-rule="nonzero"/><path fill="#000000" fill-opacity="0.0" clip-path="url(#id_0)" d="M584.45 300.44775C584.45 302.1046 583.1069 303.44775 581.45 303.44775C579.79315 303.44775 578.45 302.1046 578.45 300.44775C578.45 298.7909 579.79315 297.44775 581.45 297.44775C583.1069 297.44775 584.45 298.7909 584.45 300.44775Z" fill-rule="nonzero"/><path fill="#000000" d="M296.54688 347.45L297.64062 347.575Q297.39062 348.52814 296.6875 349.0594Q295.98438 349.59064 294.90625 349.59064Q293.54688 349.59064 292.73438 348.7469Q291.9375 347.90314 291.9375 346.3875Q291.9375 344.825 292.75 343.96564Q293.5625 343.09064 294.84375 343.09064Q296.09375 343.09064 296.875 343.9344Q297.67188 344.77814 297.67188 346.325Q297.67188 346.41876 297.67188 346.60626L293.03125 346.60626Q293.09375 347.6375 293.60938 348.1844Q294.125 348.71564 294.90625 348.71564Q295.48438 348.71564 295.89062 348.41876Q296.3125 348.10626 296.54688 347.45ZM293.09375 345.7469L296.5625 345.7469Q296.5 344.95 296.17188 344.5594Q295.65625 343.95 294.85938 343.95Q294.125 343.95 293.625 344.4344Q293.14062 344.91876 293.09375 345.7469ZM299.29688 351.84064L299.29688 343.23126L300.25 343.23126L300.25 344.02814Q300.59375 343.5594 301.01562 343.325Q301.45312 343.09064 302.0625 343.09064Q302.85938 343.09064 303.46875 343.4969Q304.07812 343.90314 304.375 344.65314Q304.6875 345.40314 304.6875 346.29376Q304.6875 347.2469 304.34375 348.0125Q304.01562 348.77814 303.35938 349.1844Q302.70312 349.59064 301.98438 349.59064Q301.45312 349.59064 301.03125 349.3719Q300.60938 349.1375 300.34375 348.8094L300.34375 351.84064L299.29688 351.84064ZM300.25 346.3719Q300.25 347.575 300.73438 348.15314Q301.21875 348.71564 301.90625 348.71564Q302.60938 348.71564 303.10938 348.1219Q303.60938 347.52814 303.60938 346.27814Q303.60938 345.09064 303.125 344.5125Q302.64062 343.91876 301.95312 343.91876Q301.28125 343.91876 300.76562 344.54376Q300.25 345.16876 300.25 346.3719ZM305.875 347.59064L306.90625 347.4344Q307.0 348.0594 307.39062 348.3875Q307.79688 348.71564 308.53125 348.71564Q309.25 348.71564 309.59375 348.4344Q309.95312 348.1375 309.95312 347.73126Q309.95312 347.3719 309.64062 347.16876Q309.42188 347.02814 308.5625 346.8094Q307.40625 346.5125 306.95312 346.3094Q306.51562 346.09064 306.28125 345.71564Q306.04688 345.34064 306.04688 344.8719Q306.04688 344.46564 306.23438 344.10626Q306.42188 343.7469 306.75 343.5125Q307.0 343.34064 307.42188 343.21564Q307.84375 343.09064 308.34375 343.09064Q309.0625 343.09064 309.60938 343.3094Q310.17188 343.5125 310.4375 343.8719Q310.70312 344.23126 310.79688 344.825L309.76562 344.96564Q309.70312 344.4969 309.35938 344.23126Q309.03125 343.95 308.40625 343.95Q307.6875 343.95 307.375 344.2Q307.0625 344.4344 307.0625 344.7625Q307.0625 344.96564 307.1875 345.1219Q307.32812 345.29376 307.59375 345.40314Q307.75 345.46564 308.53125 345.66876Q309.65625 345.98126 310.09375 346.16876Q310.53125 346.35626 310.78125 346.71564Q311.03125 347.075 311.03125 347.6219Q311.03125 348.15314 310.71875 348.6219Q310.42188 349.075 309.84375 349.34064Q309.26562 349.59064 308.53125 349.59064Q307.3125 349.59064 306.67188 349.09064Q306.04688 348.575 305.875 347.59064ZM319.5625 346.4344L320.6875 346.73126Q320.32812 348.1219 319.40625 348.85626Q318.48438 349.59064 317.14062 349.59064Q315.75 349.59064 314.875 349.02814Q314.0 348.46564 313.54688 347.40314Q313.09375 346.325 313.09375 345.09064Q313.09375 343.7469 313.60938 342.7469Q314.125 341.7469 315.0625 341.23126Q316.01562 340.71564 317.15625 340.71564Q318.4375 340.71564 319.3125 341.3719Q320.20312 342.02814 320.54688 343.21564L319.42188 343.48126Q319.125 342.54376 318.54688 342.1219Q317.98438 341.6844 317.125 341.6844Q316.14062 341.6844 315.46875 342.16876Q314.8125 342.6375 314.53125 343.4344Q314.26562 344.23126 314.26562 345.09064Q314.26562 346.1844 314.57812 346.9969Q314.90625 347.8094 315.57812 348.21564Q316.25 348.6219 317.04688 348.6219Q318.0 348.6219 318.65625 348.075Q319.32812 347.52814 319.5625 346.4344ZM322.28125 349.45L322.28125 343.23126L323.23438 343.23126L323.23438 344.16876Q323.59375 343.5125 323.89062 343.3094Q324.20312 343.09064 324.57812 343.09064Q325.10938 343.09064 325.65625 343.41876L325.29688 344.40314Q324.90625 344.16876 324.53125 344.16876Q324.17188 344.16876 323.89062 344.3875Q323.625 344.59064 323.51562 344.96564Q323.32812 345.52814 323.32812 346.1844L323.32812 349.45L322.28125 349.45ZM328.3125 351.98126Q327.4375 350.8719 326.82812 349.40314Q326.23438 347.91876 326.23438 346.34064Q326.23438 344.95 326.67188 343.66876Q327.20312 342.1844 328.3125 340.71564L329.0625 340.71564Q328.35938 341.9344 328.125 342.45Q327.76562 343.2625 327.5625 344.1375Q327.3125 345.23126 327.3125 346.34064Q327.3125 349.16876 329.0625 351.98126L328.3125 351.98126ZM330.29688 349.45L330.29688 343.23126L331.23438 343.23126L331.23438 344.10626Q331.92188 343.09064 333.21875 343.09064Q333.78125 343.09064 334.25 343.29376Q334.73438 343.4969 334.96875 343.825Q335.20312 344.15314 335.29688 344.59064Q335.34375 344.8875 335.34375 345.6219L335.34375 349.45L334.29688 349.45L334.29688 345.66876Q334.29688 345.0125 334.17188 344.7Q334.04688 344.3875 333.73438 344.2Q333.42188 343.9969 333.0 343.9969Q332.32812 343.9969 331.82812 344.4344Q331.34375 344.85626 331.34375 346.04376L331.34375 349.45L330.29688 349.45ZM337.29688 349.45L337.29688 343.23126L338.23438 343.23126L338.23438 344.10626Q338.92188 343.09064 340.21875 343.09064Q340.78125 343.09064 341.25 343.29376Q341.73438 343.4969 341.96875 343.825Q342.20312 344.15314 342.29688 344.59064Q342.34375 344.8875 342.34375 345.6219L342.34375 349.45L341.29688 349.45L341.29688 345.66876Q341.29688 345.0125 341.17188 344.7Q341.04688 344.3875 340.73438 344.2Q340.42188 343.9969 340.0 343.9969Q339.32812 343.9969 338.82812 344.4344Q338.34375 344.85626 338.34375 346.04376L338.34375 349.45L337.29688 349.45ZM344.98438 351.98126L344.23438 351.98126Q345.98438 349.16876 345.98438 346.34064Q345.98438 345.2469 345.73438 344.15314Q345.53125 343.27814 345.17188 342.46564Q344.9375 341.95 344.23438 340.71564L344.98438 340.71564Q346.07812 342.1844 346.60938 343.66876Q347.0625 344.95 347.0625 346.34064Q347.0625 347.91876 346.45312 349.40314Q345.84375 350.8719 344.98438 351.98126ZM351.3125 351.84064L351.3125 340.85626L353.64062 340.85626L353.64062 341.73126L352.375 341.73126L352.375 350.96564L353.64062 350.96564L353.64062 351.84064L351.3125 351.84064ZM354.20312 342.91876Q354.20312 341.9969 354.65625 341.35626Q355.125 340.71564 356.0 340.71564Q356.8125 340.71564 357.34375 341.29376Q357.875 341.8719 357.875 342.98126Q357.875 344.075 357.32812 344.66876Q356.79688 345.2469 356.01562 345.2469Q355.23438 345.2469 354.71875 344.66876Q354.20312 344.09064 354.20312 342.91876ZM356.03125 341.4344Q355.64062 341.4344 355.375 341.77814Q355.125 342.1219 355.125 343.02814Q355.125 343.85626 355.375 344.2Q355.64062 344.52814 356.03125 344.52814Q356.4375 344.52814 356.6875 344.1844Q356.95312 343.84064 356.95312 342.95Q356.95312 342.10626 356.6875 341.77814Q356.42188 341.4344 356.03125 341.4344ZM356.03125 349.7625L360.73438 340.71564L361.59375 340.71564L356.90625 349.7625L356.03125 349.7625ZM359.75 347.4344Q359.75 346.5125 360.20312 345.8719Q360.67188 345.23126 361.5625 345.23126Q362.375 345.23126 362.90625 345.8094Q363.4375 346.3719 363.4375 347.4969Q363.4375 348.59064 362.89062 349.1844Q362.35938 349.7625 361.5625 349.7625Q360.79688 349.7625 360.26562 349.1844Q359.75 348.60626 359.75 347.4344ZM361.59375 345.95Q361.1875 345.95 360.92188 346.29376Q360.67188 346.6375 360.67188 347.54376Q360.67188 348.35626 360.9375 348.7Q361.20312 349.04376 361.59375 349.04376Q361.98438 349.04376 362.25 348.7Q362.51562 348.35626 362.51562 347.45Q362.51562 346.6219 362.25 346.29376Q361.98438 345.95 361.59375 345.95ZM367.0625 351.84064L364.73438 351.84064L364.73438 350.96564L366.0 350.96564L366.0 341.73126L364.73438 341.73126L364.73438 340.85626L367.0625 340.85626L367.0625 351.84064Z" fill-rule="nonzero"/><path fill="#000000" d="M27.690638 229.80833L27.534388 228.77708Q28.159388 228.68333 28.487513 228.29271Q28.815638 227.88646 28.815638 227.15208Q28.815638 226.43333 28.534388 226.08958Q28.237513 225.73021 27.831263 225.73021Q27.471888 225.73021 27.268763 226.04271Q27.128138 226.26146 26.909388 227.12083Q26.612513 228.27708 26.409388 228.73021Q26.190638 229.16771 25.815638 229.40208Q25.440638 229.63646 24.971888 229.63646Q24.565638 229.63646 24.206263 229.44896Q23.846888 229.26146 23.612513 228.93333Q23.440638 228.68333 23.315638 228.26146Q23.190638 227.83958 23.190638 227.33958Q23.190638 226.62083 23.409388 226.07396Q23.612513 225.51146 23.971888 225.24583Q24.331263 224.98021 24.925013 224.88646L25.065638 225.91771Q24.596888 225.98021 24.331263 226.32396Q24.050013 226.65208 24.050013 227.27708Q24.050013 227.99583 24.300013 228.30833Q24.534388 228.62083 24.862513 228.62083Q25.065638 228.62083 25.221888 228.49583Q25.393763 228.35521 25.503138 228.08958Q25.565638 227.93333 25.768763 227.15208Q26.081263 226.02708 26.268763 225.58958Q26.456263 225.15208 26.815638 224.90208Q27.175013 224.65208 27.721888 224.65208Q28.253138 224.65208 28.721888 224.96458Q29.175013 225.26146 29.440638 225.83958Q29.690638 226.41771 29.690638 227.15208Q29.690638 228.37083 29.190638 229.01146Q28.675013 229.63646 27.690638 229.80833ZM22.175013 222.38646L20.956263 222.38646L20.956263 221.32396L22.175013 221.32396L22.175013 222.38646ZM29.550013 222.38646L23.331263 222.38646L23.331263 221.32396L29.550013 221.32396L29.550013 222.38646ZM30.065638 219.58958L30.221888 218.55833Q30.690638 218.49583 30.909388 218.19896Q31.206263 217.80833 31.206263 217.13646Q31.206263 216.40208 30.909388 216.01146Q30.612513 215.60521 30.096888 215.46458Q29.768763 215.37083 28.737513 215.38646Q29.550013 216.07396 29.550013 217.10521Q29.550013 218.38646 28.628138 219.08958Q27.690638 219.79271 26.409388 219.79271Q25.518763 219.79271 24.768763 219.48021Q24.003138 219.15208 23.596888 218.54271Q23.190638 217.93333 23.190638 217.10521Q23.190638 215.99583 24.081263 215.27708L23.331263 215.27708L23.331263 214.30833L28.706263 214.30833Q30.159388 214.30833 30.768763 214.60521Q31.378138 214.90208 31.721888 215.54271Q32.08126 216.18333 32.08126 217.12083Q32.08126 218.23021 31.581263 218.91771Q31.081263 219.60521 30.065638 219.58958ZM26.331263 218.71458Q27.550013 218.71458 28.112513 218.23021Q28.675013 217.74583 28.675013 217.01146Q28.675013 216.27708 28.112513 215.79271Q27.550013 215.29271 26.362513 215.29271Q25.221888 215.29271 24.643763 215.80833Q24.065638 216.30833 24.065638 217.02708Q24.065638 217.73021 24.643763 218.23021Q25.206263 218.71458 26.331263 218.71458ZM26.534388 206.12083L26.831263 204.99583Q28.221888 205.35521 28.956263 206.27708Q29.690638 207.19896 29.690638 208.54271Q29.690638 209.93333 29.128138 210.80833Q28.565638 211.68333 27.503138 212.13646Q26.425013 212.58958 25.190638 212.58958Q23.846888 212.58958 22.846888 212.07396Q21.846888 211.55833 21.331263 210.62083Q20.815638 209.66771 20.815638 208.52708Q20.815638 207.24583 21.471888 206.37083Q22.128138 205.48021 23.315638 205.13646L23.581263 206.26146Q22.643763 206.55833 22.221888 207.13646Q21.784388 207.69896 21.784388 208.55833Q21.784388 209.54271 22.268763 210.21458Q22.737513 210.87083 23.534388 211.15208Q24.331263 211.41771 25.190638 211.41771Q26.284388 211.41771 27.096888 211.10521Q27.909388 210.77708 28.315638 210.10521Q28.721888 209.43333 28.721888 208.63646Q28.721888 207.68333 28.175013 207.02708Q27.628138 206.35521 26.534388 206.12083ZM29.550013 203.40208L23.331263 203.40208L23.331263 202.44896L24.268763 202.44896Q23.612513 202.08958 23.409388 201.79271Q23.190638 201.48021 23.190638 201.10521Q23.190638 200.57396 23.518763 200.02708L24.503138 200.38646Q24.268763 200.77708 24.268763 201.15208Q24.268763 201.51146 24.487513 201.79271Q24.690638 202.05833 25.065638 202.16771Q25.628138 202.35521 26.284388 202.35521L29.550013 202.35521L29.550013 203.40208ZM32.08126 197.37083Q30.971888 198.24583 29.503138 198.85521Q28.018763 199.44896 26.440638 199.44896Q25.050013 199.44896 23.768763 199.01146Q22.284388 198.48021 20.815638 197.37083L20.815638 196.62083Q22.034388 197.32396 22.550013 197.55833Q23.362513 197.91771 24.237513 198.12083Q25.331263 198.37083 26.440638 198.37083Q29.268763 198.37083 32.08126 196.62083L32.08126 197.37083ZM29.550013 195.38646L23.331263 195.38646L23.331263 194.44896L24.206263 194.44896Q23.190638 193.76146 23.190638 192.46458Q23.190638 191.90208 23.393763 191.43333Q23.596888 190.94896 23.925013 190.71458Q24.253138 190.48021 24.690638 190.38646Q24.987513 190.33958 25.721888 190.33958L29.550013 190.33958L29.550013 191.38646L25.768763 191.38646Q25.112513 191.38646 24.800013 191.51146Q24.487513 191.63646 24.300013 191.94896Q24.096888 192.26146 24.096888 192.68333Q24.096888 193.35521 24.534388 193.85521Q24.956263 194.33958 26.143763 194.33958L29.550013 194.33958L29.550013 195.38646ZM29.550013 188.38646L23.331263 188.38646L23.331263 187.44896L24.206263 187.44896Q23.190638 186.76146 23.190638 185.46458Q23.190638 184.90208 23.393763 184.43333Q23.596888 183.94896 23.925013 183.71458Q24.253138 183.48021 24.690638 183.38646Q24.987513 183.33958 25.721888 183.33958L29.550013 183.33958L29.550013 184.38646L25.768763 184.38646Q25.112513 184.38646 24.800013 184.51146Q24.487513 184.63646 24.300013 184.94896Q24.096888 185.26146 24.096888 185.68333Q24.096888 186.35521 24.534388 186.85521Q24.956263 187.33958 26.143763 187.33958L29.550013 187.33958L29.550013 188.38646ZM32.08126 180.69896L32.08126 181.44896Q29.268763 179.69896 26.440638 179.69896Q25.346888 179.69896 24.253138 179.94896Q23.378138 180.15208 22.565638 180.51146Q22.050013 180.74583 20.815638 181.44896L20.815638 180.69896Q22.284388 179.60521 23.768763 179.07396Q25.050013 178.62083 26.440638 178.62083Q28.018763 178.62083 29.503138 179.23021Q30.971888 179.83958 32.08126 180.69896ZM31.940638 174.37083L20.956263 174.37083L20.956263 172.04271L21.831263 172.04271L21.831263 173.30833L31.065638 173.30833L31.065638 172.04271L31.940638 172.04271L31.940638 174.37083ZM29.550013 171.29271L20.956263 171.29271L20.956263 169.57396L27.034388 167.54271Q27.893763 167.26146 28.315638 167.13646Q27.846888 166.99583 26.940638 166.68333L20.956263 164.62083L20.956263 163.08958L29.550013 163.08958L29.550013 164.18333L22.362513 164.18333L29.550013 166.68333L29.550013 167.71458L22.237513 170.19896L29.550013 170.19896L29.550013 171.29271ZM29.550013 162.26146L20.956263 162.26146L20.956263 159.01146Q20.956263 158.16771 21.034388 157.71458Q21.143763 157.07396 21.440638 156.65208Q21.737513 156.21458 22.268763 155.96458Q22.800013 155.69896 23.440638 155.69896Q24.534388 155.69896 25.300013 156.40208Q26.050013 157.08958 26.050013 158.91771L26.050013 161.12083L29.550013 161.12083L29.550013 162.26146ZM25.050013 161.12083L25.050013 158.90208Q25.050013 157.79271 24.643763 157.33958Q24.221888 156.87083 23.471888 156.87083Q22.940638 156.87083 22.565638 157.15208Q22.175013 157.41771 22.050013 157.85521Q21.971888 158.15208 21.971888 158.91771L21.971888 161.12083L25.050013 161.12083ZM28.784388 150.32396Q29.284388 150.91771 29.487513 151.46458Q29.690638 151.99583 29.690638 152.62083Q29.690638 153.65208 29.190638 154.19896Q28.690638 154.74583 27.909388 154.74583Q27.456263 154.74583 27.081263 154.54271Q26.690638 154.33958 26.471888 153.99583Q26.237513 153.65208 26.128138 153.23021Q26.034388 152.93333 25.956263 152.29271Q25.815638 151.02708 25.596888 150.41771Q25.378138 150.41771 25.331263 150.41771Q24.675013 150.41771 24.409388 150.71458Q24.065638 151.12083 24.065638 151.91771Q24.065638 152.65208 24.331263 153.01146Q24.581263 153.37083 25.237513 153.54271L25.096888 154.57396Q24.440638 154.43333 24.034388 154.10521Q23.628138 153.77708 23.409388 153.16771Q23.190638 152.55833 23.190638 151.76146Q23.190638 150.96458 23.378138 150.46458Q23.565638 149.96458 23.846888 149.73021Q24.128138 149.49583 24.565638 149.40208Q24.831263 149.35521 25.534388 149.35521L26.940638 149.35521Q28.409388 149.35521 28.800013 149.29271Q29.190638 149.21458 29.550013 149.01146L29.550013 150.12083Q29.221888 150.27708 28.784388 150.32396ZM26.425013 150.41771Q26.659388 150.99583 26.831263 152.13646Q26.925013 152.79271 27.050013 153.05833Q27.159388 153.32396 27.378138 153.48021Q27.596888 153.62083 27.878138 153.62083Q28.300013 153.62083 28.581263 153.30833Q28.862513 152.98021 28.862513 152.37083Q28.862513 151.76146 28.596888 151.29271Q28.331263 150.80833 27.862513 150.58958Q27.503138 150.41771 26.815638 150.41771L26.425013 150.41771ZM31.940638 145.62083L31.940638 147.94896L31.065638 147.94896L31.065638 146.68333L21.831263 146.68333L21.831263 147.94896L20.956263 147.94896L20.956263 145.62083L31.940638 145.62083Z" fill-rule="nonzero"/><path fill="#000000" d="M65.05 300.21564Q65.05 298.6844 65.3625 297.7625Q65.675 296.825 66.28438 296.325Q66.90938 295.825 67.84688 295.825Q68.53438 295.825 69.05 296.10626Q69.58125 296.3875 69.925 296.91876Q70.26875 297.4344 70.45625 298.1844Q70.64375 298.9344 70.64375 300.21564Q70.64375 301.73126 70.33125 302.65314Q70.03438 303.575 69.40938 304.09064Q68.8 304.59064 67.84688 304.59064Q66.6125 304.59064 65.89375 303.7Q65.05 302.6375 65.05 300.21564ZM66.12813 300.21564Q66.12813 302.325 66.62813 303.02814Q67.12813 303.73126 67.84688 303.73126Q68.58125 303.73126 69.06563 303.02814Q69.56563 302.325 69.56563 300.21564Q69.56563 298.09064 69.06563 297.40314Q68.58125 296.7 67.83125 296.7Q67.1125 296.7 66.675 297.3094Q66.12813 298.09064 66.12813 300.21564Z" fill-rule="nonzero"/><path fill="#000000" d="M62.01875 256.74335L60.971874 256.74335L60.971874 250.0246Q60.58125 250.38397 59.95625 250.75897Q59.346874 251.11835 58.8625 251.29022L58.8625 250.2746Q59.7375 249.85272 60.39375 249.2746Q61.065624 248.68085 61.346874 248.11835L62.01875 248.11835L62.01875 256.74335ZM65.05 252.50897Q65.05 250.97772 65.3625 250.05585Q65.675 249.11835 66.28438 248.61835Q66.90938 248.11835 67.84688 248.11835Q68.53438 248.11835 69.05 248.3996Q69.58125 248.68085 69.925 249.2121Q70.26875 249.72772 70.45625 250.47772Q70.64375 251.22772 70.64375 252.50897Q70.64375 254.0246 70.33125 254.94647Q70.03438 255.86835 69.40938 256.38397Q68.8 256.88397 67.84688 256.88397Q66.6125 256.88397 65.89375 255.99335Q65.05 254.93085 65.05 252.50897ZM66.12813 252.50897Q66.12813 254.61835 66.62813 255.32147Q67.12813 256.0246 67.84688 256.0246Q68.58125 256.0246 69.06563 255.32147Q69.56563 254.61835 69.56563 252.50897Q69.56563 250.38397 69.06563 249.69647Q68.58125 248.99335 67.83125 248.99335Q67.1125 248.99335 66.675 249.60272Q66.12813 250.38397 66.12813 252.50897Z" fill-rule="nonzero"/><path fill="#000000" d="M63.596874 208.02104L63.596874 209.03667L57.909374 209.03667Q57.909374 208.66167 58.034374 208.30229Q58.253124 207.72417 58.721874 207.16167Q59.20625 206.59917 60.1125 205.86479Q61.51875 204.70854 62.003124 204.03667Q62.503124 203.36479 62.503124 202.77104Q62.503124 202.14604 62.05 201.72417Q61.596874 201.28667 60.878124 201.28667Q60.1125 201.28667 59.659374 201.73979Q59.20625 202.19292 59.190624 203.00542L58.1125 202.89604Q58.221874 201.67729 58.940624 201.05229Q59.675 200.41167 60.909374 200.41167Q62.14375 200.41167 62.8625 201.09917Q63.58125 201.78667 63.58125 202.80229Q63.58125 203.31792 63.3625 203.81792Q63.159374 204.30229 62.659374 204.86479Q62.175 205.41167 61.05 206.36479Q60.096874 207.16167 59.815624 207.45854Q59.55 207.73979 59.378124 208.02104L63.596874 208.02104ZM65.05 204.80229Q65.05 203.27104 65.3625 202.34917Q65.675 201.41167 66.28438 200.91167Q66.90938 200.41167 67.84688 200.41167Q68.53438 200.41167 69.05 200.69292Q69.58125 200.97417 69.925 201.50542Q70.26875 202.02104 70.45625 202.77104Q70.64375 203.52104 70.64375 204.80229Q70.64375 206.31792 70.33125 207.23979Q70.03438 208.16167 69.40938 208.67729Q68.8 209.17729 67.84688 209.17729Q66.6125 209.17729 65.89375 208.28667Q65.05 207.22417 65.05 204.80229ZM66.12813 204.80229Q66.12813 206.91167 66.62813 207.61479Q67.12813 208.31792 67.84688 208.31792Q68.58125 208.31792 69.06563 207.61479Q69.56563 206.91167 69.56563 204.80229Q69.56563 202.67729 69.06563 201.98979Q68.58125 201.28667 67.83125 201.28667Q67.1125 201.28667 66.675 201.89604Q66.12813 202.67729 66.12813 204.80229Z" fill-rule="nonzero"/><path fill="#000000" d="M58.05 159.06438L59.1125 158.92375Q59.284374 159.81438 59.721874 160.22063Q60.159374 160.61125 60.784374 160.61125Q61.534374 160.61125 62.05 160.09563Q62.565624 159.58 62.565624 158.81438Q62.565624 158.09563 62.08125 157.62688Q61.6125 157.1425 60.878124 157.1425Q60.58125 157.1425 60.128124 157.2675L60.253124 156.33Q60.3625 156.34563 60.425 156.34563Q61.096874 156.34563 61.628124 156.00188Q62.175 155.6425 62.175 154.90813Q62.175 154.33 61.784374 153.955Q61.39375 153.56438 60.76875 153.56438Q60.159374 153.56438 59.7375 153.955Q59.33125 154.34563 59.221874 155.11125L58.159374 154.92375Q58.346874 153.87688 59.034374 153.29875Q59.721874 152.705 60.7375 152.705Q61.440624 152.705 62.034374 153.0175Q62.628124 153.31438 62.940624 153.83Q63.253124 154.34563 63.253124 154.93938Q63.253124 155.48625 62.95625 155.955Q62.659374 156.40813 62.08125 156.67375Q62.83125 156.84563 63.253124 157.40813Q63.675 157.955 63.675 158.79875Q63.675 159.92375 62.846874 160.705Q62.034374 161.48625 60.784374 161.48625Q59.659374 161.48625 58.909374 160.81438Q58.159374 160.12688 58.05 159.06438ZM65.05 157.09563Q65.05 155.56438 65.3625 154.6425Q65.675 153.705 66.28438 153.205Q66.90938 152.705 67.84688 152.705Q68.53438 152.705 69.05 152.98625Q69.58125 153.2675 69.925 153.79875Q70.26875 154.31438 70.45625 155.06438Q70.64375 155.81438 70.64375 157.09563Q70.64375 158.61125 70.33125 159.53313Q70.03438 160.455 69.40938 160.97063Q68.8 161.47063 67.84688 161.47063Q66.6125 161.47063 65.89375 160.58Q65.05 159.5175 65.05 157.09563ZM66.12813 157.09563Q66.12813 159.205 66.62813 159.90813Q67.12813 160.61125 67.84688 160.61125Q68.58125 160.61125 69.06563 159.90813Q69.56563 159.205 69.56563 157.09563Q69.56563 154.97063 69.06563 154.28313Q68.58125 153.58 67.83125 153.58Q67.1125 153.58 66.675 154.18938Q66.12813 154.97063 66.12813 157.09563Z" fill-rule="nonzero"/><path fill="#000000" d="M61.425 113.62334L61.425 111.56084L57.70625 111.56084L57.70625 110.59209L61.628124 105.02959L62.4875 105.02959L62.4875 110.59209L63.64375 110.59209L63.64375 111.56084L62.4875 111.56084L62.4875 113.62334L61.425 113.62334ZM61.425 110.59209L61.425 106.73271L58.7375 110.59209L61.425 110.59209ZM65.05 109.38896Q65.05 107.85771 65.3625 106.93584Q65.675 105.99834 66.28438 105.49834Q66.90938 104.99834 67.84688 104.99834Q68.53438 104.99834 69.05 105.27959Q69.58125 105.56084 69.925 106.09209Q70.26875 106.60771 70.45625 107.35771Q70.64375 108.10771 70.64375 109.38896Q70.64375 110.90459 70.33125 111.82646Q70.03438 112.74834 69.40938 113.26396Q68.8 113.76396 67.84688 113.76396Q66.6125 113.76396 65.89375 112.87334Q65.05 111.81084 65.05 109.38896ZM66.12813 109.38896Q66.12813 111.49834 66.62813 112.20146Q67.12813 112.90459 67.84688 112.90459Q68.58125 112.90459 69.06563 112.20146Q69.56563 111.49834 69.56563 109.38896Q69.56563 107.26396 69.06563 106.57646Q68.58125 105.87334 67.83125 105.87334Q67.1125 105.87334 66.675 106.48271Q66.12813 107.26396 66.12813 109.38896Z" fill-rule="nonzero"/><path fill="#000000" d="M58.05 63.666664L59.159374 63.572914Q59.284374 64.385414 59.721874 64.791664Q60.175 65.197914 60.815624 65.197914Q61.565624 65.197914 62.096874 64.61979Q62.628124 64.041664 62.628124 63.104164Q62.628124 62.197914 62.1125 61.68229Q61.6125 61.15104 60.784374 61.15104Q60.284374 61.15104 59.8625 61.385414Q59.45625 61.61979 59.221874 61.979164L58.2375 61.854164L59.065624 57.447914L63.346874 57.447914L63.346874 58.447914L59.909374 58.447914L59.45625 60.760414Q60.221874 60.21354 61.065624 60.21354Q62.190624 60.21354 62.95625 60.99479Q63.7375 61.77604 63.7375 63.010414Q63.7375 64.166664 63.065624 65.02604Q62.2375 66.05729 60.815624 66.05729Q59.64375 66.05729 58.89375 65.40104Q58.159374 64.74479 58.05 63.666664ZM65.05 61.68229Q65.05 60.15104 65.3625 59.229164Q65.675 58.291664 66.28438 57.791664Q66.90938 57.291664 67.84688 57.291664Q68.53438 57.291664 69.05 57.572914Q69.58125 57.854164 69.925 58.385414Q70.26875 58.90104 70.45625 59.65104Q70.64375 60.40104 70.64375 61.68229Q70.64375 63.197914 70.33125 64.11979Q70.03438 65.041664 69.40938 65.55729Q68.8 66.05729 67.84688 66.05729Q66.6125 66.05729 65.89375 65.166664Q65.05 64.104164 65.05 61.68229ZM66.12813 61.68229Q66.12813 63.791664 66.62813 64.49479Q67.12813 65.197914 67.84688 65.197914Q68.58125 65.197914 69.06563 64.49479Q69.56563 63.791664 69.56563 61.68229Q69.56563 59.55729 69.06563 58.86979Q68.58125 58.166664 67.83125 58.166664Q67.1125 58.166664 66.675 58.77604Q66.12813 59.55729 66.12813 61.68229Z" fill-rule="nonzero"/><path fill="#000000" d="M74.55 313.21564Q74.55 311.6844 74.8625 310.7625Q75.175 309.825 75.78438 309.325Q76.40938 308.825 77.34688 308.825Q78.03438 308.825 78.55 309.10626Q79.08125 309.3875 79.425 309.91876Q79.76875 310.4344 79.95625 311.1844Q80.14375 311.9344 80.14375 313.21564Q80.14375 314.73126 79.83125 315.65314Q79.53438 316.575 78.90938 317.09064Q78.3 317.59064 77.34688 317.59064Q76.1125 317.59064 75.39375 316.7Q74.55 315.6375 74.55 313.21564ZM75.62813 313.21564Q75.62813 315.325 76.12813 316.02814Q76.62813 316.73126 77.34688 316.73126Q78.08125 316.73126 78.56563 316.02814Q79.06563 315.325 79.06563 313.21564Q79.06563 311.09064 78.56563 310.40314Q78.08125 309.7 77.33125 309.7Q76.6125 309.7 76.175 310.3094Q75.62813 311.09064 75.62813 313.21564Z" fill-rule="nonzero"/><path fill="#000000" d="M169.0238 316.4344L169.0238 317.45L163.3363 317.45Q163.3363 317.075 163.4613 316.71564Q163.68005 316.1375 164.1488 315.575Q164.63318 315.0125 165.53943 314.27814Q166.94568 313.1219 167.43005 312.45Q167.93005 311.77814 167.93005 311.1844Q167.93005 310.5594 167.47693 310.1375Q167.0238 309.7 166.30505 309.7Q165.53943 309.7 165.0863 310.15314Q164.63318 310.60626 164.61755 311.41876L163.53943 311.3094Q163.6488 310.09064 164.36755 309.46564Q165.10193 308.825 166.3363 308.825Q167.57068 308.825 168.28943 309.5125Q169.00818 310.2 169.00818 311.21564Q169.00818 311.73126 168.78943 312.23126Q168.5863 312.71564 168.0863 313.27814Q167.60193 313.825 166.47693 314.77814Q165.5238 315.575 165.24255 315.8719Q164.97693 316.15314 164.80505 316.4344L169.0238 316.4344Z" fill-rule="nonzero"/><path fill="#000000" d="M255.77885 317.45L255.77885 315.3875L252.0601 315.3875L252.0601 314.41876L255.98198 308.85626L256.84137 308.85626L256.84137 314.41876L257.99762 314.41876L257.99762 315.3875L256.84137 315.3875L256.84137 317.45L255.77885 317.45ZM255.77885 314.41876L255.77885 310.5594L253.09135 314.41876L255.77885 314.41876Z" fill-rule="nonzero"/><path fill="#000000" d="M346.79953 310.96564L345.75266 311.04376Q345.61203 310.41876 345.36203 310.1375Q344.92453 309.6844 344.29953 309.6844Q343.79953 309.6844 343.4089 309.96564Q342.92453 310.34064 342.62766 311.04376Q342.3464 311.73126 342.33078 313.0125Q342.70578 312.4344 343.25266 312.15314Q343.81516 311.8719 344.42453 311.8719Q345.4714 311.8719 346.20578 312.65314Q346.95578 313.4344 346.95578 314.65314Q346.95578 315.46564 346.5964 316.16876Q346.25266 316.85626 345.64328 317.23126Q345.0339 317.59064 344.26828 317.59064Q342.94016 317.59064 342.11203 316.6219Q341.2839 315.65314 341.2839 313.4344Q341.2839 310.9344 342.20578 309.8094Q343.00266 308.825 344.36203 308.825Q345.37766 308.825 346.01828 309.40314Q346.67453 309.96564 346.79953 310.96564ZM342.50266 314.66876Q342.50266 315.21564 342.7214 315.71564Q342.95578 316.2 343.36203 316.46564Q343.7839 316.73126 344.25266 316.73126Q344.9089 316.73126 345.39328 316.2Q345.87766 315.65314 345.87766 314.73126Q345.87766 313.84064 345.39328 313.325Q344.92453 312.8094 344.20578 312.8094Q343.48703 312.8094 342.98703 313.325Q342.50266 313.84064 342.50266 314.66876Z" fill-rule="nonzero"/><path fill="#000000" d="M431.88272 312.79376Q431.22647 312.54376 430.89835 312.10626Q430.58585 311.65314 430.58585 311.04376Q430.58585 310.10626 431.25772 309.46564Q431.94522 308.825 433.0546 308.825Q434.1796 308.825 434.8671 309.48126Q435.5546 310.1375 435.5546 311.075Q435.5546 311.66876 435.2421 312.10626Q434.9296 312.54376 434.28897 312.79376Q435.08585 313.04376 435.4921 313.6219Q435.89835 314.2 435.89835 314.9969Q435.89835 316.09064 435.1171 316.84064Q434.35147 317.59064 433.07022 317.59064Q431.8046 317.59064 431.02335 316.84064Q430.2421 316.09064 430.2421 314.96564Q430.2421 314.1219 430.66397 313.5594Q431.10147 312.9969 431.88272 312.79376ZM431.66397 310.9969Q431.66397 311.60626 432.0546 311.9969Q432.46085 312.3875 433.08585 312.3875Q433.69522 312.3875 434.08585 312.0125Q434.47647 311.6219 434.47647 311.0594Q434.47647 310.48126 434.07022 310.09064Q433.66397 309.6844 433.07022 309.6844Q432.46085 309.6844 432.0546 310.075Q431.66397 310.46564 431.66397 310.9969ZM431.33585 314.96564Q431.33585 315.41876 431.53897 315.84064Q431.75772 316.2625 432.1796 316.4969Q432.60147 316.73126 433.08585 316.73126Q433.83585 316.73126 434.32022 316.2469Q434.82022 315.7625 434.82022 315.0125Q434.82022 314.2469 434.32022 313.7469Q433.82022 313.2469 433.0546 313.2469Q432.3046 313.2469 431.82022 313.7469Q431.33585 314.23126 431.33585 314.96564Z" fill-rule="nonzero"/><path fill="#000000" d="M519.6534 317.45L518.6065 317.45L518.6065 310.73126Q518.2159 311.09064 517.5909 311.46564Q516.9815 311.825 516.49713 311.9969L516.49713 310.98126Q517.37213 310.5594 518.0284 309.98126Q518.70026 309.3875 518.9815 308.825L519.6534 308.825L519.6534 317.45ZM522.68463 313.21564Q522.68463 311.6844 522.99713 310.7625Q523.30963 309.825 523.919 309.325Q524.544 308.825 525.4815 308.825Q526.169 308.825 526.68463 309.10626Q527.2159 309.3875 527.55963 309.91876Q527.9034 310.4344 528.0909 311.1844Q528.2784 311.9344 528.2784 313.21564Q528.2784 314.73126 527.9659 315.65314Q527.669 316.575 527.044 317.09064Q526.43463 317.59064 525.4815 317.59064Q524.24713 317.59064 523.5284 316.7Q522.68463 315.6375 522.68463 313.21564ZM523.76276 313.21564Q523.76276 315.325 524.26276 316.02814Q524.76276 316.73126 525.4815 316.73126Q526.2159 316.73126 526.70026 316.02814Q527.20026 315.325 527.20026 313.21564Q527.20026 311.09064 526.70026 310.40314Q526.2159 309.7 525.4659 309.7Q524.74713 309.7 524.30963 310.3094Q523.76276 311.09064 523.76276 313.21564Z" fill-rule="nonzero"/><path fill="#000000" d="M192.46875 34.596874L195.21875 34.175Q195.40625 34.971874 195.9375 35.39375Q196.46875 35.8 197.4375 35.8Q198.5 35.8 199.04688 35.409374Q199.40625 35.14375 199.40625 34.675Q199.40625 34.3625 199.20312 34.159374Q199.0 33.971874 198.29688 33.8Q194.96875 33.065624 194.07812 32.45625Q192.84375 31.628124 192.84375 30.128124Q192.84375 28.784374 193.90625 27.8625Q194.98438 26.940624 197.21875 26.940624Q199.34375 26.940624 200.375 27.64375Q201.42188 28.33125 201.8125 29.690624L199.21875 30.159374Q199.04688 29.565624 198.57812 29.2375Q198.125 28.909374 197.26562 28.909374Q196.1875 28.909374 195.71875 29.221874Q195.40625 29.440624 195.40625 29.76875Q195.40625 30.065624 195.67188 30.26875Q196.04688 30.55 198.23438 31.05Q200.42188 31.55 201.29688 32.26875Q202.15625 33.003124 202.15625 34.3Q202.15625 35.7375 200.96875 36.76875Q199.78125 37.784374 197.4375 37.784374Q195.32812 37.784374 194.07812 36.925Q192.84375 36.065624 192.46875 34.596874ZM204.4375 25.76875L204.4375 23.2375L207.1875 23.2375L207.1875 25.76875L204.4375 25.76875ZM204.4375 37.55L204.4375 27.175L207.1875 27.175L207.1875 37.55L204.4375 37.55ZM209.1875 38.2375L212.3125 38.6125Q212.39062 39.159374 212.67188 39.3625Q213.0625 39.659374 213.90625 39.659374Q214.98438 39.659374 215.51562 39.33125Q215.875 39.128124 216.0625 38.64375Q216.1875 38.3 216.1875 37.378124L216.1875 35.8625Q214.96875 37.55 213.09375 37.55Q211.0 37.55 209.78125 35.784374Q208.82812 34.378124 208.82812 32.3Q208.82812 29.690624 210.07812 28.315624Q211.32812 26.940624 213.20312 26.940624Q215.125 26.940624 216.375 28.628124L216.375 27.175L218.9375 27.175L218.9375 36.4875Q218.9375 38.315624 218.625 39.221874Q218.32812 40.14375 217.78125 40.659374Q217.23438 41.175 216.3125 41.45625Q215.40625 41.753124 214.01562 41.753124Q211.375 41.753124 210.26562 40.846874Q209.17188 39.95625 209.17188 38.565624Q209.17188 38.425 209.1875 38.2375ZM211.64062 32.14375Q211.64062 33.8 212.26562 34.565624Q212.90625 35.33125 213.84375 35.33125Q214.85938 35.33125 215.54688 34.55Q216.25 33.753124 216.25 32.221874Q216.25 30.6125 215.57812 29.83125Q214.92188 29.05 213.90625 29.05Q212.90625 29.05 212.26562 29.815624Q211.64062 30.58125 211.64062 32.14375ZM230.60938 32.284374L233.42188 33.175Q232.78125 35.51875 231.28125 36.659374Q229.78125 37.8 227.46875 37.8Q224.625 37.8 222.78125 35.846874Q220.95312 33.89375 220.95312 30.51875Q220.95312 26.940624 222.79688 24.971874Q224.64062 22.9875 227.64062 22.9875Q230.28125 22.9875 231.92188 24.534374Q232.89062 25.45625 233.375 27.175L230.51562 27.8625Q230.26562 26.753124 229.45312 26.1125Q228.65625 25.45625 227.5 25.45625Q225.90625 25.45625 224.90625 26.596874Q223.92188 27.7375 223.92188 30.3Q223.92188 33.01875 224.89062 34.175Q225.875 35.315624 227.4375 35.315624Q228.59375 35.315624 229.42188 34.596874Q230.25 33.8625 230.60938 32.284374ZM238.0625 37.55L235.3125 37.55L235.3125 27.175L237.875 27.175L237.875 28.659374Q238.51562 27.6125 239.03125 27.284374Q239.5625 26.940624 240.23438 26.940624Q241.17188 26.940624 242.03125 27.45625L241.1875 29.846874Q240.5 29.409374 239.90625 29.409374Q239.32812 29.409374 238.92188 29.721874Q238.51562 30.034374 238.28125 30.878124Q238.0625 31.70625 238.0625 34.346874L238.0625 37.55ZM247.98438 41.753124L246.10938 41.753124Q244.60938 39.503124 243.82812 37.08125Q243.04688 34.64375 243.04688 32.3625Q243.04688 29.534374 244.01562 27.01875Q244.85938 24.83125 246.14062 22.9875L248.01562 22.9875Q246.67188 25.940624 246.17188 28.01875Q245.67188 30.096874 245.67188 32.425Q245.67188 34.01875 245.96875 35.70625Q246.26562 37.378124 246.78125 38.89375Q247.125 39.89375 247.98438 41.753124ZM259.875 37.55L257.125 37.55L257.125 32.253124Q257.125 30.58125 256.95312 30.096874Q256.78125 29.596874 256.375 29.33125Q255.98438 29.05 255.42188 29.05Q254.71875 29.05 254.14062 29.440624Q253.57812 29.83125 253.35938 30.471874Q253.15625 31.1125 253.15625 32.846874L253.15625 37.55L250.42188 37.55L250.42188 27.175L252.96875 27.175L252.96875 28.70625Q254.32812 26.940624 256.39062 26.940624Q257.29688 26.940624 258.04688 27.26875Q258.79688 27.596874 259.17188 28.1125Q259.5625 28.6125 259.71875 29.26875Q259.875 29.909374 259.875 31.096874L259.875 37.55ZM271.875 37.55L269.125 37.55L269.125 32.253124Q269.125 30.58125 268.95312 30.096874Q268.78125 29.596874 268.375 29.33125Q267.98438 29.05 267.42188 29.05Q266.71875 29.05 266.14062 29.440624Q265.57812 29.83125 265.35938 30.471874Q265.15625 31.1125 265.15625 32.846874L265.15625 37.55L262.42188 37.55L262.42188 27.175L264.96875 27.175L264.96875 28.70625Q266.32812 26.940624 268.39062 26.940624Q269.29688 26.940624 270.04688 27.26875Q270.79688 27.596874 271.17188 28.1125Q271.5625 28.6125 271.71875 29.26875Q271.875 29.909374 271.875 31.096874L271.875 37.55ZM273.67188 41.753124Q274.48438 40.01875 274.8125 39.08125Q275.15625 38.159374 275.4375 36.95625Q275.71875 35.7375 275.84375 34.659374Q275.98438 33.565624 275.98438 32.425Q275.98438 30.096874 275.48438 28.01875Q275.0 25.940624 273.65625 22.9875L275.51562 22.9875Q277.0 25.08125 277.8125 27.440624Q278.625 29.8 278.625 32.221874Q278.625 34.253124 277.98438 36.596874Q277.25 39.20625 275.5625 41.753124L273.67188 41.753124ZM290.28125 37.55L286.10938 27.175L288.98438 27.175L290.9375 32.471874L291.51562 34.2375Q291.73438 33.565624 291.79688 33.346874Q291.92188 32.909374 292.07812 32.471874L294.0625 27.175L296.875 27.175L292.76562 37.55L290.28125 37.55ZM297.46875 34.596874L300.21875 34.175Q300.40625 34.971874 300.9375 35.39375Q301.46875 35.8 302.4375 35.8Q303.5 35.8 304.04688 35.409374Q304.40625 35.14375 304.40625 34.675Q304.40625 34.3625 304.20312 34.159374Q304.0 33.971874 303.29688 33.8Q299.96875 33.065624 299.07812 32.45625Q297.84375 31.628124 297.84375 30.128124Q297.84375 28.784374 298.90625 27.8625Q299.98438 26.940624 302.21875 26.940624Q304.34375 26.940624 305.375 27.64375Q306.42188 28.33125 306.8125 29.690624L304.21875 30.159374Q304.04688 29.565624 303.57812 29.2375Q303.125 28.909374 302.26562 28.909374Q301.1875 28.909374 300.71875 29.221874Q300.40625 29.440624 300.40625 29.76875Q300.40625 30.065624 300.67188 30.26875Q301.04688 30.55 303.23438 31.05Q305.42188 31.55 306.29688 32.26875Q307.15625 33.003124 307.15625 34.3Q307.15625 35.7375 305.96875 36.76875Q304.78125 37.784374 302.4375 37.784374Q300.32812 37.784374 299.07812 36.925Q297.84375 36.065624 297.46875 34.596874ZM321.4375 34.253124L324.17188 34.70625Q323.65625 36.20625 322.51562 37.003124Q321.375 37.784374 319.67188 37.784374Q316.95312 37.784374 315.65625 36.01875Q314.64062 34.596874 314.64062 32.440624Q314.64062 29.8625 315.98438 28.409374Q317.32812 26.940624 319.39062 26.940624Q321.70312 26.940624 323.03125 28.471874Q324.375 30.003124 324.32812 33.159374L317.45312 33.159374Q317.48438 34.378124 318.10938 35.065624Q318.75 35.7375 319.6875 35.7375Q320.34375 35.7375 320.78125 35.39375Q321.21875 35.034374 321.4375 34.253124ZM321.59375 31.471874Q321.5625 30.284374 320.96875 29.675Q320.39062 29.05 319.5625 29.05Q318.65625 29.05 318.07812 29.690624Q317.48438 30.346874 317.5 31.471874L321.59375 31.471874ZM326.35938 27.175L328.92188 27.175L328.92188 28.70625Q329.42188 27.925 330.26562 27.440624Q331.10938 26.940624 332.15625 26.940624Q333.95312 26.940624 335.20312 28.3625Q336.46875 29.76875 336.46875 32.3Q336.46875 34.909374 335.20312 36.346874Q333.9375 37.784374 332.125 37.784374Q331.26562 37.784374 330.5625 37.440624Q329.875 37.096874 329.10938 36.26875L329.10938 41.503124L326.35938 41.503124L326.35938 27.175ZM329.07812 32.190624Q329.07812 33.940624 329.76562 34.784374Q330.45312 35.6125 331.45312 35.6125Q332.40625 35.6125 333.04688 34.846874Q333.6875 34.065624 333.6875 32.33125Q333.6875 30.690624 333.03125 29.909374Q332.375 29.1125 331.40625 29.1125Q330.40625 29.1125 329.73438 29.89375Q329.07812 30.659374 329.07812 32.190624ZM337.46875 34.596874L340.21875 34.175Q340.40625 34.971874 340.9375 35.39375Q341.46875 35.8 342.4375 35.8Q343.5 35.8 344.04688 35.409374Q344.40625 35.14375 344.40625 34.675Q344.40625 34.3625 344.20312 34.159374Q344.0 33.971874 343.29688 33.8Q339.96875 33.065624 339.07812 32.45625Q337.84375 31.628124 337.84375 30.128124Q337.84375 28.784374 338.90625 27.8625Q339.98438 26.940624 342.21875 26.940624Q344.34375 26.940624 345.375 27.64375Q346.42188 28.33125 346.8125 29.690624L344.21875 30.159374Q344.04688 29.565624 343.57812 29.2375Q343.125 28.909374 342.26562 28.909374Q341.1875 28.909374 340.71875 29.221874Q340.40625 29.440624 340.40625 29.76875Q340.40625 30.065624 340.67188 30.26875Q341.04688 30.55 343.23438 31.05Q345.42188 31.55 346.29688 32.26875Q347.15625 33.003124 347.15625 34.3Q347.15625 35.7375 345.96875 36.76875Q344.78125 37.784374 342.4375 37.784374Q340.32812 37.784374 339.07812 36.925Q337.84375 36.065624 337.46875 34.596874ZM358.60938 32.284374L361.42188 33.175Q360.78125 35.51875 359.28125 36.659374Q357.78125 37.8 355.46875 37.8Q352.625 37.8 350.78125 35.846874Q348.95312 33.89375 348.95312 30.51875Q348.95312 26.940624 350.79688 24.971874Q352.64062 22.9875 355.64062 22.9875Q358.28125 22.9875 359.92188 24.534374Q360.89062 25.45625 361.375 27.175L358.51562 27.8625Q358.26562 26.753124 357.45312 26.1125Q356.65625 25.45625 355.5 25.45625Q353.90625 25.45625 352.90625 26.596874Q351.92188 27.7375 351.92188 30.3Q351.92188 33.01875 352.89062 34.175Q353.875 35.315624 355.4375 35.315624Q356.59375 35.315624 357.42188 34.596874Q358.25 33.8625 358.60938 32.284374ZM366.0625 37.55L363.3125 37.55L363.3125 27.175L365.875 27.175L365.875 28.659374Q366.51562 27.6125 367.03125 27.284374Q367.5625 26.940624 368.23438 26.940624Q369.17188 26.940624 370.03125 27.45625L369.1875 29.846874Q368.5 29.409374 367.90625 29.409374Q367.32812 29.409374 366.92188 29.721874Q366.51562 30.034374 366.28125 30.878124Q366.0625 31.70625 366.0625 34.346874L366.0625 37.55ZM375.98438 41.753124L374.10938 41.753124Q372.60938 39.503124 371.82812 37.08125Q371.04688 34.64375 371.04688 32.3625Q371.04688 29.534374 372.01562 27.01875Q372.85938 24.83125 374.14062 22.9875L376.01562 22.9875Q374.67188 25.940624 374.17188 28.01875Q373.67188 30.096874 373.67188 32.425Q373.67188 34.01875 373.96875 35.70625Q374.26562 37.378124 374.78125 38.89375Q375.125 39.89375 375.98438 41.753124ZM387.875 37.55L385.125 37.55L385.125 32.253124Q385.125 30.58125 384.95312 30.096874Q384.78125 29.596874 384.375 29.33125Q383.98438 29.05 383.42188 29.05Q382.71875 29.05 382.14062 29.440624Q381.57812 29.83125 381.35938 30.471874Q381.15625 31.1125 381.15625 32.846874L381.15625 37.55L378.42188 37.55L378.42188 27.175L380.96875 27.175L380.96875 28.70625Q382.32812 26.940624 384.39062 26.940624Q385.29688 26.940624 386.04688 27.26875Q386.79688 27.596874 387.17188 28.1125Q387.5625 28.6125 387.71875 29.26875Q387.875 29.909374 387.875 31.096874L387.875 37.55ZM399.875 37.55L397.125 37.55L397.125 32.253124Q397.125 30.58125 396.95312 30.096874Q396.78125 29.596874 396.375 29.33125Q395.98438 29.05 395.42188 29.05Q394.71875 29.05 394.14062 29.440624Q393.57812 29.83125 393.35938 30.471874Q393.15625 31.1125 393.15625 32.846874L393.15625 37.55L390.42188 37.55L390.42188 27.175L392.96875 27.175L392.96875 28.70625Q394.32812 26.940624 396.39062 26.940624Q397.29688 26.940624 398.04688 27.26875Q398.79688 27.596874 399.17188 28.1125Q399.5625 28.6125 399.71875 29.26875Q399.875 29.909374 399.875 31.096874L399.875 37.55ZM401.67188 41.753124Q402.48438 40.01875 402.8125 39.08125Q403.15625 38.159374 403.4375 36.95625Q403.71875 35.7375 403.84375 34.659374Q403.98438 33.565624 403.98438 32.425Q403.98438 30.096874 403.48438 28.01875Q403.0 25.940624 401.65625 22.9875L403.51562 22.9875Q405.0 25.08125 405.8125 27.440624Q406.625 29.8 406.625 32.221874Q406.625 34.253124 405.98438 36.596874Q405.25 39.20625 403.5625 41.753124L401.67188 41.753124Z" fill-rule="nonzero"/></svg>