<svg version="1.1" viewBox="0.0 0.0 600.0 371.0" fill="none" stroke="none" stroke-linecap="square" stroke-miterlimit="10" width="600" height="371" xmlns:xlink="http://www.w3.org/1999/xlink" xmlns="http://www.w3.org/2000/svg"><path fill="#ffffff" d="M0 0L600.0 0L600.0 371.0L0 371.0L0 0Z" fill-rule="nonzero"/><path stroke="#cccccc" stroke-width="1.0" stroke-linecap="butt" d="M139.5 61.5L139.5 300.5" fill-rule="nonzero"/><path stroke="#cccccc" stroke-width="1.0" stroke-linecap="butt" d="M228.5 61.5L228.5 300.5" fill-rule="nonzero"/><path stroke="#cccccc" stroke-width="1.0" stroke-linecap="butt" d="M316.5 61.5L316.5 300.5" fill-rule="nonzero"/><path stroke="#cccccc" stroke-width="1.0" stroke-linecap="butt" d="M404.5 61.5L404.5 300.5" fill-rule="nonzero"/><path stroke="#cccccc" stroke-width="1.0" stroke-linecap="butt" d="M493.5 61.5L493.5 300.5" fill-rule="nonzero"/><path stroke="#cccccc" stroke-width="1.0" stroke-linecap="butt" d="M88.5 300.5L581.5 300.5" fill-rule="nonzero"/><path stroke="#cccccc" stroke-width="1.0" stroke-linecap="butt" d="M88.5 240.5L581.5 240.5" fill-rule="nonzero"/><path stroke="#cccccc" stroke-width="1.0" stroke-linecap="butt" d="M88.5 181.5L581.5 181.5" fill-rule="nonzero"/><path stroke="#cccccc" stroke-width="1.0" stroke-linecap="butt" d="M88.5 121.5L581.5 121.5" fill-rule="nonzero"/><path stroke="#333333" stroke-width="1.0" stroke-linecap="butt" d="M88.5 61.5L581.5 61.5" fill-rule="nonzero"/><clipPath id="id_0"><path d="M88.55 61.916668L581.45 61.916668L581.45 300.45L88.55 300.45L88.55 61.916668Z" clip-rule="nonzero"/></clipPath><path fill="#34a853" fill-opacity="0.3019608" clip-path="url(#id_0)" d="M581.45 247.8701L568.27924 234.3858L555.11066 220.91583L541.9517 207.46732L528.8009 194.0367L515.65753 180.62517L502.52158 167.23224L489.99252 154.89326L484.5992 154.89326L479.2068 154.89326L473.80994 154.89326L468.40866 154.89326L463.00473 154.89326L457.5973 154.89326L452.1863 154.89326L446.77267 154.89326L441.3546 154.89326L435.9339 154.89326L430.51053 154.89326L425.08276 154.89326L419.65234 154.89326L414.21838 154.89326L408.78088 154.89326L403.33984 154.89326L397.89615 154.89326L392.44806 154.89326L386.9973 154.89326L381.54303 154.89326L376.0861 154.89326L370.62476 154.89326L365.16074 154.89326L359.6932 154.89326L354.22214 154.89326L348.74753 154.89326L343.26938 154.89326L337.7886 154.89326L332.30338 154.89326L326.81552 154.89326L321.32413 154.89326L315.8292 154.89326L310.33075 154.89326L304.82962 154.89326L299.3241 154.89326L293.81592 154.89326L288.3033 154.89326L282.78806 154.89326L277.2693 154.89326L271.74695 154.89326L266.2211 154.89326L260.6917 154.89326L255.1588 154.89326L249.62234 154.89326L244.08324 154.89326L238.53972 154.89326L232.99355 154.89326L227.44295 154.89326L221.8897 154.89326L216.33205 154.89326L210.77173 154.89326L205.20789 154.89326L199.6405 154.89326L194.0687 154.89326L188.49425 154.89326L182.91628 154.89326L177.33475 154.89326L171.7497 154.89326L166.16112 154.89326L160.5681 154.89326L154.97246 154.89326L149.37326 154.89326L143.77054 154.89326L138.16428 154.89326L132.5536 154.89326L126.94028 154.89326L121.32342 154.89326L115.70214 154.89326L110.07821 154.89326L104.450745 154.89326L98.81886 154.89326L93.18345 154.89326L88.55 154.89326L88.55 61.916668L93.18345 61.916668L98.81886 61.916668L104.450745 61.916668L110.07821 61.916668L115.70214 61.916668L121.32342 61.916668L126.94028 61.916668L132.5536 61.916668L138.16428 61.916668L143.77054 61.916668L149.37326 61.916668L154.97246 61.916668L160.5681 61.916668L166.16112 61.916668L171.7497 61.916668L177.33475 61.916668L182.91628 61.916668L188.49425 61.916668L194.0687 61.916668L199.6405 61.916668L205.20789 61.916668L210.77173 61.916668L216.33205 61.916668L221.8897 61.916668L227.44295 61.916668L232.99355 61.916668L238.53972 61.916668L244.08324 61.916668L249.62234 61.916668L255.1588 61.916668L260.6917 61.916668L266.2211 61.916668L271.74695 61.916668L277.2693 61.916668L282.78806 61.916668L288.3033 61.916668L293.81592 61.916668L299.3241 61.916668L304.82962 61.916668L310.33075 61.916668L315.8292 61.916668L321.32413 61.916668L326.81552 61.916668L332.30338 61.916668L337.7886 61.916668L343.26938 61.916668L348.74753 61.916668L354.22214 61.916668L359.6932 61.916668L365.16074 61.916668L370.62476 61.916668L376.0861 61.916668L381.54303 61.916668L386.9973 61.916668L392.44806 61.916668L397.89615 61.916668L403.33984 61.916668L408.78088 61.916668L414.21838 61.916668L419.65234 61.916668L425.08276 61.916668L430.51053 61.916668L435.9339 61.916668L441.3546 61.916668L446.77267 61.916668L452.1863 61.916668L457.5973 61.916668L463.00473 61.916668L468.40866 61.916668L473.80994 61.916668L479.2068 61.916668L484.5992 61.916668L489.99252 61.916668L502.52158 61.916668L515.65753 61.916668L528.8009 61.916668L541.9517 61.916668L555.11066 61.916668L568.27924 61.916668L581.45 61.916668Z" fill-rule="nonzero"/><path stroke="#34a853" stroke-width="2.0" stroke-linecap="butt" clip-path="url(#id_0)" d="M581.45 247.8701L568.27924 234.3858L555.11066 220.91583L541.9517 207.46732L528.8009 194.0367L515.65753 180.62517L502.52158 167.23224L489.99252 154.89326L484.5992 154.89326L479.2068 154.89326L473.80994 154.89326L468.40866 154.89326L463.00473 154.89326L457.5973 154.89326L452.1863 154.89326L446.77267 154.89326L441.3546 154.89326L435.9339 154.89326L430.51053 154.89326L425.08276 154.89326L419.65234 154.89326L414.21838 154.89326L408.78088 154.89326L403.33984 154.89326L397.89615 154.89326L392.44806 154.89326L386.9973 154.89326L381.54303 154.89326L376.0861 154.89326L370.62476 154.89326L365.16074 154.89326L359.6932 154.89326L354.22214 154.89326L348.74753 154.89326L343.26938 154.89326L337.7886 154.89326L332.30338 154.89326L326.81552 154.89326L321.32413 154.89326L315.8292 154.89326L310.33075 154.89326L304.82962 154.89326L299.3241 154.89326L293.81592 154.89326L288.3033 154.89326L282.78806 154.89326L277.2693 154.89326L271.74695 154.89326L266.2211 154.89326L260.6917 154.89326L255.1588 154.89326L249.62234 154.89326L244.08324 154.89326L238.53972 154.89326L232.99355 154.89326L227.44295 154.89326L221.8897 154.89326L216.33205 154.89326L210.77173 154.89326L205.20789 154.89326L199.6405 154.89326L194.0687 154.89326L188.49425 154.89326L182.91628 154.89326L177.33475 154.89326L171.7497 154.89326L166.16112 154.89326L160.5681 154.89326L154.97246 154.89326L149.37326 154.89326L143.77054 154.89326L138.16428 154.89326L132.5536 154.89326L126.94028 154.89326L121.32342 154.89326L115.70214 154.89326L110.07821 154.89326L104.450745 154.89326L98.81886 154.89326L93.18345 154.89326L88.55 154.89326" fill-rule="nonzero"/><path fill="#000000" fill-opacity="0.0" clip-path="url(#id_0)" d="M584.45 247.8701C584.45 249.52695 583.1069 250.8701 581.45 250.8701C579.79315 250.8701 578.45 249.52695 578.45 247.8701C578.45 246.21324 579.79315 244.8701 581.45 244.8701C583.1069 244.8701 584.45 246.21324 584.45 247.8701Z" fill-rule="nonzero"/><path fill="#000000" fill-opacity="0.0" clip-path="url(#id_0)" d="M571.27924 234.3858C571.27924 236.04266 569.9361 237.3858 568.27924 237.3858C566.6224 237.3858 565.27924 236.04266 565.27924 234.3858C565.27924 232.72896 566.6224 231.3858 568.27924 231.3858C569.9361 231.3858 571.27924 232.72896 571.27924 234.3858Z" fill-rule="nonzero"/><path fill="#000000" fill-opacity="0.0" clip-path="url(#id_0)" d="M558.11066 220.91583C558.11066 222.57268 556.7675 223.91583 555.11066 223.91583C553.4538 223.91583 552.11066 222.57268 552.11066 220.91583C552.11066 219.25897 553.4538 217.91583 555.11066 217.91583C556.7675 217.91583 558.11066 219.25897 558.11066 220.91583Z" fill-rule="nonzero"/><path fill="#000000" fill-opacity="0.0" clip-path="url(#id_0)" d="M544.9517 207.46732C544.9517 209.12418 543.6086 210.46732 541.9517 210.46732C540.29486 210.46732 538.9517 209.12418 538.9517 207.46732C538.9517 205.81047 540.29486 204.46732 541.9517 204.46732C543.6086 204.46732 544.9517 205.81047 544.9517 207.46732Z" fill-rule="nonzero"/><path fill="#000000" fill-opacity="0.0" clip-path="url(#id_0)" d="M531.8009 194.0367C531.8009 195.69356 530.45776 197.0367 528.8009 197.0367C527.14404 197.0367 525.8009 195.69356 525.8009 194.0367C525.8009 192.37985 527.14404 191.0367 528.8009 191.0367C530.45776 191.0367 531.8009 192.37985 531.8009 194.0367Z" fill-rule="nonzero"/><path fill="#000000" fill-opacity="0.0" clip-path="url(#id_0)" d="M518.65753 180.62517C518.65753 182.28201 517.3144 183.62517 515.65753 183.62517C514.0007 183.62517 512.65753 182.28201 512.65753 180.62517C512.65753 178.9683 514.0007 177.62517 515.65753 177.62517C517.3144 177.62517 518.65753 178.9683 518.65753 180.62517Z" fill-rule="nonzero"/><path fill="#000000" fill-opacity="0.0" clip-path="url(#id_0)" d="M505.52158 167.23224C505.52158 168.88908 504.17844 170.23224 502.52158 170.23224C500.86472 170.23224 499.52158 168.88908 499.52158 167.23224C499.52158 165.57538 500.86472 164.23224 502.52158 164.23224C504.17844 164.23224 505.52158 165.57538 505.52158 167.23224Z" fill-rule="nonzero"/><path fill="#000000" fill-opacity="0.0" clip-path="url(#id_0)" d="M492.99252 154.89326C492.99252 156.55011 491.64938 157.89326 489.99252 157.89326C488.3357 157.89326 486.99252 156.55011 486.99252 154.89326C486.99252 153.2364 488.3357 151.89326 489.99252 151.89326C491.64938 151.89326 492.99252 153.2364 492.99252 154.89326Z" fill-rule="nonzero"/><path fill="#000000" fill-opacity="0.0" clip-path="url(#id_0)" d="M487.5992 154.89326C487.5992 156.55011 486.25607 157.89326 484.5992 157.89326C482.94235 157.89326 481.5992 156.55011 481.5992 154.89326C481.5992 153.2364 482.94235 151.89326 484.5992 151.89326C486.25607 151.89326 487.5992 153.2364 487.5992 154.89326Z" fill-rule="nonzero"/><path fill="#000000" fill-opacity="0.0" clip-path="url(#id_0)" d="M482.2068 154.89326C482.2068 156.55011 480.86365 157.89326 479.2068 157.89326C477.54993 157.89326 476.2068 156.55011 476.2068 154.89326C476.2068 153.2364 477.54993 151.89326 479.2068 151.89326C480.86365 151.89326 482.2068 153.2364 482.2068 154.89326Z" fill-rule="nonzero"/><path fill="#000000" fill-opacity="0.0" clip-path="url(#id_0)" d="M476.80994 154.89326C476.80994 156.55011 475.4668 157.89326 473.80994 157.89326C472.15308 157.89326 470.80994 156.55011 470.80994 154.89326C470.80994 153.2364 472.15308 151.89326 473.80994 151.89326C475.4668 151.89326 476.80994 153.2364 476.80994 154.89326Z" fill-rule="nonzero"/><path fill="#000000" fill-opacity="0.0" clip-path="url(#id_0)" d="M471.40866 154.89326C471.40866 156.55011 470.06552 157.89326 468.40866 157.89326C466.7518 157.89326 465.40866 156.55011 465.40866 154.89326C465.40866 153.2364 466.7518 151.89326 468.40866 151.89326C470.06552 151.89326 471.40866 153.2364 471.40866 154.89326Z" fill-rule="nonzero"/><path fill="#000000" fill-opacity="0.0" clip-path="url(#id_0)" d="M466.00473 154.89326C466.00473 156.55011 464.6616 157.89326 463.00473 157.89326C461.3479 157.89326 460.00473 156.55011 460.00473 154.89326C460.00473 153.2364 461.3479 151.89326 463.00473 151.89326C464.6616 151.89326 466.00473 153.2364 466.00473 154.89326Z" fill-rule="nonzero"/><path fill="#000000" fill-opacity="0.0" clip-path="url(#id_0)" d="M460.5973 154.89326C460.5973 156.55011 459.25415 157.89326 457.5973 157.89326C455.94043 157.89326 454.5973 156.55011 454.5973 154.89326C454.5973 153.2364 455.94043 151.89326 457.5973 151.89326C459.25415 151.89326 460.5973 153.2364 460.5973 154.89326Z" fill-rule="nonzero"/><path fill="#000000" fill-opacity="0.0" clip-path="url(#id_0)" d="M455.1863 154.89326C455.1863 156.55011 453.84314 157.89326 452.1863 157.89326C450.52945 157.89326 449.1863 156.55011 449.1863 154.89326C449.1863 153.2364 450.52945 151.89326 452.1863 151.89326C453.84314 151.89326 455.1863 153.2364 455.1863 154.89326Z" fill-rule="nonzero"/><path fill="#000000" fill-opacity="0.0" clip-path="url(#id_0)" d="M449.77267 154.89326C449.77267 156.55011 448.4295 157.89326 446.77267 157.89326C445.1158 157.89326 443.77267 156.55011 443.77267 154.89326C443.77267 153.2364 445.1158 151.89326 446.77267 151.89326C448.4295 151.89326 449.77267 153.2364 449.77267 154.89326Z" fill-rule="nonzero"/><path fill="#000000" fill-opacity="0.0" clip-path="url(#id_0)" d="M444.3546 154.89326C444.3546 156.55011 443.01144 157.89326 441.3546 157.89326C439.69775 157.89326 438.3546 156.55011 438.3546 154.89326C438.3546 153.2364 439.69775 151.89326 441.3546 151.89326C443.01144 151.89326 444.3546 153.2364 444.3546 154.89326Z" fill-rule="nonzero"/><path fill="#000000" fill-opacity="0.0" clip-path="url(#id_0)" d="M438.9339 154.89326C438.9339 156.55011 437.59076 157.89326 435.9339 157.89326C434.27704 157.89326 432.9339 156.55011 432.9339 154.89326C432.9339 153.2364 434.27704 151.89326 435.9339 151.89326C437.59076 151.89326 438.9339 153.2364 438.9339 154.89326Z" fill-rule="nonzero"/><path fill="#000000" fill-opacity="0.0" clip-path="url(#id_0)" d="M433.51053 154.89326C433.51053 156.55011 432.1674 157.89326 430.51053 157.89326C428.85367 157.89326 427.51053 156.55011 427.51053 154.89326C427.51053 153.2364 428.85367 151.89326 430.51053 151.89326C432.1674 151.89326 433.51053 153.2364 433.51053 154.89326Z" fill-rule="nonzero"/><path fill="#000000" fill-opacity="0.0" clip-path="url(#id_0)" d="M428.08276 154.89326C428.08276 156.55011 426.73962 157.89326 425.08276 157.89326C423.4259 157.89326 422.08276 156.55011 422.08276 154.89326C422.08276 153.2364 423.4259 151.89326 425.08276 151.89326C426.73962 151.89326 428.08276 153.2364 428.08276 154.89326Z" fill-rule="nonzero"/><path fill="#000000" fill-opacity="0.0" clip-path="url(#id_0)" d="M422.65234 154.89326C422.65234 156.55011 421.30917 157.89326 419.65234 157.89326C417.99548 157.89326 416.65234 156.55011 416.65234 154.89326C416.65234 153.2364 417.99548 151.89326 419.65234 151.89326C421.30917 151.89326 422.65234 153.2364 422.65234 154.89326Z" fill-rule="nonzero"/><path fill="#000000" fill-opacity="0.0" clip-path="url(#id_0)" d="M417.21838 154.89326C417.21838 156.55011 415.8752 157.89326 414.21838 157.89326C412.56152 157.89326 411.21838 156.55011 411.21838 154.89326C411.21838 153.2364 412.56152 151.89326 414.21838 151.89326C415.8752 151.89326 417.21838 153.2364 417.21838 154.89326Z" fill-rule="nonzero"/><path fill="#000000" fill-opacity="0.0" clip-path="url(#id_0)" d="M411.78088 154.89326C411.78088 156.55011 410.4377 157.89326 408.78088 157.89326C407.12402 157.89326 405.78088 156.55011 405.78088 154.89326C405.78088 153.2364 407.12402 151.89326 408.78088 151.89326C410.4377 151.89326 411.78088 153.2364 411.78088 154.89326Z" fill-rule="nonzero"/><path fill="#000000" fill-opacity="0.0" clip-path="url(#id_0)" d="M406.33984 154.89326C406.33984 156.55011 404.9967 157.89326 403.33984 157.89326C401.68298 157.89326 400.33984 156.55011 400.33984 154.89326C400.33984 153.2364 401.68298 151.89326 403.33984 151.89326C404.9967 151.89326 406.33984 153.2364 406.33984 154.89326Z" fill-rule="nonzero"/><path fill="#000000" fill-opacity="0.0" clip-path="url(#id_0)" d="M400.89615 154.89326C400.89615 156.55011 399.553 157.89326 397.89615 157.89326C396.23932 157.89326 394.89615 156.55011 394.89615 154.89326C394.89615 153.2364 396.23932 151.89326 397.89615 151.89326C399.553 151.89326 400.89615 153.2364 400.89615 154.89326Z" fill-rule="nonzero"/><path fill="#000000" fill-opacity="0.0" clip-path="url(#id_0)" d="M395.44806 154.89326C395.44806 156.55011 394.10492 157.89326 392.44806 157.89326C390.7912 157.89326 389.44806 156.55011 389.44806 154.89326C389.44806 153.2364 390.7912 151.89326 392.44806 151.89326C394.10492 151.89326 395.44806 153.2364 395.44806 154.89326Z" fill-rule="nonzero"/><path fill="#000000" fill-opacity="0.0" clip-path="url(#id_0)" d="M389.9973 154.89326C389.9973 156.55011 388.65417 157.89326 386.9973 157.89326C385.34045 157.89326 383.9973 156.55011 383.9973 154.89326C383.9973 153.2364 385.34045 151.89326 386.9973 151.89326C388.65417 151.89326 389.9973 153.2364 389.9973 154.89326Z" fill-rule="nonzero"/><path fill="#000000" fill-opacity="0.0" clip-path="url(#id_0)" d="M384.54303 154.89326C384.54303 156.55011 383.1999 157.89326 381.54303 157.89326C379.88617 157.89326 378.54303 156.55011 378.54303 154.89326C378.54303 153.2364 379.88617 151.89326 381.54303 151.89326C383.1999 151.89326 384.54303 153.2364 384.54303 154.89326Z" fill-rule="nonzero"/><path fill="#000000" fill-opacity="0.0" clip-path="url(#id_0)" d="M379.0861 154.89326C379.0861 156.55011 377.74295 157.89326 376.0861 157.89326C374.42923 157.89326 373.0861 156.55011 373.0861 154.89326C373.0861 153.2364 374.42923 151.89326 376.0861 151.89326C377.74295 151.89326 379.0861 153.2364 379.0861 154.89326Z" fill-rule="nonzero"/><path fill="#000000" fill-opacity="0.0" clip-path="url(#id_0)" d="M373.62476 154.89326C373.62476 156.55011 372.2816 157.89326 370.62476 157.89326C368.9679 157.89326 367.62476 156.55011 367.62476 154.89326C367.62476 153.2364 368.9679 151.89326 370.62476 151.89326C372.2816 151.89326 373.62476 153.2364 373.62476 154.89326Z" fill-rule="nonzero"/><path fill="#000000" fill-opacity="0.0" clip-path="url(#id_0)" d="M368.16074 154.89326C368.16074 156.55011 366.8176 157.89326 365.16074 157.89326C363.50388 157.89326 362.16074 156.55011 362.16074 154.89326C362.16074 153.2364 363.50388 151.89326 365.16074 151.89326C366.8176 151.89326 368.16074 153.2364 368.16074 154.89326Z" fill-rule="nonzero"/><path fill="#000000" fill-opacity="0.0" clip-path="url(#id_0)" d="M362.6932 154.89326C362.6932 156.55011 361.35007 157.89326 359.6932 157.89326C358.03635 157.89326 356.6932 156.55011 356.6932 154.89326C356.6932 153.2364 358.03635 151.89326 359.6932 151.89326C361.35007 151.89326 362.6932 153.2364 362.6932 154.89326Z" fill-rule="nonzero"/><path fill="#000000" fill-opacity="0.0" clip-path="url(#id_0)" d="M357.22214 154.89326C357.22214 156.55011 355.879 157.89326 354.22214 157.89326C352.56528 157.89326 351.22214 156.55011 351.22214 154.89326C351.22214 153.2364 352.56528 151.89326 354.22214 151.89326C355.879 151.89326 357.22214 153.2364 357.22214 154.89326Z" fill-rule="nonzero"/><path fill="#000000" fill-opacity="0.0" clip-path="url(#id_0)" d="M351.74753 154.89326C351.74753 156.55011 350.4044 157.89326 348.74753 157.89326C347.09067 157.89326 345.74753 156.55011 345.74753 154.89326C345.74753 153.2364 347.09067 151.89326 348.74753 151.89326C350.4044 151.89326 351.74753 153.2364 351.74753 154.89326Z" fill-rule="nonzero"/><path fill="#000000" fill-opacity="0.0" clip-path="url(#id_0)" d="M346.26938 154.89326C346.26938 156.55011 344.92624 157.89326 343.26938 157.89326C341.61252 157.89326 340.26938 156.55011 340.26938 154.89326C340.26938 153.2364 341.61252 151.89326 343.26938 151.89326C344.92624 151.89326 346.26938 153.2364 346.26938 154.89326Z" fill-rule="nonzero"/><path fill="#000000" fill-opacity="0.0" clip-path="url(#id_0)" d="M340.7886 154.89326C340.7886 156.55011 339.44543 157.89326 337.7886 157.89326C336.13174 157.89326 334.7886 156.55011 334.7886 154.89326C334.7886 153.2364 336.13174 151.89326 337.7886 151.89326C339.44543 151.89326 340.7886 153.2364 340.7886 154.89326Z" fill-rule="nonzero"/><path fill="#000000" fill-opacity="0.0" clip-path="url(#id_0)" d="M335.30338 154.89326C335.30338 156.55011 333.96024 157.89326 332.30338 157.89326C330.64655 157.89326 329.30338 156.55011 329.30338 154.89326C329.30338 153.2364 330.64655 151.89326 332.30338 151.89326C333.96024 151.89326 335.30338 153.2364 335.30338 154.89326Z" fill-rule="nonzero"/><path fill="#000000" fill-opacity="0.0" clip-path="url(#id_0)" d="M329.81552 154.89326C329.81552 156.55011 328.47238 157.89326 326.81552 157.89326C325.15866 157.89326 323.81552 156.55011 323.81552 154.89326C323.81552 153.2364 325.15866 151.89326 326.81552 151.89326C328.47238 151.89326 329.81552 153.2364 329.81552 154.89326Z" fill-rule="nonzero"/><path fill="#000000" fill-opacity="0.0" clip-path="url(#id_0)" d="M324.32413 154.89326C324.32413 156.55011 322.981 157.89326 321.32413 157.89326C319.66727 157.89326 318.32413 156.55011 318.32413 154.89326C318.32413 153.2364 319.66727 151.89326 321.32413 151.89326C322.981 151.89326 324.32413 153.2364 324.32413 154.89326Z" fill-rule="nonzero"/><path fill="#000000" fill-opacity="0.0" clip-path="url(#id_0)" d="M318.8292 154.89326C318.8292 156.55011 317.48605 157.89326 315.8292 157.89326C314.17236 157.89326 312.8292 156.55011 312.8292 154.89326C312.8292 153.2364 314.17236 151.89326 315.8292 151.89326C317.48605 151.89326 318.8292 153.2364 318.8292 154.89326Z" fill-rule="nonzero"/><path fill="#000000" fill-opacity="0.0" clip-path="url(#id_0)" d="M313.33075 154.89326C313.33075 156.55011 311.9876 157.89326 310.33075 157.89326C308.6739 157.89326 307.33075 156.55011 307.33075 154.89326C307.33075 153.2364 308.6739 151.89326 310.33075 151.89326C311.9876 151.89326 313.33075 153.2364 313.33075 154.89326Z" fill-rule="nonzero"/><path fill="#000000" fill-opacity="0.0" clip-path="url(#id_0)" d="M307.82962 154.89326C307.82962 156.55011 306.48648 157.89326 304.82962 157.89326C303.17276 157.89326 301.82962 156.55011 301.82962 154.89326C301.82962 153.2364 303.17276 151.89326 304.82962 151.89326C306.48648 151.89326 307.82962 153.2364 307.82962 154.89326Z" fill-rule="nonzero"/><path fill="#000000" fill-opacity="0.0" clip-path="url(#id_0)" d="M302.3241 154.89326C302.3241 156.55011 300.98096 157.89326 299.3241 157.89326C297.66724 157.89326 296.3241 156.55011 296.3241 154.89326C296.3241 153.2364 297.66724 151.89326 299.3241 151.89326C300.98096 151.89326 302.3241 153.2364 302.3241 154.89326Z" fill-rule="nonzero"/><path fill="#000000" fill-opacity="0.0" clip-path="url(#id_0)" d="M296.81592 154.89326C296.81592 156.55011 295.47278 157.89326 293.81592 157.89326C292.15906 157.89326 290.81592 156.55011 290.81592 154.89326C290.81592 153.2364 292.15906 151.89326 293.81592 151.89326C295.47278 151.89326 296.81592 153.2364 296.81592 154.89326Z" fill-rule="nonzero"/><path fill="#000000" fill-opacity="0.0" clip-path="url(#id_0)" d="M291.3033 154.89326C291.3033 156.55011 289.96017 157.89326 288.3033 157.89326C286.64645 157.89326 285.3033 156.55011 285.3033 154.89326C285.3033 153.2364 286.64645 151.89326 288.3033 151.89326C289.96017 151.89326 291.3033 153.2364 291.3033 154.89326Z" fill-rule="nonzero"/><path fill="#000000" fill-opacity="0.0" clip-path="url(#id_0)" d="M285.78806 154.89326C285.78806 156.55011 284.44492 157.89326 282.78806 157.89326C281.13123 157.89326 279.78806 156.55011 279.78806 154.89326C279.78806 153.2364 281.13123 151.89326 282.78806 151.89326C284.44492 151.89326 285.78806 153.2364 285.78806 154.89326Z" fill-rule="nonzero"/><path fill="#000000" fill-opacity="0.0" clip-path="url(#id_0)" d="M280.2693 154.89326C280.2693 156.55011 278.92615 157.89326 277.2693 157.89326C275.61243 157.89326 274.2693 156.55011 274.2693 154.89326C274.2693 153.2364 275.61243 151.89326 277.2693 151.89326C278.92615 151.89326 280.2693 153.2364 280.2693 154.89326Z" fill-rule="nonzero"/><path fill="#000000" fill-opacity="0.0" clip-path="url(#id_0)" d="M274.74695 154.89326C274.74695 156.55011 273.4038 157.89326 271.74695 157.89326C270.09012 157.89326 268.74695 156.55011 268.74695 154.89326C268.74695 153.2364 270.09012 151.89326 271.74695 151.89326C273.4038 151.89326 274.74695 153.2364 274.74695 154.89326Z" fill-rule="nonzero"/><path fill="#000000" fill-opacity="0.0" clip-path="url(#id_0)" d="M269.2211 154.89326C269.2211 156.55011 267.87796 157.89326 266.2211 157.89326C264.56427 157.89326 263.2211 156.55011 263.2211 154.89326C263.2211 153.2364 264.56427 151.89326 266.2211 151.89326C267.87796 151.89326 269.2211 153.2364 269.2211 154.89326Z" fill-rule="nonzero"/><path fill="#000000" fill-opacity="0.0" clip-path="url(#id_0)" d="M263.6917 154.89326C263.6917 156.55011 262.34857 157.89326 260.6917 157.89326C259.03488 157.89326 257.6917 156.55011 257.6917 154.89326C257.6917 153.2364 259.03488 151.89326 260.6917 151.89326C262.34857 151.89326 263.6917 153.2364 263.6917 154.89326Z" fill-rule="nonzero"/><path fill="#000000" fill-opacity="0.0" clip-path="url(#id_0)" d="M258.1588 154.89326C258.1588 156.55011 256.81564 157.89326 255.1588 157.89326C253.50195 157.89326 252.1588 156.55011 252.1588 154.89326C252.1588 153.2364 253.50195 151.89326 255.1588 151.89326C256.81564 151.89326 258.1588 153.2364 258.1588 154.89326Z" fill-rule="nonzero"/><path fill="#000000" fill-opacity="0.0" clip-path="url(#id_0)" d="M252.62234 154.89326C252.62234 156.55011 251.2792 157.89326 249.62234 157.89326C247.96548 157.89326 246.62234 156.55011 246.62234 154.89326C246.62234 153.2364 247.96548 151.89326 249.62234 151.89326C251.2792 151.89326 252.62234 153.2364 252.62234 154.89326Z" fill-rule="nonzero"/><path fill="#000000" fill-opacity="0.0" clip-path="url(#id_0)" d="M247.08324 154.89326C247.08324 156.55011 245.7401 157.89326 244.08324 157.89326C242.42638 157.89326 241.08324 156.55011 241.08324 154.89326C241.08324 153.2364 242.42638 151.89326 244.08324 151.89326C245.7401 151.89326 247.08324 153.2364 247.08324 154.89326Z" fill-rule="nonzero"/><path fill="#000000" fill-opacity="0.0" clip-path="url(#id_0)" d="M241.53972 154.89326C241.53972 156.55011 240.19656 157.89326 238.53972 157.89326C236.88286 157.89326 235.53972 156.55011 235.53972 154.89326C235.53972 153.2364 236.88286 151.89326 238.53972 151.89326C240.19656 151.89326 241.53972 153.2364 241.53972 154.89326Z" fill-rule="nonzero"/><path fill="#000000" fill-opacity="0.0" clip-path="url(#id_0)" d="M235.99355 154.89326C235.99355 156.55011 234.65039 157.89326 232.99355 157.89326C231.33669 157.89326 229.99355 156.55011 229.99355 154.89326C229.99355 153.2364 231.33669 151.89326 232.99355 151.89326C234.65039 151.89326 235.99355 153.2364 235.99355 154.89326Z" fill-rule="nonzero"/><path fill="#000000" fill-opacity="0.0" clip-path="url(#id_0)" d="M230.44295 154.89326C230.44295 156.55011 229.0998 157.89326 227.44295 157.89326C225.78609 157.89326 224.44295 156.55011 224.44295 154.89326C224.44295 153.2364 225.78609 151.89326 227.44295 151.89326C229.0998 151.89326 230.44295 153.2364 230.44295 154.89326Z" fill-rule="nonzero"/><path fill="#000000" fill-opacity="0.0" clip-path="url(#id_0)" d="M224.8897 154.89326C224.8897 156.55011 223.54655 157.89326 221.8897 157.89326C220.23285 157.89326 218.8897 156.55011 218.8897 154.89326C218.8897 153.2364 220.23285 151.89326 221.8897 151.89326C223.54655 151.89326 224.8897 153.2364 224.8897 154.89326Z" fill-rule="nonzero"/><path fill="#000000" fill-opacity="0.0" clip-path="url(#id_0)" d="M219.33205 154.89326C219.33205 156.55011 217.98889 157.89326 216.33205 157.89326C214.67519 157.89326 213.33205 156.55011 213.33205 154.89326C213.33205 153.2364 214.67519 151.89326 216.33205 151.89326C217.98889 151.89326 219.33205 153.2364 219.33205 154.89326Z" fill-rule="nonzero"/><path fill="#000000" fill-opacity="0.0" clip-path="url(#id_0)" d="M213.77173 154.89326C213.77173 156.55011 212.42859 157.89326 210.77173 157.89326C209.11487 157.89326 207.77173 156.55011 207.77173 154.89326C207.77173 153.2364 209.11487 151.89326 210.77173 151.89326C212.42859 151.89326 213.77173 153.2364 213.77173 154.89326Z" fill-rule="nonzero"/><path fill="#000000" fill-opacity="0.0" clip-path="url(#id_0)" d="M208.20789 154.89326C208.20789 156.55011 206.86473 157.89326 205.20789 157.89326C203.55103 157.89326 202.20789 156.55011 202.20789 154.89326C202.20789 153.2364 203.55103 151.89326 205.20789 151.89326C206.86473 151.89326 208.20789 153.2364 208.20789 154.89326Z" fill-rule="nonzero"/><path fill="#000000" fill-opacity="0.0" clip-path="url(#id_0)" d="M202.6405 154.89326C202.6405 156.55011 201.29735 157.89326 199.6405 157.89326C197.98364 157.89326 196.6405 156.55011 196.6405 154.89326C196.6405 153.2364 197.98364 151.89326 199.6405 151.89326C201.29735 151.89326 202.6405 153.2364 202.6405 154.89326Z" fill-rule="nonzero"/><path fill="#000000" fill-opacity="0.0" clip-path="url(#id_0)" d="M197.0687 154.89326C197.0687 156.55011 195.72556 157.89326 194.0687 157.89326C192.41185 157.89326 191.0687 156.55011 191.0687 154.89326C191.0687 153.2364 192.41185 151.89326 194.0687 151.89326C195.72556 151.89326 197.0687 153.2364 197.0687 154.89326Z" fill-rule="nonzero"/><path fill="#000000" fill-opacity="0.0" clip-path="url(#id_0)" d="M191.49425 154.89326C191.49425 156.55011 190.15111 157.89326 188.49425 157.89326C186.8374 157.89326 185.49425 156.55011 185.49425 154.89326C185.49425 153.2364 186.8374 151.89326 188.49425 151.89326C190.15111 151.89326 191.49425 153.2364 191.49425 154.89326Z" fill-rule="nonzero"/><path fill="#000000" fill-opacity="0.0" clip-path="url(#id_0)" d="M185.91628 154.89326C185.91628 156.55011 184.57312 157.89326 182.91628 157.89326C181.25941 157.89326 179.91628 156.55011 179.91628 154.89326C179.91628 153.2364 181.25941 151.89326 182.91628 151.89326C184.57312 151.89326 185.91628 153.2364 185.91628 154.89326Z" fill-rule="nonzero"/><path fill="#000000" fill-opacity="0.0" clip-path="url(#id_0)" d="M180.33475 154.89326C180.33475 156.55011 178.99161 157.89326 177.33475 157.89326C175.6779 157.89326 174.33475 156.55011 174.33475 154.89326C174.33475 153.2364 175.6779 151.89326 177.33475 151.89326C178.99161 151.89326 180.33475 153.2364 180.33475 154.89326Z" fill-rule="nonzero"/><path fill="#000000" fill-opacity="0.0" clip-path="url(#id_0)" d="M174.7497 154.89326C174.7497 156.55011 173.40656 157.89326 171.7497 157.89326C170.09285 157.89326 168.7497 156.55011 168.7497 154.89326C168.7497 153.2364 170.09285 151.89326 171.7497 151.89326C173.40656 151.89326 174.7497 153.2364 174.7497 154.89326Z" fill-rule="nonzero"/><path fill="#000000" fill-opacity="0.0" clip-path="url(#id_0)" d="M169.16112 154.89326C169.16112 156.55011 167.81796 157.89326 166.16112 157.89326C164.50426 157.89326 163.16112 156.55011 163.16112 154.89326C163.16112 153.2364 164.50426 151.89326 166.16112 151.89326C167.81796 151.89326 169.16112 153.2364 169.16112 154.89326Z" fill-rule="nonzero"/><path fill="#000000" fill-opacity="0.0" clip-path="url(#id_0)" d="M163.5681 154.89326C163.5681 156.55011 162.22496 157.89326 160.5681 157.89326C158.91125 157.89326 157.5681 156.55011 157.5681 154.89326C157.5681 153.2364 158.91125 151.89326 160.5681 151.89326C162.22496 151.89326 163.5681 153.2364 163.5681 154.89326Z" fill-rule="nonzero"/><path fill="#000000" fill-opacity="0.0" clip-path="url(#id_0)" d="M157.97246 154.89326C157.97246 156.55011 156.6293 157.89326 154.97246 157.89326C153.3156 157.89326 151.97246 156.55011 151.97246 154.89326C151.97246 153.2364 153.3156 151.89326 154.97246 151.89326C156.6293 151.89326 157.97246 153.2364 157.97246 154.89326Z" fill-rule="nonzero"/><path fill="#000000" fill-opacity="0.0" clip-path="url(#id_0)" d="M152.37326 154.89326C152.37326 156.55011 151.03012 157.89326 149.37326 157.89326C147.7164 157.89326 146.37326 156.55011 146.37326 154.89326C146.37326 153.2364 147.7164 151.89326 149.37326 151.89326C151.03012 151.89326 152.37326 153.2364 152.37326 154.89326Z" fill-rule="nonzero"/><path fill="#000000" fill-opacity="0.0" clip-path="url(#id_0)" d="M146.77054 154.89326C146.77054 156.55011 145.4274 157.89326 143.77054 157.89326C142.11368 157.89326 140.77054 156.55011 140.77054 154.89326C140.77054 153.2364 142.11368 151.89326 143.77054 151.89326C145.4274 151.89326 146.77054 153.2364 146.77054 154.89326Z" fill-rule="nonzero"/><path fill="#000000" fill-opacity="0.0" clip-path="url(#id_0)" d="M141.16428 154.89326C141.16428 156.55011 139.82114 157.89326 138.16428 157.89326C136.50743 157.89326 135.16428 156.55011 135.16428 154.89326C135.16428 153.2364 136.50743 151.89326 138.16428 151.89326C139.82114 151.89326 141.16428 153.2364 141.16428 154.89326Z" fill-rule="nonzero"/><path fill="#000000" fill-opacity="0.0" clip-path="url(#id_0)" d="M135.5536 154.89326C135.5536 156.55011 134.21046 157.89326 132.5536 157.89326C130.89674 157.89326 129.5536 156.55011 129.5536 154.89326C129.5536 153.2364 130.89674 151.89326 132.5536 151.89326C134.21046 151.89326 135.5536 153.2364 135.5536 154.89326Z" fill-rule="nonzero"/><path fill="#000000" fill-opacity="0.0" clip-path="url(#id_0)" d="M129.94028 154.89326C129.94028 156.55011 128.59714 157.89326 126.94028 157.89326C125.283424 157.89326 123.94028 156.55011 123.94028 154.89326C123.94028 153.2364 125.283424 151.89326 126.94028 151.89326C128.59714 151.89326 129.94028 153.2364 129.94028 154.89326Z" fill-rule="nonzero"/><path fill="#000000" fill-opacity="0.0" clip-path="url(#id_0)" d="M124.32342 154.89326C124.32342 156.55011 122.98027 157.89326 121.32342 157.89326C119.666565 157.89326 118.32342 156.55011 118.32342 154.89326C118.32342 153.2364 119.666565 151.89326 121.32342 151.89326C122.98027 151.89326 124.32342 153.2364 124.32342 154.89326Z" fill-rule="nonzero"/><path fill="#000000" fill-opacity="0.0" clip-path="url(#id_0)" d="M118.70214 154.89326C118.70214 156.55011 117.35899 157.89326 115.70214 157.89326C114.04528 157.89326 112.70214 156.55011 112.70214 154.89326C112.70214 153.2364 114.04528 151.89326 115.70214 151.89326C117.35899 151.89326 118.70214 153.2364 118.70214 154.89326Z" fill-rule="nonzero"/><path fill="#000000" fill-opacity="0.0" clip-path="url(#id_0)" d="M113.07821 154.89326C113.07821 156.55011 111.73506 157.89326 110.07821 157.89326C108.42136 157.89326 107.07821 156.55011 107.07821 154.89326C107.07821 153.2364 108.42136 151.89326 110.07821 151.89326C111.73506 151.89326 113.07821 153.2364 113.07821 154.89326Z" fill-rule="nonzero"/><path fill="#000000" fill-opacity="0.0" clip-path="url(#id_0)" d="M107.450745 154.89326C107.450745 156.55011 106.1076 157.89326 104.450745 157.89326C102.79389 157.89326 101.450745 156.55011 101.450745 154.89326C101.450745 153.2364 102.79389 151.89326 104.450745 151.89326C106.1076 151.89326 107.450745 153.2364 107.450745 154.89326Z" fill-rule="nonzero"/><path fill="#000000" fill-opacity="0.0" clip-path="url(#id_0)" d="M101.81886 154.89326C101.81886 156.55011 100.475716 157.89326 98.81886 157.89326C97.16201 157.89326 95.81886 156.55011 95.81886 154.89326C95.81886 153.2364 97.16201 151.89326 98.81886 151.89326C100.475716 151.89326 101.81886 153.2364 101.81886 154.89326Z" fill-rule="nonzero"/><path fill="#000000" fill-opacity="0.0" clip-path="url(#id_0)" d="M96.18345 154.89326C96.18345 156.55011 94.8403 157.89326 93.18345 157.89326C91.52659 157.89326 90.18345 156.55011 90.18345 154.89326C90.18345 153.2364 91.52659 151.89326 93.18345 151.89326C94.8403 151.89326 96.18345 153.2364 96.18345 154.89326Z" fill-rule="nonzero"/><path fill="#000000" fill-opacity="0.0" clip-path="url(#id_0)" d="M91.55 154.89326C91.55 156.55011 90.206856 157.89326 88.55 157.89326C86.89314 157.89326 85.55 156.55011 85.55 154.89326C85.55 153.2364 86.89314 151.89326 88.55 151.89326C90.206856 151.89326 91.55 153.2364 91.55 154.89326Z" fill-rule="nonzero"/><path fill="#000000" d="M305.54688 347.45L306.64062 347.575Q306.39062 348.52814 305.6875 349.0594Q304.98438 349.59064 303.90625 349.59064Q302.54688 349.59064 301.73438 348.7469Q300.9375 347.90314 300.9375 346.3875Q300.9375 344.825 301.75 343.96564Q302.5625 343.09064 303.84375 343.09064Q305.09375 343.09064 305.875 343.9344Q306.67188 344.77814 306.67188 346.325Q306.67188 346.41876 306.67188 346.60626L302.03125 346.60626Q302.09375 347.6375 302.60938 348.1844Q303.125 348.71564 303.90625 348.71564Q304.48438 348.71564 304.89062 348.41876Q305.3125 348.10626 305.54688 347.45ZM302.09375 345.7469L305.5625 345.7469Q305.5 344.95 305.17188 344.5594Q304.65625 343.95 303.85938 343.95Q303.125 343.95 302.625 344.4344Q302.14062 344.91876 302.09375 345.7469ZM308.29688 351.84064L308.29688 343.23126L309.25 343.23126L309.25 344.02814Q309.59375 343.5594 310.01562 343.325Q310.45312 343.09064 311.0625 343.09064Q311.85938 343.09064 312.46875 343.4969Q313.07812 343.90314 313.375 344.65314Q313.6875 345.40314 313.6875 346.29376Q313.6875 347.2469 313.34375 348.0125Q313.01562 348.77814 312.35938 349.1844Q311.70312 349.59064 310.98438 349.59064Q310.45312 349.59064 310.03125 349.3719Q309.60938 349.1375 309.34375 348.8094L309.34375 351.84064L308.29688 351.84064ZM309.25 346.3719Q309.25 347.575 309.73438 348.15314Q310.21875 348.71564 310.90625 348.71564Q311.60938 348.71564 312.10938 348.1219Q312.60938 347.52814 312.60938 346.27814Q312.60938 345.09064 312.125 344.5125Q311.64062 343.91876 310.95312 343.91876Q310.28125 343.91876 309.76562 344.54376Q309.25 345.16876 309.25 346.3719ZM314.875 347.59064L315.90625 347.4344Q316.0 348.0594 316.39062 348.3875Q316.79688 348.71564 317.53125 348.71564Q318.25 348.71564 318.59375 348.4344Q318.95312 348.1375 318.95312 347.73126Q318.95312 347.3719 318.64062 347.16876Q318.42188 347.02814 317.5625 346.8094Q316.40625 346.5125 315.95312 346.3094Q315.51562 346.09064 315.28125 345.71564Q315.04688 345.34064 315.04688 344.8719Q315.04688 344.46564 315.23438 344.10626Q315.42188 343.7469 315.75 343.5125Q316.0 343.34064 316.42188 343.21564Q316.84375 343.09064 317.34375 343.09064Q318.0625 343.09064 318.60938 343.3094Q319.17188 343.5125 319.4375 343.8719Q319.70312 344.23126 319.79688 344.825L318.76562 344.96564Q318.70312 344.4969 318.35938 344.23126Q318.03125 343.95 317.40625 343.95Q316.6875 343.95 316.375 344.2Q316.0625 344.4344 316.0625 344.7625Q316.0625 344.96564 316.1875 345.1219Q316.32812 345.29376 316.59375 345.40314Q316.75 345.46564 317.53125 345.66876Q318.65625 345.98126 319.09375 346.16876Q319.53125 346.35626 319.78125 346.71564Q320.03125 347.075 320.03125 347.6219Q320.03125 348.15314 319.71875 348.6219Q319.42188 349.075 318.84375 349.34064Q318.26562 349.59064 317.53125 349.59064Q316.3125 349.59064 315.67188 349.09064Q315.04688 348.575 314.875 347.59064ZM328.5625 346.4344L329.6875 346.73126Q329.32812 348.1219 328.40625 348.85626Q327.48438 349.59064 326.14062 349.59064Q324.75 349.59064 323.875 349.02814Q323.0 348.46564 322.54688 347.40314Q322.09375 346.325 322.09375 345.09064Q322.09375 343.7469 322.60938 342.7469Q323.125 341.7469 324.0625 341.23126Q325.01562 340.71564 326.15625 340.71564Q327.4375 340.71564 328.3125 341.3719Q329.20312 342.02814 329.54688 343.21564L328.42188 343.48126Q328.125 342.54376 327.54688 342.1219Q326.98438 341.6844 326.125 341.6844Q325.14062 341.6844 324.46875 342.16876Q323.8125 342.6375 323.53125 343.4344Q323.26562 344.23126 323.26562 345.09064Q323.26562 346.1844 323.57812 346.9969Q323.90625 347.8094 324.57812 348.21564Q325.25 348.6219 326.04688 348.6219Q327.0 348.6219 327.65625 348.075Q328.32812 347.52814 328.5625 346.4344ZM331.28125 349.45L331.28125 343.23126L332.23438 343.23126L332.23438 344.16876Q332.59375 343.5125 332.89062 343.3094Q333.20312 343.09064 333.57812 343.09064Q334.10938 343.09064 334.65625 343.41876L334.29688 344.40314Q333.90625 344.16876 333.53125 344.16876Q333.17188 344.16876 332.89062 344.3875Q332.625 344.59064 332.51562 344.96564Q332.32812 345.52814 332.32812 346.1844L332.32812 349.45L331.28125 349.45ZM337.3125 351.98126Q336.4375 350.8719 335.82812 349.40314Q335.23438 347.91876 335.23438 346.34064Q335.23438 344.95 335.67188 343.66876Q336.20312 342.1844 337.3125 340.71564L338.0625 340.71564Q337.35938 341.9344 337.125 342.45Q336.76562 343.2625 336.5625 344.1375Q336.3125 345.23126 336.3125 346.34064Q336.3125 349.16876 338.0625 351.98126L337.3125 351.98126ZM342.96875 349.45L341.92188 349.45L341.92188 342.73126Q341.53125 343.09064 340.90625 343.46564Q340.29688 343.825 339.8125 343.9969L339.8125 342.98126Q340.6875 342.5594 341.34375 341.98126Q342.01562 341.3875 342.29688 340.825L342.96875 340.825L342.96875 349.45ZM346.98438 351.98126L346.23438 351.98126Q347.98438 349.16876 347.98438 346.34064Q347.98438 345.2469 347.73438 344.15314Q347.53125 343.27814 347.17188 342.46564Q346.9375 341.95 346.23438 340.71564L346.98438 340.71564Q348.07812 342.1844 348.60938 343.66876Q349.0625 344.95 349.0625 346.34064Q349.0625 347.91876 348.45312 349.40314Q347.84375 350.8719 346.98438 351.98126ZM353.3125 351.84064L353.3125 340.85626L355.64062 340.85626L355.64062 341.73126L354.375 341.73126L354.375 350.96564L355.64062 350.96564L355.64062 351.84064L353.3125 351.84064ZM356.20312 342.91876Q356.20312 341.9969 356.65625 341.35626Q357.125 340.71564 358.0 340.71564Q358.8125 340.71564 359.34375 341.29376Q359.875 341.8719 359.875 342.98126Q359.875 344.075 359.32812 344.66876Q358.79688 345.2469 358.01562 345.2469Q357.23438 345.2469 356.71875 344.66876Q356.20312 344.09064 356.20312 342.91876ZM358.03125 341.4344Q357.64062 341.4344 357.375 341.77814Q357.125 342.1219 357.125 343.02814Q357.125 343.85626 357.375 344.2Q357.64062 344.52814 358.03125 344.52814Q358.4375 344.52814 358.6875 344.1844Q358.95312 343.84064 358.95312 342.95Q358.95312 342.10626 358.6875 341.77814Q358.42188 341.4344 358.03125 341.4344ZM358.03125 349.7625L362.73438 340.71564L363.59375 340.71564L358.90625 349.7625L358.03125 349.7625ZM361.75 347.4344Q361.75 346.5125 362.20312 345.8719Q362.67188 345.23126 363.5625 345.23126Q364.375 345.23126 364.90625 345.8094Q365.4375 346.3719 365.4375 347.4969Q365.4375 348.59064 364.89062 349.1844Q364.35938 349.7625 363.5625 349.7625Q362.79688 349.7625 362.26562 349.1844Q361.75 348.60626 361.75 347.4344ZM363.59375 345.95Q363.1875 345.95 362.92188 346.29376Q362.67188 346.6375 362.67188 347.54376Q362.67188 348.35626 362.9375 348.7Q363.20312 349.04376 363.59375 349.04376Q363.98438 349.04376 364.25 348.7Q364.51562 348.35626 364.51562 347.45Q364.51562 346.6219 364.25 346.29376Q363.98438 345.95 363.59375 345.95ZM369.0625 351.84064L366.73438 351.84064L366.73438 350.96564L368.0 350.96564L368.0 341.73126L366.73438 341.73126L366.73438 340.85626L369.0625 340.85626L369.0625 351.84064Z" fill-rule="nonzero"/><path fill="#000000" d="M27.690638 226.30833L27.534388 225.27708Q28.159388 225.18333 28.487513 224.79271Q28.815638 224.38646 28.815638 223.65208Q28.815638 222.93333 28.534388 222.58958Q28.237513 222.23021 27.831263 222.23021Q27.471888 222.23021 27.268763 222.54271Q27.128138 222.76146 26.909388 223.62083Q26.612513 224.77708 26.409388 225.23021Q26.190638 225.66771 25.815638 225.90208Q25.440638 226.13646 24.971888 226.13646Q24.565638 226.13646 24.206263 225.94896Q23.846888 225.76146 23.612513 225.43333Q23.440638 225.18333 23.315638 224.76146Q23.190638 224.33958 23.190638 223.83958Q23.190638 223.12083 23.409388 222.57396Q23.612513 222.01146 23.971888 221.74583Q24.331263 221.48021 24.925013 221.38646L25.065638 222.41771Q24.596888 222.48021 24.331263 222.82396Q24.050013 223.15208 24.050013 223.77708Q24.050013 224.49583 24.300013 224.80833Q24.534388 225.12083 24.862513 225.12083Q25.065638 225.12083 25.221888 224.99583Q25.393763 224.85521 25.503138 224.58958Q25.565638 224.43333 25.768763 223.65208Q26.081263 222.52708 26.268763 222.08958Q26.456263 221.65208 26.815638 221.40208Q27.175013 221.15208 27.721888 221.15208Q28.253138 221.15208 28.721888 221.46458Q29.175013 221.76146 29.440638 222.33958Q29.690638 222.91771 29.690638 223.65208Q29.690638 224.87083 29.190638 225.51146Q28.675013 226.13646 27.690638 226.30833ZM22.175013 218.88646L20.956263 218.88646L20.956263 217.82396L22.175013 217.82396L22.175013 218.88646ZM29.550013 218.88646L23.331263 218.88646L23.331263 217.82396L29.550013 217.82396L29.550013 218.88646ZM30.065638 216.08958L30.221888 215.05833Q30.690638 214.99583 30.909388 214.69896Q31.206263 214.30833 31.206263 213.63646Q31.206263 212.90208 30.909388 212.51146Q30.612513 212.10521 30.096888 211.96458Q29.768763 211.87083 28.737513 211.88646Q29.550013 212.57396 29.550013 213.60521Q29.550013 214.88646 28.628138 215.58958Q27.690638 216.29271 26.409388 216.29271Q25.518763 216.29271 24.768763 215.98021Q24.003138 215.65208 23.596888 215.04271Q23.190638 214.43333 23.190638 213.60521Q23.190638 212.49583 24.081263 211.77708L23.331263 211.77708L23.331263 210.80833L28.706263 210.80833Q30.159388 210.80833 30.768763 211.10521Q31.378138 211.40208 31.721888 212.04271Q32.08126 212.68333 32.08126 213.62083Q32.08126 214.73021 31.581263 215.41771Q31.081263 216.10521 30.065638 216.08958ZM26.331263 215.21458Q27.550013 215.21458 28.112513 214.73021Q28.675013 214.24583 28.675013 213.51146Q28.675013 212.77708 28.112513 212.29271Q27.550013 211.79271 26.362513 211.79271Q25.221888 211.79271 24.643763 212.30833Q24.065638 212.80833 24.065638 213.52708Q24.065638 214.23021 24.643763 214.73021Q25.206263 215.21458 26.331263 215.21458ZM26.534388 202.62083L26.831263 201.49583Q28.221888 201.85521 28.956263 202.77708Q29.690638 203.69896 29.690638 205.04271Q29.690638 206.43333 29.128138 207.30833Q28.565638 208.18333 27.503138 208.63646Q26.425013 209.08958 25.190638 209.08958Q23.846888 209.08958 22.846888 208.57396Q21.846888 208.05833 21.331263 207.12083Q20.815638 206.16771 20.815638 205.02708Q20.815638 203.74583 21.471888 202.87083Q22.128138 201.98021 23.315638 201.63646L23.581263 202.76146Q22.643763 203.05833 22.221888 203.63646Q21.784388 204.19896 21.784388 205.05833Q21.784388 206.04271 22.268763 206.71458Q22.737513 207.37083 23.534388 207.65208Q24.331263 207.91771 25.190638 207.91771Q26.284388 207.91771 27.096888 207.60521Q27.909388 207.27708 28.315638 206.60521Q28.721888 205.93333 28.721888 205.13646Q28.721888 204.18333 28.175013 203.52708Q27.628138 202.85521 26.534388 202.62083ZM29.550013 199.90208L23.331263 199.90208L23.331263 198.94896L24.268763 198.94896Q23.612513 198.58958 23.409388 198.29271Q23.190638 197.98021 23.190638 197.60521Q23.190638 197.07396 23.518763 196.52708L24.503138 196.88646Q24.268763 197.27708 24.268763 197.65208Q24.268763 198.01146 24.487513 198.29271Q24.690638 198.55833 25.065638 198.66771Q25.628138 198.85521 26.284388 198.85521L29.550013 198.85521L29.550013 199.90208ZM32.08126 193.87083Q30.971888 194.74583 29.503138 195.35521Q28.018763 195.94896 26.440638 195.94896Q25.050013 195.94896 23.768763 195.51146Q22.284388 194.98021 20.815638 193.87083L20.815638 193.12083Q22.034388 193.82396 22.550013 194.05833Q23.362513 194.41771 24.237513 194.62083Q25.331263 194.87083 26.440638 194.87083Q29.268763 194.87083 32.08126 193.12083L32.08126 193.87083ZM29.550013 188.21458L29.550013 189.26146L22.831263 189.26146Q23.190638 189.65208 23.565638 190.27708Q23.925013 190.88646 24.096888 191.37083L23.081263 191.37083Q22.659388 190.49583 22.081263 189.83958Q21.487513 189.16771 20.925013 188.88646L20.925013 188.21458L29.550013 188.21458ZM32.08126 184.19896L32.08126 184.94896Q29.268763 183.19896 26.440638 183.19896Q25.346888 183.19896 24.253138 183.44896Q23.378138 183.65208 22.565638 184.01146Q22.050013 184.24583 20.815638 184.94896L20.815638 184.19896Q22.284388 183.10521 23.768763 182.57396Q25.050013 182.12083 26.440638 182.12083Q28.018763 182.12083 29.503138 182.73021Q30.971888 183.33958 32.08126 184.19896ZM31.940638 177.87083L20.956263 177.87083L20.956263 175.54271L21.831263 175.54271L21.831263 176.80833L31.065638 176.80833L31.065638 175.54271L31.940638 175.54271L31.940638 177.87083ZM29.550013 174.79271L20.956263 174.79271L20.956263 173.07396L27.034388 171.04271Q27.893763 170.76146 28.315638 170.63646Q27.846888 170.49583 26.940638 170.18333L20.956263 168.12083L20.956263 166.58958L29.550013 166.58958L29.550013 167.68333L22.362513 167.68333L29.550013 170.18333L29.550013 171.21458L22.237513 173.69896L29.550013 173.69896L29.550013 174.79271ZM29.550013 165.76146L20.956263 165.76146L20.956263 162.51146Q20.956263 161.66771 21.034388 161.21458Q21.143763 160.57396 21.440638 160.15208Q21.737513 159.71458 22.268763 159.46458Q22.800013 159.19896 23.440638 159.19896Q24.534388 159.19896 25.300013 159.90208Q26.050013 160.58958 26.050013 162.41771L26.050013 164.62083L29.550013 164.62083L29.550013 165.76146ZM25.050013 164.62083L25.050013 162.40208Q25.050013 161.29271 24.643763 160.83958Q24.221888 160.37083 23.471888 160.37083Q22.940638 160.37083 22.565638 160.65208Q22.175013 160.91771 22.050013 161.35521Q21.971888 161.65208 21.971888 162.41771L21.971888 164.62083L25.050013 164.62083ZM28.784388 153.82396Q29.284388 154.41771 29.487513 154.96458Q29.690638 155.49583 29.690638 156.12083Q29.690638 157.15208 29.190638 157.69896Q28.690638 158.24583 27.909388 158.24583Q27.456263 158.24583 27.081263 158.04271Q26.690638 157.83958 26.471888 157.49583Q26.237513 157.15208 26.128138 156.73021Q26.034388 156.43333 25.956263 155.79271Q25.815638 154.52708 25.596888 153.91771Q25.378138 153.91771 25.331263 153.91771Q24.675013 153.91771 24.409388 154.21458Q24.065638 154.62083 24.065638 155.41771Q24.065638 156.15208 24.331263 156.51146Q24.581263 156.87083 25.237513 157.04271L25.096888 158.07396Q24.440638 157.93333 24.034388 157.60521Q23.628138 157.27708 23.409388 156.66771Q23.190638 156.05833 23.190638 155.26146Q23.190638 154.46458 23.378138 153.96458Q23.565638 153.46458 23.846888 153.23021Q24.128138 152.99583 24.565638 152.90208Q24.831263 152.85521 25.534388 152.85521L26.940638 152.85521Q28.409388 152.85521 28.800013 152.79271Q29.190638 152.71458 29.550013 152.51146L29.550013 153.62083Q29.221888 153.77708 28.784388 153.82396ZM26.425013 153.91771Q26.659388 154.49583 26.831263 155.63646Q26.925013 156.29271 27.050013 156.55833Q27.159388 156.82396 27.378138 156.98021Q27.596888 157.12083 27.878138 157.12083Q28.300013 157.12083 28.581263 156.80833Q28.862513 156.48021 28.862513 155.87083Q28.862513 155.26146 28.596888 154.79271Q28.331263 154.30833 27.862513 154.08958Q27.503138 153.91771 26.815638 153.91771L26.425013 153.91771ZM31.940638 149.12083L31.940638 151.44896L31.065638 151.44896L31.065638 150.18333L21.831263 150.18333L21.831263 151.44896L20.956263 151.44896L20.956263 149.12083L31.940638 149.12083Z" fill-rule="nonzero"/><path fill="#000000" d="M50.925 301.8719L50.925 300.8094L54.175 300.8094L54.175 301.8719L50.925 301.8719ZM60.596874 303.4344L60.596874 304.45L54.909374 304.45Q54.909374 304.075 55.034374 303.71564Q55.253124 303.1375 55.721874 302.575Q56.20625 302.0125 57.1125 301.27814Q58.51875 300.1219 59.003124 299.45Q59.503124 298.77814 59.503124 298.1844Q59.503124 297.5594 59.05 297.1375Q58.596874 296.7 57.878124 296.7Q57.1125 296.7 56.659374 297.15314Q56.20625 297.60626 56.190624 298.41876L55.1125 298.3094Q55.221874 297.09064 55.940624 296.46564Q56.675 295.825 57.909374 295.825Q59.14375 295.825 59.8625 296.5125Q60.58125 297.2 60.58125 298.21564Q60.58125 298.73126 60.3625 299.23126Q60.159374 299.71564 59.659374 300.27814Q59.175 300.825 58.05 301.77814Q57.096874 302.575 56.815624 302.8719Q56.55 303.15314 56.378124 303.4344L60.596874 303.4344ZM62.05 300.21564Q62.05 298.6844 62.3625 297.7625Q62.675 296.825 63.284374 296.325Q63.909374 295.825 64.84688 295.825Q65.53438 295.825 66.05 296.10626Q66.58125 296.3875 66.925 296.91876Q67.26875 297.4344 67.45625 298.1844Q67.64375 298.9344 67.64375 300.21564Q67.64375 301.73126 67.33125 302.65314Q67.03438 303.575 66.40938 304.09064Q65.8 304.59064 64.84688 304.59064Q63.6125 304.59064 62.89375 303.7Q62.05 302.6375 62.05 300.21564ZM63.128124 300.21564Q63.128124 302.325 63.628124 303.02814Q64.12813 303.73126 64.84688 303.73126Q65.58125 303.73126 66.06563 303.02814Q66.56563 302.325 66.56563 300.21564Q66.56563 298.09064 66.06563 297.40314Q65.58125 296.7 64.83125 296.7Q64.1125 296.7 63.675 297.3094Q63.128124 298.09064 63.128124 300.21564ZM69.05 300.21564Q69.05 298.6844 69.3625 297.7625Q69.675 296.825 70.28438 296.325Q70.90938 295.825 71.84688 295.825Q72.53438 295.825 73.05 296.10626Q73.58125 296.3875 73.925 296.91876Q74.26875 297.4344 74.45625 298.1844Q74.64375 298.9344 74.64375 300.21564Q74.64375 301.73126 74.33125 302.65314Q74.03438 303.575 73.40938 304.09064Q72.8 304.59064 71.84688 304.59064Q70.6125 304.59064 69.89375 303.7Q69.05 302.6375 69.05 300.21564ZM70.12813 300.21564Q70.12813 302.325 70.62813 303.02814Q71.12813 303.73126 71.84688 303.73126Q72.58125 303.73126 73.06563 303.02814Q73.56563 302.325 73.56563 300.21564Q73.56563 298.09064 73.06563 297.40314Q72.58125 296.7 71.83125 296.7Q71.1125 296.7 70.675 297.3094Q70.12813 298.09064 70.12813 300.21564ZM76.05 300.21564Q76.05 298.6844 76.3625 297.7625Q76.675 296.825 77.28438 296.325Q77.90938 295.825 78.84688 295.825Q79.53438 295.825 80.05 296.10626Q80.58125 296.3875 80.925 296.91876Q81.26875 297.4344 81.45625 298.1844Q81.64375 298.9344 81.64375 300.21564Q81.64375 301.73126 81.33125 302.65314Q81.03438 303.575 80.40938 304.09064Q79.8 304.59064 78.84688 304.59064Q77.6125 304.59064 76.89375 303.7Q76.05 302.6375 76.05 300.21564ZM77.12813 300.21564Q77.12813 302.325 77.62813 303.02814Q78.12813 303.73126 78.84688 303.73126Q79.58125 303.73126 80.06563 303.02814Q80.56563 302.325 80.56563 300.21564Q80.56563 298.09064 80.06563 297.40314Q79.58125 296.7 78.83125 296.7Q78.1125 296.7 77.675 297.3094Q77.12813 298.09064 77.12813 300.21564Z" fill-rule="nonzero"/><path fill="#000000" d="M50.925 242.23854L50.925 241.17604L54.175 241.17604L54.175 242.23854L50.925 242.23854ZM59.01875 244.81667L57.971874 244.81667L57.971874 238.09792Q57.58125 238.45729 56.95625 238.83229Q56.346874 239.19167 55.8625 239.36354L55.8625 238.34792Q56.7375 237.92604 57.39375 237.34792Q58.065624 236.75417 58.346874 236.19167L59.01875 236.19167L59.01875 244.81667ZM62.05 242.56667L63.159374 242.47292Q63.284374 243.28542 63.721874 243.69167Q64.175 244.09792 64.81563 244.09792Q65.56563 244.09792 66.09688 243.51979Q66.62813 242.94167 66.62813 242.00417Q66.62813 241.09792 66.1125 240.58229Q65.6125 240.05104 64.78438 240.05104Q64.28438 240.05104 63.8625 240.28542Q63.45625 240.51979 63.221874 240.87917L62.2375 240.75417L63.065624 236.34792L67.34688 236.34792L67.34688 237.34792L63.909374 237.34792L63.45625 239.66042Q64.22188 239.11354 65.06563 239.11354Q66.19063 239.11354 66.95625 239.89479Q67.7375 240.67604 67.7375 241.91042Q67.7375 243.06667 67.06563 243.92604Q66.2375 244.95729 64.81563 244.95729Q63.64375 244.95729 62.89375 244.30104Q62.159374 243.64479 62.05 242.56667ZM69.05 240.58229Q69.05 239.05104 69.3625 238.12917Q69.675 237.19167 70.28438 236.69167Q70.90938 236.19167 71.84688 236.19167Q72.53438 236.19167 73.05 236.47292Q73.58125 236.75417 73.925 237.28542Q74.26875 237.80104 74.45625 238.55104Q74.64375 239.30104 74.64375 240.58229Q74.64375 242.09792 74.33125 243.01979Q74.03438 243.94167 73.40938 244.45729Q72.8 244.95729 71.84688 244.95729Q70.6125 244.95729 69.89375 244.06667Q69.05 243.00417 69.05 240.58229ZM70.12813 240.58229Q70.12813 242.69167 70.62813 243.39479Q71.12813 244.09792 71.84688 244.09792Q72.58125 244.09792 73.06563 243.39479Q73.56563 242.69167 73.56563 240.58229Q73.56563 238.45729 73.06563 237.76979Q72.58125 237.06667 71.83125 237.06667Q71.1125 237.06667 70.675 237.67604Q70.12813 238.45729 70.12813 240.58229ZM76.05 240.58229Q76.05 239.05104 76.3625 238.12917Q76.675 237.19167 77.28438 236.69167Q77.90938 236.19167 78.84688 236.19167Q79.53438 236.19167 80.05 236.47292Q80.58125 236.75417 80.925 237.28542Q81.26875 237.80104 81.45625 238.55104Q81.64375 239.30104 81.64375 240.58229Q81.64375 242.09792 81.33125 243.01979Q81.03438 243.94167 80.40938 244.45729Q79.8 244.95729 78.84688 244.95729Q77.6125 244.95729 76.89375 244.06667Q76.05 243.00417 76.05 240.58229ZM77.12813 240.58229Q77.12813 242.69167 77.62813 243.39479Q78.12813 244.09792 78.84688 244.09792Q79.58125 244.09792 80.06563 243.39479Q80.56563 242.69167 80.56563 240.58229Q80.56563 238.45729 80.06563 237.76979Q79.58125 237.06667 78.83125 237.06667Q78.1125 237.06667 77.675 237.67604Q77.12813 238.45729 77.12813 240.58229Z" fill-rule="nonzero"/><path fill="#000000" d="M50.925 182.60521L50.925 181.54271L54.175 181.54271L54.175 182.60521L50.925 182.60521ZM59.01875 185.18333L57.971874 185.18333L57.971874 178.46458Q57.58125 178.82396 56.95625 179.19896Q56.346874 179.55833 55.8625 179.73021L55.8625 178.71458Q56.7375 178.29271 57.39375 177.71458Q58.065624 177.12083 58.346874 176.55833L59.01875 176.55833L59.01875 185.18333ZM62.05 180.94896Q62.05 179.41771 62.3625 178.49583Q62.675 177.55833 63.284374 177.05833Q63.909374 176.55833 64.84688 176.55833Q65.53438 176.55833 66.05 176.83958Q66.58125 177.12083 66.925 177.65208Q67.26875 178.16771 67.45625 178.91771Q67.64375 179.66771 67.64375 180.94896Q67.64375 182.46458 67.33125 183.38646Q67.03438 184.30833 66.40938 184.82396Q65.8 185.32396 64.84688 185.32396Q63.6125 185.32396 62.89375 184.43333Q62.05 183.37083 62.05 180.94896ZM63.128124 180.94896Q63.128124 183.05833 63.628124 183.76146Q64.12813 184.46458 64.84688 184.46458Q65.58125 184.46458 66.06563 183.76146Q66.56563 183.05833 66.56563 180.94896Q66.56563 178.82396 66.06563 178.13646Q65.58125 177.43333 64.83125 177.43333Q64.1125 177.43333 63.675 178.04271Q63.128124 178.82396 63.128124 180.94896ZM69.05 180.94896Q69.05 179.41771 69.3625 178.49583Q69.675 177.55833 70.28438 177.05833Q70.90938 176.55833 71.84688 176.55833Q72.53438 176.55833 73.05 176.83958Q73.58125 177.12083 73.925 177.65208Q74.26875 178.16771 74.45625 178.91771Q74.64375 179.66771 74.64375 180.94896Q74.64375 182.46458 74.33125 183.38646Q74.03438 184.30833 73.40938 184.82396Q72.8 185.32396 71.84688 185.32396Q70.6125 185.32396 69.89375 184.43333Q69.05 183.37083 69.05 180.94896ZM70.12813 180.94896Q70.12813 183.05833 70.62813 183.76146Q71.12813 184.46458 71.84688 184.46458Q72.58125 184.46458 73.06563 183.76146Q73.56563 183.05833 73.56563 180.94896Q73.56563 178.82396 73.06563 178.13646Q72.58125 177.43333 71.83125 177.43333Q71.1125 177.43333 70.675 178.04271Q70.12813 178.82396 70.12813 180.94896ZM76.05 180.94896Q76.05 179.41771 76.3625 178.49583Q76.675 177.55833 77.28438 177.05833Q77.90938 176.55833 78.84688 176.55833Q79.53438 176.55833 80.05 176.83958Q80.58125 177.12083 80.925 177.65208Q81.26875 178.16771 81.45625 178.91771Q81.64375 179.66771 81.64375 180.94896Q81.64375 182.46458 81.33125 183.38646Q81.03438 184.30833 80.40938 184.82396Q79.8 185.32396 78.84688 185.32396Q77.6125 185.32396 76.89375 184.43333Q76.05 183.37083 76.05 180.94896ZM77.12813 180.94896Q77.12813 183.05833 77.62813 183.76146Q78.12813 184.46458 78.84688 184.46458Q79.58125 184.46458 80.06563 183.76146Q80.56563 183.05833 80.56563 180.94896Q80.56563 178.82396 80.06563 178.13646Q79.58125 177.43333 78.83125 177.43333Q78.1125 177.43333 77.675 178.04271Q77.12813 178.82396 77.12813 180.94896Z" fill-rule="nonzero"/><path fill="#000000" d="M57.925 122.97188L57.925 121.90938L61.175 121.90938L61.175 122.97188L57.925 122.97188ZM62.05 123.3L63.159374 123.20625Q63.284374 124.01875 63.721874 124.425Q64.175 124.83125 64.81563 124.83125Q65.56563 124.83125 66.09688 124.25313Q66.62813 123.675 66.62813 122.7375Q66.62813 121.83125 66.1125 121.31563Q65.6125 120.78438 64.78438 120.78438Q64.28438 120.78438 63.8625 121.01875Q63.45625 121.25313 63.221874 121.6125L62.2375 121.4875L63.065624 117.08125L67.34688 117.08125L67.34688 118.08125L63.909374 118.08125L63.45625 120.39375Q64.22188 119.84688 65.06563 119.84688Q66.19063 119.84688 66.95625 120.62813Q67.7375 121.40938 67.7375 122.64375Q67.7375 123.8 67.06563 124.65938Q66.2375 125.69063 64.81563 125.69063Q63.64375 125.69063 62.89375 125.03438Q62.159374 124.37813 62.05 123.3ZM69.05 121.31563Q69.05 119.78438 69.3625 118.8625Q69.675 117.925 70.28438 117.425Q70.90938 116.925 71.84688 116.925Q72.53438 116.925 73.05 117.20625Q73.58125 117.4875 73.925 118.01875Q74.26875 118.53438 74.45625 119.28438Q74.64375 120.03438 74.64375 121.31563Q74.64375 122.83125 74.33125 123.75313Q74.03438 124.675 73.40938 125.19063Q72.8 125.69063 71.84688 125.69063Q70.6125 125.69063 69.89375 124.8Q69.05 123.7375 69.05 121.31563ZM70.12813 121.31563Q70.12813 123.425 70.62813 124.12813Q71.12813 124.83125 71.84688 124.83125Q72.58125 124.83125 73.06563 124.12813Q73.56563 123.425 73.56563 121.31563Q73.56563 119.19063 73.06563 118.50313Q72.58125 117.8 71.83125 117.8Q71.1125 117.8 70.675 118.40938Q70.12813 119.19063 70.12813 121.31563ZM76.05 121.31563Q76.05 119.78438 76.3625 118.8625Q76.675 117.925 77.28438 117.425Q77.90938 116.925 78.84688 116.925Q79.53438 116.925 80.05 117.20625Q80.58125 117.4875 80.925 118.01875Q81.26875 118.53438 81.45625 119.28438Q81.64375 120.03438 81.64375 121.31563Q81.64375 122.83125 81.33125 123.75313Q81.03438 124.675 80.40938 125.19063Q79.8 125.69063 78.84688 125.69063Q77.6125 125.69063 76.89375 124.8Q76.05 123.7375 76.05 121.31563ZM77.12813 121.31563Q77.12813 123.425 77.62813 124.12813Q78.12813 124.83125 78.84688 124.83125Q79.58125 124.83125 80.06563 124.12813Q80.56563 123.425 80.56563 121.31563Q80.56563 119.19063 80.06563 118.50313Q79.58125 117.8 78.83125 117.8Q78.1125 117.8 77.675 118.40938Q77.12813 119.19063 77.12813 121.31563Z" fill-rule="nonzero"/><path fill="#000000" d="M76.05 61.68229Q76.05 60.15104 76.3625 59.229164Q76.675 58.291664 77.28438 57.791664Q77.90938 57.291664 78.84688 57.291664Q79.53438 57.291664 80.05 57.572914Q80.58125 57.854164 80.925 58.385414Q81.26875 58.90104 81.45625 59.65104Q81.64375 60.40104 81.64375 61.68229Q81.64375 63.197914 81.33125 64.11979Q81.03438 65.041664 80.40938 65.55729Q79.8 66.05729 78.84688 66.05729Q77.6125 66.05729 76.89375 65.166664Q76.05 64.104164 76.05 61.68229ZM77.12813 61.68229Q77.12813 63.791664 77.62813 64.49479Q78.12813 65.197914 78.84688 65.197914Q79.58125 65.197914 80.06563 64.49479Q80.56563 63.791664 80.56563 61.68229Q80.56563 59.55729 80.06563 58.86979Q79.58125 58.166664 78.83125 58.166664Q78.1125 58.166664 77.675 58.77604Q77.12813 59.55729 77.12813 61.68229Z" fill-rule="nonzero"/><path fill="#000000" d="M111.53958 314.8719L111.53958 313.8094L114.78958 313.8094L114.78958 314.8719L111.53958 314.8719ZM115.66458 315.2L116.77396 315.10626Q116.89896 315.91876 117.33646 316.325Q117.78958 316.73126 118.43021 316.73126Q119.18021 316.73126 119.71146 316.15314Q120.24271 315.575 120.24271 314.6375Q120.24271 313.73126 119.72708 313.21564Q119.22708 312.6844 118.39896 312.6844Q117.89896 312.6844 117.47708 312.91876Q117.07083 313.15314 116.83646 313.5125L115.85208 313.3875L116.68021 308.98126L120.96146 308.98126L120.96146 309.98126L117.52396 309.98126L117.07083 312.29376Q117.83646 311.7469 118.68021 311.7469Q119.80521 311.7469 120.57083 312.52814Q121.35208 313.3094 121.35208 314.54376Q121.35208 315.7 120.68021 316.5594Q119.85208 317.59064 118.43021 317.59064Q117.25833 317.59064 116.50833 316.9344Q115.77396 316.27814 115.66458 315.2ZM123.25833 317.45L123.25833 316.2469L124.46146 316.2469L124.46146 317.45L123.25833 317.45ZM125.66458 313.21564Q125.66458 311.6844 125.97708 310.7625Q126.28958 309.825 126.89896 309.325Q127.52396 308.825 128.46146 308.825Q129.14896 308.825 129.66458 309.10626Q130.19583 309.3875 130.53958 309.91876Q130.88333 310.4344 131.07083 311.1844Q131.25833 311.9344 131.25833 313.21564Q131.25833 314.73126 130.94583 315.65314Q130.64896 316.575 130.02396 317.09064Q129.41458 317.59064 128.46146 317.59064Q127.22708 317.59064 126.50833 316.7Q125.66458 315.6375 125.66458 313.21564ZM126.74271 313.21564Q126.74271 315.325 127.24271 316.02814Q127.74271 316.73126 128.46146 316.73126Q129.19583 316.73126 129.6802 316.02814Q130.1802 315.325 130.1802 313.21564Q130.1802 311.09064 129.6802 310.40314Q129.19583 309.7 128.44583 309.7Q127.72708 309.7 127.28958 310.3094Q126.74271 311.09064 126.74271 313.21564ZM132.66458 313.21564Q132.66458 311.6844 132.97708 310.7625Q133.28958 309.825 133.89896 309.325Q134.52396 308.825 135.46146 308.825Q136.14896 308.825 136.66458 309.10626Q137.19583 309.3875 137.53958 309.91876Q137.88333 310.4344 138.07083 311.1844Q138.25833 311.9344 138.25833 313.21564Q138.25833 314.73126 137.94583 315.65314Q137.64896 316.575 137.02396 317.09064Q136.41458 317.59064 135.46146 317.59064Q134.22708 317.59064 133.50833 316.7Q132.66458 315.6375 132.66458 313.21564ZM133.7427 313.21564Q133.7427 315.325 134.2427 316.02814Q134.7427 316.73126 135.46146 316.73126Q136.19583 316.73126 136.6802 316.02814Q137.1802 315.325 137.1802 313.21564Q137.1802 311.09064 136.6802 310.40314Q136.19583 309.7 135.44583 309.7Q134.72708 309.7 134.28958 310.3094Q133.7427 311.09064 133.7427 313.21564ZM140.1177 317.45L140.1177 308.85626L146.32083 308.85626L146.32083 309.8719L141.25833 309.8719L141.25833 312.4969L146.00833 312.4969L146.00833 313.5125L141.25833 313.5125L141.25833 316.4344L146.52396 316.4344L146.52396 317.45L140.1177 317.45ZM150.16458 316.0594L150.16458 313.7L147.83646 313.7L147.83646 312.71564L150.16458 312.71564L150.16458 310.3875L151.16458 310.3875L151.16458 312.71564L153.50833 312.71564L153.50833 313.7L151.16458 313.7L151.16458 316.0594L150.16458 316.0594ZM154.66458 313.21564Q154.66458 311.6844 154.97708 310.7625Q155.28958 309.825 155.89896 309.325Q156.52396 308.825 157.46146 308.825Q158.14896 308.825 158.66458 309.10626Q159.19583 309.3875 159.53958 309.91876Q159.88333 310.4344 160.07083 311.1844Q160.25833 311.9344 160.25833 313.21564Q160.25833 314.73126 159.94583 315.65314Q159.64896 316.575 159.02396 317.09064Q158.41458 317.59064 157.46146 317.59064Q156.22708 317.59064 155.50833 316.7Q154.66458 315.6375 154.66458 313.21564ZM155.7427 313.21564Q155.7427 315.325 156.2427 316.02814Q156.7427 316.73126 157.46146 316.73126Q158.19583 316.73126 158.6802 316.02814Q159.1802 315.325 159.1802 313.21564Q159.1802 311.09064 158.6802 310.40314Q158.19583 309.7 157.44583 309.7Q156.72708 309.7 156.28958 310.3094Q155.7427 311.09064 155.7427 313.21564ZM161.66458 313.21564Q161.66458 311.6844 161.97708 310.7625Q162.28958 309.825 162.89896 309.325Q163.52396 308.825 164.46146 308.825Q165.14896 308.825 165.66458 309.10626Q166.19583 309.3875 166.53958 309.91876Q166.88333 310.4344 167.07083 311.1844Q167.25833 311.9344 167.25833 313.21564Q167.25833 314.73126 166.94583 315.65314Q166.64896 316.575 166.02396 317.09064Q165.41458 317.59064 164.46146 317.59064Q163.22708 317.59064 162.50833 316.7Q161.66458 315.6375 161.66458 313.21564ZM162.7427 313.21564Q162.7427 315.325 163.2427 316.02814Q163.7427 316.73126 164.46146 316.73126Q165.19583 316.73126 165.6802 316.02814Q166.1802 315.325 166.1802 313.21564Q166.1802 311.09064 165.6802 310.40314Q165.19583 309.7 164.44583 309.7Q163.72708 309.7 163.28958 310.3094Q162.7427 311.09064 162.7427 313.21564Z" fill-rule="nonzero"/><path fill="#000000" d="M199.89668 314.8719L199.89668 313.8094L203.14668 313.8094L203.14668 314.8719L199.89668 314.8719ZM207.39668 317.45L207.39668 315.3875L203.67793 315.3875L203.67793 314.41876L207.59981 308.85626L208.45918 308.85626L208.45918 314.41876L209.61543 314.41876L209.61543 315.3875L208.45918 315.3875L208.45918 317.45L207.39668 317.45ZM207.39668 314.41876L207.39668 310.5594L204.70918 314.41876L207.39668 314.41876ZM211.61543 317.45L211.61543 316.2469L212.81856 316.2469L212.81856 317.45L211.61543 317.45ZM214.02168 313.21564Q214.02168 311.6844 214.33418 310.7625Q214.64668 309.825 215.25606 309.325Q215.88106 308.825 216.81856 308.825Q217.50606 308.825 218.02168 309.10626Q218.55293 309.3875 218.89668 309.91876Q219.24043 310.4344 219.42793 311.1844Q219.61543 311.9344 219.61543 313.21564Q219.61543 314.73126 219.30293 315.65314Q219.00606 316.575 218.38106 317.09064Q217.77168 317.59064 216.81856 317.59064Q215.58418 317.59064 214.86543 316.7Q214.02168 315.6375 214.02168 313.21564ZM215.09981 313.21564Q215.09981 315.325 215.59981 316.02814Q216.09981 316.73126 216.81856 316.73126Q217.55293 316.73126 218.03731 316.02814Q218.53731 315.325 218.53731 313.21564Q218.53731 311.09064 218.03731 310.40314Q217.55293 309.7 216.80293 309.7Q216.08418 309.7 215.64668 310.3094Q215.09981 311.09064 215.09981 313.21564ZM221.02168 313.21564Q221.02168 311.6844 221.33418 310.7625Q221.64668 309.825 222.25606 309.325Q222.88106 308.825 223.81856 308.825Q224.50606 308.825 225.02168 309.10626Q225.55293 309.3875 225.89668 309.91876Q226.24043 310.4344 226.42793 311.1844Q226.61543 311.9344 226.61543 313.21564Q226.61543 314.73126 226.30293 315.65314Q226.00606 316.575 225.38106 317.09064Q224.77168 317.59064 223.81856 317.59064Q222.58418 317.59064 221.86543 316.7Q221.02168 315.6375 221.02168 313.21564ZM222.09981 313.21564Q222.09981 315.325 222.59981 316.02814Q223.09981 316.73126 223.81856 316.73126Q224.55293 316.73126 225.03731 316.02814Q225.53731 315.325 225.53731 313.21564Q225.53731 311.09064 225.03731 310.40314Q224.55293 309.7 223.80293 309.7Q223.08418 309.7 222.64668 310.3094Q222.09981 311.09064 222.09981 313.21564ZM228.47481 317.45L228.47481 308.85626L234.67793 308.85626L234.67793 309.8719L229.61543 309.8719L229.61543 312.4969L234.36543 312.4969L234.36543 313.5125L229.61543 313.5125L229.61543 316.4344L234.88106 316.4344L234.88106 317.45L228.47481 317.45ZM238.52168 316.0594L238.52168 313.7L236.19356 313.7L236.19356 312.71564L238.52168 312.71564L238.52168 310.3875L239.52168 310.3875L239.52168 312.71564L241.86543 312.71564L241.86543 313.7L239.52168 313.7L239.52168 316.0594L238.52168 316.0594ZM243.02168 313.21564Q243.02168 311.6844 243.33418 310.7625Q243.64668 309.825 244.25606 309.325Q244.88106 308.825 245.81856 308.825Q246.50606 308.825 247.02168 309.10626Q247.55293 309.3875 247.89668 309.91876Q248.24043 310.4344 248.42793 311.1844Q248.61543 311.9344 248.61543 313.21564Q248.61543 314.73126 248.30293 315.65314Q248.00606 316.575 247.38106 317.09064Q246.77168 317.59064 245.81856 317.59064Q244.58418 317.59064 243.86543 316.7Q243.02168 315.6375 243.02168 313.21564ZM244.09981 313.21564Q244.09981 315.325 244.59981 316.02814Q245.09981 316.73126 245.81856 316.73126Q246.55293 316.73126 247.03731 316.02814Q247.53731 315.325 247.53731 313.21564Q247.53731 311.09064 247.03731 310.40314Q246.55293 309.7 245.80293 309.7Q245.08418 309.7 244.64668 310.3094Q244.09981 311.09064 244.09981 313.21564ZM250.02168 313.21564Q250.02168 311.6844 250.33418 310.7625Q250.64668 309.825 251.25606 309.325Q251.88106 308.825 252.81856 308.825Q253.50606 308.825 254.02168 309.10626Q254.55293 309.3875 254.89668 309.91876Q255.24043 310.4344 255.42793 311.1844Q255.61543 311.9344 255.61543 313.21564Q255.61543 314.73126 255.30293 315.65314Q255.00606 316.575 254.38106 317.09064Q253.77168 317.59064 252.81856 317.59064Q251.58418 317.59064 250.86543 316.7Q250.02168 315.6375 250.02168 313.21564ZM251.09981 313.21564Q251.09981 315.325 251.59981 316.02814Q252.09981 316.73126 252.81856 316.73126Q253.55293 316.73126 254.03731 316.02814Q254.53731 315.325 254.53731 313.21564Q254.53731 311.09064 254.03731 310.40314Q253.55293 309.7 252.80293 309.7Q252.08418 309.7 251.64668 310.3094Q251.09981 311.09064 251.09981 313.21564Z" fill-rule="nonzero"/><path fill="#000000" d="M288.25378 314.8719L288.25378 313.8094L291.50378 313.8094L291.50378 314.8719L288.25378 314.8719ZM292.37878 315.1844L293.44128 315.04376Q293.61316 315.9344 294.05066 316.34064Q294.48816 316.73126 295.11316 316.73126Q295.86316 316.73126 296.37878 316.21564Q296.8944 315.7 296.8944 314.9344Q296.8944 314.21564 296.41003 313.7469Q295.94128 313.2625 295.2069 313.2625Q294.91003 313.2625 294.4569 313.3875L294.5819 312.45Q294.69128 312.46564 294.75378 312.46564Q295.42566 312.46564 295.9569 312.1219Q296.50378 311.7625 296.50378 311.02814Q296.50378 310.45 296.11316 310.075Q295.72253 309.6844 295.09753 309.6844Q294.48816 309.6844 294.06628 310.075Q293.66003 310.46564 293.55066 311.23126L292.48816 311.04376Q292.67566 309.9969 293.36316 309.41876Q294.05066 308.825 295.06628 308.825Q295.7694 308.825 296.36316 309.1375Q296.9569 309.4344 297.2694 309.95Q297.5819 310.46564 297.5819 311.0594Q297.5819 311.60626 297.28503 312.075Q296.98816 312.52814 296.41003 312.79376Q297.16003 312.96564 297.5819 313.52814Q298.00378 314.075 298.00378 314.91876Q298.00378 316.04376 297.17566 316.825Q296.36316 317.60626 295.11316 317.60626Q293.98816 317.60626 293.23816 316.9344Q292.48816 316.2469 292.37878 315.1844ZM299.97253 317.45L299.97253 316.2469L301.17566 316.2469L301.17566 317.45L299.97253 317.45ZM302.37878 313.21564Q302.37878 311.6844 302.69128 310.7625Q303.00378 309.825 303.61316 309.325Q304.23816 308.825 305.17566 308.825Q305.86316 308.825 306.37878 309.10626Q306.91003 309.3875 307.25378 309.91876Q307.59753 310.4344 307.78503 311.1844Q307.97253 311.9344 307.97253 313.21564Q307.97253 314.73126 307.66003 315.65314Q307.36316 316.575 306.73816 317.09064Q306.12878 317.59064 305.17566 317.59064Q303.94128 317.59064 303.22253 316.7Q302.37878 315.6375 302.37878 313.21564ZM303.4569 313.21564Q303.4569 315.325 303.9569 316.02814Q304.4569 316.73126 305.17566 316.73126Q305.91003 316.73126 306.3944 316.02814Q306.8944 315.325 306.8944 313.21564Q306.8944 311.09064 306.3944 310.40314Q305.91003 309.7 305.16003 309.7Q304.44128 309.7 304.00378 310.3094Q303.4569 311.09064 303.4569 313.21564ZM309.37878 313.21564Q309.37878 311.6844 309.69128 310.7625Q310.00378 309.825 310.61316 309.325Q311.23816 308.825 312.17566 308.825Q312.86316 308.825 313.37878 309.10626Q313.91003 309.3875 314.25378 309.91876Q314.59753 310.4344 314.78503 311.1844Q314.97253 311.9344 314.97253 313.21564Q314.97253 314.73126 314.66003 315.65314Q314.36316 316.575 313.73816 317.09064Q313.12878 317.59064 312.17566 317.59064Q310.94128 317.59064 310.22253 316.7Q309.37878 315.6375 309.37878 313.21564ZM310.4569 313.21564Q310.4569 315.325 310.9569 316.02814Q311.4569 316.73126 312.17566 316.73126Q312.91003 316.73126 313.3944 316.02814Q313.8944 315.325 313.8944 313.21564Q313.8944 311.09064 313.3944 310.40314Q312.91003 309.7 312.16003 309.7Q311.44128 309.7 311.00378 310.3094Q310.4569 311.09064 310.4569 313.21564ZM316.8319 317.45L316.8319 308.85626L323.03503 308.85626L323.03503 309.8719L317.97253 309.8719L317.97253 312.4969L322.72253 312.4969L322.72253 313.5125L317.97253 313.5125L317.97253 316.4344L323.23816 316.4344L323.23816 317.45L316.8319 317.45ZM326.87878 316.0594L326.87878 313.7L324.55066 313.7L324.55066 312.71564L326.87878 312.71564L326.87878 310.3875L327.87878 310.3875L327.87878 312.71564L330.22253 312.71564L330.22253 313.7L327.87878 313.7L327.87878 316.0594L326.87878 316.0594ZM331.37878 313.21564Q331.37878 311.6844 331.69128 310.7625Q332.00378 309.825 332.61316 309.325Q333.23816 308.825 334.17566 308.825Q334.86316 308.825 335.37878 309.10626Q335.91003 309.3875 336.25378 309.91876Q336.59753 310.4344 336.78503 311.1844Q336.97253 311.9344 336.97253 313.21564Q336.97253 314.73126 336.66003 315.65314Q336.36316 316.575 335.73816 317.09064Q335.12878 317.59064 334.17566 317.59064Q332.94128 317.59064 332.22253 316.7Q331.37878 315.6375 331.37878 313.21564ZM332.4569 313.21564Q332.4569 315.325 332.9569 316.02814Q333.4569 316.73126 334.17566 316.73126Q334.91003 316.73126 335.3944 316.02814Q335.8944 315.325 335.8944 313.21564Q335.8944 311.09064 335.3944 310.40314Q334.91003 309.7 334.16003 309.7Q333.44128 309.7 333.00378 310.3094Q332.4569 311.09064 332.4569 313.21564ZM338.37878 313.21564Q338.37878 311.6844 338.69128 310.7625Q339.00378 309.825 339.61316 309.325Q340.23816 308.825 341.17566 308.825Q341.86316 308.825 342.37878 309.10626Q342.91003 309.3875 343.25378 309.91876Q343.59753 310.4344 343.78503 311.1844Q343.97253 311.9344 343.97253 313.21564Q343.97253 314.73126 343.66003 315.65314Q343.36316 316.575 342.73816 317.09064Q342.12878 317.59064 341.17566 317.59064Q339.94128 317.59064 339.22253 316.7Q338.37878 315.6375 338.37878 313.21564ZM339.4569 313.21564Q339.4569 315.325 339.9569 316.02814Q340.4569 316.73126 341.17566 316.73126Q341.91003 316.73126 342.3944 316.02814Q342.8944 315.325 342.8944 313.21564Q342.8944 311.09064 342.3944 310.40314Q341.91003 309.7 341.16003 309.7Q340.44128 309.7 340.00378 310.3094Q339.4569 311.09064 339.4569 313.21564Z" fill-rule="nonzero"/><path fill="#000000" d="M376.6109 314.8719L376.6109 313.8094L379.8609 313.8094L379.8609 314.8719L376.6109 314.8719ZM386.28278 316.4344L386.28278 317.45L380.59528 317.45Q380.59528 317.075 380.72028 316.71564Q380.93903 316.1375 381.40778 315.575Q381.89215 315.0125 382.7984 314.27814Q384.20465 313.1219 384.68903 312.45Q385.18903 311.77814 385.18903 311.1844Q385.18903 310.5594 384.7359 310.1375Q384.28278 309.7 383.56403 309.7Q382.7984 309.7 382.34528 310.15314Q381.89215 310.60626 381.87653 311.41876L380.7984 311.3094Q380.90778 310.09064 381.62653 309.46564Q382.3609 308.825 383.59528 308.825Q384.82965 308.825 385.5484 309.5125Q386.26715 310.2 386.26715 311.21564Q386.26715 311.73126 386.0484 312.23126Q385.84528 312.71564 385.34528 313.27814Q384.8609 313.825 383.7359 314.77814Q382.78278 315.575 382.50153 315.8719Q382.2359 316.15314 382.06403 316.4344L386.28278 316.4344ZM388.32965 317.45L388.32965 316.2469L389.53278 316.2469L389.53278 317.45L388.32965 317.45ZM390.7359 313.21564Q390.7359 311.6844 391.0484 310.7625Q391.3609 309.825 391.97028 309.325Q392.59528 308.825 393.53278 308.825Q394.22028 308.825 394.7359 309.10626Q395.26715 309.3875 395.6109 309.91876Q395.95465 310.4344 396.14215 311.1844Q396.32965 311.9344 396.32965 313.21564Q396.32965 314.73126 396.01715 315.65314Q395.72028 316.575 395.09528 317.09064Q394.4859 317.59064 393.53278 317.59064Q392.2984 317.59064 391.57965 316.7Q390.7359 315.6375 390.7359 313.21564ZM391.81403 313.21564Q391.81403 315.325 392.31403 316.02814Q392.81403 316.73126 393.53278 316.73126Q394.26715 316.73126 394.75153 316.02814Q395.25153 315.325 395.25153 313.21564Q395.25153 311.09064 394.75153 310.40314Q394.26715 309.7 393.51715 309.7Q392.7984 309.7 392.3609 310.3094Q391.81403 311.09064 391.81403 313.21564ZM397.7359 313.21564Q397.7359 311.6844 398.0484 310.7625Q398.3609 309.825 398.97028 309.325Q399.59528 308.825 400.53278 308.825Q401.22028 308.825 401.7359 309.10626Q402.26715 309.3875 402.6109 309.91876Q402.95465 310.4344 403.14215 311.1844Q403.32965 311.9344 403.32965 313.21564Q403.32965 314.73126 403.01715 315.65314Q402.72028 316.575 402.09528 317.09064Q401.4859 317.59064 400.53278 317.59064Q399.2984 317.59064 398.57965 316.7Q397.7359 315.6375 397.7359 313.21564ZM398.81403 313.21564Q398.81403 315.325 399.31403 316.02814Q399.81403 316.73126 400.53278 316.73126Q401.26715 316.73126 401.75153 316.02814Q402.25153 315.325 402.25153 313.21564Q402.25153 311.09064 401.75153 310.40314Q401.26715 309.7 400.51715 309.7Q399.7984 309.7 399.3609 310.3094Q398.81403 311.09064 398.81403 313.21564ZM405.18903 317.45L405.18903 308.85626L411.39215 308.85626L411.39215 309.8719L406.32965 309.8719L406.32965 312.4969L411.07965 312.4969L411.07965 313.5125L406.32965 313.5125L406.32965 316.4344L411.59528 316.4344L411.59528 317.45L405.18903 317.45ZM415.2359 316.0594L415.2359 313.7L412.90778 313.7L412.90778 312.71564L415.2359 312.71564L415.2359 310.3875L416.2359 310.3875L416.2359 312.71564L418.57965 312.71564L418.57965 313.7L416.2359 313.7L416.2359 316.0594L415.2359 316.0594ZM419.7359 313.21564Q419.7359 311.6844 420.0484 310.7625Q420.3609 309.825 420.97028 309.325Q421.59528 308.825 422.53278 308.825Q423.22028 308.825 423.7359 309.10626Q424.26715 309.3875 424.6109 309.91876Q424.95465 310.4344 425.14215 311.1844Q425.32965 311.9344 425.32965 313.21564Q425.32965 314.73126 425.01715 315.65314Q424.72028 316.575 424.09528 317.09064Q423.4859 317.59064 422.53278 317.59064Q421.2984 317.59064 420.57965 316.7Q419.7359 315.6375 419.7359 313.21564ZM420.81403 313.21564Q420.81403 315.325 421.31403 316.02814Q421.81403 316.73126 422.53278 316.73126Q423.26715 316.73126 423.75153 316.02814Q424.25153 315.325 424.25153 313.21564Q424.25153 311.09064 423.75153 310.40314Q423.26715 309.7 422.51715 309.7Q421.7984 309.7 421.3609 310.3094Q420.81403 311.09064 420.81403 313.21564ZM426.7359 313.21564Q426.7359 311.6844 427.0484 310.7625Q427.3609 309.825 427.97028 309.325Q428.59528 308.825 429.53278 308.825Q430.22028 308.825 430.7359 309.10626Q431.26715 309.3875 431.6109 309.91876Q431.95465 310.4344 432.14215 311.1844Q432.32965 311.9344 432.32965 313.21564Q432.32965 314.73126 432.01715 315.65314Q431.72028 316.575 431.09528 317.09064Q430.4859 317.59064 429.53278 317.59064Q428.2984 317.59064 427.57965 316.7Q426.7359 315.6375 426.7359 313.21564ZM427.81403 313.21564Q427.81403 315.325 428.31403 316.02814Q428.81403 316.73126 429.53278 316.73126Q430.26715 316.73126 430.75153 316.02814Q431.25153 315.325 431.25153 313.21564Q431.25153 311.09064 430.75153 310.40314Q430.26715 309.7 429.51715 309.7Q428.7984 309.7 428.3609 310.3094Q427.81403 311.09064 427.81403 313.21564Z" fill-rule="nonzero"/><path fill="#000000" d="M464.968 314.8719L464.968 313.8094L468.218 313.8094L468.218 314.8719L464.968 314.8719ZM473.06174 317.45L472.01486 317.45L472.01486 310.73126Q471.62424 311.09064 470.99924 311.46564Q470.38986 311.825 469.9055 311.9969L469.9055 310.98126Q470.7805 310.5594 471.43674 309.98126Q472.1086 309.3875 472.38986 308.825L473.06174 308.825L473.06174 317.45ZM476.68674 317.45L476.68674 316.2469L477.88986 316.2469L477.88986 317.45L476.68674 317.45ZM479.093 313.21564Q479.093 311.6844 479.4055 310.7625Q479.718 309.825 480.32736 309.325Q480.95236 308.825 481.88986 308.825Q482.57736 308.825 483.093 309.10626Q483.62424 309.3875 483.968 309.91876Q484.31174 310.4344 484.49924 311.1844Q484.68674 311.9344 484.68674 313.21564Q484.68674 314.73126 484.37424 315.65314Q484.07736 316.575 483.45236 317.09064Q482.843 317.59064 481.88986 317.59064Q480.6555 317.59064 479.93674 316.7Q479.093 315.6375 479.093 313.21564ZM480.1711 313.21564Q480.1711 315.325 480.6711 316.02814Q481.1711 316.73126 481.88986 316.73126Q482.62424 316.73126 483.1086 316.02814Q483.6086 315.325 483.6086 313.21564Q483.6086 311.09064 483.1086 310.40314Q482.62424 309.7 481.87424 309.7Q481.1555 309.7 480.718 310.3094Q480.1711 311.09064 480.1711 313.21564ZM486.093 313.21564Q486.093 311.6844 486.4055 310.7625Q486.718 309.825 487.32736 309.325Q487.95236 308.825 488.88986 308.825Q489.57736 308.825 490.093 309.10626Q490.62424 309.3875 490.968 309.91876Q491.31174 310.4344 491.49924 311.1844Q491.68674 311.9344 491.68674 313.21564Q491.68674 314.73126 491.37424 315.65314Q491.07736 316.575 490.45236 317.09064Q489.843 317.59064 488.88986 317.59064Q487.6555 317.59064 486.93674 316.7Q486.093 315.6375 486.093 313.21564ZM487.1711 313.21564Q487.1711 315.325 487.6711 316.02814Q488.1711 316.73126 488.88986 316.73126Q489.62424 316.73126 490.1086 316.02814Q490.6086 315.325 490.6086 313.21564Q490.6086 311.09064 490.1086 310.40314Q489.62424 309.7 488.87424 309.7Q488.1555 309.7 487.718 310.3094Q487.1711 311.09064 487.1711 313.21564ZM493.5461 317.45L493.5461 308.85626L499.74924 308.85626L499.74924 309.8719L494.68674 309.8719L494.68674 312.4969L499.43674 312.4969L499.43674 313.5125L494.68674 313.5125L494.68674 316.4344L499.95236 316.4344L499.95236 317.45L493.5461 317.45ZM503.593 316.0594L503.593 313.7L501.26486 313.7L501.26486 312.71564L503.593 312.71564L503.593 310.3875L504.593 310.3875L504.593 312.71564L506.93674 312.71564L506.93674 313.7L504.593 313.7L504.593 316.0594L503.593 316.0594ZM508.093 313.21564Q508.093 311.6844 508.4055 310.7625Q508.718 309.825 509.32736 309.325Q509.95236 308.825 510.88986 308.825Q511.57736 308.825 512.093 309.10626Q512.62427 309.3875 512.968 309.91876Q513.31177 310.4344 513.49927 311.1844Q513.68677 311.9344 513.68677 313.21564Q513.68677 314.73126 513.37427 315.65314Q513.0774 316.575 512.4524 317.09064Q511.843 317.59064 510.88986 317.59064Q509.6555 317.59064 508.93674 316.7Q508.093 315.6375 508.093 313.21564ZM509.1711 313.21564Q509.1711 315.325 509.6711 316.02814Q510.1711 316.73126 510.88986 316.73126Q511.62424 316.73126 512.10864 316.02814Q512.60864 315.325 512.60864 313.21564Q512.60864 311.09064 512.10864 310.40314Q511.62424 309.7 510.87424 309.7Q510.1555 309.7 509.718 310.3094Q509.1711 311.09064 509.1711 313.21564ZM515.093 313.21564Q515.093 311.6844 515.4055 310.7625Q515.718 309.825 516.3274 309.325Q516.9524 308.825 517.8899 308.825Q518.5774 308.825 519.093 309.10626Q519.62427 309.3875 519.968 309.91876Q520.31177 310.4344 520.49927 311.1844Q520.68677 311.9344 520.68677 313.21564Q520.68677 314.73126 520.37427 315.65314Q520.0774 316.575 519.4524 317.09064Q518.843 317.59064 517.8899 317.59064Q516.6555 317.59064 515.93677 316.7Q515.093 315.6375 515.093 313.21564ZM516.17114 313.21564Q516.17114 315.325 516.67114 316.02814Q517.17114 316.73126 517.8899 316.73126Q518.62427 316.73126 519.10864 316.02814Q519.60864 315.325 519.60864 313.21564Q519.60864 311.09064 519.10864 310.40314Q518.62427 309.7 517.87427 309.7Q517.1555 309.7 516.718 310.3094Q516.17114 311.09064 516.17114 313.21564Z" fill-rule="nonzero"/><path fill="#000000" d="M205.46875 34.596874L208.21875 34.175Q208.40625 34.971874 208.9375 35.39375Q209.46875 35.8 210.4375 35.8Q211.5 35.8 212.04688 35.409374Q212.40625 35.14375 212.40625 34.675Q212.40625 34.3625 212.20312 34.159374Q212.0 33.971874 211.29688 33.8Q207.96875 33.065624 207.07812 32.45625Q205.84375 31.628124 205.84375 30.128124Q205.84375 28.784374 206.90625 27.8625Q207.98438 26.940624 210.21875 26.940624Q212.34375 26.940624 213.375 27.64375Q214.42188 28.33125 214.8125 29.690624L212.21875 30.159374Q212.04688 29.565624 211.57812 29.2375Q211.125 28.909374 210.26562 28.909374Q209.1875 28.909374 208.71875 29.221874Q208.40625 29.440624 208.40625 29.76875Q208.40625 30.065624 208.67188 30.26875Q209.04688 30.55 211.23438 31.05Q213.42188 31.55 214.29688 32.26875Q215.15625 33.003124 215.15625 34.3Q215.15625 35.7375 213.96875 36.76875Q212.78125 37.784374 210.4375 37.784374Q208.32812 37.784374 207.07812 36.925Q205.84375 36.065624 205.46875 34.596874ZM217.4375 25.76875L217.4375 23.2375L220.1875 23.2375L220.1875 25.76875L217.4375 25.76875ZM217.4375 37.55L217.4375 27.175L220.1875 27.175L220.1875 37.55L217.4375 37.55ZM222.1875 38.2375L225.3125 38.6125Q225.39062 39.159374 225.67188 39.3625Q226.0625 39.659374 226.90625 39.659374Q227.98438 39.659374 228.51562 39.33125Q228.875 39.128124 229.0625 38.64375Q229.1875 38.3 229.1875 37.378124L229.1875 35.8625Q227.96875 37.55 226.09375 37.55Q224.0 37.55 222.78125 35.784374Q221.82812 34.378124 221.82812 32.3Q221.82812 29.690624 223.07812 28.315624Q224.32812 26.940624 226.20312 26.940624Q228.125 26.940624 229.375 28.628124L229.375 27.175L231.9375 27.175L231.9375 36.4875Q231.9375 38.315624 231.625 39.221874Q231.32812 40.14375 230.78125 40.659374Q230.23438 41.175 229.3125 41.45625Q228.40625 41.753124 227.01562 41.753124Q224.375 41.753124 223.26562 40.846874Q222.17188 39.95625 222.17188 38.565624Q222.17188 38.425 222.1875 38.2375ZM224.64062 32.14375Q224.64062 33.8 225.26562 34.565624Q225.90625 35.33125 226.84375 35.33125Q227.85938 35.33125 228.54688 34.55Q229.25 33.753124 229.25 32.221874Q229.25 30.6125 228.57812 29.83125Q227.92188 29.05 226.90625 29.05Q225.90625 29.05 225.26562 29.815624Q224.64062 30.58125 224.64062 32.14375ZM243.60938 32.284374L246.42188 33.175Q245.78125 35.51875 244.28125 36.659374Q242.78125 37.8 240.46875 37.8Q237.625 37.8 235.78125 35.846874Q233.95312 33.89375 233.95312 30.51875Q233.95312 26.940624 235.79688 24.971874Q237.64062 22.9875 240.64062 22.9875Q243.28125 22.9875 244.92188 24.534374Q245.89062 25.45625 246.375 27.175L243.51562 27.8625Q243.26562 26.753124 242.45312 26.1125Q241.65625 25.45625 240.5 25.45625Q238.90625 25.45625 237.90625 26.596874Q236.92188 27.7375 236.92188 30.3Q236.92188 33.01875 237.89062 34.175Q238.875 35.315624 240.4375 35.315624Q241.59375 35.315624 242.42188 34.596874Q243.25 33.8625 243.60938 32.284374ZM251.0625 37.55L248.3125 37.55L248.3125 27.175L250.875 27.175L250.875 28.659374Q251.51562 27.6125 252.03125 27.284374Q252.5625 26.940624 253.23438 26.940624Q254.17188 26.940624 255.03125 27.45625L254.1875 29.846874Q253.5 29.409374 252.90625 29.409374Q252.32812 29.409374 251.92188 29.721874Q251.51562 30.034374 251.28125 30.878124Q251.0625 31.70625 251.0625 34.346874L251.0625 37.55ZM260.98438 41.753124L259.10938 41.753124Q257.60938 39.503124 256.82812 37.08125Q256.04688 34.64375 256.04688 32.3625Q256.04688 29.534374 257.01562 27.01875Q257.85938 24.83125 259.14062 22.9875L261.01562 22.9875Q259.67188 25.940624 259.17188 28.01875Q258.67188 30.096874 258.67188 32.425Q258.67188 34.01875 258.96875 35.70625Q259.26562 37.378124 259.78125 38.89375Q260.125 39.89375 260.98438 41.753124ZM269.875 37.55L267.125 37.55L267.125 27.20625Q265.625 28.6125 263.57812 29.284374L263.57812 26.8Q264.65625 26.440624 265.90625 25.471874Q267.17188 24.4875 267.64062 23.175L269.875 23.175L269.875 37.55ZM273.67188 41.753124Q274.48438 40.01875 274.8125 39.08125Q275.15625 38.159374 275.4375 36.95625Q275.71875 35.7375 275.84375 34.659374Q275.98438 33.565624 275.98438 32.425Q275.98438 30.096874 275.48438 28.01875Q275.0 25.940624 273.65625 22.9875L275.51562 22.9875Q277.0 25.08125 277.8125 27.440624Q278.625 29.8 278.625 32.221874Q278.625 34.253124 277.98438 36.596874Q277.25 39.20625 275.5625 41.753124L273.67188 41.753124ZM290.28125 37.55L286.10938 27.175L288.98438 27.175L290.9375 32.471874L291.51562 34.2375Q291.73438 33.565624 291.79688 33.346874Q291.92188 32.909374 292.07812 32.471874L294.0625 27.175L296.875 27.175L292.76562 37.55L290.28125 37.55ZM297.46875 34.596874L300.21875 34.175Q300.40625 34.971874 300.9375 35.39375Q301.46875 35.8 302.4375 35.8Q303.5 35.8 304.04688 35.409374Q304.40625 35.14375 304.40625 34.675Q304.40625 34.3625 304.20312 34.159374Q304.0 33.971874 303.29688 33.8Q299.96875 33.065624 299.07812 32.45625Q297.84375 31.628124 297.84375 30.128124Q297.84375 28.784374 298.90625 27.8625Q299.98438 26.940624 302.21875 26.940624Q304.34375 26.940624 305.375 27.64375Q306.42188 28.33125 306.8125 29.690624L304.21875 30.159374Q304.04688 29.565624 303.57812 29.2375Q303.125 28.909374 302.26562 28.909374Q301.1875 28.909374 300.71875 29.221874Q300.40625 29.440624 300.40625 29.76875Q300.40625 30.065624 300.67188 30.26875Q301.04688 30.55 303.23438 31.05Q305.42188 31.55 306.29688 32.26875Q307.15625 33.003124 307.15625 34.3Q307.15625 35.7375 305.96875 36.76875Q304.78125 37.784374 302.4375 37.784374Q300.32812 37.784374 299.07812 36.925Q297.84375 36.065624 297.46875 34.596874ZM321.4375 34.253124L324.17188 34.70625Q323.65625 36.20625 322.51562 37.003124Q321.375 37.784374 319.67188 37.784374Q316.95312 37.784374 315.65625 36.01875Q314.64062 34.596874 314.64062 32.440624Q314.64062 29.8625 315.98438 28.409374Q317.32812 26.940624 319.39062 26.940624Q321.70312 26.940624 323.03125 28.471874Q324.375 30.003124 324.32812 33.159374L317.45312 33.159374Q317.48438 34.378124 318.10938 35.065624Q318.75 35.7375 319.6875 35.7375Q320.34375 35.7375 320.78125 35.39375Q321.21875 35.034374 321.4375 34.253124ZM321.59375 31.471874Q321.5625 30.284374 320.96875 29.675Q320.39062 29.05 319.5625 29.05Q318.65625 29.05 318.07812 29.690624Q317.48438 30.346874 317.5 31.471874L321.59375 31.471874ZM326.35938 27.175L328.92188 27.175L328.92188 28.70625Q329.42188 27.925 330.26562 27.440624Q331.10938 26.940624 332.15625 26.940624Q333.95312 26.940624 335.20312 28.3625Q336.46875 29.76875 336.46875 32.3Q336.46875 34.909374 335.20312 36.346874Q333.9375 37.784374 332.125 37.784374Q331.26562 37.784374 330.5625 37.440624Q329.875 37.096874 329.10938 36.26875L329.10938 41.503124L326.35938 41.503124L326.35938 27.175ZM329.07812 32.190624Q329.07812 33.940624 329.76562 34.784374Q330.45312 35.6125 331.45312 35.6125Q332.40625 35.6125 333.04688 34.846874Q333.6875 34.065624 333.6875 32.33125Q333.6875 30.690624 333.03125 29.909374Q332.375 29.1125 331.40625 29.1125Q330.40625 29.1125 329.73438 29.89375Q329.07812 30.659374 329.07812 32.190624ZM337.46875 34.596874L340.21875 34.175Q340.40625 34.971874 340.9375 35.39375Q341.46875 35.8 342.4375 35.8Q343.5 35.8 344.04688 35.409374Q344.40625 35.14375 344.40625 34.675Q344.40625 34.3625 344.20312 34.159374Q344.0 33.971874 343.29688 33.8Q339.96875 33.065624 339.07812 32.45625Q337.84375 31.628124 337.84375 30.128124Q337.84375 28.784374 338.90625 27.8625Q339.98438 26.940624 342.21875 26.940624Q344.34375 26.940624 345.375 27.64375Q346.42188 28.33125 346.8125 29.690624L344.21875 30.159374Q344.04688 29.565624 343.57812 29.2375Q343.125 28.909374 342.26562 28.909374Q341.1875 28.909374 340.71875 29.221874Q340.40625 29.440624 340.40625 29.76875Q340.40625 30.065624 340.67188 30.26875Q341.04688 30.55 343.23438 31.05Q345.42188 31.55 346.29688 32.26875Q347.15625 33.003124 347.15625 34.3Q347.15625 35.7375 345.96875 36.76875Q344.78125 37.784374 342.4375 37.784374Q340.32812 37.784374 339.07812 36.925Q337.84375 36.065624 337.46875 34.596874ZM358.60938 32.284374L361.42188 33.175Q360.78125 35.51875 359.28125 36.659374Q357.78125 37.8 355.46875 37.8Q352.625 37.8 350.78125 35.846874Q348.95312 33.89375 348.95312 30.51875Q348.95312 26.940624 350.79688 24.971874Q352.64062 22.9875 355.64062 22.9875Q358.28125 22.9875 359.92188 24.534374Q360.89062 25.45625 361.375 27.175L358.51562 27.8625Q358.26562 26.753124 357.45312 26.1125Q356.65625 25.45625 355.5 25.45625Q353.90625 25.45625 352.90625 26.596874Q351.92188 27.7375 351.92188 30.3Q351.92188 33.01875 352.89062 34.175Q353.875 35.315624 355.4375 35.315624Q356.59375 35.315624 357.42188 34.596874Q358.25 33.8625 358.60938 32.284374ZM366.0625 37.55L363.3125 37.55L363.3125 27.175L365.875 27.175L365.875 28.659374Q366.51562 27.6125 367.03125 27.284374Q367.5625 26.940624 368.23438 26.940624Q369.17188 26.940624 370.03125 27.45625L369.1875 29.846874Q368.5 29.409374 367.90625 29.409374Q367.32812 29.409374 366.92188 29.721874Q366.51562 30.034374 366.28125 30.878124Q366.0625 31.70625 366.0625 34.346874L366.0625 37.55ZM375.98438 41.753124L374.10938 41.753124Q372.60938 39.503124 371.82812 37.08125Q371.04688 34.64375 371.04688 32.3625Q371.04688 29.534374 372.01562 27.01875Q372.85938 24.83125 374.14062 22.9875L376.01562 22.9875Q374.67188 25.940624 374.17188 28.01875Q373.67188 30.096874 373.67188 32.425Q373.67188 34.01875 373.96875 35.70625Q374.26562 37.378124 374.78125 38.89375Q375.125 39.89375 375.98438 41.753124ZM384.875 37.55L382.125 37.55L382.125 27.20625Q380.625 28.6125 378.57812 29.284374L378.57812 26.8Q379.65625 26.440624 380.90625 25.471874Q382.17188 24.4875 382.64062 23.175L384.875 23.175L384.875 37.55ZM388.67188 41.753124Q389.48438 40.01875 389.8125 39.08125Q390.15625 38.159374 390.4375 36.95625Q390.71875 35.7375 390.84375 34.659374Q390.98438 33.565624 390.98438 32.425Q390.98438 30.096874 390.48438 28.01875Q390.0 25.940624 388.65625 22.9875L390.51562 22.9875Q392.0 25.08125 392.8125 27.440624Q393.625 29.8 393.625 32.221874Q393.625 34.253124 392.98438 36.596874Q392.25 39.20625 390.5625 41.753124L388.67188 41.753124Z" fill-rule="nonzero"/></svg>