<svg version="1.1" viewBox="0.0 0.0 600.0 371.0" fill="none" stroke="none" stroke-linecap="square" stroke-miterlimit="10" width="600" height="371" xmlns:xlink="http://www.w3.org/1999/xlink" xmlns="http://www.w3.org/2000/svg"><path fill="#ffffff" d="M0 0L600.0 0L600.0 371.0L0 371.0L0 0Z" fill-rule="nonzero"/><path stroke="#333333" stroke-width="1.0" stroke-linecap="butt" d="M84.5 85.5L84.5 300.5" fill-rule="nonzero"/><path stroke="#cccccc" stroke-width="1.0" stroke-linecap="butt" d="M211.5 85.5L211.5 300.5" fill-rule="nonzero"/><path stroke="#cccccc" stroke-width="1.0" stroke-linecap="butt" d="M337.5 85.5L337.5 300.5" fill-rule="nonzero"/><path stroke="#cccccc" stroke-width="1.0" stroke-linecap="butt" d="M464.5 85.5L464.5 300.5" fill-rule="nonzero"/><path stroke="#333333" stroke-width="1.0" stroke-linecap="butt" d="M84.5 300.5L581.5 300.5" fill-rule="nonzero"/><path stroke="#cccccc" stroke-width="1.0" stroke-linecap="butt" d="M84.5 257.5L581.5 257.5" fill-rule="nonzero"/><path stroke="#cccccc" stroke-width="1.0" stroke-linecap="butt" d="M84.5 214.5L581.5 214.5" fill-rule="nonzero"/><path stroke="#cccccc" stroke-width="1.0" stroke-linecap="butt" d="M84.5 171.5L581.5 171.5" fill-rule="nonzero"/><path stroke="#cccccc" stroke-width="1.0" stroke-linecap="butt" d="M84.5 128.5L581.5 128.5" fill-rule="nonzero"/><path stroke="#cccccc" stroke-width="1.0" stroke-linecap="butt" d="M84.5 85.5L581.5 85.5" fill-rule="nonzero"/><clipPath id="id_0"><path d="M84.55 85.416664L581.45 85.416664L581.45 300.45L84.55 300.45L84.55 85.416664Z" clip-rule="nonzero"/></clipPath><path fill="#34a853" fill-opacity="0.3019608" clip-path="url(#id_0)" d="M84.55 300.45L84.550125 98.94226L95.294975 103.95684L106.04502 108.97658L116.79551 113.99889L127.547264 119.02466L138.30092 124.05299L149.05623 129.08478L159.8133 134.12L170.57214 139.15779L181.33264 144.19904L192.09505 149.24371L202.85909 154.29099L213.62453 159.34254L224.39224 164.39668L235.1625 169.45427L245.93275 174.51443L256.70682 179.57805L267.48087 184.64595L278.25745 189.71643L289.03656 194.7895L299.81696 199.86687L310.5986 204.94682L321.3828 210.0302L332.16824 215.1172L342.95624 220.2073L353.7455 225.30066L364.5373 230.39731L375.33035 235.49728L386.12595 240.60054L396.9228 245.70715L407.7222 250.81703L418.52286 255.93027L429.32605 261.04688L440.13177 266.1668L450.9375 271.29L461.747 276.41666L472.55783 281.5466L483.36987 286.67996L494.18448 291.81668L505.00162 296.9567L513.91833 300.448L518.8163 300.448L523.713 300.448L528.60724 300.448L533.4989 300.448L538.3893 300.448L543.2784 300.448L548.165 300.448L553.049 300.448L557.9318 300.448L562.8133 300.448L567.6923 300.448L572.57 300.448L577.4452 300.448L581.45 300.448L581.45 300.45L577.4452 300.45L572.57 300.45L567.6923 300.45L562.8133 300.45L557.9318 300.45L553.049 300.45L548.165 300.45L543.2784 300.45L538.3893 300.45L533.4989 300.45L528.60724 300.45L523.713 300.45L518.8163 300.45L513.91833 300.45L505.00162 300.45L494.18448 300.45L483.36987 300.45L472.55783 300.45L461.747 300.45L450.9375 300.45L440.13177 300.45L429.32605 300.45L418.52286 300.45L407.7222 300.45L396.9228 300.45L386.12595 300.45L375.33035 300.45L364.5373 300.45L353.7455 300.45L342.95624 300.45L332.16824 300.45L321.3828 300.45L310.5986 300.45L299.81696 300.45L289.03656 300.45L278.25745 300.45L267.48087 300.45L256.70682 300.45L245.93275 300.45L235.1625 300.45L224.39224 300.45L213.62453 300.45L202.85909 300.45L192.09505 300.45L181.33264 300.45L170.57214 300.45L159.8133 300.45L149.05623 300.45L138.30092 300.45L127.547264 300.45L116.79551 300.45L106.04502 300.45L95.294975 300.45L84.550125 300.45L84.55 300.45Z" fill-rule="nonzero"/><path stroke="#34a853" stroke-width="2.0" stroke-linecap="butt" clip-path="url(#id_0)" d="M84.55 300.45L84.550125 98.94226L95.294975 103.95684L106.04502 108.97658L116.79551 113.99889L127.547264 119.02466L138.30092 124.05299L149.05623 129.08478L159.8133 134.12L170.57214 139.15779L181.33264 144.19904L192.09505 149.24371L202.85909 154.29099L213.62453 159.34254L224.39224 164.39668L235.1625 169.45427L245.93275 174.51443L256.70682 179.57805L267.48087 184.64595L278.25745 189.71643L289.03656 194.7895L299.81696 199.86687L310.5986 204.94682L321.3828 210.0302L332.16824 215.1172L342.95624 220.2073L353.7455 225.30066L364.5373 230.39731L375.33035 235.49728L386.12595 240.60054L396.9228 245.70715L407.7222 250.81703L418.52286 255.93027L429.32605 261.04688L440.13177 266.1668L450.9375 271.29L461.747 276.41666L472.55783 281.5466L483.36987 286.67996L494.18448 291.81668L505.00162 296.9567L513.91833 300.448L518.8163 300.448L523.713 300.448L528.60724 300.448L533.4989 300.448L538.3893 300.448L543.2784 300.448L548.165 300.448L553.049 300.448L557.9318 300.448L562.8133 300.448L567.6923 300.448L572.57 300.448L577.4452 300.448L581.45 300.448" fill-rule="nonzero"/><path fill="#000000" fill-opacity="0.0" clip-path="url(#id_0)" d="M87.55 300.45C87.55 302.10684 86.206856 303.45 84.55 303.45C82.89314 303.45 81.55 302.10684 81.55 300.45C81.55 298.79315 82.89314 297.45 84.55 297.45C86.206856 297.45 87.55 298.79315 87.55 300.45Z" fill-rule="nonzero"/><path fill="#000000" fill-opacity="0.0" clip-path="url(#id_0)" d="M87.550125 98.94226C87.550125 100.59912 86.20698 101.94226 84.550125 101.94226C82.89327 101.94226 81.550125 100.59912 81.550125 98.94226C81.550125 97.28541 82.89327 95.94226 84.550125 95.94226C86.20698 95.94226 87.550125 97.28541 87.550125 98.94226Z" fill-rule="nonzero"/><path fill="#000000" fill-opacity="0.0" clip-path="url(#id_0)" d="M98.294975 103.95684C98.294975 105.61369 96.95183 106.95684 95.294975 106.95684C93.63812 106.95684 92.294975 105.61369 92.294975 103.95684C92.294975 102.29999 93.63812 100.95684 95.294975 100.95684C96.95183 100.95684 98.294975 102.29999 98.294975 103.95684Z" fill-rule="nonzero"/><path fill="#000000" fill-opacity="0.0" clip-path="url(#id_0)" d="M109.04502 108.97658C109.04502 110.63343 107.70187 111.97658 106.04502 111.97658C104.38817 111.97658 103.04502 110.63343 103.04502 108.97658C103.04502 107.319725 104.38817 105.97658 106.04502 105.97658C107.70187 105.97658 109.04502 107.319725 109.04502 108.97658Z" fill-rule="nonzero"/><path fill="#000000" fill-opacity="0.0" clip-path="url(#id_0)" d="M119.79551 113.99889C119.79551 115.655754 118.45236 116.99889 116.79551 116.99889C115.13866 116.99889 113.79551 115.655754 113.79551 113.99889C113.79551 112.34204 115.13866 110.99889 116.79551 110.99889C118.45236 110.99889 119.79551 112.34204 119.79551 113.99889Z" fill-rule="nonzero"/><path fill="#000000" fill-opacity="0.0" clip-path="url(#id_0)" d="M130.54727 119.02466C130.54727 120.68151 129.20412 122.02466 127.547264 122.02466C125.89041 122.02466 124.547264 120.68151 124.547264 119.02466C124.547264 117.367805 125.89041 116.02466 127.547264 116.02466C129.20412 116.02466 130.54727 117.367805 130.54727 119.02466Z" fill-rule="nonzero"/><path fill="#000000" fill-opacity="0.0" clip-path="url(#id_0)" d="M141.30092 124.05299C141.30092 125.70985 139.95778 127.05299 138.30092 127.05299C136.64407 127.05299 135.30092 125.70985 135.30092 124.05299C135.30092 122.39614 136.64407 121.05299 138.30092 121.05299C139.95778 121.05299 141.30092 122.39614 141.30092 124.05299Z" fill-rule="nonzero"/><path fill="#000000" fill-opacity="0.0" clip-path="url(#id_0)" d="M152.05623 129.08478C152.05623 130.74162 150.71307 132.08478 149.05623 132.08478C147.39937 132.08478 146.05623 130.74162 146.05623 129.08478C146.05623 127.427925 147.39937 126.08478 149.05623 126.08478C150.71307 126.08478 152.05623 127.427925 152.05623 129.08478Z" fill-rule="nonzero"/><path fill="#000000" fill-opacity="0.0" clip-path="url(#id_0)" d="M162.8133 134.12C162.8133 135.77686 161.47015 137.12 159.8133 137.12C158.15645 137.12 156.8133 135.77686 156.8133 134.12C156.8133 132.46313 158.15645 131.12 159.8133 131.12C161.47015 131.12 162.8133 132.46313 162.8133 134.12Z" fill-rule="nonzero"/><path fill="#000000" fill-opacity="0.0" clip-path="url(#id_0)" d="M173.57214 139.15779C173.57214 140.81465 172.229 142.15779 170.57214 142.15779C168.9153 142.15779 167.57214 140.81465 167.57214 139.15779C167.57214 137.50095 168.9153 136.15779 170.57214 136.15779C172.229 136.15779 173.57214 137.50095 173.57214 139.15779Z" fill-rule="nonzero"/><path fill="#000000" fill-opacity="0.0" clip-path="url(#id_0)" d="M184.33264 144.19904C184.33264 145.8559 182.9895 147.19904 181.33264 147.19904C179.6758 147.19904 178.33264 145.8559 178.33264 144.19904C178.33264 142.54219 179.6758 141.19904 181.33264 141.19904C182.9895 141.19904 184.33264 142.54219 184.33264 144.19904Z" fill-rule="nonzero"/><path fill="#000000" fill-opacity="0.0" clip-path="url(#id_0)" d="M195.09505 149.24371C195.09505 150.90057 193.75189 152.24371 192.09505 152.24371C190.43819 152.24371 189.09505 150.90057 189.09505 149.24371C189.09505 147.58687 190.43819 146.24371 192.09505 146.24371C193.75189 146.24371 195.09505 147.58687 195.09505 149.24371Z" fill-rule="nonzero"/><path fill="#000000" fill-opacity="0.0" clip-path="url(#id_0)" d="M205.85909 154.29099C205.85909 155.94783 204.51595 157.29099 202.85909 157.29099C201.20224 157.29099 199.85909 155.94783 199.85909 154.29099C199.85909 152.63412 201.20224 151.29099 202.85909 151.29099C204.51595 151.29099 205.85909 152.63412 205.85909 154.29099Z" fill-rule="nonzero"/><path fill="#000000" fill-opacity="0.0" clip-path="url(#id_0)" d="M216.62453 159.34254C216.62453 160.9994 215.28139 162.34254 213.62453 162.34254C211.96767 162.34254 210.62453 160.9994 210.62453 159.34254C210.62453 157.6857 211.96767 156.34254 213.62453 156.34254C215.28139 156.34254 216.62453 157.6857 216.62453 159.34254Z" fill-rule="nonzero"/><path fill="#000000" fill-opacity="0.0" clip-path="url(#id_0)" d="M227.39224 164.39668C227.39224 166.05354 226.0491 167.39668 224.39224 167.39668C222.7354 167.39668 221.39224 166.05354 221.39224 164.39668C221.39224 162.73984 222.7354 161.39668 224.39224 161.39668C226.0491 161.39668 227.39224 162.73984 227.39224 164.39668Z" fill-rule="nonzero"/><path fill="#000000" fill-opacity="0.0" clip-path="url(#id_0)" d="M238.1625 169.45427C238.1625 171.11113 236.81935 172.45427 235.1625 172.45427C233.50565 172.45427 232.1625 171.11113 232.1625 169.45427C232.1625 167.79742 233.50565 166.45427 235.1625 166.45427C236.81935 166.45427 238.1625 167.79742 238.1625 169.45427Z" fill-rule="nonzero"/><path fill="#000000" fill-opacity="0.0" clip-path="url(#id_0)" d="M248.93275 174.51443C248.93275 176.1713 247.5896 177.51443 245.93275 177.51443C244.2759 177.51443 242.93275 176.1713 242.93275 174.51443C242.93275 172.85759 244.2759 171.51443 245.93275 171.51443C247.5896 171.51443 248.93275 172.85759 248.93275 174.51443Z" fill-rule="nonzero"/><path fill="#000000" fill-opacity="0.0" clip-path="url(#id_0)" d="M259.70682 179.57805C259.70682 181.2349 258.36365 182.57805 256.70682 182.57805C255.04996 182.57805 253.7068 181.2349 253.7068 179.57805C253.7068 177.92119 255.04996 176.57805 256.70682 176.57805C258.36365 176.57805 259.70682 177.92119 259.70682 179.57805Z" fill-rule="nonzero"/><path fill="#000000" fill-opacity="0.0" clip-path="url(#id_0)" d="M270.48087 184.64595C270.48087 186.3028 269.13773 187.64595 267.48087 187.64595C265.824 187.64595 264.48087 186.3028 264.48087 184.64595C264.48087 182.98909 265.824 181.64595 267.48087 181.64595C269.13773 181.64595 270.48087 182.98909 270.48087 184.64595Z" fill-rule="nonzero"/><path fill="#000000" fill-opacity="0.0" clip-path="url(#id_0)" d="M281.25745 189.71643C281.25745 191.37329 279.9143 192.71643 278.25745 192.71643C276.6006 192.71643 275.25745 191.37329 275.25745 189.71643C275.25745 188.05959 276.6006 186.71643 278.25745 186.71643C279.9143 186.71643 281.25745 188.05959 281.25745 189.71643Z" fill-rule="nonzero"/><path fill="#000000" fill-opacity="0.0" clip-path="url(#id_0)" d="M292.03656 194.7895C292.03656 196.44635 290.69342 197.7895 289.03656 197.7895C287.3797 197.7895 286.03656 196.44635 286.03656 194.7895C286.03656 193.13264 287.3797 191.7895 289.03656 191.7895C290.69342 191.7895 292.03656 193.13264 292.03656 194.7895Z" fill-rule="nonzero"/><path fill="#000000" fill-opacity="0.0" clip-path="url(#id_0)" d="M302.81696 199.86687C302.81696 201.52373 301.47382 202.86687 299.81696 202.86687C298.1601 202.86687 296.81696 201.52373 296.81696 199.86687C296.81696 198.21 298.1601 196.86687 299.81696 196.86687C301.47382 196.86687 302.81696 198.21 302.81696 199.86687Z" fill-rule="nonzero"/><path fill="#000000" fill-opacity="0.0" clip-path="url(#id_0)" d="M313.5986 204.94682C313.5986 206.60367 312.25546 207.94682 310.5986 207.94682C308.94174 207.94682 307.5986 206.60367 307.5986 204.94682C307.5986 203.28996 308.94174 201.94682 310.5986 201.94682C312.25546 201.94682 313.5986 203.28996 313.5986 204.94682Z" fill-rule="nonzero"/><path fill="#000000" fill-opacity="0.0" clip-path="url(#id_0)" d="M324.3828 210.0302C324.3828 211.68706 323.03964 213.0302 321.3828 213.0302C319.72595 213.0302 318.3828 211.68706 318.3828 210.0302C318.3828 208.37335 319.72595 207.0302 321.3828 207.0302C323.03964 207.0302 324.3828 208.37335 324.3828 210.0302Z" fill-rule="nonzero"/><path fill="#000000" fill-opacity="0.0" clip-path="url(#id_0)" d="M335.16824 215.1172C335.16824 216.77406 333.8251 218.1172 332.16824 218.1172C330.5114 218.1172 329.16824 216.77406 329.16824 215.1172C329.16824 213.46034 330.5114 212.1172 332.16824 212.1172C333.8251 212.1172 335.16824 213.46034 335.16824 215.1172Z" fill-rule="nonzero"/><path fill="#000000" fill-opacity="0.0" clip-path="url(#id_0)" d="M345.95624 220.2073C345.95624 221.86415 344.6131 223.2073 342.95624 223.2073C341.29938 223.2073 339.95624 221.86415 339.95624 220.2073C339.95624 218.55045 341.29938 217.2073 342.95624 217.2073C344.6131 217.2073 345.95624 218.55045 345.95624 220.2073Z" fill-rule="nonzero"/><path fill="#000000" fill-opacity="0.0" clip-path="url(#id_0)" d="M356.7455 225.30066C356.7455 226.95752 355.40234 228.30066 353.7455 228.30066C352.08865 228.30066 350.7455 226.95752 350.7455 225.30066C350.7455 223.64381 352.08865 222.30066 353.7455 222.30066C355.40234 222.30066 356.7455 223.64381 356.7455 225.30066Z" fill-rule="nonzero"/><path fill="#000000" fill-opacity="0.0" clip-path="url(#id_0)" d="M367.5373 230.39731C367.5373 232.05415 366.19415 233.39731 364.5373 233.39731C362.88043 233.39731 361.5373 232.05415 361.5373 230.39731C361.5373 228.74045 362.88043 227.39731 364.5373 227.39731C366.19415 227.39731 367.5373 228.74045 367.5373 230.39731Z" fill-rule="nonzero"/><path fill="#000000" fill-opacity="0.0" clip-path="url(#id_0)" d="M378.33035 235.49728C378.33035 237.15414 376.9872 238.49728 375.33035 238.49728C373.6735 238.49728 372.33035 237.15414 372.33035 235.49728C372.33035 233.84044 373.6735 232.49728 375.33035 232.49728C376.9872 232.49728 378.33035 233.84044 378.33035 235.49728Z" fill-rule="nonzero"/><path fill="#000000" fill-opacity="0.0" clip-path="url(#id_0)" d="M389.12595 240.60054C389.12595 242.2574 387.7828 243.60054 386.12595 243.60054C384.4691 243.60054 383.12595 242.2574 383.12595 240.60054C383.12595 238.9437 384.4691 237.60054 386.12595 237.60054C387.7828 237.60054 389.12595 238.9437 389.12595 240.60054Z" fill-rule="nonzero"/><path fill="#000000" fill-opacity="0.0" clip-path="url(#id_0)" d="M399.9228 245.70715C399.9228 247.36401 398.57965 248.70715 396.9228 248.70715C395.26593 248.70715 393.9228 247.36401 393.9228 245.70715C393.9228 244.05031 395.26593 242.70715 396.9228 242.70715C398.57965 242.70715 399.9228 244.05031 399.9228 245.70715Z" fill-rule="nonzero"/><path fill="#000000" fill-opacity="0.0" clip-path="url(#id_0)" d="M410.7222 250.81703C410.7222 252.47389 409.37906 253.81703 407.7222 253.81703C406.06534 253.81703 404.7222 252.47389 404.7222 250.81703C404.7222 249.16019 406.06534 247.81703 407.7222 247.81703C409.37906 247.81703 410.7222 249.16019 410.7222 250.81703Z" fill-rule="nonzero"/><path fill="#000000" fill-opacity="0.0" clip-path="url(#id_0)" d="M421.52286 255.93027C421.52286 257.58713 420.17972 258.93027 418.52286 258.93027C416.866 258.93027 415.52286 257.58713 415.52286 255.93027C415.52286 254.27342 416.866 252.93027 418.52286 252.93027C420.17972 252.93027 421.52286 254.27342 421.52286 255.93027Z" fill-rule="nonzero"/><path fill="#000000" fill-opacity="0.0" clip-path="url(#id_0)" d="M432.32605 261.04688C432.32605 262.7037 430.9829 264.04688 429.32605 264.04688C427.6692 264.04688 426.32605 262.7037 426.32605 261.04688C426.32605 259.39 427.6692 258.04688 429.32605 258.04688C430.9829 258.04688 432.32605 259.39 432.32605 261.04688Z" fill-rule="nonzero"/><path fill="#000000" fill-opacity="0.0" clip-path="url(#id_0)" d="M443.13177 266.1668C443.13177 267.82367 441.78864 269.1668 440.13177 269.1668C438.4749 269.1668 437.13177 267.82367 437.13177 266.1668C437.13177 264.50995 438.4749 263.1668 440.13177 263.1668C441.78864 263.1668 443.13177 264.50995 443.13177 266.1668Z" fill-rule="nonzero"/><path fill="#000000" fill-opacity="0.0" clip-path="url(#id_0)" d="M453.9375 271.29C453.9375 272.94687 452.59436 274.29 450.9375 274.29C449.28064 274.29 447.9375 272.94687 447.9375 271.29C447.9375 269.63318 449.28064 268.29 450.9375 268.29C452.59436 268.29 453.9375 269.63318 453.9375 271.29Z" fill-rule="nonzero"/><path fill="#000000" fill-opacity="0.0" clip-path="url(#id_0)" d="M464.747 276.41666C464.747 278.07352 463.40387 279.41666 461.747 279.41666C460.09018 279.41666 458.747 278.07352 458.747 276.41666C458.747 274.75983 460.09018 273.41666 461.747 273.41666C463.40387 273.41666 464.747 274.75983 464.747 276.41666Z" fill-rule="nonzero"/><path fill="#000000" fill-opacity="0.0" clip-path="url(#id_0)" d="M475.55783 281.5466C475.55783 283.20346 474.21466 284.5466 472.55783 284.5466C470.90097 284.5466 469.55783 283.20346 469.55783 281.5466C469.55783 279.88974 470.90097 278.5466 472.55783 278.5466C474.21466 278.5466 475.55783 279.88974 475.55783 281.5466Z" fill-rule="nonzero"/><path fill="#000000" fill-opacity="0.0" clip-path="url(#id_0)" d="M486.36987 286.67996C486.36987 288.33682 485.02673 289.67996 483.36987 289.67996C481.713 289.67996 480.36987 288.33682 480.36987 286.67996C480.36987 285.0231 481.713 283.67996 483.36987 283.67996C485.02673 283.67996 486.36987 285.0231 486.36987 286.67996Z" fill-rule="nonzero"/><path fill="#000000" fill-opacity="0.0" clip-path="url(#id_0)" d="M497.18448 291.81668C497.18448 293.4735 495.84134 294.81668 494.18448 294.81668C492.52762 294.81668 491.18448 293.4735 491.18448 291.81668C491.18448 290.15982 492.52762 288.81668 494.18448 288.81668C495.84134 288.81668 497.18448 290.15982 497.18448 291.81668Z" fill-rule="nonzero"/><path fill="#000000" fill-opacity="0.0" clip-path="url(#id_0)" d="M508.00162 296.9567C508.00162 298.61356 506.65845 299.9567 505.00162 299.9567C503.34476 299.9567 502.00162 298.61356 502.00162 296.9567C502.00162 295.29984 503.34476 293.9567 505.00162 293.9567C506.65845 293.9567 508.00162 295.29984 508.00162 296.9567Z" fill-rule="nonzero"/><path fill="#000000" fill-opacity="0.0" clip-path="url(#id_0)" d="M516.91833 300.448C516.91833 302.10483 515.5752 303.448 513.91833 303.448C512.2615 303.448 510.91833 302.10483 510.91833 300.448C510.91833 298.79114 512.2615 297.448 513.91833 297.448C515.5752 297.448 516.91833 298.79114 516.91833 300.448Z" fill-rule="nonzero"/><path fill="#000000" fill-opacity="0.0" clip-path="url(#id_0)" d="M521.8163 300.448C521.8163 302.10483 520.47314 303.448 518.8163 303.448C517.1595 303.448 515.8163 302.10483 515.8163 300.448C515.8163 298.79114 517.1595 297.448 518.8163 297.448C520.47314 297.448 521.8163 298.79114 521.8163 300.448Z" fill-rule="nonzero"/><path fill="#000000" fill-opacity="0.0" clip-path="url(#id_0)" d="M526.713 300.448C526.713 302.10483 525.3699 303.448 523.713 303.448C522.05615 303.448 520.713 302.10483 520.713 300.448C520.713 298.79114 522.05615 297.448 523.713 297.448C525.3699 297.448 526.713 298.79114 526.713 300.448Z" fill-rule="nonzero"/><path fill="#000000" fill-opacity="0.0" clip-path="url(#id_0)" d="M531.60724 300.448C531.60724 302.10483 530.2641 303.448 528.60724 303.448C526.9504 303.448 525.60724 302.10483 525.60724 300.448C525.60724 298.79114 526.9504 297.448 528.60724 297.448C530.2641 297.448 531.60724 298.79114 531.60724 300.448Z" fill-rule="nonzero"/><path fill="#000000" fill-opacity="0.0" clip-path="url(#id_0)" d="M536.4989 300.448C536.4989 302.10483 535.1557 303.448 533.4989 303.448C531.84204 303.448 530.4989 302.10483 530.4989 300.448C530.4989 298.79114 531.84204 297.448 533.4989 297.448C535.1557 297.448 536.4989 298.79114 536.4989 300.448Z" fill-rule="nonzero"/><path fill="#000000" fill-opacity="0.0" clip-path="url(#id_0)" d="M541.3893 300.448C541.3893 302.10483 540.04614 303.448 538.3893 303.448C536.7324 303.448 535.3893 302.10483 535.3893 300.448C535.3893 298.79114 536.7324 297.448 538.3893 297.448C540.04614 297.448 541.3893 298.79114 541.3893 300.448Z" fill-rule="nonzero"/><path fill="#000000" fill-opacity="0.0" clip-path="url(#id_0)" d="M546.2784 300.448C546.2784 302.10483 544.93524 303.448 543.2784 303.448C541.6215 303.448 540.2784 302.10483 540.2784 300.448C540.2784 298.79114 541.6215 297.448 543.2784 297.448C544.93524 297.448 546.2784 298.79114 546.2784 300.448Z" fill-rule="nonzero"/><path fill="#000000" fill-opacity="0.0" clip-path="url(#id_0)" d="M551.165 300.448C551.165 302.10483 549.82184 303.448 548.165 303.448C546.5081 303.448 545.165 302.10483 545.165 300.448C545.165 298.79114 546.5081 297.448 548.165 297.448C549.82184 297.448 551.165 298.79114 551.165 300.448Z" fill-rule="nonzero"/><path fill="#000000" fill-opacity="0.0" clip-path="url(#id_0)" d="M556.049 300.448C556.049 302.10483 554.7059 303.448 553.049 303.448C551.39215 303.448 550.049 302.10483 550.049 300.448C550.049 298.79114 551.39215 297.448 553.049 297.448C554.7059 297.448 556.049 298.79114 556.049 300.448Z" fill-rule="nonzero"/><path fill="#000000" fill-opacity="0.0" clip-path="url(#id_0)" d="M560.9318 300.448C560.9318 302.10483 559.5887 303.448 557.9318 303.448C556.27496 303.448 554.9318 302.10483 554.9318 300.448C554.9318 298.79114 556.27496 297.448 557.9318 297.448C559.5887 297.448 560.9318 298.79114 560.9318 300.448Z" fill-rule="nonzero"/><path fill="#000000" fill-opacity="0.0" clip-path="url(#id_0)" d="M565.8133 300.448C565.8133 302.10483 564.47015 303.448 562.8133 303.448C561.1565 303.448 559.8133 302.10483 559.8133 300.448C559.8133 298.79114 561.1565 297.448 562.8133 297.448C564.47015 297.448 565.8133 298.79114 565.8133 300.448Z" fill-rule="nonzero"/><path fill="#000000" fill-opacity="0.0" clip-path="url(#id_0)" d="M570.6923 300.448C570.6923 302.10483 569.3492 303.448 567.6923 303.448C566.03546 303.448 564.6923 302.10483 564.6923 300.448C564.6923 298.79114 566.03546 297.448 567.6923 297.448C569.3492 297.448 570.6923 298.79114 570.6923 300.448Z" fill-rule="nonzero"/><path fill="#000000" fill-opacity="0.0" clip-path="url(#id_0)" d="M575.57 300.448C575.57 302.10483 574.22687 303.448 572.57 303.448C570.91315 303.448 569.57 302.10483 569.57 300.448C569.57 298.79114 570.91315 297.448 572.57 297.448C574.22687 297.448 575.57 298.79114 575.57 300.448Z" fill-rule="nonzero"/><path fill="#000000" fill-opacity="0.0" clip-path="url(#id_0)" d="M580.4452 300.448C580.4452 302.10483 579.10205 303.448 577.4452 303.448C575.7883 303.448 574.4452 302.10483 574.4452 300.448C574.4452 298.79114 575.7883 297.448 577.4452 297.448C579.10205 297.448 580.4452 298.79114 580.4452 300.448Z" fill-rule="nonzero"/><path fill="#000000" fill-opacity="0.0" clip-path="url(#id_0)" d="M584.45 300.448C584.45 302.10483 583.1069 303.448 581.45 303.448C579.79315 303.448 578.45 302.10483 578.45 300.448C578.45 298.79114 579.79315 297.448 581.45 297.448C583.1069 297.448 584.45 298.79114 584.45 300.448Z" fill-rule="nonzero"/><path fill="#000000" d="M304.875 349.45L304.875 348.52814Q304.14062 349.59064 302.89062 349.59064Q302.34375 349.59064 301.85938 349.3875Q301.39062 349.16876 301.15625 348.85626Q300.92188 348.52814 300.82812 348.0594Q300.76562 347.7625 300.76562 347.075L300.76562 343.23126L301.82812 343.23126L301.82812 346.6844Q301.82812 347.4969 301.89062 347.79376Q301.98438 348.2 302.29688 348.45Q302.625 348.6844 303.10938 348.6844Q303.57812 348.6844 303.98438 348.45Q304.40625 348.2 304.57812 347.77814Q304.76562 347.35626 304.76562 346.5594L304.76562 343.23126L305.8125 343.23126L305.8125 349.45L304.875 349.45ZM309.8125 351.98126Q308.9375 350.8719 308.32812 349.40314Q307.73438 347.91876 307.73438 346.34064Q307.73438 344.95 308.17188 343.66876Q308.70312 342.1844 309.8125 340.71564L310.5625 340.71564Q309.85938 341.9344 309.625 342.45Q309.26562 343.2625 309.0625 344.1375Q308.8125 345.23126 308.8125 346.34064Q308.8125 349.16876 310.5625 351.98126L309.8125 351.98126ZM315.46875 349.45L314.42188 349.45L314.42188 342.73126Q314.03125 343.09064 313.40625 343.46564Q312.79688 343.825 312.3125 343.9969L312.3125 342.98126Q313.1875 342.5594 313.84375 341.98126Q314.51562 341.3875 314.79688 340.825L315.46875 340.825L315.46875 349.45ZM319.48438 351.98126L318.73438 351.98126Q320.48438 349.16876 320.48438 346.34064Q320.48438 345.2469 320.23438 344.15314Q320.03125 343.27814 319.67188 342.46564Q319.4375 341.95 318.73438 340.71564L319.48438 340.71564Q320.57812 342.1844 321.10938 343.66876Q321.5625 344.95 321.5625 346.34064Q321.5625 347.91876 320.95312 349.40314Q320.34375 350.8719 319.48438 351.98126ZM325.8125 351.84064L325.8125 340.85626L328.14062 340.85626L328.14062 341.73126L326.875 341.73126L326.875 350.96564L328.14062 350.96564L328.14062 351.84064L325.8125 351.84064ZM328.79688 342.075L328.79688 340.85626L329.85938 340.85626L329.85938 342.075L328.79688 342.075ZM328.79688 349.45L328.79688 343.23126L329.85938 343.23126L329.85938 349.45L328.79688 349.45ZM331.79688 349.45L331.79688 343.23126L332.73438 343.23126L332.73438 344.10626Q333.42188 343.09064 334.71875 343.09064Q335.28125 343.09064 335.75 343.29376Q336.23438 343.4969 336.46875 343.825Q336.70312 344.15314 336.79688 344.59064Q336.84375 344.8875 336.84375 345.6219L336.84375 349.45L335.79688 349.45L335.79688 345.66876Q335.79688 345.0125 335.67188 344.7Q335.54688 344.3875 335.23438 344.2Q334.92188 343.9969 334.5 343.9969Q333.82812 343.9969 333.32812 344.4344Q332.84375 344.85626 332.84375 346.04376L332.84375 349.45L331.79688 349.45ZM341.79688 349.45L341.79688 343.23126L342.73438 343.23126L342.73438 344.10626Q343.03125 343.6375 343.51562 343.3719Q344.0 343.09064 344.625 343.09064Q345.3125 343.09064 345.75 343.3719Q346.20312 343.65314 346.375 344.16876Q347.125 343.09064 348.29688 343.09064Q349.23438 343.09064 349.71875 343.60626Q350.21875 344.10626 350.21875 345.1844L350.21875 349.45L349.17188 349.45L349.17188 345.52814Q349.17188 344.90314 349.0625 344.6219Q348.96875 344.34064 348.70312 344.16876Q348.4375 343.9969 348.0625 343.9969Q347.40625 343.9969 346.96875 344.4344Q346.54688 344.8719 346.54688 345.84064L346.54688 349.45L345.48438 349.45L345.48438 345.40314Q345.48438 344.7 345.21875 344.35626Q344.96875 343.9969 344.39062 343.9969Q343.9375 343.9969 343.5625 344.23126Q343.1875 344.46564 343.01562 344.91876Q342.84375 345.3719 342.84375 346.21564L342.84375 349.45L341.79688 349.45ZM352.79688 349.45L352.79688 343.23126L353.73438 343.23126L353.73438 344.10626Q354.03125 343.6375 354.51562 343.3719Q355.0 343.09064 355.625 343.09064Q356.3125 343.09064 356.75 343.3719Q357.20312 343.65314 357.375 344.16876Q358.125 343.09064 359.29688 343.09064Q360.23438 343.09064 360.71875 343.60626Q361.21875 344.10626 361.21875 345.1844L361.21875 349.45L360.17188 349.45L360.17188 345.52814Q360.17188 344.90314 360.0625 344.6219Q359.96875 344.34064 359.70312 344.16876Q359.4375 343.9969 359.0625 343.9969Q358.40625 343.9969 357.96875 344.4344Q357.54688 344.8719 357.54688 345.84064L357.54688 349.45L356.48438 349.45L356.48438 345.40314Q356.48438 344.7 356.21875 344.35626Q355.96875 343.9969 355.39062 343.9969Q354.9375 343.9969 354.5625 344.23126Q354.1875 344.46564 354.01562 344.91876Q353.84375 345.3719 353.84375 346.21564L353.84375 349.45L352.79688 349.45ZM365.5625 351.84064L363.23438 351.84064L363.23438 350.96564L364.5 350.96564L364.5 341.73126L363.23438 341.73126L363.23438 340.85626L365.5625 340.85626L365.5625 351.84064Z" fill-rule="nonzero"/><path fill="#000000" d="M27.690638 238.05833L27.534388 237.02708Q28.159388 236.93333 28.487513 236.54271Q28.815638 236.13646 28.815638 235.40208Q28.815638 234.68333 28.534388 234.33958Q28.237513 233.98021 27.831263 233.98021Q27.471888 233.98021 27.268763 234.29271Q27.128138 234.51146 26.909388 235.37083Q26.612513 236.52708 26.409388 236.98021Q26.190638 237.41771 25.815638 237.65208Q25.440638 237.88646 24.971888 237.88646Q24.565638 237.88646 24.206263 237.69896Q23.846888 237.51146 23.612513 237.18333Q23.440638 236.93333 23.315638 236.51146Q23.190638 236.08958 23.190638 235.58958Q23.190638 234.87083 23.409388 234.32396Q23.612513 233.76146 23.971888 233.49583Q24.331263 233.23021 24.925013 233.13646L25.065638 234.16771Q24.596888 234.23021 24.331263 234.57396Q24.050013 234.90208 24.050013 235.52708Q24.050013 236.24583 24.300013 236.55833Q24.534388 236.87083 24.862513 236.87083Q25.065638 236.87083 25.221888 236.74583Q25.393763 236.60521 25.503138 236.33958Q25.565638 236.18333 25.768763 235.40208Q26.081263 234.27708 26.268763 233.83958Q26.456263 233.40208 26.815638 233.15208Q27.175013 232.90208 27.721888 232.90208Q28.253138 232.90208 28.721888 233.21458Q29.175013 233.51146 29.440638 234.08958Q29.690638 234.66771 29.690638 235.40208Q29.690638 236.62083 29.190638 237.26146Q28.675013 237.88646 27.690638 238.05833ZM22.175013 230.63646L20.956263 230.63646L20.956263 229.57396L22.175013 229.57396L22.175013 230.63646ZM29.550013 230.63646L23.331263 230.63646L23.331263 229.57396L29.550013 229.57396L29.550013 230.63646ZM30.065638 227.83958L30.221888 226.80833Q30.690638 226.74583 30.909388 226.44896Q31.206263 226.05833 31.206263 225.38646Q31.206263 224.65208 30.909388 224.26146Q30.612513 223.85521 30.096888 223.71458Q29.768763 223.62083 28.737513 223.63646Q29.550013 224.32396 29.550013 225.35521Q29.550013 226.63646 28.628138 227.33958Q27.690638 228.04271 26.409388 228.04271Q25.518763 228.04271 24.768763 227.73021Q24.003138 227.40208 23.596888 226.79271Q23.190638 226.18333 23.190638 225.35521Q23.190638 224.24583 24.081263 223.52708L23.331263 223.52708L23.331263 222.55833L28.706263 222.55833Q30.159388 222.55833 30.768763 222.85521Q31.378138 223.15208 31.721888 223.79271Q32.08126 224.43333 32.08126 225.37083Q32.08126 226.48021 31.581263 227.16771Q31.081263 227.85521 30.065638 227.83958ZM26.331263 226.96458Q27.550013 226.96458 28.112513 226.48021Q28.675013 225.99583 28.675013 225.26146Q28.675013 224.52708 28.112513 224.04271Q27.550013 223.54271 26.362513 223.54271Q25.221888 223.54271 24.643763 224.05833Q24.065638 224.55833 24.065638 225.27708Q24.065638 225.98021 24.643763 226.48021Q25.206263 226.96458 26.331263 226.96458ZM26.534388 214.37083L26.831263 213.24583Q28.221888 213.60521 28.956263 214.52708Q29.690638 215.44896 29.690638 216.79271Q29.690638 218.18333 29.128138 219.05833Q28.565638 219.93333 27.503138 220.38646Q26.425013 220.83958 25.190638 220.83958Q23.846888 220.83958 22.846888 220.32396Q21.846888 219.80833 21.331263 218.87083Q20.815638 217.91771 20.815638 216.77708Q20.815638 215.49583 21.471888 214.62083Q22.128138 213.73021 23.315638 213.38646L23.581263 214.51146Q22.643763 214.80833 22.221888 215.38646Q21.784388 215.94896 21.784388 216.80833Q21.784388 217.79271 22.268763 218.46458Q22.737513 219.12083 23.534388 219.40208Q24.331263 219.66771 25.190638 219.66771Q26.284388 219.66771 27.096888 219.35521Q27.909388 219.02708 28.315638 218.35521Q28.721888 217.68333 28.721888 216.88646Q28.721888 215.93333 28.175013 215.27708Q27.628138 214.60521 26.534388 214.37083ZM29.550013 211.65208L23.331263 211.65208L23.331263 210.69896L24.268763 210.69896Q23.612513 210.33958 23.409388 210.04271Q23.190638 209.73021 23.190638 209.35521Q23.190638 208.82396 23.518763 208.27708L24.503138 208.63646Q24.268763 209.02708 24.268763 209.40208Q24.268763 209.76146 24.487513 210.04271Q24.690638 210.30833 25.065638 210.41771Q25.628138 210.60521 26.284388 210.60521L29.550013 210.60521L29.550013 211.65208ZM32.08126 205.62083Q30.971888 206.49583 29.503138 207.10521Q28.018763 207.69896 26.440638 207.69896Q25.050013 207.69896 23.768763 207.26146Q22.284388 206.73021 20.815638 205.62083L20.815638 204.87083Q22.034388 205.57396 22.550013 205.80833Q23.362513 206.16771 24.237513 206.37083Q25.331263 206.62083 26.440638 206.62083Q29.268763 206.62083 32.08126 204.87083L32.08126 205.62083ZM29.550013 199.96458L29.550013 201.01146L22.831263 201.01146Q23.190638 201.40208 23.565638 202.02708Q23.925013 202.63646 24.096888 203.12083L23.081263 203.12083Q22.659388 202.24583 22.081263 201.58958Q21.487513 200.91771 20.925013 200.63646L20.925013 199.96458L29.550013 199.96458ZM32.08126 195.94896L32.08126 196.69896Q29.268763 194.94896 26.440638 194.94896Q25.346888 194.94896 24.253138 195.19896Q23.378138 195.40208 22.565638 195.76146Q22.050013 195.99583 20.815638 196.69896L20.815638 195.94896Q22.284388 194.85521 23.768763 194.32396Q25.050013 193.87083 26.440638 193.87083Q28.018763 193.87083 29.503138 194.48021Q30.971888 195.08958 32.08126 195.94896ZM31.940638 189.62083L20.956263 189.62083L20.956263 187.29271L21.831263 187.29271L21.831263 188.55833L31.065638 188.55833L31.065638 187.29271L31.940638 187.29271L31.940638 189.62083ZM29.550013 186.54271L20.956263 186.54271L20.956263 184.82396L27.034388 182.79271Q27.893763 182.51146 28.315638 182.38646Q27.846888 182.24583 26.940638 181.93333L20.956263 179.87083L20.956263 178.33958L29.550013 178.33958L29.550013 179.43333L22.362513 179.43333L29.550013 181.93333L29.550013 182.96458L22.237513 185.44896L29.550013 185.44896L29.550013 186.54271ZM29.550013 177.51146L20.956263 177.51146L20.956263 174.26146Q20.956263 173.41771 21.034388 172.96458Q21.143763 172.32396 21.440638 171.90208Q21.737513 171.46458 22.268763 171.21458Q22.800013 170.94896 23.440638 170.94896Q24.534388 170.94896 25.300013 171.65208Q26.050013 172.33958 26.050013 174.16771L26.050013 176.37083L29.550013 176.37083L29.550013 177.51146ZM25.050013 176.37083L25.050013 174.15208Q25.050013 173.04271 24.643763 172.58958Q24.221888 172.12083 23.471888 172.12083Q22.940638 172.12083 22.565638 172.40208Q22.175013 172.66771 22.050013 173.10521Q21.971888 173.40208 21.971888 174.16771L21.971888 176.37083L25.050013 176.37083ZM28.784388 165.57396Q29.284388 166.16771 29.487513 166.71458Q29.690638 167.24583 29.690638 167.87083Q29.690638 168.90208 29.190638 169.44896Q28.690638 169.99583 27.909388 169.99583Q27.456263 169.99583 27.081263 169.79271Q26.690638 169.58958 26.471888 169.24583Q26.237513 168.90208 26.128138 168.48021Q26.034388 168.18333 25.956263 167.54271Q25.815638 166.27708 25.596888 165.66771Q25.378138 165.66771 25.331263 165.66771Q24.675013 165.66771 24.409388 165.96458Q24.065638 166.37083 24.065638 167.16771Q24.065638 167.90208 24.331263 168.26146Q24.581263 168.62083 25.237513 168.79271L25.096888 169.82396Q24.440638 169.68333 24.034388 169.35521Q23.628138 169.02708 23.409388 168.41771Q23.190638 167.80833 23.190638 167.01146Q23.190638 166.21458 23.378138 165.71458Q23.565638 165.21458 23.846888 164.98021Q24.128138 164.74583 24.565638 164.65208Q24.831263 164.60521 25.534388 164.60521L26.940638 164.60521Q28.409388 164.60521 28.800013 164.54271Q29.190638 164.46458 29.550013 164.26146L29.550013 165.37083Q29.221888 165.52708 28.784388 165.57396ZM26.425013 165.66771Q26.659388 166.24583 26.831263 167.38646Q26.925013 168.04271 27.050013 168.30833Q27.159388 168.57396 27.378138 168.73021Q27.596888 168.87083 27.878138 168.87083Q28.300013 168.87083 28.581263 168.55833Q28.862513 168.23021 28.862513 167.62083Q28.862513 167.01146 28.596888 166.54271Q28.331263 166.05833 27.862513 165.83958Q27.503138 165.66771 26.815638 165.66771L26.425013 165.66771ZM31.940638 160.87083L31.940638 163.19896L31.065638 163.19896L31.065638 161.93333L21.831263 161.93333L21.831263 163.19896L20.956263 163.19896L20.956263 160.87083L31.940638 160.87083Z" fill-rule="nonzero"/><path fill="#000000" d="M72.05 300.21564Q72.05 298.6844 72.3625 297.7625Q72.675 296.825 73.28438 296.325Q73.90938 295.825 74.84688 295.825Q75.53438 295.825 76.05 296.10626Q76.58125 296.3875 76.925 296.91876Q77.26875 297.4344 77.45625 298.1844Q77.64375 298.9344 77.64375 300.21564Q77.64375 301.73126 77.33125 302.65314Q77.03438 303.575 76.40938 304.09064Q75.8 304.59064 74.84688 304.59064Q73.6125 304.59064 72.89375 303.7Q72.05 302.6375 72.05 300.21564ZM73.12813 300.21564Q73.12813 302.325 73.62813 303.02814Q74.12813 303.73126 74.84688 303.73126Q75.58125 303.73126 76.06563 303.02814Q76.56563 302.325 76.56563 300.21564Q76.56563 298.09064 76.06563 297.40314Q75.58125 296.7 74.83125 296.7Q74.1125 296.7 73.675 297.3094Q73.12813 298.09064 73.12813 300.21564Z" fill-rule="nonzero"/><path fill="#000000" d="M58.05 259.19333L59.159374 259.09958Q59.284374 259.91208 59.721874 260.31833Q60.175 260.72458 60.815624 260.72458Q61.565624 260.72458 62.096874 260.14645Q62.628124 259.56833 62.628124 258.63083Q62.628124 257.72458 62.1125 257.20895Q61.6125 256.6777 60.784374 256.6777Q60.284374 256.6777 59.8625 256.91208Q59.45625 257.14645 59.221874 257.50583L58.2375 257.38083L59.065624 252.97458L63.346874 252.97458L63.346874 253.97458L59.909374 253.97458L59.45625 256.28708Q60.221874 255.7402 61.065624 255.7402Q62.190624 255.7402 62.95625 256.52145Q63.7375 257.3027 63.7375 258.53708Q63.7375 259.69333 63.065624 260.5527Q62.2375 261.58395 60.815624 261.58395Q59.64375 261.58395 58.89375 260.9277Q58.159374 260.27145 58.05 259.19333ZM65.05 257.20895Q65.05 255.6777 65.3625 254.75583Q65.675 253.81833 66.28438 253.31833Q66.90938 252.81833 67.84688 252.81833Q68.53438 252.81833 69.05 253.09958Q69.58125 253.38083 69.925 253.91208Q70.26875 254.4277 70.45625 255.1777Q70.64375 255.9277 70.64375 257.20895Q70.64375 258.72458 70.33125 259.64645Q70.03438 260.56833 69.40938 261.08395Q68.8 261.58395 67.84688 261.58395Q66.6125 261.58395 65.89375 260.69333Q65.05 259.63083 65.05 257.20895ZM66.12813 257.20895Q66.12813 259.31833 66.62813 260.02145Q67.12813 260.72458 67.84688 260.72458Q68.58125 260.72458 69.06563 260.02145Q69.56563 259.31833 69.56563 257.20895Q69.56563 255.08395 69.06563 254.39645Q68.58125 253.69333 67.83125 253.69333Q67.1125 253.69333 66.675 254.3027Q66.12813 255.08395 66.12813 257.20895ZM72.05 257.20895Q72.05 255.6777 72.3625 254.75583Q72.675 253.81833 73.28438 253.31833Q73.90938 252.81833 74.84688 252.81833Q75.53438 252.81833 76.05 253.09958Q76.58125 253.38083 76.925 253.91208Q77.26875 254.4277 77.45625 255.1777Q77.64375 255.9277 77.64375 257.20895Q77.64375 258.72458 77.33125 259.64645Q77.03438 260.56833 76.40938 261.08395Q75.8 261.58395 74.84688 261.58395Q73.6125 261.58395 72.89375 260.69333Q72.05 259.63083 72.05 257.20895ZM73.12813 257.20895Q73.12813 259.31833 73.62813 260.02145Q74.12813 260.72458 74.84688 260.72458Q75.58125 260.72458 76.06563 260.02145Q76.56563 259.31833 76.56563 257.20895Q76.56563 255.08395 76.06563 254.39645Q75.58125 253.69333 74.83125 253.69333Q74.1125 253.69333 73.675 254.3027Q73.12813 255.08395 73.12813 257.20895Z" fill-rule="nonzero"/><path fill="#000000" d="M55.01875 218.43666L53.971874 218.43666L53.971874 211.71791Q53.58125 212.07729 52.95625 212.45229Q52.346874 212.81166 51.8625 212.98354L51.8625 211.96791Q52.7375 211.54604 53.39375 210.96791Q54.065624 210.37416 54.346874 209.81166L55.01875 209.81166L55.01875 218.43666ZM58.05 214.20229Q58.05 212.67104 58.3625 211.74916Q58.675 210.81166 59.284374 210.31166Q59.909374 209.81166 60.846874 209.81166Q61.534374 209.81166 62.05 210.09291Q62.58125 210.37416 62.925 210.90541Q63.26875 211.42104 63.45625 212.17104Q63.64375 212.92104 63.64375 214.20229Q63.64375 215.71791 63.33125 216.63979Q63.034374 217.56166 62.409374 218.07729Q61.8 218.57729 60.846874 218.57729Q59.6125 218.57729 58.89375 217.68666Q58.05 216.62416 58.05 214.20229ZM59.128124 214.20229Q59.128124 216.31166 59.628124 217.01479Q60.128124 217.71791 60.846874 217.71791Q61.58125 217.71791 62.065624 217.01479Q62.565624 216.31166 62.565624 214.20229Q62.565624 212.07729 62.065624 211.38979Q61.58125 210.68666 60.83125 210.68666Q60.1125 210.68666 59.675 211.29604Q59.128124 212.07729 59.128124 214.20229ZM65.05 214.20229Q65.05 212.67104 65.3625 211.74916Q65.675 210.81166 66.28438 210.31166Q66.90938 209.81166 67.84688 209.81166Q68.53438 209.81166 69.05 210.09291Q69.58125 210.37416 69.925 210.90541Q70.26875 211.42104 70.45625 212.17104Q70.64375 212.92104 70.64375 214.20229Q70.64375 215.71791 70.33125 216.63979Q70.03438 217.56166 69.40938 218.07729Q68.8 218.57729 67.84688 218.57729Q66.6125 218.57729 65.89375 217.68666Q65.05 216.62416 65.05 214.20229ZM66.12813 214.20229Q66.12813 216.31166 66.62813 217.01479Q67.12813 217.71791 67.84688 217.71791Q68.58125 217.71791 69.06563 217.01479Q69.56563 216.31166 69.56563 214.20229Q69.56563 212.07729 69.06563 211.38979Q68.58125 210.68666 67.83125 210.68666Q67.1125 210.68666 66.675 211.29604Q66.12813 212.07729 66.12813 214.20229ZM72.05 214.20229Q72.05 212.67104 72.3625 211.74916Q72.675 210.81166 73.28438 210.31166Q73.90938 209.81166 74.84688 209.81166Q75.53438 209.81166 76.05 210.09291Q76.58125 210.37416 76.925 210.90541Q77.26875 211.42104 77.45625 212.17104Q77.64375 212.92104 77.64375 214.20229Q77.64375 215.71791 77.33125 216.63979Q77.03438 217.56166 76.40938 218.07729Q75.8 218.57729 74.84688 218.57729Q73.6125 218.57729 72.89375 217.68666Q72.05 216.62416 72.05 214.20229ZM73.12813 214.20229Q73.12813 216.31166 73.62813 217.01479Q74.12813 217.71791 74.84688 217.71791Q75.58125 217.71791 76.06563 217.01479Q76.56563 216.31166 76.56563 214.20229Q76.56563 212.07729 76.06563 211.38979Q75.58125 210.68666 74.83125 210.68666Q74.1125 210.68666 73.675 211.29604Q73.12813 212.07729 73.12813 214.20229Z" fill-rule="nonzero"/><path fill="#000000" d="M55.01875 175.43L53.971874 175.43L53.971874 168.71124Q53.58125 169.07062 52.95625 169.44562Q52.346874 169.805 51.8625 169.97687L51.8625 168.96124Q52.7375 168.53937 53.39375 167.96124Q54.065624 167.3675 54.346874 166.805L55.01875 166.805L55.01875 175.43ZM58.05 173.18L59.159374 173.08624Q59.284374 173.89874 59.721874 174.305Q60.175 174.71124 60.815624 174.71124Q61.565624 174.71124 62.096874 174.13312Q62.628124 173.555 62.628124 172.6175Q62.628124 171.71124 62.1125 171.19562Q61.6125 170.66437 60.784374 170.66437Q60.284374 170.66437 59.8625 170.89874Q59.45625 171.13312 59.221874 171.4925L58.2375 171.3675L59.065624 166.96124L63.346874 166.96124L63.346874 167.96124L59.909374 167.96124L59.45625 170.27374Q60.221874 169.72687 61.065624 169.72687Q62.190624 169.72687 62.95625 170.50812Q63.7375 171.28937 63.7375 172.52374Q63.7375 173.68 63.065624 174.53937Q62.2375 175.57062 60.815624 175.57062Q59.64375 175.57062 58.89375 174.91437Q58.159374 174.25812 58.05 173.18ZM65.05 171.19562Q65.05 169.66437 65.3625 168.7425Q65.675 167.805 66.28438 167.305Q66.90938 166.805 67.84688 166.805Q68.53438 166.805 69.05 167.08624Q69.58125 167.3675 69.925 167.89874Q70.26875 168.41437 70.45625 169.16437Q70.64375 169.91437 70.64375 171.19562Q70.64375 172.71124 70.33125 173.63312Q70.03438 174.555 69.40938 175.07062Q68.8 175.57062 67.84688 175.57062Q66.6125 175.57062 65.89375 174.68Q65.05 173.6175 65.05 171.19562ZM66.12813 171.19562Q66.12813 173.305 66.62813 174.00812Q67.12813 174.71124 67.84688 174.71124Q68.58125 174.71124 69.06563 174.00812Q69.56563 173.305 69.56563 171.19562Q69.56563 169.07062 69.06563 168.38312Q68.58125 167.68 67.83125 167.68Q67.1125 167.68 66.675 168.28937Q66.12813 169.07062 66.12813 171.19562ZM72.05 171.19562Q72.05 169.66437 72.3625 168.7425Q72.675 167.805 73.28438 167.305Q73.90938 166.805 74.84688 166.805Q75.53438 166.805 76.05 167.08624Q76.58125 167.3675 76.925 167.89874Q77.26875 168.41437 77.45625 169.16437Q77.64375 169.91437 77.64375 171.19562Q77.64375 172.71124 77.33125 173.63312Q77.03438 174.555 76.40938 175.07062Q75.8 175.57062 74.84688 175.57062Q73.6125 175.57062 72.89375 174.68Q72.05 173.6175 72.05 171.19562ZM73.12813 171.19562Q73.12813 173.305 73.62813 174.00812Q74.12813 174.71124 74.84688 174.71124Q75.58125 174.71124 76.06563 174.00812Q76.56563 173.305 76.56563 171.19562Q76.56563 169.07062 76.06563 168.38312Q75.58125 167.68 74.83125 167.68Q74.1125 167.68 73.675 168.28937Q73.12813 169.07062 73.12813 171.19562Z" fill-rule="nonzero"/><path fill="#000000" d="M56.596874 131.40771L56.596874 132.42334L50.909374 132.42334Q50.909374 132.04834 51.034374 131.68896Q51.253124 131.11084 51.721874 130.54834Q52.20625 129.98584 53.1125 129.25146Q54.51875 128.09521 55.003124 127.42334Q55.503124 126.751465 55.503124 126.157715Q55.503124 125.532715 55.05 125.11084Q54.596874 124.67334 53.878124 124.67334Q53.1125 124.67334 52.659374 125.126465Q52.20625 125.57959 52.190624 126.39209L51.1125 126.282715Q51.221874 125.063965 51.940624 124.438965Q52.675 123.79834 53.909374 123.79834Q55.14375 123.79834 55.8625 124.48584Q56.58125 125.17334 56.58125 126.188965Q56.58125 126.70459 56.3625 127.20459Q56.159374 127.688965 55.659374 128.25146Q55.175 128.79834 54.05 129.75146Q53.096874 130.54834 52.815624 130.84521Q52.55 131.12646 52.378124 131.40771L56.596874 131.40771ZM58.05 128.18896Q58.05 126.657715 58.3625 125.73584Q58.675 124.79834 59.284374 124.29834Q59.909374 123.79834 60.846874 123.79834Q61.534374 123.79834 62.05 124.07959Q62.58125 124.36084 62.925 124.89209Q63.26875 125.407715 63.45625 126.157715Q63.64375 126.907715 63.64375 128.18896Q63.64375 129.70459 63.33125 130.62646Q63.034374 131.54834 62.409374 132.06396Q61.8 132.56396 60.846874 132.56396Q59.6125 132.56396 58.89375 131.67334Q58.05 130.61084 58.05 128.18896ZM59.128124 128.18896Q59.128124 130.29834 59.628124 131.00146Q60.128124 131.70459 60.846874 131.70459Q61.58125 131.70459 62.065624 131.00146Q62.565624 130.29834 62.565624 128.18896Q62.565624 126.063965 62.065624 125.376465Q61.58125 124.67334 60.83125 124.67334Q60.1125 124.67334 59.675 125.282715Q59.128124 126.063965 59.128124 128.18896ZM65.05 128.18896Q65.05 126.657715 65.3625 125.73584Q65.675 124.79834 66.28438 124.29834Q66.90938 123.79834 67.84688 123.79834Q68.53438 123.79834 69.05 124.07959Q69.58125 124.36084 69.925 124.89209Q70.26875 125.407715 70.45625 126.157715Q70.64375 126.907715 70.64375 128.18896Q70.64375 129.70459 70.33125 130.62646Q70.03438 131.54834 69.40938 132.06396Q68.8 132.56396 67.84688 132.56396Q66.6125 132.56396 65.89375 131.67334Q65.05 130.61084 65.05 128.18896ZM66.12813 128.18896Q66.12813 130.29834 66.62813 131.00146Q67.12813 131.70459 67.84688 131.70459Q68.58125 131.70459 69.06563 131.00146Q69.56563 130.29834 69.56563 128.18896Q69.56563 126.063965 69.06563 125.376465Q68.58125 124.67334 67.83125 124.67334Q67.1125 124.67334 66.675 125.282715Q66.12813 126.063965 66.12813 128.18896ZM72.05 128.18896Q72.05 126.657715 72.3625 125.73584Q72.675 124.79834 73.28438 124.29834Q73.90938 123.79834 74.84688 123.79834Q75.53438 123.79834 76.05 124.07959Q76.58125 124.36084 76.925 124.89209Q77.26875 125.407715 77.45625 126.157715Q77.64375 126.907715 77.64375 128.18896Q77.64375 129.70459 77.33125 130.62646Q77.03438 131.54834 76.40938 132.06396Q75.8 132.56396 74.84688 132.56396Q73.6125 132.56396 72.89375 131.67334Q72.05 130.61084 72.05 128.18896ZM73.12813 128.18896Q73.12813 130.29834 73.62813 131.00146Q74.12813 131.70459 74.84688 131.70459Q75.58125 131.70459 76.06563 131.00146Q76.56563 130.29834 76.56563 128.18896Q76.56563 126.063965 76.06563 125.376465Q75.58125 124.67334 74.83125 124.67334Q74.1125 124.67334 73.675 125.282715Q73.12813 126.063965 73.12813 128.18896Z" fill-rule="nonzero"/><path fill="#000000" d="M56.596874 88.40104L56.596874 89.416664L50.909374 89.416664Q50.909374 89.041664 51.034374 88.68229Q51.253124 88.104164 51.721874 87.541664Q52.20625 86.979164 53.1125 86.24479Q54.51875 85.08854 55.003124 84.416664Q55.503124 83.74479 55.503124 83.15104Q55.503124 82.52604 55.05 82.104164Q54.596874 81.666664 53.878124 81.666664Q53.1125 81.666664 52.659374 82.11979Q52.20625 82.572914 52.190624 83.385414L51.1125 83.27604Q51.221874 82.05729 51.940624 81.43229Q52.675 80.791664 53.909374 80.791664Q55.14375 80.791664 55.8625 81.479164Q56.58125 82.166664 56.58125 83.18229Q56.58125 83.697914 56.3625 84.197914Q56.159374 84.68229 55.659374 85.24479Q55.175 85.791664 54.05 86.74479Q53.096874 87.541664 52.815624 87.83854Q52.55 88.11979 52.378124 88.40104L56.596874 88.40104ZM58.05 87.166664L59.159374 87.072914Q59.284374 87.885414 59.721874 88.291664Q60.175 88.697914 60.815624 88.697914Q61.565624 88.697914 62.096874 88.11979Q62.628124 87.541664 62.628124 86.604164Q62.628124 85.697914 62.1125 85.18229Q61.6125 84.65104 60.784374 84.65104Q60.284374 84.65104 59.8625 84.885414Q59.45625 85.11979 59.221874 85.479164L58.2375 85.354164L59.065624 80.947914L63.346874 80.947914L63.346874 81.947914L59.909374 81.947914L59.45625 84.260414Q60.221874 83.71354 61.065624 83.71354Q62.190624 83.71354 62.95625 84.49479Q63.7375 85.27604 63.7375 86.510414Q63.7375 87.666664 63.065624 88.52604Q62.2375 89.55729 60.815624 89.55729Q59.64375 89.55729 58.89375 88.90104Q58.159374 88.24479 58.05 87.166664ZM65.05 85.18229Q65.05 83.65104 65.3625 82.729164Q65.675 81.791664 66.28438 81.291664Q66.90938 80.791664 67.84688 80.791664Q68.53438 80.791664 69.05 81.072914Q69.58125 81.354164 69.925 81.885414Q70.26875 82.40104 70.45625 83.15104Q70.64375 83.90104 70.64375 85.18229Q70.64375 86.697914 70.33125 87.61979Q70.03438 88.541664 69.40938 89.05729Q68.8 89.55729 67.84688 89.55729Q66.6125 89.55729 65.89375 88.666664Q65.05 87.604164 65.05 85.18229ZM66.12813 85.18229Q66.12813 87.291664 66.62813 87.99479Q67.12813 88.697914 67.84688 88.697914Q68.58125 88.697914 69.06563 87.99479Q69.56563 87.291664 69.56563 85.18229Q69.56563 83.05729 69.06563 82.36979Q68.58125 81.666664 67.83125 81.666664Q67.1125 81.666664 66.675 82.27604Q66.12813 83.05729 66.12813 85.18229ZM72.05 85.18229Q72.05 83.65104 72.3625 82.729164Q72.675 81.791664 73.28438 81.291664Q73.90938 80.791664 74.84688 80.791664Q75.53438 80.791664 76.05 81.072914Q76.58125 81.354164 76.925 81.885414Q77.26875 82.40104 77.45625 83.15104Q77.64375 83.90104 77.64375 85.18229Q77.64375 86.697914 77.33125 87.61979Q77.03438 88.541664 76.40938 89.05729Q75.8 89.55729 74.84688 89.55729Q73.6125 89.55729 72.89375 88.666664Q72.05 87.604164 72.05 85.18229ZM73.12813 85.18229Q73.12813 87.291664 73.62813 87.99479Q74.12813 88.697914 74.84688 88.697914Q75.58125 88.697914 76.06563 87.99479Q76.56563 87.291664 76.56563 85.18229Q76.56563 83.05729 76.06563 82.36979Q75.58125 81.666664 74.83125 81.666664Q74.1125 81.666664 73.675 82.27604Q73.12813 83.05729 73.12813 85.18229Z" fill-rule="nonzero"/><path fill="#000000" d="M73.05 313.21564Q73.05 311.6844 73.3625 310.7625Q73.675 309.825 74.28438 309.325Q74.90938 308.825 75.84688 308.825Q76.53438 308.825 77.05 309.10626Q77.58125 309.3875 77.925 309.91876Q78.26875 310.4344 78.45625 311.1844Q78.64375 311.9344 78.64375 313.21564Q78.64375 314.73126 78.33125 315.65314Q78.03438 316.575 77.40938 317.09064Q76.8 317.59064 75.84688 317.59064Q74.6125 317.59064 73.89375 316.7Q73.05 315.6375 73.05 313.21564ZM74.12813 313.21564Q74.12813 315.325 74.62813 316.02814Q75.12813 316.73126 75.84688 316.73126Q76.58125 316.73126 77.06563 316.02814Q77.56563 315.325 77.56563 313.21564Q77.56563 311.09064 77.06563 310.40314Q76.58125 309.7 75.83125 309.7Q75.1125 309.7 74.675 310.3094Q74.12813 311.09064 74.12813 313.21564ZM80.64375 317.45L80.64375 316.2469L81.84688 316.2469L81.84688 317.45L80.64375 317.45ZM83.05 313.21564Q83.05 311.6844 83.3625 310.7625Q83.675 309.825 84.28438 309.325Q84.90938 308.825 85.84688 308.825Q86.53438 308.825 87.05 309.10626Q87.58125 309.3875 87.925 309.91876Q88.26875 310.4344 88.45625 311.1844Q88.64375 311.9344 88.64375 313.21564Q88.64375 314.73126 88.33125 315.65314Q88.03438 316.575 87.40938 317.09064Q86.8 317.59064 85.84688 317.59064Q84.6125 317.59064 83.89375 316.7Q83.05 315.6375 83.05 313.21564ZM84.12813 313.21564Q84.12813 315.325 84.62813 316.02814Q85.12813 316.73126 85.84688 316.73126Q86.58125 316.73126 87.06563 316.02814Q87.56563 315.325 87.56563 313.21564Q87.56563 311.09064 87.06563 310.40314Q86.58125 309.7 85.83125 309.7Q85.1125 309.7 84.675 310.3094Q84.12813 311.09064 84.12813 313.21564ZM90.05 313.21564Q90.05 311.6844 90.3625 310.7625Q90.675 309.825 91.28438 309.325Q91.90938 308.825 92.84688 308.825Q93.53438 308.825 94.05 309.10626Q94.58125 309.3875 94.925 309.91876Q95.26875 310.4344 95.45625 311.1844Q95.64375 311.9344 95.64375 313.21564Q95.64375 314.73126 95.33125 315.65314Q95.03438 316.575 94.40938 317.09064Q93.8 317.59064 92.84688 317.59064Q91.6125 317.59064 90.89375 316.7Q90.05 315.6375 90.05 313.21564ZM91.12813 313.21564Q91.12813 315.325 91.62813 316.02814Q92.12813 316.73126 92.84688 316.73126Q93.58125 316.73126 94.06563 316.02814Q94.56563 315.325 94.56563 313.21564Q94.56563 311.09064 94.06563 310.40314Q93.58125 309.7 92.83125 309.7Q92.1125 309.7 91.675 310.3094Q91.12813 311.09064 91.12813 313.21564Z" fill-rule="nonzero"/><path fill="#000000" d="M199.74394 313.21564Q199.74394 311.6844 200.05644 310.7625Q200.36894 309.825 200.97832 309.325Q201.60332 308.825 202.54082 308.825Q203.22832 308.825 203.74394 309.10626Q204.27519 309.3875 204.61894 309.91876Q204.96269 310.4344 205.15019 311.1844Q205.33769 311.9344 205.33769 313.21564Q205.33769 314.73126 205.02519 315.65314Q204.72832 316.575 204.10332 317.09064Q203.49394 317.59064 202.54082 317.59064Q201.30644 317.59064 200.58769 316.7Q199.74394 315.6375 199.74394 313.21564ZM200.82207 313.21564Q200.82207 315.325 201.32207 316.02814Q201.82207 316.73126 202.54082 316.73126Q203.27519 316.73126 203.75957 316.02814Q204.25957 315.325 204.25957 313.21564Q204.25957 311.09064 203.75957 310.40314Q203.27519 309.7 202.52519 309.7Q201.80644 309.7 201.36894 310.3094Q200.82207 311.09064 200.82207 313.21564ZM207.33769 317.45L207.33769 316.2469L208.54082 316.2469L208.54082 317.45L207.33769 317.45ZM209.74394 313.21564Q209.74394 311.6844 210.05644 310.7625Q210.36894 309.825 210.97832 309.325Q211.60332 308.825 212.54082 308.825Q213.22832 308.825 213.74394 309.10626Q214.27519 309.3875 214.61894 309.91876Q214.96269 310.4344 215.15019 311.1844Q215.33769 311.9344 215.33769 313.21564Q215.33769 314.73126 215.02519 315.65314Q214.72832 316.575 214.10332 317.09064Q213.49394 317.59064 212.54082 317.59064Q211.30644 317.59064 210.58769 316.7Q209.74394 315.6375 209.74394 313.21564ZM210.82207 313.21564Q210.82207 315.325 211.32207 316.02814Q211.82207 316.73126 212.54082 316.73126Q213.27519 316.73126 213.75957 316.02814Q214.25957 315.325 214.25957 313.21564Q214.25957 311.09064 213.75957 310.40314Q213.27519 309.7 212.52519 309.7Q211.80644 309.7 211.36894 310.3094Q210.82207 311.09064 210.82207 313.21564ZM220.71269 317.45L219.66582 317.45L219.66582 310.73126Q219.27519 311.09064 218.65019 311.46564Q218.04082 311.825 217.55644 311.9969L217.55644 310.98126Q218.43144 310.5594 219.08769 309.98126Q219.75957 309.3875 220.04082 308.825L220.71269 308.825L220.71269 317.45Z" fill-rule="nonzero"/><path fill="#000000" d="M326.4379 313.21564Q326.4379 311.6844 326.7504 310.7625Q327.0629 309.825 327.67227 309.325Q328.29727 308.825 329.23477 308.825Q329.92227 308.825 330.4379 309.10626Q330.96915 309.3875 331.3129 309.91876Q331.65665 310.4344 331.84415 311.1844Q332.03165 311.9344 332.03165 313.21564Q332.03165 314.73126 331.71915 315.65314Q331.42227 316.575 330.79727 317.09064Q330.1879 317.59064 329.23477 317.59064Q328.0004 317.59064 327.28165 316.7Q326.4379 315.6375 326.4379 313.21564ZM327.51602 313.21564Q327.51602 315.325 328.01602 316.02814Q328.51602 316.73126 329.23477 316.73126Q329.96915 316.73126 330.45352 316.02814Q330.95352 315.325 330.95352 313.21564Q330.95352 311.09064 330.45352 310.40314Q329.96915 309.7 329.21915 309.7Q328.5004 309.7 328.0629 310.3094Q327.51602 311.09064 327.51602 313.21564ZM334.03165 317.45L334.03165 316.2469L335.23477 316.2469L335.23477 317.45L334.03165 317.45ZM336.4379 313.21564Q336.4379 311.6844 336.7504 310.7625Q337.0629 309.825 337.67227 309.325Q338.29727 308.825 339.23477 308.825Q339.92227 308.825 340.4379 309.10626Q340.96915 309.3875 341.3129 309.91876Q341.65665 310.4344 341.84415 311.1844Q342.03165 311.9344 342.03165 313.21564Q342.03165 314.73126 341.71915 315.65314Q341.42227 316.575 340.79727 317.09064Q340.1879 317.59064 339.23477 317.59064Q338.0004 317.59064 337.28165 316.7Q336.4379 315.6375 336.4379 313.21564ZM337.51602 313.21564Q337.51602 315.325 338.01602 316.02814Q338.51602 316.73126 339.23477 316.73126Q339.96915 316.73126 340.45352 316.02814Q340.95352 315.325 340.95352 313.21564Q340.95352 311.09064 340.45352 310.40314Q339.96915 309.7 339.21915 309.7Q338.5004 309.7 338.0629 310.3094Q337.51602 311.09064 337.51602 313.21564ZM348.98477 316.4344L348.98477 317.45L343.29727 317.45Q343.29727 317.075 343.42227 316.71564Q343.64102 316.1375 344.10977 315.575Q344.59415 315.0125 345.5004 314.27814Q346.90665 313.1219 347.39102 312.45Q347.89102 311.77814 347.89102 311.1844Q347.89102 310.5594 347.4379 310.1375Q346.98477 309.7 346.26602 309.7Q345.5004 309.7 345.04727 310.15314Q344.59415 310.60626 344.57852 311.41876L343.5004 311.3094Q343.60977 310.09064 344.32852 309.46564Q345.0629 308.825 346.29727 308.825Q347.53165 308.825 348.2504 309.5125Q348.96915 310.2 348.96915 311.21564Q348.96915 311.73126 348.7504 312.23126Q348.54727 312.71564 348.04727 313.27814Q347.5629 313.825 346.4379 314.77814Q345.48477 315.575 345.20352 315.8719Q344.9379 316.15314 344.76602 316.4344L348.98477 316.4344Z" fill-rule="nonzero"/><path fill="#000000" d="M453.13184 313.21564Q453.13184 311.6844 453.44434 310.7625Q453.75684 309.825 454.3662 309.325Q454.9912 308.825 455.9287 308.825Q456.6162 308.825 457.13184 309.10626Q457.6631 309.3875 458.00684 309.91876Q458.3506 310.4344 458.5381 311.1844Q458.7256 311.9344 458.7256 313.21564Q458.7256 314.73126 458.4131 315.65314Q458.1162 316.575 457.4912 317.09064Q456.88184 317.59064 455.9287 317.59064Q454.69434 317.59064 453.9756 316.7Q453.13184 315.6375 453.13184 313.21564ZM454.20996 313.21564Q454.20996 315.325 454.70996 316.02814Q455.20996 316.73126 455.9287 316.73126Q456.6631 316.73126 457.14746 316.02814Q457.64746 315.325 457.64746 313.21564Q457.64746 311.09064 457.14746 310.40314Q456.6631 309.7 455.9131 309.7Q455.19434 309.7 454.75684 310.3094Q454.20996 311.09064 454.20996 313.21564ZM460.7256 317.45L460.7256 316.2469L461.9287 316.2469L461.9287 317.45L460.7256 317.45ZM463.13184 313.21564Q463.13184 311.6844 463.44434 310.7625Q463.75684 309.825 464.3662 309.325Q464.9912 308.825 465.9287 308.825Q466.6162 308.825 467.13184 309.10626Q467.6631 309.3875 468.00684 309.91876Q468.3506 310.4344 468.5381 311.1844Q468.7256 311.9344 468.7256 313.21564Q468.7256 314.73126 468.4131 315.65314Q468.1162 316.575 467.4912 317.09064Q466.88184 317.59064 465.9287 317.59064Q464.69434 317.59064 463.9756 316.7Q463.13184 315.6375 463.13184 313.21564ZM464.20996 313.21564Q464.20996 315.325 464.70996 316.02814Q465.20996 316.73126 465.9287 316.73126Q466.6631 316.73126 467.14746 316.02814Q467.64746 315.325 467.64746 313.21564Q467.64746 311.09064 467.14746 310.40314Q466.6631 309.7 465.9131 309.7Q465.19434 309.7 464.75684 310.3094Q464.20996 311.09064 464.20996 313.21564ZM470.13184 315.1844L471.19434 315.04376Q471.3662 315.9344 471.8037 316.34064Q472.2412 316.73126 472.8662 316.73126Q473.6162 316.73126 474.13184 316.21564Q474.64746 315.7 474.64746 314.9344Q474.64746 314.21564 474.1631 313.7469Q473.69434 313.2625 472.95996 313.2625Q472.6631 313.2625 472.20996 313.3875L472.33496 312.45Q472.44434 312.46564 472.50684 312.46564Q473.1787 312.46564 473.70996 312.1219Q474.25684 311.7625 474.25684 311.02814Q474.25684 310.45 473.8662 310.075Q473.4756 309.6844 472.8506 309.6844Q472.2412 309.6844 471.81934 310.075Q471.4131 310.46564 471.3037 311.23126L470.2412 311.04376Q470.4287 309.9969 471.1162 309.41876Q471.8037 308.825 472.81934 308.825Q473.52246 308.825 474.1162 309.1375Q474.70996 309.4344 475.02246 309.95Q475.33496 310.46564 475.33496 311.0594Q475.33496 311.60626 475.0381 312.075Q474.7412 312.52814 474.1631 312.79376Q474.9131 312.96564 475.33496 313.52814Q475.75684 314.075 475.75684 314.91876Q475.75684 316.04376 474.9287 316.825Q474.1162 317.60626 472.8662 317.60626Q471.7412 317.60626 470.9912 316.9344Q470.2412 316.2469 470.13184 315.1844Z" fill-rule="nonzero"/><path fill="#000000" d="M199.125 63.05L199.125 54.20625L195.82812 54.20625L195.82812 53.034374L203.76562 53.034374L203.76562 54.20625L200.45312 54.20625L200.45312 63.05L199.125 63.05ZM205.40625 63.05L205.40625 55.784374L206.51562 55.784374L206.51562 56.89375Q206.9375 56.1125 207.29688 55.878124Q207.65625 55.628124 208.09375 55.628124Q208.71875 55.628124 209.35938 56.01875L208.9375 57.159374Q208.48438 56.89375 208.03125 56.89375Q207.625 56.89375 207.29688 57.14375Q206.98438 57.378124 206.84375 57.815624Q206.64062 58.471874 206.64062 59.253124L206.64062 63.05L205.40625 63.05ZM215.15625 62.159374Q214.48438 62.7375 213.84375 62.9875Q213.21875 63.221874 212.48438 63.221874Q211.29688 63.221874 210.64062 62.64375Q210.0 62.05 210.0 61.128124Q210.0 60.596874 210.23438 60.159374Q210.48438 59.721874 210.875 59.45625Q211.28125 59.190624 211.76562 59.05Q212.125 58.95625 212.85938 58.8625Q214.35938 58.690624 215.0625 58.440624Q215.0625 58.190624 215.0625 58.128124Q215.0625 57.3625 214.71875 57.065624Q214.25 56.64375 213.3125 56.64375Q212.45312 56.64375 212.03125 56.95625Q211.625 57.253124 211.42188 58.01875L210.21875 57.8625Q210.375 57.08125 210.75 56.6125Q211.14062 56.14375 211.84375 55.89375Q212.5625 55.628124 213.5 55.628124Q214.42188 55.628124 215.0 55.846874Q215.57812 56.065624 215.84375 56.39375Q216.125 56.721874 216.23438 57.2375Q216.29688 57.55 216.29688 58.3625L216.29688 60.003124Q216.29688 61.721874 216.375 62.175Q216.45312 62.628124 216.6875 63.05L215.40625 63.05Q215.21875 62.659374 215.15625 62.159374ZM215.0625 59.409374Q214.39062 59.675 213.04688 59.878124Q212.29688 59.9875 211.96875 60.128124Q211.65625 60.253124 211.48438 60.51875Q211.3125 60.784374 211.3125 61.096874Q211.3125 61.596874 211.6875 61.925Q212.0625 62.253124 212.78125 62.253124Q213.5 62.253124 214.04688 61.940624Q214.59375 61.628124 214.85938 61.08125Q215.0625 60.675 215.0625 59.8625L215.0625 59.409374ZM223.15625 60.39375L224.375 60.55Q224.17188 61.8 223.34375 62.51875Q222.53125 63.221874 221.34375 63.221874Q219.85938 63.221874 218.95312 62.253124Q218.04688 61.26875 218.04688 59.440624Q218.04688 58.26875 218.4375 57.39375Q218.82812 56.503124 219.625 56.065624Q220.42188 55.628124 221.35938 55.628124Q222.53125 55.628124 223.28125 56.221874Q224.04688 56.815624 224.25 57.925L223.0625 58.1125Q222.89062 57.378124 222.45312 57.01875Q222.01562 56.64375 221.40625 56.64375Q220.46875 56.64375 219.89062 57.315624Q219.3125 57.971874 219.3125 59.409374Q219.3125 60.878124 219.875 61.55Q220.4375 62.20625 221.32812 62.20625Q222.0625 62.20625 222.54688 61.76875Q223.03125 61.315624 223.15625 60.39375ZM228.10938 61.95625L228.28125 63.034374Q227.76562 63.14375 227.35938 63.14375Q226.6875 63.14375 226.3125 62.940624Q225.95312 62.721874 225.79688 62.378124Q225.65625 62.034374 225.65625 60.925L225.65625 56.753124L224.75 56.753124L224.75 55.784374L225.65625 55.784374L225.65625 53.9875L226.875 53.253124L226.875 55.784374L228.10938 55.784374L228.10938 56.753124L226.875 56.753124L226.875 60.9875Q226.875 61.51875 226.9375 61.675Q227.0 61.815624 227.14062 61.909374Q227.29688 62.003124 227.5625 62.003124Q227.78125 62.003124 228.10938 61.95625ZM229.4375 54.440624L229.4375 53.034374L230.65625 53.034374L230.65625 54.440624L229.4375 54.440624ZM229.4375 63.05L229.4375 55.784374L230.65625 55.784374L230.65625 63.05L229.4375 63.05ZM231.96875 59.425Q231.96875 57.409374 233.09375 56.425Q234.01562 55.628124 235.375 55.628124Q236.85938 55.628124 237.8125 56.6125Q238.76562 57.58125 238.76562 59.315624Q238.76562 60.721874 238.34375 61.534374Q237.92188 62.33125 237.10938 62.784374Q236.3125 63.221874 235.375 63.221874Q233.84375 63.221874 232.90625 62.2375Q231.96875 61.253124 231.96875 59.425ZM233.23438 59.425Q233.23438 60.815624 233.84375 61.51875Q234.45312 62.20625 235.375 62.20625Q236.28125 62.20625 236.89062 61.503124Q237.5 60.8 237.5 59.378124Q237.5 58.034374 236.89062 57.346874Q236.28125 56.64375 235.375 56.64375Q234.45312 56.64375 233.84375 57.33125Q233.23438 58.01875 233.23438 59.425ZM240.42188 63.05L240.42188 55.784374L241.53125 55.784374L241.53125 56.815624Q242.32812 55.628124 243.84375 55.628124Q244.5 55.628124 245.04688 55.8625Q245.59375 56.096874 245.85938 56.4875Q246.14062 56.8625 246.25 57.39375Q246.32812 57.7375 246.32812 58.58125L246.32812 63.05L245.09375 63.05L245.09375 58.628124Q245.09375 57.878124 244.95312 57.51875Q244.8125 57.14375 244.4375 56.925Q244.07812 56.690624 243.57812 56.690624Q242.79688 56.690624 242.21875 57.190624Q241.65625 57.690624 241.65625 59.08125L241.65625 63.05L240.42188 63.05ZM247.9375 60.034374L247.9375 58.8L251.71875 58.8L251.71875 60.034374L247.9375 60.034374ZM253.125 59.83125L254.375 59.721874Q254.46875 60.471874 254.79688 60.95625Q255.125 61.440624 255.79688 61.7375Q256.48438 62.034374 257.34375 62.034374Q258.09375 62.034374 258.67188 61.815624Q259.26562 61.58125 259.54688 61.190624Q259.82812 60.8 259.82812 60.33125Q259.82812 59.8625 259.54688 59.51875Q259.28125 59.159374 258.65625 58.909374Q258.25 58.753124 256.85938 58.425Q255.48438 58.096874 254.9375 57.8Q254.21875 57.425 253.85938 56.878124Q253.51562 56.315624 253.51562 55.6125Q253.51562 54.8625 253.9375 54.20625Q254.375 53.534374 255.20312 53.20625Q256.03125 52.8625 257.04688 52.8625Q258.15625 52.8625 259.0 53.221874Q259.85938 53.58125 260.3125 54.284374Q260.76562 54.971874 260.8125 55.846874L259.53125 55.940624Q259.4375 55.003124 258.84375 54.51875Q258.25 54.01875 257.09375 54.01875Q255.89062 54.01875 255.34375 54.471874Q254.79688 54.909374 254.79688 55.534374Q254.79688 56.065624 255.1875 56.425Q255.5625 56.76875 257.17188 57.14375Q258.79688 57.503124 259.39062 57.76875Q260.26562 58.175 260.6875 58.8Q261.10938 59.409374 261.10938 60.221874Q261.10938 61.01875 260.64062 61.7375Q260.1875 62.440624 259.32812 62.83125Q258.46875 63.221874 257.40625 63.221874Q256.04688 63.221874 255.125 62.83125Q254.20312 62.425 253.67188 61.628124Q253.15625 60.83125 253.125 59.83125ZM267.39062 60.70625L268.67188 60.8625Q268.35938 61.9875 267.54688 62.6125Q266.73438 63.221874 265.46875 63.221874Q263.875 63.221874 262.9375 62.2375Q262.01562 61.253124 262.01562 59.4875Q262.01562 57.64375 262.95312 56.64375Q263.90625 55.628124 265.40625 55.628124Q266.85938 55.628124 267.78125 56.628124Q268.70312 57.6125 268.70312 59.409374Q268.70312 59.51875 268.70312 59.7375L263.28125 59.7375Q263.35938 60.925 263.95312 61.565624Q264.5625 62.20625 265.48438 62.20625Q266.15625 62.20625 266.625 61.846874Q267.10938 61.4875 267.39062 60.70625ZM263.35938 58.721874L267.40625 58.721874Q267.32812 57.8 266.9375 57.346874Q266.35938 56.64375 265.42188 56.64375Q264.5625 56.64375 263.98438 57.20625Q263.42188 57.76875 263.35938 58.721874ZM270.42188 65.83125L270.42188 55.784374L271.54688 55.784374L271.54688 56.7375Q271.9375 56.175 272.4375 55.909374Q272.9375 55.628124 273.65625 55.628124Q274.57812 55.628124 275.28125 56.1125Q276.0 56.58125 276.35938 57.45625Q276.71875 58.33125 276.71875 59.3625Q276.71875 60.471874 276.3125 61.378124Q275.92188 62.26875 275.15625 62.753124Q274.40625 63.221874 273.5625 63.221874Q272.95312 63.221874 272.45312 62.95625Q271.96875 62.690624 271.65625 62.3L271.65625 65.83125L270.42188 65.83125ZM271.53125 59.45625Q271.53125 60.8625 272.09375 61.534374Q272.67188 62.20625 273.48438 62.20625Q274.29688 62.20625 274.875 61.51875Q275.46875 60.815624 275.46875 59.3625Q275.46875 57.971874 274.89062 57.284374Q274.32812 56.596874 273.53125 56.596874Q272.75 56.596874 272.14062 57.33125Q271.53125 58.065624 271.53125 59.45625ZM283.15625 62.159374Q282.48438 62.7375 281.84375 62.9875Q281.21875 63.221874 280.48438 63.221874Q279.29688 63.221874 278.64062 62.64375Q278.0 62.05 278.0 61.128124Q278.0 60.596874 278.23438 60.159374Q278.48438 59.721874 278.875 59.45625Q279.28125 59.190624 279.76562 59.05Q280.125 58.95625 280.85938 58.8625Q282.35938 58.690624 283.0625 58.440624Q283.0625 58.190624 283.0625 58.128124Q283.0625 57.3625 282.71875 57.065624Q282.25 56.64375 281.3125 56.64375Q280.45312 56.64375 280.03125 56.95625Q279.625 57.253124 279.42188 58.01875L278.21875 57.8625Q278.375 57.08125 278.75 56.6125Q279.14062 56.14375 279.84375 55.89375Q280.5625 55.628124 281.5 55.628124Q282.42188 55.628124 283.0 55.846874Q283.57812 56.065624 283.84375 56.39375Q284.125 56.721874 284.23438 57.2375Q284.29688 57.55 284.29688 58.3625L284.29688 60.003124Q284.29688 61.721874 284.375 62.175Q284.45312 62.628124 284.6875 63.05L283.40625 63.05Q283.21875 62.659374 283.15625 62.159374ZM283.0625 59.409374Q282.39062 59.675 281.04688 59.878124Q280.29688 59.9875 279.96875 60.128124Q279.65625 60.253124 279.48438 60.51875Q279.3125 60.784374 279.3125 61.096874Q279.3125 61.596874 279.6875 61.925Q280.0625 62.253124 280.78125 62.253124Q281.5 62.253124 282.04688 61.940624Q282.59375 61.628124 282.85938 61.08125Q283.0625 60.675 283.0625 59.8625L283.0625 59.409374ZM286.40625 63.05L286.40625 55.784374L287.51562 55.784374L287.51562 56.89375Q287.9375 56.1125 288.29688 55.878124Q288.65625 55.628124 289.09375 55.628124Q289.71875 55.628124 290.35938 56.01875L289.9375 57.159374Q289.48438 56.89375 289.03125 56.89375Q288.625 56.89375 288.29688 57.14375Q287.98438 57.378124 287.84375 57.815624Q287.64062 58.471874 287.64062 59.253124L287.64062 63.05L286.40625 63.05ZM296.15625 62.159374Q295.48438 62.7375 294.84375 62.9875Q294.21875 63.221874 293.48438 63.221874Q292.29688 63.221874 291.64062 62.64375Q291.0 62.05 291.0 61.128124Q291.0 60.596874 291.23438 60.159374Q291.48438 59.721874 291.875 59.45625Q292.28125 59.190624 292.76562 59.05Q293.125 58.95625 293.85938 58.8625Q295.35938 58.690624 296.0625 58.440624Q296.0625 58.190624 296.0625 58.128124Q296.0625 57.3625 295.71875 57.065624Q295.25 56.64375 294.3125 56.64375Q293.45312 56.64375 293.03125 56.95625Q292.625 57.253124 292.42188 58.01875L291.21875 57.8625Q291.375 57.08125 291.75 56.6125Q292.14062 56.14375 292.84375 55.89375Q293.5625 55.628124 294.5 55.628124Q295.42188 55.628124 296.0 55.846874Q296.57812 56.065624 296.84375 56.39375Q297.125 56.721874 297.23438 57.2375Q297.29688 57.55 297.29688 58.3625L297.29688 60.003124Q297.29688 61.721874 297.375 62.175Q297.45312 62.628124 297.6875 63.05L296.40625 63.05Q296.21875 62.659374 296.15625 62.159374ZM296.0625 59.409374Q295.39062 59.675 294.04688 59.878124Q293.29688 59.9875 292.96875 60.128124Q292.65625 60.253124 292.48438 60.51875Q292.3125 60.784374 292.3125 61.096874Q292.3125 61.596874 292.6875 61.925Q293.0625 62.253124 293.78125 62.253124Q294.5 62.253124 295.04688 61.940624Q295.59375 61.628124 295.85938 61.08125Q296.0625 60.675 296.0625 59.8625L296.0625 59.409374ZM302.10938 61.95625L302.28125 63.034374Q301.76562 63.14375 301.35938 63.14375Q300.6875 63.14375 300.3125 62.940624Q299.95312 62.721874 299.79688 62.378124Q299.65625 62.034374 299.65625 60.925L299.65625 56.753124L298.75 56.753124L298.75 55.784374L299.65625 55.784374L299.65625 53.9875L300.875 53.253124L300.875 55.784374L302.10938 55.784374L302.10938 56.753124L300.875 56.753124L300.875 60.9875Q300.875 61.51875 300.9375 61.675Q301.0 61.815624 301.14062 61.909374Q301.29688 62.003124 301.5625 62.003124Q301.78125 62.003124 302.10938 61.95625ZM303.4375 54.440624L303.4375 53.034374L304.65625 53.034374L304.65625 54.440624L303.4375 54.440624ZM303.4375 63.05L303.4375 55.784374L304.65625 55.784374L304.65625 63.05L303.4375 63.05ZM305.96875 59.425Q305.96875 57.409374 307.09375 56.425Q308.01562 55.628124 309.375 55.628124Q310.85938 55.628124 311.8125 56.6125Q312.76562 57.58125 312.76562 59.315624Q312.76562 60.721874 312.34375 61.534374Q311.92188 62.33125 311.10938 62.784374Q310.3125 63.221874 309.375 63.221874Q307.84375 63.221874 306.90625 62.2375Q305.96875 61.253124 305.96875 59.425ZM307.23438 59.425Q307.23438 60.815624 307.84375 61.51875Q308.45312 62.20625 309.375 62.20625Q310.28125 62.20625 310.89062 61.503124Q311.5 60.8 311.5 59.378124Q311.5 58.034374 310.89062 57.346874Q310.28125 56.64375 309.375 56.64375Q308.45312 56.64375 307.84375 57.33125Q307.23438 58.01875 307.23438 59.425ZM314.42188 63.05L314.42188 55.784374L315.53125 55.784374L315.53125 56.815624Q316.32812 55.628124 317.84375 55.628124Q318.5 55.628124 319.04688 55.8625Q319.59375 56.096874 319.85938 56.4875Q320.14062 56.8625 320.25 57.39375Q320.32812 57.7375 320.32812 58.58125L320.32812 63.05L319.09375 63.05L319.09375 58.628124Q319.09375 57.878124 318.95312 57.51875Q318.8125 57.14375 318.4375 56.925Q318.07812 56.690624 317.57812 56.690624Q316.79688 56.690624 316.21875 57.190624Q315.65625 57.690624 315.65625 59.08125L315.65625 63.05L314.42188 63.05ZM326.53125 63.05L326.53125 53.034374L327.85938 53.034374L327.85938 61.8625L332.78125 61.8625L332.78125 63.05L326.53125 63.05ZM339.15625 62.159374Q338.48438 62.7375 337.84375 62.9875Q337.21875 63.221874 336.48438 63.221874Q335.29688 63.221874 334.64062 62.64375Q334.0 62.05 334.0 61.128124Q334.0 60.596874 334.23438 60.159374Q334.48438 59.721874 334.875 59.45625Q335.28125 59.190624 335.76562 59.05Q336.125 58.95625 336.85938 58.8625Q338.35938 58.690624 339.0625 58.440624Q339.0625 58.190624 339.0625 58.128124Q339.0625 57.3625 338.71875 57.065624Q338.25 56.64375 337.3125 56.64375Q336.45312 56.64375 336.03125 56.95625Q335.625 57.253124 335.42188 58.01875L334.21875 57.8625Q334.375 57.08125 334.75 56.6125Q335.14062 56.14375 335.84375 55.89375Q336.5625 55.628124 337.5 55.628124Q338.42188 55.628124 339.0 55.846874Q339.57812 56.065624 339.84375 56.39375Q340.125 56.721874 340.23438 57.2375Q340.29688 57.55 340.29688 58.3625L340.29688 60.003124Q340.29688 61.721874 340.375 62.175Q340.45312 62.628124 340.6875 63.05L339.40625 63.05Q339.21875 62.659374 339.15625 62.159374ZM339.0625 59.409374Q338.39062 59.675 337.04688 59.878124Q336.29688 59.9875 335.96875 60.128124Q335.65625 60.253124 335.48438 60.51875Q335.3125 60.784374 335.3125 61.096874Q335.3125 61.596874 335.6875 61.925Q336.0625 62.253124 336.78125 62.253124Q337.5 62.253124 338.04688 61.940624Q338.59375 61.628124 338.85938 61.08125Q339.0625 60.675 339.0625 59.8625L339.0625 59.409374ZM343.76562 63.05L341.54688 55.784374L342.8125 55.784374L343.96875 59.9875L344.40625 61.534374Q344.42188 61.425 344.78125 60.034374L345.9375 55.784374L347.1875 55.784374L348.28125 60.003124L348.64062 61.39375L349.0625 59.9875L350.3125 55.784374L351.5 55.784374L349.23438 63.05L347.95312 63.05L346.79688 58.70625L346.51562 57.471874L345.04688 63.05L343.76562 63.05ZM357.78125 66.00313Q356.75 64.70625 356.04688 62.9875Q355.34375 61.26875 355.34375 59.425Q355.34375 57.8 355.875 56.3Q356.48438 54.565624 357.78125 52.8625L358.65625 52.8625Q357.82812 54.284374 357.5625 54.89375Q357.14062 55.83125 356.90625 56.8625Q356.60938 58.128124 356.60938 59.425Q356.60938 62.721874 358.65625 66.00313L357.78125 66.00313ZM360.53125 63.05L360.53125 53.034374L361.85938 53.034374L361.85938 61.8625L366.78125 61.8625L366.78125 63.05L360.53125 63.05ZM368.4375 54.440624L368.4375 53.034374L369.65625 53.034374L369.65625 54.440624L368.4375 54.440624ZM368.4375 63.05L368.4375 55.784374L369.65625 55.784374L369.65625 63.05L368.4375 63.05ZM371.42188 63.05L371.42188 55.784374L372.53125 55.784374L372.53125 56.815624Q373.32812 55.628124 374.84375 55.628124Q375.5 55.628124 376.04688 55.8625Q376.59375 56.096874 376.85938 56.4875Q377.14062 56.8625 377.25 57.39375Q377.32812 57.7375 377.32812 58.58125L377.32812 63.05L376.09375 63.05L376.09375 58.628124Q376.09375 57.878124 375.95312 57.51875Q375.8125 57.14375 375.4375 56.925Q375.07812 56.690624 374.57812 56.690624Q373.79688 56.690624 373.21875 57.190624Q372.65625 57.690624 372.65625 59.08125L372.65625 63.05L371.42188 63.05ZM384.39062 60.70625L385.67188 60.8625Q385.35938 61.9875 384.54688 62.6125Q383.73438 63.221874 382.46875 63.221874Q380.875 63.221874 379.9375 62.2375Q379.01562 61.253124 379.01562 59.4875Q379.01562 57.64375 379.95312 56.64375Q380.90625 55.628124 382.40625 55.628124Q383.85938 55.628124 384.78125 56.628124Q385.70312 57.6125 385.70312 59.409374Q385.70312 59.51875 385.70312 59.7375L380.28125 59.7375Q380.35938 60.925 380.95312 61.565624Q381.5625 62.20625 382.48438 62.20625Q383.15625 62.20625 383.625 61.846874Q384.10938 61.4875 384.39062 60.70625ZM380.35938 58.721874L384.40625 58.721874Q384.32812 57.8 383.9375 57.346874Q383.35938 56.64375 382.42188 56.64375Q381.5625 56.64375 380.98438 57.20625Q380.42188 57.76875 380.35938 58.721874ZM392.15625 62.159374Q391.48438 62.7375 390.84375 62.9875Q390.21875 63.221874 389.48438 63.221874Q388.29688 63.221874 387.64062 62.64375Q387.0 62.05 387.0 61.128124Q387.0 60.596874 387.23438 60.159374Q387.48438 59.721874 387.875 59.45625Q388.28125 59.190624 388.76562 59.05Q389.125 58.95625 389.85938 58.8625Q391.35938 58.690624 392.0625 58.440624Q392.0625 58.190624 392.0625 58.128124Q392.0625 57.3625 391.71875 57.065624Q391.25 56.64375 390.3125 56.64375Q389.45312 56.64375 389.03125 56.95625Q388.625 57.253124 388.42188 58.01875L387.21875 57.8625Q387.375 57.08125 387.75 56.6125Q388.14062 56.14375 388.84375 55.89375Q389.5625 55.628124 390.5 55.628124Q391.42188 55.628124 392.0 55.846874Q392.57812 56.065624 392.84375 56.39375Q393.125 56.721874 393.23438 57.2375Q393.29688 57.55 393.29688 58.3625L393.29688 60.003124Q393.29688 61.721874 393.375 62.175Q393.45312 62.628124 393.6875 63.05L392.40625 63.05Q392.21875 62.659374 392.15625 62.159374ZM392.0625 59.409374Q391.39062 59.675 390.04688 59.878124Q389.29688 59.9875 388.96875 60.128124Q388.65625 60.253124 388.48438 60.51875Q388.3125 60.784374 388.3125 61.096874Q388.3125 61.596874 388.6875 61.925Q389.0625 62.253124 389.78125 62.253124Q390.5 62.253124 391.04688 61.940624Q391.59375 61.628124 391.85938 61.08125Q392.0625 60.675 392.0625 59.8625L392.0625 59.409374ZM395.40625 63.05L395.40625 55.784374L396.51562 55.784374L396.51562 56.89375Q396.9375 56.1125 397.29688 55.878124Q397.65625 55.628124 398.09375 55.628124Q398.71875 55.628124 399.35938 56.01875L398.9375 57.159374Q398.48438 56.89375 398.03125 56.89375Q397.625 56.89375 397.29688 57.14375Q396.98438 57.378124 396.84375 57.815624Q396.64062 58.471874 396.64062 59.253124L396.64062 63.05L395.40625 63.05ZM401.23438 66.00313L400.34375 66.00313Q402.39062 62.721874 402.39062 59.425Q402.39062 58.14375 402.09375 56.878124Q401.85938 55.846874 401.45312 54.909374Q401.1875 54.3 400.34375 52.8625L401.23438 52.8625Q402.51562 54.565624 403.125 56.3Q403.65625 57.8 403.65625 59.425Q403.65625 61.26875 402.9375 62.9875Q402.23438 64.70625 401.23438 66.00313Z" fill-rule="nonzero"/><path fill="#000000" d="M227.46875 34.596874L230.21875 34.175Q230.40625 34.971874 230.9375 35.39375Q231.46875 35.8 232.4375 35.8Q233.5 35.8 234.04688 35.409374Q234.40625 35.14375 234.40625 34.675Q234.40625 34.3625 234.20312 34.159374Q234.0 33.971874 233.29688 33.8Q229.96875 33.065624 229.07812 32.45625Q227.84375 31.628124 227.84375 30.128124Q227.84375 28.784374 228.90625 27.8625Q229.98438 26.940624 232.21875 26.940624Q234.34375 26.940624 235.375 27.64375Q236.42188 28.33125 236.8125 29.690624L234.21875 30.159374Q234.04688 29.565624 233.57812 29.2375Q233.125 28.909374 232.26562 28.909374Q231.1875 28.909374 230.71875 29.221874Q230.40625 29.440624 230.40625 29.76875Q230.40625 30.065624 230.67188 30.26875Q231.04688 30.55 233.23438 31.05Q235.42188 31.55 236.29688 32.26875Q237.15625 33.003124 237.15625 34.3Q237.15625 35.7375 235.96875 36.76875Q234.78125 37.784374 232.4375 37.784374Q230.32812 37.784374 229.07812 36.925Q227.84375 36.065624 227.46875 34.596874ZM239.4375 25.76875L239.4375 23.2375L242.1875 23.2375L242.1875 25.76875L239.4375 25.76875ZM239.4375 37.55L239.4375 27.175L242.1875 27.175L242.1875 37.55L239.4375 37.55ZM244.1875 38.2375L247.3125 38.6125Q247.39062 39.159374 247.67188 39.3625Q248.0625 39.659374 248.90625 39.659374Q249.98438 39.659374 250.51562 39.33125Q250.875 39.128124 251.0625 38.64375Q251.1875 38.3 251.1875 37.378124L251.1875 35.8625Q249.96875 37.55 248.09375 37.55Q246.0 37.55 244.78125 35.784374Q243.82812 34.378124 243.82812 32.3Q243.82812 29.690624 245.07812 28.315624Q246.32812 26.940624 248.20312 26.940624Q250.125 26.940624 251.375 28.628124L251.375 27.175L253.9375 27.175L253.9375 36.4875Q253.9375 38.315624 253.625 39.221874Q253.32812 40.14375 252.78125 40.659374Q252.23438 41.175 251.3125 41.45625Q250.40625 41.753124 249.01562 41.753124Q246.375 41.753124 245.26562 40.846874Q244.17188 39.95625 244.17188 38.565624Q244.17188 38.425 244.1875 38.2375ZM246.64062 32.14375Q246.64062 33.8 247.26562 34.565624Q247.90625 35.33125 248.84375 35.33125Q249.85938 35.33125 250.54688 34.55Q251.25 33.753124 251.25 32.221874Q251.25 30.6125 250.57812 29.83125Q249.92188 29.05 248.90625 29.05Q247.90625 29.05 247.26562 29.815624Q246.64062 30.58125 246.64062 32.14375ZM265.60938 32.284374L268.42188 33.175Q267.78125 35.51875 266.28125 36.659374Q264.78125 37.8 262.46875 37.8Q259.625 37.8 257.78125 35.846874Q255.95312 33.89375 255.95312 30.51875Q255.95312 26.940624 257.79688 24.971874Q259.64062 22.9875 262.64062 22.9875Q265.28125 22.9875 266.92188 24.534374Q267.89062 25.45625 268.375 27.175L265.51562 27.8625Q265.26562 26.753124 264.45312 26.1125Q263.65625 25.45625 262.5 25.45625Q260.90625 25.45625 259.90625 26.596874Q258.92188 27.7375 258.92188 30.3Q258.92188 33.01875 259.89062 34.175Q260.875 35.315624 262.4375 35.315624Q263.59375 35.315624 264.42188 34.596874Q265.25 33.8625 265.60938 32.284374ZM273.0625 37.55L270.3125 37.55L270.3125 27.175L272.875 27.175L272.875 28.659374Q273.51562 27.6125 274.03125 27.284374Q274.5625 26.940624 275.23438 26.940624Q276.17188 26.940624 277.03125 27.45625L276.1875 29.846874Q275.5 29.409374 274.90625 29.409374Q274.32812 29.409374 273.92188 29.721874Q273.51562 30.034374 273.28125 30.878124Q273.0625 31.70625 273.0625 34.346874L273.0625 37.55ZM282.98438 41.753124L281.10938 41.753124Q279.60938 39.503124 278.82812 37.08125Q278.04688 34.64375 278.04688 32.3625Q278.04688 29.534374 279.01562 27.01875Q279.85938 24.83125 281.14062 22.9875L283.01562 22.9875Q281.67188 25.940624 281.17188 28.01875Q280.67188 30.096874 280.67188 32.425Q280.67188 34.01875 280.96875 35.70625Q281.26562 37.378124 281.78125 38.89375Q282.125 39.89375 282.98438 41.753124ZM291.875 37.55L289.125 37.55L289.125 27.20625Q287.625 28.6125 285.57812 29.284374L285.57812 26.8Q286.65625 26.440624 287.90625 25.471874Q289.17188 24.4875 289.64062 23.175L291.875 23.175L291.875 37.55ZM295.67188 41.753124Q296.48438 40.01875 296.8125 39.08125Q297.15625 38.159374 297.4375 36.95625Q297.71875 35.7375 297.84375 34.659374Q297.98438 33.565624 297.98438 32.425Q297.98438 30.096874 297.48438 28.01875Q297.0 25.940624 295.65625 22.9875L297.51562 22.9875Q299.0 25.08125 299.8125 27.440624Q300.625 29.8 300.625 32.221874Q300.625 34.253124 299.98438 36.596874Q299.25 39.20625 297.5625 41.753124L295.67188 41.753124ZM312.28125 37.55L308.10938 27.175L310.98438 27.175L312.9375 32.471874L313.51562 34.2375Q313.73438 33.565624 313.79688 33.346874Q313.92188 32.909374 314.07812 32.471874L316.0625 27.175L318.875 27.175L314.76562 37.55L312.28125 37.55ZM319.46875 34.596874L322.21875 34.175Q322.40625 34.971874 322.9375 35.39375Q323.46875 35.8 324.4375 35.8Q325.5 35.8 326.04688 35.409374Q326.40625 35.14375 326.40625 34.675Q326.40625 34.3625 326.20312 34.159374Q326.0 33.971874 325.29688 33.8Q321.96875 33.065624 321.07812 32.45625Q319.84375 31.628124 319.84375 30.128124Q319.84375 28.784374 320.90625 27.8625Q321.98438 26.940624 324.21875 26.940624Q326.34375 26.940624 327.375 27.64375Q328.42188 28.33125 328.8125 29.690624L326.21875 30.159374Q326.04688 29.565624 325.57812 29.2375Q325.125 28.909374 324.26562 28.909374Q323.1875 28.909374 322.71875 29.221874Q322.40625 29.440624 322.40625 29.76875Q322.40625 30.065624 322.67188 30.26875Q323.04688 30.55 325.23438 31.05Q327.42188 31.55 328.29688 32.26875Q329.15625 33.003124 329.15625 34.3Q329.15625 35.7375 327.96875 36.76875Q326.78125 37.784374 324.4375 37.784374Q322.32812 37.784374 321.07812 36.925Q319.84375 36.065624 319.46875 34.596874ZM344.26562 37.55L344.26562 36.003124Q343.70312 36.83125 342.76562 37.315624Q341.84375 37.784374 340.82812 37.784374Q339.78125 37.784374 338.95312 37.33125Q338.125 36.8625 337.75 36.034374Q337.375 35.20625 337.375 33.7375L337.375 27.175L340.125 27.175L340.125 31.940624Q340.125 34.128124 340.26562 34.628124Q340.42188 35.1125 340.8125 35.409374Q341.21875 35.690624 341.84375 35.690624Q342.54688 35.690624 343.09375 35.315624Q343.65625 34.925 343.85938 34.3625Q344.0625 33.784374 344.0625 31.55L344.0625 27.175L346.8125 27.175L346.8125 37.55L344.26562 37.55ZM353.98438 41.753124L352.10938 41.753124Q350.60938 39.503124 349.82812 37.08125Q349.04688 34.64375 349.04688 32.3625Q349.04688 29.534374 350.01562 27.01875Q350.85938 24.83125 352.14062 22.9875L354.01562 22.9875Q352.67188 25.940624 352.17188 28.01875Q351.67188 30.096874 351.67188 32.425Q351.67188 34.01875 351.96875 35.70625Q352.26562 37.378124 352.78125 38.89375Q353.125 39.89375 353.98438 41.753124ZM362.875 37.55L360.125 37.55L360.125 27.20625Q358.625 28.6125 356.57812 29.284374L356.57812 26.8Q357.65625 26.440624 358.90625 25.471874Q360.17188 24.4875 360.64062 23.175L362.875 23.175L362.875 37.55ZM366.67188 41.753124Q367.48438 40.01875 367.8125 39.08125Q368.15625 38.159374 368.4375 36.95625Q368.71875 35.7375 368.84375 34.659374Q368.98438 33.565624 368.98438 32.425Q368.98438 30.096874 368.48438 28.01875Q368.0 25.940624 366.65625 22.9875L368.51562 22.9875Q370.0 25.08125 370.8125 27.440624Q371.625 29.8 371.625 32.221874Q371.625 34.253124 370.98438 36.596874Q370.25 39.20625 368.5625 41.753124L366.67188 41.753124Z" fill-rule="nonzero"/></svg>